<svg width="190" height="128" viewBox="0 0 190 128" fill="none" xmlns="http://www.w3.org/2000/svg">
<rect x="0.5" y="0.5" width="189" height="127" rx="6.5" fill="#0C324D" stroke="url(#paint0_linear_100_203)"/>
<path d="M12.3 15L9.77 8.21L9.7 8H10.55L13.21 14.92V15H12.3ZM7.04 15V14.92L9.7 8H10.55L10.48 8.21L7.95 15H7.04ZM8.07 13.2L8.37 12.37H11.98L12.28 13.2H8.07ZM15.82 15C15.3867 15 15.0333 14.8633 14.76 14.59C14.4867 14.31 14.35 13.9333 14.35 13.46V8.64H15.2V13.39C15.2 13.6767 15.2633 13.8833 15.39 14.01C15.5167 14.13 15.72 14.19 16 14.19H16.6L16.65 14.3V15H15.82ZM13.49 10.79V9.99H16.65V10.79H13.49ZM19.6579 15C19.2246 15 18.8712 14.8633 18.5979 14.59C18.3246 14.31 18.1879 13.9333 18.1879 13.46V8.64H19.0379V13.39C19.0379 13.6767 19.1012 13.8833 19.2279 14.01C19.3546 14.13 19.5579 14.19 19.8379 14.19H20.4379L20.4879 14.3V15H19.6579ZM17.3279 10.79V9.99H20.4879V10.79H17.3279ZM23.6005 15.13C23.1138 15.13 22.6838 15.02 22.3105 14.8C21.9371 14.5733 21.6438 14.2633 21.4305 13.87C21.2238 13.4767 21.1205 13.0167 21.1205 12.49C21.1205 11.97 21.2238 11.5133 21.4305 11.12C21.6371 10.72 21.9238 10.41 22.2905 10.19C22.6638 9.97 23.0905 9.86 23.5705 9.86C24.0438 9.86 24.4571 9.97333 24.8105 10.2C25.1705 10.42 25.4505 10.7333 25.6505 11.14C25.8505 11.5467 25.9505 12.02 25.9505 12.56V12.68L25.8005 12.82H21.5905V12.03H25.4905L25.0905 12.19C25.0705 11.87 24.9905 11.5967 24.8505 11.37C24.7105 11.1433 24.5305 10.97 24.3105 10.85C24.0905 10.7233 23.8438 10.66 23.5705 10.66C23.2771 10.66 23.0071 10.7333 22.7605 10.88C22.5138 11.02 22.3205 11.22 22.1805 11.48C22.0405 11.74 21.9705 12.04 21.9705 12.38V12.58C21.9705 12.9133 22.0405 13.2133 22.1805 13.48C22.3205 13.74 22.5138 13.9467 22.7605 14.1C23.0071 14.2533 23.2871 14.33 23.6005 14.33C23.9071 14.33 24.1738 14.2567 24.4005 14.11C24.6271 13.9567 24.8038 13.75 24.9305 13.49H25.0505L25.7505 13.8C25.5638 14.2133 25.2805 14.54 24.9005 14.78C24.5271 15.0133 24.0938 15.13 23.6005 15.13ZM27.0159 15V9.99H27.8359V11.4L27.5959 11.25C27.6893 10.9633 27.8359 10.7167 28.0359 10.51C28.2359 10.3033 28.4693 10.1433 28.7359 10.03C29.0093 9.91667 29.2993 9.86 29.6059 9.86C29.9659 9.86 30.2859 9.93667 30.5659 10.09C30.8526 10.2433 31.0759 10.47 31.2359 10.77C31.3959 11.07 31.4759 11.4467 31.4759 11.9V15H30.6259V12.11C30.6259 11.75 30.5726 11.4667 30.4659 11.26C30.3593 11.0467 30.2126 10.8967 30.0259 10.81C29.8459 10.7233 29.6393 10.68 29.4059 10.68C29.1526 10.68 28.9059 10.7433 28.6659 10.87C28.4326 10.99 28.2393 11.1733 28.0859 11.42C27.9393 11.6667 27.8659 11.9733 27.8659 12.34V15H27.0159ZM34.8774 15.13C34.4308 15.13 34.0274 15.0167 33.6674 14.79C33.3074 14.5633 33.0208 14.2533 32.8074 13.86C32.6008 13.46 32.4974 13.0033 32.4974 12.49C32.4974 11.9833 32.6008 11.5333 32.8074 11.14C33.0208 10.74 33.3074 10.4267 33.6674 10.2C34.0274 9.97333 34.4308 9.86 34.8774 9.86C35.2241 9.86 35.5408 9.93 35.8274 10.07C36.1208 10.21 36.3674 10.4033 36.5674 10.65C36.7741 10.89 36.9241 11.17 37.0174 11.49V13.5C36.9241 13.8133 36.7741 14.0933 36.5674 14.34C36.3674 14.5867 36.1208 14.78 35.8274 14.92C35.5408 15.06 35.2241 15.13 34.8774 15.13ZM34.9374 14.32C35.2641 14.32 35.5508 14.2433 35.7974 14.09C36.0441 13.93 36.2374 13.7133 36.3774 13.44C36.5241 13.1667 36.5974 12.85 36.5974 12.49C36.5974 12.13 36.5241 11.8133 36.3774 11.54C36.2374 11.2667 36.0441 11.0533 35.7974 10.9C35.5508 10.7467 35.2641 10.67 34.9374 10.67C34.6374 10.67 34.3641 10.7467 34.1174 10.9C33.8774 11.0533 33.6874 11.2667 33.5474 11.54C33.4141 11.8133 33.3474 12.13 33.3474 12.49C33.3474 12.85 33.4141 13.1667 33.5474 13.44C33.6874 13.7133 33.8774 13.93 34.1174 14.09C34.3641 14.2433 34.6374 14.32 34.9374 14.32ZM36.6274 15V13.21L36.7774 12.49L36.5874 11.78V7.8L37.4174 7.7L37.4474 7.78V15H36.6274ZM40.4416 15.13C40.095 15.13 39.785 15.0633 39.5116 14.93C39.245 14.7967 39.035 14.6133 38.8816 14.38C38.7283 14.14 38.6516 13.8667 38.6516 13.56C38.6516 13.12 38.8083 12.7633 39.1216 12.49C39.4416 12.2167 39.8816 12.0567 40.4416 12.01L42.3716 11.87V12.63L40.6116 12.77C40.245 12.7967 39.9716 12.8767 39.7916 13.01C39.6183 13.1367 39.5316 13.3167 39.5316 13.55C39.5316 13.77 39.625 13.9533 39.8116 14.1C39.9983 14.2467 40.2383 14.32 40.5316 14.32C40.8316 14.32 41.105 14.25 41.3516 14.11C41.5983 13.97 41.7916 13.7833 41.9316 13.55C42.0783 13.3167 42.1516 13.0567 42.1516 12.77V11.96C42.1516 11.58 42.0316 11.2667 41.7916 11.02C41.5583 10.7733 41.245 10.65 40.8516 10.65C40.545 10.65 40.2816 10.7267 40.0616 10.88C39.8416 11.0267 39.6916 11.2333 39.6116 11.5H39.5016L38.7616 11.26C38.9083 10.8133 39.165 10.4667 39.5316 10.22C39.8983 9.97333 40.3416 9.85 40.8616 9.85C41.5416 9.85 42.065 10.0533 42.4316 10.46C42.805 10.8667 42.9916 11.44 42.9916 12.18V15H42.1916V13.54L42.4916 13.7C42.4116 13.9733 42.2683 14.22 42.0616 14.44C41.8616 14.6533 41.6216 14.8233 41.3416 14.95C41.0683 15.07 40.7683 15.13 40.4416 15.13ZM44.3109 15V9.99H45.1309V11.4L44.8909 11.25C44.9842 10.9633 45.1309 10.7167 45.3309 10.51C45.5309 10.3033 45.7642 10.1433 46.0309 10.03C46.3042 9.91667 46.5942 9.86 46.9009 9.86C47.2609 9.86 47.5809 9.93667 47.8609 10.09C48.1475 10.2433 48.3709 10.47 48.5309 10.77C48.6909 11.07 48.7709 11.4467 48.7709 11.9V15H47.9209V12.11C47.9209 11.75 47.8675 11.4667 47.7609 11.26C47.6542 11.0467 47.5075 10.8967 47.3209 10.81C47.1409 10.7233 46.9342 10.68 46.7009 10.68C46.4475 10.68 46.2009 10.7433 45.9609 10.87C45.7275 10.99 45.5342 11.1733 45.3809 11.42C45.2342 11.6667 45.1609 11.9733 45.1609 12.34V15H44.3109ZM52.3223 15.13C51.8223 15.13 51.3823 15.02 51.0023 14.8C50.6223 14.5733 50.3257 14.2633 50.1123 13.87C49.899 13.4767 49.7923 13.0167 49.7923 12.49C49.7923 11.97 49.899 11.5133 50.1123 11.12C50.3257 10.72 50.6223 10.41 51.0023 10.19C51.3823 9.97 51.8223 9.86 52.3223 9.86C52.7023 9.86 53.0423 9.93 53.3423 10.07C53.649 10.2033 53.909 10.3967 54.1223 10.65C54.3423 10.8967 54.5057 11.2 54.6123 11.56L53.8723 11.77H53.7623C53.649 11.43 53.4623 11.1633 53.2023 10.97C52.949 10.77 52.6557 10.67 52.3223 10.67C51.9823 10.67 51.6857 10.7467 51.4323 10.9C51.1857 11.0533 50.9923 11.2667 50.8523 11.54C50.7123 11.8133 50.6423 12.13 50.6423 12.49C50.6423 12.85 50.7123 13.17 50.8523 13.45C50.9923 13.7233 51.1857 13.9367 51.4323 14.09C51.6857 14.2433 51.9823 14.32 52.3223 14.32C52.5557 14.32 52.769 14.2767 52.9623 14.19C53.1557 14.1033 53.3223 13.9767 53.4623 13.81C53.609 13.6433 53.7223 13.4467 53.8023 13.22H53.9123L54.6623 13.43C54.5423 13.79 54.369 14.1 54.1423 14.36C53.9157 14.6133 53.649 14.8067 53.3423 14.94C53.0423 15.0667 52.7023 15.13 52.3223 15.13ZM57.868 15.13C57.3814 15.13 56.9514 15.02 56.578 14.8C56.2047 14.5733 55.9114 14.2633 55.698 13.87C55.4914 13.4767 55.388 13.0167 55.388 12.49C55.388 11.97 55.4914 11.5133 55.698 11.12C55.9047 10.72 56.1914 10.41 56.558 10.19C56.9314 9.97 57.358 9.86 57.838 9.86C58.3114 9.86 58.7247 9.97333 59.078 10.2C59.438 10.42 59.718 10.7333 59.918 11.14C60.118 11.5467 60.218 12.02 60.218 12.56V12.68L60.068 12.82H55.858V12.03H59.758L59.358 12.19C59.338 11.87 59.258 11.5967 59.118 11.37C58.978 11.1433 58.798 10.97 58.578 10.85C58.358 10.7233 58.1114 10.66 57.838 10.66C57.5447 10.66 57.2747 10.7333 57.028 10.88C56.7814 11.02 56.588 11.22 56.448 11.48C56.308 11.74 56.238 12.04 56.238 12.38V12.58C56.238 12.9133 56.308 13.2133 56.448 13.48C56.588 13.74 56.7814 13.9467 57.028 14.1C57.2747 14.2533 57.5547 14.33 57.868 14.33C58.1747 14.33 58.4414 14.2567 58.668 14.11C58.8947 13.9567 59.0714 13.75 59.198 13.49H59.318L60.018 13.8C59.8314 14.2133 59.548 14.54 59.168 14.78C58.7947 15.0133 58.3614 15.13 57.868 15.13ZM66.6496 15.13C66.0096 15.13 65.4363 14.98 64.9296 14.68C64.4296 14.3733 64.0363 13.9467 63.7496 13.4C63.4696 12.8533 63.3296 12.22 63.3296 11.5C63.3296 10.78 63.4696 10.1467 63.7496 9.6C64.0363 9.05333 64.4296 8.63 64.9296 8.33C65.4363 8.02333 66.0096 7.87 66.6496 7.87C67.2963 7.87 67.8696 8.02333 68.3696 8.33C68.8696 8.63 69.2596 9.05333 69.5396 9.6C69.8263 10.1467 69.9696 10.78 69.9696 11.5C69.9696 12.22 69.8263 12.8533 69.5396 13.4C69.2596 13.9467 68.8696 14.3733 68.3696 14.68C67.8696 14.98 67.2963 15.13 66.6496 15.13ZM66.6496 14.3C67.1163 14.3 67.5329 14.1867 67.8996 13.96C68.2729 13.7267 68.5663 13.4 68.7796 12.98C68.9929 12.56 69.0996 12.0667 69.0996 11.5C69.0996 10.9267 68.9929 10.43 68.7796 10.01C68.5663 9.59 68.2729 9.26667 67.8996 9.04C67.5329 8.81333 67.1163 8.7 66.6496 8.7C66.1829 8.7 65.7663 8.81333 65.3996 9.04C65.0329 9.26667 64.7396 9.59 64.5196 10.01C64.3063 10.43 64.1996 10.9267 64.1996 11.5C64.1996 12.0667 64.3063 12.56 64.5196 12.98C64.7396 13.4 65.0329 13.7267 65.3996 13.96C65.7663 14.1867 66.1829 14.3 66.6496 14.3ZM72.7873 15L72.8073 14.3L74.5473 9.99H75.4273V10.07L73.3973 15H72.7873ZM72.5673 15L70.5373 10.07V9.99H71.4173L73.1573 14.3L73.1873 15H72.5673ZM78.1903 15.13C77.7036 15.13 77.2736 15.02 76.9003 14.8C76.527 14.5733 76.2336 14.2633 76.0203 13.87C75.8136 13.4767 75.7103 13.0167 75.7103 12.49C75.7103 11.97 75.8136 11.5133 76.0203 11.12C76.227 10.72 76.5136 10.41 76.8803 10.19C77.2536 9.97 77.6803 9.86 78.1603 9.86C78.6336 9.86 79.047 9.97333 79.4003 10.2C79.7603 10.42 80.0403 10.7333 80.2403 11.14C80.4403 11.5467 80.5403 12.02 80.5403 12.56V12.68L80.3903 12.82H76.1803V12.03H80.0803L79.6803 12.19C79.6603 11.87 79.5803 11.5967 79.4403 11.37C79.3003 11.1433 79.1203 10.97 78.9003 10.85C78.6803 10.7233 78.4336 10.66 78.1603 10.66C77.867 10.66 77.597 10.7333 77.3503 10.88C77.1036 11.02 76.9103 11.22 76.7703 11.48C76.6303 11.74 76.5603 12.04 76.5603 12.38V12.58C76.5603 12.9133 76.6303 13.2133 76.7703 13.48C76.9103 13.74 77.1036 13.9467 77.3503 14.1C77.597 14.2533 77.877 14.33 78.1903 14.33C78.497 14.33 78.7636 14.2567 78.9903 14.11C79.217 13.9567 79.3936 13.75 79.5203 13.49H79.6403L80.3403 13.8C80.1536 14.2133 79.8703 14.54 79.4903 14.78C79.117 15.0133 78.6836 15.13 78.1903 15.13ZM81.6058 15V9.99H82.4258V11.4L82.1858 11.25C82.3058 10.8633 82.5291 10.5567 82.8558 10.33C83.1824 10.1033 83.5491 9.99 83.9558 9.99H84.4658V10.79H83.8258C83.5524 10.79 83.3124 10.8567 83.1058 10.99C82.9058 11.1167 82.7458 11.2967 82.6258 11.53C82.5124 11.7567 82.4558 12.0233 82.4558 12.33V15H81.6058ZM86.8986 15L86.9186 14.3L88.6586 9.99H89.5386V10.07L87.5086 15H86.8986ZM86.6786 15L84.6486 10.07V9.99H85.5286L87.2686 14.3L87.2986 15H86.6786ZM90.307 15V9.99H91.157V15H90.307ZM90.737 9.06C90.5703 9.06 90.4303 9.00333 90.317 8.89C90.2036 8.77667 90.147 8.63667 90.147 8.47C90.147 8.30333 90.2036 8.16333 90.317 8.05C90.4303 7.93 90.5703 7.87 90.737 7.87C90.9036 7.87 91.0436 7.93 91.157 8.05C91.277 8.16333 91.337 8.30333 91.337 8.47C91.337 8.63667 91.277 8.77667 91.157 8.89C91.0436 9.00333 90.9036 9.06 90.737 9.06ZM94.7138 15.13C94.2271 15.13 93.7971 15.02 93.4238 14.8C93.0504 14.5733 92.7571 14.2633 92.5438 13.87C92.3371 13.4767 92.2338 13.0167 92.2338 12.49C92.2338 11.97 92.3371 11.5133 92.5438 11.12C92.7504 10.72 93.0371 10.41 93.4038 10.19C93.7771 9.97 94.2038 9.86 94.6838 9.86C95.1571 9.86 95.5704 9.97333 95.9238 10.2C96.2838 10.42 96.5638 10.7333 96.7638 11.14C96.9638 11.5467 97.0638 12.02 97.0638 12.56V12.68L96.9138 12.82H92.7038V12.03H96.6038L96.2038 12.19C96.1838 11.87 96.1038 11.5967 95.9638 11.37C95.8238 11.1433 95.6438 10.97 95.4238 10.85C95.2038 10.7233 94.9571 10.66 94.6838 10.66C94.3904 10.66 94.1204 10.7333 93.8738 10.88C93.6271 11.02 93.4338 11.22 93.2938 11.48C93.1538 11.74 93.0838 12.04 93.0838 12.38V12.58C93.0838 12.9133 93.1538 13.2133 93.2938 13.48C93.4338 13.74 93.6271 13.9467 93.8738 14.1C94.1204 14.2533 94.4004 14.33 94.7138 14.33C95.0204 14.33 95.2871 14.2567 95.5138 14.11C95.7404 13.9567 95.9171 13.75 96.0438 13.49H96.1638L96.8638 13.8C96.6771 14.2133 96.3938 14.54 96.0138 14.78C95.6404 15.0133 95.2071 15.13 94.7138 15.13ZM99.0239 15L97.3939 10.07V9.99H98.2439L99.6139 14.31L99.8239 15H99.0239ZM99.0239 15L99.2839 14.31L100.724 9.99H101.524L101.494 10.07L99.8239 15H99.0239ZM102.424 15L100.764 10.07L100.724 9.99H101.524L102.964 14.31L103.224 15H102.424ZM102.424 15L102.634 14.31L103.994 9.99H104.854V10.07L103.224 15H102.424Z" fill="white"/>
<rect x="16" y="65" width="6" height="46" rx="3" fill="#0A4E9C"/>
<rect x="41" y="57" width="6" height="54" rx="3" fill="#0A4E9C"/>
<rect x="66" y="42" width="6" height="69" rx="3" fill="#0A4E9C"/>
<rect x="91" y="74" width="6" height="37" rx="3" fill="#0A4E9C"/>
<rect x="116" y="65" width="6" height="46" rx="3" fill="#0A4E9C"/>
<rect x="141" y="71" width="6" height="40" rx="3" fill="#0A4E9C"/>
<rect x="166" y="43" width="6" height="68" rx="3" fill="#0A4E9C"/>
<rect x="16" y="42" width="6" height="21" rx="3" fill="#0A4E9C"/>
<rect x="41" y="34" width="6" height="21" rx="3" fill="#0A4E9C"/>
<rect x="91" y="63" width="6" height="9" rx="3" fill="#0A4E9C"/>
<rect x="116" y="33" width="6" height="30" rx="3" fill="#0A4E9C"/>
<rect x="141" y="42" width="6" height="26" rx="3" fill="#0A4E9C"/>
<rect x="166" y="33" width="6" height="8" rx="3" fill="#0A4E9C"/>
<rect x="16" y="23" width="6" height="17" rx="3" fill="#0A4E9C"/>
<rect x="41" y="23" width="6" height="9" rx="3" fill="#0A4E9C"/>
<rect x="66" y="23" width="6" height="17" rx="3" fill="#0A4E9C"/>
<rect x="91" y="23" width="6" height="38" rx="3" fill="#0A4E9C"/>
<rect x="116" y="23" width="6" height="8" rx="3" fill="#0A4E9C"/>
<rect x="141" y="23" width="6" height="17" rx="3" fill="#0A4E9C"/>
<rect x="166" y="23" width="6" height="8" rx="3" fill="#0A4E9C"/>
<path d="M18.968 122.831L18.8812 122.74L17.143 118.665L17.4792 118.314L17.5702 118.401L19.3084 122.476L18.968 122.831ZM17.6564 124.2L14.6236 121.295L14.9764 120.926L18.0092 123.832L17.6564 124.2ZM18.9722 122.827L14.8225 121.269L14.7315 121.182L15.0718 120.827L19.2174 122.389L19.3084 122.476L18.9722 122.827ZM20.2672 121.475L17.2343 118.569L17.5871 118.201L20.62 121.107L20.2672 121.475ZM22.2 119.57C21.998 119.781 21.7719 119.922 21.5216 119.992C21.2684 120.06 21.0124 120.058 20.7534 119.987C20.4915 119.914 20.248 119.769 20.0227 119.553C19.7974 119.337 19.6438 119.102 19.5619 118.846C19.4771 118.587 19.4646 118.332 19.5242 118.079C19.5839 117.826 19.7147 117.594 19.9167 117.383C20.1214 117.169 20.349 117.027 20.5992 116.956C20.8495 116.886 21.1056 116.888 21.3674 116.961C21.6264 117.032 21.8685 117.175 22.0938 117.391C22.3191 117.607 22.4742 117.844 22.5589 118.103C22.6408 118.358 22.6533 118.614 22.5966 118.87C22.537 119.123 22.4048 119.356 22.2 119.57ZM21.849 119.234C21.9846 119.092 22.0705 118.939 22.1065 118.774C22.1425 118.604 22.1303 118.432 22.07 118.257C22.0068 118.081 21.8957 117.916 21.7369 117.764C21.5751 117.609 21.4074 117.506 21.2338 117.456C21.0572 117.404 20.886 117.4 20.7201 117.446C20.554 117.486 20.4032 117.577 20.2676 117.719C20.1348 117.858 20.0504 118.012 20.0145 118.183C19.9756 118.35 19.9864 118.521 20.0467 118.695C20.1041 118.867 20.2137 119.03 20.3755 119.185C20.5343 119.337 20.7035 119.441 20.8829 119.497C21.0594 119.549 21.2321 119.554 21.4009 119.511C21.5669 119.465 21.7162 119.373 21.849 119.234ZM23.6261 117.969L21.4554 115.889L21.7957 115.534L22.4067 116.119L22.242 116.161C22.1566 116.002 22.1106 115.836 22.1041 115.663C22.0975 115.491 22.1251 115.323 22.1866 115.161C22.251 114.995 22.3468 114.846 22.4741 114.713C22.6235 114.557 22.7895 114.45 22.9722 114.393C23.1576 114.332 23.3485 114.329 23.5449 114.385C23.7413 114.44 23.9377 114.562 24.1341 114.75L25.4773 116.036L25.1244 116.405L23.8723 115.205C23.7163 115.056 23.5714 114.961 23.4376 114.922C23.3009 114.879 23.175 114.881 23.06 114.925C22.9478 114.968 22.8432 115.039 22.7463 115.14C22.6412 115.25 22.5663 115.383 22.5215 115.54C22.4767 115.691 22.4759 115.85 22.5191 116.019C22.5651 116.185 22.6675 116.344 22.8264 116.496L23.9789 117.6L23.6261 117.969Z" fill="white"/>
<path d="M44.333 123.494L41.3001 120.589L41.6571 120.216L44.6899 123.121L44.333 123.494ZM40.7547 121.869L40.3994 121.529L42.5536 119.28L42.9089 119.62L40.7547 121.869ZM45.2244 118.218L47.395 120.298L47.0547 120.653L46.4438 120.068L46.6084 120.026C46.691 120.183 46.7369 120.349 46.7464 120.524C46.7557 120.693 46.7281 120.861 46.6638 121.026C46.6022 121.189 46.5064 121.338 46.3763 121.474C46.2269 121.63 46.0609 121.737 45.8782 121.794C45.6956 121.852 45.5047 121.855 45.3055 121.802C45.1062 121.744 44.9098 121.623 44.7163 121.437L43.3732 120.151L43.726 119.782L44.9738 120.978C45.1298 121.127 45.2761 121.223 45.4128 121.265C45.5494 121.302 45.6753 121.301 45.7904 121.261C45.9054 121.217 46.0114 121.144 46.1082 121.042C46.2161 120.93 46.2897 120.798 46.3289 120.647C46.3709 120.494 46.3689 120.334 46.3229 120.168C46.2796 119.999 46.18 119.84 46.024 119.691L44.8715 118.586L45.2244 118.218ZM48.9254 118.813C48.7235 119.024 48.4973 119.164 48.247 119.235C47.9939 119.302 47.7378 119.301 47.4788 119.23C47.2226 119.156 46.9804 119.01 46.7523 118.792C46.527 118.576 46.372 118.341 46.2874 118.089C46.1998 117.833 46.1845 117.58 46.2414 117.33C46.301 117.077 46.4304 116.846 46.6297 116.638C46.8261 116.433 47.0468 116.301 47.2917 116.242C47.5364 116.178 47.7884 116.186 48.0476 116.269C48.3068 116.351 48.5534 116.504 48.7873 116.728L48.8393 116.778L48.8377 116.901L47.0903 118.725L46.748 118.397L48.3668 116.707L48.2701 116.947C48.1231 116.823 47.9715 116.744 47.8152 116.711C47.6589 116.677 47.5091 116.683 47.3658 116.729C47.2196 116.771 47.0897 116.852 46.9763 116.971C46.8545 117.098 46.7742 117.245 46.7354 117.413C46.6937 117.578 46.7001 117.745 46.7546 117.913C46.8092 118.082 46.9101 118.237 47.0574 118.378L47.1441 118.461C47.2885 118.599 47.4475 118.693 47.6212 118.743C47.7919 118.79 47.9617 118.793 48.1305 118.749C48.2993 118.706 48.4488 118.617 48.5788 118.481C48.7061 118.348 48.785 118.202 48.8156 118.043C48.8432 117.881 48.827 117.719 48.7669 117.556L48.8167 117.504L49.2416 117.329C49.3432 117.582 49.3671 117.84 49.3134 118.104C49.2595 118.363 49.1302 118.599 48.9254 118.813Z" fill="white"/>
<path d="M70.1012 121.648L66.151 119.7L66.5121 119.323L70.3132 121.245L70.4415 121.293L70.1012 121.648ZM70.1012 121.648L70.0309 121.539L67.8818 117.894L68.2512 117.508L68.2859 117.541L70.4415 121.293L70.1012 121.648ZM68.2832 123.546L64.4465 121.549L64.4119 121.516L64.7771 121.134L68.5159 123.121L68.6235 123.191L68.2832 123.546ZM68.2832 123.546L68.2296 123.42L66.151 119.7L66.5121 119.323L68.6235 123.191L68.2832 123.546ZM72.5606 119.194C72.3586 119.405 72.1325 119.545 71.8822 119.616C71.6291 119.683 71.373 119.682 71.114 119.611C70.8578 119.537 70.6156 119.391 70.3875 119.172C70.1622 118.957 70.0072 118.722 69.9226 118.469C69.835 118.214 69.8197 117.961 69.8766 117.711C69.9362 117.458 70.0656 117.227 70.2649 117.019C70.4613 116.814 70.682 116.682 70.9269 116.623C71.1716 116.558 71.4236 116.567 71.6828 116.649C71.942 116.731 72.1886 116.885 72.4225 117.109L72.4745 117.159L72.4729 117.282L70.7255 119.106L70.3832 118.778L72.002 117.088L71.9053 117.328C71.7583 117.204 71.6067 117.125 71.4504 117.091C71.2941 117.058 71.1443 117.064 71.001 117.11C70.8548 117.152 70.7249 117.233 70.6115 117.351C70.4897 117.478 70.4094 117.626 70.3706 117.794C70.3289 117.959 70.3353 118.125 70.3898 118.294C70.4444 118.462 70.5453 118.617 70.6926 118.758L70.7793 118.841C70.9237 118.98 71.0827 119.074 71.2564 119.124C71.4271 119.171 71.5969 119.173 71.7657 119.13C71.9345 119.087 72.084 118.997 72.214 118.862C72.3413 118.729 72.4202 118.583 72.4508 118.424C72.4784 118.262 72.4622 118.099 72.4021 117.937L72.4519 117.885L72.8768 117.71C72.9784 117.963 73.0023 118.221 72.9486 118.485C72.8947 118.744 72.7654 118.98 72.5606 119.194ZM74.8458 116.808C74.6604 117.002 74.4439 117.13 74.1962 117.191C73.9486 117.253 73.6953 117.249 73.4363 117.178C73.1772 117.102 72.9365 116.957 72.7141 116.744C72.4946 116.533 72.3425 116.302 72.2578 116.049C72.1731 115.791 72.1563 115.536 72.2075 115.286C72.2587 115.036 72.377 114.814 72.5624 114.621C72.7063 114.471 72.8681 114.363 73.0477 114.296C73.2302 114.227 73.4163 114.201 73.6062 114.217C73.7959 114.227 73.9795 114.278 74.1569 114.37L75.0278 115.205C75.1248 115.375 75.1839 115.556 75.2049 115.748C75.2288 115.937 75.2102 116.124 75.1491 116.31C75.0908 116.492 74.9897 116.658 74.8458 116.808ZM74.5197 116.446C74.6553 116.305 74.7411 116.149 74.777 115.978C74.8101 115.805 74.7965 115.631 74.7361 115.457C74.6786 115.28 74.5718 115.117 74.4159 114.967C74.2599 114.818 74.0922 114.718 73.9129 114.668C73.7364 114.616 73.5637 114.611 73.3949 114.654C73.2261 114.697 73.0739 114.79 72.9383 114.931C72.8138 115.061 72.7335 115.211 72.6976 115.382C72.6644 115.549 72.678 115.72 72.7383 115.894C72.8014 116.066 72.9109 116.226 73.0669 116.375C73.2229 116.525 73.3877 116.627 73.5615 116.683C73.738 116.736 73.9108 116.743 74.0797 116.706C74.2485 116.663 74.3952 116.576 74.5197 116.446ZM75.5158 115.996L74.7403 115.253L74.4906 114.889L74.1041 114.677L72.3797 113.025L72.6808 112.624L72.728 112.644L75.8562 115.641L75.5158 115.996Z" fill="white"/>
<path d="M94.333 123.494L91.3001 120.589L91.6571 120.216L94.6899 123.121L94.333 123.494ZM90.7547 121.869L90.3994 121.529L92.5536 119.28L92.9089 119.62L90.7547 121.869ZM95.9907 121.764L92.8712 118.775L93.1682 118.378L93.2153 118.399L94.7837 119.901L94.6067 119.956C94.5212 119.796 94.4752 119.63 94.4687 119.458C94.4621 119.286 94.4897 119.118 94.5513 118.955C94.6156 118.79 94.7114 118.641 94.8387 118.508C94.9881 118.352 95.1542 118.245 95.3368 118.188C95.5222 118.127 95.7131 118.124 95.9095 118.179C96.1059 118.235 96.3023 118.356 96.4987 118.544L97.8419 119.831L97.4891 120.199L96.2369 119C96.0809 118.851 95.936 118.756 95.8022 118.716C95.6655 118.674 95.5397 118.675 95.4246 118.72C95.3124 118.762 95.2078 118.834 95.111 118.935C95.0058 119.045 94.9309 119.178 94.8861 119.334C94.8413 119.485 94.8405 119.645 94.8837 119.814C94.9297 119.98 95.0321 120.139 95.191 120.291L96.3435 121.395L95.9907 121.764ZM98.0455 115.273L100.216 117.353L99.8758 117.708L99.2649 117.123L99.4295 117.081C99.5121 117.238 99.5581 117.404 99.5675 117.579C99.5768 117.748 99.5493 117.916 99.4849 118.081C99.4233 118.244 99.3275 118.393 99.1975 118.529C99.0481 118.685 98.882 118.792 98.6994 118.849C98.5167 118.907 98.3258 118.91 98.1266 118.857C97.9274 118.799 97.731 118.678 97.5374 118.492L96.1943 117.206L96.5471 116.837L97.7949 118.033C97.9509 118.182 98.0972 118.278 98.2339 118.32C98.3705 118.357 98.4964 118.356 98.6115 118.317C98.7266 118.272 98.8325 118.199 98.9294 118.098C99.0373 117.985 99.1108 117.853 99.15 117.702C99.192 117.549 99.19 117.389 99.144 117.223C99.1008 117.054 99.0012 116.895 98.8452 116.746L97.6927 115.642L98.0455 115.273Z" fill="white"/>
<path d="M118.656 124.2L115.624 121.295L115.976 120.926L119.009 123.832L118.656 124.2ZM117.505 122.731L117.145 122.387L118.643 120.823L119.003 121.167L117.505 122.731ZM116.161 121.444L115.806 121.104L117.429 119.41L117.784 119.75L116.161 121.444ZM120.905 121.853L118.734 119.773L119.075 119.418L119.686 120.003L119.521 120.045C119.403 119.833 119.363 119.609 119.401 119.373C119.438 119.137 119.541 118.931 119.71 118.755L119.921 118.534L120.268 118.866L120.002 119.144C119.889 119.262 119.818 119.394 119.79 119.539C119.762 119.678 119.774 119.822 119.825 119.971C119.876 120.114 119.968 120.249 120.101 120.376L121.258 121.485L120.905 121.853ZM122.413 120.279L120.242 118.199L120.595 117.831L122.766 119.911L122.413 120.279ZM120.018 117.627C119.949 117.699 119.866 117.737 119.77 117.739C119.674 117.741 119.589 117.707 119.517 117.638C119.445 117.569 119.408 117.486 119.406 117.39C119.401 117.291 119.433 117.205 119.502 117.133C119.571 117.061 119.655 117.025 119.755 117.026C119.853 117.021 119.939 117.053 120.011 117.122C120.083 117.191 120.119 117.276 120.118 117.375C120.121 117.471 120.087 117.555 120.018 117.627Z" fill="white"/>
<path d="M141.705 123.219C141.511 123.421 141.296 123.57 141.061 123.665C140.828 123.758 140.59 123.796 140.346 123.778C140.105 123.758 139.877 123.681 139.662 123.547L139.908 123.126L139.962 123.086C140.108 123.165 140.266 123.211 140.436 123.225C140.603 123.235 140.767 123.212 140.927 123.155C141.09 123.095 141.23 123.003 141.349 122.878C141.48 122.743 141.571 122.603 141.625 122.461C141.681 122.315 141.698 122.176 141.675 122.044C141.655 121.908 141.595 121.792 141.494 121.695C141.358 121.565 141.217 121.505 141.07 121.514C140.926 121.52 140.77 121.572 140.602 121.672L139.882 122.104C139.585 122.28 139.306 122.361 139.042 122.346C138.779 122.332 138.553 122.235 138.366 122.055C138.204 121.9 138.102 121.723 138.061 121.523C138.017 121.32 138.031 121.112 138.103 120.898C138.175 120.679 138.305 120.471 138.493 120.275C138.673 120.087 138.872 119.951 139.091 119.867C139.31 119.778 139.53 119.745 139.751 119.768C139.975 119.789 140.189 119.866 140.392 120L140.146 120.405L140.092 120.444C139.883 120.316 139.665 120.268 139.44 120.301C139.217 120.331 139.018 120.437 138.844 120.619C138.672 120.798 138.577 120.984 138.559 121.177C138.537 121.367 138.598 121.53 138.739 121.665C138.852 121.773 138.983 121.824 139.133 121.818C139.283 121.812 139.448 121.755 139.63 121.646L140.346 121.219C140.628 121.052 140.898 120.973 141.156 120.981C141.414 120.99 141.644 121.091 141.846 121.285C142.025 121.456 142.138 121.651 142.185 121.867C142.232 122.084 142.216 122.309 142.136 122.543C142.056 122.777 141.912 123.002 141.705 123.219ZM143.877 120.952C143.733 121.102 143.575 121.208 143.404 121.271C143.236 121.332 143.069 121.347 142.904 121.316C142.737 121.283 142.586 121.203 142.453 121.075C142.263 120.893 142.173 120.677 142.185 120.428C142.199 120.176 142.313 119.919 142.525 119.657L143.265 118.762L143.595 119.078L142.925 119.898C142.784 120.068 142.705 120.22 142.688 120.353C142.671 120.481 142.713 120.593 142.814 120.69C142.91 120.781 143.028 120.817 143.169 120.797C143.31 120.777 143.441 120.703 143.563 120.576C143.688 120.446 143.771 120.299 143.812 120.134C143.854 119.969 143.853 119.808 143.811 119.65C143.77 119.49 143.688 119.35 143.564 119.231L143.213 118.895C143.048 118.737 142.863 118.659 142.656 118.661C142.453 118.659 142.269 118.744 142.106 118.914C141.978 119.047 141.902 119.193 141.878 119.352C141.85 119.508 141.877 119.659 141.959 119.804L141.914 119.852L141.503 120.073C141.37 119.824 141.326 119.569 141.372 119.308C141.417 119.047 141.547 118.803 141.763 118.578C142.046 118.283 142.351 118.141 142.679 118.151C143.01 118.158 143.336 118.315 143.657 118.622L144.879 119.793L144.547 120.139L143.914 119.533L144.108 119.47C144.193 119.618 144.241 119.782 144.25 119.963C144.259 120.138 144.234 120.313 144.172 120.487C144.111 120.655 144.012 120.81 143.877 120.952ZM146.065 118.555C145.885 118.742 145.679 118.839 145.447 118.844C145.212 118.846 144.993 118.749 144.787 118.552L142.699 116.552L143.052 116.183L145.11 118.155C145.234 118.274 145.35 118.332 145.457 118.33C145.562 118.325 145.672 118.262 145.789 118.14L146.038 117.88L146.106 117.904L146.409 118.195L146.065 118.555ZM143.274 117.817L142.927 117.485L144.239 116.116L144.585 116.448L143.274 117.817Z" fill="white"/>
<path d="M165.705 123.219C165.511 123.421 165.296 123.57 165.061 123.665C164.828 123.758 164.59 123.796 164.346 123.778C164.105 123.758 163.877 123.681 163.662 123.547L163.908 123.126L163.962 123.086C164.108 123.165 164.266 123.211 164.436 123.225C164.603 123.235 164.767 123.212 164.927 123.155C165.09 123.095 165.23 123.003 165.349 122.878C165.48 122.743 165.571 122.603 165.625 122.461C165.681 122.315 165.698 122.176 165.675 122.044C165.655 121.908 165.595 121.792 165.494 121.695C165.358 121.565 165.217 121.505 165.07 121.514C164.926 121.52 164.77 121.572 164.602 121.672L163.882 122.104C163.585 122.28 163.306 122.361 163.042 122.346C162.779 122.332 162.553 122.235 162.366 122.055C162.204 121.9 162.102 121.723 162.061 121.523C162.017 121.32 162.031 121.112 162.103 120.898C162.175 120.679 162.305 120.471 162.493 120.275C162.673 120.087 162.872 119.951 163.091 119.867C163.31 119.778 163.53 119.745 163.751 119.768C163.975 119.789 164.189 119.866 164.392 120L164.146 120.405L164.092 120.444C163.883 120.316 163.665 120.268 163.44 120.301C163.217 120.331 163.018 120.437 162.844 120.619C162.672 120.798 162.577 120.984 162.559 121.177C162.537 121.367 162.598 121.53 162.739 121.665C162.852 121.773 162.983 121.824 163.133 121.818C163.283 121.812 163.448 121.755 163.63 121.646L164.346 121.219C164.628 121.052 164.898 120.973 165.156 120.981C165.414 120.99 165.644 121.091 165.846 121.285C166.025 121.456 166.138 121.651 166.185 121.867C166.232 122.084 166.216 122.309 166.136 122.543C166.056 122.777 165.912 123.002 165.705 123.219ZM166.824 117.592L168.995 119.671L168.655 120.027L168.044 119.441L168.208 119.4C168.291 119.556 168.337 119.722 168.346 119.898C168.356 120.067 168.328 120.235 168.264 120.4C168.202 120.563 168.106 120.712 167.976 120.848C167.827 121.004 167.661 121.11 167.478 121.168C167.295 121.226 167.105 121.228 166.905 121.176C166.706 121.118 166.51 120.996 166.316 120.811L164.973 119.524L165.326 119.156L166.574 120.351C166.73 120.501 166.876 120.597 167.013 120.639C167.149 120.676 167.275 120.674 167.39 120.635C167.505 120.59 167.611 120.517 167.708 120.416C167.816 120.304 167.89 120.172 167.929 120.021C167.971 119.867 167.969 119.708 167.923 119.542C167.88 119.373 167.78 119.214 167.624 119.064L166.471 117.96L166.824 117.592ZM169.56 119.082L167.389 117.002L167.73 116.647L168.341 117.232L168.176 117.274C168.091 117.114 168.045 116.948 168.038 116.776C168.031 116.604 168.059 116.436 168.121 116.273C168.185 116.108 168.281 115.959 168.408 115.826C168.557 115.67 168.724 115.563 168.906 115.505C169.092 115.445 169.282 115.442 169.479 115.497C169.675 115.553 169.872 115.674 170.068 115.862L171.411 117.149L171.058 117.517L169.806 116.318C169.65 116.168 169.505 116.074 169.372 116.034C169.235 115.992 169.109 115.993 168.994 116.038C168.882 116.08 168.777 116.152 168.68 116.253C168.575 116.363 168.5 116.496 168.455 116.652C168.411 116.803 168.41 116.963 168.453 117.132C168.499 117.298 168.601 117.457 168.76 117.609L169.913 118.713L169.56 119.082Z" fill="white"/>
<defs>
<linearGradient id="paint0_linear_100_203" x1="0" y1="0" x2="192.656" y2="1.40135" gradientUnits="userSpaceOnUse">
<stop stop-color="#1565C0"/>
<stop offset="0.182692" stop-color="white" stop-opacity="0"/>
<stop offset="0.692308" stop-color="white" stop-opacity="0"/>
<stop offset="0.932692" stop-color="#1565C0"/>
</linearGradient>
</defs>
</svg>
