<svg width="45" height="45" viewBox="0 0 45 45" fill="none" xmlns="http://www.w3.org/2000/svg">
<path d="M3.43295 1.38363C3.54055 1.38306 3.64815 1.38249 3.759 1.38191C3.87813 1.38217 3.99725 1.38244 4.11638 1.38274C4.24314 1.38241 4.3699 1.382 4.49667 1.38153C4.84505 1.38045 5.19343 1.38048 5.54181 1.38068C5.91753 1.38072 6.29325 1.37975 6.66896 1.37892C7.40508 1.37746 8.1412 1.37697 8.87732 1.37687C9.47565 1.37679 10.074 1.37643 10.6723 1.37587C12.3684 1.37432 14.0645 1.37351 15.7607 1.37365C15.8978 1.37366 15.8978 1.37366 16.0378 1.37367C16.1293 1.37367 16.2209 1.37368 16.3152 1.37369C17.7993 1.37376 19.2833 1.37208 20.7673 1.3696C22.2909 1.36708 23.8144 1.36586 25.3379 1.36601C26.1934 1.36607 27.0488 1.36559 27.9043 1.3637C28.6326 1.3621 29.361 1.36171 30.0893 1.36291C30.4609 1.36348 30.8325 1.36349 31.204 1.36197C31.5444 1.36058 31.8846 1.36083 32.225 1.36237C32.3479 1.36264 32.4709 1.36232 32.5938 1.36134C33.3825 1.35547 33.9492 1.39318 34.5623 1.93049C34.6097 1.98771 34.6571 2.04492 34.7058 2.10387C34.7546 2.16086 34.8033 2.21785 34.8535 2.27656C35.1629 2.72566 35.1899 3.14549 35.2112 3.67492C35.2146 3.7442 35.218 3.81348 35.2215 3.88486C35.2298 4.05471 35.2371 4.22461 35.2442 4.39452C35.2974 4.41707 35.3507 4.43961 35.4055 4.46284C36.5181 4.9712 37.3717 5.83729 37.8315 6.97631C38.1793 8.14982 38.0876 9.45953 37.5293 10.5469C37.3795 10.7858 37.2241 11.0117 37.0504 11.2339C36.5113 11.9929 36.5909 13.013 36.7109 13.8922C36.8807 14.804 37.3372 15.6021 38.0941 16.1506C38.8755 16.6415 39.654 16.7813 40.5643 16.8025C40.6501 16.8046 40.7358 16.8067 40.8242 16.8089C41.0007 16.8127 41.1771 16.8154 41.3536 16.8171C42.0179 16.836 42.4946 16.9565 42.9998 17.3992C43.0472 17.4565 43.0946 17.5137 43.1433 17.5726C43.1921 17.6296 43.2408 17.6866 43.291 17.7453C43.6203 18.2233 43.6219 18.6641 43.6233 19.2264C43.6239 19.3088 43.6245 19.3913 43.6251 19.4762C43.626 19.65 43.6264 19.8238 43.6264 19.9977C43.6267 20.2637 43.6299 20.5296 43.6333 20.7956C43.6338 20.9646 43.6341 21.1337 43.6343 21.3028C43.6356 21.3823 43.6368 21.4618 43.6381 21.5437C43.6376 21.6179 43.637 21.6921 43.6365 21.7686C43.6367 21.8336 43.637 21.8986 43.6372 21.9656C43.5721 22.2398 43.467 22.3297 43.2422 22.5C42.9779 22.5345 42.7459 22.5475 42.4816 22.5446C42.404 22.5452 42.3264 22.5457 42.2465 22.5463C41.986 22.5477 41.7257 22.5466 41.4652 22.5455C41.2787 22.546 41.0922 22.5466 40.9056 22.5473C40.3986 22.549 39.8917 22.5483 39.3847 22.5472C38.8546 22.5463 38.3246 22.5471 37.7946 22.5477C36.9044 22.5483 36.0142 22.5475 35.124 22.5458C34.0942 22.5439 33.0643 22.5445 32.0344 22.5465C31.151 22.5481 30.2675 22.5483 29.3841 22.5474C28.8561 22.5468 28.3281 22.5467 27.8001 22.5479C27.3038 22.5489 26.8075 22.5482 26.3111 22.5462C26.1288 22.5457 25.9463 22.5459 25.764 22.5466C25.5154 22.5476 25.267 22.5464 25.0185 22.5446C24.9459 22.5454 24.8733 22.5462 24.7985 22.547C24.479 22.5426 24.2957 22.5287 24.0373 22.3327C23.8897 22.1251 23.8619 22.0249 23.8608 21.7727C23.8597 21.6994 23.8586 21.626 23.8574 21.5504C23.8582 21.4718 23.8589 21.3931 23.8596 21.3121C23.8593 21.2304 23.8589 21.1487 23.8586 21.0645C23.8583 20.8916 23.859 20.7187 23.8605 20.5458C23.8623 20.2829 23.8605 20.0201 23.8582 19.7572C23.8585 19.5888 23.8589 19.4205 23.8596 19.2522C23.8589 19.1742 23.8582 19.0963 23.8574 19.016C23.8666 18.4002 24.0217 17.9355 24.4305 17.4689C24.4878 17.4216 24.545 17.3742 24.6039 17.3254C24.6609 17.2767 24.7179 17.228 24.7766 17.1778C25.1202 16.941 25.4339 16.8538 25.8485 16.8448C25.9329 16.8423 26.0173 16.8398 26.1043 16.8373C26.2372 16.8342 26.2372 16.8342 26.3727 16.831C27.7193 16.7836 28.868 16.6918 29.8986 15.7341C30.7521 14.7872 30.9099 13.6218 30.8496 12.3926C30.8163 11.8381 30.5953 11.4574 30.2893 11.0028C29.5112 9.83522 29.3363 8.62215 29.5893 7.24204C29.9042 6.18693 30.6624 5.22625 31.6149 4.66987C32.3141 4.32443 32.971 4.15669 33.75 4.21874C33.7276 4.0629 33.7034 3.9073 33.6786 3.75182C33.6654 3.66515 33.6521 3.57848 33.6385 3.48918C33.5701 3.23645 33.5176 3.14313 33.3106 2.98827C33.0351 2.89643 32.8436 2.88927 32.5545 2.88907C32.3998 2.88865 32.3998 2.88865 32.242 2.88822C32.1282 2.88835 32.0143 2.88849 31.897 2.88863C31.7753 2.88846 31.6536 2.88826 31.5319 2.88802C31.1966 2.88749 30.8614 2.8875 30.5261 2.8876C30.1648 2.88762 29.8035 2.88714 29.4423 2.88672C28.7342 2.88599 28.0261 2.88575 27.318 2.8857C26.7426 2.88566 26.1672 2.88548 25.5918 2.8852C23.9614 2.88442 22.331 2.88402 20.7006 2.88408C20.5686 2.88409 20.5686 2.88409 20.434 2.88409C20.302 2.8841 20.302 2.8841 20.1672 2.8841C18.7398 2.88414 17.3125 2.8833 15.8851 2.88206C14.4205 2.8808 12.9558 2.88019 11.4912 2.88027C10.6685 2.8803 9.84581 2.88005 9.02313 2.87911C8.32274 2.87831 7.62234 2.87812 6.92194 2.87871C6.56446 2.879 6.20698 2.879 5.84949 2.87824C5.52236 2.87756 5.19524 2.87768 4.86812 2.87844C4.69344 2.87864 4.51876 2.87798 4.34408 2.87728C4.2405 2.87768 4.13692 2.87809 4.0302 2.87851C3.9408 2.87849 3.8514 2.87847 3.75929 2.87845C3.49833 2.90194 3.30979 2.95861 3.07621 3.07616C2.84703 3.44483 2.87589 3.85261 2.87832 4.27347C2.87806 4.34968 2.8778 4.4259 2.87753 4.50443C2.87686 4.75974 2.87743 5.01504 2.87798 5.27036C2.87774 5.45343 2.87742 5.63649 2.87702 5.81956C2.87631 6.21372 2.87612 6.60789 2.87631 7.00205C2.87656 7.62502 2.8753 8.24798 2.87376 8.87094C2.86963 10.6424 2.86753 12.4138 2.86695 14.1852C2.86662 15.1636 2.86504 16.142 2.86211 17.1204C2.86033 17.74 2.86013 18.3596 2.86108 18.9792C2.86131 19.3642 2.86008 19.7492 2.85844 20.1341C2.85797 20.313 2.8581 20.4919 2.85888 20.6707C2.85985 20.9144 2.85868 21.158 2.85697 21.4017C2.85777 21.4729 2.85857 21.5441 2.8594 21.6174C2.85505 21.9342 2.84 22.1125 2.64497 22.368C2.44565 22.511 2.35194 22.5477 2.10941 22.5439C2.0514 22.5448 1.9934 22.5457 1.93363 22.5467C1.66618 22.4756 1.57389 22.3693 1.40629 22.1484C1.37177 21.8817 1.35879 21.6469 1.36164 21.3801C1.3611 21.3017 1.36055 21.2233 1.35998 21.1426C1.35858 20.8793 1.35969 20.6161 1.3608 20.3528C1.36032 20.1642 1.35969 19.9757 1.35893 19.7871C1.35732 19.2745 1.35795 18.7618 1.35906 18.2492C1.35995 17.7129 1.35913 17.1765 1.35858 16.6402C1.35794 15.7391 1.35878 14.838 1.36045 13.9369C1.36236 12.8954 1.36175 11.854 1.35981 10.8126C1.35821 9.91858 1.35799 9.02459 1.35891 8.1306C1.35946 7.59661 1.35953 7.06263 1.35837 6.52864C1.35735 6.02625 1.35806 5.52389 1.36009 5.0215C1.36056 4.83726 1.36042 4.65302 1.35965 4.46879C1.35868 4.21693 1.35989 3.96516 1.36164 3.7133C1.36086 3.64069 1.36008 3.56809 1.35927 3.49328C1.3672 2.90277 1.53956 2.44636 1.93054 2.00019C1.98776 1.95283 2.04497 1.90547 2.10392 1.85668C2.16091 1.80796 2.2179 1.75924 2.27661 1.70905C2.65337 1.44946 2.97935 1.38423 3.43295 1.38363ZM31.9043 6.32811C31.2856 6.95854 31.0173 7.54945 30.987 8.4265C31.0095 9.30612 31.3061 9.88988 31.8443 10.5719C32.2757 11.2677 32.3002 11.9614 32.2951 12.7674C32.2944 12.9462 32.2969 13.1248 32.2997 13.3036C32.2991 14.5266 31.9768 15.6692 31.1284 16.5722C31.007 16.6947 31.007 16.6947 31.0254 16.875C32.8237 16.875 34.6219 16.875 36.4746 16.875C36.3319 16.5894 36.2003 16.3917 36.0077 16.1444C35.3055 15.119 35.2023 14.1525 35.1947 12.9419C35.194 12.8831 35.1932 12.8243 35.1924 12.7638C35.1838 11.8034 35.2979 10.9511 35.9089 10.1788C36.4648 9.4165 36.5697 8.77143 36.4746 7.82226C36.2842 7.02921 35.8579 6.48037 35.1838 6.03698C34.0796 5.42046 32.8895 5.541 31.9043 6.32811ZM25.4883 18.5449C25.182 19.2319 25.182 19.2319 25.3125 21.0937C30.8813 21.0937 36.45 21.0937 42.1875 21.0937C42.3448 19.2005 42.3448 19.2005 41.9239 18.457C41.5795 18.2477 41.2439 18.259 40.8479 18.2583C40.7531 18.2578 40.7531 18.2578 40.6564 18.2573C40.4453 18.2564 40.2341 18.2568 40.0229 18.2571C39.8713 18.2567 39.7197 18.2563 39.5681 18.2557C39.1566 18.2546 38.7451 18.2545 38.3336 18.2547C37.9901 18.2548 37.6465 18.2544 37.3029 18.254C36.4924 18.253 35.6818 18.253 34.8713 18.2535C34.0352 18.254 33.1991 18.2529 32.363 18.2511C31.645 18.2495 30.927 18.249 30.209 18.2493C29.7802 18.2494 29.3515 18.2492 28.9227 18.248C28.5195 18.2469 28.1164 18.2471 27.7132 18.2482C27.5653 18.2484 27.4174 18.2482 27.2695 18.2474C27.0674 18.2465 26.8654 18.2472 26.6634 18.2483C26.5504 18.2483 26.4373 18.2483 26.3209 18.2483C25.9802 18.2851 25.7727 18.354 25.4883 18.5449Z" fill="#2180EC"/>
<path d="M26.9677 23.8616C27.0281 23.8611 27.0884 23.8605 27.1506 23.86C27.3528 23.8586 27.5548 23.8597 27.757 23.8608C27.902 23.8603 28.0469 23.8597 28.1919 23.8589C28.5856 23.8573 28.9792 23.8579 29.3729 23.8591C29.7847 23.86 30.1965 23.8591 30.6083 23.8586C31.2999 23.8579 31.9914 23.8588 32.683 23.8605C33.4828 23.8624 34.2826 23.8617 35.0824 23.8598C35.7688 23.8582 36.4552 23.858 37.1416 23.8589C37.5517 23.8595 37.9618 23.8595 38.3719 23.8584C38.7574 23.8574 39.1429 23.8581 39.5284 23.8601C39.67 23.8606 39.8116 23.8604 39.9532 23.8596C40.1463 23.8587 40.3393 23.8599 40.5324 23.8616C40.6945 23.8618 40.6945 23.8618 40.86 23.862C41.184 23.9146 41.2872 24.0008 41.4844 24.2578C41.5311 24.4336 41.5311 24.4336 41.5284 24.6094C41.5297 24.6964 41.5297 24.6964 41.5311 24.7852C41.462 25.0455 41.3423 25.1454 41.1329 25.3125C40.8637 25.3548 40.8637 25.3548 40.5443 25.3524C40.486 25.3525 40.4276 25.3526 40.3675 25.3526C40.1754 25.3524 39.9833 25.3496 39.7912 25.3469C39.6577 25.3462 39.5242 25.3457 39.3907 25.3454C39.0398 25.344 38.689 25.3406 38.3382 25.3367C37.98 25.3331 37.6218 25.3315 37.2636 25.3297C36.5611 25.3259 35.8587 25.3199 35.1563 25.3125C35.1569 25.3789 35.1574 25.4453 35.158 25.5137C35.1716 27.1305 35.1818 28.7473 35.1882 30.3641C35.1913 31.146 35.1957 31.9279 35.2027 32.7098C35.2089 33.3914 35.2128 34.073 35.2142 34.7547C35.215 35.1155 35.2169 35.4762 35.2213 35.837C35.2255 36.177 35.2268 36.5168 35.2259 36.8568C35.2261 36.9812 35.2273 37.1056 35.2296 37.23C35.2487 38.2849 35.2487 38.2849 34.8742 38.7209C34.7654 38.8242 34.6545 38.9253 34.5411 39.0235C34.4594 39.1075 34.3783 39.1922 34.2981 39.2776C34.2204 39.3554 34.1426 39.4332 34.0625 39.5134C33.9972 39.5789 33.9972 39.5789 33.9306 39.6457C33.7895 39.7872 33.6481 39.9284 33.5066 40.0696C33.4074 40.1688 33.3082 40.2681 33.209 40.3674C33.0026 40.574 32.7959 40.7805 32.5892 40.9868C32.324 41.2515 32.0592 41.5166 31.7945 41.7818C31.5904 41.9862 31.3861 42.1904 31.1817 42.3946C31.0839 42.4923 30.9862 42.5901 30.8885 42.688C30.7527 42.8241 30.6165 42.9599 30.4803 43.0956C30.4029 43.1729 30.3255 43.2502 30.2458 43.3299C29.9666 43.5924 29.8162 43.6049 29.4418 43.6056C29.3479 43.606 29.254 43.6064 29.1572 43.6068C29.0532 43.6068 28.9492 43.6067 28.8421 43.6067C28.6773 43.6072 28.6773 43.6072 28.5093 43.6077C28.2034 43.6086 27.8975 43.6089 27.5916 43.6091C27.2621 43.6095 26.9325 43.6103 26.603 43.6111C25.8066 43.6128 25.0102 43.6137 24.2138 43.6145C23.8389 43.6149 23.464 43.6154 23.0891 43.6158C21.8429 43.6173 20.5968 43.6186 19.3506 43.6192C19.0271 43.6194 18.7036 43.6196 18.3801 43.6197C18.2595 43.6198 18.2595 43.6198 18.1364 43.6199C16.834 43.6206 15.5315 43.6228 14.2291 43.6257C12.8922 43.6286 11.5554 43.6302 10.2186 43.6304C9.46788 43.6306 8.71716 43.6314 7.96644 43.6336C7.32703 43.6356 6.68764 43.6363 6.04823 43.6354C5.72203 43.635 5.39586 43.6352 5.06966 43.6369C4.71581 43.6387 4.36202 43.6378 4.00817 43.6367C3.90535 43.6376 3.80253 43.6386 3.69659 43.6396C3.00791 43.6341 2.53265 43.5361 2.00025 43.0695C1.92921 42.9837 1.92921 42.9837 1.85674 42.8962C1.80802 42.8392 1.7593 42.7822 1.70911 42.7235C1.43484 42.3254 1.38414 41.9842 1.38279 41.5053C1.38239 41.4467 1.382 41.388 1.38159 41.3276C1.38048 41.1318 1.38062 40.936 1.38076 40.7402C1.38024 40.5996 1.37964 40.459 1.37897 40.3183C1.37742 39.9368 1.37701 39.5553 1.3769 39.1738C1.37673 38.8553 1.37608 38.5369 1.37546 38.2184C1.37403 37.4673 1.3736 36.7161 1.37372 35.965C1.37383 35.1898 1.37197 34.4146 1.3692 33.6394C1.3669 32.9739 1.36596 32.3084 1.36607 31.6429C1.36611 31.2454 1.36561 30.8479 1.36375 30.4504C1.36206 30.0767 1.36204 29.7032 1.36332 29.3295C1.3635 29.1923 1.36308 29.0551 1.36202 28.918C1.36067 28.7308 1.36148 28.5438 1.36284 28.3567C1.36274 28.2519 1.36265 28.1472 1.36255 28.0392C1.41509 27.72 1.50517 27.6172 1.75786 27.4219C1.93364 27.3752 1.93364 27.3752 2.10942 27.378C2.19643 27.3766 2.19643 27.3766 2.2852 27.3752C2.54438 27.4441 2.64523 27.5659 2.81255 27.7735C2.85669 28.0296 2.85669 28.0296 2.85698 28.3333C2.85795 28.4485 2.85891 28.5637 2.85991 28.6824C2.85922 28.81 2.85849 28.9375 2.85774 29.065C2.85822 29.1995 2.85885 29.3339 2.85963 29.4683C2.86098 29.7577 2.86123 30.047 2.86062 30.3364C2.85968 30.794 2.8612 31.2516 2.86307 31.7092C2.86573 32.433 2.86675 33.1568 2.86707 33.8806C2.86765 35.1766 2.87021 36.4726 2.87455 37.7687C2.876 38.2235 2.87648 38.6784 2.87617 39.1332C2.87613 39.4162 2.8768 39.6993 2.87764 39.9823C2.87787 40.1135 2.8778 40.2447 2.87741 40.3759C2.87692 40.555 2.87759 40.7342 2.87833 40.9134C2.87836 41.0137 2.87839 41.1139 2.87842 41.2172C2.90145 41.4967 2.93459 41.6815 3.07622 41.9239C3.38006 42.0747 3.62802 42.1218 3.96506 42.1226C4.09863 42.1236 4.09863 42.1236 4.2349 42.1246C4.33211 42.1245 4.42932 42.1243 4.52948 42.1241C4.68509 42.1249 4.68509 42.1249 4.84384 42.1257C5.13145 42.1269 5.41906 42.1274 5.70667 42.1275C6.01695 42.1278 6.32723 42.1291 6.63751 42.1303C7.17497 42.1323 7.71244 42.1336 8.24991 42.1345C9.027 42.1358 9.80408 42.138 10.5812 42.1405C11.8419 42.1445 13.1027 42.1477 14.3635 42.1505C15.5882 42.1531 16.8129 42.1561 18.0376 42.1596C18.1131 42.1599 18.1886 42.1601 18.2664 42.1603C18.6451 42.1614 19.0239 42.1625 19.4026 42.1636C22.5444 42.1727 25.6863 42.1805 28.8282 42.1875C28.8263 42.0874 28.8245 41.9872 28.8226 41.884C28.8162 41.5099 28.8122 41.1358 28.8089 40.7617C28.8071 40.6002 28.8047 40.4388 28.8017 40.2773C28.7974 40.0443 28.7954 39.8113 28.7938 39.5783C28.792 39.5069 28.7902 39.4356 28.7883 39.3621C28.7881 38.7648 28.9571 38.3107 29.3524 37.8596C29.4096 37.8123 29.4669 37.7649 29.5258 37.7161C29.5828 37.6674 29.6398 37.6187 29.6985 37.5685C30.8575 36.7699 32.4715 37.2657 33.75 37.2657C33.75 33.3211 33.75 29.3766 33.75 25.3125C31.3362 25.3265 31.3362 25.3265 28.9223 25.3442C28.4553 25.3458 28.4553 25.3458 28.2366 25.3461C28.084 25.3466 27.9313 25.3479 27.7787 25.3497C27.5474 25.3522 27.3162 25.3526 27.0849 25.3524C27.017 25.3537 26.9491 25.355 26.8791 25.3563C26.5679 25.3539 26.3998 25.3375 26.1495 25.1452C26.0045 24.9457 25.9679 24.8532 25.9717 24.6094C25.9704 24.5224 25.9704 24.5224 25.969 24.4336C26.107 23.914 26.4896 23.8622 26.9677 23.8616ZM30.4102 38.9356C30.1559 39.3214 30.2148 39.7919 30.2234 40.2375C30.2242 40.3151 30.225 40.3928 30.2258 40.4728C30.2279 40.6635 30.2311 40.8542 30.2344 41.045C30.7762 40.5969 31.2712 40.1092 31.767 39.6112C31.8481 39.5305 31.9291 39.4498 32.0127 39.3666C32.1275 39.2517 32.1275 39.2517 32.2446 39.1344C32.3143 39.0645 32.384 38.9947 32.4559 38.9228C32.6174 38.7862 32.6174 38.7862 32.6075 38.6719C32.3401 38.6648 32.0729 38.6595 31.8055 38.6554C31.7302 38.6532 31.655 38.651 31.5775 38.6487C31.1258 38.6435 30.7906 38.6625 30.4102 38.9356Z" fill="#2180EC"/>
<path d="M16.8751 21.4452C16.9317 21.4645 16.9883 21.4838 17.0467 21.5037C19.3168 22.2957 21.2617 23.9383 22.3271 26.1048C23.3157 28.2223 23.6171 30.8075 22.8516 33.0468C22.8333 33.102 22.8149 33.1572 22.796 33.2141C22.3286 34.5909 21.5829 35.7096 20.5665 36.7382C20.51 36.801 20.4534 36.8639 20.3952 36.9287C19.1051 38.3307 16.9285 39.3055 15.035 39.3858C12.0913 39.455 9.75038 38.8349 7.57488 36.7881C6.03623 35.2987 4.94026 33.1449 4.90102 30.9769C4.88349 29.7538 4.87271 28.5907 5.27352 27.4218C5.29283 27.3651 5.31213 27.3085 5.33202 27.2502C5.73599 26.0923 6.33137 25.1071 7.11923 24.1698C7.17791 24.0949 7.2366 24.02 7.29707 23.9429C9.45794 21.2994 13.7307 20.367 16.8751 21.4452ZM8.78915 24.6093C8.73363 24.6576 8.67812 24.706 8.62092 24.7559C7.30141 25.9759 6.47709 27.8543 6.37971 29.63C6.30593 31.8888 6.8906 33.8284 8.43759 35.5077C8.50998 35.5906 8.50998 35.5906 8.58384 35.6752C9.89794 37.0994 11.9249 37.8848 13.8322 37.9714C15.9138 37.9534 17.7903 37.2638 19.336 35.8593C19.3915 35.8109 19.4471 35.7625 19.5043 35.7127C20.8238 34.4926 21.6481 32.6143 21.7455 30.8385C21.8192 28.5797 21.2346 26.6401 19.6876 24.9608C19.6393 24.9055 19.5911 24.8502 19.5413 24.7933C18.2272 23.3691 16.2003 22.5837 14.293 22.4971C12.2114 22.5151 10.3349 23.2047 8.78915 24.6093Z" fill="#2180EC"/>
<path d="M18.7085 25.4477C19.1696 25.7624 19.5122 26.1628 19.7316 26.6748C19.8366 27.4102 19.808 27.9958 19.424 28.6523C19.2192 28.9056 19.0024 29.1401 18.7768 29.375C18.5578 29.6056 18.3586 29.8429 18.1605 30.0915C17.8206 30.5131 17.4596 30.9085 17.0897 31.3034C16.8158 31.5976 16.5556 31.8981 16.3038 32.2119C15.964 32.6352 15.6033 33.0335 15.2328 33.4298C14.9868 33.693 14.7466 33.959 14.5131 34.2334C14.0818 34.7295 13.6637 35.1159 12.9842 35.1857C12.8301 35.1874 12.8301 35.1874 12.6729 35.1892C12.5708 35.1917 12.4687 35.1942 12.3635 35.1967C11.6682 35.1093 11.2001 34.7201 10.7211 34.2344C10.6386 34.1525 10.6386 34.1525 10.5545 34.0689C10.4394 33.954 10.3247 33.8387 10.2105 33.7229C10.0363 33.5469 9.8603 33.3728 9.68406 33.1988C9.57185 33.0863 9.45975 32.9738 9.34777 32.8611C9.29558 32.8096 9.2434 32.7581 9.18963 32.7051C8.72324 32.2281 8.48703 31.7315 8.43213 31.06C8.44682 30.4972 8.64856 29.9337 8.99655 29.4904C9.47129 29.0461 10.0835 28.8382 10.7228 28.8281C11.3841 28.9027 11.8143 29.1638 12.3203 29.5872C12.4022 29.6557 12.4841 29.7243 12.5685 29.7949C13.0351 29.2952 13.4972 28.7958 13.9253 28.2623C14.2673 27.8374 14.6297 27.4369 15.002 27.0387C15.2462 26.7775 15.4845 26.5134 15.7161 26.2408C16.515 25.3236 17.5296 24.8498 18.7085 25.4477ZM16.3086 27.853C16.0708 28.1462 15.815 28.4211 15.5568 28.6962C15.2394 29.0349 14.9347 29.3769 14.6449 29.7399C14.3082 30.1591 13.9509 30.5551 13.5847 30.9484C13.5306 31.0068 13.4764 31.0652 13.4207 31.1254C13.3698 31.1796 13.3189 31.2338 13.2665 31.2897C13.2209 31.3383 13.1753 31.3869 13.1283 31.437C12.9573 31.6013 12.8354 31.64 12.6014 31.6845C12.0876 31.6084 11.7828 31.2158 11.4355 30.8506C11.1334 30.5289 11.1334 30.5289 10.7557 30.3112C10.4657 30.3265 10.3301 30.3994 10.1075 30.5859C9.96177 30.8328 9.96177 30.8328 9.93176 31.1132C10.1112 31.4833 10.3676 31.7464 10.6572 32.0347C10.7013 32.0788 10.7454 32.1228 10.7908 32.1682C10.8834 32.2606 10.9763 32.3527 11.0693 32.4447C11.212 32.5857 11.3539 32.7275 11.4958 32.8693C11.9861 33.4252 11.9861 33.4252 12.6399 33.6895C13.0594 33.6484 13.2677 33.4161 13.5384 33.1049C13.5972 33.0295 13.656 32.9542 13.7166 32.8765C14.0231 32.4935 14.3422 32.1301 14.6779 31.7724C14.9986 31.4301 15.3069 31.0839 15.6007 30.7177C15.8945 30.3515 16.2029 30.0055 16.5236 29.663C16.926 29.2331 17.3069 28.794 17.6733 28.3327C17.8145 28.1588 17.9615 28.0003 18.1166 27.8393C18.311 27.6017 18.311 27.6017 18.2869 27.2735C18.216 26.9838 18.216 26.9838 18.0397 26.8121C17.2333 26.4313 16.7522 27.2975 16.3086 27.853Z" fill="#2180EC"/>
<path d="M5.33101 12.6116C5.44737 12.6108 5.44737 12.6108 5.56608 12.61C5.82655 12.6086 6.08695 12.6097 6.34741 12.6108C6.53393 12.6103 6.72045 12.6097 6.90696 12.6089C7.41396 12.6073 7.92094 12.6079 8.42794 12.6091C8.95798 12.61 9.48801 12.6091 10.018 12.6086C10.9082 12.6079 11.7984 12.6088 12.6886 12.6105C13.7184 12.6124 14.7483 12.6117 15.7782 12.6098C16.6616 12.6082 17.5451 12.608 18.4285 12.6089C18.9565 12.6095 19.4845 12.6095 20.0125 12.6084C20.5088 12.6074 21.0051 12.6081 21.5014 12.6101C21.6838 12.6106 21.8663 12.6104 22.0486 12.6096C22.2972 12.6087 22.5456 12.6099 22.7941 12.6116C22.8667 12.6109 22.9393 12.6101 23.0141 12.6093C23.3338 12.6137 23.5168 12.6275 23.7752 12.8239C23.9172 13.0231 23.954 13.1174 23.9503 13.3594C23.9516 13.4464 23.9516 13.4464 23.953 13.5352C23.882 13.8023 23.7751 13.895 23.5547 14.0625C23.2904 14.0971 23.0584 14.11 22.7941 14.1072C22.7165 14.1077 22.639 14.1083 22.559 14.1088C22.2986 14.1102 22.0382 14.1091 21.7777 14.108C21.5912 14.1085 21.4047 14.1091 21.2182 14.1099C20.7112 14.1115 20.2042 14.1109 19.6972 14.1098C19.1671 14.1089 18.6371 14.1097 18.1071 14.1102C17.2169 14.1109 16.3267 14.11 15.4365 14.1084C14.4067 14.1065 13.3768 14.1071 12.347 14.109C11.4635 14.1106 10.58 14.1108 9.69658 14.1099C9.16859 14.1094 8.64061 14.1093 8.11263 14.1105C7.6163 14.1115 7.12 14.1108 6.62367 14.1087C6.44127 14.1083 6.25887 14.1084 6.07647 14.1092C5.82795 14.1101 5.57952 14.1089 5.33101 14.1072C5.2221 14.1084 5.2221 14.1084 5.11099 14.1096C4.79133 14.1052 4.60828 14.0914 4.34997 13.895C4.20793 13.6957 4.17108 13.6014 4.17487 13.3594C4.17351 13.2724 4.17351 13.2724 4.17212 13.1836C4.32794 12.597 4.81495 12.6061 5.33101 12.6116Z" fill="#2180EC"/>
<path d="M5.33101 9.79914C5.44737 9.79832 5.44737 9.79832 5.56608 9.79748C5.82655 9.79608 6.08695 9.79719 6.34741 9.7983C6.53393 9.79782 6.72045 9.79719 6.90696 9.79643C7.41396 9.79482 7.92094 9.79545 8.42794 9.79656C8.95798 9.79745 9.48801 9.79663 10.018 9.79608C10.9082 9.79544 11.7984 9.79628 12.6886 9.79795C13.7184 9.79987 14.7483 9.79925 15.7782 9.79731C16.6616 9.79572 17.5451 9.79549 18.4285 9.79641C18.9565 9.79696 19.4845 9.79703 20.0125 9.79587C20.5088 9.79486 21.0051 9.79556 21.5014 9.79759C21.6838 9.79806 21.8663 9.79792 22.0486 9.79715C22.2972 9.79619 22.5456 9.79739 22.7941 9.79914C22.8667 9.79836 22.9393 9.79758 23.0141 9.79677C23.3338 9.80117 23.5168 9.81496 23.7752 10.0114C23.9172 10.2106 23.954 10.3049 23.9503 10.5469C23.9516 10.6339 23.9516 10.6339 23.953 10.7227C23.882 10.9898 23.7751 11.0825 23.5547 11.25C23.2904 11.2846 23.0584 11.2975 22.7941 11.2947C22.7165 11.2952 22.639 11.2958 22.559 11.2963C22.2986 11.2977 22.0382 11.2966 21.7777 11.2955C21.5912 11.296 21.4047 11.2966 21.2182 11.2974C20.7112 11.299 20.2042 11.2984 19.6972 11.2973C19.1671 11.2964 18.6371 11.2972 18.1071 11.2977C17.2169 11.2984 16.3267 11.2975 15.4365 11.2959C14.4067 11.294 13.3768 11.2946 12.347 11.2965C11.4635 11.2981 10.58 11.2983 9.69658 11.2974C9.16859 11.2969 8.64061 11.2968 8.11263 11.298C7.6163 11.299 7.12 11.2983 6.62367 11.2962C6.44127 11.2958 6.25887 11.2959 6.07647 11.2967C5.82795 11.2976 5.57952 11.2964 5.33101 11.2947C5.2221 11.2959 5.2221 11.2959 5.11099 11.2971C4.79133 11.2927 4.60828 11.2789 4.34997 11.0825C4.20793 10.8832 4.17108 10.7889 4.17487 10.5469C4.17351 10.4599 4.17351 10.4599 4.17212 10.3711C4.32794 9.78451 4.81495 9.79357 5.33101 9.79914Z" fill="#2180EC"/>
<path d="M5.01068 6.98671C5.0994 6.98572 5.18812 6.98472 5.27953 6.9837C5.37633 6.98441 5.47314 6.98513 5.57288 6.98586C5.67523 6.98524 5.77759 6.98463 5.88305 6.98399C6.22188 6.98244 6.56064 6.98347 6.89948 6.98466C7.13459 6.98442 7.36971 6.98408 7.60483 6.98364C8.09779 6.983 8.59074 6.98384 9.08369 6.98552C9.65346 6.98743 10.2232 6.98681 10.7929 6.98487C11.2823 6.98328 11.7716 6.98305 12.261 6.98397C12.5532 6.98452 12.8454 6.98446 13.1376 6.98343C13.4633 6.98254 13.789 6.9839 14.1147 6.98586C14.2116 6.98515 14.3084 6.98444 14.4081 6.9837C14.5412 6.98519 14.5412 6.98519 14.6769 6.98671C14.7539 6.98684 14.8309 6.98697 14.9103 6.98711C15.1857 7.04598 15.2925 7.1684 15.4688 7.38291C15.5155 7.55869 15.5155 7.55869 15.5128 7.73447C15.5141 7.82149 15.5141 7.82149 15.5155 7.91026C15.4478 8.16533 15.3178 8.26985 15.1172 8.4376C14.9103 8.48184 14.9103 8.48184 14.6769 8.48224C14.5882 8.48323 14.4995 8.48423 14.4081 8.48525C14.3113 8.48453 14.2145 8.48382 14.1147 8.48309C14.0124 8.48371 13.91 8.48432 13.8046 8.48496C13.4657 8.48651 13.127 8.48548 12.7881 8.48429C12.553 8.48453 12.3179 8.48487 12.0828 8.48531C11.5898 8.48595 11.0969 8.48511 10.6039 8.48343C10.0342 8.48152 9.46445 8.48214 8.89469 8.48408C8.40533 8.48567 7.91598 8.4859 7.42661 8.48498C7.13441 8.48443 6.84224 8.48449 6.55004 8.48552C6.22429 8.48641 5.89862 8.48505 5.57288 8.48309C5.47607 8.4838 5.37927 8.48451 5.27953 8.48525C5.14645 8.48376 5.14645 8.48376 5.01068 8.48224C4.93369 8.48211 4.85669 8.48198 4.77736 8.48184C4.50191 8.42297 4.39508 8.30055 4.21881 8.08604C4.17212 7.91026 4.17212 7.91026 4.17487 7.73447C4.17351 7.64746 4.17351 7.64746 4.17212 7.55869C4.2868 7.12697 4.59355 6.98743 5.01068 6.98671Z" fill="#2180EC"/>
<path d="M2.10934 23.8624C2.16735 23.8615 2.22536 23.8606 2.28513 23.8596C2.553 23.9308 2.65047 24.0334 2.81247 24.2579C2.84771 24.5067 2.8618 24.7135 2.85641 24.961C2.85777 25.0235 2.85913 25.0861 2.86053 25.1505C2.85827 25.4535 2.83482 25.6331 2.65591 25.8811C2.45038 26.023 2.35569 26.0635 2.10934 26.0596C2.05134 26.0605 1.99333 26.0614 1.93356 26.0624C1.66569 25.9912 1.56822 25.8886 1.40622 25.6641C1.37097 25.4153 1.35689 25.2085 1.36227 24.961C1.36091 24.8985 1.35956 24.8359 1.35815 24.7715C1.36042 24.4685 1.38387 24.2889 1.56277 24.0409C1.76831 23.899 1.863 23.8585 2.10934 23.8624Z" fill="#2180EC"/>
<path d="M17.9297 6.98727C17.9923 6.98591 18.0548 6.98456 18.1193 6.98315C18.4222 6.98542 18.6019 7.00887 18.8499 7.18777C18.9917 7.39331 19.0322 7.488 19.0284 7.73434C19.0293 7.79235 19.0302 7.85036 19.0311 7.91013C18.96 8.178 18.8574 8.27547 18.6329 8.43747C18.3841 8.47271 18.1773 8.4868 17.9297 8.48141C17.8672 8.48277 17.8047 8.48413 17.7402 8.48553C17.4373 8.48327 17.2576 8.45982 17.0096 8.28091C16.8678 8.07538 16.8273 7.98069 16.8311 7.73434C16.8298 7.64733 16.8298 7.64733 16.8284 7.55856C16.9782 6.99444 17.4243 6.97629 17.9297 6.98727Z" fill="#2180EC"/>
</svg>
