<svg width="159" height="110" viewBox="0 0 159 110" fill="none" xmlns="http://www.w3.org/2000/svg">
<g clip-path="url(#clip0_236_38247)">
<g clip-path="url(#clip1_236_38247)">
<path d="M145.327 0H123.239C129.96 1.4928 137.338 1.71145 145.327 0Z" fill="#D1C9CF"/>
<path d="M83.2129 0V41.9644L136.863 28.5442V0H83.2129Z" fill="#C6A9C9"/>
<path d="M102.713 10.9774V78.9226H226.201V0H129.825L102.713 10.9774Z" fill="white"/>
<path d="M119.007 4.3804V78.9226H226.201V0H129.825L119.007 4.3804Z" fill="#BDE4F1"/>
<path d="M119.007 4.3804V10.2008L146.315 0H129.825L119.007 4.3804Z" fill="white"/>
<path d="M105.519 13.3523L108.959 12.0254C109.2 11.9349 109.397 11.5956 109.397 11.2714C109.397 10.9472 109.2 10.7588 108.959 10.8568L105.519 12.2063C105.285 12.2968 105.097 12.6285 105.097 12.9452C105.097 13.2618 105.285 13.4503 105.519 13.3599V13.3523Z" fill="#6B9CFF"/>
<path d="M105.18 15.0788L115.288 11.2865C115.454 11.2262 115.59 11 115.59 10.7814C115.59 10.5627 115.454 10.4421 115.288 10.5024L105.18 14.34C105.029 14.3928 104.908 14.6039 104.908 14.8074C104.908 15.011 105.029 15.1316 105.18 15.0713V15.0788Z" fill="#E0D9DE"/>
<path d="M109.54 20.3715L105.104 21.8643V21.2687L109.54 19.7683V20.3715Z" fill="#E0D9DE"/>
<path d="M114.217 18.8108L110.279 20.1302V19.512L114.217 18.1851V18.8108Z" fill="#E0D9DE"/>
<path d="M107.729 25.355L105.104 26.1692V25.5736L107.729 24.7518V25.355Z" fill="#E0D9DE"/>
<path d="M111.199 24.277L108.333 25.1666V24.5634L111.199 23.6663V24.277Z" fill="#E0D9DE"/>
<path d="M117.166 27.1494L105.104 30.5799V29.9842L117.166 26.5161V27.1494Z" fill="#E0D9DE"/>
<path d="M109.925 33.9198L105.104 35.1562V34.5606L109.925 33.3091V33.9198Z" fill="#E0D9DE"/>
<path d="M106.115 39.401L105.104 39.6272V39.0391L106.115 38.7979V39.401Z" fill="#E0D9DE"/>
<path d="M111.539 38.1418L106.824 39.235V38.6319L111.539 37.5311V38.1418Z" fill="#E0D9DE"/>
<path d="M107.729 43.4421L105.104 43.9774V43.3818L107.729 42.839V43.4421Z" fill="#E0D9DE"/>
<path d="M110.868 47.4229L105.104 48.4558V47.8602L110.868 46.8123V47.4229Z" fill="#E0D9DE"/>
<path d="M113.945 46.8725L111.78 47.2645V46.6463L113.945 46.2467V46.8725Z" fill="#E0D9DE"/>
<path d="M107.933 52.2556L105.104 52.6929V52.0973L107.933 51.6525V52.2556Z" fill="#E0D9DE"/>
<path d="M109.751 56.704L105.104 57.2996V56.704L109.751 56.0933V56.704Z" fill="#E0D9DE"/>
<path d="M107.292 61.5065L105.225 61.7176V61.122L107.292 60.9033V61.5065Z" fill="#E0D9DE"/>
<path d="M112.708 60.9561L107.933 61.4386V60.8355L112.708 60.3379V60.9561Z" fill="#E0D9DE"/>
<path d="M107.103 70.3201L105.225 70.4181V69.8225L107.103 69.7245V70.3201Z" fill="#E0D9DE"/>
<path d="M111.539 74.8814L105.225 75.0247V74.4291L111.539 74.2632V74.8814Z" fill="#E0D9DE"/>
<path d="M134.615 9.28096L123.307 13.2241C122.96 13.3447 122.681 13.0959 122.681 12.6662C122.681 12.2364 122.96 11.784 123.307 11.6634L134.615 7.62229C135.007 7.47904 135.324 7.74292 135.324 8.20282C135.324 8.66273 135.007 9.14525 134.615 9.28096Z" fill="white"/>
<path d="M149.634 4.04117L145.726 5.4058C145.289 5.55659 144.942 5.29271 144.942 4.81019C144.942 4.32767 145.296 3.81499 145.726 3.65666L149.634 2.26187C150.086 2.096 150.456 2.36742 150.456 2.86502C150.456 3.36262 150.086 3.89038 149.634 4.04871V4.04117Z" fill="white"/>
<path d="M152.847 1.10829C152.38 1.27416 152.003 1.80946 152.003 2.3146C152.003 2.81974 152.38 3.08362 152.847 2.92529L161.213 0H155.948L152.847 1.10829Z" fill="white"/>
<path d="M143.727 68.571L122.077 69.6491V49.4812L143.727 46.0734V68.571Z" fill="white"/>
<path d="M142.603 63.1049L122.982 64.5977V50.3332L142.603 47.3551V63.1049Z" fill="#A6D4E6"/>
<path d="M133.551 65.4647L122.982 66.1809V65.721L133.551 64.9822V65.4647Z" fill="#6E455B"/>
<path d="M124.853 68.2619L122.982 68.3675V67.9151L124.853 67.802V68.2619Z" fill="#6E455B"/>
<path d="M128.731 68.0433L125.811 68.2091V67.7492L128.731 67.5758V68.0433Z" fill="#6E455B"/>
<path d="M122.417 6.56687L126.407 5.02883C126.686 4.92328 126.913 4.55385 126.913 4.21457C126.913 3.8753 126.686 3.68682 126.407 3.79237L122.417 5.36056C122.145 5.46612 121.934 5.82047 121.934 6.1522C121.934 6.48394 122.153 6.67242 122.417 6.56687Z" fill="#E1EAF5"/>
<path d="M128.263 4.31254L129.485 3.83756C129.772 3.72447 130.013 3.35503 130.013 3.00068C130.013 2.65387 129.779 2.46538 129.485 2.57847L128.263 3.061C127.976 3.17409 127.75 3.54352 127.75 3.89033C127.75 4.23715 127.984 4.42563 128.263 4.31254Z" fill="#E1EAF5"/>
<path d="M143.742 20.1604L121.564 26.403V17.68L143.742 10.4044V20.1604Z" fill="white"/>
<path d="M123.209 25.9431L121.564 26.4031V17.68L123.209 17.1447V25.9431Z" fill="#FBB766"/>
<path d="M143.742 32.1179L121.564 37.0939V28.3708L143.742 22.3619V32.1179Z" fill="white"/>
<path d="M142.694 30.5422C142.694 30.9418 142.407 31.3338 142.053 31.4168C141.698 31.4997 141.411 31.2434 141.411 30.8438C141.411 30.4442 141.698 30.0597 142.053 29.9692C142.407 29.8863 142.694 30.1426 142.694 30.5422Z" fill="#FBB766"/>
<path d="M123.209 36.7245L121.564 37.0939V28.3709L123.209 27.926V36.7245Z" fill="#6B9CFF"/>
<path d="M143.742 44.0753L121.564 47.7772V39.0541L143.742 34.3193V44.0753Z" fill="white"/>
<path d="M123.209 47.5058L121.564 47.7772V39.0541L123.209 38.7073V47.5058Z" fill="#F18D4F"/>
<path d="M175.169 11.3166L146.269 19.4517V9.57503L175.169 0.0904541V11.3166Z" fill="white"/>
<path d="M148.382 18.8561L146.269 19.4517V9.5751L148.382 8.88147V18.8561Z" fill="#44B8FA"/>
<path d="M175.169 25.076L146.269 31.5524V21.6758L175.169 13.8499V25.076Z" fill="white"/>
<path d="M148.382 31.0774L146.269 31.5524V21.6758L148.382 21.1028V31.0774Z" fill="#FBB766"/>
<path d="M175.169 38.8355L146.269 43.6532V33.7766L175.169 27.6018V38.8355Z" fill="white"/>
<path d="M148.382 43.2989L146.269 43.6532V33.7766L148.382 33.3242V43.2989Z" fill="#6B9CFF"/>
<path d="M139.058 37.5312L124.619 40.464V40.0644L139.058 37.1014V37.5312Z" fill="#6E455B"/>
<path d="M127.139 41.2481L124.619 41.7381V41.3385L127.139 40.8409V41.2481Z" fill="#6E455B"/>
<path d="M132.404 40.2152L128.429 40.9917V40.5846L132.404 39.793V40.2152Z" fill="#6E455B"/>
<path d="M172.34 3.85266L150.713 10.6984V10.3139L172.34 3.43799V3.85266Z" fill="#6E455B"/>
<path d="M154.416 13.0356L150.713 14.1515V13.767L154.416 12.6511V13.0356Z" fill="#6E455B"/>
<path d="M162.247 10.6834L156.325 12.4627V12.0707L162.247 10.2838V10.6834Z" fill="#6E455B"/>
<path d="M138.862 26.4332L124.793 30.0521V29.7204L138.862 26.0713V26.4332Z" fill="#6E455B"/>
<path d="M126.241 30.7684L124.793 31.1378V30.7985L126.241 30.4291V30.7684Z" fill="#6E455B"/>
<path d="M128.821 30.12L126.958 30.5875V30.2482L128.821 29.7732V30.12Z" fill="#6E455B"/>
<path d="M133.702 32.5175L124.793 34.5983V34.2666L133.702 32.1707V32.5175Z" fill="#6E455B"/>
<path d="M140.514 19.4668C140.514 19.8664 140.235 20.2659 139.88 20.364C139.533 20.462 139.254 20.2207 139.254 19.8287C139.254 19.4366 139.533 19.037 139.88 18.9315C140.227 18.8335 140.514 19.0672 140.514 19.4668Z" fill="#E0D9DE"/>
<path d="M142.053 19.022C142.053 19.4216 141.766 19.8287 141.411 19.9267C141.057 20.0248 140.778 19.7835 140.778 19.3914C140.778 18.9994 141.064 18.5923 141.411 18.4867C141.766 18.3812 142.053 18.6224 142.053 19.022Z" fill="#6B9CFF"/>
<path d="M141.404 13.6388L125.072 18.8033V18.4641L141.404 13.2694V13.6388Z" fill="#6E455B"/>
<path d="M134.773 17.0768L125.072 20.085V19.7457L134.773 16.7224V17.0768Z" fill="#6E455B"/>
<path d="M126.354 21.3893L125.072 21.7738V21.4346L126.354 21.05V21.3893Z" fill="#6E455B"/>
<path d="M138.696 17.7705L127.524 21.1255V20.7787L138.696 17.4086V17.7705Z" fill="#6E455B"/>
<path d="M140.77 17.1446L139.465 17.5367V17.1748L140.77 16.7827V17.1446Z" fill="#6E455B"/>
<path d="M162.888 24.2241L152.93 26.6141V26.2221L162.888 23.817V24.2241Z" fill="#6E455B"/>
<path d="M155.193 24.7896L150.713 25.8904V25.5059L155.193 24.3976V24.7896Z" fill="#6E455B"/>
<path d="M172.325 20.575L156.68 24.4277V24.0281L172.325 20.1528V20.575Z" fill="#6E455B"/>
<path d="M159.863 22.3317L150.713 24.6388V24.2543L159.863 21.9321V22.3317Z" fill="#6E455B"/>
<path d="M172.325 17.8156L156.566 21.8718V21.4798L172.325 17.3934V17.8156Z" fill="#6E455B"/>
<path d="M172.151 33.7616L150.713 37.8404V37.4559L172.151 33.3394V33.7616Z" fill="#6E455B"/>
<path d="M172.151 32.3818L154.635 35.8198V35.4277L172.151 31.9596V32.3818Z" fill="#6E455B"/>
<path d="M163.386 36.9657L150.713 39.2954V38.9109L163.386 36.5586V36.9657Z" fill="#6E455B"/>
<path d="M32.8597 14.5586V42.7032L61.2008 46.6614V21.133L32.8597 14.5586Z" fill="#FBB766"/>
<path d="M54.2306 68.1864L7.24181 66.3845V18.7429L54.2306 30.9568V68.1864Z" fill="white"/>
<path d="M54.2306 30.9568L7.24181 18.7429V25.174L54.2306 35.9855V30.9568Z" fill="#6B9CFF"/>
<path d="M52.6842 33.2789C52.6842 33.784 52.405 34.1308 52.0505 34.0479C51.696 33.965 51.4168 33.4825 51.4168 32.9698C51.4168 32.4571 51.7035 32.1103 52.0505 32.2008C52.3975 32.2912 52.6842 32.7738 52.6842 33.2789Z" fill="white"/>
<path d="M50.6851 32.7964C50.6851 33.3091 50.3985 33.6559 50.0364 33.573C49.6743 33.49 49.3876 33 49.3876 32.4797C49.3876 31.9595 49.6818 31.6127 50.0364 31.7032C50.3909 31.7937 50.6851 32.2837 50.6851 32.7964Z" fill="white"/>
<path d="M37.499 44.1205L28.9144 42.7031V32.1781L37.499 34.063V44.1205Z" fill="#BDE4F1"/>
<path d="M52.571 56.0629L45.3594 55.2788V45.4324L52.571 46.6236V56.0629Z" fill="#BDE4F1"/>
<path d="M37.499 64.2809L28.9144 63.7984V53.4769L37.499 54.4194V64.2809Z" fill="#BDE4F1"/>
<path d="M52.7898 65.2686L17.0937 63.3008V29.3885L52.7898 37.2597V65.2686ZM17.4105 62.9389L52.5786 64.9444V37.5311L17.4105 29.8409V62.9389Z" fill="#C9DEF5"/>
<path d="M52.6842 46.782L17.2521 40.9691V40.5922L52.6842 46.4729V46.782Z" fill="#C9DEF5"/>
<path d="M52.6842 56.1836L17.2521 52.3309V51.954L52.6842 55.8745V56.1836Z" fill="#C9DEF5"/>
<path d="M45.4725 64.7032L45.2387 64.6881V35.7594L45.4725 35.8122V64.7032Z" fill="#C9DEF5"/>
<path d="M37.6272 64.2357L37.3708 64.2207V34.0103L37.6272 34.063V64.2357Z" fill="#C9DEF5"/>
<path d="M29.0578 63.7984L28.7787 63.7758V32.1555L29.0578 32.2158V63.7984Z" fill="#C9DEF5"/>
<path d="M19.6509 63.2555L19.3417 63.2405V30.0746L19.6509 30.1424V63.2555Z" fill="#C9DEF5"/>
<path d="M28.2053 36.5133L20.1639 34.9375V31.3186L28.2053 33.0451V36.5133Z" fill="#6E455B"/>
<path d="M24.1243 33.2563L22.6382 32.9471V32.6305L24.1243 32.9471V33.2563Z" fill="white"/>
<path d="M25.5123 34.3344L21.0993 33.4297V33.113L25.5123 34.0253V34.3344Z" fill="white"/>
<path d="M23.2115 34.6661L21.0993 34.2363V33.9197L23.2115 34.3494V34.6661Z" fill="white"/>
<path d="M23.898 34.8018L23.5208 34.7264V34.4098L23.898 34.4927V34.8018Z" fill="white"/>
<path d="M27.2398 34.6887L25.7688 34.3871V34.078L27.2398 34.3796V34.6887Z" fill="white"/>
<path d="M25.1426 33.4674L24.3355 33.3015V32.9924L25.1426 33.1583V33.4674Z" fill="white"/>
<path d="M36.8955 48.1693L29.5783 47.1213V43.6758L36.8955 44.8519V48.1693Z" fill="#6B9CFF"/>
<path d="M33.1765 45.2892L31.8187 45.0856V44.7841L33.1765 44.9952V45.2892Z" fill="white"/>
<path d="M32.1808 45.8999L30.4231 45.636V45.3345L32.1808 45.5984V45.8999Z" fill="white"/>
<path d="M33.5235 46.8649L30.4231 46.405V46.1034L33.5235 46.5633V46.8649Z" fill="white"/>
<path d="M35.9752 47.2193L33.7649 46.8951V46.6011L35.9752 46.9328V47.2193Z" fill="white"/>
<path d="M36.0129 46.4804L32.4524 45.9451V45.6436L36.0129 46.1864V46.4804Z" fill="white"/>
<path d="M35.5905 45.6661L33.3727 45.3193V45.0253L35.5905 45.3721V45.6661Z" fill="white"/>
<path d="M52.1863 59.7347L46.0383 59.1994V56.048L52.1863 56.6964V59.7347Z" fill="#6E455B"/>
<path d="M51.4395 57.5558L47.9242 57.2015V56.9301L51.4395 57.2844V57.5558Z" fill="white"/>
<path d="M49.5988 58.061L46.7474 57.7896V57.5106L49.5988 57.7896V58.061Z" fill="white"/>
<path d="M48.0524 58.6113L46.7474 58.4907V58.2192L48.0524 58.3399V58.6113Z" fill="white"/>
<path d="M51.4319 58.9204L48.2485 58.6339V58.355L51.4319 58.6566V58.9204Z" fill="white"/>
<path d="M51.4395 58.2419L49.8101 58.0836V57.8121L51.4395 57.9705V58.2419Z" fill="white"/>
<path d="M44.8313 39.7176L38.1402 38.3982V34.9979L44.8313 36.4455V39.7176Z" fill="#6B9CFF"/>
<path d="M42.2288 36.9656L39.6791 36.4379V36.1514L42.2288 36.6867V36.9656Z" fill="white"/>
<path d="M41.5801 37.5613L38.804 36.9883V36.7018L41.5801 37.2748V37.5613Z" fill="white"/>
<path d="M42.093 38.3831L38.804 37.7271V37.4331L42.093 38.1041V38.3831Z" fill="white"/>
<path d="M43.3377 38.6394L42.5607 38.4811V38.1946L43.3377 38.3529V38.6394Z" fill="white"/>
<path d="M42.6965 37.7875L41.912 37.6292V37.3427L42.6965 37.5085V37.7875Z" fill="white"/>
<path d="M43.8657 37.3124L42.523 37.0334V36.7469L43.8657 37.0334V37.3124Z" fill="white"/>
<path d="M27.0964 26.8251L19.0927 24.8649C18.3535 24.6839 17.7424 25.2117 17.7424 26.041V27.5942L28.326 30.0294V28.5592C28.326 27.7676 27.7754 26.9985 27.0964 26.8327V26.8251Z" fill="#C9DEF5"/>
<path d="M10.1461 29.841C10.1461 30.2104 9.8896 30.4592 9.57277 30.3914C9.25594 30.3235 8.99191 29.9692 8.99191 29.5922C8.99191 29.2152 9.24839 28.974 9.57277 29.0418C9.8896 29.1097 10.1461 29.464 10.1461 29.841Z" fill="#C9DEF5"/>
<path d="M15.1776 31.5599L11.7227 30.8437C11.3983 30.7758 11.1267 30.4366 11.1267 30.0822V30.0219C11.1267 29.6675 11.3908 29.4413 11.7227 29.5092L15.1776 30.2481C15.4945 30.3159 15.7509 30.6477 15.7509 30.9945V31.0548C15.7509 31.4016 15.4945 31.6278 15.1776 31.5599Z" fill="#C9DEF5"/>
<path d="M10.1461 32.2988C10.1461 32.6682 9.8896 32.917 9.57277 32.8567C9.25594 32.7964 8.99191 32.442 8.99191 32.065C8.99191 31.6881 9.24839 31.4393 9.57277 31.5071C9.8896 31.575 10.1461 31.9218 10.1461 32.2988Z" fill="#C9DEF5"/>
<path d="M15.1776 33.9575L11.7227 33.2789C11.3983 33.2111 11.1267 32.8793 11.1267 32.525V32.4647C11.1267 32.1103 11.3908 31.8766 11.7227 31.9445L15.1776 32.6456C15.4945 32.7059 15.7509 33.0452 15.7509 33.3845V33.4448C15.7509 33.7916 15.4945 34.0178 15.1776 33.9575Z" fill="#C9DEF5"/>
<path d="M33.7649 55.098L29.8197 54.6833V54.3214L33.7649 54.7361V55.098Z" fill="#6E455B"/>
<path d="M33.7649 56.0479L29.8197 55.6558V55.2939L33.7649 55.686V56.0479Z" fill="#6E455B"/>
<path d="M14.0385 42.3035L9.56522 41.6099V41.2103L14.0385 41.9115V42.3035Z" fill="#C9DEF5"/>
<path d="M12.2583 43.1631L9.56522 42.7635V42.3639L12.2583 42.7786V43.1631Z" fill="#C9DEF5"/>
<path d="M14.0385 54.7134L9.56522 54.2837V53.8916L14.0385 54.3289V54.7134Z" fill="#C9DEF5"/>
<path d="M12.2583 55.686L9.56522 55.4372V55.0452L12.2583 55.294V55.686Z" fill="#C9DEF5"/>
<path d="M215.813 101.533H135.769V46.5861L215.813 35.2015V101.533Z" fill="white"/>
<path d="M215.813 50.0692L135.769 58.8979V101.533H215.813V50.0692Z" fill="#C8F1FF"/>
<path d="M209.764 93.2776L140.34 94.5216V63.987L209.764 57.3221V93.2776Z" fill="white"/>
<path d="M155.91 67.4552L154.409 67.5834V62.6375L155.91 62.4943V67.4552Z" fill="#6E455B"/>
<path d="M155.857 89.7567L154.326 89.8019V85.2934L155.857 85.233V89.7567Z" fill="#FBB766"/>
<path d="M209.764 63.2481L140.34 69.0233V68.5559L209.764 62.6978V63.2481Z" fill="#C9DEF5"/>
<path d="M209.764 68.2694L140.34 73.2906V72.8232L209.764 67.7266V68.2694Z" fill="#C9DEF5"/>
<path d="M209.764 73.2982L140.34 77.5579V77.0905L209.764 72.7478V73.2982Z" fill="#C9DEF5"/>
<path d="M209.764 78.3195L140.34 81.8177V81.3578L209.764 77.7766V78.3195Z" fill="#C9DEF5"/>
<path d="M209.764 83.3482L140.34 86.085V85.6251L209.764 82.7979V83.3482Z" fill="#C9DEF5"/>
<path d="M209.764 88.3695L140.34 90.3524V89.8925L209.764 87.8267V88.3695Z" fill="#C9DEF5"/>
<path d="M154.53 94.2728L154.115 94.2804V62.6525L154.53 62.6073V94.2728Z" fill="#C9DEF5"/>
<path d="M151.497 64.9898L144.798 65.6005V65.1632L151.497 64.5525V64.9898Z" fill="#6E455B"/>
<path d="M151.497 66.1885L142.958 66.9425V66.5127L151.497 65.7512V66.1885Z" fill="#6E455B"/>
<path d="M151.497 69.7094L144.798 70.2371V69.8074L151.497 69.2721V69.7094Z" fill="#6E455B"/>
<path d="M151.497 70.9081L142.958 71.5565V71.1343L151.497 70.4708V70.9081Z" fill="#6E455B"/>
<path d="M151.497 73.9088L144.798 74.3687V73.939L151.497 73.4716V73.9088Z" fill="#6E455B"/>
<path d="M151.497 75.1076L142.958 75.6655V75.2433L151.497 74.6703V75.1076Z" fill="#6E455B"/>
<path d="M151.407 78.2441L144.708 78.6286V78.1988L151.407 77.8068V78.2441Z" fill="#6E455B"/>
<path d="M151.407 79.4428L142.875 79.9102V79.4805L151.407 79.0055V79.4428Z" fill="#6E455B"/>
<path d="M151.324 82.5792L144.625 82.8883V82.4586L151.324 82.1344V82.5792Z" fill="#6E455B"/>
<path d="M151.324 83.778L142.792 84.1549V83.7252L151.324 83.3407V83.778Z" fill="#6E455B"/>
<path d="M151.233 86.9068L144.542 87.148V86.7183L151.233 86.4695V86.9068Z" fill="#6E455B"/>
<path d="M151.233 88.1055L142.701 88.392V87.9622L151.233 87.6682V88.1055Z" fill="#6E455B"/>
<path d="M151.143 91.4983L144.451 91.6642V91.2344L151.143 91.061V91.4983Z" fill="#6E455B"/>
<path d="M151.143 92.6971L142.618 92.8855V92.4558L151.143 92.2598V92.6971Z" fill="#6E455B"/>
<path d="M150.441 60.3831L144.927 60.9486V60.4661L150.441 59.8931V60.3831Z" fill="#6E455B"/>
<path d="M162.42 97.5449L158.535 97.5826V97.0699L162.42 97.0322V97.5449Z" fill="#6E455B"/>
<path d="M160.082 98.8341L158.535 98.8492V98.3818L160.082 98.3667V98.8341Z" fill="#6983B5"/>
<path d="M157.615 99.5429L154.892 99.558V96.4442L157.615 96.4141V99.5429Z" fill="#FBB766"/>
<path d="M149 53.2056L143.395 53.8841C142.626 53.9746 142.007 53.3187 142.007 52.4064C142.007 51.5017 142.626 50.6799 143.395 50.5819L149 49.8581C149.792 49.7525 150.441 50.4236 150.441 51.3509C150.441 52.2782 149.792 53.1076 149 53.2056Z" fill="#FBB766"/>
<path d="M156.642 51.3811L152.93 51.841C152.681 51.8711 152.47 51.66 152.47 51.366C152.47 51.072 152.674 50.8156 152.93 50.7779L156.642 50.3105C156.898 50.2803 157.11 50.4914 157.11 50.7855C157.11 51.0795 156.898 51.3434 156.642 51.3735V51.3811Z" fill="#E1EAF5"/>
<path d="M166.69 50.1447L158.369 51.17C158.113 51.2002 157.902 50.9891 157.902 50.6951C157.902 50.401 158.113 50.1296 158.369 50.0995L166.69 49.0515C166.961 49.0138 167.18 49.2324 167.18 49.534C167.18 49.8356 166.961 50.107 166.69 50.1447Z" fill="#E1EAF5"/>
<path d="M79.4638 80.3928H28.8843V110H87.4977L79.4638 80.3928Z" fill="#C75E3E"/>
<path d="M32.4222 80.3928H31.9319L38.9926 110H39.483L32.4222 80.3928Z" fill="#412233"/>
<path d="M95.705 84.2756C94.2567 87.9021 90.4924 89.7342 87.3015 88.3695L75.692 83.4538L74.6812 83.0241L64.5879 78.7568C61.397 77.3921 59.9788 73.3435 61.4271 69.717C62.0834 68.0659 63.2225 66.7917 64.5653 66.0152C65.9005 65.2462 67.4318 64.9672 68.9028 65.3216C69.2196 65.3894 69.5289 65.495 69.8382 65.6231L75.5336 68.0282L92.5594 75.2283C95.7503 76.593 97.1685 80.6416 95.7201 84.2681L95.705 84.2756Z" fill="#412233"/>
<path d="M29.269 94.5669C32.0676 97.2886 36.2543 97.4319 38.6154 94.8835L47.2151 85.6704L47.9619 84.8712L55.4376 76.8568C57.7987 74.3085 57.4366 70.0337 54.6379 67.3195C53.3631 66.083 51.8091 65.3743 50.2627 65.216C48.7313 65.0576 47.2226 65.4271 46.0157 66.3469C45.7592 66.5354 45.5102 66.7615 45.2839 67.0028L41.0671 71.5189L28.4618 85.0295C26.1007 87.5779 26.4628 91.8527 29.2614 94.5744L29.269 94.5669Z" fill="#412233"/>
<path d="M68.5256 52.4366L71.2941 53.462C72.2898 53.8314 72.5539 55.1207 71.7769 55.8445L69.4082 58.061L68.5256 52.4366Z" fill="#5087F5"/>
<path d="M70.2984 57.1789C70.2606 57.3372 70.2305 57.5182 70.2003 57.7217L70.9396 69.1138L62.4983 66.9801L62.7473 55.3468L68.1711 53.3489C68.1711 53.3489 71.2262 53.1453 70.2984 57.1864V57.1789Z" fill="#4776D8"/>
<path d="M51.2811 64.9069H66.1947C70.4266 64.9069 73.8665 68.3373 73.8665 72.5744V101.511C73.8665 101.782 73.6477 102.008 73.3686 102.008H44.1071C43.8356 102.008 43.6093 101.79 43.6093 101.511V72.5744C43.6093 68.3448 47.0416 64.9069 51.2811 64.9069Z" fill="#412233"/>
<path d="M62.5285 82.2023L55.8072 64.9069H65.8024L62.5285 82.2023Z" fill="white"/>
<path d="M62.2645 69.144L55.8751 64.3037L59.4206 52.4366L66.5417 54.0048L62.2645 69.144Z" fill="#F88F62"/>
<path d="M68.6765 53.3715V53.5524C68.6765 53.8465 68.6388 54.148 68.5709 54.4496C68.0504 56.8095 65.825 58.3626 63.4715 58.0987C63.313 58.0836 63.1546 58.0535 62.9962 58.0158C62.7322 57.9554 62.4832 57.8801 62.2419 57.782C60.1598 56.9452 58.9302 54.706 59.4281 52.4441C59.9788 49.926 62.4757 48.3276 65.0028 48.878C65.5686 49.0062 66.0891 49.2248 66.5492 49.5188L66.7906 49.6847L66.8283 49.7073C67.9599 50.5668 68.6539 51.9164 68.6765 53.3639V53.3715Z" fill="#F88F62"/>
<path d="M68.6916 59.0638C68.6916 59.1165 68.6916 59.1768 68.6916 59.2221C68.6086 60.5339 67.2734 61.5593 65.9684 61.2728L62.3701 60.4887L62.2418 57.7745L62.0231 53.0322L62.6945 53.0624L68.6765 53.364V53.5449L68.6916 59.0638Z" fill="#F88F62"/>
<path d="M68.6916 59.0638C68.6916 59.1165 68.6916 59.1768 68.6916 59.2221C67.9749 60.2173 67.0471 60.7827 65.8477 60.353C64.6935 59.9459 63.9542 59.0864 63.479 58.0836C62.6492 56.3345 62.6417 54.1405 62.702 53.0548C62.7171 52.6402 62.7548 52.3914 62.7548 52.3914L66.5568 49.5038L66.7982 49.6697L66.8359 49.6923C67.9674 50.5518 68.6614 51.9013 68.684 53.3489V53.5298L68.6991 59.0487L68.6916 59.0638Z" fill="#FFA669"/>
<path d="M67.198 60.6169C67.0999 60.6169 67.0169 60.534 67.0169 60.4359V59.8931C67.0169 59.7951 67.0999 59.7122 67.198 59.7122C67.296 59.7122 67.379 59.7951 67.379 59.8931V60.4359C67.379 60.534 67.296 60.6169 67.198 60.6169Z" fill="#412233"/>
<path d="M65.4479 58.4682H68.3144C68.3144 58.4682 68.4577 57.9103 67.5525 57.7821C66.6397 57.6539 65.4479 58.4682 65.4479 58.4682Z" fill="#412233"/>
<path d="M67.3866 59.4708C66.4889 59.4708 65.8703 58.6189 65.8703 58.6189H67.3866V59.4708Z" fill="#412233"/>
<path d="M68.6237 52.5271H65.033C63.562 52.5045 63.4639 54.804 61.6384 55.6032C60.1297 56.2591 58.8322 56.2289 58.3041 56.1762L59.4206 52.4366C59.9788 49.9109 62.4682 48.3126 64.9952 48.8705C66.866 49.2776 68.2541 50.7629 68.6162 52.5271H68.6237Z" fill="#412233"/>
<path d="M64.5728 60.9713L61.7892 60.3606L64.1277 62.5395L64.5728 60.9713Z" fill="#412233"/>
<path d="M62.6002 55.8473C62.9129 55.062 62.5294 54.1719 61.7436 53.8594C60.9578 53.5469 60.0672 53.9302 59.7545 54.7155C59.4418 55.5009 59.8253 56.3909 60.6111 56.7035C61.3969 57.016 62.2875 56.6327 62.6002 55.8473Z" fill="#F88F62"/>
<path d="M68.1711 57.6011H67.4695V57.3523H67.9221V56.2742H68.1711V57.6011Z" fill="#412233"/>
<path d="M58.7794 53.4394H68.8651C68.8651 53.4394 69.197 48.4935 64.1504 48.4935C59.1037 48.4935 58.7794 53.4394 58.7794 53.4394Z" fill="#5087F5"/>
<path d="M63.8185 53.2434C63.8185 53.2434 66.3531 54.7437 67.9146 54.7437C69.4761 54.7437 68.8651 53.168 68.8651 53.168L63.8185 53.2434Z" fill="#5087F5"/>
<path d="M60.3333 52.2406L57.5648 53.266C56.5691 53.6354 56.3051 54.9246 57.0821 55.6484L59.4507 57.865L60.3333 52.2406Z" fill="#5087F5"/>
<path d="M68.767 53.0323H59.3074C58.8699 53.0323 58.5153 52.6779 58.5153 52.2406C58.5153 51.8033 58.8699 51.449 59.3074 51.449H68.767C69.2045 51.449 69.5591 51.8033 69.5591 52.2406C69.5591 52.6779 69.2045 53.0323 68.767 53.0323Z" fill="#412233"/>
<path d="M77.6684 69.3249C77.6684 69.3249 75.4581 70.2146 73.8363 72.7629C72.2144 75.3112 71.1206 80.4983 71.1206 80.4983C71.1206 80.4983 69.4535 62.8335 70.2003 57.7142C71.5883 60.5114 73.4214 63.791 74.7717 64.7183C77.2611 66.4298 77.6684 69.3174 77.6684 69.3174V69.3249Z" fill="#5087F5"/>
<path d="M57.8138 62.9617L62.4304 66.9123L60.5219 69.634L56.471 64.8541L57.8138 62.9617Z" fill="white"/>
<path d="M63.4639 53.4393C63.4639 53.4393 59.9788 53.8088 61.2084 57.6011C62.4983 61.5668 55.6412 79.3447 55.6412 79.3447C55.6412 79.3447 55.4753 71.2625 49.3499 71.4434C42.1609 71.6545 43.051 65.1631 43.051 65.1631C43.051 65.1631 55.2942 60.3304 58.7718 53.4393H63.4564H63.4639Z" fill="#5087F5"/>
<path d="M63.7883 63.791L62.4304 66.9123L64.2107 69.3174L65.3045 65.1481L63.7883 63.791Z" fill="white"/>
<path d="M62.4304 66.9124L60.8086 69.227L62.1287 70.8932L60.2126 76.2386L62.5285 82.2023L63.8637 75.462L62.8227 70.9082L64.0146 69.046L62.4304 66.9124Z" fill="#412233"/>
<path d="M95.8585 86.8261C98.3685 84.3175 98.3685 80.2503 95.8585 77.7418C93.3486 75.2332 89.2792 75.2332 86.7692 77.7418C84.2593 80.2503 84.2593 84.3175 86.7692 86.8261C89.2792 89.3347 93.3486 89.3347 95.8585 86.8261Z" fill="white"/>
<path d="M105.097 57.5333C104.908 57.7519 104.863 58.0686 104.984 58.3325C105.481 59.4558 105.293 60.7677 104.486 61.695L103.671 62.6375C103.384 62.9692 102.592 62.0871 102.766 61.8835L103.369 61.1824C103.671 60.8355 103.686 60.3003 103.369 59.9685C103.007 59.584 102.396 59.6066 102.064 59.9987L101.212 60.9863C100.827 61.4236 100.669 62.0192 100.774 62.5922L101.28 65.4044L99.6201 67.3194L105.195 72.1447L109.148 67.5833C109.804 66.8218 109.962 65.7512 109.547 64.839L106.349 57.7218C106.123 57.2242 105.459 57.1262 105.104 57.5408L105.097 57.5333Z" fill="#FFA273"/>
<path d="M102.841 62.268C102.841 62.268 105.157 69.0836 106.409 67.342C107.654 65.608 105.165 58.8828 105.165 58.8828L102.841 62.268Z" fill="#E68463"/>
<path d="M105.27 72.0617C105.27 72.0617 99.2279 82.2022 96.2482 85.5196C93.8041 88.2413 90.5905 88.0377 88.2746 85.9493C86.7433 84.5772 86.1398 82.5566 86.5019 80.6717C86.6905 79.6992 87.1356 78.7643 87.8447 77.9726L89.5646 76.4044C89.5646 76.4044 89.5646 76.3969 89.5797 76.3894L89.7607 76.2235C89.7607 76.2235 89.7758 76.216 89.7833 76.2084L100.118 66.7766L105.27 72.0617Z" fill="#FFA273"/>
<path d="M69.0763 83.8609L65.0782 92.9233C64.7463 93.6847 63.826 94.0014 63.0792 93.5867C62.5511 93.2927 62.3097 92.6895 62.3927 92.109C62.4153 91.9808 62.4455 91.8527 62.5059 91.7245C62.6492 91.4003 62.3927 91.0459 62.0457 91.0761L58.1004 91.3852L56.8784 91.4832L56.7501 91.4983L56.3352 91.5285L56.1542 91.5435L55.4602 82.7224L56.0335 82.6772H56.0561L57.248 82.5792L57.8289 82.5339H57.9118L58.5002 82.4812C58.5002 82.4812 61.9929 82.2022 62.5134 82.1645L64.3691 82.0213C68.5407 81.6368 69.3856 83.1974 69.0914 83.8684L69.0763 83.8609Z" fill="#FFA273"/>
<path d="M56.041 82.6697L56.7426 91.4908C56.7426 91.4908 55.8449 91.7622 54.389 92.1769C54.3287 92.192 54.2683 92.2146 54.208 92.2297C49.4857 93.5867 39.4301 96.3612 35.417 96.6779C31.0417 97.0247 28.4166 94.1899 28.1224 90.4579C28.0771 89.9301 28.0997 89.4024 28.1752 88.8972C28.6353 85.8664 31.1247 83.4312 34.3156 83.1673C34.3307 83.1673 34.3382 83.1673 34.3533 83.1673L53.9967 82.7224L56.026 82.6772H56.0486L56.041 82.6697Z" fill="#FFA273"/>
<path d="M39.4301 96.0295C37.8309 96.3612 36.4278 96.5949 35.417 96.6779C31.0417 97.0247 28.4166 94.1899 28.1224 90.4578C28.0771 89.9301 28.0997 89.4023 28.1752 88.8972C28.6353 85.8663 31.1247 83.4311 34.3156 83.1672C34.3307 83.1672 34.3382 83.1672 34.3533 83.1672L40.0864 83.0391C37.4839 83.7402 35.5377 85.9191 35.1379 88.5654C35.0624 89.0706 35.0398 89.5908 35.0851 90.1261C35.3038 92.9308 36.8352 95.2228 39.4377 96.0445L39.4301 96.0295Z" fill="white"/>
<path d="M85.8833 94.4009C84.6311 92.2371 82.7377 90.7142 80.6104 89.9075C78.1889 88.9877 75.4732 88.9877 73.0593 89.9979H73.0367C71.792 90.5332 70.6378 91.3173 69.6496 92.3879C69.544 92.501 69.4459 92.6141 69.3479 92.7272C68.3672 93.8807 67.7411 94.9739 67.4167 96.0521C66.504 99.1055 68.0504 102.061 71.1659 105.981C71.9051 106.916 72.7349 107.896 73.6401 108.952C73.9268 109.284 74.2285 109.631 74.5378 109.992H95.3882L85.8984 94.3934L85.8833 94.4009Z" fill="#6E455B"/>
<path d="M76.7556 98.8794C76.6048 98.8718 76.4539 98.8718 76.303 98.8718C73.5496 98.8718 71.098 99.9349 69.28 101.631C67.0395 103.72 65.7496 106.781 66.0212 110.015H86.3058C86.8187 104.436 82.6698 99.1432 76.7632 98.8869L76.7556 98.8794Z" fill="#87546F"/>
<path d="M76.0239 98.8644H43.5866L42.1458 102.943C41.4066 105.469 41.8365 107.995 43.0812 110H76.0239V98.8644Z" fill="#87546F"/>
<path d="M71.1583 105.989L81.674 97.6203L77.2761 93.7224L73.0593 89.9979H73.0367C73.0367 90.0055 43.5942 98.8643 43.5942 98.8643L42.1156 103.056C41.2557 105.499 41.6102 108.002 42.787 110H66.1192L71.1583 105.989Z" fill="#6E455B"/>
<path d="M80.4218 98.9171L80.1276 98.5402L65.7496 110H66.5039L80.4218 98.9171Z" fill="#412233"/>
<path d="M127.297 78.4024H93.623V53.7787H127.297V78.4024Z" fill="#412233"/>
<path d="M118.441 69.5889H112.776V89.8397H118.441V69.5889Z" fill="#7D5571"/>
<path d="M127.441 89.5457H103.784V91.4154H127.441V89.5457Z" fill="#412233"/>
<path d="M82.9036 87.7965H69.6043C69.1895 87.7965 68.8575 87.4648 68.8575 87.0501V85.4141C68.8575 84.9994 69.1895 84.6677 69.6043 84.6677H82.9036V87.7965Z" fill="#996973"/>
<path d="M93.4646 87.7965H80.0446C79.6297 87.7965 79.2978 87.4648 79.2978 87.0501V85.4141C79.2978 84.9994 79.6297 84.6677 80.0446 84.6677H93.4646V87.7965Z" fill="#E3D8DF"/>
<path d="M95.6598 87.7889H83.2431V91.4229H95.6598V87.7889Z" fill="#D9E7F7"/>
<path d="M66.4964 91.4154H83.2431V87.7814H66.4964V91.4154Z" fill="#D4C7D0"/>
<g style="mix-blend-mode:multiply">
<path d="M95.6522 88.0302H66.4964V88.1583H95.6522V88.0302Z" fill="#DED1DA"/>
</g>
<g style="mix-blend-mode:multiply">
<path d="M95.6522 88.46H66.4964V88.5881H95.6522V88.46Z" fill="#DED1DA"/>
</g>
<g style="mix-blend-mode:multiply">
<path d="M95.6522 88.8972H66.4964V89.0254H95.6522V88.8972Z" fill="#DED1DA"/>
</g>
<g style="mix-blend-mode:multiply">
<path d="M95.6522 89.3269H66.4964V89.4551H95.6522V89.3269Z" fill="#DED1DA"/>
</g>
<g style="mix-blend-mode:multiply">
<path d="M95.6522 89.7643H66.4964V89.8925H95.6522V89.7643Z" fill="#DED1DA"/>
</g>
<g style="mix-blend-mode:multiply">
<path d="M95.6522 90.194H66.4964V90.3221H95.6522V90.194Z" fill="#DED1DA"/>
</g>
<g style="mix-blend-mode:multiply">
<path d="M95.6522 90.6312H66.4964V90.7594H95.6522V90.6312Z" fill="#DED1DA"/>
</g>
<g style="mix-blend-mode:multiply">
<path d="M95.6522 91.061H66.4964V91.1892H95.6522V91.061Z" fill="#DED1DA"/>
</g>
<path d="M110.264 94.0015L126.498 110H128.391L110.37 92.3202L88.2369 110H90.334L110.264 94.0015Z" fill="#412233"/>
<path d="M174.958 91.4154H36.8276V94.9589H174.958V91.4154Z" fill="#FFA273"/>
<path d="M99.6352 91.4154H36.8276V94.9589H99.6352V91.4154Z" fill="#FBD5A2"/>
<path d="M94.8828 94.959H90.4547L88.2897 110H92.7103L94.8828 94.959Z" fill="#412233"/>
<path d="M52.6842 94.959H48.2636L46.0986 110H50.5192L52.6842 94.959Z" fill="#412233"/>
<path d="M122.092 94.959H117.664L119.837 110H124.257L122.092 94.959Z" fill="#412233"/>
<path d="M99.3259 83.5141H99.1298C99.1298 83.4689 99.1675 79.2167 99.4542 73.0042C99.7484 66.7616 104.056 62.532 104.093 62.4943L104.229 62.6375C104.184 62.6752 99.937 66.852 99.6503 73.0193C99.3561 79.2242 99.3259 83.4764 99.3259 83.5217V83.5141Z" fill="#4776D8"/>
<path d="M99.8389 84.0871L99.6428 84.072C99.673 83.6196 100.374 72.8835 101.612 70.976C102.856 69.061 106.108 67.7115 106.243 67.6587L106.319 67.8396C106.289 67.8547 102.985 69.2269 101.778 71.0816C100.563 72.9438 99.8465 83.974 99.8389 84.0795V84.0871Z" fill="#4776D8"/>
<path d="M98.813 84.087C98.813 84.0494 98.7451 80.5888 98.9337 78.1309C99.1298 75.6203 102.011 74.135 102.132 74.0747L102.223 74.2481C102.192 74.2632 99.3184 75.7485 99.1298 78.146C98.9337 80.5963 99.0091 84.0493 99.0091 84.0795H98.813V84.087Z" fill="#4776D8"/>
<path d="M108.816 60.926C108.816 60.926 105.346 59.9308 103.316 62.449C101.287 64.9671 100.563 68.1488 100.563 68.1488L108.823 60.926H108.816Z" fill="#4776D8"/>
<path d="M99.2203 77.2564L106.145 73.728C106.145 73.728 101.37 70.2598 99.2203 77.2564Z" fill="#4776D8"/>
<path d="M106.56 67.7718L101.702 71.0364C101.702 71.0364 102.17 67.5079 106.56 67.7718Z" fill="#4776D8"/>
<path d="M101.136 91.4381V82.7225C101.136 82.24 100.744 81.8555 100.269 81.8555H98.7828C98.3 81.8555 97.9153 82.2475 97.9153 82.7225V91.4381H101.144H101.136Z" fill="white"/>
<path d="M100.442 80.9507H98.5942V82.157H100.442V80.9507Z" fill="white"/>
<path d="M100.737 80.521H98.3076V80.9583H100.737V80.521Z" fill="white"/>
</g>
</g>
<defs>
<clipPath id="clip0_236_38247">
<rect width="159" height="110" fill="white"/>
</clipPath>
<clipPath id="clip1_236_38247">
<rect width="236" height="110" fill="white"/>
</clipPath>
</defs>
</svg>
