<svg width="45" height="45" viewBox="0 0 45 45" fill="none" xmlns="http://www.w3.org/2000/svg">
<g clip-path="url(#clip0_236_25062)">
<path d="M34.7025 24.3675H34.665L36.105 7.95751C36.1246 7.72747 36.0985 7.49584 36.0284 7.27589C35.9582 7.05594 35.8454 6.85199 35.6963 6.67573C35.5472 6.49946 35.3648 6.35434 35.1595 6.24869C34.9542 6.14303 34.7301 6.07892 34.5 6.06001L13.9125 4.26001C13.4483 4.21828 12.9864 4.36215 12.628 4.66014C12.2696 4.95812 12.0438 5.38595 12 5.85001L11.8125 8.03251H10.1625C9.70422 8.03244 9.26423 8.21243 8.93736 8.53369C8.61049 8.85495 8.42291 9.29176 8.41504 9.75001V37.8225C8.41504 38.286 8.59915 38.7305 8.92687 39.0582C9.25459 39.3859 9.69907 39.57 10.1625 39.57H13.1625C13.3048 39.917 13.5468 40.2141 13.8578 40.4236C14.1688 40.6332 14.535 40.7459 14.91 40.7475H34.7025C35.2012 40.7455 35.6789 40.5466 36.0315 40.194C36.3841 39.8413 36.5831 39.3637 36.585 38.865V26.25C36.5831 25.7513 36.3841 25.2737 36.0315 24.9211C35.6789 24.5685 35.2012 24.3695 34.7025 24.3675ZM13.5 6.00001C13.5029 5.96746 13.5121 5.93579 13.5272 5.90683C13.5424 5.87786 13.5631 5.85218 13.5882 5.83127C13.6133 5.81035 13.6423 5.79461 13.6735 5.78495C13.7047 5.7753 13.7375 5.77192 13.77 5.77501L34.365 7.57501C34.3976 7.57784 34.4293 7.58708 34.4582 7.6022C34.4872 7.61733 34.5129 7.63804 34.5338 7.66314C34.5547 7.68824 34.5704 7.71724 34.5801 7.74845C34.5898 7.77967 34.5931 7.81248 34.59 7.84501L33.1575 24.3675H32.5875V9.75001C32.5875 9.28655 32.4034 8.84206 32.0757 8.51434C31.748 8.18662 31.3035 8.00251 30.84 8.00251H13.335L13.5 6.00001ZM12.99 29.6775V38.07H10.1625C10.0969 38.07 10.0339 38.0439 9.98753 37.9975C9.94112 37.9511 9.91504 37.8882 9.91504 37.8225V9.75001C9.91504 9.68437 9.94112 9.62142 9.98753 9.575C10.0339 9.52859 10.0969 9.50251 10.1625 9.50251H30.84C30.9057 9.50251 30.9686 9.52859 31.015 9.575C31.0615 9.62142 31.0875 9.68437 31.0875 9.75001V24.3675H27.555C26.8732 24.368 26.2119 24.6008 25.68 25.0275L22.6425 27.4425C22.3746 27.6575 22.041 27.774 21.6975 27.7725H14.8875C14.3883 27.7725 13.9094 27.9708 13.5564 28.3239C13.2034 28.6769 13.005 29.1557 13.005 29.655L12.99 29.6775ZM35.085 38.865C35.085 38.9665 35.0447 39.0637 34.973 39.1355C34.9013 39.2072 34.804 39.2475 34.7025 39.2475H14.8875C14.7861 39.2475 14.6888 39.2072 14.6171 39.1355C14.5453 39.0637 14.505 38.9665 14.505 38.865V29.655C14.505 29.5536 14.5453 29.4563 14.6171 29.3845C14.6888 29.3128 14.7861 29.2725 14.8875 29.2725H21.6975C22.382 29.2737 23.0462 29.0408 23.58 28.6125L26.58 26.1975C26.85 25.9862 27.1822 25.8702 27.525 25.8675H34.6725C34.774 25.8675 34.8713 25.9078 34.943 25.9795C35.0147 26.0513 35.055 26.1486 35.055 26.25L35.085 38.865Z" fill="#2180EC"/>
<path d="M32.73 36.2024H29.9025C29.7036 36.2024 29.5128 36.2814 29.3721 36.4221C29.2315 36.5627 29.1525 36.7535 29.1525 36.9524C29.1525 37.1513 29.2315 37.3421 29.3721 37.4827C29.5128 37.6234 29.7036 37.7024 29.9025 37.7024H32.73C32.9289 37.7024 33.1196 37.6234 33.2603 37.4827C33.4009 37.3421 33.48 37.1513 33.48 36.9524C33.48 36.7535 33.4009 36.5627 33.2603 36.4221C33.1196 36.2814 32.9289 36.2024 32.73 36.2024Z" fill="#2180EC"/>
<path d="M18.525 13.5901H22.5C22.6989 13.5901 22.8897 13.5111 23.0304 13.3704C23.171 13.2298 23.25 13.039 23.25 12.8401C23.25 12.6412 23.171 12.4504 23.0304 12.3098C22.8897 12.1691 22.6989 12.0901 22.5 12.0901H18.525C18.3261 12.0901 18.1353 12.1691 17.9947 12.3098C17.854 12.4504 17.775 12.6412 17.775 12.8401C17.775 13.039 17.854 13.2298 17.9947 13.3704C18.1353 13.5111 18.3261 13.5901 18.525 13.5901Z" fill="#2180EC"/>
<path d="M14.25 17.8425H26.73C26.9289 17.8425 27.1197 17.7635 27.2603 17.6229C27.401 17.4822 27.48 17.2914 27.48 17.0925C27.48 16.8936 27.401 16.7029 27.2603 16.5622C27.1197 16.4215 26.9289 16.3425 26.73 16.3425H14.25C14.0511 16.3425 13.8603 16.4215 13.7197 16.5622C13.579 16.7029 13.5 16.8936 13.5 17.0925C13.5 17.2914 13.579 17.4822 13.7197 17.6229C13.8603 17.7635 14.0511 17.8425 14.25 17.8425Z" fill="#2180EC"/>
<path d="M27.48 20.8726C27.48 20.6736 27.401 20.4829 27.2603 20.3422C27.1197 20.2016 26.9289 20.1226 26.73 20.1226H14.25C14.0511 20.1226 13.8603 20.2016 13.7197 20.3422C13.579 20.4829 13.5 20.6736 13.5 20.8726C13.5 21.0715 13.579 21.2622 13.7197 21.4029C13.8603 21.5435 14.0511 21.6226 14.25 21.6226H26.73C26.9289 21.6226 27.1197 21.5435 27.2603 21.4029C27.401 21.2622 27.48 21.0715 27.48 20.8726Z" fill="#2180EC"/>
</g>
<defs>
<clipPath id="clip0_236_25062">
<rect width="45" height="45" fill="white"/>
</clipPath>
</defs>
</svg>
