<svg width="168" height="89" viewBox="0 0 168 89" fill="none" xmlns="http://www.w3.org/2000/svg">
<rect x="0.5" y="0.5" width="167" height="88" rx="6.5" fill="#0C324D" stroke="url(#paint0_linear_93_75)"/>
<path d="M11.78 80V73H12.63V80H11.78ZM12.22 80V79.18H16.15V80H12.22ZM18.6018 80.13C18.2551 80.13 17.9451 80.0633 17.6718 79.93C17.4051 79.7967 17.1951 79.6133 17.0418 79.38C16.8885 79.14 16.8118 78.8667 16.8118 78.56C16.8118 78.12 16.9685 77.7633 17.2818 77.49C17.6018 77.2167 18.0418 77.0567 18.6018 77.01L20.5318 76.87V77.63L18.7718 77.77C18.4051 77.7967 18.1318 77.8767 17.9518 78.01C17.7785 78.1367 17.6918 78.3167 17.6918 78.55C17.6918 78.77 17.7851 78.9533 17.9718 79.1C18.1585 79.2467 18.3985 79.32 18.6918 79.32C18.9918 79.32 19.2651 79.25 19.5118 79.11C19.7585 78.97 19.9518 78.7833 20.0918 78.55C20.2385 78.3167 20.3118 78.0567 20.3118 77.77V76.96C20.3118 76.58 20.1918 76.2667 19.9518 76.02C19.7185 75.7733 19.4051 75.65 19.0118 75.65C18.7051 75.65 18.4418 75.7267 18.2218 75.88C18.0018 76.0267 17.8518 76.2333 17.7718 76.5H17.6618L16.9218 76.26C17.0685 75.8133 17.3251 75.4667 17.6918 75.22C18.0585 74.9733 18.5018 74.85 19.0218 74.85C19.7018 74.85 20.2251 75.0533 20.5918 75.46C20.9651 75.8667 21.1518 76.44 21.1518 77.18V80H20.3518V78.54L20.6518 78.7C20.5718 78.9733 20.4285 79.22 20.2218 79.44C20.0218 79.6533 19.7818 79.8233 19.5018 79.95C19.2285 80.07 18.9285 80.13 18.6018 80.13ZM24.131 80.13C23.6043 80.13 23.161 80.0033 22.801 79.75C22.441 79.4967 22.201 79.1433 22.081 78.69L22.861 78.5L22.971 78.52C23.0443 78.7733 23.191 78.9733 23.411 79.12C23.6377 79.26 23.901 79.33 24.201 79.33C24.501 79.33 24.7543 79.2633 24.961 79.13C25.1743 78.99 25.281 78.81 25.281 78.59C25.281 78.41 25.2177 78.2667 25.091 78.16C24.971 78.0467 24.7877 77.9633 24.541 77.91L23.611 77.7C23.1443 77.5933 22.7977 77.42 22.571 77.18C22.351 76.94 22.241 76.6533 22.241 76.32C22.241 76.0333 22.3177 75.78 22.471 75.56C22.631 75.34 22.851 75.17 23.131 75.05C23.411 74.9233 23.7277 74.86 24.081 74.86C24.5943 74.86 25.0277 74.9867 25.381 75.24C25.7343 75.4933 25.9677 75.8533 26.081 76.32L25.301 76.48L25.191 76.46C25.131 76.2067 24.991 76.01 24.771 75.87C24.5577 75.73 24.321 75.66 24.061 75.66C23.7877 75.66 23.5577 75.72 23.371 75.84C23.191 75.9533 23.101 76.1033 23.101 76.29C23.101 76.4433 23.1577 76.5733 23.271 76.68C23.391 76.78 23.5777 76.8567 23.831 76.91L24.771 77.13C25.2377 77.2367 25.5843 77.4067 25.811 77.64C26.0377 77.8733 26.151 78.1733 26.151 78.54C26.151 78.8667 26.061 79.15 25.881 79.39C25.7077 79.6233 25.4677 79.8067 25.161 79.94C24.861 80.0667 24.5177 80.13 24.131 80.13ZM28.8532 80C28.4199 80 28.0665 79.8633 27.7932 79.59C27.5199 79.31 27.3832 78.9333 27.3832 78.46V73.64H28.2332V78.39C28.2332 78.6767 28.2965 78.8833 28.4232 79.01C28.5499 79.13 28.7532 79.19 29.0332 79.19H29.6332L29.6832 79.3V80H28.8532ZM26.5232 75.79V74.99H29.6832V75.79H26.5232ZM37.4572 74.99V80H36.6372V78.59L36.8772 78.74C36.7839 79.02 36.6372 79.2667 36.4372 79.48C36.2439 79.6867 36.0105 79.8467 35.7372 79.96C35.4705 80.0733 35.1805 80.13 34.8672 80.13C34.5072 80.13 34.1872 80.0533 33.9072 79.9C33.6272 79.7467 33.4039 79.52 33.2372 79.22C33.0772 78.9133 32.9972 78.5367 32.9972 78.09V74.99H33.8472V77.87C33.8472 78.23 33.9005 78.5167 34.0072 78.73C34.1205 78.9367 34.2672 79.0867 34.4472 79.18C34.6339 79.2667 34.8439 79.31 35.0772 79.31C35.3372 79.31 35.5805 79.2467 35.8072 79.12C36.0405 78.9933 36.2305 78.8067 36.3772 78.56C36.5305 78.3133 36.6072 78.01 36.6072 77.65V74.99H37.4572ZM41.3887 80.13C41.042 80.13 40.722 80.06 40.4287 79.92C40.142 79.7733 39.8953 79.5767 39.6887 79.33C39.4887 79.0833 39.342 78.8033 39.2487 78.49V76.49C39.342 76.17 39.4887 75.89 39.6887 75.65C39.8953 75.4033 40.142 75.21 40.4287 75.07C40.722 74.93 41.042 74.86 41.3887 74.86C41.842 74.86 42.2453 74.9733 42.5987 75.2C42.952 75.4267 43.2353 75.74 43.4487 76.14C43.662 76.5333 43.7687 76.9833 43.7687 77.49C43.7687 78.0033 43.662 78.46 43.4487 78.86C43.2353 79.2533 42.952 79.5633 42.5987 79.79C42.2453 80.0167 41.842 80.13 41.3887 80.13ZM38.8187 82V74.99H39.6387V76.78L39.4887 77.49L39.6687 78.21V82H38.8187ZM41.3287 79.32C41.6353 79.32 41.9087 79.2433 42.1487 79.09C42.3887 78.93 42.5753 78.7133 42.7087 78.44C42.8487 78.1667 42.9187 77.85 42.9187 77.49C42.9187 77.13 42.8487 76.8133 42.7087 76.54C42.5753 76.2667 42.3887 76.0533 42.1487 75.9C41.9087 75.7467 41.6353 75.67 41.3287 75.67C41.0087 75.67 40.722 75.7467 40.4687 75.9C40.222 76.0533 40.0253 76.2667 39.8787 76.54C39.7387 76.8133 39.6687 77.13 39.6687 77.49C39.6687 77.85 39.7387 78.1667 39.8787 78.44C40.0253 78.7133 40.222 78.93 40.4687 79.09C40.722 79.2433 41.0087 79.32 41.3287 79.32ZM46.9243 80.13C46.4776 80.13 46.0743 80.0167 45.7143 79.79C45.3543 79.5633 45.0676 79.2533 44.8543 78.86C44.6476 78.46 44.5443 78.0033 44.5443 77.49C44.5443 76.9833 44.6476 76.5333 44.8543 76.14C45.0676 75.74 45.3543 75.4267 45.7143 75.2C46.0743 74.9733 46.4776 74.86 46.9243 74.86C47.271 74.86 47.5876 74.93 47.8743 75.07C48.1676 75.21 48.4143 75.4033 48.6143 75.65C48.821 75.89 48.971 76.17 49.0643 76.49V78.5C48.971 78.8133 48.821 79.0933 48.6143 79.34C48.4143 79.5867 48.1676 79.78 47.8743 79.92C47.5876 80.06 47.271 80.13 46.9243 80.13ZM46.9843 79.32C47.311 79.32 47.5976 79.2433 47.8443 79.09C48.091 78.93 48.2843 78.7133 48.4243 78.44C48.571 78.1667 48.6443 77.85 48.6443 77.49C48.6443 77.13 48.571 76.8133 48.4243 76.54C48.2843 76.2667 48.091 76.0533 47.8443 75.9C47.5976 75.7467 47.311 75.67 46.9843 75.67C46.6843 75.67 46.411 75.7467 46.1643 75.9C45.9243 76.0533 45.7343 76.2667 45.5943 76.54C45.461 76.8133 45.3943 77.13 45.3943 77.49C45.3943 77.85 45.461 78.1667 45.5943 78.44C45.7343 78.7133 45.9243 78.93 46.1643 79.09C46.411 79.2433 46.6843 79.32 46.9843 79.32ZM48.6743 80V78.21L48.8243 77.49L48.6343 76.78V72.8L49.4643 72.7L49.4943 72.78V80H48.6743ZM52.4885 80.13C52.1418 80.13 51.8318 80.0633 51.5585 79.93C51.2918 79.7967 51.0818 79.6133 50.9285 79.38C50.7752 79.14 50.6985 78.8667 50.6985 78.56C50.6985 78.12 50.8552 77.7633 51.1685 77.49C51.4885 77.2167 51.9285 77.0567 52.4885 77.01L54.4185 76.87V77.63L52.6585 77.77C52.2918 77.7967 52.0185 77.8767 51.8385 78.01C51.6652 78.1367 51.5785 78.3167 51.5785 78.55C51.5785 78.77 51.6718 78.9533 51.8585 79.1C52.0452 79.2467 52.2852 79.32 52.5785 79.32C52.8785 79.32 53.1518 79.25 53.3985 79.11C53.6452 78.97 53.8385 78.7833 53.9785 78.55C54.1252 78.3167 54.1985 78.0567 54.1985 77.77V76.96C54.1985 76.58 54.0785 76.2667 53.8385 76.02C53.6052 75.7733 53.2918 75.65 52.8985 75.65C52.5918 75.65 52.3285 75.7267 52.1085 75.88C51.8885 76.0267 51.7385 76.2333 51.6585 76.5H51.5485L50.8085 76.26C50.9552 75.8133 51.2118 75.4667 51.5785 75.22C51.9452 74.9733 52.3885 74.85 52.9085 74.85C53.5885 74.85 54.1118 75.0533 54.4785 75.46C54.8518 75.8667 55.0385 76.44 55.0385 77.18V80H54.2385V78.54L54.5385 78.7C54.4585 78.9733 54.3152 79.22 54.1085 79.44C53.9085 79.6533 53.6685 79.8233 53.3885 79.95C53.1152 80.07 52.8152 80.13 52.4885 80.13ZM57.8962 80C57.4628 80 57.1095 79.8633 56.8362 79.59C56.5628 79.31 56.4262 78.9333 56.4262 78.46V73.64H57.2762V78.39C57.2762 78.6767 57.3395 78.8833 57.4662 79.01C57.5928 79.13 57.7962 79.19 58.0762 79.19H58.6762L58.7262 79.3V80H57.8962ZM55.5662 75.79V74.99H58.7262V75.79H55.5662ZM61.8388 80.13C61.3521 80.13 60.9221 80.02 60.5488 79.8C60.1754 79.5733 59.8821 79.2633 59.6688 78.87C59.4621 78.4767 59.3588 78.0167 59.3588 77.49C59.3588 76.97 59.4621 76.5133 59.6688 76.12C59.8754 75.72 60.1621 75.41 60.5288 75.19C60.9021 74.97 61.3288 74.86 61.8088 74.86C62.2821 74.86 62.6954 74.9733 63.0488 75.2C63.4088 75.42 63.6888 75.7333 63.8888 76.14C64.0888 76.5467 64.1888 77.02 64.1888 77.56V77.68L64.0388 77.82H59.8288V77.03H63.7288L63.3288 77.19C63.3088 76.87 63.2288 76.5967 63.0888 76.37C62.9488 76.1433 62.7688 75.97 62.5488 75.85C62.3288 75.7233 62.0821 75.66 61.8088 75.66C61.5154 75.66 61.2454 75.7333 60.9988 75.88C60.7521 76.02 60.5588 76.22 60.4188 76.48C60.2788 76.74 60.2088 77.04 60.2088 77.38V77.58C60.2088 77.9133 60.2788 78.2133 60.4188 78.48C60.5588 78.74 60.7521 78.9467 60.9988 79.1C61.2454 79.2533 61.5254 79.33 61.8388 79.33C62.1454 79.33 62.4121 79.2567 62.6388 79.11C62.8654 78.9567 63.0421 78.75 63.1688 78.49H63.2888L63.9888 78.8C63.8021 79.2133 63.5188 79.54 63.1388 79.78C62.7654 80.0133 62.3321 80.13 61.8388 80.13ZM67.3442 80.13C66.8976 80.13 66.4942 80.0167 66.1342 79.79C65.7742 79.5633 65.4876 79.2533 65.2742 78.86C65.0676 78.46 64.9642 78.0033 64.9642 77.49C64.9642 76.9833 65.0676 76.5333 65.2742 76.14C65.4876 75.74 65.7742 75.4267 66.1342 75.2C66.4942 74.9733 66.8976 74.86 67.3442 74.86C67.6909 74.86 68.0076 74.93 68.2942 75.07C68.5876 75.21 68.8342 75.4033 69.0342 75.65C69.2409 75.89 69.3909 76.17 69.4842 76.49V78.5C69.3909 78.8133 69.2409 79.0933 69.0342 79.34C68.8342 79.5867 68.5876 79.78 68.2942 79.92C68.0076 80.06 67.6909 80.13 67.3442 80.13ZM67.4042 79.32C67.7309 79.32 68.0176 79.2433 68.2642 79.09C68.5109 78.93 68.7042 78.7133 68.8442 78.44C68.9909 78.1667 69.0642 77.85 69.0642 77.49C69.0642 77.13 68.9909 76.8133 68.8442 76.54C68.7042 76.2667 68.5109 76.0533 68.2642 75.9C68.0176 75.7467 67.7309 75.67 67.4042 75.67C67.1042 75.67 66.8309 75.7467 66.5842 75.9C66.3442 76.0533 66.1542 76.2667 66.0142 76.54C65.8809 76.8133 65.8142 77.13 65.8142 77.49C65.8142 77.85 65.8809 78.1667 66.0142 78.44C66.1542 78.7133 66.3442 78.93 66.5842 79.09C66.8309 79.2433 67.1042 79.32 67.4042 79.32ZM69.0942 80V78.21L69.2442 77.49L69.0542 76.78V72.8L69.8842 72.7L69.9142 72.78V80H69.0942ZM73.5045 80V79.24L76.0845 76.72C76.3445 76.4533 76.5479 76.2267 76.6945 76.04C76.8412 75.8533 76.9445 75.6767 77.0045 75.51C77.0645 75.3433 77.0945 75.17 77.0945 74.99C77.0945 74.77 77.0412 74.5633 76.9345 74.37C76.8279 74.17 76.6712 74.01 76.4645 73.89C76.2645 73.7633 76.0145 73.7 75.7145 73.7C75.4479 73.7 75.2012 73.7633 74.9745 73.89C74.7479 74.01 74.5645 74.1967 74.4245 74.45C74.2912 74.7033 74.2245 75.02 74.2245 75.4L74.1145 75.42L73.3745 75.25C73.3745 74.7567 73.4812 74.3333 73.6945 73.98C73.9079 73.6267 74.1912 73.3533 74.5445 73.16C74.9045 72.9667 75.2979 72.87 75.7245 72.87C76.1579 72.87 76.5445 72.9667 76.8845 73.16C77.2245 73.3467 77.4879 73.6033 77.6745 73.93C77.8679 74.25 77.9645 74.6133 77.9645 75.02C77.9645 75.2867 77.9212 75.5333 77.8345 75.76C77.7545 75.98 77.6212 76.21 77.4345 76.45C77.2479 76.69 76.9945 76.9667 76.6745 77.28L74.4545 79.46L74.2945 79.18H78.1845V80H73.5045ZM81.3528 80.13C80.8795 80.13 80.4595 80.0367 80.0928 79.85C79.7261 79.6567 79.4395 79.39 79.2328 79.05C79.0261 78.7033 78.9195 78.3 78.9128 77.84L79.6628 77.67L79.7728 77.69C79.7728 78.0233 79.8361 78.3133 79.9628 78.56C80.0895 78.8 80.2695 78.9833 80.5028 79.11C80.7361 79.2367 81.0128 79.3 81.3328 79.3C81.6328 79.3 81.8928 79.25 82.1128 79.15C82.3328 79.0433 82.5028 78.8967 82.6228 78.71C82.7495 78.5167 82.8128 78.2867 82.8128 78.02C82.8128 77.5933 82.6628 77.2667 82.3628 77.04C82.0695 76.8067 81.6895 76.69 81.2228 76.69H80.7028V75.89H81.2428C81.6561 75.89 81.9928 75.7933 82.2528 75.6C82.5195 75.4 82.6528 75.1233 82.6528 74.77C82.6528 74.5567 82.5995 74.37 82.4928 74.21C82.3861 74.0433 82.2361 73.9167 82.0428 73.83C81.8495 73.7367 81.6228 73.69 81.3628 73.69C81.0761 73.69 80.8261 73.75 80.6128 73.87C80.3995 73.99 80.2328 74.1567 80.1128 74.37C79.9928 74.5833 79.9295 74.84 79.9228 75.14L79.8128 75.16L79.0728 74.99C79.0795 74.5833 79.1795 74.2233 79.3728 73.91C79.5728 73.59 79.8461 73.3367 80.1928 73.15C80.5395 72.9633 80.9328 72.87 81.3728 72.87C81.7995 72.87 82.1728 72.9533 82.4928 73.12C82.8195 73.28 83.0728 73.4967 83.2528 73.77C83.4395 74.0433 83.5328 74.3533 83.5328 74.7C83.5328 75.2067 83.3695 75.6033 83.0428 75.89C82.7228 76.1767 82.3028 76.3433 81.7828 76.39V76.18C82.1761 76.18 82.5128 76.26 82.7928 76.42C83.0795 76.58 83.2995 76.8033 83.4528 77.09C83.6128 77.3767 83.6928 77.71 83.6928 78.09C83.6928 78.4833 83.5961 78.8367 83.4028 79.15C83.2161 79.4567 82.9461 79.6967 82.5928 79.87C82.2461 80.0433 81.8328 80.13 81.3528 80.13ZM91.7688 80L89.2388 73.21L89.1688 73H90.0188L92.6788 79.92V80H91.7688ZM86.5088 80V79.92L89.1688 73H90.0188L89.9488 73.21L87.4188 80H86.5088ZM87.5388 78.2L87.8388 77.37H91.4488L91.7487 78.2H87.5388ZM97.8088 74.99V80H96.9888V78.59L97.2288 78.74C97.1354 79.02 96.9888 79.2667 96.7888 79.48C96.5954 79.6867 96.3621 79.8467 96.0888 79.96C95.8221 80.0733 95.5321 80.13 95.2188 80.13C94.8588 80.13 94.5388 80.0533 94.2588 79.9C93.9788 79.7467 93.7554 79.52 93.5888 79.22C93.4288 78.9133 93.3488 78.5367 93.3488 78.09V74.99H94.1988V77.87C94.1988 78.23 94.2521 78.5167 94.3588 78.73C94.4721 78.9367 94.6188 79.0867 94.7988 79.18C94.9854 79.2667 95.1954 79.31 95.4288 79.31C95.6888 79.31 95.9321 79.2467 96.1588 79.12C96.3921 78.9933 96.5821 78.8067 96.7288 78.56C96.8821 78.3133 96.9588 78.01 96.9588 77.65V74.99H97.8088ZM100.85 82C100.197 82 99.6869 81.8667 99.3202 81.6C98.9536 81.3333 98.7702 80.9733 98.7702 80.52C98.7702 80.2333 98.8402 79.98 98.9802 79.76C99.1269 79.5333 99.3402 79.36 99.6202 79.24L100.05 79.67C99.9036 79.7367 99.7902 79.8333 99.7102 79.96C99.6302 80.0867 99.5902 80.2233 99.5902 80.37C99.5902 80.6233 99.6902 80.83 99.8902 80.99C100.097 81.1567 100.387 81.24 100.76 81.24H101.46C101.847 81.24 102.15 81.1733 102.37 81.04C102.59 80.9133 102.7 80.7233 102.7 80.47C102.7 80.29 102.627 80.1467 102.48 80.04C102.34 79.9333 102.13 79.88 101.85 79.88H100.5C100.234 79.88 99.9902 79.8333 99.7702 79.74C99.5569 79.64 99.3869 79.5067 99.2602 79.34C99.1336 79.1667 99.0702 78.9667 99.0702 78.74C99.0702 78.52 99.1369 78.3167 99.2702 78.13C99.4036 77.9433 99.6102 77.7967 99.8902 77.69L100.36 78.11C100.18 78.1433 100.05 78.21 99.9702 78.31C99.8969 78.4033 99.8602 78.5133 99.8602 78.64C99.8602 78.7933 99.9236 78.9133 100.05 79C100.177 79.0867 100.35 79.13 100.57 79.13H101.88C102.38 79.13 102.777 79.2533 103.07 79.5C103.364 79.7467 103.51 80.07 103.51 80.47C103.51 80.9433 103.324 81.3167 102.95 81.59C102.577 81.8633 102.077 82 101.45 82H100.85ZM101.18 78.43C100.787 78.43 100.437 78.3533 100.13 78.2C99.8302 78.0467 99.5969 77.8367 99.4302 77.57C99.2636 77.2967 99.1802 76.9867 99.1802 76.64C99.1802 76.2867 99.2636 75.9767 99.4302 75.71C99.5969 75.4433 99.8302 75.2367 100.13 75.09C100.437 74.9367 100.787 74.86 101.18 74.86C101.58 74.86 101.927 74.9367 102.22 75.09C102.52 75.2367 102.754 75.4433 102.92 75.71C103.094 75.9767 103.18 76.2867 103.18 76.64C103.18 76.9867 103.094 77.2967 102.92 77.57C102.754 77.8367 102.52 78.0467 102.22 78.2C101.927 78.3533 101.58 78.43 101.18 78.43ZM101.18 77.69C101.534 77.69 101.82 77.5933 102.04 77.4C102.26 77.2067 102.37 76.9533 102.37 76.64C102.37 76.3333 102.26 76.0833 102.04 75.89C101.82 75.6967 101.534 75.6 101.18 75.6C100.82 75.6 100.53 75.6967 100.31 75.89C100.097 76.0833 99.9902 76.3333 99.9902 76.64C99.9902 76.9533 100.097 77.2067 100.31 77.4C100.53 77.5933 100.82 77.69 101.18 77.69ZM102.55 75.62L101.99 75.27C101.99 75.01 102.044 74.7767 102.15 74.57C102.264 74.3633 102.41 74.2033 102.59 74.09C102.77 73.97 102.974 73.91 103.2 73.91C103.254 73.91 103.31 73.9133 103.37 73.92C103.437 73.92 103.487 73.9267 103.52 73.94V74.71L103.47 74.82C103.404 74.8 103.324 74.79 103.23 74.79C103.004 74.79 102.834 74.8667 102.72 75.02C102.607 75.1733 102.55 75.3733 102.55 75.62ZM106.571 80V79.24L109.151 76.72C109.411 76.4533 109.614 76.2267 109.761 76.04C109.908 75.8533 110.011 75.6767 110.071 75.51C110.131 75.3433 110.161 75.17 110.161 74.99C110.161 74.77 110.108 74.5633 110.001 74.37C109.894 74.17 109.738 74.01 109.531 73.89C109.331 73.7633 109.081 73.7 108.781 73.7C108.514 73.7 108.268 73.7633 108.041 73.89C107.814 74.01 107.631 74.1967 107.491 74.45C107.358 74.7033 107.291 75.02 107.291 75.4L107.181 75.42L106.441 75.25C106.441 74.7567 106.548 74.3333 106.761 73.98C106.974 73.6267 107.258 73.3533 107.611 73.16C107.971 72.9667 108.364 72.87 108.791 72.87C109.224 72.87 109.611 72.9667 109.951 73.16C110.291 73.3467 110.554 73.6033 110.741 73.93C110.934 74.25 111.031 74.6133 111.031 75.02C111.031 75.2867 110.988 75.5333 110.901 75.76C110.821 75.98 110.688 76.21 110.501 76.45C110.314 76.69 110.061 76.9667 109.741 77.28L107.521 79.46L107.361 79.18H111.251V80H106.571ZM114.619 80.13C114.079 80.13 113.613 79.9833 113.219 79.69C112.826 79.39 112.519 78.97 112.299 78.43C112.086 77.8833 111.979 77.24 111.979 76.5C111.979 75.76 112.086 75.1167 112.299 74.57C112.519 74.0233 112.826 73.6033 113.219 73.31C113.613 73.0167 114.079 72.87 114.619 72.87C115.159 72.87 115.626 73.0167 116.019 73.31C116.419 73.6033 116.726 74.0233 116.939 74.57C117.153 75.1167 117.259 75.76 117.259 76.5C117.259 77.24 117.153 77.8833 116.939 78.43C116.726 78.97 116.419 79.39 116.019 79.69C115.626 79.9833 115.159 80.13 114.619 80.13ZM114.619 79.3C114.986 79.3 115.299 79.19 115.559 78.97C115.826 78.7433 116.033 78.42 116.179 78C116.326 77.5733 116.399 77.0733 116.399 76.5C116.399 75.9267 116.326 75.43 116.179 75.01C116.033 74.5833 115.826 74.26 115.559 74.04C115.299 73.8133 114.986 73.7 114.619 73.7C114.259 73.7 113.946 73.8133 113.679 74.04C113.419 74.26 113.216 74.5833 113.069 75.01C112.923 75.43 112.849 75.9267 112.849 76.5C112.849 77.0733 112.923 77.5733 113.069 78C113.216 78.42 113.419 78.7433 113.679 78.97C113.946 79.19 114.259 79.3 114.619 79.3ZM118.104 80V79.24L120.684 76.72C120.944 76.4533 121.147 76.2267 121.294 76.04C121.441 75.8533 121.544 75.6767 121.604 75.51C121.664 75.3433 121.694 75.17 121.694 74.99C121.694 74.77 121.641 74.5633 121.534 74.37C121.427 74.17 121.271 74.01 121.064 73.89C120.864 73.7633 120.614 73.7 120.314 73.7C120.047 73.7 119.801 73.7633 119.574 73.89C119.347 74.01 119.164 74.1967 119.024 74.45C118.891 74.7033 118.824 75.02 118.824 75.4L118.714 75.42L117.974 75.25C117.974 74.7567 118.081 74.3333 118.294 73.98C118.507 73.6267 118.791 73.3533 119.144 73.16C119.504 72.9667 119.897 72.87 120.324 72.87C120.757 72.87 121.144 72.9667 121.484 73.16C121.824 73.3467 122.087 73.6033 122.274 73.93C122.467 74.25 122.564 74.6133 122.564 75.02C122.564 75.2867 122.521 75.5333 122.434 75.76C122.354 75.98 122.221 76.21 122.034 76.45C121.847 76.69 121.594 76.9667 121.274 77.28L119.054 79.46L118.894 79.18H122.784V80H118.104ZM125.922 80.13C125.462 80.13 125.056 80.0433 124.702 79.87C124.349 79.6967 124.062 79.4533 123.842 79.14C123.622 78.8267 123.486 78.46 123.432 78.04L124.172 77.88L124.282 77.9C124.336 78.1867 124.432 78.4367 124.572 78.65C124.719 78.8567 124.902 79.0167 125.122 79.13C125.342 79.2433 125.596 79.3 125.882 79.3C126.222 79.3 126.512 79.2333 126.752 79.1C126.992 78.9667 127.176 78.7833 127.302 78.55C127.429 78.31 127.492 78.0333 127.492 77.72C127.492 77.4067 127.426 77.13 127.292 76.89C127.166 76.65 126.979 76.4633 126.732 76.33C126.492 76.1967 126.212 76.13 125.892 76.13C125.566 76.13 125.279 76.2 125.032 76.34C124.792 76.48 124.592 76.68 124.432 76.94L123.532 76.79L124.092 73H127.942V73.82H124.492L124.882 73.5L124.402 76.38L124.122 76.39C124.242 76.1833 124.392 76 124.572 75.84C124.752 75.68 124.962 75.5533 125.202 75.46C125.442 75.36 125.716 75.31 126.022 75.31C126.449 75.31 126.839 75.41 127.192 75.61C127.552 75.81 127.839 76.09 128.052 76.45C128.266 76.8033 128.372 77.22 128.372 77.7C128.372 78.18 128.266 78.6033 128.052 78.97C127.846 79.3367 127.559 79.6233 127.192 79.83C126.826 80.03 126.402 80.13 125.922 80.13Z" fill="white"/>
<rect x="11" y="9.5" width="16" height="16" rx="8" fill="white" fill-opacity="0.17"/>
<rect x="11" y="9.5" width="16" height="16" rx="8" stroke="white" stroke-width="0.6"/>
<path d="M20.7978 21.25V20.4167C20.7978 20.0504 20.6522 19.6991 20.3932 19.4401C20.1342 19.1811 19.7829 19.0355 19.4166 19.0355H16.0833C15.717 19.0355 15.3657 19.1811 15.1067 19.4401C14.8478 19.6991 14.7022 20.0504 14.7022 20.4167V21.25C14.7022 21.4078 14.5744 21.5355 14.4166 21.5355C14.2588 21.5355 14.1311 21.4078 14.1311 21.25V20.4167C14.1311 19.8989 14.3365 19.4021 14.7026 19.036C15.0688 18.6699 15.5655 18.4645 16.0833 18.4645H19.4166C19.9344 18.4645 20.4312 18.6699 20.7973 19.036C21.1634 19.4021 21.3688 19.8989 21.3688 20.4167V21.25C21.3688 21.4078 21.2411 21.5355 21.0833 21.5355C20.9255 21.5355 20.7978 21.4078 20.7978 21.25Z" fill="white"/>
<path d="M19.1312 15.4167C19.1312 14.654 18.5127 14.0355 17.75 14.0355C16.9874 14.0355 16.3689 14.654 16.3689 15.4167C16.3689 16.1794 16.9874 16.7978 17.75 16.7978C18.5127 16.7978 19.1312 16.1794 19.1312 15.4167ZM19.7022 15.4167C19.7022 16.4949 18.8283 17.3689 17.75 17.3689C16.6718 17.3689 15.7979 16.4949 15.7979 15.4167C15.7979 14.3384 16.6718 13.4645 17.75 13.4645C18.8283 13.4645 19.7022 14.3384 19.7022 15.4167Z" fill="white"/>
<path d="M23.2978 21.2502V20.4169C23.2976 20.1109 23.1955 19.8137 23.0081 19.5719C22.8206 19.3301 22.558 19.1573 22.2617 19.0808C22.109 19.0413 22.0172 18.8853 22.0566 18.7325C22.0961 18.5798 22.2522 18.488 22.4049 18.5275C22.8237 18.6356 23.1946 18.8799 23.4596 19.2217C23.7246 19.5636 23.8685 19.9838 23.8688 20.4164V21.2502C23.8687 21.4079 23.741 21.5357 23.5833 21.5357C23.4256 21.5357 23.2979 21.4079 23.2978 21.2502Z" fill="white"/>
<path d="M21.6344 15.4187C21.6344 15.1121 21.5322 14.8141 21.3442 14.5719C21.1562 14.3297 20.8929 14.1569 20.5959 14.0808C20.4431 14.0417 20.3509 13.8863 20.3899 13.7335C20.4291 13.5806 20.5845 13.4884 20.7373 13.5274C21.1573 13.635 21.5299 13.8793 21.7957 14.2217C22.0614 14.5642 22.2054 14.9853 22.2054 15.4187C22.2054 15.8522 22.0614 16.2733 21.7957 16.6157C21.5299 16.9582 21.1573 17.2025 20.7373 17.31C20.5845 17.349 20.4291 17.2568 20.3899 17.104C20.3509 16.9512 20.4431 16.7957 20.5959 16.7566C20.8929 16.6805 21.1562 16.5077 21.3442 16.2655C21.5322 16.0233 21.6344 15.7254 21.6344 15.4187Z" fill="white"/>
<path d="M38.9545 21V12.6H39.9865V21H38.9545ZM36.3505 13.584V12.6H42.5785V13.584H36.3505ZM45.1904 21.156C44.6064 21.156 44.0904 21.024 43.6424 20.76C43.1944 20.488 42.8424 20.116 42.5864 19.644C42.3304 19.164 42.2024 18.612 42.2024 17.988C42.2024 17.364 42.3304 16.816 42.5864 16.344C42.8424 15.864 43.1944 15.492 43.6424 15.228C44.0904 14.964 44.6064 14.832 45.1904 14.832C45.7824 14.832 46.3024 14.964 46.7504 15.228C47.1984 15.492 47.5504 15.864 47.8064 16.344C48.0624 16.816 48.1904 17.364 48.1904 17.988C48.1904 18.612 48.0624 19.164 47.8064 19.644C47.5504 20.116 47.1984 20.488 46.7504 20.76C46.3024 21.024 45.7824 21.156 45.1904 21.156ZM45.1904 20.184C45.5824 20.184 45.9224 20.096 46.2104 19.92C46.5064 19.736 46.7384 19.48 46.9064 19.152C47.0744 18.816 47.1584 18.428 47.1584 17.988C47.1584 17.54 47.0744 17.156 46.9064 16.836C46.7384 16.508 46.5064 16.256 46.2104 16.08C45.9224 15.896 45.5824 15.804 45.1904 15.804C44.8064 15.804 44.4664 15.896 44.1704 16.08C43.8744 16.256 43.6424 16.508 43.4744 16.836C43.3064 17.156 43.2224 17.54 43.2224 17.988C43.2224 18.428 43.3064 18.816 43.4744 19.152C43.6424 19.48 43.8744 19.736 44.1704 19.92C44.4664 20.096 44.8064 20.184 45.1904 20.184ZM51.5098 21C50.9898 21 50.5658 20.836 50.2378 20.508C49.9098 20.172 49.7458 19.72 49.7458 19.152V13.368H50.7658V19.068C50.7658 19.412 50.8418 19.66 50.9938 19.812C51.1458 19.956 51.3898 20.028 51.7258 20.028H52.4458L52.5058 20.16V21H51.5098ZM48.7138 15.948V14.988H52.5058V15.948H48.7138ZM55.5089 21.156C55.0929 21.156 54.7209 21.076 54.3929 20.916C54.0729 20.756 53.8209 20.536 53.6369 20.256C53.4529 19.968 53.3609 19.64 53.3609 19.272C53.3609 18.744 53.5489 18.316 53.9249 17.988C54.3089 17.66 54.8369 17.468 55.5089 17.412L57.8249 17.244V18.156L55.7129 18.324C55.2729 18.356 54.9449 18.452 54.7289 18.612C54.5209 18.764 54.4169 18.98 54.4169 19.26C54.4169 19.524 54.5289 19.744 54.7529 19.92C54.9769 20.096 55.2649 20.184 55.6169 20.184C55.9769 20.184 56.3049 20.1 56.6009 19.932C56.8969 19.764 57.1289 19.54 57.2969 19.26C57.4729 18.98 57.5609 18.668 57.5609 18.324V17.352C57.5609 16.896 57.4169 16.52 57.1289 16.224C56.8489 15.928 56.4729 15.78 56.0009 15.78C55.6329 15.78 55.3169 15.872 55.0529 16.056C54.7889 16.232 54.6089 16.48 54.5129 16.8H54.3809L53.4929 16.512C53.6689 15.976 53.9769 15.56 54.4169 15.264C54.8569 14.968 55.3889 14.82 56.0129 14.82C56.8289 14.82 57.4569 15.064 57.8969 15.552C58.3449 16.04 58.5689 16.728 58.5689 17.616V21H57.6089V19.248L57.9689 19.44C57.8729 19.768 57.7009 20.064 57.4529 20.328C57.2129 20.584 56.9249 20.788 56.5889 20.94C56.2609 21.084 55.9009 21.156 55.5089 21.156ZM60.3291 21V12.36L61.3131 12.24L61.3491 12.336V21H60.3291ZM65.8735 21V12.6H66.8935V21H65.8735ZM66.4015 21V20.016H71.2375V21H66.4015ZM66.4015 17.244V16.248H70.9735V17.244H66.4015ZM66.4015 13.584V12.6H71.2375V13.584H66.4015ZM72.6324 21V14.988H73.6164V16.656L73.3644 16.428C73.4764 16.1 73.6484 15.82 73.8804 15.588C74.1124 15.348 74.3844 15.164 74.6964 15.036C75.0084 14.9 75.3364 14.832 75.6804 14.832C76.2004 14.832 76.6524 14.98 77.0364 15.276C77.4204 15.572 77.6724 16 77.7924 16.56L77.3724 16.548C77.4764 16.204 77.6484 15.904 77.8884 15.648C78.1364 15.392 78.4324 15.192 78.7764 15.048C79.1204 14.904 79.4924 14.832 79.8924 14.832C80.3004 14.832 80.6684 14.924 80.9964 15.108C81.3244 15.292 81.5844 15.564 81.7764 15.924C81.9684 16.284 82.0644 16.736 82.0644 17.28V21H81.0444V17.52C81.0444 17.088 80.9804 16.748 80.8524 16.5C80.7244 16.252 80.5564 16.076 80.3484 15.972C80.1404 15.868 79.9044 15.816 79.6404 15.816C79.3684 15.816 79.0964 15.888 78.8244 16.032C78.5524 16.176 78.3244 16.396 78.1404 16.692C77.9564 16.98 77.8644 17.352 77.8644 17.808V21H76.8444V17.52C76.8444 17.088 76.7804 16.748 76.6524 16.5C76.5244 16.252 76.3524 16.076 76.1364 15.972C75.9284 15.868 75.6964 15.816 75.4404 15.816C75.1684 15.816 74.8924 15.892 74.6124 16.044C74.3404 16.188 74.1124 16.408 73.9284 16.704C73.7444 16.992 73.6524 17.36 73.6524 17.808V21H72.6324ZM86.732 21.156C86.316 21.156 85.932 21.072 85.58 20.904C85.236 20.728 84.94 20.492 84.692 20.196C84.452 19.9 84.276 19.564 84.164 19.188V16.788C84.276 16.404 84.452 16.068 84.692 15.78C84.94 15.484 85.236 15.252 85.58 15.084C85.932 14.916 86.316 14.832 86.732 14.832C87.276 14.832 87.76 14.968 88.184 15.24C88.608 15.512 88.948 15.888 89.204 16.368C89.46 16.84 89.588 17.38 89.588 17.988C89.588 18.604 89.46 19.152 89.204 19.632C88.948 20.104 88.608 20.476 88.184 20.748C87.76 21.02 87.276 21.156 86.732 21.156ZM83.648 23.4V14.988H84.632V17.136L84.452 17.988L84.668 18.852V23.4H83.648ZM86.66 20.184C87.028 20.184 87.356 20.092 87.644 19.908C87.932 19.716 88.156 19.456 88.316 19.128C88.484 18.8 88.568 18.42 88.568 17.988C88.568 17.556 88.484 17.176 88.316 16.848C88.156 16.52 87.932 16.264 87.644 16.08C87.356 15.896 87.028 15.804 86.66 15.804C86.276 15.804 85.932 15.896 85.628 16.08C85.332 16.264 85.096 16.52 84.92 16.848C84.752 17.176 84.668 17.556 84.668 17.988C84.668 18.42 84.752 18.8 84.92 19.128C85.096 19.456 85.332 19.716 85.628 19.908C85.932 20.092 86.276 20.184 86.66 20.184ZM90.9268 21V12.36L91.9108 12.24L91.9468 12.336V21H90.9268ZM96.2958 21.156C95.7118 21.156 95.1958 21.024 94.7478 20.76C94.2998 20.488 93.9478 20.116 93.6918 19.644C93.4358 19.164 93.3078 18.612 93.3078 17.988C93.3078 17.364 93.4358 16.816 93.6918 16.344C93.9478 15.864 94.2998 15.492 94.7478 15.228C95.1958 14.964 95.7118 14.832 96.2958 14.832C96.8878 14.832 97.4078 14.964 97.8558 15.228C98.3038 15.492 98.6558 15.864 98.9118 16.344C99.1678 16.816 99.2958 17.364 99.2958 17.988C99.2958 18.612 99.1678 19.164 98.9118 19.644C98.6558 20.116 98.3038 20.488 97.8558 20.76C97.4078 21.024 96.8878 21.156 96.2958 21.156ZM96.2958 20.184C96.6878 20.184 97.0278 20.096 97.3158 19.92C97.6118 19.736 97.8438 19.48 98.0118 19.152C98.1798 18.816 98.2638 18.428 98.2638 17.988C98.2638 17.54 98.1798 17.156 98.0118 16.836C97.8438 16.508 97.6118 16.256 97.3158 16.08C97.0278 15.896 96.6878 15.804 96.2958 15.804C95.9118 15.804 95.5718 15.896 95.2758 16.08C94.9798 16.256 94.7478 16.508 94.5798 16.836C94.4118 17.156 94.3278 17.54 94.3278 17.988C94.3278 18.428 94.4118 18.816 94.5798 19.152C94.7478 19.48 94.9798 19.736 95.2758 19.92C95.5718 20.096 95.9118 20.184 96.2958 20.184ZM101.079 23.4V23.304L102.063 21L102.423 20.232L104.547 14.988H105.615V15.084L102.123 23.4H101.079ZM102.063 21L99.6393 15.084V14.988H100.695L102.771 20.16V21H102.063ZM108.928 21.156C108.344 21.156 107.828 21.024 107.38 20.76C106.932 20.488 106.58 20.116 106.324 19.644C106.076 19.172 105.952 18.62 105.952 17.988C105.952 17.364 106.076 16.816 106.324 16.344C106.572 15.864 106.916 15.492 107.356 15.228C107.804 14.964 108.316 14.832 108.892 14.832C109.46 14.832 109.956 14.968 110.38 15.24C110.812 15.504 111.148 15.88 111.388 16.368C111.628 16.856 111.748 17.424 111.748 18.072V18.216L111.568 18.384H106.516V17.436H111.196L110.716 17.628C110.692 17.244 110.596 16.916 110.428 16.644C110.26 16.372 110.044 16.164 109.78 16.02C109.516 15.868 109.22 15.792 108.892 15.792C108.54 15.792 108.216 15.88 107.92 16.056C107.624 16.224 107.392 16.464 107.224 16.776C107.056 17.088 106.972 17.448 106.972 17.856V18.096C106.972 18.496 107.056 18.856 107.224 19.176C107.392 19.488 107.624 19.736 107.92 19.92C108.216 20.104 108.552 20.196 108.928 20.196C109.296 20.196 109.616 20.108 109.888 19.932C110.16 19.748 110.372 19.5 110.524 19.188H110.668L111.508 19.56C111.284 20.056 110.944 20.448 110.488 20.736C110.04 21.016 109.52 21.156 108.928 21.156ZM115.655 21.156C115.071 21.156 114.555 21.024 114.107 20.76C113.659 20.488 113.307 20.116 113.051 19.644C112.803 19.172 112.679 18.62 112.679 17.988C112.679 17.364 112.803 16.816 113.051 16.344C113.299 15.864 113.643 15.492 114.083 15.228C114.531 14.964 115.043 14.832 115.619 14.832C116.187 14.832 116.683 14.968 117.107 15.24C117.539 15.504 117.875 15.88 118.115 16.368C118.355 16.856 118.475 17.424 118.475 18.072V18.216L118.295 18.384H113.243V17.436H117.923L117.443 17.628C117.419 17.244 117.323 16.916 117.155 16.644C116.987 16.372 116.771 16.164 116.507 16.02C116.243 15.868 115.947 15.792 115.619 15.792C115.267 15.792 114.943 15.88 114.647 16.056C114.351 16.224 114.119 16.464 113.951 16.776C113.783 17.088 113.699 17.448 113.699 17.856V18.096C113.699 18.496 113.783 18.856 113.951 19.176C114.119 19.488 114.351 19.736 114.647 19.92C114.943 20.104 115.279 20.196 115.655 20.196C116.023 20.196 116.343 20.108 116.615 19.932C116.887 19.748 117.099 19.5 117.251 19.188H117.395L118.235 19.56C118.011 20.056 117.671 20.448 117.215 20.736C116.767 21.016 116.247 21.156 115.655 21.156Z" fill="white"/>
<line x1="7" y1="65.5" x2="161" y2="65.5" stroke="#254868"/>
<path d="M15.1814 54V39.458L16.6554 41.086L12.2114 44.584H12.0354V41.064L15.2474 38.6H18.1514V54H15.1814ZM26.2484 54.352C25.2657 54.352 24.393 54.1613 23.6304 53.78C22.8677 53.3987 22.2297 52.8633 21.7164 52.174C21.2177 51.47 20.873 50.6487 20.6824 49.71L23.3444 49.16L23.5864 49.204C23.689 49.5853 23.8504 49.9593 24.0704 50.326C24.305 50.678 24.6057 50.9713 24.9724 51.206C25.3537 51.426 25.801 51.536 26.3144 51.536C26.8277 51.536 27.2824 51.426 27.6784 51.206C28.089 50.986 28.4117 50.678 28.6464 50.282C28.881 49.886 28.9984 49.424 28.9984 48.896C28.9984 48.4413 28.881 48.0233 28.6464 47.642C28.4264 47.2607 28.111 46.96 27.7004 46.74C27.3044 46.5053 26.8277 46.388 26.2704 46.388C25.6837 46.388 25.1997 46.5273 24.8184 46.806C24.437 47.07 24.0777 47.422 23.7404 47.862L20.9904 47.312L22.0904 38.6H31.0444V41.416H23.2564L24.8184 39.7L23.9164 46.432L22.4424 46.608C22.7357 46.08 23.0804 45.596 23.4764 45.156C23.8724 44.7013 24.3417 44.3347 24.8844 44.056C25.4417 43.7773 26.0797 43.638 26.7984 43.638C27.737 43.638 28.5951 43.8727 29.3724 44.342C30.1644 44.7967 30.795 45.42 31.2644 46.212C31.7337 47.004 31.9684 47.8987 31.9684 48.896C31.9684 49.9227 31.7264 50.854 31.2424 51.69C30.7731 52.5113 30.1057 53.164 29.2404 53.648C28.3897 54.1173 27.3924 54.352 26.2484 54.352ZM38.8597 54.352C37.877 54.352 37.0044 54.1613 36.2417 53.78C35.479 53.3987 34.841 52.8633 34.3277 52.174C33.829 51.47 33.4844 50.6487 33.2937 49.71L35.9557 49.16L36.1977 49.204C36.3004 49.5853 36.4617 49.9593 36.6817 50.326C36.9164 50.678 37.217 50.9713 37.5837 51.206C37.965 51.426 38.4124 51.536 38.9257 51.536C39.439 51.536 39.8937 51.426 40.2897 51.206C40.7004 50.986 41.023 50.678 41.2577 50.282C41.4924 49.886 41.6097 49.424 41.6097 48.896C41.6097 48.4413 41.4924 48.0233 41.2577 47.642C41.0377 47.2607 40.7224 46.96 40.3117 46.74C39.9157 46.5053 39.439 46.388 38.8817 46.388C38.295 46.388 37.811 46.5273 37.4297 46.806C37.0484 47.07 36.689 47.422 36.3517 47.862L33.6017 47.312L34.7017 38.6H43.6557V41.416H35.8677L37.4297 39.7L36.5277 46.432L35.0537 46.608C35.347 46.08 35.6917 45.596 36.0877 45.156C36.4837 44.7013 36.953 44.3347 37.4957 44.056C38.053 43.7773 38.691 43.638 39.4097 43.638C40.3484 43.638 41.2064 43.8727 41.9837 44.342C42.7757 44.7967 43.4064 45.42 43.8757 46.212C44.345 47.004 44.5797 47.8987 44.5797 48.896C44.5797 49.9227 44.3377 50.854 43.8537 51.69C43.3844 52.5113 42.717 53.164 41.8517 53.648C41.001 54.1173 40.0037 54.352 38.8597 54.352ZM51.713 54.352C50.525 54.352 49.4984 54.0293 48.633 53.384C47.7677 52.724 47.093 51.7927 46.609 50.59C46.1397 49.3873 45.905 47.9573 45.905 46.3C45.905 44.6427 46.1397 43.2127 46.609 42.01C47.093 40.8073 47.7677 39.8833 48.633 39.238C49.4984 38.578 50.525 38.248 51.713 38.248C52.901 38.248 53.9277 38.578 54.793 39.238C55.673 39.8833 56.3477 40.8073 56.817 42.01C57.2864 43.2127 57.521 44.6427 57.521 46.3C57.521 47.9573 57.2864 49.3873 56.817 50.59C56.3477 51.7927 55.673 52.724 54.793 53.384C53.9277 54.0293 52.901 54.352 51.713 54.352ZM51.713 51.536C52.2997 51.536 52.7984 51.3307 53.209 50.92C53.6344 50.4947 53.9644 49.8933 54.199 49.116C54.4337 48.324 54.551 47.3853 54.551 46.3C54.551 45.2147 54.4337 44.2833 54.199 43.506C53.9644 42.714 53.6344 42.1127 53.209 41.702C52.7984 41.2767 52.2997 41.064 51.713 41.064C51.1264 41.064 50.6204 41.2767 50.195 41.702C49.7697 42.1127 49.4397 42.714 49.205 43.506C48.985 44.2833 48.875 45.2147 48.875 46.3C48.875 47.3853 48.985 48.324 49.205 49.116C49.4397 49.8933 49.7697 50.4947 50.195 50.92C50.6204 51.3307 51.1264 51.536 51.713 51.536Z" fill="white"/>
<rect x="123" y="40" width="32" height="15" rx="7.5" fill="#35556B"/>
<rect x="123" y="40" width="32" height="15" rx="7.5" stroke="#537FA7"/>
<path d="M131 49.8334V45.1667" stroke="#57EEAE" stroke-linecap="round" stroke-linejoin="round"/>
<path d="M128.667 47.5L131 45.1667L133.333 47.5" stroke="#57EEAE" stroke-linecap="round" stroke-linejoin="round"/>
<path d="M135.503 50V49.192L137.519 47.32C137.695 47.1493 137.834 46.9947 137.935 46.856C138.036 46.7173 138.111 46.584 138.159 46.456C138.207 46.328 138.231 46.2 138.231 46.072C138.231 45.9013 138.191 45.7493 138.111 45.616C138.036 45.4773 137.93 45.368 137.791 45.288C137.652 45.2027 137.487 45.16 137.295 45.16C137.098 45.16 136.922 45.208 136.767 45.304C136.618 45.4 136.5 45.5413 136.415 45.728C136.33 45.9093 136.287 46.1333 136.287 46.4L136.199 46.416L135.391 46.248C135.391 45.8587 135.476 45.5173 135.647 45.224C135.823 44.9253 136.055 44.6933 136.343 44.528C136.636 44.3627 136.962 44.28 137.319 44.28C137.676 44.28 137.994 44.36 138.271 44.52C138.548 44.68 138.764 44.8987 138.919 45.176C139.079 45.448 139.159 45.7547 139.159 46.096C139.159 46.304 139.124 46.504 139.055 46.696C138.986 46.888 138.874 47.088 138.719 47.296C138.57 47.4987 138.364 47.72 138.103 47.96L136.327 49.64L136.135 49.12H139.335V50H135.503ZM141.941 50.12C141.509 50.12 141.136 50.0027 140.821 49.768C140.507 49.528 140.261 49.1893 140.085 48.752C139.915 48.3147 139.829 47.7973 139.829 47.2C139.829 46.6027 139.915 46.0853 140.085 45.648C140.261 45.2107 140.507 44.8747 140.821 44.64C141.136 44.4 141.509 44.28 141.941 44.28C142.373 44.28 142.747 44.4 143.061 44.64C143.381 44.8747 143.627 45.2107 143.797 45.648C143.968 46.0853 144.053 46.6027 144.053 47.2C144.053 47.7973 143.968 48.3147 143.797 48.752C143.627 49.1893 143.381 49.528 143.061 49.768C142.747 50.0027 142.373 50.12 141.941 50.12ZM141.941 49.24C142.187 49.24 142.397 49.1573 142.573 48.992C142.749 48.8267 142.885 48.592 142.981 48.288C143.083 47.984 143.133 47.6213 143.133 47.2C143.133 46.7787 143.083 46.416 142.981 46.112C142.885 45.808 142.749 45.5733 142.573 45.408C142.397 45.2427 142.187 45.16 141.941 45.16C141.701 45.16 141.491 45.2427 141.309 45.408C141.133 45.568 140.997 45.8027 140.901 46.112C140.805 46.416 140.757 46.7787 140.757 47.2C140.757 47.6213 140.805 47.9867 140.901 48.296C140.997 48.6 141.133 48.8347 141.309 49C141.491 49.16 141.701 49.24 141.941 49.24ZM145.845 47.376C145.483 47.376 145.195 47.24 144.981 46.968C144.773 46.6907 144.669 46.3147 144.669 45.84C144.669 45.3653 144.773 44.992 144.981 44.72C145.195 44.4427 145.483 44.304 145.845 44.304C146.208 44.304 146.493 44.4427 146.701 44.72C146.915 44.992 147.021 45.3653 147.021 45.84C147.021 46.3147 146.915 46.6907 146.701 46.968C146.493 47.24 146.208 47.376 145.845 47.376ZM145.845 46.664C145.973 46.664 146.075 46.5893 146.149 46.44C146.224 46.2907 146.261 46.0907 146.261 45.84C146.261 45.584 146.224 45.384 146.149 45.24C146.075 45.0907 145.973 45.016 145.845 45.016C145.717 45.016 145.616 45.0907 145.541 45.24C145.467 45.384 145.429 45.584 145.429 45.84C145.429 46.0907 145.467 46.2907 145.541 46.44C145.616 46.5893 145.717 46.664 145.845 46.664ZM145.541 50L149.021 44.4H149.853L146.373 50H145.541ZM149.549 50.096C149.187 50.096 148.899 49.96 148.685 49.688C148.477 49.4107 148.373 49.0347 148.373 48.56C148.373 48.0853 148.477 47.712 148.685 47.44C148.899 47.1627 149.187 47.024 149.549 47.024C149.912 47.024 150.197 47.1627 150.405 47.44C150.619 47.712 150.725 48.0853 150.725 48.56C150.725 49.0347 150.619 49.4107 150.405 49.688C150.197 49.96 149.912 50.096 149.549 50.096ZM149.549 49.384C149.677 49.384 149.779 49.3093 149.853 49.16C149.928 49.0107 149.965 48.8107 149.965 48.56C149.965 48.304 149.928 48.104 149.853 47.96C149.779 47.8107 149.677 47.736 149.549 47.736C149.421 47.736 149.32 47.8107 149.245 47.96C149.171 48.104 149.133 48.304 149.133 48.56C149.133 48.8107 149.171 49.0107 149.245 49.16C149.32 49.3093 149.421 49.384 149.549 49.384Z" fill="white"/>
<defs>
<linearGradient id="paint0_linear_93_75" x1="0" y1="0" x2="170.343" y2="1.57566" gradientUnits="userSpaceOnUse">
<stop stop-color="#1565C0"/>
<stop offset="0.182692" stop-color="white" stop-opacity="0"/>
<stop offset="0.692308" stop-color="white" stop-opacity="0"/>
<stop offset="0.932692" stop-color="#1565C0"/>
</linearGradient>
</defs>
</svg>
