<svg width="45" height="45" viewBox="0 0 45 45" fill="none" xmlns="http://www.w3.org/2000/svg">
<path d="M41.9466 18.6305L38.1015 17.8071C38.008 17.7874 37.9482 17.7332 37.9197 17.6416C37.6374 16.7453 37.2734 15.8677 36.8378 15.0339C36.7934 14.9479 36.7971 14.8675 36.849 14.7871L38.9865 11.485C39.3455 10.9308 39.2703 10.2185 38.8038 9.75214L35.2479 6.19573C34.7941 5.74239 34.0525 5.66391 33.515 6.01345L30.2115 8.15104C30.131 8.20333 30.0493 8.20711 29.9656 8.16316C29.1305 7.72758 28.2533 7.3631 27.3584 7.08176C27.2673 7.05372 27.2131 6.99387 27.1929 6.90044L26.3695 3.05338C26.2312 2.40844 25.6741 1.95703 25.0142 1.95703H19.9857C19.3259 1.95703 18.7688 2.40844 18.631 3.05338L17.8071 6.90044C17.7874 6.99387 17.7332 7.05372 17.6416 7.08176C16.7453 7.36406 15.8681 7.72854 15.0349 8.16316C14.9493 8.20799 14.8694 8.2043 14.7886 8.152L11.485 6.01345C10.9462 5.66382 10.2065 5.74239 9.75219 6.19573L6.19675 9.75214C5.73031 10.2176 5.65464 10.9308 6.01358 11.485L8.15152 14.7881C8.20347 14.8685 8.20716 14.9498 8.1633 15.0339C7.72772 15.8695 7.36314 16.7462 7.08189 17.6416C7.05289 17.7332 6.99304 17.7875 6.89961 17.808L3.05343 18.6305C2.40805 18.7688 1.95752 19.3259 1.95752 19.9858V22.5C1.95752 22.815 2.21319 23.0711 2.52811 23.0711H10.9196C11.2346 23.0711 11.4897 22.815 11.4897 22.5C11.4897 16.4294 16.4289 11.4896 22.4999 11.4896C28.5711 11.4896 33.5103 16.4294 33.5103 22.5C33.5103 22.815 33.7653 23.0711 34.0808 23.0711H42.4718C42.7868 23.0711 43.0423 22.815 43.0423 22.5V19.9858C43.0425 19.3259 42.5916 18.7687 41.9466 18.6305ZM41.9013 21.9289H34.6385C34.3394 15.4927 29.009 10.3484 22.5 10.3484C15.991 10.3484 10.6612 15.4927 10.3616 21.9289H3.09887V19.9857C3.09887 19.8651 3.17498 19.7717 3.29179 19.7464L7.13885 18.9229C7.63235 18.8173 8.01793 18.4659 8.16972 17.9845C8.4319 17.1526 8.76975 16.3376 9.17501 15.5619C9.40862 15.1142 9.38437 14.5926 9.10953 14.1683L6.9715 10.8644C6.90611 10.7635 6.91868 10.6438 7.00332 10.5587L10.5588 7.00327C10.6419 6.92101 10.7653 6.90703 10.8644 6.97146L14.1684 9.10904C14.5881 9.38194 15.1162 9.40726 15.563 9.17452C16.3369 8.77075 17.1519 8.43334 17.9842 8.17072C18.466 8.01929 18.8174 7.63327 18.9231 7.13889L19.747 3.29183C19.7718 3.17405 19.8658 3.09926 19.9858 3.09926H25.0143C25.1349 3.09926 25.2284 3.17405 25.2536 3.29183L26.0771 7.13889C26.1826 7.63327 26.5336 8.01841 27.0165 8.17072C27.8474 8.43149 28.6614 8.76987 29.4382 9.17452C29.8821 9.40532 30.4111 9.38106 30.8317 9.10904L34.1358 6.97058C34.218 6.91731 34.3161 6.87715 34.4415 7.00327L37.9969 10.5587C38.082 10.6438 38.094 10.7634 38.0292 10.8644L35.8916 14.1665C35.6163 14.5909 35.592 15.1124 35.8262 15.562C36.2308 16.3368 36.5692 17.1518 36.8314 17.9846C36.9828 18.466 37.3688 18.8174 37.8623 18.923L41.7084 19.7464C41.8253 19.7718 41.9014 19.8652 41.9014 19.9858V21.9289H41.9013Z" fill="#2180EC"/>
<path d="M14.6054 28.1024C14.6054 25.9471 12.8525 24.1946 10.6971 24.1946C8.54272 24.1946 6.78931 25.947 6.78931 28.1024C6.78931 30.2568 8.54272 32.0103 10.6971 32.0103C12.8524 32.0103 14.6054 30.2568 14.6054 28.1024ZM7.93048 28.1024C7.93048 26.577 9.17167 25.3358 10.6971 25.3358C12.223 25.3358 13.4638 26.5769 13.4638 28.1024C13.4638 29.6278 12.2231 30.869 10.6971 30.869C9.17176 30.869 7.93048 29.6278 7.93048 28.1024Z" fill="#2180EC"/>
<path d="M38.2108 28.1024C38.2108 25.9471 36.4574 24.1946 34.3029 24.1946C32.1486 24.1946 30.3951 25.947 30.3951 28.1024C30.3951 30.2568 32.1486 32.0103 34.3029 32.0103C36.4574 32.0103 38.2108 30.2568 38.2108 28.1024ZM31.5363 28.1024C31.5363 26.577 32.7775 25.3358 34.3029 25.3358C35.8284 25.3358 37.0696 26.5769 37.0696 28.1024C37.0696 29.6278 35.8284 30.869 34.3029 30.869C32.7775 30.869 31.5363 29.6278 31.5363 28.1024Z" fill="#2180EC"/>
<path d="M40.9148 35.6498C40.5264 33.5992 38.7978 32.1672 36.7108 32.1672H31.8953C31.5757 32.1672 31.2622 32.2057 30.9559 32.2729C30.1354 30.1484 28.1231 28.7361 25.7565 28.7361H19.2437C16.8771 28.7361 14.8653 30.1484 14.0447 32.2729C13.7386 32.2056 13.4245 32.1672 13.1054 32.1672H8.28948C6.20234 32.1672 4.47423 33.5992 4.08541 35.6489L3.14603 40.6062C3.02878 41.2269 3.17978 41.812 3.58258 42.2989C3.97985 42.7785 4.54156 43.0429 5.164 43.0429H15.0172H16.2304H28.7698H29.983H39.8362C40.4587 43.0429 41.0205 42.7785 41.4177 42.2989C41.8205 41.812 41.9715 41.2269 41.8541 40.6062L40.9148 35.6498ZM24.4737 36.6247L22.5001 39.1258L20.5266 36.6247L21.5888 29.8773H23.4119L24.4737 36.6247ZM4.46158 41.5708C4.27701 41.3485 4.21399 41.1017 4.26769 40.8184L5.20707 35.8619C5.49166 34.358 6.75948 33.3083 8.28957 33.3083H13.1054C13.3209 33.3083 13.5312 33.3345 13.7376 33.3757L12.4857 39.9856C12.3544 40.6782 12.4909 41.3352 12.8778 41.9007H5.164C4.87563 41.9008 4.64571 41.7934 4.46158 41.5708ZM28.7698 41.9008H16.2304H15.0172C14.5694 41.9008 14.1975 41.7261 13.9115 41.3812C13.6259 41.0372 13.5235 40.639 13.6068 40.1988L14.877 33.4945C15.2807 31.3645 17.0762 29.8774 19.2437 29.8774H20.4335L19.3605 36.6939C19.3358 36.8509 19.3778 37.0107 19.4764 37.136L22.0524 40.4008C22.1604 40.5372 22.3253 40.6176 22.5001 40.6176C22.6749 40.6176 22.8399 40.5372 22.9478 40.4008L25.5238 37.136C25.6228 37.0107 25.6645 36.8509 25.6396 36.6939L24.5671 29.8774H25.7565C27.9244 29.8774 29.7199 31.3645 30.1236 33.4945L31.3934 40.1988C31.4771 40.6381 31.3747 41.0362 31.0887 41.3812C30.8026 41.7261 30.4306 41.9008 29.9829 41.9008H28.7698ZM40.5391 41.5708C40.3549 41.7933 40.125 41.9008 39.8362 41.9008H32.1229C32.5093 41.3353 32.6463 40.6783 32.5149 39.9867L31.2625 33.3757C31.4691 33.3346 31.6798 33.3084 31.8952 33.3084H36.7107C38.2412 33.3084 39.509 34.358 39.7936 35.862L40.7325 40.8185C40.7868 41.1018 40.7232 41.3485 40.5391 41.5708Z" fill="#2180EC"/>
<path d="M27.5846 23.0375C27.5846 20.2344 25.304 17.9539 22.5 17.9539C19.6969 17.9539 17.4164 20.2344 17.4164 23.0375C17.4164 25.8414 19.6969 28.1221 22.5 28.1221C25.3039 28.1221 27.5846 25.8415 27.5846 23.0375ZM18.5576 23.0375C18.5576 20.8635 20.326 19.0951 22.5 19.0951C24.674 19.0951 26.4434 20.8636 26.4434 23.0375C26.4434 25.2125 24.674 26.9808 22.5 26.9808C20.326 26.9808 18.5576 25.2125 18.5576 23.0375Z" fill="#2180EC"/>
</svg>
