<svg width="45" height="45" viewBox="0 0 45 45" fill="none" xmlns="http://www.w3.org/2000/svg">
<path d="M12.4744 28.0556C12.2362 28.0556 12.0095 27.9159 11.9093 27.683C11.3564 26.3971 11.0752 25.0278 11.0752 23.6119C11.0752 17.9139 15.7105 13.2786 21.4085 13.2786C21.7486 13.2786 22.0237 13.5537 22.0237 13.8938C22.0237 14.2339 21.7486 14.509 21.4085 14.509C16.3891 14.509 12.3057 18.5924 12.3057 23.6119C12.3057 24.859 12.5526 26.0649 13.0396 27.1969C13.174 27.5089 13.0299 27.871 12.7179 28.0055C12.6379 28.0389 12.5553 28.0556 12.4744 28.0556Z" fill="#2180EC"/>
<path d="M21.4085 33.945C19.9944 33.945 18.625 33.6647 17.3392 33.1127C17.152 33.0319 17.0166 32.864 16.9779 32.6636C16.9393 32.4632 17.0026 32.2567 17.1467 32.1125L29.9093 19.3508C30.0534 19.2067 30.26 19.1434 30.4604 19.182C30.6608 19.2207 30.8286 19.3561 30.9095 19.5433C31.4623 20.83 31.7418 22.1985 31.7418 23.6117C31.7418 29.3097 27.1065 33.945 21.4085 33.945ZM18.6945 32.3041C19.5672 32.5766 20.4769 32.7146 21.4085 32.7146C26.4279 32.7146 30.5113 28.6312 30.5113 23.6117C30.5113 22.681 30.3734 21.7713 30.1009 20.8986L18.6945 32.3041Z" fill="#2180EC"/>
<path d="M9.07466 31.4543C8.86372 31.4543 8.65806 31.3454 8.5438 31.1502C7.85034 29.9699 7.32651 28.7069 6.98286 27.3885L4.36548 27.0862C4.05522 27.0501 3.82056 26.7874 3.82056 26.4753V21.288C3.82056 20.976 4.05435 20.7132 4.3646 20.6772L6.84927 20.3889C7.18413 18.871 7.75015 17.427 8.53765 16.084L6.90024 14.0168C6.70601 13.7716 6.72622 13.4209 6.94771 13.1995L10.6154 9.53179C10.836 9.31118 11.1875 9.29097 11.4328 9.48433L13.3936 11.0382C14.7067 10.1989 16.1279 9.57749 17.6317 9.1855L17.934 6.56812C17.9701 6.25786 18.2329 6.02319 18.5449 6.02319H23.7322C24.0442 6.02319 24.307 6.25698 24.343 6.56724L24.6313 9.0519C26.1518 9.38765 27.6011 9.9563 28.945 10.7464C29.2376 10.9187 29.3361 11.2958 29.1638 11.5884C28.9916 11.8811 28.6145 11.9795 28.3218 11.8073C26.9701 11.0119 25.5014 10.4617 23.9581 10.1699C23.6935 10.1198 23.4922 9.90356 23.4615 9.63638L23.1846 7.25278H19.0942L18.8059 9.75064C18.776 10.009 18.5862 10.2217 18.3322 10.2797C16.6746 10.6603 15.1189 11.3415 13.7091 12.3047C13.4868 12.4568 13.1915 12.4462 12.9805 12.2792L11.0997 10.7886L8.20718 13.6811L9.76987 15.6534C9.93159 15.8573 9.94741 16.1412 9.80942 16.3618C8.90415 17.8067 8.2854 19.3878 7.96987 21.0604C7.91978 21.325 7.70356 21.5262 7.43638 21.5579L5.05278 21.8347V25.9251L7.55063 26.2134C7.80903 26.2433 8.02173 26.4332 8.07974 26.6872C8.38911 28.0363 8.90327 29.3274 9.6064 30.5253C9.77866 30.818 9.68022 31.1951 9.38755 31.3673C9.28823 31.4262 9.18101 31.4543 9.07466 31.4543Z" fill="#2180EC"/>
<path d="M24.271 41.1995H19.0837C18.7717 41.1995 18.5089 40.9657 18.4729 40.6554L18.1846 38.1707C16.6641 37.835 15.2156 37.2664 13.8718 36.4771C13.7074 36.3804 13.5976 36.2134 13.573 36.0245C13.5492 35.8355 13.6134 35.6465 13.7479 35.5112L17.1457 32.1124L33.3079 15.952C33.4424 15.8175 33.6322 15.7525 33.8212 15.7771C34.0102 15.8017 34.1772 15.9116 34.2738 16.0759C34.9664 17.2572 35.4902 18.5202 35.8339 19.8368L38.4513 20.1391C38.7615 20.1751 38.9962 20.4379 38.9962 20.7499V25.9372C38.9962 26.2493 38.7624 26.5121 38.4522 26.5481L35.9675 26.8364C35.6326 28.3542 35.0666 29.7983 34.2791 31.1413L35.9165 33.2076C36.1108 33.4528 36.0905 33.8035 35.8691 34.0249L32.2014 37.6926C31.9808 37.9132 31.6292 37.9334 31.384 37.7401L29.4232 36.1862C27.9879 37.1038 26.4217 37.7621 24.7606 38.1426C24.4292 38.2191 24.0996 38.0117 24.0232 37.6803C23.9467 37.349 24.1541 37.0194 24.4855 36.9429C26.1431 36.5623 27.6987 35.8812 29.1085 34.9179C29.3309 34.7659 29.6262 34.7764 29.8371 34.9434L31.718 36.434L34.6105 33.5415L33.0478 31.5693C32.8861 31.3654 32.8702 31.0815 33.0082 30.8609C33.9135 29.416 34.5322 27.8348 34.8478 26.1623C34.8979 25.8977 35.1141 25.6964 35.3813 25.6648L37.7649 25.3879V21.2975L35.267 21.0092C35.0086 20.9793 34.7959 20.7895 34.7379 20.5355C34.4883 19.4483 34.106 18.3971 33.5971 17.4022L15.1981 35.8012C16.3512 36.391 17.579 36.8102 18.8587 37.0519C19.1233 37.102 19.3245 37.3182 19.3553 37.5854L19.6321 39.969H23.7243C23.7815 39.6517 24.0759 39.4302 24.4002 39.4671C24.7377 39.5058 24.9794 39.8117 24.9407 40.1492L24.8819 40.6545C24.8458 40.9648 24.583 41.1995 24.271 41.1995Z" fill="#2180EC"/>
<path d="M7.37837 43.7932C6.5188 43.7932 5.68648 43.6201 4.90425 43.2782C4.59312 43.1419 4.45073 42.7798 4.58609 42.4678C4.72232 42.1567 5.08443 42.0143 5.39644 42.1505C6.02222 42.4239 6.68931 42.5627 7.37837 42.5627C10.1144 42.5627 12.3398 40.3374 12.3398 37.6013C12.3398 37.4704 12.3354 37.3526 12.3257 37.2401C12.3108 37.0599 12.3758 36.8824 12.5042 36.7549L17.1457 32.1134L34.1753 15.0846C34.2905 14.9695 34.4469 14.9044 34.6104 14.9044H38.9311L42.5821 11.2526L42.583 7.14194L37.8878 11.8371C37.7727 11.9522 37.6163 12.0172 37.4528 12.0172C37.2893 12.0172 37.1329 11.9522 37.0177 11.8371L33.1857 8.00327C32.9458 7.76333 32.9458 7.3731 33.1857 7.13315L37.8808 2.43804L33.7693 2.43892L30.1192 6.08989L30.1183 10.4115C30.1183 10.575 30.0533 10.7314 29.9381 10.8465L19.9212 20.8617C19.6813 21.1016 19.2911 21.1016 19.0511 20.8617C18.8112 20.6217 18.8112 20.2315 19.0511 19.9916L28.887 10.1548L28.8878 5.83325C28.8878 5.66978 28.9529 5.51333 29.068 5.39819L33.0785 1.38687C33.1936 1.27173 33.3501 1.20669 33.5135 1.20669L39.186 1.20581C39.3495 1.20581 39.5059 1.27085 39.621 1.38599L39.7107 1.47563C39.9506 1.71558 39.9506 2.10581 39.7107 2.34575L34.4891 7.56733L37.4519 10.5301L42.6735 5.30767C42.7886 5.19253 42.9451 5.12749 43.1085 5.12749C43.1094 5.12749 43.1094 5.12749 43.1103 5.12749C43.2738 5.12749 43.4311 5.19341 43.5462 5.3103L43.635 5.39995C43.7493 5.51509 43.8125 5.67065 43.8125 5.83237L43.8117 11.5048C43.8117 11.6683 43.7466 11.8248 43.6315 11.9399L39.6202 15.9521C39.505 16.0672 39.3486 16.1323 39.1851 16.1323H34.8644L13.5676 37.4308C13.5694 37.4862 13.5703 37.5424 13.5703 37.6013C13.5703 41.0159 10.792 43.7932 7.37837 43.7932Z" fill="#2180EC"/>
<path d="M3.51733 42.0767C3.47778 42.0767 3.43735 42.0723 3.39692 42.0644C3.35825 42.0565 3.31958 42.0451 3.28179 42.0292C3.24487 42.0143 3.20884 41.995 3.17632 41.973C3.14204 41.951 3.1104 41.9247 3.08228 41.8965C3.05415 41.8684 3.02866 41.8368 3.00581 41.8034C2.98384 41.77 2.9645 41.7339 2.94956 41.697C2.93374 41.6601 2.92231 41.6214 2.9144 41.5819C2.90649 41.5423 2.9021 41.5019 2.9021 41.4615C2.9021 41.4219 2.90649 41.3815 2.9144 41.3411C2.92231 41.3024 2.93374 41.2637 2.94956 41.2259C2.9645 41.189 2.98384 41.153 3.00581 41.1205C3.02866 41.0862 3.05415 41.0545 3.08228 41.0264C3.1104 40.9983 3.14204 40.9728 3.17632 40.95C3.20884 40.928 3.24487 40.9086 3.28179 40.8937C3.31958 40.8779 3.35825 40.8665 3.39692 40.8585C3.4769 40.8427 3.55864 40.8427 3.63774 40.8585C3.67729 40.8665 3.71597 40.8779 3.75288 40.8937C3.78979 40.9086 3.82583 40.928 3.85923 40.95C3.89263 40.9728 3.92427 40.9983 3.95239 41.0264C3.98052 41.0545 4.00688 41.0862 4.02886 41.1205C4.05083 41.153 4.07017 41.189 4.08511 41.2259C4.10093 41.2637 4.11235 41.3024 4.12026 41.3411C4.12905 41.3815 4.13257 41.4219 4.13257 41.4615C4.13257 41.5019 4.12905 41.5423 4.12026 41.5819C4.11235 41.6214 4.10093 41.6601 4.08511 41.697C4.07017 41.7339 4.05083 41.77 4.02886 41.8034C4.00688 41.8368 3.98052 41.8684 3.95239 41.8965C3.92427 41.9247 3.89263 41.951 3.85923 41.973C3.82583 41.995 3.78979 42.0143 3.75288 42.0292C3.71597 42.0451 3.67729 42.0565 3.63774 42.0644C3.59819 42.0723 3.55776 42.0767 3.51733 42.0767Z" fill="#2180EC"/>
<path d="M2.30801 40.5405C2.0751 40.5405 1.85186 40.4078 1.74814 40.1819C1.37549 39.3698 1.18652 38.5014 1.18652 37.6014C1.18652 34.1869 3.96387 31.4095 7.37842 31.4095C7.46191 31.4095 7.54541 31.4113 7.62891 31.4148L15.9214 23.1223C16.1613 22.8824 16.5516 22.8824 16.7915 23.1223C17.0314 23.3623 17.0314 23.7525 16.7915 23.9925L8.30215 32.4818C8.17295 32.611 7.99189 32.6761 7.81084 32.6594C7.66934 32.6462 7.52432 32.64 7.37842 32.64C4.64238 32.64 2.41699 34.8654 2.41699 37.6014C2.41699 38.323 2.56816 39.0182 2.86699 39.6686C3.0085 39.9771 2.87314 40.3428 2.56465 40.4843C2.48115 40.522 2.39414 40.5405 2.30801 40.5405Z" fill="#2180EC"/>
<path d="M7.37852 40.616C7.23174 40.616 7.08672 40.6054 6.94609 40.5843C5.63301 40.398 4.58184 39.3477 4.39551 38.0293C4.37529 37.894 4.36475 37.7481 4.36475 37.6013C4.36475 35.9393 5.71738 34.5867 7.37939 34.5867C9.04141 34.5867 10.394 35.9393 10.394 37.6013C10.394 39.2633 9.04053 40.616 7.37852 40.616ZM7.37852 35.8171C6.39502 35.8171 5.59434 36.6178 5.59434 37.6013C5.59434 37.6866 5.60049 37.7709 5.61279 37.8518C5.72354 38.6358 6.34492 39.2563 7.12363 39.367C7.20889 39.3802 7.29326 39.3855 7.37852 39.3855C8.36201 39.3855 9.1627 38.5848 9.1627 37.6013C9.1627 36.6178 8.36201 35.8171 7.37852 35.8171Z" fill="#2180EC"/>
<path d="M7.37852 40.616C7.23174 40.616 7.08672 40.6054 6.94609 40.5843C5.63301 40.398 4.58184 39.3477 4.39551 38.0293C4.37529 37.894 4.36475 37.7481 4.36475 37.6013C4.36475 35.9393 5.71738 34.5867 7.37939 34.5867C9.04141 34.5867 10.394 35.9393 10.394 37.6013C10.394 39.2633 9.04053 40.616 7.37852 40.616ZM7.37852 35.8171C6.39502 35.8171 5.59434 36.6178 5.59434 37.6013C5.59434 37.6866 5.60049 37.7709 5.61279 37.8518C5.72354 38.6358 6.34492 39.2563 7.12363 39.367C7.20889 39.3802 7.29326 39.3855 7.37852 39.3855C8.36201 39.3855 9.1627 38.5848 9.1627 37.6013C9.1627 36.6178 8.36201 35.8171 7.37852 35.8171Z" fill="#2180EC"/>
</svg>
