<?xml version="1.0" encoding="UTF-8"?>
<svg id="Layer_1" data-name="Layer 1" xmlns="http://www.w3.org/2000/svg" version="1.1" viewBox="0 0 1024 1024">
  <defs>
    <style>
      .cls-1 {
        fill: #f4f3f3;
      }

      .cls-1, .cls-2, .cls-3, .cls-4, .cls-5, .cls-6, .cls-7, .cls-8, .cls-9, .cls-10, .cls-11, .cls-12, .cls-13, .cls-14, .cls-15, .cls-16, .cls-17, .cls-18, .cls-19, .cls-20, .cls-21, .cls-22, .cls-23, .cls-24, .cls-25, .cls-26, .cls-27, .cls-28, .cls-29, .cls-30, .cls-31, .cls-32, .cls-33, .cls-34, .cls-35, .cls-36, .cls-37, .cls-38, .cls-39, .cls-40, .cls-41, .cls-42, .cls-43, .cls-44, .cls-45, .cls-46, .cls-47, .cls-48, .cls-49, .cls-50, .cls-51, .cls-52, .cls-53, .cls-54, .cls-55, .cls-56, .cls-57, .cls-58, .cls-59, .cls-60, .cls-61, .cls-62, .cls-63, .cls-64, .cls-65, .cls-66, .cls-67, .cls-68, .cls-69, .cls-70, .cls-71, .cls-72, .cls-73, .cls-74, .cls-75, .cls-76, .cls-77, .cls-78, .cls-79, .cls-80, .cls-81, .cls-82, .cls-83, .cls-84, .cls-85, .cls-86, .cls-87, .cls-88, .cls-89, .cls-90, .cls-91, .cls-92, .cls-93, .cls-94, .cls-95, .cls-96, .cls-97, .cls-98, .cls-99, .cls-100, .cls-101, .cls-102, .cls-103, .cls-104, .cls-105, .cls-106, .cls-107, .cls-108, .cls-109, .cls-110, .cls-111, .cls-112, .cls-113, .cls-114, .cls-115, .cls-116, .cls-117, .cls-118, .cls-119, .cls-120, .cls-121, .cls-122, .cls-123, .cls-124, .cls-125, .cls-126, .cls-127, .cls-128, .cls-129, .cls-130, .cls-131, .cls-132, .cls-133, .cls-134, .cls-135, .cls-136, .cls-137, .cls-138, .cls-139, .cls-140, .cls-141, .cls-142, .cls-143, .cls-144, .cls-145, .cls-146, .cls-147, .cls-148, .cls-149, .cls-150, .cls-151, .cls-152, .cls-153, .cls-154, .cls-155, .cls-156, .cls-157, .cls-158, .cls-159, .cls-160, .cls-161, .cls-162, .cls-163, .cls-164, .cls-165, .cls-166, .cls-167, .cls-168, .cls-169, .cls-170, .cls-171, .cls-172, .cls-173, .cls-174, .cls-175, .cls-176, .cls-177, .cls-178, .cls-179, .cls-180, .cls-181, .cls-182, .cls-183, .cls-184, .cls-185, .cls-186, .cls-187, .cls-188, .cls-189, .cls-190, .cls-191, .cls-192, .cls-193, .cls-194, .cls-195, .cls-196, .cls-197, .cls-198, .cls-199, .cls-200, .cls-201, .cls-202, .cls-203, .cls-204, .cls-205, .cls-206, .cls-207, .cls-208, .cls-209, .cls-210, .cls-211, .cls-212, .cls-213, .cls-214, .cls-215, .cls-216, .cls-217, .cls-218, .cls-219, .cls-220, .cls-221, .cls-222, .cls-223, .cls-224, .cls-225, .cls-226, .cls-227, .cls-228, .cls-229, .cls-230, .cls-231, .cls-232, .cls-233, .cls-234, .cls-235 {
        stroke-width: 0px;
      }

      .cls-2 {
        fill: #ecded6;
      }

      .cls-3 {
        fill: #f3d8be;
      }

      .cls-4 {
        fill: #b38470;
      }

      .cls-5 {
        fill: #ffe5c2;
      }

      .cls-6 {
        fill: #a79c9c;
      }

      .cls-7 {
        fill: #8c443c;
      }

      .cls-8 {
        fill: #bdb4b0;
      }

      .cls-9 {
        fill: #c97559;
      }

      .cls-10 {
        fill: #dfb79b;
      }

      .cls-11 {
        fill: #ede2da;
      }

      .cls-12 {
        fill: #404b5d;
      }

      .cls-13 {
        fill: #deb493;
      }

      .cls-14 {
        fill: #e18c6c;
      }

      .cls-15 {
        fill: #838183;
      }

      .cls-16 {
        fill: #e6c4a0;
      }

      .cls-17 {
        fill: #e2dfe1;
      }

      .cls-18 {
        fill: #e5d7ce;
      }

      .cls-19 {
        fill: #0b1725;
      }

      .cls-20 {
        fill: #f6d2ad;
      }

      .cls-21 {
        fill: #4f3b34;
      }

      .cls-22 {
        fill: #0c192b;
      }

      .cls-23 {
        fill: #702e27;
      }

      .cls-24 {
        fill: #f1c09b;
      }

      .cls-25 {
        fill: #522317;
      }

      .cls-26 {
        fill: #e5dbd5;
      }

      .cls-27 {
        fill: #893c35;
      }

      .cls-28 {
        fill: #dcb296;
      }

      .cls-29 {
        fill: #927a76;
      }

      .cls-30 {
        fill: #616a7a;
      }

      .cls-31 {
        fill: #e59874;
      }

      .cls-32 {
        fill: #b35e48;
      }

      .cls-33 {
        fill: #d1ccca;
      }

      .cls-34 {
        fill: #e1b695;
      }

      .cls-35 {
        fill: #72402f;
      }

      .cls-36 {
        fill: #2e303b;
      }

      .cls-37 {
        fill: #9c9091;
      }

      .cls-38 {
        fill: #d6aa8c;
      }

      .cls-39 {
        fill: #696c77;
      }

      .cls-40 {
        fill: #eee7e1;
      }

      .cls-41 {
        fill: #efb794;
      }

      .cls-42 {
        fill: #0f182b;
      }

      .cls-43 {
        fill: #031826;
      }

      .cls-44 {
        fill: #020308;
      }

      .cls-45 {
        fill: #eae9e7;
      }

      .cls-46 {
        fill: #97483e;
      }

      .cls-47 {
        fill: #b55a41;
      }

      .cls-48 {
        fill: #1a3648;
      }

      .cls-49 {
        fill: #c0b4b6;
      }

      .cls-50 {
        fill: #f6f4f0;
      }

      .cls-51 {
        fill: #a49a9a;
      }

      .cls-52 {
        fill: #cda086;
      }

      .cls-53 {
        fill: #f0ccb0;
      }

      .cls-54 {
        fill: #e08b6a;
      }

      .cls-55 {
        fill: #010309;
      }

      .cls-56 {
        fill: #a65844;
      }

      .cls-57 {
        fill: #251918;
      }

      .cls-58 {
        fill: #ccc3c2;
      }

      .cls-59 {
        fill: #020f1b;
      }

      .cls-60 {
        fill: #a25349;
      }

      .cls-61 {
        fill: #7f6a67;
      }

      .cls-62 {
        fill: #f4f2ef;
      }

      .cls-63 {
        fill: #a28d88;
      }

      .cls-64 {
        fill: #0b0909;
      }

      .cls-65 {
        fill: #e4b998;
      }

      .cls-66 {
        fill: #ddb191;
      }

      .cls-67 {
        fill: #cdcece;
      }

      .cls-68 {
        fill: #a8a4a5;
      }

      .cls-69 {
        fill: #835347;
      }

      .cls-70 {
        fill: #ede9e6;
      }

      .cls-71 {
        fill: #243444;
      }

      .cls-72 {
        fill: #404c5c;
      }

      .cls-73 {
        fill: #e2d3ca;
      }

      .cls-74 {
        fill: #e8bf9d;
      }

      .cls-75 {
        fill: #e18a6a;
      }

      .cls-76 {
        fill: #f7f6f7;
      }

      .cls-77 {
        fill: #9a837d;
      }

      .cls-78 {
        fill: #813d33;
      }

      .cls-79 {
        fill: #ede3da;
      }

      .cls-80 {
        fill: #0b0d12;
      }

      .cls-81 {
        fill: #e29a80;
      }

      .cls-82 {
        fill: #c9bbb3;
      }

      .cls-83 {
        fill: #9e9294;
      }

      .cls-84 {
        fill: #020306;
      }

      .cls-85 {
        fill: #da785b;
      }

      .cls-86 {
        fill: #192536;
      }

      .cls-87 {
        fill: #fefdfc;
      }

      .cls-88 {
        fill: #cecece;
      }

      .cls-89 {
        fill: #fad6b4;
      }

      .cls-90 {
        fill: #eac5a3;
      }

      .cls-91 {
        fill: #c3bab9;
      }

      .cls-92 {
        fill: #d2a88f;
      }

      .cls-93 {
        fill: #f5d1ac;
      }

      .cls-94 {
        fill: #f0cba7;
      }

      .cls-95 {
        fill: #01050a;
      }

      .cls-96 {
        fill: #eeeced;
      }

      .cls-97 {
        fill: #cb9f85;
      }

      .cls-98 {
        fill: #090001;
      }

      .cls-99 {
        fill: #eeccaf;
      }

      .cls-100 {
        fill: #d8aa93;
      }

      .cls-101 {
        fill: #c06e53;
      }

      .cls-102 {
        fill: #362524;
      }

      .cls-103 {
        fill: #d9c7bd;
      }

      .cls-104 {
        fill: #ee9a79;
      }

      .cls-105 {
        fill: #fdfdfd;
      }

      .cls-106 {
        fill: #161e2d;
      }

      .cls-107 {
        fill: #031a28;
      }

      .cls-108 {
        fill: #c99d84;
      }

      .cls-109 {
        fill: #0a0909;
      }

      .cls-110 {
        fill: #aa5844;
      }

      .cls-111 {
        fill: #e4bc9c;
      }

      .cls-112 {
        fill: #f1ceab;
      }

      .cls-113 {
        fill: #aca4a2;
      }

      .cls-114 {
        fill: #a79c9d;
      }

      .cls-115 {
        fill: #75372e;
      }

      .cls-116 {
        fill: #e2bf9e;
      }

      .cls-117 {
        fill: #bfbcbf;
      }

      .cls-118 {
        fill: #e0b99a;
      }

      .cls-119 {
        fill: #e3bba1;
      }

      .cls-120 {
        fill: #e8e7e8;
      }

      .cls-121 {
        fill: #ece5df;
      }

      .cls-122 {
        fill: #8e7876;
      }

      .cls-123 {
        fill: #f3b088;
      }

      .cls-124 {
        fill: #d8ac8f;
      }

      .cls-125 {
        fill: #e6c0a6;
      }

      .cls-126 {
        fill: #f7d5b0;
      }

      .cls-127 {
        fill: #9e6f5b;
      }

      .cls-128 {
        fill: #ed9b7d;
      }

      .cls-129 {
        fill: #ebc2a0;
      }

      .cls-130 {
        fill: #ebc4a5;
      }

      .cls-131 {
        fill: #031625;
      }

      .cls-132 {
        fill: #a05a4a;
      }

      .cls-133 {
        fill: #904334;
      }

      .cls-134 {
        fill: #f1cdac;
      }

      .cls-135 {
        fill: #744335;
      }

      .cls-136 {
        fill: #f2f2fa;
      }

      .cls-137 {
        fill: #b0968f;
      }

      .cls-138 {
        fill: #e4c1a5;
      }

      .cls-139 {
        fill: #dfcec4;
      }

      .cls-140 {
        fill: #86848a;
      }

      .cls-141 {
        fill: #debe9d;
      }

      .cls-142 {
        fill: #ecebe9;
      }

      .cls-143 {
        fill: #e5bb9c;
      }

      .cls-144 {
        fill: #be634b;
      }

      .cls-145 {
        fill: #9c8681;
      }

      .cls-146 {
        fill: #1f3045;
      }

      .cls-147 {
        fill: #c76150;
      }

      .cls-148 {
        fill: #f3cfad;
      }

      .cls-149 {
        fill: #040509;
      }

      .cls-150 {
        fill: #f5faf6;
      }

      .cls-151 {
        fill: #02101d;
      }

      .cls-152 {
        fill: #fafafa;
      }

      .cls-153 {
        fill: #d7b69c;
      }

      .cls-154 {
        fill: #f5f4f5;
      }

      .cls-155 {
        fill: #2e3c4c;
      }

      .cls-156 {
        fill: #ded3cf;
      }

      .cls-157 {
        fill: #dccbc3;
      }

      .cls-158 {
        fill: #eabf9d;
      }

      .cls-159 {
        fill: #f2ede8;
      }

      .cls-160 {
        fill: #e28773;
      }

      .cls-161 {
        fill: #8b5243;
      }

      .cls-162 {
        fill: #d3ae91;
      }

      .cls-163 {
        fill: #ddb294;
      }

      .cls-164 {
        fill: #eac2a0;
      }

      .cls-165 {
        fill: #e0b79e;
      }

      .cls-166 {
        fill: #f3f2f1;
      }

      .cls-167 {
        fill: #854235;
      }

      .cls-168 {
        fill: #a49b9d;
      }

      .cls-169 {
        fill: #fdfdfe;
      }

      .cls-170 {
        fill: #ccc3c0;
      }

      .cls-171 {
        fill: #a27460;
      }

      .cls-172 {
        fill: #cd8067;
      }

      .cls-173 {
        fill: #dcb091;
      }

      .cls-174 {
        fill: #e9c4a7;
      }

      .cls-175 {
        fill: #ab9f9f;
      }

      .cls-176 {
        fill: #100d0d;
      }

      .cls-177 {
        fill: #9e5147;
      }

      .cls-178 {
        fill: #c5947a;
      }

      .cls-179 {
        fill: #f3cfab;
      }

      .cls-180 {
        fill: #01040c;
      }

      .cls-181 {
        fill: #d4856a;
      }

      .cls-182 {
        fill: #e3bb9d;
      }

      .cls-183 {
        fill: #e2d2ca;
      }

      .cls-184 {
        fill: #95624d;
      }

      .cls-185 {
        fill: #eeebe7;
      }

      .cls-186 {
        fill: #eaddd5;
      }

      .cls-187 {
        fill: #283848;
      }

      .cls-188 {
        fill: #c5b3ad;
      }

      .cls-189 {
        fill: #d6cbc9;
      }

      .cls-190 {
        fill: #b48570;
      }

      .cls-191 {
        fill: #303f4f;
      }

      .cls-192 {
        fill: #2d3e4e;
      }

      .cls-193 {
        fill: #e88c6c;
      }

      .cls-194 {
        fill: #f9d7b2;
      }

      .cls-195 {
        fill: #e1d4cd;
      }

      .cls-196 {
        fill: #843733;
      }

      .cls-197 {
        fill: #f3efeb;
      }

      .cls-198 {
        fill: #1d2e3e;
      }

      .cls-199 {
        fill: #9a8f90;
      }

      .cls-200 {
        fill: #d7b7a0;
      }

      .cls-201 {
        fill: #f6f5f3;
      }

      .cls-202 {
        fill: #0f2c3e;
      }

      .cls-203 {
        fill: #e5c1a7;
      }

      .cls-204 {
        fill: #beb5b3;
      }

      .cls-205 {
        fill: #e4dfdc;
      }

      .cls-206 {
        fill: #eec7a7;
      }

      .cls-207 {
        fill: #934c3d;
      }

      .cls-208 {
        fill: #f1ccab;
      }

      .cls-209 {
        fill: #f8f8f8;
      }

      .cls-210 {
        fill: #f3d1b5;
      }

      .cls-211 {
        fill: #dab395;
      }

      .cls-212 {
        fill: #e9c0a0;
      }

      .cls-213 {
        fill: #0a0606;
      }

      .cls-214 {
        fill: #fbdab5;
      }

      .cls-215 {
        fill: #9d6a55;
      }

      .cls-216 {
        fill: #e4b893;
      }

      .cls-217 {
        fill: #f0e7de;
      }

      .cls-218 {
        fill: #4f5664;
      }

      .cls-219 {
        fill: #ada3a3;
      }

      .cls-220 {
        fill: #03101c;
      }

      .cls-221 {
        fill: #f2cda9;
      }

      .cls-222 {
        fill: #e2bda2;
      }

      .cls-223 {
        fill: #f2ebe2;
      }

      .cls-224 {
        fill: #02050b;
      }

      .cls-225 {
        fill: #e7be9e;
      }

      .cls-226 {
        fill: #e9dfd6;
      }

      .cls-227 {
        fill: #fefefe;
      }

      .cls-228 {
        fill: #01040d;
      }

      .cls-229 {
        fill: #b5aba9;
      }

      .cls-230 {
        fill: #e6e5e1;
      }

      .cls-231 {
        fill: #702d26;
      }

      .cls-232 {
        fill: #fad7b3;
      }

      .cls-233 {
        fill: #cfc4c2;
      }

      .cls-234 {
        fill: #904e3f;
      }

      .cls-235 {
        fill: #dbaf8f;
      }
    </style>
  </defs>
  <path class="cls-227" d="M303.7,293.7c1.7-.9,3.3-2.1,4.8-3.4,1.7,1.5,3.4,3,5,4.7l.9,1.1c-4.8,3.3-9.5,6.8-14.3,10-4.6,3.3-9.3,6.5-12.8,11-3.2,4.2-3.8,9.7-4.1,14.8-.4,9.5.8,18.9,2.2,28.2,4.3,25.3,13.2,49.8,25.2,72.5,3.8,7.4,9.1,14.1,16,18.7,6.4,4.4,14.1,6.2,21.3,8.9,34.1,11.3,68.2,22.4,102.5,33.1-2.3,9.3-3.6,18.8-6.1,28,2.4,2.2,4.8,4.4,7.1,6.8-.3.8-1,2.5-1.3,3.3.8,1.5,1.5,3,2.3,4.5,2.2.6,4.4.3,6.6.1.8,1.1,1.6,2.3,2.4,3.4.2.3.6.8.8,1.1,2.6,1.6,5.6,1.1,8.4.6,1.2,1.4,2.5,2.8,4,4,2.2.2,4.4-.1,6.5-.6,1.3.7,2.5,1.6,3.9,2.1,1.8,0,3.2-1.4,4.9-1.9.2,0,.6-.2.8-.3.7-.2,2.2-.5,3-.7.8-1.2,1.6-2.4,2.5-3.6,3.2,0,4.9-2.6,6.3-5,.6-.9,1.3-1.8,2.1-2.7.2-.2.7-.5.9-.6.2-.1.7-.4.9-.5,4,2.1,7.3,5.3,11.6,6.7,3.3,1,6.2-3.4,4.3-6.1-2-2.2-4.6-3.7-6.9-5.5-.1-.5-.4-1.6-.5-2.1.5,0,1.7,0,2.2.1,2.2,1.2,4.3,2.4,6.6,3.3.6.6,1.1,1.3,1.6,2,.5.2,1.6.5,2.1.7,3.3-.2,6.2-1.7,9.3-2.8,19.7-7.8,39.4-15.4,59.3-22.7,9-3.7,18.9-6.6,25.8-13.9v.5c0,.5.1,1.4.2,1.9-.7,18.3-.2,36.7.6,55,.1,8,.2,16.1.5,24.1,0,2.6,0,5.1.1,7.7,0,1.7.1,3.4.3,5.1.1,8.4.3,16.7.6,25.1,0,3.6,0,7.3.4,11,.3,6.6,0,13.2.6,19.9-4-.2-8.1-.1-12.1,0-.1,21,0,42.1,0,63.1-.1,9.1,0,18.2,0,27.3-.4,4.3-.3,8.6-.1,13-3.6.6-2.6-3.8-3.5-5.9-1.5-4-5-7.6-9.4-8-5.1-.8-10.5,1.7-13.4,6-1.6,2.2-.9,5.1-1,7.6-2.2,0-4.5-.3-6.6-.7.4-4.3.5-8.6.2-12.9.3-14.4,0-28.9,0-43.3-.2-8,.8-16.1-.6-24-1.1-5.1-.6-10.4-.7-15.6-.1-12.8,0-25.7-.2-38.5-2.5-.8-5-1.7-7.6-2.4-9.4-2.9-19-5.1-28.1-8.6.3-1,.7-2.1,1-3.1-.6,0-1.9-.2-2.6-.2.1-13.3-.2-26.7,0-40-2.8,0-5.5,0-8.2,0,0,13.6.2,27.2,0,40.8-4.1.3-8.2.2-12.2.3,0,2.6,0,5.2.2,7.8-.1,4-.2,8,.1,12-.5,10.4.1,20.9,0,31.4-.3,1.9,1.2,3.2,2.3,4.5.4,12.4.3,24.7.4,37.1,0,7.6-.2,15.1.4,22.7-6.5-.2-13,0-19.5-.2,0-3.8-.2-7.6-.5-11.3-5-.8-10.1-1.7-15.1-2.3.2,13.4.2,26.7.1,40.1-11.8.3-23.6,1.9-35.4,1.8-.6-.9-1.1-1.9-1.5-2.9,0-9.1-1-18.2-1.4-27.3-.4-21.3.6-42.7,0-64-1.3-.2-2.6-.4-3.8-.6-1.3-.2-2.5-.4-3.8-.5,0-2,0-4.1-.1-6.1-1.7-.2-3.5-.5-5.2-.7-6.9-.5-13.9,0-20.9-.1.1,7.4-.1,14.9.2,22.3-4.9,1.3-10.1,1.3-15.1,1.6-1.8,0-3.6.1-5.4.2.4-22.1.3-44.2.1-66.3,3.1-.5,6.1-1.6,8.3-3.8,2.9-.8,6.5-.8,8.3-3.6,1-1.2,2-2.4,3.2-3.4,2-1.4,4.1-3,4.9-5.4.5-1.8.9-3.7,1.3-5.5,6.5-.6,8.3-7.9,8.9-13.2-1.1-9.8-4.1-19.8-10.1-27.8-7.5-4.1-16-5.7-24.1-8.2-20.1-6.2-40.3-12.4-60.4-18.4-13.4-4.3-27.8-9.5-36.5-21.2-11.2-15.3-19.7-32.2-29.7-48.2-.8-1.3-1.7-2.7-2.5-4-12.4-20.5-21.8-43.3-24.4-67.3-1.3-14.4,1.2-31.4,13.5-40.7,1.5-1.2,2.9-2.4,4.4-3.6,13.2-10.6,28.1-18.6,42.8-27Z"/>
  <path class="cls-227" d="M316.7,298c6,5.4,12.9,9.8,20.3,13,5.3,2.2,10.8,4.2,16.6,3.8.2.4.5,1.1.7,1.4,4.8,14.2,9.4,28.6,11.4,43.5l-1.3,1c-.7-2-.4-4.8-2.2-6.2-2.1,0-3.1,2.6-5.3,2.6-7.6.8-14.6,4.1-22,6-4.3,1.7-8.5,3.8-13.1,4.8-2.8-9-5.1-18.4-10.2-26.4-5.6-9.1-13.5-16.8-23.1-21.6,7.6-9.3,19-14.2,28.2-21.8Z"/>
  <path class="cls-227" d="M757.6,643.8c7.7.9,15.8-.2,22.8-3.8.5.3,1.4,1,1.9,1.4.8-.2,1.6-.4,2.4-.6,2.7,1.6,5.1,3.6,7.3,5.9-.6.8-1.1,1.7-1.7,2.5,3.8,6.3,11.6,7.9,15.9,13.6.7.6,1.4,1.2,2.2,1.8-.6,1.8-1.2,3.5-1.7,5.4-2.3,4.7-7.4,8.4-7.2,14-.1,6.8,0,13.7-.5,20.5-1.8,0-3.5,0-5.3,0-1.4,6-1,12.1-1,18.2-1.9,0-3.7-.1-5.6-.2.4,4.2-1.3,8.3-1.1,12.5,0,6.4.1,12.8,0,19.2-.3-17.8-1.1-35.5,0-53.3-11.1,15.5-20.4,32.1-30.5,48.2-.5-2.2-.7-4.5-.8-6.7,1.5-32.9,1.4-65.8,2.8-98.7Z"/>
  <path class="cls-142" d="M308.5,179.9c11.8-10.2,28.6-13.9,43.6-9.9,7.2,1.8,13.6,6,19.7,10.1.8.6,1.6,1.1,2.4,1.7-6.5-.9-13-1.3-19.5-2.6-7.4-1.2-15-1.1-22.1,1.2-8,.5-16.2,1.5-24.1-.5Z"/>
  <g>
    <path class="cls-45" d="M659,175.6c10.7-1.9,21.2,1.6,31.3,4.7.2.3.7,1,1,1.3-7.6-2-15.6-1.5-23.3-1.2-10.1,1.5-19.8,5.6-28,11.6-3.5,2.9-8.4,2.9-12.4,4.7-.6,0-1.9.2-2.6.3,1.3-1.6,2.6-3.2,3.8-4.8,7.6-9,18.5-15.1,30.2-16.6Z"/>
    <path class="cls-45" d="M716.2,450.9c6.2,2.2,12.8,3.9,18.1,7.9l.8.7c-1.5,5.5-5.5,9.8-9.8,13.3-1.7-.7-3.6-1-5-2.1-1.3-2.3-1.8-5-2.7-7.4-1.1-3.5-3.1-6.6-4.7-9.9.9,0,1.8,0,2.7,0,.1-.6.4-1.8.6-2.4Z"/>
  </g>
  <g>
    <path class="cls-84" d="M690.3,180.3c3.3-2.2,10.5-1.7,9.8,3.6,4.7-1.7,8,5.6,3.5,7.9-9.6,6.3-20.9,9.1-31.8,11.9-9.3,2.5-18.9,3.3-28.3,5.4-8.6,1-17.4,2.5-26.1,1s-1.5-.3-2.1-.4c-1.4-2.7-1.4-7.5,2.8-7.1-.3-1.6-1.5-3.4-.4-5,2.5-3.6,7.1-4.7,11.1-5.5-1.3,1.6-2.6,3.2-3.8,4.8.6,0,1.9-.2,2.6-.3,22.1-1.7,44-6,64.9-13.2-.3-.5-.9-1.5-1.2-2-.2-.3-.7-1-1-1.3ZM682.9,194.1c-21.7,6.2-44.2,10-66.8,10.6,1.9.7,4,.5,5.9.3,11.1-.4,22.2-1.1,33.1-3.2,7.2-.5,14-3.1,21.2-3.6,6.3-3.8,14.2-3.2,20.6-6.8,2.1-1,6.3-1.9,5.2-5-5.1,5-12.6,6-19.2,7.8Z"/>
    <path class="cls-84" d="M623.9,221.9c1.4-2.1,2.6-4.4,4.2-6.3.7,1.8-.9,3.1-1.7,4.4-.8.6-1.7,1.3-2.5,1.9Z"/>
  </g>
  <path class="cls-149" d="M296.9,182.2c2.2-1.1,4.5-2.4,7.1-2,1.6.6,3.1,1.6,4.9,1.6,20,1.6,40.1,2.1,60.2,1.8,2.2,0,4.4-.2,6.6-.5-.4-.3-1.1-.8-1.5-1.1-.8-.6-1.6-1.2-2.4-1.7,5,.3,10.2,0,14.9,2.1,2.1.9,1.8,3.5,2.4,5.3,2.7.8,4.6,3.5,3.8,6.4-2,2.7-5.8,2.8-8.8,3.3,2.7,1.3,5.7,0,8.5.4-1.4.4-2.9.7-4.3.8-4.3.3-8.5-1.2-12.8,0-15.9.8-31.8.8-47.6-.1-9.6-.6-19.2-.8-28.7-2.2-2.8-.5-7.2-.6-7.7-4.3-.4-3.5,3.7-5.8,6.6-3.8-1-1.8-1.8-3.8-1-5.9ZM298.8,189.4c16.3,2.9,32.8,2.6,49.3,3,12.1-.3,24.2,0,36.3-.8-5.7-1.1-11.5-.2-17.2-.4-15-.5-30.1.5-45-.8-3.4-.3-6.7-.3-10.1-.4-4.4-.1-8.8-1.6-13.2-.6Z"/>
  <path class="cls-152" d="M640,192c8.2-6.1,17.9-10.1,28-11.6,7.8-.2,15.7-.8,23.3,1.2.3.5.9,1.5,1.2,2-21,7.2-42.9,11.5-64.9,13.2,4-1.8,8.9-1.9,12.4-4.7Z"/>
  <g>
    <path class="cls-86" d="M682.9,194.1c6.6-1.8,14.1-2.8,19.2-7.8,1.1,3.1-3.1,4-5.2,5-6.4,3.6-14.4,3.1-20.6,6.8-7.2.5-14,3.1-21.2,3.6-10.9,2.1-22,2.8-33.1,3.2-2,.2-4,.4-5.9-.3,22.6-.6,45.1-4.3,66.8-10.6Z"/>
    <path class="cls-86" d="M688.5,308.9c1.9,4.9.3,10.2-.9,15-5,17.8-11.9,35-15.5,53.1-2.3,9.3-2.6,18.9-3.4,28.4-5.5,12.3-10,25.1-14.7,37.8-.1-1.1-.3-2.3-.4-3.4-1.1-.6-2.1-1.2-3.2-1.8.6-3.3,1.2-6.6,1.8-9.8.8-4.1,0-8.2-.2-12.4.2,2.5.7,5,1.4,7.4.4-2.1.8-4.2,1.2-6.2.7-3.1,1.5-6.1,2-9.2,4-17,8.8-33.7,14.2-50.3,5.4-15.5,10.7-30.9,16.2-46.4.3-.6,1-1.7,1.3-2.3Z"/>
  </g>
  <path class="cls-36" d="M298.8,189.4c4.4-1,8.8.5,13.2.6,3.4.1,6.7.1,10.1.4,15,1.3,30,.3,45,.8,5.7.3,11.6-.7,17.2.4-12.1.8-24.2.5-36.3.8-16.4-.4-33-.1-49.3-3Z"/>
  <path class="cls-15" d="M671.8,203.7c11-2.8,22.3-5.6,31.8-11.9,0,.6-.2,1.8-.3,2.4-7.1,5.7-16,8.2-24.5,11.1-4.8,1.5-9.6,4-14.7,2.9-5.1-.8-10.1.7-15.1,1.1-1.9,0-3.7-.1-5.6-.2,9.4-2.1,19-2.9,28.3-5.4Z"/>
  <path class="cls-68" d="M299.1,196.1c9.5,1.4,19.1,1.6,28.7,2.2.4.2,1.3.7,1.8.9-3.9.7-7.9,1.2-11.8,1.5-7.5.5-15.2,2.3-22.6.7,1-2,2.1-4,3.9-5.3Z"/>
  <path class="cls-188" d="M375.4,198.4c4.3-1.2,8.5.3,12.8,0-.6,2.2-3.7,1.2-4.6,3.3l-.2-.2c-.7-.2-2-.7-2.7-1-2-.5-4-.7-6-1.1l.7-1.1Z"/>
  <path class="cls-58" d="M329.6,199.2c6.9.2,13.9-.2,20.8.7-4.8,2.9-9.5,6.7-15.3,7.2-3.7,0-4.3-4.6-7-6.2-3.4-.3-6.9-.1-10.3-.2,4-.3,7.9-.8,11.8-1.5Z"/>
  <path class="cls-81" d="M380.8,200.6c.7.2,2,.7,2.7,1-.4,1.8-.9,3.5-1.2,5.3-.4,2.9-1,5.8-1.8,8.7-.6-2.8-3.1-3.4-5.6-3.6-.5-1.7-1.1-3.4-1.6-5.1.6,0,1.8-.2,2.4-.2,1.7.2,3.3.7,4.9,1.1.1-2.4.2-4.8.2-7.2Z"/>
  <g>
    <path class="cls-35" d="M383.4,201.5l.2.2c.9,1.2,1.5,2.7,2.2,4.1l3.4-.4c-1.5,1.1-3.4,1.2-5.2,1,0,.4.1,1.1.2,1.4-.5-.3-1.4-.8-1.9-1.1.3-1.8.7-3.5,1.2-5.3Z"/>
    <path class="cls-35" d="M521,817c36.3-1.3,72.6-1.4,108.9-1.9.7,18,1.2,36,1.5,54-69.5.3-138.9.3-208.4.1-9.2-.1-18.3,0-27.5-.3.1-10.1.1-20.2,0-30.4v-1.2c23.8,1.4,47.7,2.2,71.5,3.7,8,.9,16.1.4,24,1.5-5.7-1.9-11.8-2-17.8-2.9-18-2.6-36.1-4.4-53.9-8.1-3.7-.7-7.4-2-10.3-4.5,7-3.8,15.1-3.9,22.9-4.9,29.6-3.1,59.4-4.2,89.2-5.2Z"/>
  </g>
  <path class="cls-37" d="M389.2,205.5c2.9-1.5,6.1-4.3,9.6-3.2,1.1,2.9-.2,5.9-.8,8.8-2.7,9.2-3.6,18.8-4.2,28.4-.4-.1-1.2-.3-1.7-.4-2.3-4-4-8.3-6.6-12.1.7-5.1,5.2-8.8,4.6-14.1-1.8,0-3.5,0-5.3.3-.2-1.7-.5-3.5-.7-5.2,0-.3-.1-1-.2-1.4,1.8.2,3.7.1,5.2-1Z"/>
  <path class="cls-56" d="M351.9,210c2.1-4,6.8-5.6,11-5.8,4.3.3,8.6,1.2,12.7,2.5-.6,0-1.8.1-2.4.2-4.9,0-10,1.1-12.9,5.3l1.7-.2c-1.9,1.2-3.7,2.5-5.5,3.8l-2.2.9c-.5,2.3-.8,4.7-1.1,7-.7-.4-1.4-.8-2.1-1.1-1.6,1.2-3.2,2.4-4.8,3.5,1.8-5.4,2.9-11.1,5.5-16.1Z"/>
  <path class="cls-101" d="M360.4,212.2c2.9-4.3,8.1-5.3,12.9-5.3.5,1.7,1.1,3.4,1.6,5.1-4.2-.7-8.6-.8-12.8.1l-1.7.2Z"/>
  <g>
    <path class="cls-75" d="M382.3,206.8c.5.3,1.4.8,1.9,1.1.2,1.8.4,3.5.7,5.2-1.3,1.1-2.6,2.3-3.9,3.6,2,3.2,3.1,6.8,4.6,10.2,2.2,5.1,5.5,9.8,6.3,15.3-1.2,1-2.3,2.1-3.5,3.1-3.5-.3-6.8.7-10.1,1.5-1.4-.6-2.2-1.9-3.2-2.9-3.2,1.1-6.5,1.5-9.7,2.6-2.7,1.5-4,4.5-5.7,6.9-4.4-2.4-8.1-5.7-12.1-8.5.6-8.2,5.6-15.4,12.4-19.8,3.9-.1,7.8,1,11.8.7,2.2-1,2.4-3.7,2.5-5.8-5.9-1.4-11.8-.6-17.8-.2,7.1-4.5,15.9-1.8,23.8-2.2,0-.5.2-1.5.2-2,.8-2.8,1.4-5.8,1.8-8.7Z"/>
    <path class="cls-75" d="M641.3,270.2c.8-1.1,3.2-1,3.4.5-.2,1.9-4.5,1.6-3.4-.5Z"/>
  </g>
  <g>
    <path class="cls-103" d="M617.4,210.1c8.7,1.5,17.5,0,26.1-1,1.9,0,3.7.2,5.6.2-5.4,1.3-10.8,2.6-16.4,3.1.9,2.4.3,4.7-2.4,5.6.4-1.3.7-2.6,1.1-3.8-.6-.5-1.2-.9-1.8-1.3-4.3-2.1-9.2-.1-13.8,0,2.6.5,5.1,1,7.7,1.7l.7,1.3c-3.5,1.8-7.7-.7-9.8-3.6l3-2.1Z"/>
    <path class="cls-103" d="M391.4,667.5c.7-2.4,2.1-4.4,4.4-5.3,0,3.9,0,7.8,0,11.7-.2,14.1,0,28.2,0,42.3-.1,25.3-.1,50.7,0,76-.1,15.1,0,30.1-.2,45.2v1.2s-.4-1.4-.4-1.4c.2-5.5.3-11.1-.1-16.6.3-9.8,0-19.6-.2-29.5-.8.9-1.6,1.7-2.4,2.6-.2-1-.5-2-.7-3-6.2-.5-12.5-.8-18.7-1.5-7.6-.8-15.4.9-22.9-1.3-4.4-1.2-9-1-13.5-1.4-.3.5-.9,1.5-1.2,2.1-5.9-3.7-13.9-1.9-19.2-7.1-.2,1.1-.5,2.3-.7,3.5-.3-1.4-.5-2.8-.7-4.2,1.8-25.2,2.5-50.5,2.9-75.8.3-13.1-.4-26.2,0-39.2.6,1.5,1.3,3,1.9,4.5,4.1-.5,8.3,0,12.4.7-.9-.9-1.7-1.8-2.6-2.8,6.8-.7,13.7-2,20.5-1,5.9.9,11.8,1.3,17.7.3,5.6-.9,11.3-.6,16.9-.2.8-1.2,1.7-2.4,2.6-3.4,2.3-.5,3,2.1,4.2,3.5Z"/>
  </g>
  <path class="cls-213" d="M362.1,212.1c4.2-.9,8.5-.8,12.8-.1,2.4.2,5,.8,5.6,3.6,0,.5-.2,1.5-.2,2-7.8.4-16.7-2.3-23.8,2.2,5.9-.4,11.9-1.2,17.8.2,0,2.1-.3,4.8-2.5,5.8-3.9.3-7.8-.8-11.8-.7-1.4-2.2-3.2-4.1-5.1-5.9.5-1.1,1.1-2.2,1.7-3.3,1.8-1.2,3.7-2.5,5.5-3.8Z"/>
  <g>
    <path class="cls-122" d="M615.8,212.7c4.5,0,9.5-2,13.8,0-1.8.3-3.6.8-5.2,1.8l-.9-.2c-2.5-.7-5.1-1.2-7.7-1.7Z"/>
    <path class="cls-122" d="M288.5,319.8c9.6,4.8,17.5,12.5,23.1,21.6,5.1,8.1,7.5,17.4,10.2,26.4,2.5,8.8,5.4,17.5,9.4,25.8,4.1,8.8,9.4,17,15,24.9,10.6,14.7,23.9,27.1,38,38.3,3.2,2.8,6.9,4.9,10.4,7.3.2.2.7.7.9,1-7-2.2-13.7-5.5-20.6-8.1-7.2-2.9-14.3-5.8-21.4-9.1-1.8-6-6.5-10.3-10.2-15.1-1.9-2.4-3.1-5.2-4.4-8-7.5-14.9-15.4-29.8-20.2-45.8-3.4-10.9-5.8-22.2-10.3-32.7-4.4-10-11.5-19-21-24.5.2-.5.6-1.5.8-2Z"/>
  </g>
  <g>
    <path class="cls-201" d="M312.1,218.2c5.4-1.1,10.3-4.3,15.9-4.9.2,2.8-.2,5.6-1.1,8.2h-.6c-7.1,1.5-14.1,3.9-20.8,6.7-2.9,1.1-5,4.1-8.4,4.1-3.9,0-7.5,1.7-11,3.5.6-3.5.9-7.1,2.4-10.4,3.7-2.2,8.3-2,12.4-2.6,2.8-3.2,7.3-3.4,11.2-4.6Z"/>
    <path class="cls-201" d="M801.2,352.4c2.1-.3,4-1.1,5.9-1.9,2.8,3.9,4.4,8.7,4.8,13.5-5.1.6-10.3.6-15.4,1.8-1-4.3-2.3-8.4-3.7-12.6.4-.2,1.2-.5,1.7-.6.2.2.7.6.9.8,1.8-1,3.8-.7,5.8-.9Z"/>
  </g>
  <path class="cls-57" d="M381,216.7c1.3-1.2,2.5-2.4,3.9-3.6,1.7-.3,3.5-.3,5.3-.3.6,5.3-3.9,9.1-4.6,14.1-1.4-3.4-2.6-7-4.6-10.2Z"/>
  <path class="cls-83" d="M605.1,220.9c.2-3.3,2.5-5.7,5-7.4,4.3,2.7,7.7,7.3,13.1,8l-.2,1c-.3,1.5-.6,2.9-.9,4.4-.4,1.7-.2,3.4,0,5,2.2,0,4.5.1,6.7.2l-.8.9c-1.3.2-3.1-.1-3.8,1.3.7,1.8,1.9,3.4,2.9,5.1,3.5,5.6-1.3,12.8,2.6,18.1,1.1.8,2.2,1.7,3.4,2.5.6,7.2,4.8,13.4,5.6,20.5-1.6,3.9,1.3,8.7-2.3,11.8-1.2-1.1-2.5-2.2-3.7-3.3-3.6-8.4-7.3-16.7-10.3-25.4-3.6-10.9-6.5-22-10.4-32.7-1.4-3.9-5.4-6.1-7-9.9Z"/>
  <path class="cls-32" d="M354.4,216.7l2.2-.9c-.6,1.1-1.1,2.2-1.7,3.3,1.9,1.8,3.6,3.7,5.1,5.9-6.8,4.4-11.8,11.6-12.4,19.8-2.3-1.6-4.6-3.3-6.7-5.2,2.1-4.3,3.8-8.8,5.3-13.3l.2-.2c1.6-1.2,3.2-2.3,4.8-3.5.7.4,1.4.7,2.1,1.1.3-2.3.6-4.7,1.1-7Z"/>
  <path class="cls-133" d="M639.4,218.9c3.2-1.2,6.3-2.5,9.7-3,3.4,1.4,5.2,4.9,6.9,7.9-5.3-.5-10.8-1.4-15.9.8-.9-.3-1.8-.7-2.7-1,1-1.4,2.1-2.8,1.9-4.6Z"/>
  <path class="cls-132" d="M626.4,219.9c.6-.5,1.9-1.4,2.6-1.8,2.3,4.3,7,1.7,10.4.8.1,1.8-1,3.2-1.9,4.6.9.4,1.8.7,2.7,1-1.2.8-2.4,1.6-3.5,2.4-.7-.5-1.4-1-2-1.5-.9,1.1-1.9,2.2-2.8,3.3-3-1.6-6.4-1.9-9.7-1.9.3-1.5.6-2.9.9-4.4l.9-.6c.8-.6,1.7-1.3,2.5-1.9Z"/>
  <path class="cls-185" d="M305.4,228.2c6.7-2.8,13.7-5.2,20.8-6.6-.9,3-2,5.9-3.4,8.7h-.4c-2.3.6-4.5,1.5-6.8,2.2-4.9,1.4-10.3,1.8-14.7,4.6-3.8,4.1-8.5,7.3-13.8,9-.8-.7-1.6-1.4-2.3-2.1.4-2.7.8-5.5,1.1-8.2,3.4-1.8,7-3.4,11-3.5,3.3,0,5.4-3,8.4-4.1Z"/>
  <path class="cls-120" d="M605.1,220.9c1.6,3.9,5.6,6,7,9.9,3.9,10.8,6.8,21.9,10.4,32.7-.7,1.8-1.4,3.6-2.2,5.3-.9-1.2-1.8-2.4-2.4-3.8-4.7-11.5-9.7-23-12.5-35.1-.7-3-.5-6-.2-9Z"/>
  <path class="cls-166" d="M717.5,221.2c3.6,5.6,5.3,12,7.4,18.2-2,.7-3.8,1.7-5.2,3.3,4.4,4.7,7.2,10.9,12.6,14.5,2.1,1.3,2,4.2,3.6,6.1,9.5,10.7,22.6,17,34.5,24.6,2.9,1.9,5.8,3.8,8.1,6.4-1.2.7-2.3,1.4-3.4,2.1-1-.3-2.1-.6-3.1-.9-.4,1.5-.8,3-1.1,4.5-3.9-6.1-10.2-10-16.3-13.6-5.7-3.3-11.2-7.1-16.4-11.2-5.5,7.9-13.3,13.8-19.9,20.8-1.7-1-3.3-2-4.9-3.1.1-1,0-2,0-3-2.6-.7-5.7-1.9-6.2-4.9-.4-3-3.1-5-3.3-8-.3-2.6-2.2-4.5-2.8-6.9-.2-3.8.2-7.6-.8-11.2-1.3-6,2.3-11.4,3-17.2.3,0,1-.3,1.4-.4.3-1,.6-1.9.9-2.9,2.2-1,4.3-2.2,6.3-3.7-1-2.2-2.8-4.2-2.9-6.6,2-2.3,4.9-3.3,7.5-4.6.3-.6.8-1.7,1.1-2.3Z"/>
  <path class="cls-176" d="M640.1,224.6c5.1-2.1,10.6-1.2,15.9-.8.8,1.6,1.6,3.2,2.3,4.9-7.4-2-15,.9-22.5,1,.2-.7.6-2,.8-2.7,1.2-.8,2.3-1.6,3.5-2.4Z"/>
  <path class="cls-144" d="M634.5,225.5c.7.5,1.4,1,2,1.5-.2.7-.6,2-.8,2.7,7.5-.1,15.1-3,22.5-1l.9.2-.4.6c-.3.4-1,1.3-1.3,1.7-1-.3-2-.6-3-.9-4.3-1-8.9-.4-12.8,1.6,0-.4,0-1.2,0-1.6-1.4,0-2.9,0-4.3.4-1.4,1.4-2.4,3-3.4,4.7-.5-1.3-1.1-2.5-1.5-3.8-.1-.7-.4-2.2-.5-2.9.9-1.1,1.9-2.2,2.8-3.3Z"/>
  <path class="cls-55" d="M385.6,226.9c2.6,3.8,4.3,8.1,6.6,12.1,1,3-1.3,5-2.9,7.2-1.2,9.6-2.2,19.2-2.3,28.9.2,4.7-2.4,9.6-7.1,11.2-6.4,2.1-13.4.7-19.6-1.5-12.4-5.8-24-14.4-30.8-26.6,4-6,7.9-12.2,11.4-18.5,2.1,1.9,4.3,3.6,6.7,5.2,4,2.9,7.8,6.1,12.1,8.5,1.7-2.4,3-5.4,5.7-6.9,3.2-1.1,6.5-1.5,9.7-2.6,1,1,1.8,2.3,3.2,2.9,3.3-.8,6.6-1.8,10.1-1.5,1.2-1,2.3-2.1,3.5-3.1-.8-5.6-4-10.3-6.3-15.3ZM367,257.6c6-.5,12.1.3,18.1-.2-.4-1.6-1.3-3.1-3.2-3-3.6-.4-7.3-.8-11-.5-2.1,0-2.8,2.4-4,3.7ZM366.9,258.4c0,2-.6,4.3.8,6,1.6,2.2,4.2,3.1,6.7,3.7.5-2.3-.8-4.1-2.2-5.7,3.3,0,6.7,1,10,.6,2.2-.3,2.8-2.6,3.5-4.4-6.2.1-12.5-.3-18.7-.2Z"/>
  <path class="cls-64" d="M622.1,226.9c3.3,0,6.7.3,9.7,1.9.1.7.4,2.2.5,2.9-1.2.1-2.4.3-3.5.4-2.2,0-4.5,0-6.7-.2-.2-1.7-.4-3.4,0-5Z"/>
  <path class="cls-205" d="M315.8,232.5c2.2-.7,4.4-1.6,6.8-2.1-2.6,6-6,11.6-9.4,17.2h-.4c-6.8-.4-12.6,4-18.7,6.4-3,4.8-5.1,10.1-8,15.1-1.5,2.8-3.1,5.5-4.7,8.2-1,1.7-2.1,3.3-3.1,4.9.3-4.4,1.5-8.5,2.3-12.8,1.5-8.5,3.1-16.9,4.5-25.4.8.7,1.5,1.4,2.3,2.1,5.4-1.7,10.1-4.9,13.8-9,4.4-2.8,9.8-3.2,14.7-4.6Z"/>
  <path class="cls-54" d="M637.1,230.8c1.4-.4,2.9-.3,4.3-.4,0,.4,0,1.2,0,1.6,0,.5-.2,1.5-.3,2,1,.8,1.9,1.7,2.9,2.5,3.6,3.5,9.2,2.2,13.1,5.3,5.3,3.8,7.9,10.2,7.9,16.6-1,1.8-2,3.6-3,5.3-1.6-3-2.8-7-6.4-8.1-3.1-.9-6.4-.4-9.6-.7-.3-.4-.9-1.1-1.2-1.5-.3-.4-.8-1.1-1.1-1.4-1.2,0-2.4.1-3.6.2.1.8.4,2.6.5,3.4-.6.3-1.7,1-2.3,1.3-2.8,1-5.8.9-8.8.5-.3-2.6-.9-5.2-.1-7.7,1.4-4.7,2.6-9.5,4.2-14.2,1-1.7,2-3.3,3.4-4.7Z"/>
  <path class="cls-109" d="M641.5,231.9c3.9-2,8.5-2.5,12.8-1.6,0,.7-.1,2.1-.2,2.7-3.2,1.5-6.8,2-10.1,3.3-1-.8-1.9-1.7-2.9-2.5,0-.5.2-1.5.3-2Z"/>
  <path class="cls-7" d="M654.4,230.4c1,.3,2,.6,3,.9.3-.4,1-1.3,1.3-1.7,3.3,7.9,6.3,15.9,9,24-.9,1.6-1.8,3.1-2.7,4.7,0-6.4-2.6-12.8-7.9-16.6-3.8-3-9.5-1.7-13.1-5.3,3.3-1.3,6.9-1.8,10.1-3.3,0-.7.1-2.1.2-2.7Z"/>
  <path class="cls-21" d="M628.8,232.1c1.2-.1,2.3-.3,3.5-.4.4,1.3,1,2.5,1.5,3.8-1.6,4.7-2.8,9.5-4.2,14.2-.8,2.5-.2,5.2.1,7.7-3.9-5.3.9-12.5-2.6-18.1,2.8-1,5.3-2.8,5.2-6.1-1.4-.1-2.9-.2-4.3-.3l.8-.9Z"/>
  <path class="cls-98" d="M624.2,234.2c.8-1.4,2.5-1,3.8-1.3,1.4,0,2.9.2,4.3.3,0,3.3-2.4,5.1-5.2,6.1-1-1.7-2.2-3.2-2.9-5.1Z"/>
  <path class="cls-114" d="M392.2,238.9c.4.1,1.2.3,1.7.4-1.2,14.5-.6,29-.5,43.6,0,10.4-1,21-4.8,30.8-2.3,5.9-4.9,11.8-7.8,17.5-4.7-2.9-8.9-6.4-13.5-9.3-3.6-2.2-6.7-5.3-10.8-6.8-.4-.3-.9-.6-1.3-.8-.2.5-.6,1.5-.8,2-.2-.4-.5-1.1-.7-1.4,2.8-6.5,3.1-13.7,4.6-20.5.8-3.2,1.6-6.4,2.1-9.6,6.2,2.2,13.2,3.5,19.6,1.5,4.6-1.5,7.3-6.5,7.1-11.2.1-9.7,1.2-19.3,2.3-28.9,1.6-2.2,3.8-4.2,2.9-7.2Z"/>
  <path class="cls-230" d="M719.7,242.6c1.4-1.5,3.2-2.5,5.2-3.3,1.9,6.1,5,11.8,7.4,17.8-5.4-3.6-8.2-9.8-12.6-14.5Z"/>
  <path class="cls-170" d="M294,254c6.1-2.4,11.9-6.8,18.7-6.4-3.6,6.5-7.8,12.7-11.9,18.8h-.3c-1.7,0-3.3.5-4.9,1.2,0-.3-.2-1-.2-1.3-3,1.3-6.2,2.2-9.4,2.8,2.9-4.9,5-10.2,8-15.1Z"/>
  <path class="cls-25" d="M640.2,252.1c1.2-.1,2.4-.2,3.6-.2.3.4.8,1.1,1.1,1.4-1.3.9-2.5,1.8-3.7,2.8-.7.2-2,.6-2.7.8.6-.3,1.7-1,2.3-1.3-.1-.9-.4-2.6-.5-3.4Z"/>
  <path class="cls-9" d="M367,257.6c1.1-1.3,1.9-3.7,4-3.7,3.7-.3,7.3,0,11,.5,1.8,0,2.7,1.4,3.2,3-6,.5-12.1-.3-18.1.2Z"/>
  <path class="cls-44" d="M641.2,256.1c1.2-1,2.4-1.9,3.7-2.8.3.4.9,1.1,1.2,1.5,3.2.3,6.5-.2,9.6.7,3.6,1.2,4.8,5.1,6.4,8.1,1-1.8,2-3.5,3-5.3.9-1.6,1.8-3.2,2.7-4.7,2.7,6.5,5.5,12.9,7.7,19.6-4.5,6.4-10.9,11-17.9,14.2-4.6,1.9-10.3,3.9-15,1-2.9-1.5-3.3-5.1-3.9-8-.8-7.1-5-13.4-5.6-20.5-1.2-.8-2.3-1.6-3.4-2.5,2.9.4,5.9.5,8.8-.5.7-.2,2-.6,2.7-.8ZM639.7,259.9c1.2.7,2.4,1.3,3.7,2-2.5.5-5,.9-7.5,1.2.6,1.6,1.3,3.1,2,4.6h-.3c1.2.4,2.5.7,3.7,1-.6.2-1.8.6-2.4.8.4,1.1.8,2.2,1.2,3.3,1.5,0,3,.1,4.5-.3,1.3-1,2.3-2.3,3.6-3.3,2.5-1.1,5.2-.7,7.9-.5.2-1.5-.1-3-.7-4.4.1-.2.4-.6.5-.8h-.5c-1.1-4.7-6.8-2.7-10.1-2.1.4-.8.8-1.5,1.2-2.3-2.3-1.6-4.9-1.2-6.8.7Z"/>
  <path class="cls-196" d="M310.2,280.2c6.4-7.4,13.7-13.9,19.3-22,6.8,12.2,18.4,20.8,30.8,26.6-.5,3.2-1.3,6.4-2.1,9.6-7.9-5.3-15.3-11.4-22-18.2-7.4,4.6-16.3,6.3-24.9,5.9-.3-.5-.8-1.4-1.1-1.8Z"/>
  <path class="cls-102" d="M639.7,259.9c2-1.9,4.5-2.3,6.8-.7-.4.8-.8,1.5-1.2,2.3-.6.2-1.3.3-1.9.4-1.2-.7-2.5-1.3-3.7-2Z"/>
  <path class="cls-160" d="M366.9,258.4c6.2,0,12.5.4,18.7.2-.7,1.8-1.3,4.1-3.5,4.4-3.3.4-6.6-.6-10-.6,1.4,1.6,2.8,3.4,2.2,5.7-2.5-.6-5.1-1.5-6.7-3.7-1.4-1.7-.8-4-.8-6Z"/>
  <path class="cls-136" d="M645.3,261.4c3.3-.6,9-2.6,10.1,2.2-5.8,1.5-11.5,3.3-17.5,4.1-.7-1.5-1.4-3.1-2-4.6,2.5-.4,5-.8,7.5-1.2.6-.1,1.3-.3,1.9-.4Z"/>
  <g>
    <path class="cls-78" d="M655.5,263.7h.5c-.1,0-.4.4-.5.6-.3.4-.9,1.4-1.2,1.8-2.5.2-4.9.9-7,2.2-1.9,0-3.9,0-5.8.4-1.2-.3-2.5-.7-3.7-1h.3c6-.8,11.7-2.7,17.5-4.1Z"/>
    <path class="cls-78" d="M462.7,533c1.7-1.4,3.4-2.7,5.3-3.9-.9.9-1.9,1.8-2.8,2.7-1.3,1.1-2.6,2-4,3,0,1.5.2,3,.3,4.5-.8-1.1-1.6-2.3-2.4-3.4-2.2.2-4.5.4-6.6-.1,2.6-.2,5.2-.2,7.8-.3l1.6-1.8c.2-.2.7-.5.9-.7Z"/>
    <path class="cls-78" d="M395.9,534.7c5.1.9,10.2,1.7,15.3,1.7.5,7.3,7.2,11.1,11,16.5,2.9,4.5-2.4,8.6-2.8,13.2-.1-.6-.3-1.6-.4-2.2-1.9,2.8-4,5.4-5.5,8.4-.8,3.6-.8,7.4-1.3,11-.5-3.2-.4-6.5-.2-9.7-1.6.4-3.2.8-4.8,1.1-3.9-.2-6.5,2.5-9,5.1-.7-1.4-1.5-2.9-2.1-4.3.2-13.6,0-27.2,0-40.8Z"/>
  </g>
  <path class="cls-17" d="M622.5,263.6c3,8.6,6.7,17,10.3,25.4,2.8,7.2,4.7,15,3.4,22.7-2.2-3.6-2.5-7.9-3.8-11.8-3.3-10.5-8.5-20.2-12.3-30.5l.2-.5c.9-1.7,1.6-3.5,2.2-5.3Z"/>
  <g>
    <path class="cls-20" d="M654.2,266.1c.3-.5.9-1.4,1.2-1.8.6,1.4.9,2.9.7,4.4-2.6-.2-5.4-.5-7.9.5-1.3,1-2.3,2.3-3.6,3.3-1.5.4-3,.2-4.5.3-.4-1.1-.8-2.2-1.2-3.3.6-.2,1.8-.6,2.4-.8,1.9-.4,3.9-.4,5.8-.4,2.1-1.4,4.5-2.1,7-2.2ZM641.3,270.2c-1,2.1,3.2,2.5,3.4.5-.2-1.6-2.6-1.7-3.4-.5Z"/>
    <path class="cls-20" d="M948.8,724.6c4-2.4,8.9-2.1,13.3-1,6.2,1.2,12.2,3.3,18.5,3.9,0,9.9-.1,19.9,0,29.9h-.1c-11.2-.2-22.4.2-33.5,0-.4-5.2,1.4-11-1.7-15.6-.2-1.8-.3-3.7-.5-5.5v-.9c-2.2-.4-4.2-.8-6.2-1.1,0-1.1,0-2.2,0-3.4-.5-.5-1.1-1-1.6-1.5,3.5-.2,7-.4,10.4-1.1.7-1.2,1-2.5,1.4-3.7Z"/>
  </g>
  <path class="cls-204" d="M286,269c3.2-.5,6.4-1.4,9.4-2.8,0,.3.2.9.2,1.3,1.6-.7,3.2-1.1,4.9-1.2-2.6,4.5-5.9,8.7-8.8,13.1h-.2c-3.3-1.8-7.2,0-10.3-2.3,1.6-2.7,3.2-5.4,4.7-8.2Z"/>
  <path class="cls-115" d="M675.5,273.1c3.4,8.6,6.6,17.2,9.9,25.8-7.3,3.5-14.9,6.9-22.9,8.5-1.9-6.6-2.9-13.5-4.9-20,7-3.2,13.4-7.9,17.9-14.2Z"/>
  <path class="cls-113" d="M738.2,275.2c5.2,4.1,10.6,7.9,16.4,11.2-1.2.3-2.4.6-3.7.8-7-1.8-14.8-1.3-21.1,2.7-13.2,8.3-20.9,23.2-23.4,38.2-1.7,9.2-1.7,18.7-3.7,27.9-.9,5.6-3.3,10.9-4.6,16.4-2.9,10.9-1.5,22.2-2.5,33.3-.8-.7-1.7-1.4-2.5-2.1-5-4-9.6-9.8-8.6-16.6.5-8.8,6.7-15.6,13.5-20.5-2.7-2.6-6.7-5.3-6.1-9.6,1.1-3.5,4.5-5.7,5.9-9.1,3.5-7.9,3.7-16.7,5.9-24.9,2.3-10.1,7.1-19.7,14.5-27,6.6-7,14.4-12.8,19.9-20.8Z"/>
  <path class="cls-14" d="M311.3,282c8.6.4,17.5-1.2,24.9-5.9,6.7,6.8,14.1,12.9,22,18.2-1.5,6.8-1.8,14-4.6,20.5-5.8.4-11.4-1.6-16.6-3.8-7.4-3.2-14.3-7.6-20.3-13-1.1-1-2.2-2-3.3-3-1.6-1.7-3.2-3.2-5-4.7.3-1.1.5-2.2.8-3.3.4-2.2.7-4.4,1-6.6v-.3s0,0,0,0c.3.5.8,1.4,1.1,1.8Z"/>
  <path class="cls-229" d="M278.1,282.2c1-1.7,2.1-3.3,3.1-4.9,3.1,2.2,7.1.5,10.3,2.2-4.9,7.8-10.6,15-16,22.4-1.7-1.2-3.3-2.3-5-3.5-1.5,1.4-3.1,2.8-4.7,4,3.5-7.1,8.5-13.3,12.2-20.2Z"/>
  <path class="cls-8" d="M294.7,294.5c5-4.8,9.6-10.3,15.5-14-.2,2.2-.5,4.4-1,6.6-4.5,3-8.8,7.4-14.5,7.4Z"/>
  <path class="cls-51" d="M636.4,292.2c3.6-3.2.7-7.9,2.3-11.8.6,2.8,1,6.5,3.9,8,4.7,2.8,10.4.9,15-1,2,6.6,3,13.4,4.9,20,.4,2.5.4,5.1,0,7.6-2.2,12.2-3.9,24.6-5.2,36.9-.9,8.6-1.4,17.2-1.8,25.8-1,11.4-1.1,22.8-1.7,34.2-.2,1.8.3,3.5,1,5.1-.4,2.1-.8,4.2-1.2,6.2-.6-2.4-1.2-4.9-1.4-7.4,0-33.7,1.8-67.5,8-100.7.4-2.5.8-5,1.2-7.5-3.8,1.2-7.9,2.2-11.2,4.5-1.4.8-1.5,2.6-1.8,3.9-.2,1.4-.4,2.8-.6,4.2-.7-.8-1.4-1.7-2-2.5-3.2.7-6.4,1.1-9.7,1.6-.4-2.6-.2-5.2.2-7.7,1.4-7.7-.6-15.5-3.4-22.7,1.2,1.1,2.4,2.2,3.7,3.3Z"/>
  <path class="cls-76" d="M729.8,289.9c6.3-4,14-4.5,21.1-2.7,6.9,2.8,13.9,6.4,18,12.8.8,1.1.7,2.5.9,3.8-4.4-5.4-10.6-10.1-17.8-10.3-8.2-.3-15.7,4.4-20.8,10.5-7.2,8.3-11.8,18.7-13.9,29.5-1.5,6.9-2.1,13.9-2.4,20.9-2.9-11.2,1.5-22.4,3.1-33.4-1.2,2-2.3,3.9-3.5,5.9-.7-.4-1.3-.7-2-1-.3.1-.9.3-1.2.5-.3-1.2-.5-2.3-.8-3.4-1.4,1.6-2.3,3.5-3,5.6l-1.1-.3c2.5-15.1,10.2-29.9,23.4-38.2Z"/>
  <path class="cls-88" d="M754.5,286.4c6.1,3.6,12.4,7.4,16.3,13.6,1.8,2.5,2.8,5.4,3.3,8.4l-2-.4c-.9-1.3-1.6-2.7-2.4-4-.1-1.3,0-2.7-.9-3.8-4.1-6.4-11.1-10-18-12.8,1.2-.2,2.4-.5,3.7-.8Z"/>
  <path class="cls-137" d="M294.7,294.5c5.7,0,10-4.4,14.5-7.4-.2,1.1-.5,2.2-.8,3.3-1.4,1.3-3.1,2.4-4.8,3.4-14.6,8.4-29.6,16.3-42.8,27,.7-3.1,3.7-4.6,5.8-6.6,9-6.9,19.6-11.6,27.7-19.6h.3Z"/>
  <path class="cls-220" d="M731.1,304c5.2-6,12.6-10.7,20.8-10.5,7.2.2,13.4,4.9,17.8,10.3-4.2-1.8-8.6-4.2-13.4-3.4-8.4.4-15.4,6.5-19.4,13.5-2.9,4.7-3.9,10.2-5,15.6-1.7,6.9-.1,14.1-.3,21.2-.9-.5-1.7-.9-2.6-1.4,0,1,.1,2,.2,2.9,1.3.4,2.6.7,3.9,1.1-1,.6-2,1.1-3,1.7.6,2.8,1.7,5.4,3,7.9,1.6,2.8.6,6.1.3,9.1-1-.7-2.1-1.4-3.1-2.1,1.6,3.6,2.7,7.5,1.7,11.5-5.1-10.7-8.4-22.1-12-33.4-1.7-4.7-.3-10-2.7-14.6,2-10.8,6.7-21.2,13.9-29.5Z"/>
  <path class="cls-60" d="M313.4,295c1.1,1,2.2,2,3.3,3-9.2,7.5-20.5,12.4-28.2,21.8-.2.5-.6,1.5-.8,2-2.6,7.1-2,14.8-1.7,22.2,2.7,30.8,12.5,60.8,27.1,88,4.5,8.4,11.3,15.8,20.1,19.8,6.4,2.8,13.2,4.9,19.9,7.2,32.8,10.8,65.6,21.4,98.6,31.6.2.6.4,1.8.6,2.3-.5.1-1.4.3-1.9.4-34.3-10.7-68.4-21.8-102.5-33.1-7.2-2.6-14.9-4.5-21.3-8.9-6.9-4.6-12.2-11.4-16-18.7-12-22.7-20.9-47.1-25.2-72.5-1.5-9.3-2.7-18.8-2.2-28.2.3-5.1.8-10.6,4.1-14.8,3.5-4.5,8.2-7.7,12.8-11,4.9-3.2,9.5-6.7,14.3-10l-.9-1.1Z"/>
  <path class="cls-219" d="M270.6,298.4c1.7,1.1,3.3,2.3,5,3.5-3,4.1-6.1,8-8.9,12.2-2.1,2-5.1,3.5-5.8,6.6-1.5,1.2-2.9,2.4-4.4,3.6-.6-.3-1.9-.9-2.5-1.2,3.5-7.1,7.2-14.3,11.9-20.7,1.6-1.3,3.2-2.6,4.7-4Z"/>
  <path class="cls-91" d="M662.4,307.4c8-1.6,15.6-4.9,22.9-8.5,1.1,3.3,2,6.7,3.2,9.9-.3.6-1,1.7-1.3,2.3,0-.5.1-1.6.1-2.1-8.2,2.4-16.4,5.1-24.9,5.9.4-2.5.4-5.1,0-7.6Z"/>
  <path class="cls-202" d="M756.3,300.4c4.8-.8,9.2,1.6,13.4,3.4.8,1.4,1.5,2.7,2.4,4,.2.3.6.9.8,1.2l-.2.3c-.3.5-.9,1.5-1.2,2,.5,5.6-.7,11.2.6,16.7,1.3,5.2,1.3,10.7,1.9,16,.5,4-.5,7.9-1.2,11.9-.5,2.9.1,5.9-.2,8.8-.5,2.8-2,5.2-3.3,7.6.5,2.4,1.2,4.7,1.9,7.1-1.3-.3-2.6-.5-3.8-.8-.2,1.5-.5,3-.6,4.5-.4.2-1.2.5-1.5.6.5.8,1,1.6,1.5,2.4-.5-.1-1.6-.4-2.1-.5-.4-1.4-.7-2.8-1-4.1-12.8-4.1-21.6-15.4-27-27.1-3.5-7.8-4.5-16.4-4.7-24.9,1.2-5.3,2.2-10.8,5-15.6,4-7,10.9-13.2,19.4-13.5ZM752,320c-3.9,6.5-5.5,14.5-4.3,22,.7,4.9,1.7,10,4.8,14,2.3-6.9,3.2-14.2,2.9-21.5.4,0,1.3,0,1.7,0-.3-1.2-.4-2.4-.6-3.5,2.3-2.5,1.6-6,1.8-9,0-2.4.9-4.8,1.5-7.1-3.6-.4-6.1,2.4-7.8,5.2Z"/>
  <path class="cls-178" d="M111.5,304.8c.4,8.4.9,16.7.8,25.1,0,19.8.9,39.7.4,59.5-1.3,5.7-.3,11.6-.7,17.3-.7,0-1.9.1-2.6.2-.3-10.3.8-20.7.7-31,.5-17.6,1.1-35.3,1.3-52.9.4-6.1-.5-12.1,0-18.2Z"/>
  <path class="cls-117" d="M650.1,312.1c3.4-2.3,7.4-3.2,11.2-4.5-.4,2.5-.8,5-1.2,7.5-3.9.5-7.9.8-11.8.9.3-1.4.5-3.1,1.8-3.9Z"/>
  <g>
    <path class="cls-105" d="M662.4,315c8.5-.8,16.7-3.5,24.9-5.9,0,.5-.1,1.6-.1,2.1-5.5,15.4-10.8,30.9-16.2,46.4-.5-1.8-1-3.7-1.5-5.5-.3,1.2-.5,2.4-.8,3.6-1.9-2.2-4.3-3.7-7.3-3.3-.6-1.2-1.1-2.5-1.6-3.7-.3,1.8-.6,3.5-.9,5.2-.4-.5-1.3-1.5-1.7-2,1.3-12.4,3-24.7,5.2-36.9Z"/>
    <path class="cls-105" d="M648.3,316.1c3.9,0,7.9-.4,11.8-.9-6.2,33.2-7.9,67-8,100.7,0,4.1.9,8.3.2,12.4-.6,3.3-1.2,6.6-1.8,9.8-.4,2.2-.8,4.3-1.1,6.5-3-20.1-3.4-40.4-4.2-60.6-.3-21.2,0-42.6,2.4-63.7.2-1.4.4-2.8.6-4.2Z"/>
  </g>
  <path class="cls-107" d="M771.5,311.4c.3-.5.9-1.5,1.2-2,3.1,5.6,5.6,11.6,7.1,17.8,5.7,22.8,5.9,46.5,9,69.7,1.8,17.1,5.8,33.8,8.9,50.6-1,4.9.2,9.8,1,14.6,1.2,13.2,2.1,26.6.5,39.9-1.1,8.1-1.2,16.4-2.8,24.4-1.7,8.7-1.7,17.6-3.6,26.2-1.2,5.8.6,11.6,0,17.4-.4,4.2-1.1,8.4-1.9,12.6-12.4-.4-24.6-3.2-37-3.1,5.4-37.8,11.3-75.6,16.9-113.4,1.1-7,.2-14.1-.2-21.1-.3-3.7.5-7.6-.4-11.3-.8-2.2-3.7-1.4-5.2-.6-3.6,1.6-5.5,6-4.9,9.8.7,1.5,1.8,2.9,2.8,4.3-1.6,2.9-4.1,5.8-3.5,9.4.6,3.4-1.8,6.2-2.3,9.4.9,2.4,3.7,4.1,3.3,6.9-4.5,17.2-4.7,35.1-7.3,52.6-.8-2-1.6-4.1-1.5-6.3.1-9.4,1.9-18.7,2-28,0-9.7,0-19.4.1-29.1.1-2.6-1.7-4.7-2.5-7,.5-3.4,2.9-6.4,2.5-9.9,0-3.7-3.3-5.9-5-8.8-1-3.6-.6-7.6-1.9-11.2-4.8-14.6-9.6-29.3-15-43.7,1-4,0-7.9-1.7-11.5,1,.7,2,1.4,3.1,2.1.2-3,1.2-6.3-.3-9.1-1.2-2.5-2.3-5.2-3-7.9,1-.6,2-1.1,3-1.7-1.3-.4-2.6-.7-3.9-1.1,0-1-.1-2-.2-2.9.8.4,1.7.9,2.6,1.4.2-7-1.5-14.2.3-21.2.3,8.5,1.2,17.1,4.7,24.9,5.4,11.8,14.2,23,27,27.1.3,1.4.6,2.8,1,4.1.5.1,1.6.4,2.1.5-.5-.8-1-1.6-1.5-2.4.4-.2,1.1-.5,1.5-.6.2-1.5.4-3,.6-4.5,1.3.2,2.5.5,3.8.8-.7-2.4-1.4-4.7-1.9-7.1,1.3-2.5,2.8-4.9,3.3-7.6.3-2.9-.4-5.9.2-8.8.7-3.9,1.7-7.9,1.2-11.9-.7-5.3-.7-10.8-1.9-16-1.2-5.5,0-11.1-.6-16.7Z"/>
  <path class="cls-77" d="M355.1,314.2c.4.3.9.6,1.3.8,6.9,18.1,12,37.1,13.7,56.4,1.3,14.6,2,29.2,1.9,43.8-.2,7.2,0,14.5-.2,21.7-.7,0-2.2.2-3,.3-.4-15.2.6-30.4-.4-45.5-.2-5-.4-10.1-.8-15.1-.4-5.7-1-11.3-2-16.9-2.1-14.9-6.6-29.3-11.4-43.5.2-.5.6-1.5.8-2Z"/>
  <path class="cls-48" d="M752,320c1.7-2.7,4.2-5.6,7.8-5.2-.6,2.4-1.4,4.7-1.5,7.1-.2,3.1.5,6.6-1.8,9,.2,1.2.4,2.4.6,3.5-.4,0-1.3,0-1.7,0,.3,7.3-.6,14.6-2.9,21.5-3.1-4-4.1-9.1-4.8-14-1.2-7.5.3-15.5,4.3-22Z"/>
  <path class="cls-140" d="M636,319.3c3.2-.4,6.5-.8,9.7-1.6.7.8,1.3,1.7,2,2.5-2.4,21.1-2.7,42.4-2.4,63.7l-.7-.9c1-7,.2-14,.2-21-.2-5.3.7-11.4-3-15.8-1.2-1.8-3.5-1.7-5.4-2.1-.3,1.3-.5,2.6-.8,3.9-.3-2.1-.7-4.2-.9-6.3.2-3.3.3-6.6.4-9.9.4-3.4,1.3-7.1-.5-10.2.4-.7.9-1.4,1.3-2.2Z"/>
  <path class="cls-96" d="M714.5,326.9c1.2-1.9,2.3-3.9,3.5-5.9-1.5,11-5.9,22.2-3.1,33.4,0,4.1,0,8.1,0,12.2-2.7,7.2.8,14.6-.4,21.8-1.2-3.6-1.7-7.3-1.9-11.1-1.5,2.1-3.2,4.1-5,6.1-1.4-.7-2.7-1.5-4.1-2.2-1.5,1.3-2.8,2.6-4.1,4.1-2.1-4-.8-8.6-1.3-12.9,1.3-5.5,3.7-10.8,4.6-16.4,2-9.2,2-18.6,3.7-27.9l1.1.3c.6-2,1.6-3.9,3-5.6.2,1.1.5,2.3.8,3.4.3-.1.9-.4,1.2-.5.7.3,1.3.7,2,1Z"/>
  <path class="cls-30" d="M631.8,323.5c.9-.8,1.8-1.5,2.9-2,1.7,3.2.8,6.8.5,10.2-.5,1.5-1.1,2.9-1.7,4.4-.7-1.7-1.3-3.4-1.9-5.1-.3,1.8-.6,3.5-.9,5.3-.3-.6-.8-1.8-1-2.4.4-3.5,1.1-7,2.2-10.4Z"/>
  <path class="cls-29" d="M253.9,323.1c.6.3,1.9.9,2.5,1.2-12.3,9.4-14.8,26.3-13.5,40.7,2.6,24,12.1,46.8,24.4,67.3-1.6,7.7-.2,15.6-.9,23.4-.8,8.6.3,17.4-1.4,26-4.7-8.7-7.5-18.2-10.2-27.7-5-18.9-10.4-37.8-13.5-57.2-1.1-6.5-1.4-13.2-2-19.8-1.7-15.1-1.4-31.3,6.9-44.6,2-3.5,5.3-6,7.6-9.3Z"/>
  <path class="cls-80" d="M622.6,341.4c.7-6.8,3.9-13.4,9.2-17.9-1.1,3.4-1.8,6.9-2.2,10.4-1.6,9.8-2.9,19.7-3.8,29.7-1.9-3.6-2.3-7.7-2.3-11.7,0-3.5,1.2-7.2-.9-10.4Z"/>
  <path class="cls-175" d="M779.9,327.2c1.5.1,3.2.4,3.8,2.1,3.9,7.6,6.3,15.8,9.1,23.9,1.4,4.2,2.7,8.3,3.7,12.6,5.2,18.1,7.5,36.8,9.1,55.4,1.4,10.8,2.8,21.7,5.9,32.2,2.1,7.5,6.9,13.9,7.9,21.7,1.3,9.3-2.5,18.2-4.8,27-3.5,13.8-8.2,27.6-16.2,39.5-.7,1-1.6,1.8-2.4,2.7,1.2-18.5,5.4-36.6,5.4-55.2.1-13.9-1.1-27.9-3.8-41.5-3.1-16.8-7.1-33.6-8.9-50.6-3.1-23.2-3.3-46.9-9-69.7Z"/>
  <path class="cls-218" d="M631.5,331.1c.6,1.7,1.3,3.4,1.9,5.1.6-1.5,1.2-2.9,1.7-4.4-.1,3.3-.2,6.6-.4,9.9-1.2,11.4-.3,22.9.7,34.4.4-1.2.8-2.4,1.2-3.6,1.9,2,4,3.9,5.6,6.2.9,3.4.8,6.9,1.1,10.4.4-2,.8-4,1.2-6l.7.9c.7,20.2,1.2,40.6,4.2,60.6-.6,4-1.1,8.1-1.8,12.1-.1,1.3-1,2.2-1.7,3.2-.4-1.8-.8-3.6-1.1-5.4-4.5-22-8.3-44.2-10-66.7.3-5.6-.5-11.1-1.3-16.6-.5.9-.9,1.9-1.4,2.9-1.3-2.9-3.9-4.4-6.8-5.3.1-1.8.3-3.5.4-5.2.9-9.9,2.2-19.8,3.8-29.7.3.6.8,1.8,1,2.4.3-1.8.6-3.5.9-5.3Z"/>
  <g>
    <path class="cls-228" d="M717.2,333.5c2.4,4.5,1,9.8,2.7,14.6,3.6,11.2,6.9,22.7,12,33.4,5.4,14.4,10.2,29,15,43.7,1.2,3.6.9,7.5,1.9,11.2,1.7,2.9,5,5.1,5,8.8.4,3.5-1.9,6.5-2.5,9.9.8,2.4,2.6,4.4,2.5,7-.2,9.7,0,19.4-.1,29.1,0,9.4-1.9,18.7-2,28-.1,2.2.8,4.3,1.5,6.3-1.5,13.3-2.8,26.6-4.2,40-1.4-2.2-2.9-4.6-2.8-7.3,0-8.6-1.5-17.2-2.7-25.7-1.2-7.8-2.4-15.7-4.5-23.3-1.9-7-2.4-14.5-6.2-20.8-3.7-4.4-10.2-2.6-14.4,0-10.5,7.4-20.8,16.8-24.6,29.6-3.6,10.4-3.3,21.5-2,32.2-3.6-5.6-7-11.4-10.7-17-2.2-5.5-1.7-11.7-.2-17.2,4-13.9,14.1-25.5,26.7-32.4,5.9-3.6,12.4-6.5,17.9-10.7,4.3-3.5,8.3-7.8,9.8-13.3.2-7.4-2.4-14.4-4.4-21.3-5.4-18.2-12.3-36.1-14.5-55-.8-5.5-1.2-11-1.5-16.6,0-4.1,0-8.1,0-12.2.3-7,.9-14,2.4-20.9Z"/>
    <path class="cls-228" d="M798.8,462.1c-.8-4.8-2-9.7-1-14.6,2.6,13.7,3.9,27.6,3.8,41.5,0,18.6-4.2,36.7-5.4,55.2-.4,5.7-.5,11.4-1.1,17-.6,9.7-1.7,19.3-3.3,28.9-1.6-.2-3.2-.3-4.8-.5-11-2.3-21.9-5.5-33-7.6-.9.9-1.1,2.2-1.6,3.4-1.6,4.9-5.7,8.4-8.1,12.9-1.5,4.3-1,8.9-1.5,13.4-6.9,7.6-13.8,15.2-21.5,22-.2-.6-.5-1.9-.7-2.6,3.2-3.7,7.3-6.5,10.1-10.5-.4-9.2-2.3-18.4-2.6-27.6,0-5.9-1.2-11.7-.6-17.5,7.1-.8,14.5-.7,21-4-.4,2.9-.6,5.7-.7,8.6,2.1-.2,4.2-.5,6.4-.7,12.4,0,24.6,2.7,37,3.1.8-4.2,1.5-8.3,1.9-12.6.6-5.8-1.2-11.6,0-17.4,1.9-8.6,1.9-17.6,3.6-26.2,1.6-8.1,1.7-16.3,2.8-24.4,1.6-13.3.6-26.6-.5-39.9Z"/>
  </g>
  <path class="cls-19" d="M622.6,341.4c2.1,3.2.8,6.9.9,10.4,0,4,.4,8.1,2.3,11.7-.1,1.8-.3,3.5-.4,5.2-1,11.2-1.6,22.5-1.9,33.7-.9,6.8-.4,13.7-.8,20.6-.4.1-1.2.4-1.6.5-.1-2.5-.3-5-.4-7.5-2.2,1.7-4.3,3.6-6,5.8,2.3-12.6,3.7-25.3,4.4-38,.3-9.3,1-18.5,2.2-27.7.3-2.1,0-4.1-.4-6.2.4-2.9,1.1-5.8,1.6-8.7Z"/>
  <path class="cls-39" d="M635.4,376c-1-11.4-1.9-22.9-.7-34.4.2,2.1.6,4.2.9,6.3.3-1.3.5-2.6.8-3.9,1.9.4,4.2.3,5.4,2.1,3.7,4.4,2.8,10.5,3,15.8,0,7,.7,14.1-.2,21-.4,2-.8,4-1.2,6-.3-3.5-.2-7-1.1-10.4-1.6-2.3-3.7-4.2-5.6-6.2-.4,1.2-.8,2.4-1.2,3.6Z"/>
  <path class="cls-1" d="M659,353.9c.3-1.8.6-3.5.9-5.2.5,1.2,1.1,2.5,1.6,3.7,3-.4,5.4,1.1,7.3,3.3.2-1.2.5-2.4.8-3.6.5,1.8,1,3.7,1.5,5.5-5.4,16.6-10.2,33.3-14.2,50.3-.7-10-1.3-20-1.3-30.1.4-8.6.9-17.2,1.8-25.8.4.5,1.3,1.5,1.7,2Z"/>
  <path class="cls-191" d="M613.9,375c2.7-8.2,4-16.8,7.1-24.9.3,2,.7,4.1.4,6.2-1.2,9.2-1.9,18.4-2.2,27.7-.7,12.8-2.1,25.5-4.4,38-1,4.3-2.2,8.6-3.3,12.9-4.3-.7-8.6,1.9-12.6-.3-.8.6-1.5,1.3-2.3,1.9-.3-.2-1-.5-1.3-.7-1.1.8-2.2,1.4-3.3,2.2-1-.3-2-.6-3-.8,9.7-20.1,18.3-40.8,25-62.1Z"/>
  <g>
    <path class="cls-50" d="M356.9,357.1c2.2,0,3.2-2.6,5.3-2.6,1.7,1.5,1.4,4.2,2.2,6.2l1.3-1c.9,5.6,1.6,11.3,2,16.9-.2.8-.7,2.5-1,3.3-.3-.8-.6-1.7-1-2.5-2.6,5.1-8.7,4.5-13.4,5.6-3.8,1.6-8.1,1.5-11.7,3.6-2.9,1.5-6,2.6-9.2,3.2,0,1.2-.1,2.5-.1,3.7-4-8.2-6.9-17-9.4-25.8,4.6-.9,8.8-3.1,13.1-4.8,7.4-1.9,14.4-5.1,22-6Z"/>
    <path class="cls-50" d="M302.8,566.1c1.8-.5,3.5-1,5.2-1.4,1.6,2.6,3,5.5,3.6,8.6.7,9.1,2.2,18.2,2.3,27.3-.8,1.8-1,4.4-3,5.2-2.8,1.1-5,3.4-8,3.9-3,.5-5.2,2.7-7.3,4.7-.7,0-1.4-.1-2-.2-.1,1-.2,2.1-.4,3.1-1.2.5-2.6.2-3.9.3-2.2,2.7-6.6,2.1-7.9,5.6-1.8.4-3.5.9-4.9,2.1-.3-.3-.7-.5-1-.8-1.4,3.9-7.1,3-8.2,7.3,0-3.3.1-6.7-.8-9.9-.7,4.2.5,8.6-1,12.6,0-.7-.2-2.1-.3-2.9.7-14.8.3-29.7.7-44.6.7.6,1.3,1.1,2,1.7.1-1.4.3-2.8.4-4.2,1,.4,2,.9,3.1,1.4.2-1,.4-2,.7-3,2.9-.8,5.9-1.3,9-1.6-.6-.8-1.1-1.6-1.6-2.3,3.3-1,6.7-2.2,8.9-5,5.2-.3,9.2-4.3,14.2-5.4.1-.8.2-1.6.4-2.3Z"/>
  </g>
  <path class="cls-159" d="M377.2,362.4c3.9-.1,7.8-4.2,11.4-1.1,2.1,4.6,2.2,9.9,3,14.9.4,5.4,1.8,10.7,1.2,16.1-.4-2-.8-4.1-1.3-6.1-5.2,1.2-10.8-.3-15.4,2.8-1-.5-1.9-1-2.9-1.6.2,7.4-.9,14.7-.2,22.1-.3,1.9-.6,3.8-.9,5.7,0-14.6-.6-29.3-1.9-43.8.4-2.2.7-4.6,1.8-6.6,1.5-1.3,3.5-1.7,5.3-2.4Z"/>
  <path class="cls-70" d="M796.5,365.7c5-1.2,10.2-1.2,15.4-1.8,3,15.9-.2,32-4.8,47.2-1.1,3.2-1.6,6.6-1.5,10-1.6-18.7-3.9-37.4-9.1-55.4Z"/>
  <path class="cls-209" d="M714.5,388.4c1.2-7.2-2.3-14.6.4-21.8.2,5.5.7,11.1,1.5,16.6,2.2,18.9,9.1,36.9,14.5,55,1.9,7,4.5,14,4.4,21.3l-.8-.7c-3.7-10.8-14-17.6-24.5-20.8-5.8-2.2-13.4-3.5-16.2-9.9-1.8-6.4.6-13,1.2-19.4-.9,1.5-1.7,3-2.6,4.5-1.3-3.2-.8-6.7.8-9.7.8.7,1.7,1.4,2.5,2.1,1-11.1-.4-22.4,2.5-33.3.5,4.3-.8,8.9,1.3,12.9,1.2-1.5,2.6-2.8,4.1-4.1,1.4.7,2.7,1.5,4.1,2.2,1.8-1.9,3.4-3.9,5-6.1.2,3.7.7,7.5,1.9,11.1Z"/>
  <path class="cls-72" d="M623.5,402.5c.3-11.3,1-22.5,1.9-33.7,2.9.9,5.5,2.4,6.8,5.3.5-1,.9-1.9,1.4-2.9.8,5.5,1.5,11,1.3,16.6-.5,1.7-1.2,3.3-1.8,5-2.6-1-5.2-2-7.7-3.4-.2,4.4,1.2,9.5-1.9,13.1Z"/>
  <path class="cls-40" d="M352.3,383.1c4.7-1.1,10.8-.5,13.4-5.6.3.8.6,1.6,1,2.5.2-.8.7-2.5,1-3.3.4,5,.6,10.1.8,15.1-.4,6.4,0,12.9-.9,19.4-.3-1.2-.6-2.4-.9-3.6-1.4,1.5-2.8,3.1-4.9,3.5-4.6,1.1-9,3.2-13.7,3.9-.6,1.2-1.2,2.4-1.8,3.6-5.6-8-10.9-16.1-15-24.9,0-1.2,0-2.5.1-3.7,3.2-.6,6.3-1.6,9.2-3.2,3.6-2.1,7.9-2,11.7-3.6Z"/>
  <path class="cls-67" d="M653.7,411.9c.6-11.4.7-22.8,1.7-34.2,0,10.1.6,20.1,1.3,30.1-.6,3.1-1.3,6.2-2,9.2-.7-1.6-1.2-3.3-1-5.1Z"/>
  <path class="cls-226" d="M376.1,389.1c4.7-3.1,10.3-1.6,15.4-2.8.4,2,.9,4.1,1.3,6.1.6,5.7,1.6,11.6,1.1,17.3-.3,1.1-.7,2.3-1.1,3.4-.9,0-1.7,0-2.6,0-.4-.7-.7-1.3-1.1-2-.7.4-1.4.9-2.1,1.3-1.6-.3-3.2-.7-4.9-1,.4.8.8,1.5,1.2,2.3-2.8.4-5.7.7-8.5.8-.7-1.7-1.3-3.4-1.9-5-.6-7.4.4-14.7.2-22.1.9.5,1.9,1,2.9,1.6Z"/>
  <path class="cls-192" d="M633,392.8c.6-1.7,1.2-3.3,1.8-5,1.8,22.4,5.6,44.6,10,66.7-1.1,6.2.9,12.3.5,18.5-.5,7.9.2,15.8,0,23.7-.6,4.1-.4,8.3-.7,12.4-1.7,4.4-4.7,8.3-8.8,10.8-1.2-.2-2.5-.4-3.7-.6-1.1,1-2.1,2-3.2,3-.8-2.7-1.6-5.5-2.5-8.2-1.3,3.9-2.6,7.8-3.1,11.9-.1-6.3-.2-12.6-.3-19-.1-4.6.5-9.3-1.3-13.7v-1.9c0-22.8,0-45.5.9-68.3.4-6.9-.1-13.8.8-20.6,3.1-3.7,1.6-8.8,1.9-13.1,2.5,1.4,5.1,2.4,7.7,3.4Z"/>
  <path class="cls-190" d="M112.1,406.8c.4-5.8-.6-11.6.7-17.3.5,8.9.4,17.7.2,26.6.4,25.1,0,50.3.4,75.4l1.1-.8c.5-27.8,0-55.6.4-83.4,2.7,0,5.4,0,8,0,.8,5.2-1.7,10-1.7,15.2-1,5.8-.6,11.7-.7,17.5,0,10-.1,20-.1,30.1,0,1.7.2,3.4,1,4.8,1,1.9,2.2,3.9,2.1,6.2.1,9.2,0,18.4,0,27.6-.2,34.1.1,68.2-.1,102.3,3.1.3,6.3.4,9.5.1.1,1.7.2,3.3.3,5,.5.6,1.1,1.1,1.6,1.7,0,5.9,0,11.7,0,17.6,7.1.2,14.2,0,21.4,0,0,26.2,0,52.4,0,78.6,0,2.4,0,4.8,0,7.2,4.8.6,9.3-2.5,14-1,5.6,1.6,11.4,1.3,17.2.9-.1-8,.7-16-.4-23.9,4.5-1.2,9.1-2.2,13.7-3.3.3,4.1.7,8.1,1.5,12.2-.3,4.5-1.6,9.4.6,13.5.6-1.8,1.2-3.6,1.9-5.4.7,5.2.4,10.5.5,15.7,8,.3,16,.2,24.1.2,0,1.9,0,3.9,0,5.8-8,.5-15.9.2-23.9.3-.2,12.9-.2,25.8-.1,38.6,7.7.1,15.4,0,23.1,0-.1,5.6-.3,11.2-.6,16.8-9.2.7-18.4.3-27.6.4-27.7.1-55.4.1-83.1.2-23.9-.1-47.8.3-71.7-.2,0-23.3-.1-46.6.2-69.9,2.9-1.1,6.5-.2,9.7-.5.3-3.8,1.1-7.9,4-10.7,4.9-4.7,12-5.5,18.5-6.4,0-2,0-4,.1-5.9,2.6,0,5.2,0,7.9,0,.2-21.5,0-43,0-64.5,4.5,0,9,.1,13.4,0,.3-26.1,0-52.1.1-78.2-.2-15.7.2-31.4-.2-47.1-.1-33.9-.2-67.8,0-101.6,3.5,0,7,0,10.5-.3.7,0,1.9-.1,2.6-.2ZM137.5,678.7c1.1,0,2.1,0,3.2.1.2-11.1.3-22.2-.1-33.2-.8-.3-2.2-.8-3-1-.4,11.4,0,22.8,0,34.1ZM142.5,646.2c0,10.8-.2,21.7,0,32.5,1,0,2.1,0,3.1,0,.3-10.6.2-21.3.4-31.9-1.2-.2-2.3-.5-3.5-.7ZM108.3,687.2c-.5,1.6,0,2.2,1.6,1.7.5-1.7,0-2.2-1.6-1.7ZM138.1,690.9c-.5,4.7-.4,9.5-.3,14.3.8,0,2.3-.2,3.1-.2,0-4.3,0-8.6,0-12.9-.9-.4-1.8-.8-2.7-1.2ZM142.6,692.5c0,4-.3,8.1,0,12.1.9,1.1,1.8,1.1,2.9,0,.3-4.1.2-8.2,0-12.2-.9,0-1.8,0-2.7,0ZM113.6,716.5c-1.7,1.2-1.7,3.6-2.3,5.4,3.6.3,7.1.4,10.7,0-.2-2-.5-4-.8-6-2.5,0-5.1-.1-7.5.5ZM81.8,721.7c0,2.8,0,5.6.3,8.4.5,0,1.6,0,2.1,0,.3-2.6.3-5.3.3-7.9-.7-.1-2.1-.4-2.7-.5ZM57.5,723.1c0,5.5-.2,11,0,16.5,1,1.4,3.4.3,4.9.8,0-5.9,0-11.8-.2-17.7-1.6.1-3.2.2-4.8.4ZM167,744.1c-.6,5.9-.7,11.9-.4,17.8,1.7,0,3.4-.1,5-.2-.1-5.5.2-11,0-16.6-1-1.5-3.1-.8-4.6-1.1ZM56.8,746c1,2.3,3.6,1.9,5.7,2.2.3-3.5-3.6-2-5.7-2.2ZM57.7,754.6c-.2,1-.4,2.1-.6,3.2,1.9,0,3.8,0,5.7,0-.1-1.1-.4-2.1-.7-3.1-1.4-.7-3-.3-4.5-.1Z"/>
  <path class="cls-183" d="M368.5,391.8c1.1,15.2,0,30.4.4,45.5.7,0,2.2-.2,3-.3.3-7.2,0-14.5.2-21.7.3-1.9.6-3.8.9-5.7.6,1.7,1.3,3.4,1.9,5,2.8-.2,5.7-.5,8.5-.8-.4-.8-.8-1.5-1.2-2.3,1.6.3,3.2.6,4.9,1,.7-.4,1.4-.9,2.1-1.3.3.6.7,1.3,1.1,2,.9,0,1.7,0,2.6,0,.4-1.1.7-2.3,1.1-3.4,1.3,15.7,1.1,31.5,1.4,47.3,0,2.3,0,4.7-.6,7-3.5-2.3-7.2-4.5-10.4-7.3-14.2-11.1-27.5-23.6-38-38.3.6-1.2,1.2-2.4,1.8-3.6,4.7-.7,9.1-2.8,13.7-3.9,2.1-.4,3.5-2,4.9-3.5.3,1.2.6,2.4.9,3.6.9-6.4.4-12.9.9-19.4Z"/>
  <path class="cls-157" d="M241.4,396.8c3.1,19.4,8.5,38.3,13.5,57.2,2.7,9.5,5.5,19,10.2,27.7.3,1.3.6,2.5.9,3.8-.5,10.7-.3,21.4-.6,32.1-8.9,3.1-18.5,1.7-27.2-1,0-3.9-.2-7.9-.4-11.8.1-22.6,1.5-45.1,2-67.6.5-13.4.7-26.9,1.7-40.3Z"/>
  <path class="cls-224" d="M654.1,443.2c4.7-12.7,9.1-25.5,14.7-37.8.1,14.7-.3,29.4-.1,44-1.4-4.4-1.9-8.9-2-13.5-.2,6.1-2.5,11.8-3.9,17.7-1.4,5.2-3.4,10.3-5.5,15.3-2,4.9-6.7,7.9-11.3,10.1,0-4.5.8-8.9,1.8-13.3,1.7-7.7,3.9-15.2,6.4-22.6Z"/>
  <path class="cls-6" d="M692.4,413.3c.9-1.5,1.7-3,2.6-4.5-.7,6.4-3,13-1.2,19.4,2.8,6.3,10.3,7.7,16.2,9.9,10.5,3.2,20.8,9.9,24.5,20.8-5.4-4-11.9-5.7-18.1-7.9-8-2.6-16.2-4.8-23.9-8.1-4.5-2-9.6-5.4-10-10.8.5-7.4,6.6-12.6,10.1-18.7Z"/>
  <path class="cls-43" d="M620.7,416.2c.2,2.5.3,5,.4,7.5.4-.1,1.2-.4,1.6-.5-.8,22.8-.9,45.5-1,68.3v-.5c-.7-4.6-.9-9.3-1.3-13.9-.1,3.3,0,6.7-.5,10-.7,2.4-3.2,3.6-5.2,4.8-23.9,11.8-48.9,21.3-73.4,31.6-4.8,1.9-9.6,4.8-15,3.8.4,1.1.7,2.1,1,3.2-.5-.2-1.6-.5-2.1-.7-.5-.7-1-1.4-1.6-2-1.9-3.8-3.9-7.6-5.8-11.3-2.8-5.8-5.1-11.8-7.2-17.8,10.9-2.7,20.5-8.8,30.5-13.5,13.3-6.2,26.2-13.4,39.9-18.5,6.8,3.7,16,3.8,21.9-1.8,4.7-3.5,1.6-9.6,4-14.1,2.1-5.1,3.5-10.4,4.7-15.8,1.1-4.3,2.2-8.6,3.3-12.9,1.7-2.2,3.8-4.1,6-5.8Z"/>
  <g>
    <path class="cls-184" d="M120.5,440c0-5.8-.3-11.7.7-17.5.5,17.5-.1,34.9.2,52.4-.8-1.5-1-3.2-1-4.8,0-10,0-20,.1-30.1Z"/>
    <path class="cls-184" d="M222.7,801c2.6,11.2.6,22.7,1.8,34.1.6-7,0-14.1.3-21.1,0-1.6.6-3.1,1.9-4.1-.4,17.9-1,35.8-1.6,53.7-23.8-.9-47.5-2.8-71.2-4.9-5.8-.5-11.7-.8-17.5-1.8,4.7-1.1,9.7-1,14.4-2.2-1.3-.5-2.5-.9-3.8-1.3,3.5-.2,7-1.1,9.1-4.2,1.3.2,2.7.3,4,.5-.7-1.4-1.3-2.7-2-4.1,2.3-3.2,6.4-2.8,9.9-3.1-1.6-.3-3.2-.5-4.9-.8,7.1-6.4,14.6-12.4,23.2-16.6,3.9-3.7,7.8-7.3,11.8-10.9,4.3-3.9,9.7-6.2,14.1-9.8,1.4-1,2.7-2.3,4.5-2.3,0,1.7,0,3.4-.2,5.1,1.5-.7,3.1-1.2,4.5-2.2.7-1.2,1.1-2.6,1.6-3.9Z"/>
  </g>
  <path class="cls-155" d="M765.1,433.1c1.6-.8,4.5-1.6,5.2.6.9,3.7,0,7.5.4,11.3.4,7,1.3,14.1.2,21.1-5.5,37.8-11.4,75.6-16.9,113.4-2.1.1-4.2.4-6.4.7,0-2.9.3-5.8.7-8.6.2-2,.4-4.1.6-6.1,1.4-13.3,2.8-26.7,4.2-40,2.6-17.5,2.9-35.4,7.3-52.6.4-2.7-2.5-4.5-3.3-6.9.5-3.2,2.9-6,2.3-9.4-.6-3.6,1.8-6.5,3.5-9.4-1-1.4-2.1-2.7-2.8-4.3-.6-3.8,1.2-8.2,4.9-9.8Z"/>
  <path class="cls-61" d="M266.5,455.7c.7-7.8-.7-15.7.9-23.4.8,1.3,1.6,2.6,2.5,4-.7,4.5-.6,9.2-1,13.7-1,10.3,0,20.6-1.4,30.9-.3,1.6-.9,3.1-1.5,4.6-.3-1.3-.6-2.5-.9-3.8,1.7-8.6.7-17.3,1.4-26Z"/>
  <path class="cls-156" d="M333.1,435.1c2.8-2.6,6.9-2.1,10.5-2.4,3.7,4.8,8.4,9.1,10.2,15.1-5.3-1.1-10.1-4.5-15.7-4.1-3.4-.2-5.9,2.2-8.4,3.9-.8-4.3-.3-9.6,3.5-12.5Z"/>
  <path class="cls-187" d="M596.5,436.4c.8-.6,1.5-1.3,2.3-1.9,4,2.3,8.4-.3,12.6.3-1.2,5.4-2.6,10.7-4.7,15.8-2.4,4.5.7,10.6-4,14.1-3.2-2.4-7.3-.6-10.9-1.5-4.8-1.1-9.1-3.9-13.2-6.4,4.2-6.1,6.7-13.3,10.2-19.8,1,.3,2,.5,3,.8,1.1-.7,2.2-1.4,3.3-2.2.3.2,1,.5,1.3.7Z"/>
  <path class="cls-131" d="M666.6,436c.1,4.6.6,9.1,2,13.5.8,20.2,1.9,40.5,4.9,60.6,1.4,8,2.7,16.4,7.5,23.1,3.7,5.5,7.1,11.3,10.7,17-1.3-10.7-1.6-21.9,2-32.2,3.8-12.7,14.1-22.1,24.6-29.6,1,1.1,1.9,2.4,1.2,3.9-2.2,7.8-4.6,15.7-5.6,23.8-1,7.7-3.2,15.3-3.8,23-.6,10-2.5,20-2.3,30.1-.2,10.6.2,21.3.1,32,0,10.1,1.5,20,2.9,30,.5,3.3,0,6.9,1.8,9.9,0,.1-.3.3-.4.4.4.8.9,1.7,1.3,2.5-3.7,6.7-11.6,8.5-17.7,12.3.9,3,2,6,3.2,8.9.2,2.7-1.1,4.9-3.3,6.4,2,7.9,5.6,15.3,8.9,22.8,5.2,15.4,12.4,30.1,17.4,45.6,1.7,7.4,2.3,15,3.4,22.5,4,23.1,6.5,46.3,8.8,69.6.6,7.3,1.9,14.6,1.7,22,0,3.2,0,6.5.2,9.8,3.1,0,6.2.4,9.3,1-9.9,2.2-20.2,0-29.9,3-11.8.6-23.7.4-35.5.8,1.1-4.9-.4-9.7-.9-14.5-12.7-93.4-23-187.2-29.8-281.3-1.2-17.9-2-35.8-3-53.7-.3-7.5-.2-15-1-22.4.1-7.9-.6-15.8,0-23.7.3-6.2-1.6-12.3-.5-18.5.3,1.8.7,3.6,1.1,5.4.4,2.1,1,4,1.8,6-1,4.4-1.9,8.8-1.8,13.3,4.6-2.2,9.2-5.2,11.3-10.1,2.1-5,4.1-10.1,5.5-15.3,1.4-5.9,3.7-11.6,3.9-17.7Z"/>
  <path class="cls-145" d="M268.9,450c.4-4.6.3-9.2,1-13.7,10,16,18.5,33,29.7,48.2,8.8,11.7,23.1,16.9,36.5,21.2,20.2,6,40.3,12.2,60.4,18.4-.6,3.5-.8,7-.7,10.6,0,13.6.2,27.2,0,40.8v.7c-.4-.2-1.3-.6-1.8-.8,2-6.6.6-13.6.9-20.4-.3-6,1.1-12.6-2.3-18-.4.7-1.1,2.1-1.4,2.8-3.2.6-6.2-.8-9.3-.7-6.6,1.4-13.1-.9-19.7-1.3.5-.6.9-1.2,1.4-1.8-9-.5-18.1.6-27.1-.6-3.2-.4-6.4.4-9.6.5-2.8-.7-5.1-2.6-7.4-4.1.3,1.6.5,3.2.7,4.8-5.6-3.8-10.9-8.1-16.3-12.2-.8-.6-1.6-1.2-2.3-1.9-12.5-10.9-26-21.3-34.5-35.9.4,10.5-.9,21-.6,31.5-.1,10.7-.2,21.4-.4,32.2-.3-3-.7-5.9-.9-8.9.3-8,0-15.9.2-23.9.3-10.7.1-21.4.6-32.1.5-1.5,1.1-3,1.5-4.6,1.3-10.2.4-20.6,1.4-30.9Z"/>
  <path class="cls-146" d="M650.5,438.1c1.1.6,2.1,1.2,3.2,1.8.1,1.1.3,2.2.4,3.4-2.5,7.4-4.7,14.9-6.4,22.6-.7-1.9-1.4-3.9-1.8-6,.7-1,1.6-1.9,1.7-3.2.6-4,1.1-8.1,1.8-12.1.3-2.2.7-4.3,1.1-6.5Z"/>
  <path class="cls-154" d="M692.3,442.9c7.8,3.3,15.9,5.4,23.9,8.1-.1.6-.4,1.8-.6,2.4-.9,0-1.8,0-2.7,0,1.5,3.3,3.5,6.4,4.7,9.9.9,2.5,1.4,5.1,2.7,7.4,1.5,1.1,3.3,1.4,5,2.1-5.5,4.2-12,7.1-17.9,10.7-2-1-4.2-1.6-6-2.9-4.8-6.7-8.4-14.4-10.2-22.6-.9-4.2-.5-8.5-1.6-12.6.9-.9,1.7-1.7,2.6-2.6Z"/>
  <path class="cls-12" d="M545.8,469.8c10.6-4.8,20.7-11,32.2-13.4l.7.4c4.2,2.6,8.4,5.3,13.2,6.4,3.6.9,7.7-.9,10.9,1.5-5.9,5.6-15,5.5-21.9,1.8-13.7,5.2-26.6,12.3-39.9,18.5-10.1,4.7-19.6,10.8-30.5,13.5-1.7-2.7-3.8-5-6.1-7.1-.1-.1-.4-.4-.6-.6l-.8-.8c13.9-7.5,28.6-13.3,42.8-20.4Z"/>
  <path class="cls-95" d="M620.5,477c.4,4.6.6,9.3,1.2,13.9-6.9,7.3-16.8,10.2-25.8,13.9-19.8,7.4-39.6,14.9-59.3,22.7-3,1.1-6,2.6-9.3,2.8-.3-1.1-.6-2.2-1-3.2,5.4,1,10.2-1.8,15-3.8,24.5-10.3,49.5-19.9,73.4-31.6,2-1.2,4.5-2.3,5.2-4.8.6-3.3.4-6.7.5-10Z"/>
  <path class="cls-104" d="M472.6,490.8c.3-5.1,6.4-5,10.2-5.7,7.7-1.9,14.1,3.6,21,5.8.1.1.4.4.6.6,2.4,4.4,3.4,9.4,5,14.1.2,4.5.9,8.9,2.1,13.3-.9-1.2-1.8-2.3-2.8-3.5-2.9-3.8-5.5-8-9.4-10.9-5-3.8-10-8.1-16.2-9.8-2.8,3.5-3.9,8.2-7.2,11.5-2.9,2.9-8.2.2-7.3-3.9,2.7-3.2,3.5-7.4,3.8-11.4Z"/>
  <path class="cls-151" d="M718.4,488.3c4.2-2.7,10.7-4.5,14.4,0,3.8,6.3,4.4,13.8,6.2,20.8,2.1,7.6,3.3,15.5,4.5,23.3,1.2,8.5,2.7,17.1,2.7,25.7-.1,2.8,1.4,5.1,2.8,7.3-.2,2-.4,4.1-.6,6.1-6.5,3.3-14,3.2-21,4-.6,5.9.6,11.7.6,17.5.3,9.2,2.2,18.4,2.6,27.6-2.8,4-6.9,6.9-10.1,10.5.2.6.5,1.9.7,2.6-2.8,2.5-5.7,4.8-8.5,7.2-1.8-3-1.3-6.6-1.8-9.9-1.3-10-2.8-19.9-2.9-30,.1-10.7-.4-21.3-.1-32-.2-10.1,1.7-20,2.3-30.1.7-7.8,2.8-15.3,3.8-23,1-8.1,3.5-15.9,5.6-23.8.7-1.5-.2-2.8-1.2-3.9Z"/>
  <g>
    <path class="cls-4" d="M838.6,504c.2-6.3-.2-12.7.4-19.1,1.3,28.9,1.1,57.9,3,86.8,3.9.1,7.8.1,11.7.2.3,29.2,0,58.5.2,87.8,0,11.3-.1,22.6,0,34,5.4,0,10.8,0,16.2,0,0,14.1,0,28.3,0,42.5,7.5.1,14.9,0,22.4.2,4.5.2,9,.1,13.5,0,12.9,0,25.8,0,38.7,0,.2,1.8.3,3.6.5,5.5,3.1,4.6,1.3,10.4,1.7,15.6,11.2.2,22.4-.3,33.5,0,.2,11.5,0,23.1,0,34.6-24.8.5-49.7,0-74.5.1-38.8.2-77.6-.2-116.4.2-.7,1-1.5,1.9-2.2,2.9-.5-13.7-1-27.3-1.3-41,.1-6.4.1-12.8,0-19.2-.2-4.2,1.4-8.3,1.1-12.5,1.9,0,3.7.1,5.6.2,0-6.1-.4-12.2,1-18.2,1.8,0,3.5,0,5.3,0,.4-6.8.4-13.7.5-20.5-.2-5.6,4.9-9.3,7.2-14,2-2.8,3.9-5.6,5.8-8.4-1,4.1-1.2,8.3-1.2,12.4,1,0,2.9,0,3.8,0,0-4.9,1.1-10.1-1-14.8,1.2-1.8,2.3-3.6,3.4-5.5.5,1.1,1,2.2,1.5,3.3,1.5,0,3.1,0,4.6,0,.1-4.1,0-8.1,0-12.2,2.7-4.6,5.8-8.8,8.6-13.4,3.1-4.6,6.5-9.1,9-14.1-5.9-7.6-11.4-15.5-15.1-24.4,0-7.1.3-14.1-.3-21.2,3.7,0,7.4,0,11.1.1.5-22.6,1.6-45.1,1.6-67.7ZM827.1,643.1c-1,4.5-.8,9.2-.8,13.8,1.6,0,3.2.1,4.9.2.1-5.1,0-10.2-.2-15.2-1.3.4-3,0-3.9,1.2ZM818.4,660.1c0,4.6-.1,9.2-.1,13.8,1.8.1,3.7.2,5.6.3,0-4.8.1-9.6,0-14.4-1.8.1-3.6.2-5.5.4ZM826.4,660.2c.2,4.6,0,9.2,0,13.8,1.6.1,3.3.2,4.9.4.1-4.9,0-9.7-.1-14.5-1.6.1-3.2.2-4.7.4ZM805.7,699.8c0,2,.1,4,.2,6.1,1.7,0,3.4,0,5.1,0,0-2,.1-3.9.2-5.9-1.9,0-3.7-.1-5.5-.1ZM805.9,710c0,2.6,0,5.3,0,7.9,1.7,0,3.4,0,5.1,0,0-2.7.1-5.4,0-8.1-1.8,0-3.5.1-5.2.2ZM803.2,753.1c-.4,1.3-.8,2.7-1.2,4,7.6,0,15.3,0,22.9,0,0-1.3-.2-2.7-.2-4-7.1-.5-14.3-.2-21.5,0ZM828.1,752.7c0,1.4.2,2.8.2,4.2,2.3.1,4.7.2,7,.2-.1-1.4-.2-2.8-.3-4.2-2.3-.1-4.6-.2-6.9-.2ZM852.7,752.7c0,1.5-.1,3-.1,4.5,1.8,0,3.6-.2,5.4-.2,0-1.4,0-2.7,0-4.1-1.8,0-3.5-.1-5.3-.2ZM872.2,753c.4,1.2.7,2.4,1.1,3.7,4.6.4,9.3.4,13.9.3.2-1.4.4-2.8.6-4.1-5.2,0-10.4,0-15.6.1ZM890.7,752.9c-.3,1.3-.6,2.6-.9,3.9,13.5.3,27.1,0,40.6.1-.1-1.4-.2-2.8-.4-4.1-13.1-.2-26.3,0-39.4,0ZM861.1,767.2c0,1.2,0,2.3.2,3.5,8-.3,16,.3,24-.2,0-1,0-2.9,0-3.9-8.1-.6-16.2,0-24.2.6ZM801.6,766.9c.5,1.4.4,4,2.5,3.9,11.2.3,22.5-.3,33.7-.3-.2-1.3-.5-2.6-.7-3.8-11.8-.4-23.7,0-35.5.3ZM851.2,766.9c0,1.2.1,2.4.2,3.6,2,.2,3.9.3,5.9.5,0-1.5.1-2.9.2-4.3-2.1,0-4.2,0-6.3.2ZM887.8,766.7c0,1.4,0,2.8.1,4.1,13.7,0,27.5,0,41.2,0,.1-1.4.3-2.9.4-4.3-13.9,0-27.9,0-41.8.2Z"/>
    <path class="cls-4" d="M488.1,697.6c5,.6,10.1,1.5,15.1,2.3.3,3.8.5,7.5.5,11.3,6.5,0,13,0,19.5.2.5,0,1.4.2,1.9.3-.4,16.4-.3,32.8-.2,49.3,5.1,1,10.3,1.7,15.4,2.4,2,.3,4.1.6,6.1,1,27.4,4.7,55,8.3,82.4,12.8.2,5,.3,10,.5,15-43.1.2-86.1,0-129.2,0-34.7-.2-69.4.2-104.2-.1-.2-25.3-.2-50.7,0-76,14.1.2,28.1,0,42.2,0,0,4.7,0,9.4.3,14.2.3,5.2.3,10.4.5,15.6,16.5,2.6,33,5.8,49.6,8.1,0-5.5,0-11,0-16.5,0-13.4,0-26.7-.1-40.1Z"/>
  </g>
  <path class="cls-38" d="M132,486c.7,5,.3,10,.4,15,.7,36.7,0,73.4.4,110.1-3.2.2-6.3.2-9.5-.1.2-34.1-.1-68.2.1-102.3,2.6,0,5.1,0,7.7.1.1-7.6.2-15.2.8-22.8Z"/>
  <path class="cls-195" d="M267.1,486.6c8.5,14.6,22,25,34.5,35.9,0,1.4,0,2.9,0,4.3-4.9-3.8-10-8-16.3-9.4-6.2-1.9-12.5.3-18.8.7-.3-10.5,1-21,.6-31.5Z"/>
  <path class="cls-172" d="M452.3,492.9c6.7-1.4,13.5-2.6,20.3-2.1-.3,4.1-1.1,8.2-3.8,11.4-.1.2-.4.7-.6,1,0,2.1.3,4.9,2.9,5.3,4.6,1.1,7.2-3.6,9.9-6.4,1.2-1.8,3.5-1,5.2-.5,8.3,2.8,14.1,9.9,20.5,15.5,2.3,2.1,4.4,4.7,4.9,7.8,0,.8,0,2.3,0,3-4.7-.5-8-3.9-11.8-6.3-1.8-1.6-3.8-3-6.3-3.1,2.1,5.7,8.7,8.2,11.1,13.8-.7.9-1.4,1.8-2.1,2.7-4.4-1.7-8.6-4-12.7-6.3-.2,3.3,2,5.7,4.3,7.7-1,1.2-1.6,2.5-2.6,3.7.3.8.6,1.5.9,2.3-.4.5-1.3,1.4-1.7,1.9-.2,0-.6.2-.8.3-1.7-1.3-3.3-2.6-5.1-3.9.3-1.5.7-3.1,1-4.6-2,1.1-2.3,3.4-2.7,5.5-2.8,1.2-5.7,2.3-8.6,3.4-1.5-1.2-2.8-2.5-4-4,2.1-.2,4.3-.3,6.4-.4-1.9-.8-3.9-1.6-5.8-2.4.7-.5,1.4-1.1,2.1-1.6,1.5,2.4,4.4,2.3,6.9,2.5.3-2.7-1.6-4.2-4-4.7-1.1-1.1-2.1-2.3-3.1-3.4-1.7-.8-3.4-1.5-5.1-2-1.8,1.2-3.6,2.5-5.3,3.9-.6-1.7-1.2-3.4-1.8-5.1-.5-1.4-1.2-1.5-2-.2-2-.3-3.9.6-5.5,1.7-1.1.7-2.2,1.3-3.3,2.1.3-.8,1-2.5,1.3-3.3-2.3-2.3-4.7-4.6-7.1-6.8,2.5-9.2,3.8-18.7,6.1-28,.5-.1,1.4-.3,1.9-.4Z"/>
  <path class="cls-150" d="M509.5,505.5c-1.7-4.7-2.7-9.6-5-14.1,2.3,2.1,4.4,4.4,6.1,7.1,2.2,6,4.4,12,7.2,17.8-1,.2-2,.4-3,.6-1.7-3.9-3.7-7.5-5.3-11.4Z"/>
  <path class="cls-71" d="M621.9,493.3c1.8,4.3,1.2,9.1,1.3,13.7,0,6.3.2,12.6.3,19,.5-4.1,1.8-8,3.1-11.9.9,2.7,1.7,5.4,2.5,8.2,1.1-1,2.1-2,3.2-3,1.2.2,2.5.4,3.7.6,4-2.5,7.1-6.4,8.8-10.8.4-4.1.1-8.3.7-12.4.8,7.5.6,15,1,22.4,1.1,17.9,1.8,35.8,3,53.7-.2,2.5-.9,5-1.6,7.4-.4-1.3-.8-2.6-1.2-3.8-.5.8-1,1.6-1.5,2.4-1.5-.3-2.9-.5-4.4-.7-1.4-.9-2.7-1.8-4.1-2.8-.4-1-.8-2.1-1.1-3.1-1,0-2,0-3.1,0-.3,1.2-.5,2.4-.8,3.7-.4-1.3-.8-2.5-1.2-3.8-.3,2.5-.8,5-1.8,7.3,0-3.5.4-6.9.1-10.4-1.2,2.5-2.1,5.1-2.8,7.8-1.1,1-2.1,2.2-3,3.5,0-2.6-.1-5.1-.1-7.7,1.8-5.7.9-11.7,1-17.5,0-2.3-.6-4.5-1.5-6.6-.7-18.3-1.3-36.7-.6-55Z"/>
  <path class="cls-207" d="M483.3,494.6c6.2,1.7,11.2,6,16.2,9.8,3.9,2.9,6.5,7.1,9.4,10.9-.5.5-1.6,1.4-2.1,1.8-6.4-5.7-12.2-12.7-20.5-15.5-1.7-.5-4-1.3-5.2.5-2.8,2.7-5.3,7.5-9.9,6.4-2.5-.4-2.9-3.2-2.9-5.3.1-.2.4-.7.6-1-.9,4.1,4.4,6.8,7.3,3.9,3.2-3.2,4.3-7.9,7.2-11.5Z"/>
  <path class="cls-2" d="M237,516c.2-3.8.1-7.5.7-11.2.2,3.9.4,7.8.4,11.8,8.8,2.7,18.3,4.1,27.2,1-.2,8,.2,15.9-.2,23.9-.4,2.2-.9,4.4-.9,6.6-.2,13.1.1,26.2-.8,39.3-.4-5-.6-10.1-.7-15.2-1.5,2-3.1,3.9-4.6,5.8-.6-.4-1.2-.9-1.8-1.3-.5.9-1.1,1.7-1.6,2.6-1.6-.6-3.2-1.2-4.8-1.8-2,.5-4,1-6,1.5-1.1,1.4-2.1,2.8-3.1,4.2-.5-.1-1.1-.2-1.6-.3-.9.7-1.9,1.3-2.9,2-.4,2.1-.8,4.3-1.3,6.4-.6-5.1.1-10.2,0-15.2,0-20.1,1.2-40.1,1.7-60.1Z"/>
  <path class="cls-69" d="M511.6,518.8c-1.2-4.3-1.9-8.8-2.1-13.3,1.6,3.9,3.6,7.6,5.3,11.4.9,2.4,1.6,4.9,2.2,7.4-.5,0-1.7,0-2.2-.1.1.5.4,1.6.5,2.1-1.2-.5-2.5-1-3.7-1.4-.5-3.2-2.6-5.7-4.9-7.8.5-.4,1.6-1.3,2.1-1.8.9,1.2,1.8,2.3,2.8,3.5Z"/>
  <path class="cls-173" d="M77.8,509.1c7.1.1,14.1-.1,21.2-.3.4,15.7,0,31.4.2,47.1,0,26.1.2,52.1-.1,78.2-4.5.1-8.9,0-13.4,0-.4,0-1.1,0-1.4,0-.2,3.8-.3,7.6-1.3,11.2-.8,0-1.6.2-2.3.2-.7,3.4-1.5,6.8-1.5,10.3,0,11.3-.3,22.7,0,34,0,2.5-.2,5-.9,7.4-.5-15.5-.1-31-.3-46.5,0-47.3,0-94.6,0-141.9Z"/>
  <path class="cls-11" d="M266.6,518.2c6.2-.3,12.6-2.6,18.8-.7,6.3,1.4,11.3,5.5,16.3,9.4,0-1.4,0-2.9,0-4.3.8.6,1.5,1.2,2.3,1.9-.2,7.4,3.2,14.4,2.8,21.9-.8-1.3-1.5-2.6-2.3-4-.8,2.1-1.1,4.8-3.3,5.9-4.6,2.8-9.7,4.7-14.3,7.6-1.9,1.2-4.3,1.4-6.5,1.6.5.6.9,1.1,1.4,1.7-4,1.5-7.6,4-11.7,5.3.7.3,2.1,1,2.8,1.4-1.4,0-2.8,0-4.2.1-.1-2.2-.3-4.3-.7-6.5-.9,3.6-1.2,7.3-1.6,10.9-.3-6.7.3-13.3-.2-20,.2-10.7.3-21.5.4-32.2Z"/>
  <path class="cls-49" d="M514.8,516.9c1-.2,2-.4,3-.6,1.9,3.8,4,7.5,5.8,11.3-2.3-1-4.4-2.2-6.6-3.3-.6-2.5-1.3-5-2.2-7.4Z"/>
  <path class="cls-52" d="M177.4,518.3c5.5-.8,11-.4,16.5-.6,3.8,0,7.8-.7,11.5.8,6,2.2,11.9,4.4,17.9,6.4.7,8.9-.6,17.9.6,26.8,2.4.1,4.7.3,7.1.5.3,27.6,0,55.2.3,82.9,0,4.9.3,9.8-.2,14.6-2.6-5.7-.6-12.1-1.8-18.1-.6,1-1.2,2-1.8,3-.3-.7-.7-1.5-1-2.2-.7.2-1.5.5-2.2.7-3-1.9-6-3.6-9.1-5.4-3.3-2-5.7-5.2-8.3-8-1.6.2-3.2.4-4.9.6-.2-2.4-.4-4.9-.5-7.3-.1,3.2-.6,6.4-1.4,9.4-.3-24.2-.5-48.4-.5-72.6-8.7-.6-17.5.2-26.2-.2-.2-.7-.8-2.2-1-2.9-1.2-.6-2.5-.9-3.5-1.8-.5-2.1,0-4.2.9-6.1.8,0,2.4-.1,3.2-.2.3-3.5.3-7.1.4-10.7,7.4.2,14.8.2,22.2-.2.7-2.9,1.2-5.9,1.6-8.9-6.6-.4-13.2,0-19.8-.6Z"/>
  <path class="cls-158" d="M173.5,528c.2-3.3-.5-9.1,4-9.7,6.6.5,13.2.2,19.8.6-.4,3-.9,5.9-1.6,8.9-7.4.5-14.8.4-22.2.2Z"/>
  <path class="cls-135" d="M493.4,518.5c2.5.1,4.6,1.5,6.3,3.1,1.9,3.3,5.1,5.5,8.2,7.6-.4.5-1.2,1.5-1.6,2-.2.1-.6.3-.9.5-.2.1-.7.5-.9.6-2.5-5.6-9-8.1-11.1-13.8Z"/>
  <path class="cls-234" d="M499.8,521.7c3.8,2.4,7.2,5.8,11.8,6.3,0-.8,0-2.3,0-3,1.2.5,2.5.9,3.7,1.4,2.4,1.8,5,3.3,6.9,5.5,1.9,2.7-1,7.1-4.3,6.1-4.3-1.4-7.6-4.6-11.6-6.7.4-.5,1.2-1.5,1.6-2-3.1-2.1-6.2-4.3-8.2-7.6Z"/>
  <path class="cls-181" d="M396.6,524.1c8.1,2.6,16.6,4.2,24.1,8.2,6,7.9,9.1,17.9,10.1,27.8-5.9,0-5.8,8-11,9.6-.1-1.2-.3-2.4-.5-3.6.4-4.5,5.8-8.6,2.8-13.2-3.8-5.5-10.5-9.2-11-16.5-5.1,0-10.2-.8-15.3-1.7-.1-3.5,0-7.1.7-10.6Z"/>
  <path class="cls-223" d="M303.9,524.4c5.4,4.1,10.7,8.4,16.3,12.2,15.2,10.7,31.5,19.9,48.3,27.8-2.6,2.2-5.4-.1-7.9-1-2-.8-4.2-.6-6.4-.7-4.4,2-9.4,1.2-14.1,1.6-4.4.1-8.6,1.5-13,1.6-4.7,0-9.4.2-14.1.3-.6,2.3-1.2,4.7-1.5,7-.6-3.1-2-5.9-3.6-8.6-1.8.5-3.5.9-5.2,1.4-.1.8-.3,1.5-.4,2.3-5,1.1-8.9,5.1-14.2,5.4-2.2,2.8-5.6,4-8.9,5,.5.8,1.1,1.5,1.6,2.3-3,.3-6.1.8-9,1.6-.2,1-.4,2-.7,3-1-.5-2-.9-3.1-1.4-.1,1.4-.3,2.8-.4,4.2-.7-.6-1.3-1.1-2-1.7,0-5.5.2-11.1.5-16.6.4-3.7.8-7.3,1.6-10.9.4,2.1.6,4.3.7,6.5,1.4,0,2.8-.1,4.2-.1-.7-.3-2.1-1-2.8-1.4,4.1-1.4,7.7-3.8,11.7-5.3-.5-.6-.9-1.1-1.4-1.7,2.2-.2,4.6-.4,6.5-1.6,4.6-2.8,9.7-4.8,14.3-7.6,2.2-1.1,2.5-3.9,3.3-5.9.8,1.3,1.5,2.6,2.3,4,.3-7.5-3-14.5-2.8-21.9Z"/>
  <path class="cls-123" d="M453.4,529.3c1.6-1.1,3.5-1.9,5.5-1.7.5,0,1.5.1,2,.2.6,1.7,1.2,3.4,1.8,5.1-.2.2-.6.5-.9.7-3.2-.6-7.9-.1-8.4-4.4Z"/>
  <path class="cls-47" d="M459,527.6c.8-1.3,1.5-1.2,2,.2-.5,0-1.5-.1-2-.2Z"/>
  <path class="cls-193" d="M450.1,531.4c1.1-.7,2.2-1.4,3.3-2.1.5,4.2,5.2,3.7,8.4,4.4l-1.6,1.8c-2.6,0-5.2,0-7.8.3-.8-1.5-1.6-3-2.3-4.5Z"/>
  <path class="cls-41" d="M468,529.1c1.8.5,3.5,1.2,5.1,2-.3.6-.9,1.8-1.1,2.3-2.3-.5-4.5-1-6.8-1.6.9-.9,1.9-1.8,2.8-2.7Z"/>
  <path class="cls-161" d="M489.8,528.8c4.2,2.2,8.3,4.6,12.7,6.3-1.5,2.4-3.1,5.1-6.3,5-.8,1.2-1.7,2.4-2.5,3.6-.7.2-2.2.5-3,.7.4-.5,1.3-1.4,1.7-1.9-.3-.8-.6-1.6-.9-2.3.9-1.2,1.6-2.5,2.6-3.7-2.3-2-4.5-4.4-4.3-7.7Z"/>
  <path class="cls-85" d="M473.1,531.1c1,1.1,2.1,2.3,3.1,3.4-.7.6-2.2,1.7-2.9,2.2-.7.5-1.4,1.1-2.1,1.6,1.9.8,3.9,1.5,5.8,2.4-2.2.1-4.3.2-6.4.4-2.8.5-5.8,1-8.4-.6,2.1-.4,4.2-.7,6.2-1.3.2-1.5.1-3,0-4.6,1.1-.4,2.3-.8,3.4-1.2.3-.6.9-1.8,1.1-2.3Z"/>
  <path class="cls-63" d="M319.6,531.8c2.4,1.5,4.6,3.4,7.4,4.1,3.2,0,6.4-.9,9.6-.5,9,1.1,18.1.1,27.1.6-.5.6-.9,1.2-1.4,1.8,6.6.4,13.1,2.6,19.7,1.3,3.1,0,6.1,1.3,9.3.7.4-.7,1.1-2.1,1.4-2.8,3.4,5.4,2,12,2.3,18-.3,6.8,1.1,13.8-.9,20.4-8.5-3.7-17.2-7.1-25.6-11-16.9-7.8-33.1-17-48.3-27.8-.2-1.6-.4-3.2-.7-4.8Z"/>
  <path class="cls-128" d="M461.2,534.9c1.3-1,2.7-1.9,4-3,2.3.6,4.5,1.1,6.8,1.6-1.2.4-2.3.8-3.4,1.2,0,1.5.1,3,0,4.6-2,.6-4.1.9-6.2,1.3-.2-.3-.6-.8-.8-1.1-.1-1.5-.2-3-.3-4.5Z"/>
  <path class="cls-24" d="M473.3,536.7c.7-.5,2.2-1.7,2.9-2.2,2.4.5,4.3,2,4,4.7-2.5-.2-5.4-.1-6.9-2.5Z"/>
  <path class="cls-147" d="M483.2,541.6c.4-2,.7-4.3,2.7-5.5-.3,1.5-.6,3.1-1,4.6,1.7,1.2,3.4,2.5,5.1,3.9-1.6.6-3.1,1.9-4.9,1.9-1.4-.5-2.6-1.4-3.9-2.1-2.2.4-4.3.7-6.5.6,2.9-1.1,5.7-2.2,8.6-3.4Z"/>
  <path class="cls-82" d="M264.3,548c0-2.2.5-4.4.9-6.6.2,3,.6,5.9.9,8.9.5,6.6,0,13.3.2,20-.3,5.5-.4,11.1-.5,16.6-.4,14.9,0,29.7-.7,44.6-.6,2.5-1.1,5-1.6,7.6-.2-.5-.7-1.6-.9-2.1.9-16.5.6-33.1.9-49.7.9-13.1.6-26.2.8-39.3Z"/>
  <path class="cls-129" d="M173.5,549.6c8.7.4,17.5-.4,26.2.2,0,24.2.2,48.4.5,72.6-.9,11.3.4,22.7-.5,34-.9-4.8-.6-9.6-.7-14.4.1-3.7-1.8-7-3.5-10.1.3-.9.5-1.8.8-2.8-1-.6-2.5-.7-3.1-1.8.4-1.4,1.1-2.7,1.6-3.9-4.5-.2-8.9.5-13.1,2.3-4.5-2.2-9.6-2.1-14.5-1.5-.3,1.6-.6,3.1-.9,4.7-.5-2.4-1.1-4.7-1.9-7-1.3,13.1.5,26.4-1.2,39.5-.2-37.1-.2-74.2-.2-111.3,3.4-.2,6.9-.5,10.4-.5Z"/>
  <path class="cls-106" d="M622.4,548.4c.9,2.1,1.6,4.3,1.5,6.6,0,5.8.8,11.8-1,17.5-.3-8-.4-16.1-.5-24.1Z"/>
  <path class="cls-26" d="M802.4,555.6c2.3-2.4,5-4.3,7.8-6.1.9,2,1.6,4,2.1,6.1,2.7,10.4,6.6,20.4,10.1,30.5-1.6.4-3.1.9-4.7,1.3-4.7-4.4-10.3-8.1-16.8-9.2,1-7.5,1.4-15.1,1.4-22.7Z"/>
  <path class="cls-163" d="M532.1,554.8c2.8,0,5.5,0,8.2,0-.1,13.3.2,26.7,0,40-2.8,0-5.6.5-8.4.8.2-13.6,0-27.2,0-40.8Z"/>
  <path class="cls-199" d="M795,561.2c2.3-2.1,4.7-4,7.4-5.6,0,7.6-.4,15.2-1.4,22.7-.8,8-2.2,15.9-4.1,23.7-2.4,9.9-5.9,19.6-10.3,28.8,0-2.2.6-4.4.9-6.6,0-1.9-2.2-2.1-3.4-3,.9-3,1.4-6.1,1.9-9.2.9-7.5,1.3-15,.9-22.5,1.6.2,3.2.3,4.8.5,1.6-9.6,2.7-19.2,3.3-28.9Z"/>
  <path class="cls-167" d="M419.8,569.7c5.2-1.6,5.1-9.5,11-9.6-.6,5.4-2.3,12.7-8.9,13.2-.4,1.8-.8,3.7-1.3,5.5-1-2.8-1-5.8-.9-8.8v-.4Z"/>
  <path class="cls-79" d="M340.2,564.3c4.7-.4,9.6.4,14.1-1.6,2.1,0,4.4-.2,6.4.7,2.6.9,5.4,3.2,7.9,1,8.4,3.9,17.1,7.3,25.6,11,.4.2,1.3.6,1.7.8-.1,6.3,0,12.6,0,18.9.1,22.1.3,44.2-.1,66.3-1-8,0-16-.8-24,.6-7.1,0-14.3.1-21.4,0-3.5.2-7-.7-10.4-7.4-2-14.9,0-22.4.4-14-.1-28,0-42,0-3.8-.2-7.9,1.7-11.5-.1-.6,1.4-1.3,2.9-1.9,4.4-.3-2.4-.6-4.9-.9-7.3-.2.6-.7,1.7-.9,2.2-.3-1.5-.7-3-.7-4.5,0-9.1-1.6-18.2-2.3-27.3.3-2.4.9-4.7,1.5-7,4.7-.2,9.4-.3,14.1-.3,4.4,0,8.6-1.4,13-1.6Z"/>
  <path class="cls-23" d="M413.4,572.3c1.5-3,3.6-5.6,5.5-8.4.1.5.3,1.6.4,2.2.2,1.2.3,2.4.5,3.6v.4c-1.1.1-2.2.2-3.3.4-1.2,4.5-1.8,9.2-.8,13.8-1.2,1-2.2,2.2-3.2,3.4-.1-1.5-.3-2.9-.4-4.3.5-3.7.5-7.4,1.3-11Z"/>
  <path class="cls-198" d="M628.8,569c.2,3.5-.1,6.9-.1,10.4,1-2.3,1.5-4.8,1.8-7.3.4,1.2.8,2.5,1.2,3.8.3-1.2.5-2.5.8-3.7,1,0,2,0,3.1,0,.4,1,.8,2,1.1,3.1,1.3.9,2.7,1.9,4.1,2.8,1.5.2,2.9.4,4.4.7.5-.8,1-1.6,1.5-2.4.4,1.3.8,2.6,1.2,3.8.8-2.4,1.4-4.9,1.6-7.4,6.8,94.1,17,187.9,29.8,281.3.5,4.8,2,9.7.9,14.5-16.2.1-32.5.4-48.7.5-.3-18-.8-36-1.5-54-.3-7.6-.4-15.3-.8-22.9-.2-5-.2-10-.5-15-.6-19.9-1.2-39.9-1.7-59.8,0-13-.6-25.9-1-38.9,0-12.4-.9-24.9-.9-37.3,1.2-6.5,1.8-13.6-.6-19.9-.4-3.6-.4-7.3-.4-11,1.4-6.4,1-13,.9-19.5,0-2-.7-3.8-1.5-5.6-.2-1.7-.3-3.4-.3-5.1.9-1.3,1.9-2.4,3-3.5.6-2.7,1.5-5.3,2.8-7.8Z"/>
  <path class="cls-177" d="M416.5,570.5c1.1-.1,2.2-.2,3.3-.4-.2,2.9-.1,5.9.9,8.8-.8,2.4-2.9,4-4.9,5.4-1-4.6-.5-9.3.8-13.8Z"/>
  <path class="cls-197" d="M258.2,577.9c1.6-1.9,3.1-3.8,4.6-5.8,0,5.1.2,10.1.7,15.2-.4,16.6,0,33.2-.9,49.7h0c-1.2-3.9-.2-8-.8-12,0-1.4-1.3-1.6-2.2-2.1-.4,1.4-.9,2.8-1.3,4.2-.5-.5-1.4-1.4-1.8-1.8-2.8,1-4.9,3-7.2,4.7-1.8.4-3.7.5-5.6.9-.1,1-.2,2.1-.4,3.2-2.4.3-4.7.2-7.1.3-.6,1.4-1.2,2.9-1.9,4.3-.6-10.6-.1-21.3,0-31.9.6-5.2-.1-10.5.9-15.6.5-2.1.9-4.3,1.3-6.4.9-.7,1.9-1.3,2.9-2,.5.1,1,.2,1.6.3,1-1.4,2.1-2.8,3.1-4.2,2-.5,4-1,6-1.5,1.6.6,3.2,1.2,4.8,1.8.5-.9,1.1-1.8,1.6-2.6.6.4,1.2.8,1.8,1.3Z"/>
  <path class="cls-46" d="M407.1,574.7c1.6-.3,3.2-.7,4.8-1.1-.2,3.2-.2,6.5.2,9.7.1,1.4.3,2.9.4,4.3-1.8,2.8-5.4,2.8-8.3,3.6-2.3,2.2-5.2,3.3-8.3,3.8,0-6.3-.1-12.6,0-18.9v-.7c.1,5.9,0,11.8.6,17.7.7-2.7.8-5.6,1.3-8.3,1.5-2.9,3.8-5.4,5.8-7.9.2,3.6-.4,7.4.9,10.9.4-4.4.3-9,2.4-13.1Z"/>
  <path class="cls-231" d="M398.1,579.8c2.5-2.5,5.1-5.3,9-5.1-2.1,4.1-2,8.7-2.4,13.1-1.4-3.5-.7-7.3-.9-10.9-2,2.5-4.3,4.9-5.8,7.9-.5,2.8-.6,5.6-1.3,8.3-.6-5.9-.5-11.8-.6-17.7.7,1.5,1.4,2.9,2.1,4.3Z"/>
  <path class="cls-121" d="M801,578.4c6.5,1,12,4.8,16.8,9.2,1.6-.5,3.1-.9,4.7-1.3h.3c1,2.2,2.2,4.4,3.4,6.6,3.8,8.8,9.3,16.8,15.1,24.4-2.5,5-5.8,9.5-9,14.1-1,0-2.1.1-3.1.2-1.2-3-3.9-4.6-6.5-6.2-6.3-6.6-13.3-12.6-19.4-19.5-.4.2-.8.4-1.2.6-1.8-1.3-3.5-2.8-5.2-4.3,1.9-7.8,3.3-15.7,4.1-23.7Z"/>
  <path class="cls-130" d="M867.8,583.1c0-2.7,2.6-4.9,5.3-4.7,6.4-.2,12.9,0,19.4,0-3.7,2.5-7.5,5.2-10,9-.8,2.4-.4,5-.4,7.5-4.8,1.2-9.7.9-14.6.9.2-4.3,0-8.6.3-12.8Z"/>
  <path class="cls-148" d="M892.4,578.5c6.5-.2,13.1-.6,19.5.2,4.6,1.8,2.6,7.7,3.8,11.4.4,1.2.9,2.4,1.4,3.7-11.6.7-23.4-.5-35,1.2,0-2.5-.4-5.1.4-7.5,2.5-3.8,6.3-6.5,10-9Z"/>
  <path class="cls-27" d="M752.3,585.4c.5-1.1.8-2.4,1.6-3.4,11.1,2.2,21.9,5.3,33,7.6.4,7.5,0,15-.9,22.5-5.7-3.9-11.8-7.4-16.8-12.2-5.1-5.5-11.1-10-17-14.6Z"/>
  <path class="cls-22" d="M623.4,585.3c.8,1.8,1.5,3.6,1.5,5.6.2,6.5.5,13.1-.9,19.5-.3-8.4-.5-16.7-.6-25.1Z"/>
  <path class="cls-31" d="M752.3,585.4c5.8,4.6,11.9,9.1,17,14.6.4,7.3,1.4,14.9-1.3,21.9-2.1,5.5-3.6,11.2-6.6,16.2-1.8,1.2-4.1,1.7-6.1,2.4-.9-1.6-2.4-3.3-1.6-5.3,1.1-4.9,3.7-9.9,2.2-15-1.7-6.1-4.8-11.9-4.3-18.3-.2.2-.5.5-.6.7-2.7,3.1-5.2,6.3-8.1,9.2.5-4.5,0-9.1,1.5-13.4,2.4-4.5,6.5-8,8.1-12.9Z"/>
  <path class="cls-5" d="M915.7,590.1c6.1.7,12.3-.4,18.3.9,2.4.4,1.9,3.2,2.1,5,.2,44,.1,87.9.2,131.9,3.7.2,7.4.2,11.1.5-3.4.7-6.9.9-10.4,1.1.5.5,1,1,1.6,1.5,0,1.1,0,2.2,0,3.4,2,.4,4.1.7,6.1,1.1v.9c-12.8,0-25.6.1-38.5,0,.9-6.6.6-13.3.6-20-4.9,0-9.8,0-14.7,0-.2,6.7-.9,13.4.6,20-7.5-.3-14.9-.1-22.4-.2,0-14.1,0-28.3,0-42.5-5.4,0-10.8,0-16.2,0,0-11.3,0-22.6,0-34,1.5-.2,2.9-.3,4.4-.3h.5c7.6.6,15.3.7,22.9.3.4-3.6.4-7.3.3-10.9,0-18,.4-35.9-.2-53.9,11.6-1.6,23.3-.5,35-1.2-.5-1.2-1-2.4-1.4-3.7Z"/>
  <path class="cls-97" d="M532,595.6c2.8-.3,5.6-.7,8.4-.8.6,0,1.9.2,2.6.2-.4,1-.7,2.1-1,3.1,9.2,3.5,18.7,5.8,28.1,8.6-.2,10.1-.2,20.2-.4,30.2,0,2.2,0,4.5.4,6.7,2.4,1.6,5.1,2.6,7.7,3.9.1,5.2-.4,10.5.7,15.6-10.2,1.1-20.5.7-30.7.3-2.3-.9-4.5-2.1-6.7-3.1.2-3.4,0-6.7-.2-10.1-5.7,0-11.4.6-17.1,0,.5-1.2.9-2.3,1.3-3.5,5,0,10,.1,15,0,.2-7.4-.1-14.8-.3-22.2-4.6-.3-9.3-.2-13.9,0-.5,1.3-1,2.6-1.4,3.9-2.2-8.2-2.2-16.9-4.4-25.1-.1-2.6-.2-5.2-.2-7.8,4.1-.1,8.2,0,12.2-.3Z"/>
  <path class="cls-124" d="M867.5,595.9c4.9,0,9.8.3,14.6-.9.5,18,.2,35.9.2,53.9-4.1,0-8.8-1.1-12.6.9-1.6,2.8-1.3,6.3-1.6,9.4-3,.2-6,.4-9.1.3h-.5c0-4.4,0-8.8-.2-13.1,1.4-.6,2.1-1.8,1.8-3.3,0-15.7,0-31.4,0-47,2.5,0,5-.2,7.6-.1Z"/>
  <path class="cls-110" d="M769.3,599.9c5,4.8,11,8.3,16.8,12.2-.4,3.1-1,6.2-1.9,9.2-1.5,3-3.1,6-5.6,8.2-2.5,1.9-5.7,2.4-8.6,3.5-3.3,1-5.9,3.2-8.7,5.1,3.1-5,4.6-10.8,6.6-16.2,2.7-7,1.8-14.6,1.3-21.9Z"/>
  <path class="cls-189" d="M750.8,602.5c.2-.2.5-.5.6-.7-.5,6.5,2.6,12.3,4.3,18.3,1.5,5.1-1,10.1-2.2,15-.8,2,.7,3.7,1.6,5.3,1.6,2.5.9,5.7,1,8.5,0,16.3-1.1,32.6-.9,49-.6,14.8-1.7,29.6-.5,44.4,0,2.2.3,4.5.8,6.7-1.3,2.6-2.8,5.1-4.6,7.4-.4-2.1-.6-4.2-.9-6.3,2.1-1.8,1.5-4.8,1.6-7.2,0-8.5-3-16.5-5.2-24.5-3.3-11.5-7.9-22.7-12.2-33.8.4-2.8-.4-5.6-.9-8.4-.6-3.2,1.1-6.2,1.1-9.4,0-3.7-1-7.5.5-11,1.8-4.8,2.9-9.9,3.6-15-.7-.2-1.4-.3-2.1-.5,2-3.4.1-7-2-9.8,4.2-5.6,8.2-11.3,12-17.2,2-3.4,4.9-6.6,4.5-10.8Z"/>
  <path class="cls-62" d="M797,602.1c1.7,1.5,3.4,3,5.2,4.3.4-.2.8-.4,1.2-.6,6,6.9,13.1,12.9,19.4,19.5,2.5,1.7,5.2,3.3,6.5,6.2,1,0,2-.1,3.1-.2-2.7,4.6-5.9,8.8-8.6,13.4-1.9,3-4.2,5.8-6,8.9-1.1,1.8-2.2,3.7-3.4,5.5-.6.8-1.1,1.6-1.7,2.4-1.9,2.9-3.8,5.7-5.8,8.4.5-1.8,1-3.6,1.7-5.4-.8-.6-1.5-1.2-2.2-1.8-4.3-5.7-12.1-7.4-15.9-13.6.6-.8,1.1-1.7,1.7-2.5-2.2-2.3-4.6-4.2-7.3-5.9-.8.2-1.6.4-2.4.6-.5-.3-1.4-1-1.9-1.4,3-2.3,5.1-5.5,6.3-9.1,4.4-9.2,7.9-18.9,10.3-28.8Z"/>
  <path class="cls-18" d="M315.6,602.9c.3,2.4.6,4.9.9,7.3.6-1.5,1.3-2.9,1.9-4.4,3.6,1.9,7.7,0,11.5.1,14,0,28,0,42,0,7.4-.3,15-2.4,22.4-.4,1,3.4.7,6.9.7,10.4-.1,7.1.4,14.3-.1,21.4-.6,2.3-1.2,4.6-1.8,7-7.3,1.9-14.8,1.6-22.2.5-4-.5-8.1-1.1-12.1-.3-4.6,1-9.1-1.2-13.7-.4-3.4.5-6.8.7-10.2.7-5.7-.5-10.6,5-16.4,2.4-.8-3.7-.7-7.6-1-11.4-.3,2.1-.7,4.1-.9,6.2-.9-12.3-1.2-24.7-2.1-37.1.2-.6.7-1.7.9-2.2Z"/>
  <path class="cls-169" d="M750.8,602.5c.4,4.2-2.5,7.5-4.5,10.8-3.8,5.9-7.8,11.6-12,17.2-4.7,5.9-9.4,11.8-14.7,17.2-.9.9-2.1,2.2-1.1,3.5,5.3,11.1,11,22,15.8,33.3,4.4,11.2,8.9,22.3,12.2,33.8,2.2,8,5.1,16.1,5.2,24.5-.1,2.4.5,5.4-1.6,7.2-2.3,1.1-4.5,2.2-6.8,3.3-9.6-33.5-21.6-66.2-35.2-98.2,3.1-1.5,6.1-3.3,8.8-5.4-1.1-2-2.2-3.9-3.3-5.9-.5-.8-.9-1.7-1.3-2.5,0-.1.3-.3.4-.4,2.8-2.4,5.8-4.8,8.5-7.2,7.7-6.8,14.6-14.5,21.5-22,2.9-2.9,5.4-6.1,8.1-9.2Z"/>
  <path class="cls-66" d="M520,603.6c2.2,8.2,2.2,16.9,4.4,25.1.4-1.3.9-2.6,1.4-3.9.2,2.3.5,4.5.8,6.8,4.9-1.1,9.7-3.1,13.1-6.9.2,7.4.5,14.8.3,22.2-5,.1-10,0-15,0,0-10.6-2.3-21.1-4.9-31.4-.3-4-.2-8-.1-12Z"/>
  <path class="cls-93" d="M570.1,606.8c2.5.8,5,1.6,7.6,2.4.1,12.8,0,25.7.2,38.5-2.6-1.3-5.3-2.4-7.7-3.9-.5-2.2-.4-4.5-.4-6.7.2-10.1.2-20.2.4-30.2Z"/>
  <path class="cls-235" d="M200.2,622.4c.8-3.1,1.2-6.3,1.4-9.4.2,2.4.3,4.9.5,7.3,1.6-.2,3.3-.4,4.9-.6,2.6,2.8,5,6,8.3,8,3,1.8,6.1,3.5,9.1,5.4.7-.2,1.5-.5,2.2-.7.3.7.7,1.5,1,2.2.6-1,1.2-2,1.8-3,1.3,6-.7,12.4,1.8,18.1.5,1.4.4,2.9.4,4.3,0,22.2-.6,44.5-1.7,66.7-.3,1-.7,1.9-1,2.9-3.3-2.6-6.4-5.4-10.1-7.4-1.8-.9-2.7-2.7-3.7-4.3-2-.9-4.2-1.5-5.9-2.9-1.2-1.6-1.8-3.6-2.6-5.4-1.1,0-2.2-.1-3.2-.2-.4.9-.9,1.8-1.3,2.8-.8-4-1.2-8.1-1.5-12.2v-1c-.5-12.2-.2-24.4-.7-36.7.9-11.3-.4-22.7.5-34Z"/>
  <g>
    <path class="cls-74" d="M520.2,615.7c2.5,10.2,4.9,20.8,4.9,31.4-.4,1.2-.9,2.3-1.3,3.5,5.7.5,11.4-.1,17.1,0,.2,3.4.4,6.7.2,10.1-.7,13-.2,26-.6,39-1-2.4-2.1-4.8-3.2-7.1-.8,1.1-1.6,2.3-2.4,3.5-.5-.9-1.1-1.8-1.6-2.6l-.9,2.6c-1.7-.2-3.8.2-5-1.3-1-1.5-1.6-3.2-2.3-4.7-.6-.3-1.8-.8-2.4-1.1,0-12.4,0-24.7-.4-37.1-1.1-1.4-2.6-2.6-2.3-4.5.1-10.5-.5-20.9,0-31.4Z"/>
    <path class="cls-74" d="M431,660.2c6.4-1.1,11.6-5.3,15.3-10.4,1.2,11.2,1.2,22.6,2.2,33.8.5,6.6,1.1,13.3.4,19.9-1.1-2.4-1.9-5-2.4-7.5-.3,1.6-.7,3.3-1,5-.9-.9-1.7-1.8-2.6-2.8-3.3.3-6.6.7-9.9.9-4.5.5-8.8-1.4-12.5-3.6-.6-3.3-.4-6.8-.5-10.1-.9.3-1.8.7-2.6,1-3.5-2.3-7.4-4-11.4-5-.3-.5-.5-1-.8-1.5-3.5-1.4-6-4.3-9.2-6.1,0-3.9,0-7.8,0-11.7,1.7-.4,3.5-.7,5.2-.9,5.1-.4,10.2-.3,15.1-1.6,4.9.4,9.8,2,14.7.6Z"/>
  </g>
  <path class="cls-221" d="M163.4,661.3c1.8-13.1,0-26.4,1.2-39.5.8,2.3,1.4,4.7,1.9,7,.3-1.6.6-3.1.9-4.7,4.9-.6,9.9-.7,14.5,1.5,4.1-1.8,8.6-2.6,13.1-2.3-.6,1.3-1.2,2.6-1.6,3.9.6,1.1,2.1,1.2,3.1,1.8-.3.9-.5,1.8-.8,2.8,1.7,3.1,3.6,6.4,3.5,10.1,0,4.8-.2,9.6.7,14.4.5,12.2.2,24.4.6,36.7-.7-.6-1.5-1.1-2.2-1.7-3.3-.3-6.5-.9-9.8-.8-1-.6-2-1.3-2.9-1.9-.2.4-.5,1.2-.6,1.6-1.8-.6-3.5-1.1-5.3-1.6.4-.5.8-.9,1.1-1.3-4.4-.5-8.6-1.9-12.4-4.1-.7.4-1.4.9-2.1,1.4-1.3-5.9-1.8-11.9-2.8-17.9-.3-1.8-.2-3.6,0-5.4Z"/>
  <path class="cls-42" d="M624.4,621.4c2.5,6.2,1.9,13.4.6,19.9-.6-6.6-.4-13.2-.6-19.9Z"/>
  <path class="cls-168" d="M784.2,621.3c1.1.9,3.4,1.1,3.4,3-.3,2.2-.9,4.3-.9,6.6-1.2,3.5-3.3,6.8-6.3,9.1-7,3.6-15.1,4.7-22.8,3.8-1.4,32.9-1.2,65.8-2.8,98.7-1.2-14.8-.1-29.6.5-44.4-.2-16.3.9-32.6.9-49-.1-2.8.6-6-1-8.5,2.1-.7,4.3-1.1,6.1-2.4,2.8-1.9,5.5-4.1,8.7-5.1,2.9-1.1,6.1-1.6,8.6-3.5,2.5-2.2,4.1-5.3,5.6-8.2Z"/>
  <path class="cls-134" d="M525.9,624.8c4.6-.3,9.3-.4,13.9,0-3.4,3.8-8.2,5.8-13.1,6.9-.3-2.3-.5-4.6-.8-6.8Z"/>
  <path class="cls-233" d="M734.4,630.5c2.2,2.8,4.1,6.4,2,9.8.7.1,1.4.3,2.1.5-.8,5.1-1.8,10.2-3.6,15-1.5,3.5-.5,7.4-.5,11,0,3.2-1.7,6.2-1.1,9.4.5,2.8,1.4,5.5.9,8.4-4.8-11.3-10.5-22.2-15.8-33.3-1-1.4.2-2.6,1.1-3.5,5.3-5.4,10-11.3,14.7-17.2Z"/>
  <path class="cls-33" d="M263.5,639.1c.5-2.5,1-5.1,1.6-7.6,0,.7.2,2.2.3,2.9-.3,52.2-.9,104.4-1.4,156.6-.6,24.4-.6,48.7-1.8,73.1-.2,1.1-.4,2.2-.9,3.3-.8-13.4-.6-26.9-.7-40.3,0-33-.2-66,.2-99,0-22,1-44,1.1-66.1.2-8.3.1-16.7.7-25h0c.2.5.7,1.6.9,2.1Z"/>
  <path class="cls-111" d="M84.2,634.2c.4,0,1.1,0,1.4,0-.1,21.5.2,43,0,64.5-2.6,0-5.2,0-7.9,0,0-.3.2-1,.3-1.3.7-2.4,1-4.9.9-7.4-.2-11.3.1-22.7,0-34,0-3.5.8-6.9,1.5-10.3.8,0,1.6-.2,2.3-.2,1-3.7,1.1-7.5,1.3-11.2Z"/>
  <path class="cls-139" d="M317.6,636c.2,3.8.1,7.7,1,11.4,5.7,2.6,10.7-3,16.4-2.4,3.4,0,6.8-.2,10.2-.7,4.6-.9,9.1,1.3,13.7.4,4-.8,8.1-.1,12.1.3,7.4,1.1,14.9,1.4,22.2-.5.5-2.4,1.1-4.7,1.8-7,.8,8-.2,16,.8,24,1.8,0,3.6-.1,5.4-.2-1.8.2-3.5.5-5.2.9-2.3.9-3.7,3-4.4,5.3-1.2-1.4-1.9-4-4.2-3.5-1,1-1.8,2.2-2.6,3.4-5.6-.4-11.3-.7-16.9.2-5.9,1-11.9.6-17.7-.3-6.9-1-13.7.2-20.5,1,.8.9,1.7,1.8,2.6,2.8-4.1-.8-8.2-1.2-12.4-.7-.6-1.5-1.3-3-1.9-4.5-1-7.8-.7-15.8-.9-23.6.2-2.1.6-4.1.9-6.2Z"/>
  <path class="cls-108" d="M416.1,637.3c6.9,0,13.9-.4,20.9.1,0,2.1,0,4.2,0,6.4,1.7.1,3.5.2,5.2.4,1.3.1,2.5.3,3.8.5,0,1.7.1,3.5.3,5.2-3.7,5.1-9,9.3-15.3,10.4-4.9,1.3-9.8-.2-14.7-.6-.3-7.4,0-14.9-.2-22.3Z"/>
  <path class="cls-3" d="M437,637.4c1.7.2,3.4.4,5.2.7,0,2,0,4.1.1,6.1-1.8-.2-3.5-.3-5.2-.4,0-2.1,0-4.2,0-6.4Z"/>
  <path class="cls-28" d="M613,641.2c4,0,8.1-.1,12.1,0,0,12.4.9,24.9.9,37.3-3.1,7.9,1,16.9-3.5,24.3-.3-2-.5-3.9-.8-5.8-1.3,2.2-2.4,4.4-3.5,6.7-.1-.6-.4-1.9-.5-2.5-.4.8-.9,1.6-1.3,2.4-.6-1.2-1.1-2.5-1.7-3.7-.6,1.4-1.3,2.9-1.8,4.4,0-21-.1-42.1,0-63.1Z"/>
  <path class="cls-162" d="M827.1,643.1c.9-1.1,2.6-.8,3.9-1.2.2,5.1.3,10.2.2,15.2-1.6-.1-3.3-.1-4.9-.2,0-4.6-.2-9.3.8-13.8Z"/>
  <path class="cls-180" d="M713.6,643.9c1.1,2,2.2,4,3.3,5.9-2.8,2.1-5.8,3.9-8.8,5.4,13.6,32,25.6,64.8,35.2,98.2,2.2-1.1,4.5-2.2,6.8-3.3.3,2.1.6,4.2.9,6.3,1.8-2.3,3.3-4.8,4.6-7.4,10.1-16.1,19.4-32.8,30.5-48.2-1.2,17.8-.3,35.5,0,53.3.4,13.7.8,27.3,1.3,41,.5,20.2,1.1,40.4,1.8,60.7.2,2.9,0,5.8.3,8.6-24.6,1.7-49.3,2.7-73.9,3.3,9.7-3.1,20-.9,29.9-3,6.6.5,13.3-.2,19.9-1-.7-7.1-.1-14.3-.9-21.4-1.1-9.7-.1-19.5-1.3-29.3-.2-8-.5-16.1-1.2-24.1.3-8.7-1.3-17.3-1.1-25.9,0-2.1-.2-4.1-.4-6.1-1.2,7.3-.4,14.8-.6,22.1-.2,11.5.6,23-1.5,34.4-5.7-9-8.4-19.5-12.6-29.2-3.9-9.5-7.7-19.2-11.2-28.8-6.4-15.9-12.8-31.9-19.1-47.9-5-14.3-11-28.2-16.4-42.4-1.2-2.9-2.3-5.9-3.2-8.9,6-3.8,14-5.6,17.7-12.3Z"/>
  <path class="cls-125" d="M137.5,678.7c.2-11.4-.3-22.8,0-34.1.8.3,2.2.8,3,1,.4,11.1.3,22.2.1,33.2-1.1,0-2.1,0-3.2-.1Z"/>
  <path class="cls-89" d="M446,644.7c1.3.2,2.6.4,3.8.6.7,21.3-.4,42.7,0,64-.3-1.9-.7-3.8-1.1-5.6.7-6.6.2-13.3-.4-19.9-1-11.3-1-22.6-2.2-33.8-.1-1.7-.2-3.5-.3-5.2Z"/>
  <path class="cls-118" d="M817.7,653.6c1.8-3.1,4.1-5.9,6-8.9.1,4.1.2,8.1,0,12.2-1.6,0-3.1,0-4.6,0-.5-1.1-1-2.2-1.5-3.3Z"/>
  <path class="cls-203" d="M142.5,646.2c1.2.2,2.3.4,3.5.7-.2,10.6,0,21.3-.4,31.9-1,0-2.1,0-3.1,0-.2-10.8,0-21.7,0-32.5Z"/>
  <path class="cls-208" d="M869.6,649.7c3.8-2,8.4-.8,12.6-.9.1,3.6,0,7.3-.3,10.9-7.6.4-15.3.3-22.9-.3,3,0,6-.2,9.1-.3.3-3.1,0-6.6,1.6-9.4Z"/>
  <path class="cls-141" d="M812.6,661.5c.5-.8,1.1-1.6,1.7-2.4,2.1,4.6,1,9.9,1,14.8-1,0-2.9,0-3.8,0,0-4.2.1-8.4,1.2-12.4Z"/>
  <path class="cls-13" d="M818.4,660.1c1.8-.1,3.6-.3,5.5-.4.1,4.8,0,9.6,0,14.4-1.9,0-3.7-.2-5.6-.3,0-4.6.2-9.2.1-13.8Z"/>
  <path class="cls-211" d="M826.4,660.2c1.6-.1,3.1-.3,4.7-.4.2,4.8.2,9.7.1,14.5-1.7-.1-3.3-.3-4.9-.4.1-4.6.2-9.2,0-13.8Z"/>
  <path class="cls-87" d="M540.5,699.5c.3-13-.2-26,.6-39,2.2,1.1,4.4,2.2,6.7,3.1-.2,10-.1,20,0,30-.3,11.6-.1,23.3,0,34.9-.1,3.8,0,7.6-.8,11.4-1.7,8-.3,16.3-.7,24.4-2-.3-4.1-.7-6.1-1,.6-10.6.5-21.2.2-31.8.2-10.7.3-21.4,0-32.1Z"/>
  <path class="cls-34" d="M578.5,663.3c1.4,7.9.4,16,.6,24-.6-1.1-1.2-2.1-1.8-3.1-.2,1.1-.4,2.2-.6,3.4-1.9-.9-3.8-2.4-6-1.9-5.1.7-10.3,1.4-15.5,1.5-1.2-.9-1.9-3.5-3.6-2.8-.5,1.1-.9,2.2-1.3,3.4-.4-1.2-.7-2.5-1.1-3.7,0,3.2-.3,6.5-1.6,9.6-.1-10-.2-20,0-30,10.2.3,20.5.8,30.7-.3Z"/>
  <path class="cls-59" d="M699.1,665c5.4,14.2,11.4,28.1,16.4,42.4,6.3,16,12.7,32,19.1,47.9,3.6,9.7,7.3,19.3,11.2,28.8,4.2,9.8,6.9,20.2,12.6,29.2,2.1-11.3,1.3-22.9,1.5-34.4.1-7.4-.6-14.8.6-22.1.2,2,.3,4.1.4,6.1-.2,8.7,1.4,17.3,1.1,25.9.7,8,1,16,1.2,24.1,1.2,9.7.2,19.5,1.3,29.3.7,7.1.2,14.3.9,21.4-6.6.8-13.3,1.5-19.9,1-3.1-.6-6.2-1-9.3-1-.2-3.3-.2-6.5-.2-9.8.2-7.4-1.1-14.7-1.7-22-2.3-23.3-4.8-46.5-8.8-69.6-1.1-7.5-1.7-15.1-3.4-22.5-5-15.5-12.2-30.2-17.4-45.6-3.2-7.5-6.9-14.9-8.9-22.8,2.2-1.5,3.5-3.7,3.3-6.4Z"/>
  <path class="cls-126" d="M163.3,666.7c1,5.9,1.5,12,2.8,17.9.7-.5,1.4-.9,2.1-1.4,3.8,2.2,8,3.6,12.4,4.1-.4.4-.8.8-1.1,1.3,1.8.5,3.5,1.1,5.3,1.6.2-.4.5-1.2.6-1.6,1,.6,2,1.3,2.9,1.9,3.3-.1,6.5.5,9.8.8.8.5,1.5,1.1,2.2,1.7v1c-4.5,1-9.1,2.1-13.6,3.3,1.1,7.9.3,16,.4,23.9-5.7.4-11.6.6-17.2-.9-4.7-1.5-9.2,1.6-14,1,0-2.4,0-4.8,0-7.2,2.1.1,4.2.3,6.3.5.3-1.2.6-2.4.7-3.6.3-14.8-.4-29.5.1-44.3Z"/>
  <path class="cls-94" d="M395.9,673.8c3.2,1.8,5.7,4.7,9.2,6.1.3.5.5,1,.8,1.5,4.1,1,7.9,2.7,11.4,5,.9-.4,1.8-.7,2.6-1,0,3.4,0,6.8.5,10.1,3.8,2.2,8.1,4.1,12.5,3.6,3.3-.2,6.6-.6,9.9-.9.9.9,1.7,1.8,2.6,2.8.3-1.7.7-3.3,1-5,.5,2.6,1.3,5.1,2.4,7.5.4,1.9.8,3.8,1.1,5.6.4,9.1,1.4,18.2,1.4,27.3-.6-1.6-1.2-3.1-1.8-4.7-3.3-.3-6.3-1.7-9.2-3.2-.5.4-1.5,1.2-2,1.7-.3-4.7-.3-9.4-.3-14.2-14.1-.1-28.1.1-42.2,0,.1-14.1,0-28.2,0-42.3Z"/>
  <path class="cls-212" d="M622.4,702.8c4.5-7.4.4-16.5,3.5-24.3.4,13,1,25.9,1,38.9-1.1,3.5-1.5,7.1-1.5,10.8-3-2-6.5-1.9-9.6-.2-.5-.5-.9-1-1.4-1.4-.5,1.7-1.1,3.4-1.6,5.1-.1-9.1-.1-18.2,0-27.3.6-1.5,1.2-2.9,1.8-4.4.5,1.2,1.1,2.4,1.7,3.7.4-.8.8-1.6,1.3-2.4.1.6.4,1.9.5,2.5,1.1-2.3,2.2-4.5,3.5-6.7.2,1.9.5,3.8.8,5.8Z"/>
  <path class="cls-164" d="M549.4,684c.3,1.2.7,2.5,1.1,3.7.4-1.1.8-2.3,1.3-3.4,1.8-.7,2.4,1.9,3.6,2.8,5.2,0,10.3-.8,15.5-1.5,2.2-.5,4.1,1,6,1.9.2-1.1.4-2.3.6-3.4.6,1,1.2,2,1.8,3.1,0,14.4.2,28.9,0,43.3-.7-2.4-1.2-4.7-1.7-7.1-5.2-3.4-11.5-1.5-17.2-2.6-3.9.4-7.9.1-11-2.4,0,3.4-.2,6.8-1.3,10.1-.2-11.6-.4-23.3,0-34.9,1.3-3,1.6-6.3,1.6-9.6Z"/>
  <path class="cls-10" d="M108.3,687.2c1.6-.5,2.1,0,1.6,1.7-1.6.5-2.1-.1-1.6-1.7Z"/>
  <g>
    <path class="cls-179" d="M522.8,688.7c.6.3,1.8.8,2.4,1.1.7,1.6,1.3,3.3,2.3,4.7,1.1,1.6,3.3,1.1,5,1.3l.9-2.6c.5.9,1,1.8,1.6,2.6.8-1.1,1.6-2.3,2.4-3.5,1.1,2.3,2.3,4.7,3.2,7.1.2,10.7.1,21.4,0,32.1-1.5-3-1.6-6.5-1.9-9.8-.3,2-.6,3.9-.8,5.9-.8-1.5-1.7-3-2.5-4.4-.8.5-1.7,1-2.5,1.5-1.2-.4-2.4-.8-3.5-1.3-1,1.4-2,2.9-2.9,4.3-.4-5.3.6-10.9-1.2-16.1-.5,0-1.4-.2-1.9-.3-.6-7.6-.4-15.1-.4-22.7Z"/>
    <path class="cls-179" d="M549.2,718.5c3.2,2.5,7.1,2.7,11,2.4,5.8,1.1,12-.8,17.2,2.6.4,2.4,1,4.8,1.7,7.1.4,4.3.3,8.6-.2,12.9-3.2-.3-4.7,3.2-7.1,4.7-1.9-.4-3.9-.6-5.9-.5-4.9.2-9.8-.8-14.7-1-1-1.6-2-3.1-3.1-4.7-.1,3.3-.4,6.7-.7,10-.3-4-.5-8.1-.4-12.1.9-3.7.7-7.6.8-11.4,1.1-3.2,1.4-6.7,1.3-10.1Z"/>
  </g>
  <path class="cls-116" d="M138.1,690.9c.9.4,1.8.8,2.7,1.2.1,4.3.1,8.6,0,12.9-.8,0-2.3.2-3.1.2-.1-4.8-.2-9.5.3-14.3Z"/>
  <path class="cls-90" d="M142.6,692.5c.9,0,1.8,0,2.7,0,.3,4,.4,8.1,0,12.2-1.1,1-2,1-2.9,0-.3-4,.1-8.1,0-12.1Z"/>
  <path class="cls-200" d="M805.7,699.8c1.8,0,3.7,0,5.5.1,0,2-.1,3.9-.2,5.9-1.7,0-3.4,0-5.1,0,0-2-.2-4.1-.2-6.1Z"/>
  <path class="cls-65" d="M203.3,703.4c1.1,0,2.2.1,3.2.2.8,1.8,1.4,3.7,2.6,5.4,1.7,1.4,3.9,2,5.9,2.9,1,1.6,1.9,3.5,3.7,4.3,3.7,2,6.9,4.8,10.1,7.4.3-1,.7-1.9,1-2.9.2,18.1-.9,36.2-1.6,54.3-7.7,0-15.4.2-23.1,0,0-12.9,0-25.8.1-38.6,8,0,16,.2,23.9-.3,0-1.9,0-3.9,0-5.8-8,0-16,0-24.1-.2-.1-5.2.2-10.5-.5-15.7-.7,1.8-1.3,3.6-1.9,5.4-2.3-4.1-.9-9.1-.6-13.5.4-.9.9-1.9,1.3-2.8Z"/>
  <path class="cls-153" d="M805.9,710c1.7,0,3.5-.1,5.2-.2,0,2.7,0,5.4,0,8.1-1.7,0-3.4,0-5.1,0,0-2.6,0-5.3,0-7.9Z"/>
  <path class="cls-214" d="M525,711.7c1.8,5.1.7,10.8,1.2,16.1,1-1.4,2-2.9,2.9-4.3,1.2.4,2.4.9,3.5,1.3.8-.5,1.6-1,2.5-1.5.9,1.5,1.7,3,2.5,4.4.2-2,.5-3.9.8-5.9.3,3.3.4,6.7,1.9,9.8.3,10.6.3,21.2-.2,31.8-5.1-.8-10.3-1.5-15.4-2.4,0-16.4-.2-32.8.2-49.3Z"/>
  <path class="cls-16" d="M113.6,716.5c2.5-.6,5-.4,7.5-.5.3,2,.6,4,.8,6-3.5.3-7.1.2-10.7,0,.7-1.8.6-4.2,2.3-5.4Z"/>
  <path class="cls-225" d="M892.1,716.3c4.9,0,9.8,0,14.7,0,0,6.7.3,13.4-.6,20-4.5,0-9,.1-13.5,0-1.4-6.6-.8-13.4-.6-20Z"/>
  <path class="cls-194" d="M625.5,728.2c0-3.6.3-7.3,1.5-10.8.5,19.9,1.1,39.9,1.7,59.8-27.4-4.6-55-8.2-82.4-12.8.4-8.1-1-16.4.7-24.4,0,4,.2,8.1.4,12.1.4-3.3.6-6.7.7-10,1,1.6,2,3.1,3.1,4.7,4.9.2,9.8,1.2,14.7,1,2,0,4,.1,5.9.5,2.4-1.5,3.9-5.1,7.1-4.7,2.2.3,4.4.6,6.6.7,0-2.5-.7-5.4,1-7.6,2.9-4.3,8.3-6.8,13.4-6,4.4.4,7.9,4,9.4,8,.8,2.2-.1,6.5,3.5,5.9-.1-4.3-.2-8.7.1-13,.5-1.7,1-3.4,1.6-5.1.5.5.9.9,1.4,1.4,3.1-1.6,6.6-1.7,9.6.2Z"/>
  <path class="cls-138" d="M81.8,721.7c.7.1,2.1.4,2.7.5,0,2.6,0,5.3-.3,7.9-.5,0-1.6,0-2.1,0-.3-2.8-.3-5.6-.3-8.4Z"/>
  <path class="cls-143" d="M57.5,723.1c1.6-.1,3.2-.2,4.8-.4.2,5.9.2,11.8.2,17.7-1.5-.4-3.9.6-4.9-.8-.3-5.5,0-11,0-16.5Z"/>
  <path class="cls-232" d="M440.3,728.7c2.9,1.5,5.9,2.8,9.2,3.2.6,1.5,1.2,3.1,1.8,4.7.4,1,.8,2,1.5,2.9,11.8,0,23.6-1.5,35.4-1.8,0,5.5,0,11,0,16.5-16.6-2.4-33-5.6-49.6-8.1-.2-5.2-.1-10.4-.5-15.6.5-.4,1.5-1.2,2-1.7Z"/>
  <path class="cls-182" d="M167,744.1c1.5.3,3.6-.4,4.6,1.1.3,5.5,0,11,0,16.6-1.7,0-3.4.1-5,.2-.3-5.9-.2-11.9.4-17.8Z"/>
  <path class="cls-100" d="M56.8,746c2.1.1,6-1.3,5.7,2.2-2.1-.2-4.6.1-5.7-2.2Z"/>
  <path class="cls-53" d="M803.2,753.1c7.1-.2,14.3-.5,21.5,0,0,1.3.1,2.7.2,4-7.6,0-15.3,0-22.9,0,.4-1.4.8-2.7,1.2-4Z"/>
  <path class="cls-174" d="M828.1,752.7c2.3,0,4.6,0,6.9.2.1,1.4.2,2.8.3,4.2-2.4,0-4.7-.1-7-.2,0-1.4-.2-2.8-.2-4.2Z"/>
  <path class="cls-165" d="M852.7,752.7c1.8,0,3.5.1,5.3.2,0,1.3,0,2.7,0,4.1-1.8,0-3.6.2-5.4.2,0-1.5,0-3,.1-4.5Z"/>
  <path class="cls-99" d="M872.2,753c5.2-.1,10.4-.2,15.6-.1-.2,1.4-.4,2.7-.6,4.1-4.7,0-9.3,0-13.9-.3-.4-1.2-.7-2.4-1.1-3.7Z"/>
  <path class="cls-210" d="M890.7,752.9c13.1-.1,26.2-.2,39.4,0,.1,1.4.2,2.8.4,4.1-13.5-.2-27.1.2-40.6-.1.3-1.3.6-2.6.9-3.9Z"/>
  <path class="cls-216" d="M57.7,754.6c1.5-.2,3.1-.5,4.5.1.4,1,.6,2,.7,3.1-1.9,0-3.8,0-5.7,0,.2-1.1.3-2.1.6-3.2Z"/>
  <path class="cls-92" d="M861.1,767.2c8-.6,16.2-1.2,24.2-.6-4.4.1-8.9.1-13.3.4.2,1,.4,2.1.9,3.1,4.1.5,8.3.2,12.4.4-8,.6-16,0-24,.2,0-1.2-.1-2.4-.2-3.5Z"/>
  <path class="cls-206" d="M801.6,766.9c11.8-.3,23.7-.6,35.5-.3.2,1.3.5,2.5.7,3.8-11.2,0-22.5.6-33.7.3-2.1,0-2-2.5-2.5-3.9Z"/>
  <path class="cls-119" d="M851.2,766.9c2.1-.1,4.2-.2,6.3-.2,0,1.4-.2,2.9-.2,4.3-2-.1-3.9-.3-5.9-.5,0-1.2-.1-2.4-.2-3.6Z"/>
  <path class="cls-222" d="M872,767c4.4-.3,8.9-.3,13.3-.4,0,1,0,2.9,0,3.9-4.1-.2-8.3.1-12.4-.4-.5-1-.6-2.1-.9-3.1Z"/>
  <path class="cls-112" d="M887.8,766.7c13.9-.2,27.9-.3,41.8-.2-.2,1.4-.3,2.9-.4,4.3-13.7,0-27.5.1-41.2,0,0-1.4-.1-2.8-.1-4.1Z"/>
  <path class="cls-73" d="M311.7,811.9c1-10.3,1.8-20.7,3-31,.2,1.4.5,2.8.7,4.2.2-1.2.5-2.3.7-3.5,5.2,5.2,13.3,3.4,19.2,7.1.3-.5.9-1.5,1.2-2.1,4.5.3,9.1.2,13.5,1.4,7.5,2.2,15.3.4,22.9,1.3,6.2.7,12.5,1,18.7,1.5.2,1,.4,2,.7,3,.8-.9,1.6-1.8,2.4-2.6.2,9.8.6,19.6.2,29.5-.6,1.7-1.2,3.4-1.7,5.1-4.5-3.1-10.2-1.1-15.2-2-6.6-1-13.4-.8-20.1-.7-4.2.4-7.8-2.4-12-2.2-7.1,0-14.3,1.5-21.2-.6-3.7-1.2-7.6-1.5-11.5-1.4-.6-2.3-1.2-4.6-1.6-6.9Z"/>
  <path class="cls-215" d="M45.2,792.1c23.9.5,47.8,0,71.7.2,27.7,0,55.4,0,83.1-.2,9.2,0,18.4.3,27.6-.4-.3,6-.4,12-.8,18h-.1c-1.4,1-2,2.5-1.9,4.2-.4,7,.2,14.1-.3,21.1-1.2-11.3.8-22.9-1.8-34.1-.5,1.3-.9,2.7-1.6,3.9-1.3,1-2.9,1.5-4.5,2.2.1-1.7.2-3.4.2-5.1-1.8,0-3.1,1.4-4.5,2.3-4.5,3.6-9.9,5.9-14.1,9.8-4,3.6-7.9,7.2-11.8,10.9-8.6,4.2-16.1,10.3-23.2,16.6,1.6.3,3.2.5,4.9.8-3.5.3-7.6,0-9.9,3.1.7,1.3,1.3,2.7,2,4.1-1.3-.2-2.7-.4-4-.5-2.1,3-5.6,4-9.1,4.2,1.3.4,2.5.8,3.8,1.3-4.7,1.3-9.6,1.1-14.4,2.2-18.9-1.5-37.8-4.1-56.5-7.7-9.4-2-19-4-27.6-8.5-3.5-2-7.4-5-7.1-9.5,0-13,0-26,0-39Z"/>
  <path class="cls-127" d="M395.8,792.1c34.7.3,69.4,0,104.2.1,43.1,0,86.1.1,129.2,0,.4,7.6.5,15.3.8,22.9-36.3.5-72.6.7-108.9,1.9-29.8,1-59.5,2.1-89.2,5.2-7.7,1-15.9,1-22.9,4.9,2.9,2.5,6.6,3.7,10.3,4.5,17.8,3.7,35.9,5.5,53.9,8.1,5.9.9,12,1,17.8,2.9-8-1.1-16-.7-24-1.5-23.8-1.5-47.6-2.3-71.4-3.7.3-15.1.1-30.1.2-45.2Z"/>
  <path class="cls-171" d="M789.6,792.3c38.8-.4,77.6,0,116.4-.2,24.8-.1,49.7.3,74.5-.1,0,12.7,0,25.3,0,38,.4,5-3.9,8.5-7.9,10.7-9,4.8-19.2,6.6-29.1,8.8-26.6,5-53.6,7.8-80.5,10.2-24.2,2.4-48.6,3.2-72.9,5.1-.4-2.9-.8-5.9-.9-8.9-.7-20.2-1.3-40.4-1.8-60.7.7-1,1.4-1.9,2.2-2.9Z"/>
  <path class="cls-186" d="M308.6,835.8c1-8,1.8-16,3.1-24,.4,2.3,1,4.6,1.6,6.9,3.9,0,7.8.1,11.5,1.4,6.9,2.1,14.2.7,21.2.6,4.2-.2,7.8,2.6,12,2.2,6.7-.1,13.4-.4,20.1.7,5.1.9,10.7-1.1,15.2,2,.6-1.7,1.2-3.4,1.7-5.1.4,5.5.3,11,.1,16.6-.7,3.2-1.4,6.3-2.1,9.5-3.2-3.2-7.8-3.4-12-3.6-5.1,0-10.4-.7-15.1,1.8-3.9-2.2-8.4-3.2-12.9-2.8-5.4.2-10.7-1.1-16-1-7.7.2-15.2-1.4-22.8-2.4-1.4-.2-2.7.2-4,.6-.5-1.1-1.1-2.3-1.6-3.4Z"/>
  <path class="cls-217" d="M303.2,866.8c2.2-10.2,3.5-20.6,5.3-30.9.5,1.1,1,2.3,1.6,3.4,1.3-.3,2.7-.8,4-.6,7.6,1,15.1,2.6,22.8,2.4,5.4,0,10.6,1.2,16,1,4.5-.3,9,.6,12.9,2.8,4.6-2.5,10-1.9,15.1-1.8,4.2.1,8.8.4,12,3.6.7-3.2,1.5-6.3,2.1-9.5l.4,1.4c.1,10.1.1,20.3,0,30.4-24.9,0-49.7-.9-74.6-1.2-5.9-.2-11.9.4-17.7-.9Z"/>
</svg>