<svg width="25" height="25" viewBox="0 0 25 25" fill="none" xmlns="http://www.w3.org/2000/svg">
<g clip-path="url(#clip0_236_25548)">
<path d="M20.625 0H4.375C1.95875 0 0 1.95875 0 4.375V20.625C0 23.0412 1.95875 25 4.375 25H20.625C23.0412 25 25 23.0412 25 20.625V4.375C25 1.95875 23.0412 0 20.625 0Z" fill="#D6E5F6"/>
<path d="M21.25 11.5625H17.3438V8.59375C17.3438 7.86719 18.1797 7.8125 18.4375 7.8125H21.0938V3.75H18.4375C15.4961 3.75 13.2812 5.83203 13.2812 8.59375V11.5625H10V15.625H13.2812V25H17.3438V15.625H20.625L21.25 11.5625Z" fill="#072C46"/>
</g>
<defs>
<clipPath id="clip0_236_25548">
<rect width="25" height="25" fill="white"/>
</clipPath>
</defs>
</svg>
