<svg width="45" height="45" viewBox="0 0 45 45" fill="none" xmlns="http://www.w3.org/2000/svg">
<path d="M22.5 43.5938C10.8689 43.5938 1.40625 34.1311 1.40625 22.5C1.40625 17.3728 3.26672 12.4312 6.64734 8.58516C6.90469 8.29406 7.34906 8.26734 7.64016 8.52187C7.93125 8.77781 7.95937 9.22359 7.70484 9.51469C4.54922 13.102 2.8125 17.7145 2.8125 22.5C2.8125 33.3562 11.6438 42.1875 22.5 42.1875C33.3562 42.1875 42.1875 33.3562 42.1875 22.5C42.1875 11.6438 33.3562 2.8125 22.5 2.8125C18.9788 2.8125 15.525 3.75188 12.5114 5.53078C12.1809 5.72344 11.7478 5.61656 11.5495 5.28188C11.3513 4.94859 11.4623 4.51688 11.7984 4.31859C15.0272 2.41313 18.727 1.40625 22.5 1.40625C34.1311 1.40625 43.5938 10.8689 43.5938 22.5C43.5938 34.1311 34.1311 43.5938 22.5 43.5938Z" fill="#2180EC"/>
<path d="M22.5 40.0781C12.8067 40.0781 4.92188 32.1933 4.92188 22.5C4.92188 12.8067 12.8067 4.92188 22.5 4.92188C32.1933 4.92188 40.0781 12.8067 40.0781 22.5C40.0781 32.1933 32.1933 40.0781 22.5 40.0781ZM22.5 6.32812C13.583 6.32812 6.32812 13.583 6.32812 22.5C6.32812 31.417 13.583 38.6719 22.5 38.6719C31.417 38.6719 38.6719 31.417 38.6719 22.5C38.6719 13.583 31.417 6.32812 22.5 6.32812Z" fill="#2180EC"/>
<path d="M29.1797 11.6296C28.9969 11.6296 28.8141 11.5593 28.6861 11.4327C28.5455 11.2921 28.4766 11.1093 28.4766 10.9265C28.4766 10.7437 28.5469 10.5608 28.6861 10.4343C28.9533 10.1671 29.4188 10.1671 29.6705 10.4343C29.8125 10.5608 29.8814 10.7437 29.8814 10.9265C29.8814 11.1093 29.8125 11.2921 29.6719 11.4187C29.5453 11.5593 29.3625 11.6296 29.1797 11.6296Z" fill="#2180EC"/>
<path d="M15.8203 34.7751C15.6375 34.7751 15.4547 34.6907 15.3267 34.5656C15.1861 34.4235 15.1172 34.2421 15.1172 34.072C15.1172 33.8891 15.1875 33.7063 15.3141 33.5671C15.5813 33.3126 16.0594 33.3126 16.3125 33.5671C16.4545 33.7077 16.5234 33.8891 16.5234 34.072C16.5234 34.2407 16.4531 34.4235 16.3252 34.5656C16.1859 34.6921 16.0031 34.7751 15.8203 34.7751Z" fill="#2180EC"/>
<path d="M34.072 16.5234C33.8892 16.5234 33.7064 16.4531 33.5798 16.3252C33.4392 16.1845 33.3689 16.0031 33.3689 15.8203C33.3689 15.6375 33.4406 15.4547 33.5672 15.3267C33.847 15.0469 34.3111 15.0609 34.5656 15.3267C34.6922 15.4547 34.7751 15.6375 34.7751 15.8203C34.7751 16.0031 34.7048 16.1859 34.5656 16.3125C34.4391 16.4531 34.2548 16.5234 34.072 16.5234Z" fill="#2180EC"/>
<path d="M10.9266 29.8828C10.7438 29.8828 10.575 29.8125 10.4344 29.6845C10.2924 29.5312 10.2234 29.3484 10.2234 29.1797C10.2234 28.9969 10.2938 28.8281 10.4217 28.6861C10.7311 28.4062 11.1656 28.4203 11.4342 28.6861C11.5608 28.8141 11.6311 28.9969 11.6311 29.1797C11.6311 29.3625 11.5608 29.5453 11.4342 29.6719C11.2922 29.8125 11.1234 29.8828 10.9266 29.8828Z" fill="#2180EC"/>
<path d="M35.8594 23.203C35.6766 23.203 35.4938 23.1327 35.3658 22.9921C35.2266 22.8655 35.1562 22.6827 35.1562 22.4999C35.1562 22.3171 35.2266 22.1343 35.3658 22.0063C35.6203 21.7405 36.0844 21.7405 36.3502 21.9922C36.4922 22.1343 36.5625 22.3171 36.5625 22.4999C36.5625 22.6827 36.4922 22.8655 36.3642 22.9921C36.225 23.1327 36.0422 23.203 35.8594 23.203Z" fill="#2180EC"/>
<path d="M9.14062 23.203C8.95781 23.203 8.775 23.1327 8.64703 22.9921C8.50781 22.8655 8.4375 22.6827 8.4375 22.4999C8.4375 22.3171 8.50781 22.1343 8.64703 22.0063C8.90156 21.7405 9.36562 21.7405 9.63141 21.9922C9.77344 22.1343 9.84375 22.3171 9.84375 22.4999C9.84375 22.6827 9.77344 22.8655 9.64547 22.9921C9.50625 23.1327 9.32344 23.203 9.14062 23.203Z" fill="#2180EC"/>
<path d="M34.072 29.8828C33.8892 29.8828 33.7064 29.8125 33.5672 29.6845C33.4406 29.5439 33.3689 29.3625 33.3689 29.1797C33.3689 28.9969 33.4406 28.8141 33.5672 28.6861C33.847 28.4062 34.3111 28.4203 34.5656 28.6861C34.6922 28.8141 34.7751 28.9969 34.7751 29.1797C34.7751 29.3625 34.7048 29.5453 34.5656 29.6719C34.4391 29.8125 34.2548 29.8828 34.072 29.8828Z" fill="#2180EC"/>
<path d="M10.9266 16.5234C10.7438 16.5234 10.575 16.4531 10.4344 16.3252C10.2924 16.1719 10.2234 15.9891 10.2234 15.8203C10.2234 15.6375 10.2938 15.4687 10.4217 15.3267C10.7311 15.0469 11.1656 15.0609 11.4342 15.3267C11.5608 15.4547 11.6311 15.6375 11.6311 15.8203C11.6311 16.0031 11.5608 16.1859 11.4342 16.3125C11.2922 16.4531 11.108 16.5234 10.9266 16.5234Z" fill="#2180EC"/>
<path d="M29.1797 34.7752C28.9969 34.7752 28.8141 34.7049 28.6861 34.5783C28.5455 34.4237 28.4766 34.2549 28.4766 34.0721C28.4766 33.8893 28.5469 33.7065 28.6734 33.5673C28.9547 33.3001 29.4061 33.3127 29.6719 33.5673C29.8139 33.7079 29.8828 33.8893 29.8828 34.0721C29.8828 34.2408 29.8125 34.4237 29.6845 34.5657C29.5453 34.7063 29.3625 34.7752 29.1797 34.7752Z" fill="#2180EC"/>
<path d="M15.8203 11.6297C15.6375 11.6297 15.4547 11.5594 15.3267 11.4201C15.1875 11.2922 15.1172 11.108 15.1172 10.9265C15.1172 10.7451 15.1875 10.5609 15.3267 10.4344C15.5813 10.1672 16.0453 10.1672 16.3111 10.4203C16.4531 10.5609 16.522 10.7423 16.522 10.9251C16.522 11.108 16.4531 11.2922 16.3125 11.4187C16.1719 11.5594 16.0031 11.6297 15.8203 11.6297Z" fill="#2180EC"/>
<path d="M22.5 36.5625C22.3172 36.5625 22.1484 36.4922 22.0064 36.3642C21.8672 36.2109 21.7969 36.0422 21.7969 35.8594C21.7969 35.6766 21.8672 35.4937 21.9938 35.3658C22.2891 35.0859 22.7391 35.1 22.9922 35.3658C23.1328 35.4937 23.2031 35.6766 23.2031 35.8594C23.2031 36.0422 23.1328 36.225 22.9922 36.3516C22.8656 36.4922 22.6828 36.5625 22.5 36.5625Z" fill="#2180EC"/>
<path d="M22.5 9.84374C22.3172 9.84374 22.1484 9.77343 22.0064 9.64546C21.8672 9.50624 21.7969 9.32343 21.7969 9.14062C21.7969 8.94234 21.8672 8.77499 21.9938 8.64703C22.2891 8.36718 22.7391 8.38124 22.9922 8.64703C23.1328 8.77499 23.2031 8.95781 23.2031 9.14062C23.2031 9.32343 23.1328 9.50624 23.0048 9.63281C22.8656 9.77343 22.6828 9.84374 22.5 9.84374Z" fill="#2180EC"/>
<path d="M31.4494 13.5506C31.1752 13.2764 30.7294 13.2764 30.4552 13.5506L22.8431 21.1627C23.3367 21.2906 23.7094 21.6633 23.8374 22.1569L31.4494 14.5449C31.725 14.2692 31.725 13.8249 31.4494 13.5506Z" fill="#2180EC"/>
<path d="M22.1569 21.1627L13.5507 12.5565C13.2764 12.2823 12.8307 12.2823 12.5564 12.5565C12.2822 12.8307 12.2822 13.2765 12.5564 13.5507L21.1627 22.157C21.2907 21.6634 21.6633 21.2907 22.1569 21.1627Z" fill="#2180EC"/>
<path d="M22.5 24.6094C21.337 24.6094 20.3906 23.663 20.3906 22.5C20.3906 21.337 21.337 20.3906 22.5 20.3906C23.663 20.3906 24.6094 21.337 24.6094 22.5C24.6094 23.663 23.663 24.6094 22.5 24.6094ZM22.5 21.7969C22.1133 21.7969 21.7969 22.1133 21.7969 22.5C21.7969 22.8867 22.1133 23.2031 22.5 23.2031C22.8867 23.2031 23.2031 22.8867 23.2031 22.5C23.2031 22.1133 22.8867 21.7969 22.5 21.7969Z" fill="#2180EC"/>
<path d="M10.5469 6.32812C10.5469 6.71484 10.2305 7.03125 9.84375 7.03125C9.45703 7.03125 9.14062 6.71484 9.14062 6.32812C9.14062 5.94141 9.45703 5.625 9.84375 5.625C10.2305 5.625 10.5469 5.94141 10.5469 6.32812Z" fill="#2180EC"/>
</svg>
