<?xml version="1.0" encoding="UTF-8"?>
<svg id="Layer_1" xmlns="http://www.w3.org/2000/svg" version="1.1" xmlns:xlink="http://www.w3.org/1999/xlink" viewBox="0 0 500 500">
  <!-- Generator: Adobe Illustrator 29.1.0, SVG Export Plug-In . SVG Version: 2.1.0 Build 142)  -->
  <defs>
    <style>
      .st0 {
        fill: #493110;
      }

      .st0, .st1, .st2, .st3, .st4, .st5, .st6, .st7, .st8, .st9, .st10, .st11, .st12, .st13, .st14, .st15, .st16, .st17, .st18, .st19, .st20, .st21, .st22, .st23, .st24, .st25, .st26, .st27, .st28, .st29, .st30, .st31, .st32, .st33, .st34, .st35, .st36, .st37, .st38, .st39 {
        fill-rule: evenodd;
      }

      .st40 {
        clip-path: url(#clippath-6);
      }

      .st41 {
        clip-path: url(#clippath-7);
      }

      .st42, .st21 {
        fill: #9acdff;
      }

      .st43 {
        clip-path: url(#clippath-4);
      }

      .st1 {
        fill: #694718;
      }

      .st2 {
        fill: #a45a04;
      }

      .st3 {
        fill: #b4cbd9;
      }

      .st4 {
        fill: #ffc500;
      }

      .st5 {
        fill: #9eafbb;
      }

      .st44 {
        clip-path: url(#clippath-9);
      }

      .st45 {
        clip-path: url(#clippath-10);
      }

      .st6 {
        fill: #a9afb3;
      }

      .st7 {
        fill: #837561;
      }

      .st46 {
        fill: #15416b;
      }

      .st47 {
        fill: #4f6c8a;
      }

      .st8 {
        fill: #52c360;
      }

      .st48, .st9 {
        fill: #fff;
      }

      .st49 {
        clip-path: url(#clippath-11);
      }

      .st10 {
        fill: #713d00;
      }

      .st50, .st51 {
        fill: none;
      }

      .st11 {
        fill: #faf2e5;
      }

      .st12 {
        fill: #8c4d03;
      }

      .st13 {
        fill: #e4e4e4;
      }

      .st52 {
        clip-path: url(#clippath-1);
      }

      .st14 {
        fill: #3a2c18;
      }

      .st15 {
        fill: #583c15;
      }

      .st53 {
        clip-path: url(#clippath-5);
      }

      .st16 {
        fill: #89b6e2;
      }

      .st54 {
        clip-path: url(#clippath-8);
      }

      .st55 {
        clip-path: url(#clippath-3);
      }

      .st17 {
        fill: #8c652e;
      }

      .st18 {
        fill: #f8ae42;
      }

      .st51 {
        clip-rule: evenodd;
      }

      .st19 {
        fill: #c89e0c;
      }

      .st20 {
        fill: #698eb3;
      }

      .st22 {
        fill: #3b9746;
      }

      .st23 {
        fill: #85683f;
      }

      .st24 {
        fill: #536978;
      }

      .st25 {
        fill: #75572c;
      }

      .st26 {
        fill: #0c4a14;
      }

      .st27 {
        fill: #7d4503;
      }

      .st28 {
        fill: #7d5822;
      }

      .st29 {
        fill: #374650;
      }

      .st30 {
        fill: #432e10;
      }

      .st31 {
        fill: #ab8652;
      }

      .st56 {
        fill: #1f578e;
      }

      .st32 {
        fill: #64543e;
      }

      .st57 {
        clip-path: url(#clippath-2);
      }

      .st33 {
        fill: #d1eeff;
      }

      .st34 {
        fill: #4f402b;
      }

      .st35 {
        fill: #4f2d04;
      }

      .st36 {
        fill: #995404;
      }

      .st37 {
        fill: #7d551d;
      }

      .st58 {
        clip-path: url(#clippath);
      }

      .st38 {
        fill: #8cb9d4;
      }

      .st39 {
        fill: #6a4b20;
      }
    </style>
    <clipPath id="clippath">
      <path class="st51" d="M413.6,417.3c1.6-6.1,10.3-50.6,79.7-29.1-1.4,2.4-6.9,12.7-22.1,26.1-2.3,2-15.7,10.9-30.9,12.1-14,1.1-26.7-9.1-26.7-9.1h0Z"/>
    </clipPath>
    <clipPath id="clippath-1">
      <path class="st51" d="M413.8,417.3c8.3-2.9,68.9-20.3,30.9-114.1-3.2,2.2-16.8,11.1-33.7,33.8-.9,1.2-2.9,4.4-5,8.9-4,8.4-9.1,21.6-8,35.4,1.7,23.1,15.8,36,15.8,36h0Z"/>
    </clipPath>
    <clipPath id="clippath-2">
      <path class="st51" d="M86.4,417.3c-1.6-6.1-10.3-50.6-79.7-29.1,1.4,2.4,6.9,12.7,22.1,26.1,2.3,2,15.7,10.9,30.9,12.1,14,1.1,26.7-9.1,26.7-9.1h0Z"/>
    </clipPath>
    <clipPath id="clippath-3">
      <path class="st51" d="M86.2,417.3c-8.3-2.9-68.9-20.3-30.9-114.1,3.2,2.2,16.8,11.1,33.7,33.8.9,1.2,2.9,4.4,5,8.9,4,8.4,9.1,21.6,8,35.4-1.7,23.1-15.8,36-15.8,36h0Z"/>
    </clipPath>
    <clipPath id="clippath-4">
      <polygon class="st50" points="87.4 174.8 248.3 174.8 248.3 417.6 87.4 417.6 87.4 174.8 87.4 174.8"/>
    </clipPath>
    <clipPath id="clippath-5">
      <path class="st51" d="M116.5,327.7c0-.9.7-1.7,1.7-1.7h19.1c.9,0,1.7.7,1.7,1.7s-.7,1.7-1.7,1.7h-19.1c-.9,0-1.7-.7-1.7-1.7h0ZM102.5,327.7c0-.9.7-1.7,1.7-1.7h9.2c.9,0,1.7.7,1.7,1.7s-.7,1.7-1.7,1.7h-9.2c-.9,0-1.7-.7-1.7-1.7h0ZM142.3,327.7c0-.9.7-1.7,1.7-1.7h9.2c.9,0,1.7.7,1.7,1.7s-.7,1.7-1.7,1.7h-9.2c-.9,0-1.7-.7-1.7-1.7h0ZM95.1,319.1c0-.9.7-1.6,1.6-1.6h5.2c.9,0,1.6.7,1.6,1.6h0c0,1-.7,1.7-1.6,1.7h-5.2c-.9,0-1.6-.7-1.6-1.6h0ZM141.5,318.9c0-.8.7-1.5,1.5-1.5h3c.8,0,1.5.7,1.5,1.5v.4c0,.8-.7,1.5-1.5,1.5h-3c-.8,0-1.5-.7-1.5-1.5v-.4h0ZM95.1,327.7c0-.9.7-1.7,1.7-1.7h2.7c.9,0,1.7.7,1.7,1.7s-.7,1.7-1.7,1.7h-2.7c-.9,0-1.7-.7-1.7-1.7h0ZM156.3,327.7c0-.9.7-1.7,1.7-1.7h2.7c.9,0,1.7.7,1.7,1.7s-.7,1.7-1.7,1.7h-2.7c-.9,0-1.7-.7-1.7-1.7h0ZM106,319c0-.9.7-1.6,1.6-1.6h3.8c.9,0,1.6.7,1.6,1.6v.2c0,.9-.7,1.6-1.6,1.6h-3.8c-.9,0-1.6-.7-1.6-1.6v-.2h0ZM164,327.7c0-.9.7-1.7,1.7-1.7h2.7c.9,0,1.7.7,1.7,1.7s-.7,1.7-1.7,1.7h-2.7c-.9,0-1.7-.7-1.7-1.7h0ZM114.1,319c0-.9.7-1.6,1.6-1.6h2.3c.9,0,1.6.7,1.6,1.6v.2c0,.9-.7,1.6-1.6,1.6h-2.3c-.9,0-1.6-.7-1.6-1.6v-.2h0ZM171.4,327.7c0-.9.7-1.7,1.7-1.7h10.7c.9,0,1.7.7,1.7,1.7s-.7,1.7-1.7,1.7h-10.7c-.9,0-1.7-.7-1.7-1.7h0ZM120.6,319.1c0-.9.7-1.6,1.6-1.6h15.2c.9,0,1.6.7,1.6,1.6h0c0,1-.7,1.7-1.6,1.7h-15.2c-.9,0-1.6-.7-1.6-1.6h0ZM219.1,319.1c0,.9-.7,1.7-1.7,1.7h-19.1c-.9,0-1.7-.7-1.7-1.7s.7-1.7,1.7-1.7h19.1c.9,0,1.7.7,1.7,1.7h0ZM233.2,319.1c0,.9-.7,1.7-1.7,1.7h-9.2c-.9,0-1.7-.7-1.7-1.7s.7-1.7,1.7-1.7h9.2c.9,0,1.7.7,1.7,1.7h0ZM193.4,319.1c0,.9-.7,1.7-1.7,1.7h-9.2c-.9,0-1.7-.7-1.7-1.7s.7-1.7,1.7-1.7h9.2c.9,0,1.7.7,1.7,1.7h0ZM240.5,327.8c0,.9-.7,1.6-1.6,1.6h-5.2c-.9,0-1.6-.7-1.6-1.6h0c0-1,.7-1.7,1.6-1.7h5.2c.9,0,1.6.7,1.6,1.6h0ZM194.1,327.9c0,.8-.7,1.5-1.5,1.5h-3c-.8,0-1.5-.7-1.5-1.5v-.4c0-.8.7-1.5,1.5-1.5h3c.8,0,1.5.7,1.5,1.5v.4h0ZM240.5,319.1c0,.9-.7,1.7-1.7,1.7h-2.7c-.9,0-1.7-.7-1.7-1.7s.7-1.7,1.7-1.7h2.7c.9,0,1.7.7,1.7,1.7h0ZM179.4,319.1c0,.9-.7,1.7-1.7,1.7h-2.7c-.9,0-1.7-.7-1.7-1.7s.7-1.7,1.7-1.7h2.7c.9,0,1.7.7,1.7,1.7h0ZM229.7,327.8c0,.9-.7,1.6-1.6,1.6h-3.8c-.9,0-1.6-.7-1.6-1.6v-.2c0-.9.7-1.6,1.6-1.6h3.8c.9,0,1.6.7,1.6,1.6v.2h0ZM171.7,319.1c0,.9-.7,1.7-1.7,1.7h-2.7c-.9,0-1.7-.7-1.7-1.7s.7-1.7,1.7-1.7h2.7c.9,0,1.7.7,1.7,1.7h0ZM221.6,327.9c0,.9-.7,1.6-1.6,1.6h-2.3c-.9,0-1.6-.7-1.6-1.6v-.2c0-.9.7-1.6,1.6-1.6h2.3c.9,0,1.6.7,1.6,1.6v.2h0ZM164.3,319.1c0,.9-.7,1.7-1.7,1.7h-10.7c-.9,0-1.7-.7-1.7-1.7s.7-1.7,1.7-1.7h10.7c.9,0,1.7.7,1.7,1.7h0ZM215.1,327.8c0,.9-.7,1.6-1.6,1.6h-15.2c-.9,0-1.6-.7-1.6-1.6h0c0-1,.7-1.7,1.6-1.7h15.2c.9,0,1.6.7,1.6,1.6h0ZM116.5,278.1c0-.9.7-1.7,1.7-1.7h19.1c.9,0,1.7.7,1.7,1.7s-.7,1.7-1.7,1.7h-19.1c-.9,0-1.7-.7-1.7-1.7h0ZM102.5,278.1c0-.9.7-1.7,1.7-1.7h9.2c.9,0,1.7.7,1.7,1.7s-.7,1.7-1.7,1.7h-9.2c-.9,0-1.7-.7-1.7-1.7h0ZM142.3,278.1c0-.9.7-1.7,1.7-1.7h9.2c.9,0,1.7.7,1.7,1.7s-.7,1.7-1.7,1.7h-9.2c-.9,0-1.7-.7-1.7-1.7h0ZM95.1,269.4c0-.9.7-1.6,1.6-1.6h5.2c.9,0,1.6.7,1.6,1.6h0c0,1-.7,1.7-1.6,1.7h-5.2c-.9,0-1.6-.7-1.6-1.6h0ZM141.5,269.3c0-.8.7-1.5,1.5-1.5h3c.8,0,1.5.7,1.5,1.5v.4c0,.8-.7,1.5-1.5,1.5h-3c-.8,0-1.5-.7-1.5-1.5v-.4h0ZM95.1,278.1c0-.9.7-1.7,1.7-1.7h2.7c.9,0,1.7.7,1.7,1.7s-.7,1.7-1.7,1.7h-2.7c-.9,0-1.7-.7-1.7-1.7h0ZM156.3,278.1c0-.9.7-1.7,1.7-1.7h2.7c.9,0,1.7.7,1.7,1.7s-.7,1.7-1.7,1.7h-2.7c-.9,0-1.7-.7-1.7-1.7h0ZM106,269.4c0-.9.7-1.6,1.6-1.6h3.8c.9,0,1.6.7,1.6,1.6v.2c0,.9-.7,1.6-1.6,1.6h-3.8c-.9,0-1.6-.7-1.6-1.6v-.2h0ZM164,278.1c0-.9.7-1.7,1.7-1.7h2.7c.9,0,1.7.7,1.7,1.7s-.7,1.7-1.7,1.7h-2.7c-.9,0-1.7-.7-1.7-1.7h0ZM114.1,269.3c0-.9.7-1.6,1.6-1.6h2.3c.9,0,1.6.7,1.6,1.6v.2c0,.9-.7,1.6-1.6,1.6h-2.3c-.9,0-1.6-.7-1.6-1.6v-.2h0ZM171.4,278.1c0-.9.7-1.7,1.7-1.7h10.7c.9,0,1.7.7,1.7,1.7s-.7,1.7-1.7,1.7h-10.7c-.9,0-1.7-.7-1.7-1.7h0ZM120.6,269.4c0-.9.7-1.6,1.6-1.6h15.2c.9,0,1.6.7,1.6,1.6h0c0,1-.7,1.7-1.6,1.7h-15.2c-.9,0-1.6-.7-1.6-1.6h0ZM193.4,269.5c0,.9-.7,1.7-1.7,1.7h-9.2c-.9,0-1.7-.7-1.7-1.7s.7-1.7,1.7-1.7h9.2c.9,0,1.7.7,1.7,1.7h0ZM194.1,278.3c0,.8-.7,1.5-1.5,1.5h-3c-.8,0-1.5-.7-1.5-1.5v-.4c0-.8.7-1.5,1.5-1.5h3c.8,0,1.5.7,1.5,1.5v.4h0ZM179.4,269.5c0,.9-.7,1.7-1.7,1.7h-2.7c-.9,0-1.7-.7-1.7-1.7s.7-1.7,1.7-1.7h2.7c.9,0,1.7.7,1.7,1.7h0ZM171.7,269.5c0,.9-.7,1.7-1.7,1.7h-2.7c-.9,0-1.7-.7-1.7-1.7s.7-1.7,1.7-1.7h2.7c.9,0,1.7.7,1.7,1.7h0ZM164.3,269.5c0,.9-.7,1.7-1.7,1.7h-10.7c-.9,0-1.7-.7-1.7-1.7s.7-1.7,1.7-1.7h10.7c.9,0,1.7.7,1.7,1.7h0ZM116.5,380.5c0-.9.7-1.7,1.7-1.7h19.1c.9,0,1.7.7,1.7,1.7s-.7,1.7-1.7,1.7h-19.1c-.9,0-1.7-.7-1.7-1.7h0ZM102.5,380.5c0-.9.7-1.7,1.7-1.7h9.2c.9,0,1.7.7,1.7,1.7s-.7,1.7-1.7,1.7h-9.2c-.9,0-1.7-.7-1.7-1.7h0ZM142.3,380.5c0-.9.7-1.7,1.7-1.7h9.2c.9,0,1.7.7,1.7,1.7s-.7,1.7-1.7,1.7h-9.2c-.9,0-1.7-.7-1.7-1.7h0ZM95.1,371.8c0-.9.7-1.6,1.6-1.6h5.2c.9,0,1.6.7,1.6,1.6h0c0,1-.7,1.7-1.6,1.7h-5.2c-.9,0-1.6-.7-1.6-1.6h0ZM141.5,371.7c0-.8.7-1.5,1.5-1.5h3c.8,0,1.5.7,1.5,1.5v.4c0,.8-.7,1.5-1.5,1.5h-3c-.8,0-1.5-.7-1.5-1.5v-.4h0ZM95.1,380.5c0-.9.7-1.7,1.7-1.7h2.7c.9,0,1.7.7,1.7,1.7s-.7,1.7-1.7,1.7h-2.7c-.9,0-1.7-.7-1.7-1.7h0ZM106,371.7c0-.9.7-1.6,1.6-1.6h3.8c.9,0,1.6.7,1.6,1.6v.2c0,.9-.7,1.6-1.6,1.6h-3.8c-.9,0-1.6-.7-1.6-1.6v-.2h0ZM114.1,371.7c0-.9.7-1.6,1.6-1.6h2.3c.9,0,1.6.7,1.6,1.6v.2c0,.9-.7,1.6-1.6,1.6h-2.3c-.9,0-1.6-.7-1.6-1.6v-.2h0ZM120.6,371.8c0-.9.7-1.6,1.6-1.6h15.2c.9,0,1.6.7,1.6,1.6h0c0,1-.7,1.7-1.6,1.7h-15.2c-.9,0-1.6-.7-1.6-1.6h0ZM179.4,371.8c0,.9-.7,1.7-1.7,1.7h-2.7c-.9,0-1.7-.7-1.7-1.7s.7-1.7,1.7-1.7h2.7c.9,0,1.7.7,1.7,1.7h0ZM171.7,371.8c0,.9-.7,1.7-1.7,1.7h-2.7c-.9,0-1.7-.7-1.7-1.7s.7-1.7,1.7-1.7h2.7c.9,0,1.7.7,1.7,1.7h0ZM164.3,371.8c0,.9-.7,1.7-1.7,1.7h-10.7c-.9,0-1.7-.7-1.7-1.7s.7-1.7,1.7-1.7h10.7c.9,0,1.7.7,1.7,1.7h0ZM116.5,239.5c0-.9.7-1.7,1.7-1.7h19.1c.9,0,1.7.7,1.7,1.7s-.7,1.7-1.7,1.7h-19.1c-.9,0-1.7-.7-1.7-1.7h0ZM102.5,239.5c0-.9.7-1.7,1.7-1.7h9.2c.9,0,1.7.7,1.7,1.7s-.7,1.7-1.7,1.7h-9.2c-.9,0-1.7-.7-1.7-1.7h0ZM95.1,230.8c0-.9.7-1.6,1.6-1.6h5.2c.9,0,1.6.7,1.6,1.6h0c0,1-.7,1.7-1.6,1.7h-5.2c-.9,0-1.6-.7-1.6-1.6h0ZM141.5,230.7c0-.8.7-1.5,1.5-1.5h3c.8,0,1.5.7,1.5,1.5v.4c0,.8-.7,1.5-1.5,1.5h-3c-.8,0-1.5-.7-1.5-1.5v-.4h0ZM95.1,239.5c0-.9.7-1.7,1.7-1.7h2.7c.9,0,1.7.7,1.7,1.7s-.7,1.7-1.7,1.7h-2.7c-.9,0-1.7-.7-1.7-1.7h0ZM106,230.7c0-.9.7-1.6,1.6-1.6h3.8c.9,0,1.6.7,1.6,1.6v.2c0,.9-.7,1.6-1.6,1.6h-3.8c-.9,0-1.6-.7-1.6-1.6v-.2h0ZM114.1,230.7c0-.9.7-1.6,1.6-1.6h2.3c.9,0,1.6.7,1.6,1.6v.2c0,.9-.7,1.6-1.6,1.6h-2.3c-.9,0-1.6-.7-1.6-1.6v-.2h0ZM120.6,230.8c0-.9.7-1.6,1.6-1.6h15.2c.9,0,1.6.7,1.6,1.6h0c0,1-.7,1.7-1.6,1.7h-15.2c-.9,0-1.6-.7-1.6-1.6h0ZM116.5,345.1c0-.9.7-1.7,1.7-1.7h19.1c.9,0,1.7.7,1.7,1.7s-.7,1.7-1.7,1.7h-19.1c-.9,0-1.7-.7-1.7-1.7h0ZM102.5,345.1c0-.9.7-1.7,1.7-1.7h9.2c.9,0,1.7.7,1.7,1.7s-.7,1.7-1.7,1.7h-9.2c-.9,0-1.7-.7-1.7-1.7h0ZM142.3,345.1c0-.9.7-1.7,1.7-1.7h9.2c.9,0,1.7.7,1.7,1.7s-.7,1.7-1.7,1.7h-9.2c-.9,0-1.7-.7-1.7-1.7h0ZM95.1,336.4c0-.9.7-1.6,1.6-1.6h5.2c.9,0,1.6.7,1.6,1.6h0c0,1-.7,1.7-1.6,1.7h-5.2c-.9,0-1.6-.7-1.6-1.6h0ZM141.5,336.3c0-.8.7-1.5,1.5-1.5h3c.8,0,1.5.7,1.5,1.5v.4c0,.8-.7,1.5-1.5,1.5h-3c-.8,0-1.5-.7-1.5-1.5v-.4h0ZM95.1,345.1c0-.9.7-1.7,1.7-1.7h2.7c.9,0,1.7.7,1.7,1.7s-.7,1.7-1.7,1.7h-2.7c-.9,0-1.7-.7-1.7-1.7h0ZM156.3,345.1c0-.9.7-1.7,1.7-1.7h2.7c.9,0,1.7.7,1.7,1.7s-.7,1.7-1.7,1.7h-2.7c-.9,0-1.7-.7-1.7-1.7h0ZM106,336.4c0-.9.7-1.6,1.6-1.6h3.8c.9,0,1.6.7,1.6,1.6v.2c0,.9-.7,1.6-1.6,1.6h-3.8c-.9,0-1.6-.7-1.6-1.6v-.2h0ZM164,345.1c0-.9.7-1.7,1.7-1.7h2.7c.9,0,1.7.7,1.7,1.7s-.7,1.7-1.7,1.7h-2.7c-.9,0-1.7-.7-1.7-1.7h0ZM114.1,336.3c0-.9.7-1.6,1.6-1.6h2.3c.9,0,1.6.7,1.6,1.6v.2c0,.9-.7,1.6-1.6,1.6h-2.3c-.9,0-1.6-.7-1.6-1.6v-.2h0ZM171.4,345.1c0-.9.7-1.7,1.7-1.7h10.7c.9,0,1.7.7,1.7,1.7s-.7,1.7-1.7,1.7h-10.7c-.9,0-1.7-.7-1.7-1.7h0ZM120.6,336.4c0-.9.7-1.6,1.6-1.6h15.2c.9,0,1.6.7,1.6,1.6h0c0,1-.7,1.7-1.6,1.7h-15.2c-.9,0-1.6-.7-1.6-1.6h0ZM219.1,336.5c0,.9-.7,1.7-1.7,1.7h-19.1c-.9,0-1.7-.7-1.7-1.7s.7-1.7,1.7-1.7h19.1c.9,0,1.7.7,1.7,1.7h0ZM233.2,336.5c0,.9-.7,1.7-1.7,1.7h-9.2c-.9,0-1.7-.7-1.7-1.7s.7-1.7,1.7-1.7h9.2c.9,0,1.7.7,1.7,1.7h0ZM193.4,336.5c0,.9-.7,1.7-1.7,1.7h-9.2c-.9,0-1.7-.7-1.7-1.7s.7-1.7,1.7-1.7h9.2c.9,0,1.7.7,1.7,1.7h0ZM240.5,345.1c0,.9-.7,1.6-1.6,1.6h-5.2c-.9,0-1.6-.7-1.6-1.6h0c0-1,.7-1.7,1.6-1.7h5.2c.9,0,1.6.7,1.6,1.6h0ZM194.1,345.3c0,.8-.7,1.5-1.5,1.5h-3c-.8,0-1.5-.7-1.5-1.5v-.4c0-.8.7-1.5,1.5-1.5h3c.8,0,1.5.7,1.5,1.5v.4h0ZM240.5,336.5c0,.9-.7,1.7-1.7,1.7h-2.7c-.9,0-1.7-.7-1.7-1.7s.7-1.7,1.7-1.7h2.7c.9,0,1.7.7,1.7,1.7h0ZM179.4,336.5c0,.9-.7,1.7-1.7,1.7h-2.7c-.9,0-1.7-.7-1.7-1.7s.7-1.7,1.7-1.7h2.7c.9,0,1.7.7,1.7,1.7h0ZM229.7,345.2c0,.9-.7,1.6-1.6,1.6h-3.8c-.9,0-1.6-.7-1.6-1.6v-.2c0-.9.7-1.6,1.6-1.6h3.8c.9,0,1.6.7,1.6,1.6v.2h0ZM171.7,336.5c0,.9-.7,1.7-1.7,1.7h-2.7c-.9,0-1.7-.7-1.7-1.7s.7-1.7,1.7-1.7h2.7c.9,0,1.7.7,1.7,1.7h0ZM221.6,345.2c0,.9-.7,1.6-1.6,1.6h-2.3c-.9,0-1.6-.7-1.6-1.6v-.2c0-.9.7-1.6,1.6-1.6h2.3c.9,0,1.6.7,1.6,1.6v.2h0ZM164.3,336.5c0,.9-.7,1.7-1.7,1.7h-10.7c-.9,0-1.7-.7-1.7-1.7s.7-1.7,1.7-1.7h10.7c.9,0,1.7.7,1.7,1.7h0ZM215.1,345.1c0,.9-.7,1.6-1.6,1.6h-15.2c-.9,0-1.6-.7-1.6-1.6h0c0-1,.7-1.7,1.6-1.7h15.2c.9,0,1.6.7,1.6,1.6h0ZM116.5,295.4c0-.9.7-1.7,1.7-1.7h19.1c.9,0,1.7.7,1.7,1.7s-.7,1.7-1.7,1.7h-19.1c-.9,0-1.7-.7-1.7-1.7h0ZM102.5,295.4c0-.9.7-1.7,1.7-1.7h9.2c.9,0,1.7.7,1.7,1.7s-.7,1.7-1.7,1.7h-9.2c-.9,0-1.7-.7-1.7-1.7h0ZM142.3,295.4c0-.9.7-1.7,1.7-1.7h9.2c.9,0,1.7.7,1.7,1.7s-.7,1.7-1.7,1.7h-9.2c-.9,0-1.7-.7-1.7-1.7h0ZM95.1,286.8c0-.9.7-1.6,1.6-1.6h5.2c.9,0,1.6.7,1.6,1.6h0c0,1-.7,1.7-1.6,1.7h-5.2c-.9,0-1.6-.7-1.6-1.6h0ZM141.5,286.6c0-.8.7-1.5,1.5-1.5h3c.8,0,1.5.7,1.5,1.5v.4c0,.8-.7,1.5-1.5,1.5h-3c-.8,0-1.5-.7-1.5-1.5v-.4h0ZM95.1,295.4c0-.9.7-1.7,1.7-1.7h2.7c.9,0,1.7.7,1.7,1.7s-.7,1.7-1.7,1.7h-2.7c-.9,0-1.7-.7-1.7-1.7h0ZM156.3,295.4c0-.9.7-1.7,1.7-1.7h2.7c.9,0,1.7.7,1.7,1.7s-.7,1.7-1.7,1.7h-2.7c-.9,0-1.7-.7-1.7-1.7h0ZM106,286.7c0-.9.7-1.6,1.6-1.6h3.8c.9,0,1.6.7,1.6,1.6v.2c0,.9-.7,1.6-1.6,1.6h-3.8c-.9,0-1.6-.7-1.6-1.6v-.2h0ZM164,295.4c0-.9.7-1.7,1.7-1.7h2.7c.9,0,1.7.7,1.7,1.7s-.7,1.7-1.7,1.7h-2.7c-.9,0-1.7-.7-1.7-1.7h0ZM114.1,286.7c0-.9.7-1.6,1.6-1.6h2.3c.9,0,1.6.7,1.6,1.6v.2c0,.9-.7,1.6-1.6,1.6h-2.3c-.9,0-1.6-.7-1.6-1.6v-.2h0ZM171.4,295.4c0-.9.7-1.7,1.7-1.7h10.7c.9,0,1.7.7,1.7,1.7s-.7,1.7-1.7,1.7h-10.7c-.9,0-1.7-.7-1.7-1.7h0ZM120.6,286.8c0-.9.7-1.6,1.6-1.6h15.2c.9,0,1.6.7,1.6,1.6h0c0,1-.7,1.7-1.6,1.7h-15.2c-.9,0-1.6-.7-1.6-1.6h0ZM193.4,286.8c0,.9-.7,1.7-1.7,1.7h-9.2c-.9,0-1.7-.7-1.7-1.7s.7-1.7,1.7-1.7h9.2c.9,0,1.7.7,1.7,1.7h0ZM194.1,295.6c0,.8-.7,1.5-1.5,1.5h-3c-.8,0-1.5-.7-1.5-1.5v-.4c0-.8.7-1.5,1.5-1.5h3c.8,0,1.5.7,1.5,1.5v.4h0ZM179.4,286.8c0,.9-.7,1.7-1.7,1.7h-2.7c-.9,0-1.7-.7-1.7-1.7s.7-1.7,1.7-1.7h2.7c.9,0,1.7.7,1.7,1.7h0ZM171.7,286.8c0,.9-.7,1.7-1.7,1.7h-2.7c-.9,0-1.7-.7-1.7-1.7s.7-1.7,1.7-1.7h2.7c.9,0,1.7.7,1.7,1.7h0ZM164.3,286.8c0,.9-.7,1.7-1.7,1.7h-10.7c-.9,0-1.7-.7-1.7-1.7s.7-1.7,1.7-1.7h10.7c.9,0,1.7.7,1.7,1.7h0ZM116.5,256c0-.9.7-1.7,1.7-1.7h19.1c.9,0,1.7.7,1.7,1.7s-.7,1.7-1.7,1.7h-19.1c-.9,0-1.7-.7-1.7-1.7h0ZM102.5,256c0-.9.7-1.7,1.7-1.7h9.2c.9,0,1.7.7,1.7,1.7s-.7,1.7-1.7,1.7h-9.2c-.9,0-1.7-.7-1.7-1.7h0ZM142.3,256c0-.9.7-1.7,1.7-1.7h9.2c.9,0,1.7.7,1.7,1.7s-.7,1.7-1.7,1.7h-9.2c-.9,0-1.7-.7-1.7-1.7h0ZM95.1,247.4c0-.9.7-1.6,1.6-1.6h5.2c.9,0,1.6.7,1.6,1.6h0c0,1-.7,1.7-1.6,1.7h-5.2c-.9,0-1.6-.7-1.6-1.6h0ZM141.5,247.2c0-.8.7-1.5,1.5-1.5h3c.8,0,1.5.7,1.5,1.5v.4c0,.8-.7,1.5-1.5,1.5h-3c-.8,0-1.5-.7-1.5-1.5v-.4h0ZM95.1,256c0-.9.7-1.7,1.7-1.7h2.7c.9,0,1.7.7,1.7,1.7s-.7,1.7-1.7,1.7h-2.7c-.9,0-1.7-.7-1.7-1.7h0ZM106,247.3c0-.9.7-1.6,1.6-1.6h3.8c.9,0,1.6.7,1.6,1.6v.2c0,.9-.7,1.6-1.6,1.6h-3.8c-.9,0-1.6-.7-1.6-1.6v-.2h0ZM114.1,247.3c0-.9.7-1.6,1.6-1.6h2.3c.9,0,1.6.7,1.6,1.6v.2c0,.9-.7,1.6-1.6,1.6h-2.3c-.9,0-1.6-.7-1.6-1.6v-.2h0ZM120.6,247.4c0-.9.7-1.6,1.6-1.6h15.2c.9,0,1.6.7,1.6,1.6h0c0,1-.7,1.7-1.6,1.7h-15.2c-.9,0-1.6-.7-1.6-1.6h0ZM116.5,364.9c0-.9.7-1.7,1.7-1.7h19.1c.9,0,1.7.7,1.7,1.7s-.7,1.7-1.7,1.7h-19.1c-.9,0-1.7-.7-1.7-1.7h0ZM102.5,364.9c0-.9.7-1.7,1.7-1.7h9.2c.9,0,1.7.7,1.7,1.7s-.7,1.7-1.7,1.7h-9.2c-.9,0-1.7-.7-1.7-1.7h0ZM142.3,364.9c0-.9.7-1.7,1.7-1.7h9.2c.9,0,1.7.7,1.7,1.7s-.7,1.7-1.7,1.7h-9.2c-.9,0-1.7-.7-1.7-1.7h0ZM95.1,356.2c0-.9.7-1.6,1.6-1.6h5.2c.9,0,1.6.7,1.6,1.6h0c0,1-.7,1.7-1.6,1.7h-5.2c-.9,0-1.6-.7-1.6-1.6h0ZM141.5,356.1c0-.8.7-1.5,1.5-1.5h3c.8,0,1.5.7,1.5,1.5v.4c0,.8-.7,1.5-1.5,1.5h-3c-.8,0-1.5-.7-1.5-1.5v-.4h0ZM95.1,364.9c0-.9.7-1.7,1.7-1.7h2.7c.9,0,1.7.7,1.7,1.7s-.7,1.7-1.7,1.7h-2.7c-.9,0-1.7-.7-1.7-1.7h0ZM156.3,364.9c0-.9.7-1.7,1.7-1.7h2.7c.9,0,1.7.7,1.7,1.7s-.7,1.7-1.7,1.7h-2.7c-.9,0-1.7-.7-1.7-1.7h0ZM106,356.1c0-.9.7-1.6,1.6-1.6h3.8c.9,0,1.6.7,1.6,1.6v.2c0,.9-.7,1.6-1.6,1.6h-3.8c-.9,0-1.6-.7-1.6-1.6v-.2h0ZM164,364.9c0-.9.7-1.7,1.7-1.7h2.7c.9,0,1.7.7,1.7,1.7s-.7,1.7-1.7,1.7h-2.7c-.9,0-1.7-.7-1.7-1.7h0ZM172.7,364.9c0-.9.7-1.7,1.7-1.7h2.7c.9,0,1.7.7,1.7,1.7s-.7,1.7-1.7,1.7h-2.7c-.9,0-1.7-.7-1.7-1.7h0ZM114.1,356.1c0-.9.7-1.6,1.6-1.6h2.3c.9,0,1.6.7,1.6,1.6v.2c0,.9-.7,1.6-1.6,1.6h-2.3c-.9,0-1.6-.7-1.6-1.6v-.2h0ZM120.6,356.2c0-.9.7-1.6,1.6-1.6h15.2c.9,0,1.6.7,1.6,1.6h0c0,1-.7,1.7-1.6,1.7h-15.2c-.9,0-1.6-.7-1.6-1.6h0ZM116.5,310.9c0-.9.7-1.7,1.7-1.7h19.1c.9,0,1.7.7,1.7,1.7s-.7,1.7-1.7,1.7h-19.1c-.9,0-1.7-.7-1.7-1.7h0ZM102.5,310.9c0-.9.7-1.7,1.7-1.7h9.2c.9,0,1.7.7,1.7,1.7s-.7,1.7-1.7,1.7h-9.2c-.9,0-1.7-.7-1.7-1.7h0ZM142.3,310.9c0-.9.7-1.7,1.7-1.7h9.2c.9,0,1.7.7,1.7,1.7s-.7,1.7-1.7,1.7h-9.2c-.9,0-1.7-.7-1.7-1.7h0ZM95.1,302.2c0-.9.7-1.6,1.6-1.6h5.2c.9,0,1.6.7,1.6,1.6h0c0,1-.7,1.7-1.6,1.7h-5.2c-.9,0-1.6-.7-1.6-1.6h0ZM141.5,302.1c0-.8.7-1.5,1.5-1.5h3c.8,0,1.5.7,1.5,1.5v.4c0,.8-.7,1.5-1.5,1.5h-3c-.8,0-1.5-.7-1.5-1.5v-.4h0ZM95.1,310.9c0-.9.7-1.7,1.7-1.7h2.7c.9,0,1.7.7,1.7,1.7s-.7,1.7-1.7,1.7h-2.7c-.9,0-1.7-.7-1.7-1.7h0ZM156.3,310.9c0-.9.7-1.7,1.7-1.7h2.7c.9,0,1.7.7,1.7,1.7s-.7,1.7-1.7,1.7h-2.7c-.9,0-1.7-.7-1.7-1.7h0ZM106,302.2c0-.9.7-1.6,1.6-1.6h3.8c.9,0,1.6.7,1.6,1.6v.2c0,.9-.7,1.6-1.6,1.6h-3.8c-.9,0-1.6-.7-1.6-1.6v-.2h0ZM164,310.9c0-.9.7-1.7,1.7-1.7h2.7c.9,0,1.7.7,1.7,1.7s-.7,1.7-1.7,1.7h-2.7c-.9,0-1.7-.7-1.7-1.7h0ZM114.1,302.2c0-.9.7-1.6,1.6-1.6h2.3c.9,0,1.6.7,1.6,1.6v.2c0,.9-.7,1.6-1.6,1.6h-2.3c-.9,0-1.6-.7-1.6-1.6v-.2h0ZM171.4,310.9c0-.9.7-1.7,1.7-1.7h10.7c.9,0,1.7.7,1.7,1.7s-.7,1.7-1.7,1.7h-10.7c-.9,0-1.7-.7-1.7-1.7h0ZM120.6,302.2c0-.9.7-1.6,1.6-1.6h15.2c.9,0,1.6.7,1.6,1.6h0c0,1-.7,1.7-1.6,1.7h-15.2c-.9,0-1.6-.7-1.6-1.6h0ZM219.1,302.3c0,.9-.7,1.7-1.7,1.7h-19.1c-.9,0-1.7-.7-1.7-1.7s.7-1.7,1.7-1.7h19.1c.9,0,1.7.7,1.7,1.7h0ZM233.2,302.3c0,.9-.7,1.7-1.7,1.7h-9.2c-.9,0-1.7-.7-1.7-1.7s.7-1.7,1.7-1.7h9.2c.9,0,1.7.7,1.7,1.7h0ZM193.4,302.3c0,.9-.7,1.7-1.7,1.7h-9.2c-.9,0-1.7-.7-1.7-1.7s.7-1.7,1.7-1.7h9.2c.9,0,1.7.7,1.7,1.7h0ZM240.5,311c0,.9-.7,1.6-1.6,1.6h-5.2c-.9,0-1.6-.7-1.6-1.6h0c0-1,.7-1.7,1.6-1.7h5.2c.9,0,1.6.7,1.6,1.6h0ZM194.1,311.1c0,.8-.7,1.5-1.5,1.5h-3c-.8,0-1.5-.7-1.5-1.5v-.4c0-.8.7-1.5,1.5-1.5h3c.8,0,1.5.7,1.5,1.5v.4h0ZM240.5,302.3c0,.9-.7,1.7-1.7,1.7h-2.7c-.9,0-1.7-.7-1.7-1.7s.7-1.7,1.7-1.7h2.7c.9,0,1.7.7,1.7,1.7h0ZM179.4,302.3c0,.9-.7,1.7-1.7,1.7h-2.7c-.9,0-1.7-.7-1.7-1.7s.7-1.7,1.7-1.7h2.7c.9,0,1.7.7,1.7,1.7h0ZM229.7,311c0,.9-.7,1.6-1.6,1.6h-3.8c-.9,0-1.6-.7-1.6-1.6v-.2c0-.9.7-1.6,1.6-1.6h3.8c.9,0,1.6.7,1.6,1.6v.2h0ZM171.7,302.3c0,.9-.7,1.7-1.7,1.7h-2.7c-.9,0-1.7-.7-1.7-1.7s.7-1.7,1.7-1.7h2.7c.9,0,1.7.7,1.7,1.7h0ZM221.6,311c0,.9-.7,1.6-1.6,1.6h-2.3c-.9,0-1.6-.7-1.6-1.6v-.2c0-.9.7-1.6,1.6-1.6h2.3c.9,0,1.6.7,1.6,1.6v.2h0ZM164.3,302.3c0,.9-.7,1.7-1.7,1.7h-10.7c-.9,0-1.7-.7-1.7-1.7s.7-1.7,1.7-1.7h10.7c.9,0,1.7.7,1.7,1.7h0ZM215.1,311c0,.9-.7,1.6-1.6,1.6h-15.2c-.9,0-1.6-.7-1.6-1.6h0c0-1,.7-1.7,1.6-1.7h15.2c.9,0,1.6.7,1.6,1.6h0ZM200.2,229.2h40.3v49.5h-40.3v-49.5h0Z"/>
    </clipPath>
    <clipPath id="clippath-6">
      <path class="st51" d="M206.5,247.3h0c-.1,0-.2,0-.3-.1,0,0-.1-.2-.1-.3h0c0-.1,0-.2.1-.3,0,0,.2-.1.3-.1l2.4-9c-.2,0-.3-.2-.3-.4,0,0,0-.1,0-.2,0-.3.3-.6.6-.6s.4.1.5.3c0,0,0,0,0,0,0,0,0,.1,0,.2h9.4c.1-.5.6-.9,1.1-1,0,0,0,0,.1,0s0,0,0,0c0,0,0,0,.1,0,0,0,0,0,.1,0,0,0,0,0,.1,0,0,0,0,0,.1,0,0,0,0,0,.1,0,.3.2.6.5.7.8h9.4c0-.3.3-.5.6-.5s.4.1.5.3c0,0,0,0,0,0,0,0,0,.2,0,.3,0,.2-.1.4-.3.5l2.4,9c.1,0,.2,0,.3.1,0,0,.1.2.1.3h0c0,.1,0,.2-.1.3,0,0-.2.1-.3.1h0c-.2,1.3-1.3,2.2-2.6,2.2s-1.6-.4-2.1-1c-.3-.4-.5-.8-.6-1.3h0c-.1,0-.2,0-.3-.1,0,0-.1-.2-.1-.3h0c0-.1,0-.2.1-.3,0,0,.2-.1.3-.1l2.4-9c-.1,0-.2-.2-.3-.3h-9.4c0,.2,0,.4-.2.6h0v23s0,0,0,0c.1,0,.2,0,.3.1.1,0,.2,0,.3.1,1.3.7,2.2,2.1,2.2,3.7s-.2,1.3-.4,1.8c0,0,0,.1-.1.2h1.5c.6,0,1.1.2,1.5.6s.6.9.6,1.5v.4h1.7c1.2,0,2.1,1,2.1,2.1v.4h-22v-.4c0-1.2,1-2.1,2.1-2.1h1.7v-.4c0-.6.2-1.1.6-1.5s.9-.6,1.5-.6h1.5c0,0,0-.1-.1-.2,0,0,0-.1,0-.2,0-.1-.1-.2-.1-.4,0-.1,0-.2-.1-.4,0-.1,0-.2,0-.4,0-.1,0-.2,0-.4,0,0,0-.1,0-.2s0-.1,0-.2c0-.1,0-.2,0-.4.2-1.6,1.4-3,3-3.4v-23h0s0,0,0-.1c0,0,0,0,0-.1,0,0,0,0,0-.1,0,0,0,0,0-.1,0,0,0,0,0-.1,0,0,0,0,0,0h-9.4c0,.1-.2.2-.3.3l2.4,9c.1,0,.2,0,.3.1,0,0,.1.2.1.3h0c0,.1,0,.2-.1.3,0,0-.2.1-.3.1h0c-.2,1.3-1.3,2.2-2.6,2.2s-1.6-.4-2.1-1c-.3-.4-.5-.8-.6-1.3h0ZM234.1,246.5l-2.4-8.9s0,0,0,0,0,0,0,0l-2.4,8.9h4.8ZM209.1,237.5l-2.4,8.9h4.8l-2.4-8.9s0,0,0,0,0,0,0,0h0Z"/>
    </clipPath>
    <clipPath id="clippath-7">
      <polygon class="st51" points="171 288.8 192.9 309.2 160.5 344 138.5 323.5 171 288.8 171 288.8"/>
    </clipPath>
    <clipPath id="clippath-8">
      <polygon class="st51" points="128.7 323.9 160.8 353.9 165.6 348.8 133.5 318.8 128.7 323.9 128.7 323.9"/>
    </clipPath>
    <clipPath id="clippath-9">
      <polygon class="st51" points="116.3 333.3 152.3 366.9 160.3 358.2 124.4 324.6 116.3 333.3 116.3 333.3"/>
    </clipPath>
    <clipPath id="clippath-10">
      <polygon class="st51" points="160.3 290 192.4 320 171.2 342.8 139 312.8 160.3 290 160.3 290"/>
    </clipPath>
    <clipPath id="clippath-11">
      <polygon class="st51" points="196.7 332.3 183.7 346.2 262.2 412.9 268.6 405.9 196.7 332.3 196.7 332.3"/>
    </clipPath>
  </defs>
  <path class="st8" d="M413.6,417.3c1.6-6.1,10.3-50.6,79.7-29.1-1.4,2.4-6.9,12.7-22.1,26.1-2.3,2-15.7,10.9-30.9,12.1-14,1.1-26.7-9.1-26.7-9.1h0Z"/>
  <g class="st58">
    <path class="st22" d="M414.2,417.1c13.5-11.2,16.7-13,31.6-18.4,22.5-8.2,29.9-7.2,36.7-5.9-6.3,1.7-28.9,6.2-34.3,13.3-2.1,2.8,1.9,9,12.2,6,12.4-3.7,22.1-8.9,22.8-9.6-1.8,3.7-7.3,10.3-20.5,17.5-13.9,7.6-25.3,11.1-33.1,11"/>
    <path class="st26" d="M419.2,423.5s0,0,0,0h0s0,0,0,0h0ZM419.2,423.5c-.2.2-.4.3-.7.5-.1,0-.2.1-.3.2,0,0-.3.2-.7.4,0,0-.4.2-.7.3,0,0-.4.1-.8.2,0,0-.4,0-.8.1-.1,0-.3,0-.4,0-.3,0-.5,0-.8,0-.3,0-.5,0-.8,0-.3,0-.5,0-.8-.1-.3,0-.5-.1-.8-.2-.1,0-.2,0-.4-.1-.4-.1-.7-.3-.7-.3-.4-.2-.6-.3-.7-.4-.3-.2-.6-.4-.7-.4-.3-.2-.6-.5-.6-.5-.3-.3-.5-.5-.6-.6,0,0-.3-.3-.5-.6,0,0-.2-.3-.5-.7,0,0-.2-.3-.4-.7,0,0-.2-.4-.3-.7,0,0-.1-.4-.2-.7,0,0,0-.4-.1-.8,0,0,0-.4,0-.8,0-.6,0-1.1,0-1.2,0,0,0-.6.2-1.1,0-.4.2-.7.2-.7.1-.4.3-.7.3-.7.2-.4.3-.6.4-.7.2-.3.4-.6.4-.7.2-.3.5-.6.5-.6.3-.3.5-.5.6-.6,0,0,.3-.3.3-.3,22.1-15,52.7-23.2,73.6-18.8,0,0,0,0,0,0,0,0,.1,0,.2,0,0,0,0,0,.1.1,0,0,0,0,0,.1,0,0,0,.2,0,.2,0,0,0,.1,0,.2,0,0,0,0-.1.1,0,0,0,0-.1,0,0,0,0,0-.2,0-20.6,0-46.9,13.5-63.1,30.2h-.1Z"/>
  </g>
  <path class="st8" d="M413.8,417.3c8.3-2.9,68.9-20.3,30.9-114.1-3.2,2.2-16.8,11.1-33.7,33.8-.9,1.2-2.9,4.4-5,8.9-4,8.4-9.1,21.6-8,35.4,1.7,23.1,15.8,36,15.8,36h0Z"/>
  <g class="st52">
    <path class="st22" d="M418.9,408.7c13.6-24.6,11.7-25.4,19.5-50.6.5-1.5.3-1.4,2.4-19.1.8-6.9.8-8-1.2-20.3,1.2,3.1,4.6,16.3,4.7,38.6,0,19.8-15.4,39.2-13.7,40.7,6,5.3,13.4-7.6,25.7-29.3,1.7,4.4,6.2,15.2-16.8,39.1-10.9,11.4-17.3,11.8-26.9,11.9"/>
    <path class="st22" d="M436.8,363c-.5,1.7-4.4,14.3-10.3,20.1-1.1,1.1-5.4,2.9-7.3-7.4-.8-4.4-4.1-18.9-13.9-24.3-8-4.5-13.5,34.1-5.3,46.7,6.1,9.4,13,26,14,18.2,8.6-12.8,18.8-36.3,22.8-53.3h0Z"/>
    <path class="st26" d="M409.3,413.7c1.4-1.8,4.4-5.8,8-11.6,15.9-25.7,25.7-58.5,22.1-83.2,0,0,0,0,0,0,0,0,0,0,0-.1,0,0,0,0,0,0,0,0,0,0,0,0,0,0,0,0,0,0,0,0,0,0,.1,0,0,0,0,0,0,0,0,0,0,0,0,0,0,0,0,0,0,0,0,0,0,.3,0,.4,6.8,28.5-3.1,70.2-21.9,100.4-.1.2-.1.2-.3.4,0,0-.2.2-.3.4,0,0-.2.2-.4.4,0,0-.2.2-.4.3,0,0-.2.1-.4.3,0,0-.2.1-.5.2,0,0-.2.1-.5.2-.4.1-.7.2-.7.2,0,0-.4,0-.8,0-.3,0-.5,0-.5,0-.3,0-.5,0-.5,0-.3,0-.5,0-.5-.1-.3,0-.5-.1-.5-.2-.2,0-.4-.2-.5-.2-.2-.1-.4-.2-.5-.3-.2-.1-.4-.3-.4-.3,0,0-.2-.2-.4-.3,0,0-.2-.2-.4-.4,0,0-.2-.2-.3-.4,0,0-.1-.2-.3-.4,0,0-.1-.2-.2-.5,0,0-.1-.2-.2-.5-.1-.4-.2-.7-.2-.7,0-.2,0-.3,0-.5,0-.2,0-.3,0-.5,0,0,0-.2,0-.3,0-.3,0-.5,0-.5,0-.3,0-.5.1-.5,0-.3.1-.5.2-.5,0-.2.2-.4.2-.5,0-.2.1-.2.1-.2.1-.2.1-.2.3-.5h0ZM409.3,413.7s0,0,0,0h0s0,0,0,0h0Z"/>
  </g>
  <path class="st3" d="M250,421.4c134.3,0,243.3,2.3,243.3,5.1s-109,5.1-243.3,5.1-243.3-2.3-243.3-5.1,109-5.1,243.3-5.1h0Z"/>
  <path class="st8" d="M86.4,417.3c-1.6-6.1-10.3-50.6-79.7-29.1,1.4,2.4,6.9,12.7,22.1,26.1,2.3,2,15.7,10.9,30.9,12.1,14,1.1,26.7-9.1,26.7-9.1h0Z"/>
  <g class="st57">
    <path class="st22" d="M85.8,417.1c-13.5-11.2-16.7-13-31.6-18.4-22.5-8.2-29.9-7.2-36.7-5.9,6.3,1.7,28.9,6.2,34.3,13.3,2.1,2.8-1.9,9-12.2,6-12.4-3.7-22.1-8.9-22.8-9.6,1.8,3.7,7.3,10.3,20.5,17.5,13.9,7.6,25.3,11.1,33.1,11"/>
    <path class="st26" d="M80.8,423.5s0,0,0,0h0s0,0,0,0h0ZM80.8,423.5c-2.3-2.4-9.4-9.5-21.1-16.6-13.5-8.2-29-13.8-42.2-13.7,0,0,0,0-.2,0,0,0,0,0-.1,0,0,0,0,0-.1-.1,0,0,0-.2,0-.2,0,0,0-.1,0-.2,0,0,0,0,0-.1,0,0,0,0,.1-.1,0,0,.1,0,.2,0,0,0,.3,0,.4,0,20.9-4.3,51.4,4,73.3,18.9,0,0,.3.3.3.3,0,0,.3.3.6.6,0,0,.3.3.5.6,0,0,.2.3.4.7,0,0,.2.3.4.7,0,0,.2.4.3.7,0,0,.1.4.2.7.1.6.2,1,.2,1.1,0,0,0,.6,0,1.2,0,.4,0,.7,0,.8,0,.4-.1.7-.1.8,0,.4-.2.7-.2.7-.1.4-.3.7-.3.7-.2.4-.3.7-.4.7-.2.3-.4.6-.5.7-.2.3-.5.6-.5.6,0,0-.3.3-.6.6,0,0-.3.3-.6.5,0,0-.3.2-.7.4,0,0-.3.2-.7.4,0,0-.4.2-.7.3-.1,0-.2,0-.4.1-.2,0-.5.1-.8.2-.3,0-.5,0-.8.1-.3,0-.5,0-.8,0-.3,0-.5,0-.8,0-.1,0-.3,0-.4,0-.4,0-.7-.1-.8-.1-.4,0-.7-.2-.8-.2-.4-.1-.7-.3-.7-.3-.4-.2-.7-.3-.7-.4-.2-.1-.3-.2-.3-.2-.3-.2-.3-.3-.7-.5h0Z"/>
  </g>
  <path class="st8" d="M86.2,417.3c-8.3-2.9-68.9-20.3-30.9-114.1,3.2,2.2,16.8,11.1,33.7,33.8.9,1.2,2.9,4.4,5,8.9,4,8.4,9.1,21.6,8,35.4-1.7,23.1-15.8,36-15.8,36h0Z"/>
  <g class="st55">
    <path class="st22" d="M81.1,408.7c-13.6-24.6-11.7-25.4-19.5-50.6-.5-1.5-.3-1.4-2.4-19.1-.8-6.9-.8-8,1.2-20.3-1.2,3.1-4.6,16.3-4.7,38.6,0,19.8,15.4,39.2,13.7,40.7-6,5.3-13.4-7.6-25.7-29.3-1.7,4.4-6.2,15.2,16.8,39.1,10.9,11.4,17.3,11.8,26.9,11.9"/>
    <path class="st22" d="M63.2,363c.5,1.7,4.4,14.3,10.3,20.1,1.1,1.1,5.4,2.9,7.3-7.4.8-4.4,4.1-18.9,13.9-24.3,8-4.5,13.5,34.1,5.3,46.7-6.1,9.4-13,26-14,18.2-8.6-12.8-18.8-36.3-22.8-53.3h0Z"/>
    <path class="st26" d="M90.7,413.7c-1.4-1.8-4.4-5.8-8-11.6-15.9-25.7-25.7-58.5-22.1-83.2,0,0,0,0,0,0,0,0,0,0,0-.1,0,0,0,0,0,0,0,0,0,0,0,0,0,0,0,0,0,0,0,0,0,0-.1,0,0,0,0,0,0,0,0,0,0,0,0,0,0,0,0,0,0,0,0,0,0,.3,0,.4-6.8,28.5,3.1,70.2,21.9,100.4.1.2.1.2.3.4,0,0,.2.2.3.4,0,0,.2.2.4.4,0,0,.2.2.4.3,0,0,.2.1.4.3,0,0,.2.1.5.2,0,0,.2.1.5.2.4.1.7.2.7.2,0,0,.4,0,.8,0,.3,0,.5,0,.5,0,.3,0,.5,0,.5,0,.3,0,.5,0,.5-.1.3,0,.5-.1.5-.2.2,0,.4-.2.5-.2.2-.1.4-.2.5-.3.2-.1.4-.3.4-.3,0,0,.2-.2.4-.3,0,0,.2-.2.4-.4,0,0,.2-.2.3-.4,0,0,.1-.2.3-.4,0,0,.1-.2.2-.5,0,0,.1-.2.2-.5.1-.4.2-.7.2-.7,0-.2,0-.3,0-.5,0-.2,0-.3,0-.5,0,0,0-.2,0-.3,0-.3,0-.5,0-.5,0-.3,0-.5-.1-.5,0-.3-.1-.5-.2-.5,0-.2-.2-.4-.2-.5,0-.2-.1-.2-.1-.2-.1-.2-.1-.2-.3-.5h0ZM90.7,413.7s0,0,0,0h0s0,0,0,0h0Z"/>
  </g>
  <path class="st33" d="M252.6,83.4c92.8,0,168.2,73.5,168.2,164.1s-75.4,164.1-168.2,164.1-168.2-73.5-168.2-164.1S159.8,83.4,252.6,83.4h0Z"/>
  <path class="st38" d="M250,68.4c101.3,0,183.5,80.2,183.5,179s-82.2,179-183.5,179-183.5-80.2-183.5-179S148.7,68.4,250,68.4h0ZM250,69.8c-100.5,0-182.1,79.6-182.1,177.6s81.6,177.6,182.1,177.6,182.1-79.6,182.1-177.6-81.6-177.6-182.1-177.6h0Z"/>
  <polygon class="st25" points="242.5 210.1 242.5 426.5 341 426.5 341 210.1 242.5 210.1 242.5 210.1"/>
  <polygon class="st6" points="256.8 214.1 256.8 422.5 355.3 422.5 355.3 214.1 256.8 214.1 256.8 214.1"/>
  <polygon class="st18" points="275.3 210.1 275.3 426.5 373.8 426.5 373.8 210.1 275.3 210.1 275.3 210.1"/>
  <polygon class="st25" points="242.5 214.1 242.5 422.5 256.8 422.5 256.8 214.1 242.5 214.1 242.5 214.1"/>
  <polygon class="st11" points="283.5 244.5 283.5 278.1 365.6 278.1 365.6 244.5 283.5 244.5 283.5 244.5"/>
  <polygon class="st11" points="283.5 284.8 283.5 292 365.6 292 365.6 284.8 283.5 284.8 283.5 284.8"/>
  <polygon class="st11" points="291.7 293.9 291.7 296.7 357.7 296.7 357.7 293.9 291.7 293.9 291.7 293.9"/>
  <polygon class="st11" points="298.7 298.6 298.7 300.2 350.7 300.2 350.7 298.6 298.7 298.6 298.7 298.6"/>
  <polygon class="st29" points="293.1 210.1 293.1 426.5 391.6 426.5 391.6 210.1 293.1 210.1 293.1 210.1"/>
  <polygon class="st6" points="307.5 214.1 307.5 422.5 406 422.5 406 214.1 307.5 214.1 307.5 214.1"/>
  <polygon class="st24" points="326 210.1 326 426.5 424.5 426.5 424.5 210.1 326 210.1 326 210.1"/>
  <polygon class="st29" points="293.1 214.1 293.1 422.5 307.5 422.5 307.5 214.1 293.1 214.1 293.1 214.1"/>
  <polygon class="st5" points="334.2 244.5 334.2 278.1 416.3 278.1 416.3 244.5 334.2 244.5 334.2 244.5"/>
  <polygon class="st5" points="334.2 284.8 334.2 292 416.3 292 416.3 284.8 334.2 284.8 334.2 284.8"/>
  <polygon class="st5" points="342.4 293.9 342.4 296.7 408.3 296.7 408.3 293.9 342.4 293.9 342.4 293.9"/>
  <polygon class="st5" points="349.4 298.6 349.4 300.2 401.4 300.2 401.4 298.6 349.4 298.6 349.4 298.6"/>
  <path class="st47" d="M75.5,174.2c0-4.6,3.7-8.3,8.3-8.3h168c4.6,0,8.3,3.7,8.3,8.3v243.9c0,4.6-3.7,8.3-8.3,8.3H83.9c-4.6,0-8.3-3.7-8.3-8.3v-243.9h0Z"/>
  <polygon class="st48" points="87.4 174.8 248.3 174.8 248.3 417.6 87.4 417.6 87.4 174.8 87.4 174.8"/>
  <g class="st43">
    <path class="st13" d="M133,344.6l2.4-2.5-6.7-6.3,4.8-5.1,5.1,4.7,5.6-6-5.1-4.7,21.3-22.8,5.1,4.7,5.6-6-5.1-4.7,4.8-5.1,6.7,6.3,2.4-2.5-8.6-8,8.1-8.7,4.3,4,2.4-2.5,27.3,25.5-2.4,2.5,4.3,4-8.1,8.7-8.6-8-2.4,2.5,6.7,6.3-4.8,5.1-5.1-4.7-5.6,6,5.1,4.7-2.1,2.2,4.2,3.9-2.1,2.3,4.2,3.9,71.9,73.6,3.2-3.5,4.2,3.9,2.1-2.3,4.2,3.9-17.2,18.4-4.2-3.9,2.1-2.3-4.2-3.9,3.2-3.5-78.4-66.7-4.2-3.9-2.1,2.3-4.2-3.9-2.1,2.2-5.1-4.7-5.6,6,5.1,4.7-4.8,5.1-6.7-6.3-2.4,2.5,8.6,8-8.1,8.7-4.3-4-2.4,2.5-27.3-25.5,2.4-2.5-4.3-4,8.1-8.7,8.6,8h0ZM166.5,432.3h2.3c1.6,0,2.9,1.4,2.9,3s-1.3,3-2.9,3h-90.4c-1.6,0-2.9-1.4-2.9-3s1.3-3,2.9-3h2.3c0-6.3,4.9-11.5,11-11.5h-.9v-6.3h64.6v6.3c6.1,0,11,5.1,11,11.5h0Z"/>
    <path class="st13" d="M182.1,261.3h-.2c-.8,0-1.5-.3-2.1-.9-.5-.6-.9-1.3-.9-2.1h0c0-.8.3-1.5.9-2.1.5-.5,1.2-.8,2-.9l17.2-64.3c-1.1-.5-1.9-1.5-2.3-2.8-.1-.4-.2-.8-.2-1.2,0-2.4,2-4.4,4.4-4.4s2.9.8,3.6,2c.1.2.2.4.3.6.2.4.3.8.4,1.2h67.3c1-3.8,4.2-6.6,8.2-7,.3,0,.5,0,.8,0s0,0,.1,0c.3,0,.6,0,.9,0,.3,0,.6,0,.9.1.3,0,.5.1.8.2.3,0,.5.2.8.3.2.1.5.2.7.3,2.4,1.2,4.1,3.4,4.8,6h67.3c.3-2.1,2.1-3.7,4.3-3.7s2.9.8,3.6,2c.1.2.2.4.3.6.3.6.4,1.2.4,1.8,0,1.7-1,3.2-2.4,3.9l17.2,64.3c.7,0,1.5.3,2,.9.5.5.9,1.3.9,2.1h0c0,.8-.3,1.5-.9,2.1-.5.5-1.3.9-2.1.9h-.2c-1.4,9.1-9.3,16.1-18.8,16.1s-11.3-2.8-14.8-7.1c-2-2.5-3.4-5.6-4-9h-.2c-.8,0-1.5-.3-2.1-.9-.5-.6-.9-1.3-.9-2.1h0c0-.8.3-1.5.9-2.1.5-.5,1.2-.8,2-.9l17.2-64.3c-.9-.4-1.6-1.1-2-2h-67.4c0,1.6-.5,3.1-1.2,4.4h-.2v165.3c.2,0,.4.1.6.2.8.2,1.6.5,2.4.9.8.3,1.6.7,2.3,1,9.5,4.8,16.1,14.8,16.1,26.2s-1.1,9.1-3.1,13.2c-.2.5-.5,1-.8,1.5h10.9c4,0,7.9,1.6,10.8,4.5,2.9,2.9,4.5,6.7,4.5,10.8v3h11.9c8.4,0,15.2,6.8,15.2,15.2v3h-157.5v-3c0-8.4,6.8-15.2,15.2-15.2h11.9v-3c0-4,1.6-7.9,4.5-10.8,2.9-2.9,6.7-4.5,10.8-4.5h10.9c-.3-.5-.5-1-.8-1.5-.2-.4-.4-.8-.6-1.2-.4-.9-.7-1.8-1-2.7-.3-.9-.5-1.8-.8-2.7-.2-.9-.4-1.8-.5-2.7-.1-.9-.2-1.8-.2-2.7,0-.5,0-.9,0-1.4s0-.8,0-1.2c0-.9.1-1.8.2-2.7,1.6-11.7,10-21.2,21.2-24.4v-165.3h-.2c-.2-.3-.3-.6-.4-.8-.1-.3-.2-.6-.3-.8,0-.3-.2-.6-.2-.8,0-.3-.1-.6-.2-.8,0-.3,0-.6,0-.8,0,0,0-.2,0-.2h-67.4c-.4.9-1.1,1.6-2,2l17.2,64.3c.7,0,1.5.3,2,.9s.9,1.3.9,2.1h0c0,.8-.3,1.5-.9,2.1-.5.5-1.3.9-2.1.9h-.2c-1.4,9.1-9.3,16.1-18.8,16.1s-11.3-2.8-14.8-7.1c-2-2.5-3.4-5.6-4-9h0ZM200.6,191.5l-17.1,63.9h34.7l-17.1-63.9c0,0-.2,0-.3,0s-.2,0-.3,0h0ZM379.6,255.4l-17.1-63.9c0,0-.2,0-.3,0s-.2,0-.3,0l-17.1,63.9h34.7Z"/>
  </g>
  <path class="st46" d="M130.1,164.3c-4,0-7.3,3.3-7.3,7.3v2.4c0,4,3.3,7.3,7.3,7.3h75.4c4,0,7.3-3.3,7.3-7.3v-2.4c0-4-3.3-7.3-7.3-7.3h-75.4ZM130.1,166h75.4c3.1,0,5.6,2.5,5.6,5.6v2.4c0,3.1-2.5,5.6-5.6,5.6h-75.4c-3.1,0-5.6-2.5-5.6-5.6v-2.4c0-3.1,2.5-5.6,5.6-5.6h0Z"/>
  <path class="st56" d="M117.6,164.4c0-2.5,2-4.4,4.4-4.4h91.6c2.5,0,4.4,2,4.4,4.4v1.3c0,2.5-2,4.4-4.4,4.4h-91.6c-2.5,0-4.4-2-4.4-4.4v-1.3h0Z"/>
  <path class="st56" d="M167.8,148.4c-7.2,0-13.1,5.9-13.1,13.1s26.1,7.2,26.1,0c0-7.2-5.8-13.1-13.1-13.1h0ZM167.8,151.9c3.1,0,5.7,2.6,5.7,5.7s-11.4,3.1-11.4,0,2.6-5.7,5.7-5.7h0Z"/>
  <path class="st46" d="M155.5,180.4c0-1.6,1.3-2.8,2.8-2.8h19.1c1.6,0,2.8,1.3,2.8,2.8v.2c0,1.6-1.3,2.8-2.8,2.8h-19.1c-1.6,0-2.8-1.3-2.8-2.8v-.2h0Z"/>
  <path class="st42" d="M142.3,212.4c0-.9.7-1.7,1.7-1.7h9.2c.9,0,1.7.7,1.7,1.7s-.7,1.7-1.7,1.7h-9.2c-.9,0-1.7-.7-1.7-1.7h0Z"/>
  <path class="st42" d="M154.8,201.9c0-.8.7-1.5,1.5-1.5h3c.8,0,1.5.7,1.5,1.5v.4c0,.8-.7,1.5-1.5,1.5h-3c-.8,0-1.5-.7-1.5-1.5v-.4h0Z"/>
  <path class="st42" d="M156.3,212.4c0-.9.7-1.7,1.7-1.7h2.7c.9,0,1.7.7,1.7,1.7s-.7,1.7-1.7,1.7h-2.7c-.9,0-1.7-.7-1.7-1.7h0Z"/>
  <path class="st42" d="M164,212.4c0-.9.7-1.7,1.7-1.7h2.7c.9,0,1.7.7,1.7,1.7s-.7,1.7-1.7,1.7h-2.7c-.9,0-1.7-.7-1.7-1.7h0Z"/>
  <path class="st42" d="M127.3,201.9c0-.9.7-1.6,1.6-1.6h2.3c.9,0,1.6.7,1.6,1.6v.2c0,.9-.7,1.6-1.6,1.6h-2.3c-.9,0-1.6-.7-1.6-1.6v-.2h0Z"/>
  <path class="st42" d="M171.4,212.4c0-.9.7-1.7,1.7-1.7h10.7c.9,0,1.7.7,1.7,1.7s-.7,1.7-1.7,1.7h-10.7c-.9,0-1.7-.7-1.7-1.7h0Z"/>
  <path class="st42" d="M133.8,202c0-.9.7-1.6,1.6-1.6h15.2c.9,0,1.6.7,1.6,1.6h0c0,1-.7,1.7-1.6,1.7h-15.2c-.9,0-1.6-.7-1.6-1.6h0Z"/>
  <path class="st42" d="M206.6,202c0,.9-.7,1.7-1.7,1.7h-9.2c-.9,0-1.7-.7-1.7-1.7s.7-1.7,1.7-1.7h9.2c.9,0,1.7.7,1.7,1.7h0Z"/>
  <path class="st42" d="M192.7,202c0,.9-.7,1.7-1.7,1.7h-2.7c-.9,0-1.7-.7-1.7-1.7s.7-1.7,1.7-1.7h2.7c.9,0,1.7.7,1.7,1.7h0Z"/>
  <path class="st42" d="M184.9,202c0,.9-.7,1.7-1.7,1.7h-2.7c-.9,0-1.7-.7-1.7-1.7s.7-1.7,1.7-1.7h2.7c.9,0,1.7.7,1.7,1.7h0Z"/>
  <path class="st42" d="M177.5,202c0,.9-.7,1.7-1.7,1.7h-10.7c-.9,0-1.7-.7-1.7-1.7s.7-1.7,1.7-1.7h10.7c.9,0,1.7.7,1.7,1.7h0Z"/>
  <path class="st21" d="M116.5,327.7c0-.9.7-1.7,1.7-1.7h19.1c.9,0,1.7.7,1.7,1.7s-.7,1.7-1.7,1.7h-19.1c-.9,0-1.7-.7-1.7-1.7h0ZM102.5,327.7c0-.9.7-1.7,1.7-1.7h9.2c.9,0,1.7.7,1.7,1.7s-.7,1.7-1.7,1.7h-9.2c-.9,0-1.7-.7-1.7-1.7h0ZM142.3,327.7c0-.9.7-1.7,1.7-1.7h9.2c.9,0,1.7.7,1.7,1.7s-.7,1.7-1.7,1.7h-9.2c-.9,0-1.7-.7-1.7-1.7h0ZM95.1,319.1c0-.9.7-1.6,1.6-1.6h5.2c.9,0,1.6.7,1.6,1.6h0c0,1-.7,1.7-1.6,1.7h-5.2c-.9,0-1.6-.7-1.6-1.6h0ZM141.5,318.9c0-.8.7-1.5,1.5-1.5h3c.8,0,1.5.7,1.5,1.5v.4c0,.8-.7,1.5-1.5,1.5h-3c-.8,0-1.5-.7-1.5-1.5v-.4h0ZM95.1,327.7c0-.9.7-1.7,1.7-1.7h2.7c.9,0,1.7.7,1.7,1.7s-.7,1.7-1.7,1.7h-2.7c-.9,0-1.7-.7-1.7-1.7h0ZM156.3,327.7c0-.9.7-1.7,1.7-1.7h2.7c.9,0,1.7.7,1.7,1.7s-.7,1.7-1.7,1.7h-2.7c-.9,0-1.7-.7-1.7-1.7h0ZM106,319c0-.9.7-1.6,1.6-1.6h3.8c.9,0,1.6.7,1.6,1.6v.2c0,.9-.7,1.6-1.6,1.6h-3.8c-.9,0-1.6-.7-1.6-1.6v-.2h0ZM164,327.7c0-.9.7-1.7,1.7-1.7h2.7c.9,0,1.7.7,1.7,1.7s-.7,1.7-1.7,1.7h-2.7c-.9,0-1.7-.7-1.7-1.7h0ZM114.1,319c0-.9.7-1.6,1.6-1.6h2.3c.9,0,1.6.7,1.6,1.6v.2c0,.9-.7,1.6-1.6,1.6h-2.3c-.9,0-1.6-.7-1.6-1.6v-.2h0ZM171.4,327.7c0-.9.7-1.7,1.7-1.7h10.7c.9,0,1.7.7,1.7,1.7s-.7,1.7-1.7,1.7h-10.7c-.9,0-1.7-.7-1.7-1.7h0ZM120.6,319.1c0-.9.7-1.6,1.6-1.6h15.2c.9,0,1.6.7,1.6,1.6h0c0,1-.7,1.7-1.6,1.7h-15.2c-.9,0-1.6-.7-1.6-1.6h0ZM219.1,319.1c0,.9-.7,1.7-1.7,1.7h-19.1c-.9,0-1.7-.7-1.7-1.7s.7-1.7,1.7-1.7h19.1c.9,0,1.7.7,1.7,1.7h0ZM233.2,319.1c0,.9-.7,1.7-1.7,1.7h-9.2c-.9,0-1.7-.7-1.7-1.7s.7-1.7,1.7-1.7h9.2c.9,0,1.7.7,1.7,1.7h0ZM193.4,319.1c0,.9-.7,1.7-1.7,1.7h-9.2c-.9,0-1.7-.7-1.7-1.7s.7-1.7,1.7-1.7h9.2c.9,0,1.7.7,1.7,1.7h0ZM240.5,327.8c0,.9-.7,1.6-1.6,1.6h-5.2c-.9,0-1.6-.7-1.6-1.6h0c0-1,.7-1.7,1.6-1.7h5.2c.9,0,1.6.7,1.6,1.6h0ZM194.1,327.9c0,.8-.7,1.5-1.5,1.5h-3c-.8,0-1.5-.7-1.5-1.5v-.4c0-.8.7-1.5,1.5-1.5h3c.8,0,1.5.7,1.5,1.5v.4h0ZM240.5,319.1c0,.9-.7,1.7-1.7,1.7h-2.7c-.9,0-1.7-.7-1.7-1.7s.7-1.7,1.7-1.7h2.7c.9,0,1.7.7,1.7,1.7h0ZM179.4,319.1c0,.9-.7,1.7-1.7,1.7h-2.7c-.9,0-1.7-.7-1.7-1.7s.7-1.7,1.7-1.7h2.7c.9,0,1.7.7,1.7,1.7h0ZM229.7,327.8c0,.9-.7,1.6-1.6,1.6h-3.8c-.9,0-1.6-.7-1.6-1.6v-.2c0-.9.7-1.6,1.6-1.6h3.8c.9,0,1.6.7,1.6,1.6v.2h0ZM171.7,319.1c0,.9-.7,1.7-1.7,1.7h-2.7c-.9,0-1.7-.7-1.7-1.7s.7-1.7,1.7-1.7h2.7c.9,0,1.7.7,1.7,1.7h0ZM221.6,327.9c0,.9-.7,1.6-1.6,1.6h-2.3c-.9,0-1.6-.7-1.6-1.6v-.2c0-.9.7-1.6,1.6-1.6h2.3c.9,0,1.6.7,1.6,1.6v.2h0ZM164.3,319.1c0,.9-.7,1.7-1.7,1.7h-10.7c-.9,0-1.7-.7-1.7-1.7s.7-1.7,1.7-1.7h10.7c.9,0,1.7.7,1.7,1.7h0ZM215.1,327.8c0,.9-.7,1.6-1.6,1.6h-15.2c-.9,0-1.6-.7-1.6-1.6h0c0-1,.7-1.7,1.6-1.7h15.2c.9,0,1.6.7,1.6,1.6h0ZM116.5,278.1c0-.9.7-1.7,1.7-1.7h19.1c.9,0,1.7.7,1.7,1.7s-.7,1.7-1.7,1.7h-19.1c-.9,0-1.7-.7-1.7-1.7h0ZM102.5,278.1c0-.9.7-1.7,1.7-1.7h9.2c.9,0,1.7.7,1.7,1.7s-.7,1.7-1.7,1.7h-9.2c-.9,0-1.7-.7-1.7-1.7h0ZM142.3,278.1c0-.9.7-1.7,1.7-1.7h9.2c.9,0,1.7.7,1.7,1.7s-.7,1.7-1.7,1.7h-9.2c-.9,0-1.7-.7-1.7-1.7h0ZM95.1,269.4c0-.9.7-1.6,1.6-1.6h5.2c.9,0,1.6.7,1.6,1.6h0c0,1-.7,1.7-1.6,1.7h-5.2c-.9,0-1.6-.7-1.6-1.6h0ZM141.5,269.3c0-.8.7-1.5,1.5-1.5h3c.8,0,1.5.7,1.5,1.5v.4c0,.8-.7,1.5-1.5,1.5h-3c-.8,0-1.5-.7-1.5-1.5v-.4h0ZM95.1,278.1c0-.9.7-1.7,1.7-1.7h2.7c.9,0,1.7.7,1.7,1.7s-.7,1.7-1.7,1.7h-2.7c-.9,0-1.7-.7-1.7-1.7h0ZM156.3,278.1c0-.9.7-1.7,1.7-1.7h2.7c.9,0,1.7.7,1.7,1.7s-.7,1.7-1.7,1.7h-2.7c-.9,0-1.7-.7-1.7-1.7h0ZM106,269.4c0-.9.7-1.6,1.6-1.6h3.8c.9,0,1.6.7,1.6,1.6v.2c0,.9-.7,1.6-1.6,1.6h-3.8c-.9,0-1.6-.7-1.6-1.6v-.2h0ZM164,278.1c0-.9.7-1.7,1.7-1.7h2.7c.9,0,1.7.7,1.7,1.7s-.7,1.7-1.7,1.7h-2.7c-.9,0-1.7-.7-1.7-1.7h0ZM114.1,269.3c0-.9.7-1.6,1.6-1.6h2.3c.9,0,1.6.7,1.6,1.6v.2c0,.9-.7,1.6-1.6,1.6h-2.3c-.9,0-1.6-.7-1.6-1.6v-.2h0ZM171.4,278.1c0-.9.7-1.7,1.7-1.7h10.7c.9,0,1.7.7,1.7,1.7s-.7,1.7-1.7,1.7h-10.7c-.9,0-1.7-.7-1.7-1.7h0ZM120.6,269.4c0-.9.7-1.6,1.6-1.6h15.2c.9,0,1.6.7,1.6,1.6h0c0,1-.7,1.7-1.6,1.7h-15.2c-.9,0-1.6-.7-1.6-1.6h0ZM193.4,269.5c0,.9-.7,1.7-1.7,1.7h-9.2c-.9,0-1.7-.7-1.7-1.7s.7-1.7,1.7-1.7h9.2c.9,0,1.7.7,1.7,1.7h0ZM194.1,278.3c0,.8-.7,1.5-1.5,1.5h-3c-.8,0-1.5-.7-1.5-1.5v-.4c0-.8.7-1.5,1.5-1.5h3c.8,0,1.5.7,1.5,1.5v.4h0ZM179.4,269.5c0,.9-.7,1.7-1.7,1.7h-2.7c-.9,0-1.7-.7-1.7-1.7s.7-1.7,1.7-1.7h2.7c.9,0,1.7.7,1.7,1.7h0ZM171.7,269.5c0,.9-.7,1.7-1.7,1.7h-2.7c-.9,0-1.7-.7-1.7-1.7s.7-1.7,1.7-1.7h2.7c.9,0,1.7.7,1.7,1.7h0ZM164.3,269.5c0,.9-.7,1.7-1.7,1.7h-10.7c-.9,0-1.7-.7-1.7-1.7s.7-1.7,1.7-1.7h10.7c.9,0,1.7.7,1.7,1.7h0ZM116.5,380.5c0-.9.7-1.7,1.7-1.7h19.1c.9,0,1.7.7,1.7,1.7s-.7,1.7-1.7,1.7h-19.1c-.9,0-1.7-.7-1.7-1.7h0ZM102.5,380.5c0-.9.7-1.7,1.7-1.7h9.2c.9,0,1.7.7,1.7,1.7s-.7,1.7-1.7,1.7h-9.2c-.9,0-1.7-.7-1.7-1.7h0ZM142.3,380.5c0-.9.7-1.7,1.7-1.7h9.2c.9,0,1.7.7,1.7,1.7s-.7,1.7-1.7,1.7h-9.2c-.9,0-1.7-.7-1.7-1.7h0ZM95.1,371.8c0-.9.7-1.6,1.6-1.6h5.2c.9,0,1.6.7,1.6,1.6h0c0,1-.7,1.7-1.6,1.7h-5.2c-.9,0-1.6-.7-1.6-1.6h0ZM141.5,371.7c0-.8.7-1.5,1.5-1.5h3c.8,0,1.5.7,1.5,1.5v.4c0,.8-.7,1.5-1.5,1.5h-3c-.8,0-1.5-.7-1.5-1.5v-.4h0ZM95.1,380.5c0-.9.7-1.7,1.7-1.7h2.7c.9,0,1.7.7,1.7,1.7s-.7,1.7-1.7,1.7h-2.7c-.9,0-1.7-.7-1.7-1.7h0ZM106,371.7c0-.9.7-1.6,1.6-1.6h3.8c.9,0,1.6.7,1.6,1.6v.2c0,.9-.7,1.6-1.6,1.6h-3.8c-.9,0-1.6-.7-1.6-1.6v-.2h0ZM114.1,371.7c0-.9.7-1.6,1.6-1.6h2.3c.9,0,1.6.7,1.6,1.6v.2c0,.9-.7,1.6-1.6,1.6h-2.3c-.9,0-1.6-.7-1.6-1.6v-.2h0ZM120.6,371.8c0-.9.7-1.6,1.6-1.6h15.2c.9,0,1.6.7,1.6,1.6h0c0,1-.7,1.7-1.6,1.7h-15.2c-.9,0-1.6-.7-1.6-1.6h0ZM179.4,371.8c0,.9-.7,1.7-1.7,1.7h-2.7c-.9,0-1.7-.7-1.7-1.7s.7-1.7,1.7-1.7h2.7c.9,0,1.7.7,1.7,1.7h0ZM171.7,371.8c0,.9-.7,1.7-1.7,1.7h-2.7c-.9,0-1.7-.7-1.7-1.7s.7-1.7,1.7-1.7h2.7c.9,0,1.7.7,1.7,1.7h0ZM164.3,371.8c0,.9-.7,1.7-1.7,1.7h-10.7c-.9,0-1.7-.7-1.7-1.7s.7-1.7,1.7-1.7h10.7c.9,0,1.7.7,1.7,1.7h0ZM116.5,239.5c0-.9.7-1.7,1.7-1.7h19.1c.9,0,1.7.7,1.7,1.7s-.7,1.7-1.7,1.7h-19.1c-.9,0-1.7-.7-1.7-1.7h0ZM102.5,239.5c0-.9.7-1.7,1.7-1.7h9.2c.9,0,1.7.7,1.7,1.7s-.7,1.7-1.7,1.7h-9.2c-.9,0-1.7-.7-1.7-1.7h0ZM95.1,230.8c0-.9.7-1.6,1.6-1.6h5.2c.9,0,1.6.7,1.6,1.6h0c0,1-.7,1.7-1.6,1.7h-5.2c-.9,0-1.6-.7-1.6-1.6h0ZM141.5,230.7c0-.8.7-1.5,1.5-1.5h3c.8,0,1.5.7,1.5,1.5v.4c0,.8-.7,1.5-1.5,1.5h-3c-.8,0-1.5-.7-1.5-1.5v-.4h0ZM95.1,239.5c0-.9.7-1.7,1.7-1.7h2.7c.9,0,1.7.7,1.7,1.7s-.7,1.7-1.7,1.7h-2.7c-.9,0-1.7-.7-1.7-1.7h0ZM106,230.7c0-.9.7-1.6,1.6-1.6h3.8c.9,0,1.6.7,1.6,1.6v.2c0,.9-.7,1.6-1.6,1.6h-3.8c-.9,0-1.6-.7-1.6-1.6v-.2h0ZM114.1,230.7c0-.9.7-1.6,1.6-1.6h2.3c.9,0,1.6.7,1.6,1.6v.2c0,.9-.7,1.6-1.6,1.6h-2.3c-.9,0-1.6-.7-1.6-1.6v-.2h0ZM120.6,230.8c0-.9.7-1.6,1.6-1.6h15.2c.9,0,1.6.7,1.6,1.6h0c0,1-.7,1.7-1.6,1.7h-15.2c-.9,0-1.6-.7-1.6-1.6h0ZM116.5,345.1c0-.9.7-1.7,1.7-1.7h19.1c.9,0,1.7.7,1.7,1.7s-.7,1.7-1.7,1.7h-19.1c-.9,0-1.7-.7-1.7-1.7h0ZM102.5,345.1c0-.9.7-1.7,1.7-1.7h9.2c.9,0,1.7.7,1.7,1.7s-.7,1.7-1.7,1.7h-9.2c-.9,0-1.7-.7-1.7-1.7h0ZM142.3,345.1c0-.9.7-1.7,1.7-1.7h9.2c.9,0,1.7.7,1.7,1.7s-.7,1.7-1.7,1.7h-9.2c-.9,0-1.7-.7-1.7-1.7h0ZM95.1,336.4c0-.9.7-1.6,1.6-1.6h5.2c.9,0,1.6.7,1.6,1.6h0c0,1-.7,1.7-1.6,1.7h-5.2c-.9,0-1.6-.7-1.6-1.6h0ZM141.5,336.3c0-.8.7-1.5,1.5-1.5h3c.8,0,1.5.7,1.5,1.5v.4c0,.8-.7,1.5-1.5,1.5h-3c-.8,0-1.5-.7-1.5-1.5v-.4h0ZM95.1,345.1c0-.9.7-1.7,1.7-1.7h2.7c.9,0,1.7.7,1.7,1.7s-.7,1.7-1.7,1.7h-2.7c-.9,0-1.7-.7-1.7-1.7h0ZM156.3,345.1c0-.9.7-1.7,1.7-1.7h2.7c.9,0,1.7.7,1.7,1.7s-.7,1.7-1.7,1.7h-2.7c-.9,0-1.7-.7-1.7-1.7h0ZM106,336.4c0-.9.7-1.6,1.6-1.6h3.8c.9,0,1.6.7,1.6,1.6v.2c0,.9-.7,1.6-1.6,1.6h-3.8c-.9,0-1.6-.7-1.6-1.6v-.2h0ZM164,345.1c0-.9.7-1.7,1.7-1.7h2.7c.9,0,1.7.7,1.7,1.7s-.7,1.7-1.7,1.7h-2.7c-.9,0-1.7-.7-1.7-1.7h0ZM114.1,336.3c0-.9.7-1.6,1.6-1.6h2.3c.9,0,1.6.7,1.6,1.6v.2c0,.9-.7,1.6-1.6,1.6h-2.3c-.9,0-1.6-.7-1.6-1.6v-.2h0ZM171.4,345.1c0-.9.7-1.7,1.7-1.7h10.7c.9,0,1.7.7,1.7,1.7s-.7,1.7-1.7,1.7h-10.7c-.9,0-1.7-.7-1.7-1.7h0ZM120.6,336.4c0-.9.7-1.6,1.6-1.6h15.2c.9,0,1.6.7,1.6,1.6h0c0,1-.7,1.7-1.6,1.7h-15.2c-.9,0-1.6-.7-1.6-1.6h0ZM219.1,336.5c0,.9-.7,1.7-1.7,1.7h-19.1c-.9,0-1.7-.7-1.7-1.7s.7-1.7,1.7-1.7h19.1c.9,0,1.7.7,1.7,1.7h0ZM233.2,336.5c0,.9-.7,1.7-1.7,1.7h-9.2c-.9,0-1.7-.7-1.7-1.7s.7-1.7,1.7-1.7h9.2c.9,0,1.7.7,1.7,1.7h0ZM193.4,336.5c0,.9-.7,1.7-1.7,1.7h-9.2c-.9,0-1.7-.7-1.7-1.7s.7-1.7,1.7-1.7h9.2c.9,0,1.7.7,1.7,1.7h0ZM240.5,345.1c0,.9-.7,1.6-1.6,1.6h-5.2c-.9,0-1.6-.7-1.6-1.6h0c0-1,.7-1.7,1.6-1.7h5.2c.9,0,1.6.7,1.6,1.6h0ZM194.1,345.3c0,.8-.7,1.5-1.5,1.5h-3c-.8,0-1.5-.7-1.5-1.5v-.4c0-.8.7-1.5,1.5-1.5h3c.8,0,1.5.7,1.5,1.5v.4h0ZM240.5,336.5c0,.9-.7,1.7-1.7,1.7h-2.7c-.9,0-1.7-.7-1.7-1.7s.7-1.7,1.7-1.7h2.7c.9,0,1.7.7,1.7,1.7h0ZM179.4,336.5c0,.9-.7,1.7-1.7,1.7h-2.7c-.9,0-1.7-.7-1.7-1.7s.7-1.7,1.7-1.7h2.7c.9,0,1.7.7,1.7,1.7h0ZM229.7,345.2c0,.9-.7,1.6-1.6,1.6h-3.8c-.9,0-1.6-.7-1.6-1.6v-.2c0-.9.7-1.6,1.6-1.6h3.8c.9,0,1.6.7,1.6,1.6v.2h0ZM171.7,336.5c0,.9-.7,1.7-1.7,1.7h-2.7c-.9,0-1.7-.7-1.7-1.7s.7-1.7,1.7-1.7h2.7c.9,0,1.7.7,1.7,1.7h0ZM221.6,345.2c0,.9-.7,1.6-1.6,1.6h-2.3c-.9,0-1.6-.7-1.6-1.6v-.2c0-.9.7-1.6,1.6-1.6h2.3c.9,0,1.6.7,1.6,1.6v.2h0ZM164.3,336.5c0,.9-.7,1.7-1.7,1.7h-10.7c-.9,0-1.7-.7-1.7-1.7s.7-1.7,1.7-1.7h10.7c.9,0,1.7.7,1.7,1.7h0ZM215.1,345.1c0,.9-.7,1.6-1.6,1.6h-15.2c-.9,0-1.6-.7-1.6-1.6h0c0-1,.7-1.7,1.6-1.7h15.2c.9,0,1.6.7,1.6,1.6h0ZM116.5,295.4c0-.9.7-1.7,1.7-1.7h19.1c.9,0,1.7.7,1.7,1.7s-.7,1.7-1.7,1.7h-19.1c-.9,0-1.7-.7-1.7-1.7h0ZM102.5,295.4c0-.9.7-1.7,1.7-1.7h9.2c.9,0,1.7.7,1.7,1.7s-.7,1.7-1.7,1.7h-9.2c-.9,0-1.7-.7-1.7-1.7h0ZM142.3,295.4c0-.9.7-1.7,1.7-1.7h9.2c.9,0,1.7.7,1.7,1.7s-.7,1.7-1.7,1.7h-9.2c-.9,0-1.7-.7-1.7-1.7h0ZM95.1,286.8c0-.9.7-1.6,1.6-1.6h5.2c.9,0,1.6.7,1.6,1.6h0c0,1-.7,1.7-1.6,1.7h-5.2c-.9,0-1.6-.7-1.6-1.6h0ZM141.5,286.6c0-.8.7-1.5,1.5-1.5h3c.8,0,1.5.7,1.5,1.5v.4c0,.8-.7,1.5-1.5,1.5h-3c-.8,0-1.5-.7-1.5-1.5v-.4h0ZM95.1,295.4c0-.9.7-1.7,1.7-1.7h2.7c.9,0,1.7.7,1.7,1.7s-.7,1.7-1.7,1.7h-2.7c-.9,0-1.7-.7-1.7-1.7h0ZM156.3,295.4c0-.9.7-1.7,1.7-1.7h2.7c.9,0,1.7.7,1.7,1.7s-.7,1.7-1.7,1.7h-2.7c-.9,0-1.7-.7-1.7-1.7h0ZM106,286.7c0-.9.7-1.6,1.6-1.6h3.8c.9,0,1.6.7,1.6,1.6v.2c0,.9-.7,1.6-1.6,1.6h-3.8c-.9,0-1.6-.7-1.6-1.6v-.2h0ZM164,295.4c0-.9.7-1.7,1.7-1.7h2.7c.9,0,1.7.7,1.7,1.7s-.7,1.7-1.7,1.7h-2.7c-.9,0-1.7-.7-1.7-1.7h0ZM114.1,286.7c0-.9.7-1.6,1.6-1.6h2.3c.9,0,1.6.7,1.6,1.6v.2c0,.9-.7,1.6-1.6,1.6h-2.3c-.9,0-1.6-.7-1.6-1.6v-.2h0ZM171.4,295.4c0-.9.7-1.7,1.7-1.7h10.7c.9,0,1.7.7,1.7,1.7s-.7,1.7-1.7,1.7h-10.7c-.9,0-1.7-.7-1.7-1.7h0ZM120.6,286.8c0-.9.7-1.6,1.6-1.6h15.2c.9,0,1.6.7,1.6,1.6h0c0,1-.7,1.7-1.6,1.7h-15.2c-.9,0-1.6-.7-1.6-1.6h0ZM193.4,286.8c0,.9-.7,1.7-1.7,1.7h-9.2c-.9,0-1.7-.7-1.7-1.7s.7-1.7,1.7-1.7h9.2c.9,0,1.7.7,1.7,1.7h0ZM194.1,295.6c0,.8-.7,1.5-1.5,1.5h-3c-.8,0-1.5-.7-1.5-1.5v-.4c0-.8.7-1.5,1.5-1.5h3c.8,0,1.5.7,1.5,1.5v.4h0ZM179.4,286.8c0,.9-.7,1.7-1.7,1.7h-2.7c-.9,0-1.7-.7-1.7-1.7s.7-1.7,1.7-1.7h2.7c.9,0,1.7.7,1.7,1.7h0ZM171.7,286.8c0,.9-.7,1.7-1.7,1.7h-2.7c-.9,0-1.7-.7-1.7-1.7s.7-1.7,1.7-1.7h2.7c.9,0,1.7.7,1.7,1.7h0ZM164.3,286.8c0,.9-.7,1.7-1.7,1.7h-10.7c-.9,0-1.7-.7-1.7-1.7s.7-1.7,1.7-1.7h10.7c.9,0,1.7.7,1.7,1.7h0ZM116.5,256c0-.9.7-1.7,1.7-1.7h19.1c.9,0,1.7.7,1.7,1.7s-.7,1.7-1.7,1.7h-19.1c-.9,0-1.7-.7-1.7-1.7h0ZM102.5,256c0-.9.7-1.7,1.7-1.7h9.2c.9,0,1.7.7,1.7,1.7s-.7,1.7-1.7,1.7h-9.2c-.9,0-1.7-.7-1.7-1.7h0ZM142.3,256c0-.9.7-1.7,1.7-1.7h9.2c.9,0,1.7.7,1.7,1.7s-.7,1.7-1.7,1.7h-9.2c-.9,0-1.7-.7-1.7-1.7h0ZM95.1,247.4c0-.9.7-1.6,1.6-1.6h5.2c.9,0,1.6.7,1.6,1.6h0c0,1-.7,1.7-1.6,1.7h-5.2c-.9,0-1.6-.7-1.6-1.6h0ZM141.5,247.2c0-.8.7-1.5,1.5-1.5h3c.8,0,1.5.7,1.5,1.5v.4c0,.8-.7,1.5-1.5,1.5h-3c-.8,0-1.5-.7-1.5-1.5v-.4h0ZM95.1,256c0-.9.7-1.7,1.7-1.7h2.7c.9,0,1.7.7,1.7,1.7s-.7,1.7-1.7,1.7h-2.7c-.9,0-1.7-.7-1.7-1.7h0ZM106,247.3c0-.9.7-1.6,1.6-1.6h3.8c.9,0,1.6.7,1.6,1.6v.2c0,.9-.7,1.6-1.6,1.6h-3.8c-.9,0-1.6-.7-1.6-1.6v-.2h0ZM114.1,247.3c0-.9.7-1.6,1.6-1.6h2.3c.9,0,1.6.7,1.6,1.6v.2c0,.9-.7,1.6-1.6,1.6h-2.3c-.9,0-1.6-.7-1.6-1.6v-.2h0ZM120.6,247.4c0-.9.7-1.6,1.6-1.6h15.2c.9,0,1.6.7,1.6,1.6h0c0,1-.7,1.7-1.6,1.7h-15.2c-.9,0-1.6-.7-1.6-1.6h0ZM116.5,364.9c0-.9.7-1.7,1.7-1.7h19.1c.9,0,1.7.7,1.7,1.7s-.7,1.7-1.7,1.7h-19.1c-.9,0-1.7-.7-1.7-1.7h0ZM102.5,364.9c0-.9.7-1.7,1.7-1.7h9.2c.9,0,1.7.7,1.7,1.7s-.7,1.7-1.7,1.7h-9.2c-.9,0-1.7-.7-1.7-1.7h0ZM142.3,364.9c0-.9.7-1.7,1.7-1.7h9.2c.9,0,1.7.7,1.7,1.7s-.7,1.7-1.7,1.7h-9.2c-.9,0-1.7-.7-1.7-1.7h0ZM95.1,356.2c0-.9.7-1.6,1.6-1.6h5.2c.9,0,1.6.7,1.6,1.6h0c0,1-.7,1.7-1.6,1.7h-5.2c-.9,0-1.6-.7-1.6-1.6h0ZM141.5,356.1c0-.8.7-1.5,1.5-1.5h3c.8,0,1.5.7,1.5,1.5v.4c0,.8-.7,1.5-1.5,1.5h-3c-.8,0-1.5-.7-1.5-1.5v-.4h0ZM95.1,364.9c0-.9.7-1.7,1.7-1.7h2.7c.9,0,1.7.7,1.7,1.7s-.7,1.7-1.7,1.7h-2.7c-.9,0-1.7-.7-1.7-1.7h0ZM156.3,364.9c0-.9.7-1.7,1.7-1.7h2.7c.9,0,1.7.7,1.7,1.7s-.7,1.7-1.7,1.7h-2.7c-.9,0-1.7-.7-1.7-1.7h0ZM106,356.1c0-.9.7-1.6,1.6-1.6h3.8c.9,0,1.6.7,1.6,1.6v.2c0,.9-.7,1.6-1.6,1.6h-3.8c-.9,0-1.6-.7-1.6-1.6v-.2h0ZM164,364.9c0-.9.7-1.7,1.7-1.7h2.7c.9,0,1.7.7,1.7,1.7s-.7,1.7-1.7,1.7h-2.7c-.9,0-1.7-.7-1.7-1.7h0ZM172.7,364.9c0-.9.7-1.7,1.7-1.7h2.7c.9,0,1.7.7,1.7,1.7s-.7,1.7-1.7,1.7h-2.7c-.9,0-1.7-.7-1.7-1.7h0ZM114.1,356.1c0-.9.7-1.6,1.6-1.6h2.3c.9,0,1.6.7,1.6,1.6v.2c0,.9-.7,1.6-1.6,1.6h-2.3c-.9,0-1.6-.7-1.6-1.6v-.2h0ZM120.6,356.2c0-.9.7-1.6,1.6-1.6h15.2c.9,0,1.6.7,1.6,1.6h0c0,1-.7,1.7-1.6,1.7h-15.2c-.9,0-1.6-.7-1.6-1.6h0ZM116.5,310.9c0-.9.7-1.7,1.7-1.7h19.1c.9,0,1.7.7,1.7,1.7s-.7,1.7-1.7,1.7h-19.1c-.9,0-1.7-.7-1.7-1.7h0ZM102.5,310.9c0-.9.7-1.7,1.7-1.7h9.2c.9,0,1.7.7,1.7,1.7s-.7,1.7-1.7,1.7h-9.2c-.9,0-1.7-.7-1.7-1.7h0ZM142.3,310.9c0-.9.7-1.7,1.7-1.7h9.2c.9,0,1.7.7,1.7,1.7s-.7,1.7-1.7,1.7h-9.2c-.9,0-1.7-.7-1.7-1.7h0ZM95.1,302.2c0-.9.7-1.6,1.6-1.6h5.2c.9,0,1.6.7,1.6,1.6h0c0,1-.7,1.7-1.6,1.7h-5.2c-.9,0-1.6-.7-1.6-1.6h0ZM141.5,302.1c0-.8.7-1.5,1.5-1.5h3c.8,0,1.5.7,1.5,1.5v.4c0,.8-.7,1.5-1.5,1.5h-3c-.8,0-1.5-.7-1.5-1.5v-.4h0ZM95.1,310.9c0-.9.7-1.7,1.7-1.7h2.7c.9,0,1.7.7,1.7,1.7s-.7,1.7-1.7,1.7h-2.7c-.9,0-1.7-.7-1.7-1.7h0ZM156.3,310.9c0-.9.7-1.7,1.7-1.7h2.7c.9,0,1.7.7,1.7,1.7s-.7,1.7-1.7,1.7h-2.7c-.9,0-1.7-.7-1.7-1.7h0ZM106,302.2c0-.9.7-1.6,1.6-1.6h3.8c.9,0,1.6.7,1.6,1.6v.2c0,.9-.7,1.6-1.6,1.6h-3.8c-.9,0-1.6-.7-1.6-1.6v-.2h0ZM164,310.9c0-.9.7-1.7,1.7-1.7h2.7c.9,0,1.7.7,1.7,1.7s-.7,1.7-1.7,1.7h-2.7c-.9,0-1.7-.7-1.7-1.7h0ZM114.1,302.2c0-.9.7-1.6,1.6-1.6h2.3c.9,0,1.6.7,1.6,1.6v.2c0,.9-.7,1.6-1.6,1.6h-2.3c-.9,0-1.6-.7-1.6-1.6v-.2h0ZM171.4,310.9c0-.9.7-1.7,1.7-1.7h10.7c.9,0,1.7.7,1.7,1.7s-.7,1.7-1.7,1.7h-10.7c-.9,0-1.7-.7-1.7-1.7h0ZM120.6,302.2c0-.9.7-1.6,1.6-1.6h15.2c.9,0,1.6.7,1.6,1.6h0c0,1-.7,1.7-1.6,1.7h-15.2c-.9,0-1.6-.7-1.6-1.6h0ZM219.1,302.3c0,.9-.7,1.7-1.7,1.7h-19.1c-.9,0-1.7-.7-1.7-1.7s.7-1.7,1.7-1.7h19.1c.9,0,1.7.7,1.7,1.7h0ZM233.2,302.3c0,.9-.7,1.7-1.7,1.7h-9.2c-.9,0-1.7-.7-1.7-1.7s.7-1.7,1.7-1.7h9.2c.9,0,1.7.7,1.7,1.7h0ZM193.4,302.3c0,.9-.7,1.7-1.7,1.7h-9.2c-.9,0-1.7-.7-1.7-1.7s.7-1.7,1.7-1.7h9.2c.9,0,1.7.7,1.7,1.7h0ZM240.5,311c0,.9-.7,1.6-1.6,1.6h-5.2c-.9,0-1.6-.7-1.6-1.6h0c0-1,.7-1.7,1.6-1.7h5.2c.9,0,1.6.7,1.6,1.6h0ZM194.1,311.1c0,.8-.7,1.5-1.5,1.5h-3c-.8,0-1.5-.7-1.5-1.5v-.4c0-.8.7-1.5,1.5-1.5h3c.8,0,1.5.7,1.5,1.5v.4h0ZM240.5,302.3c0,.9-.7,1.7-1.7,1.7h-2.7c-.9,0-1.7-.7-1.7-1.7s.7-1.7,1.7-1.7h2.7c.9,0,1.7.7,1.7,1.7h0ZM179.4,302.3c0,.9-.7,1.7-1.7,1.7h-2.7c-.9,0-1.7-.7-1.7-1.7s.7-1.7,1.7-1.7h2.7c.9,0,1.7.7,1.7,1.7h0ZM229.7,311c0,.9-.7,1.6-1.6,1.6h-3.8c-.9,0-1.6-.7-1.6-1.6v-.2c0-.9.7-1.6,1.6-1.6h3.8c.9,0,1.6.7,1.6,1.6v.2h0ZM171.7,302.3c0,.9-.7,1.7-1.7,1.7h-2.7c-.9,0-1.7-.7-1.7-1.7s.7-1.7,1.7-1.7h2.7c.9,0,1.7.7,1.7,1.7h0ZM221.6,311c0,.9-.7,1.6-1.6,1.6h-2.3c-.9,0-1.6-.7-1.6-1.6v-.2c0-.9.7-1.6,1.6-1.6h2.3c.9,0,1.6.7,1.6,1.6v.2h0ZM164.3,302.3c0,.9-.7,1.7-1.7,1.7h-10.7c-.9,0-1.7-.7-1.7-1.7s.7-1.7,1.7-1.7h10.7c.9,0,1.7.7,1.7,1.7h0ZM215.1,311c0,.9-.7,1.6-1.6,1.6h-15.2c-.9,0-1.6-.7-1.6-1.6h0c0-1,.7-1.7,1.6-1.7h15.2c.9,0,1.6.7,1.6,1.6h0ZM200.2,229.2h40.3v49.5h-40.3v-49.5h0Z"/>
  <g class="st53">
    <path class="st20" d="M133,344.6l2.4-2.5-6.7-6.3,4.8-5.1,5.1,4.7,5.6-6-5.1-4.7,21.3-22.8,5.1,4.7,5.6-6-5.1-4.7,4.8-5.1,6.7,6.3,2.4-2.5-8.6-8,8.1-8.7,4.3,4,2.4-2.5,27.3,25.5-2.4,2.5,4.3,4-8.1,8.7-8.6-8-2.4,2.5,6.7,6.3-4.8,5.1-5.1-4.7-5.6,6,5.1,4.7-2.1,2.2,4.2,3.9-2.1,2.3,4.2,3.9,71.9,73.6,3.2-3.5,4.2,3.9,2.1-2.3,4.2,3.9-17.2,18.4-4.2-3.9,2.1-2.3-4.2-3.9,3.2-3.5-78.4-66.7-4.2-3.9-2.1,2.3-4.2-3.9-2.1,2.2-5.1-4.7-5.6,6,5.1,4.7-4.8,5.1-6.7-6.3-2.4,2.5,8.6,8-8.1,8.7-4.3-4-2.4,2.5-27.3-25.5,2.4-2.5-4.3-4,8.1-8.7,8.6,8h0ZM166.5,432.3h2.3c1.6,0,2.9,1.4,2.9,3s-1.3,3-2.9,3h-90.4c-1.6,0-2.9-1.4-2.9-3s1.3-3,2.9-3h2.3c0-6.3,4.9-11.5,11-11.5h-.9v-6.3h64.6v6.3c6.1,0,11,5.1,11,11.5h0Z"/>
    <path class="st16" d="M182.1,261.3h-.2c-.8,0-1.5-.3-2.1-.9-.5-.6-.9-1.3-.9-2.1h0c0-.8.3-1.5.9-2.1.5-.5,1.2-.8,2-.9l17.2-64.3c-1.1-.5-1.9-1.5-2.3-2.8-.1-.4-.2-.8-.2-1.2,0-2.4,2-4.4,4.4-4.4s2.9.8,3.6,2c.1.2.2.4.3.6.2.4.3.8.4,1.2h67.3c1-3.8,4.2-6.6,8.2-7,.3,0,.5,0,.8,0s0,0,.1,0c.3,0,.6,0,.9,0,.3,0,.6,0,.9.1.3,0,.5.1.8.2.3,0,.5.2.8.3.2.1.5.2.7.3,2.4,1.2,4.1,3.4,4.8,6h67.3c.3-2.1,2.1-3.7,4.3-3.7s2.9.8,3.6,2c.1.2.2.4.3.6.3.6.4,1.2.4,1.8,0,1.7-1,3.2-2.4,3.9l17.2,64.3c.7,0,1.5.3,2,.9.5.5.9,1.3.9,2.1h0c0,.8-.3,1.5-.9,2.1-.5.5-1.3.9-2.1.9h-.2c-1.4,9.1-9.3,16.1-18.8,16.1s-11.3-2.8-14.8-7.1c-2-2.5-3.4-5.6-4-9h-.2c-.8,0-1.5-.3-2.1-.9-.5-.6-.9-1.3-.9-2.1h0c0-.8.3-1.5.9-2.1.5-.5,1.2-.8,2-.9l17.2-64.3c-.9-.4-1.6-1.1-2-2h-67.4c0,1.6-.5,3.1-1.2,4.4h-.2v165.3c.2,0,.4.1.6.2.8.2,1.6.5,2.4.9.8.3,1.6.7,2.3,1,9.5,4.8,16.1,14.8,16.1,26.2s-1.1,9.1-3.1,13.2c-.2.5-.5,1-.8,1.5h10.9c4,0,7.9,1.6,10.8,4.5,2.9,2.9,4.5,6.7,4.5,10.8v3h11.9c8.4,0,15.2,6.8,15.2,15.2v3h-157.5v-3c0-8.4,6.8-15.2,15.2-15.2h11.9v-3c0-4,1.6-7.9,4.5-10.8,2.9-2.9,6.7-4.5,10.8-4.5h10.9c-.3-.5-.5-1-.8-1.5-.2-.4-.4-.8-.6-1.2-.4-.9-.7-1.8-1-2.7-.3-.9-.5-1.8-.8-2.7-.2-.9-.4-1.8-.5-2.7-.1-.9-.2-1.8-.2-2.7,0-.5,0-.9,0-1.4s0-.8,0-1.2c0-.9.1-1.8.2-2.7,1.6-11.7,10-21.2,21.2-24.4v-165.3h-.2c-.2-.3-.3-.6-.4-.8-.1-.3-.2-.6-.3-.8,0-.3-.2-.6-.2-.8,0-.3-.1-.6-.2-.8,0-.3,0-.6,0-.8,0,0,0-.2,0-.2h-67.4c-.4.9-1.1,1.6-2,2l17.2,64.3c.7,0,1.5.3,2,.9s.9,1.3.9,2.1h0c0,.8-.3,1.5-.9,2.1-.5.5-1.3.9-2.1.9h-.2c-1.4,9.1-9.3,16.1-18.8,16.1s-11.3-2.8-14.8-7.1c-2-2.5-3.4-5.6-4-9h0ZM200.6,191.5l-17.1,63.9h34.7l-17.1-63.9c0,0-.2,0-.3,0s-.2,0-.3,0h0ZM379.6,255.4l-17.1-63.9c0,0-.2,0-.3,0s-.2,0-.3,0l-17.1,63.9h34.7Z"/>
  </g>
  <path class="st42" d="M102.5,409.7c0-.9.7-1.7,1.7-1.7h9.2c.9,0,1.7.7,1.7,1.7s-.7,1.7-1.7,1.7h-9.2c-.9,0-1.7-.7-1.7-1.7h0Z"/>
  <path class="st42" d="M95.1,401c0-.9.7-1.6,1.6-1.6h5.2c.9,0,1.6.7,1.6,1.6h0c0,1-.7,1.7-1.6,1.7h-5.2c-.9,0-1.6-.7-1.6-1.6h0Z"/>
  <path class="st42" d="M141.5,400.9c0-.8.7-1.5,1.5-1.5h3c.8,0,1.5.7,1.5,1.5v.4c0,.8-.7,1.5-1.5,1.5h-3c-.8,0-1.5-.7-1.5-1.5v-.4h0Z"/>
  <path class="st42" d="M95.1,409.7c0-.9.7-1.7,1.7-1.7h2.7c.9,0,1.7.7,1.7,1.7s-.7,1.7-1.7,1.7h-2.7c-.9,0-1.7-.7-1.7-1.7h0Z"/>
  <path class="st42" d="M106,401c0-.9.7-1.6,1.6-1.6h3.8c.9,0,1.6.7,1.6,1.6v.2c0,.9-.7,1.6-1.6,1.6h-3.8c-.9,0-1.6-.7-1.6-1.6v-.2h0Z"/>
  <path class="st42" d="M114.1,400.9c0-.9.7-1.6,1.6-1.6h2.3c.9,0,1.6.7,1.6,1.6v.2c0,.9-.7,1.6-1.6,1.6h-2.3c-.9,0-1.6-.7-1.6-1.6v-.2h0Z"/>
  <path class="st42" d="M120.6,401c0-.9.7-1.6,1.6-1.6h15.2c.9,0,1.6.7,1.6,1.6h0c0,1-.7,1.7-1.6,1.7h-15.2c-.9,0-1.6-.7-1.6-1.6h0Z"/>
  <path class="st42" d="M233.2,409.7c0-.9-.7-1.7-1.7-1.7h-9.2c-.9,0-1.7.7-1.7,1.7s.7,1.7,1.7,1.7h9.2c.9,0,1.7-.7,1.7-1.7h0Z"/>
  <path class="st42" d="M240.5,401c0-.9-.7-1.6-1.6-1.6h-5.2c-.9,0-1.6.7-1.6,1.6h0c0,1,.7,1.7,1.6,1.7h5.2c.9,0,1.6-.7,1.6-1.6h0Z"/>
  <path class="st42" d="M194.1,400.9c0-.8-.7-1.5-1.5-1.5h-3c-.8,0-1.5.7-1.5,1.5v.4c0,.8.7,1.5,1.5,1.5h3c.8,0,1.5-.7,1.5-1.5v-.4h0Z"/>
  <path class="st42" d="M240.5,409.7c0-.9-.7-1.7-1.7-1.7h-2.7c-.9,0-1.7.7-1.7,1.7s.7,1.7,1.7,1.7h2.7c.9,0,1.7-.7,1.7-1.7h0Z"/>
  <path class="st42" d="M229.7,401c0-.9-.7-1.6-1.6-1.6h-3.8c-.9,0-1.6.7-1.6,1.6v.2c0,.9.7,1.6,1.6,1.6h3.8c.9,0,1.6-.7,1.6-1.6v-.2h0Z"/>
  <path class="st42" d="M221.6,400.9c0-.9-.7-1.6-1.6-1.6h-2.3c-.9,0-1.6.7-1.6,1.6v.2c0,.9.7,1.6,1.6,1.6h2.3c.9,0,1.6-.7,1.6-1.6v-.2h0Z"/>
  <path class="st42" d="M215.1,401c0-.9-.7-1.6-1.6-1.6h-15.2c-.9,0-1.6.7-1.6,1.6h0c0,1,.7,1.7,1.6,1.7h15.2c.9,0,1.6-.7,1.6-1.6h0Z"/>
  <path class="st9" d="M206.5,247.3h0c-.1,0-.2,0-.3-.1,0,0-.1-.2-.1-.3h0c0-.1,0-.2.1-.3,0,0,.2-.1.3-.1l2.4-9c-.2,0-.3-.2-.3-.4,0,0,0-.1,0-.2,0-.3.3-.6.6-.6s.4.1.5.3c0,0,0,0,0,0,0,0,0,.1,0,.2h9.4c.1-.5.6-.9,1.1-1,0,0,0,0,.1,0s0,0,0,0c0,0,0,0,.1,0,0,0,0,0,.1,0,0,0,0,0,.1,0,0,0,0,0,.1,0,0,0,0,0,.1,0,.3.2.6.5.7.8h9.4c0-.3.3-.5.6-.5s.4.1.5.3c0,0,0,0,0,0,0,0,0,.2,0,.3,0,.2-.1.4-.3.5l2.4,9c.1,0,.2,0,.3.1,0,0,.1.2.1.3h0c0,.1,0,.2-.1.3,0,0-.2.1-.3.1h0c-.2,1.3-1.3,2.2-2.6,2.2s-1.6-.4-2.1-1c-.3-.4-.5-.8-.6-1.3h0c-.1,0-.2,0-.3-.1,0,0-.1-.2-.1-.3h0c0-.1,0-.2.1-.3,0,0,.2-.1.3-.1l2.4-9c-.1,0-.2-.2-.3-.3h-9.4c0,.2,0,.4-.2.6h0v23s0,0,0,0c.1,0,.2,0,.3.1.1,0,.2,0,.3.1,1.3.7,2.2,2.1,2.2,3.7s-.2,1.3-.4,1.8c0,0,0,.1-.1.2h1.5c.6,0,1.1.2,1.5.6s.6.9.6,1.5v.4h1.7c1.2,0,2.1,1,2.1,2.1v.4h-22v-.4c0-1.2,1-2.1,2.1-2.1h1.7v-.4c0-.6.2-1.1.6-1.5s.9-.6,1.5-.6h1.5c0,0,0-.1-.1-.2,0,0,0-.1,0-.2,0-.1-.1-.2-.1-.4,0-.1,0-.2-.1-.4,0-.1,0-.2,0-.4,0-.1,0-.2,0-.4,0,0,0-.1,0-.2s0-.1,0-.2c0-.1,0-.2,0-.4.2-1.6,1.4-3,3-3.4v-23h0s0,0,0-.1c0,0,0,0,0-.1,0,0,0,0,0-.1,0,0,0,0,0-.1,0,0,0,0,0-.1,0,0,0,0,0,0h-9.4c0,.1-.2.2-.3.3l2.4,9c.1,0,.2,0,.3.1,0,0,.1.2.1.3h0c0,.1,0,.2-.1.3,0,0-.2.1-.3.1h0c-.2,1.3-1.3,2.2-2.6,2.2s-1.6-.4-2.1-1c-.3-.4-.5-.8-.6-1.3h0ZM234.1,246.5l-2.4-8.9s0,0,0,0,0,0,0,0l-2.4,8.9h4.8ZM209.1,237.5l-2.4,8.9h4.8l-2.4-8.9s0,0,0,0,0,0,0,0h0Z"/>
  <g class="st40">
    <path class="st13" d="M182.1,261.3h-.2c-.8,0-1.5-.3-2.1-.9-.5-.6-.9-1.3-.9-2.1h0c0-.8.3-1.5.9-2.1.5-.5,1.2-.8,2-.9l17.2-64.3c-1.1-.5-1.9-1.5-2.3-2.8-.1-.4-.2-.8-.2-1.2,0-2.4,2-4.4,4.4-4.4s2.9.8,3.6,2c.1.2.2.4.3.6.2.4.3.8.4,1.2h67.3c1-3.8,4.2-6.6,8.2-7,.3,0,.5,0,.8,0s0,0,.1,0c.3,0,.6,0,.9,0,.3,0,.6,0,.9.1.3,0,.5.1.8.2.3,0,.5.2.8.3.2.1.5.2.7.3,2.4,1.2,4.1,3.4,4.8,6h67.3c.3-2.1,2.1-3.7,4.3-3.7s2.9.8,3.6,2c.1.2.2.4.3.6.3.6.4,1.2.4,1.8,0,1.7-1,3.2-2.4,3.9l17.2,64.3c.7,0,1.5.3,2,.9.5.5.9,1.3.9,2.1h0c0,.8-.3,1.5-.9,2.1-.5.5-1.3.9-2.1.9h-.2c-1.4,9.1-9.3,16.1-18.8,16.1s-11.3-2.8-14.8-7.1c-2-2.5-3.4-5.6-4-9h-.2c-.8,0-1.5-.3-2.1-.9-.5-.6-.9-1.3-.9-2.1h0c0-.8.3-1.5.9-2.1.5-.5,1.2-.8,2-.9l17.2-64.3c-.9-.4-1.6-1.1-2-2h-67.4c0,1.6-.5,3.1-1.2,4.4h-.2v165.3c.2,0,.4.1.6.2.8.2,1.6.5,2.4.9.8.3,1.6.7,2.3,1,9.5,4.8,16.1,14.8,16.1,26.2s-1.1,9.1-3.1,13.2c-.2.5-.5,1-.8,1.5h10.9c4,0,7.9,1.6,10.8,4.5,2.9,2.9,4.5,6.7,4.5,10.8v3h11.9c8.4,0,15.2,6.8,15.2,15.2v3h-157.5v-3c0-8.4,6.8-15.2,15.2-15.2h11.9v-3c0-4,1.6-7.9,4.5-10.8,2.9-2.9,6.7-4.5,10.8-4.5h10.9c-.3-.5-.5-1-.8-1.5-.2-.4-.4-.8-.6-1.2-.4-.9-.7-1.8-1-2.7-.3-.9-.5-1.8-.8-2.7-.2-.9-.4-1.8-.5-2.7-.1-.9-.2-1.8-.2-2.7,0-.5,0-.9,0-1.4s0-.8,0-1.2c0-.9.1-1.8.2-2.7,1.6-11.7,10-21.2,21.2-24.4v-165.3h-.2c-.2-.3-.3-.6-.4-.8-.1-.3-.2-.6-.3-.8,0-.3-.2-.6-.2-.8,0-.3-.1-.6-.2-.8,0-.3,0-.6,0-.8,0,0,0-.2,0-.2h-67.4c-.4.9-1.1,1.6-2,2l17.2,64.3c.7,0,1.5.3,2,.9s.9,1.3.9,2.1h0c0,.8-.3,1.5-.9,2.1-.5.5-1.3.9-2.1.9h-.2c-1.4,9.1-9.3,16.1-18.8,16.1s-11.3-2.8-14.8-7.1c-2-2.5-3.4-5.6-4-9h0ZM200.6,191.5l-17.1,63.9h34.7l-17.1-63.9c0,0-.2,0-.3,0s-.2,0-.3,0h0ZM379.6,255.4l-17.1-63.9c0,0-.2,0-.3,0s-.2,0-.3,0l-17.1,63.9h34.7Z"/>
  </g>
  <polygon class="st14" points="323.2 174.7 323.2 177.2 161.8 177.2 161.8 174.7 323.2 174.7 323.2 174.7"/>
  <polygon class="st7" points="323.2 174.7 323.2 175.3 161.8 175.3 161.8 174.7 323.2 174.7 323.2 174.7"/>
  <polygon class="st17" points="250.4 181.6 250.4 365.3 234.6 365.3 234.6 181.6 250.4 181.6 250.4 181.6"/>
  <path class="st31" d="M238.5,200.4c1.1,0,2,.9,2,2v90.6c0,1.1-.9,2-2,2h0c-1.1,0-2-.9-2-2v-90.6c0-1.1.9-2,2-2h0Z"/>
  <path class="st31" d="M238.5,304c.5,0,1,.2,1.4.6.4.4.6.9.6,1.4v32.5c0,.5-.2,1-.6,1.4-.4.4-.9.6-1.4.6h0c-.5,0-1-.2-1.4-.6-.4-.4-.6-.9-.6-1.4v-32.5c0-.5.2-1,.6-1.4.4-.4.9-.6,1.4-.6h0Z"/>
  <path class="st39" d="M250.4,344.4v20.9h-15.8v-20.9c2.5-.7,5.2-1.1,7.9-1.1s5.4.4,7.9,1.1h0Z"/>
  <path class="st28" d="M267.9,389.9h-50.8c-2.6-4.5-3.9-9.5-3.9-14.7,0-16.2,13.2-29.3,29.3-29.3s29.3,13.2,29.3,29.3-1.4,10.2-3.9,14.7h0Z"/>
  <path class="st1" d="M267.9,389.9h-50.8c-2.6-4.5-3.9-9.5-3.9-14.7,0-16.2,13.2-29.3,29.3-29.3s29.3,13.2,29.3,29.3-1.4,10.2-3.9,14.7h0Z"/>
  <path class="st37" d="M253.4,348c.8.3,1.6.7,2.3,1,7.2,5.4,11.8,13.9,11.8,23.5s-1.4,10.2-3.9,14.7h-47.9c-.4-.9-.7-1.8-1-2.7-.3-.9-.5-1.8-.8-2.7-.2-.9-.4-1.8-.5-2.7-.1-.9-.2-1.8-.2-2.7,0-.5,0-.9,0-1.4s0-.8,0-1.2c0-.9.1-1.8.2-2.7,1.8-13.5,12.8-24.2,26.5-25.3.8,0,1.7-.1,2.6-.1s.3,0,.5,0c1,0,1.9,0,2.8.2.9.1,1.8.2,2.7.4.9.2,1.7.4,2.5.6.8.2,1.6.5,2.4.9h0Z"/>
  <path class="st28" d="M250.6,181.7h-16.2c-.8-1.4-1.3-3-1.3-4.7,0-5.2,4.2-9.3,9.3-9.3s9.3,4.2,9.3,9.3-.4,3.2-1.3,4.7h0Z"/>
  <path class="st1" d="M250.6,181.7h-16.2c-.8-1.4-1.3-3-1.3-4.7,0-5.2,4.2-9.3,9.3-9.3s9.3,4.2,9.3,9.3-.4,3.2-1.3,4.7h0Z"/>
  <path class="st37" d="M246,168.4c.2.1.5.2.7.3,2.3,1.7,3.8,4.4,3.8,7.5s-.4,3.2-1.3,4.7h-15.2c-.1-.3-.2-.6-.3-.8,0-.3-.2-.6-.2-.8,0-.3-.1-.6-.2-.8,0-.3,0-.6,0-.8,0-.1,0-.3,0-.4s0-.3,0-.4c0-.3,0-.6,0-.8.6-4.3,4.1-7.7,8.4-8.1.3,0,.5,0,.8,0s0,0,.1,0c.3,0,.6,0,.9,0,.3,0,.6,0,.9.1.3,0,.5.1.8.2.3,0,.5.2.8.3h0Z"/>
  <path class="st1" d="M283.9,389.9c2.7,0,5.3,1.1,7.2,3,1.9,1.9,3,4.5,3,7.2v8.1h-103.2v-8.1c0-2.7,1.1-5.3,3-7.2,1.9-1.9,4.5-3,7.2-3h82.7Z"/>
  <path class="st1" d="M311,408.2c2.7,0,5.3,1.1,7.2,3,1.9,1.9,3,4.5,3,7.2v8.1h-157.5v-8.1c0-2.7,1.1-5.3,3-7.2,1.9-1.9,4.5-3,7.2-3h137.1Z"/>
  <path class="st30" d="M294.1,408.2h-103.2c0-1,0-2,.2-2.9h102.7c.2,1,.2,1.9.2,2.9h0Z"/>
  <path class="st30" d="M267.9,389.9h-50.8c-.3-.5-.5-1-.8-1.5h52.4c-.2.5-.5,1-.8,1.5h0Z"/>
  <path class="st14" d="M143.6,246.7c-.1.4-.6.7-1,.6-.4-.1-.7-.6-.6-1l19-71.2c0-.4.4-.6.8-.6s.7.3.8.6l19,71.2c.1.4-.1.9-.6,1-.4.1-.9-.1-1-.6l-18.2-68.1-18.2,68.1h0Z"/>
  <path class="st32" d="M180.8,246.5h-38.1c0,10.5,8.5,19,19,19s19-8.5,19-19h0Z"/>
  <path class="st7" d="M177.7,246.5c-1.4,9.1-9.3,16.1-18.8,16.1s-8.6-1.6-11.9-4.2c-2.6-3.3-4.2-7.4-4.2-11.9h34.9Z"/>
  <path class="st34" d="M180.8,243.5c.8,0,1.5.3,2.1.9.5.5.9,1.3.9,2.1h0c0,.8-.3,1.5-.9,2.1-.5.5-1.3.9-2.1.9h-38.1c-.8,0-1.5-.3-2.1-.9-.5-.5-.9-1.3-.9-2.1h0c0-.8.3-1.5.9-2.1.5-.5,1.3-.9,2.1-.9h38.1Z"/>
  <path class="st0" d="M161.8,171c2.4,0,4.4,2,4.4,4.4s-2,4.4-4.4,4.4-4.4-2-4.4-4.4,2-4.4,4.4-4.4h0Z"/>
  <path class="st23" d="M157.6,176.5c-.1-.4-.2-.8-.2-1.2,0-2.4,2-4.4,4.4-4.4s3.3,1,4,2.5c.1.4.2.8.2,1.2,0,2.4-2,4.4-4.4,4.4s-3.3-1-4-2.5h0Z"/>
  <path class="st15" d="M158.2,177.4c-.1-.2-.2-.4-.3-.6-.1-.4-.2-.8-.2-1.2,0-2.4,2-4.4,4.4-4.4s2.6.6,3.4,1.6c.1.2.2.4.3.6.1.4.2.8.2,1.2,0,2.4-2,4.4-4.4,4.4s-2.6-.6-3.4-1.6h0Z"/>
  <path class="st14" d="M304.9,246.7c-.1.4-.6.7-1,.6-.4-.1-.7-.6-.6-1l19-71.2c0-.4.4-.6.8-.6s.7.3.8.6l19,71.2c.1.4-.1.9-.6,1-.4.1-.9-.1-1-.6l-18.2-68.1-18.2,68.1h0Z"/>
  <path class="st32" d="M342.2,246.5h-38.1c0,10.5,8.5,19,19,19s19-8.5,19-19h0Z"/>
  <path class="st7" d="M339,246.5c-1.4,9.1-9.3,16.1-18.8,16.1s-8.6-1.6-11.9-4.2c-2.6-3.3-4.2-7.4-4.2-11.9h34.9Z"/>
  <path class="st34" d="M342.2,243.5c.8,0,1.5.3,2.1.9.5.5.9,1.3.9,2.1h0c0,.8-.3,1.5-.9,2.1-.5.5-1.3.9-2.1.9h-38.1c-.8,0-1.5-.3-2.1-.9-.5-.5-.9-1.3-.9-2.1h0c0-.8.3-1.5.9-2.1s1.3-.9,2.1-.9h38.1Z"/>
  <path class="st0" d="M323.2,171c2.4,0,4.4,2,4.4,4.4s-2,4.4-4.4,4.4-4.4-2-4.4-4.4,2-4.4,4.4-4.4h0Z"/>
  <path class="st23" d="M319,176.5c-.1-.4-.2-.8-.2-1.2,0-2.4,2-4.4,4.4-4.4s3.3,1,4,2.5c.1.4.2.8.2,1.2,0,2.4-2,4.4-4.4,4.4s-3.3-1-4-2.5h0Z"/>
  <path class="st15" d="M319.5,177.4c-.1-.2-.2-.4-.3-.6-.1-.4-.2-.8-.2-1.2,0-2.4,2-4.4,4.4-4.4s2.6.6,3.4,1.6c.1.2.2.4.3.6.1.4.2.8.2,1.2,0,2.4-2,4.4-4.4,4.4s-2.6-.6-3.4-1.6h0Z"/>
  <polygon class="st4" points="171 288.8 192.9 309.2 160.5 344 138.5 323.5 171 288.8 171 288.8"/>
  <g class="st41">
    <path class="st19" d="M144.1,317.5l22,20.5-5.6,6s.6-5.7-1-7.7c-3.4-4.2-15.3-18.8-15.3-18.8h0Z"/>
    <path class="st19" d="M171,288.8l22,20.5-5.6,6s.6-5.7-1-7.7c-3.4-4.2-15.3-18.8-15.3-18.8h0Z"/>
  </g>
  <polygon class="st2" points="170.7 278.9 202.8 308.9 198 314 165.9 284 170.7 278.9 170.7 278.9"/>
  <polygon class="st2" points="128.7 323.9 160.8 353.9 165.6 348.8 133.5 318.8 128.7 323.9 128.7 323.9"/>
  <g class="st54">
    <polygon class="st12" points="129.2 319.5 163.2 351.3 160.8 353.9 126.8 322.1 129.2 319.5 129.2 319.5"/>
  </g>
  <polygon class="st2" points="179.2 265.9 215.2 299.5 207.1 308.1 171.1 274.6 179.2 265.9 179.2 265.9"/>
  <polygon class="st2" points="116.3 333.3 152.3 366.9 160.3 358.2 124.4 324.6 116.3 333.3 116.3 333.3"/>
  <g class="st44">
    <polygon class="st12" points="120.7 328.6 156.8 362.3 152.4 367 116.3 333.3 120.7 328.6 120.7 328.6"/>
  </g>
  <polygon class="st10" points="179.8 282.6 198.5 300.1 196.1 302.6 177.4 285.2 179.8 282.6 179.8 282.6"/>
  <polygon class="st10" points="133 332.7 151.7 350.2 154.1 347.6 135.4 330.1 133 332.7 133 332.7"/>
  <polygon class="st2" points="185.9 267.4 213.2 292.9 210.9 295.4 183.5 269.9 185.9 267.4 185.9 267.4"/>
  <polygon class="st2" points="118.2 339.9 145.6 365.4 147.9 362.8 120.6 337.3 118.2 339.9 118.2 339.9"/>
  <polygon class="st2" points="160.3 290 192.4 320 171.2 342.8 139 312.8 160.3 290 160.3 290"/>
  <g class="st45">
    <polygon class="st27" points="149.7 301.4 183.7 333.2 170.7 347.1 136.7 315.3 149.7 301.4 149.7 301.4"/>
  </g>
  <polygon class="st35" points="190.4 322.2 194.6 326.1 177.4 344.5 173.2 340.6 190.4 322.2 190.4 322.2"/>
  <polygon class="st35" points="282.4 408.1 278.2 404.2 261 422.5 265.2 426.5 282.4 408.1 282.4 408.1"/>
  <polygon class="st10" points="192.5 328.4 196.7 332.3 183.7 346.2 179.5 342.3 192.5 328.4 192.5 328.4"/>
  <polygon class="st10" points="276.1 406.4 271.9 402.5 258.9 416.4 263.1 420.3 276.1 406.4 276.1 406.4"/>
  <polygon class="st2" points="196.7 332.3 183.7 346.2 262.2 412.9 268.6 405.9 196.7 332.3 196.7 332.3"/>
  <g class="st49">
    <polygon class="st36" points="190.2 339.2 265.4 409.4 258.9 416.4 183.7 346.2 190.2 339.2 190.2 339.2"/>
  </g>
  <path class="st35" d="M168.8,420.4c1.6,0,2.9,1.4,2.9,3h0c0,1.7-1.3,3-2.9,3h-90.4c-1.6,0-2.9-1.4-2.9-3h0c0-1.7,1.3-3,2.9-3h90.4Z"/>
  <path class="st12" d="M155.5,409c6.1,0,11,5.1,11,11.5h-85.8c0-6.3,4.9-11.5,11-11.5h63.7Z"/>
  <polygon class="st35" points="155.5 402.7 155.5 409 90.8 409 90.8 402.7 155.5 402.7 155.5 402.7"/>
</svg>