<svg width="25" height="25" viewBox="0 0 25 25" fill="none" xmlns="http://www.w3.org/2000/svg">
<g clip-path="url(#clip0_236_25551)">
<path d="M20.625 0H4.375C1.95875 0 0 1.95875 0 4.375V20.625C0 23.0412 1.95875 25 4.375 25H20.625C23.0412 25 25 23.0412 25 20.625V4.375C25 1.95875 23.0412 0 20.625 0Z" fill="#D6E5F6"/>
<path d="M7.03906 9.19531H3.51172V21.9766H7.03906V9.19531Z" fill="#072C46"/>
<path d="M18.8281 9.19546C16.2266 8.20327 14.3438 9.88296 13.5391 10.8205V9.19546H10.0234V21.9767H13.5391V15.2345C13.519 14.38 13.8313 13.551 14.4102 12.922C14.5754 12.7275 14.779 12.5692 15.0082 12.457C15.2373 12.3447 15.4872 12.281 15.7422 12.2697C16.0273 12.2642 16.3106 12.3164 16.5751 12.4231C16.8396 12.5299 17.0798 12.6889 17.2813 12.8908C17.7182 13.3474 17.9569 13.9581 17.9453 14.59V21.9767H21.9141V14.0626C21.9141 14.0626 22.3555 10.5158 18.8281 9.19546Z" fill="#072C46"/>
<path d="M5.27344 7.42969C6.49019 7.42969 7.47656 6.44332 7.47656 5.22656C7.47656 4.00981 6.49019 3.02344 5.27344 3.02344C4.05669 3.02344 3.07031 4.00981 3.07031 5.22656C3.07031 6.44332 4.05669 7.42969 5.27344 7.42969Z" fill="#072C46"/>
</g>
<defs>
<clipPath id="clip0_236_25551">
<rect width="25" height="25" fill="white"/>
</clipPath>
</defs>
</svg>
