<svg width="45" height="45" viewBox="0 0 45 45" fill="none" xmlns="http://www.w3.org/2000/svg">
<g clip-path="url(#clip0_236_25052)">
<path d="M22.4998 9.86555C29.4621 9.86555 35.1563 15.5334 35.1563 22.5002L35.1563 23.1152L44.0332 23.1152L44.0332 19.3341C44.0332 18.3223 43.2096 17.4902 42.1967 17.4902L40.1544 17.4902C39.966 17.4902 39.8026 17.3737 39.747 17.1929C39.4115 16.1046 38.9744 15.0485 38.4467 14.0474C38.3608 13.8856 38.3925 13.6805 38.5225 13.5501L39.9654 12.1084C40.2992 11.7749 40.4908 11.3016 40.4908 10.8093C40.4908 10.3175 40.2995 9.84419 39.9657 9.51021L35.4914 5.03438C34.7741 4.31842 33.608 4.31851 32.8921 5.03473L31.4492 6.47833C31.3164 6.61149 31.1148 6.6419 30.9489 6.55462C29.9479 6.02578 28.8933 5.58897 27.8071 5.25604C27.6268 5.20049 27.5098 5.03605 27.5098 4.84691L27.5098 2.80433C27.5098 1.79174 26.6774 0.966798 25.6646 0.966798L19.3341 0.966798C18.3212 0.966798 17.4902 1.79174 17.4902 2.80433L17.4902 4.84884C17.4902 5.03367 17.3691 5.20031 17.1904 5.25401C16.129 5.57455 15.0735 6.01146 14.0502 6.55225C13.8836 6.63996 13.6833 6.60973 13.5505 6.47631L12.1076 5.03271C11.392 4.31859 10.2272 4.31842 9.50932 5.03306L5.03543 9.50783C4.70092 9.84076 4.50949 10.314 4.50914 10.8062C4.50914 11.2983 4.70074 11.7721 5.03481 12.1069L6.47771 13.5498C6.6077 13.68 6.64145 13.8824 6.55216 14.0505C6.0119 15.0761 5.57517 16.1302 5.25428 17.1913C5.20005 17.3697 5.03209 17.4901 4.84541 17.4901L2.80309 17.4901C1.79033 17.4901 0.966619 18.3213 0.966619 19.3333L0.966619 23.1152L9.84375 23.1152L9.84375 22.5002C9.84375 15.5334 15.5376 9.86555 22.4998 9.86555ZM2.19726 21.8848L2.19726 19.3334C2.19726 18.981 2.44995 18.7207 2.80327 18.7207L4.84558 18.7207C5.56593 18.7207 6.1904 18.2443 6.39932 17.5548C6.69832 16.5666 7.10587 15.5727 7.60965 14.6165C7.73376 14.3831 7.79915 14.1173 7.79915 13.8537C7.79915 13.4203 7.63022 13.0113 7.32314 12.7053L5.88129 11.2624C5.76967 11.1507 5.70568 10.9844 5.70568 10.8068C5.70568 10.6305 5.76932 10.466 5.88093 10.3549L10.3549 5.87997C10.6056 5.6301 11.013 5.62992 11.2623 5.87901L12.7049 7.32147C13.2101 7.82842 13.9756 7.94452 14.6105 7.61019C15.5666 7.10482 16.5655 6.69735 17.553 6.39941C18.2434 6.19154 18.7207 5.56849 18.7207 4.84726L18.7207 2.80433C18.7207 2.45127 18.9808 2.19727 19.3341 2.19727L25.6646 2.19727C26.0178 2.19727 26.2793 2.45127 26.2793 2.80433L26.2793 4.84699C26.2793 5.56409 26.7525 6.18794 27.4384 6.39976C28.454 6.71071 29.4492 7.11888 30.3845 7.61291C31.0191 7.94654 31.7878 7.82991 32.2926 7.32366L33.7368 5.88059C33.9865 5.63054 34.3948 5.63071 34.6447 5.88059L39.1191 10.3559C39.3416 10.5786 39.3421 11.0408 39.1196 11.2628L37.6769 12.7052C37.3699 13.0119 37.2009 13.4191 37.2009 13.8524C37.2009 14.1159 37.2667 14.3785 37.3894 14.6096C37.8817 15.5432 38.2903 16.5449 38.6035 17.5616C38.8142 18.2472 39.4372 18.7207 40.1545 18.7207L42.1967 18.7207C42.55 18.7207 42.8027 18.9818 42.8027 19.3341L42.8027 21.8848L36.314 21.8848C35.998 14.5898 29.9216 8.65204 22.5 8.65204C15.0781 8.65204 9.00202 14.5898 8.68632 21.8848L2.19726 21.8848Z" fill="#2180EC"/>
<path d="M25.6006 40.9406C25.6006 39.44 24.5215 38.1861 23.1153 37.9067L23.1153 33.9218C24.6094 33.844 26.0157 33.4744 27.334 32.8697L27.334 36.7332C27.334 37.0634 27.5893 37.3534 27.9197 37.3534L31.2639 37.3534C31.5433 38.7596 32.7968 39.8363 34.2969 39.8363C36.0019 39.8363 37.3888 38.4437 37.3888 36.7387C37.3888 35.0336 36.0019 33.6378 34.2969 33.6378C32.7969 33.6378 31.5433 34.7167 31.2639 36.1229L28.4766 36.1229L28.4766 32.222C31.7286 30.2027 33.9168 26.6001 33.9168 22.5C33.9168 16.1935 28.7963 11.0625 22.4898 11.0625C16.1832 11.0625 11.0781 16.1935 11.0781 22.5C11.0781 26.6001 13.2715 30.2027 16.5235 32.2221L16.5235 36.123L13.7366 36.123C13.4572 34.7168 12.2036 33.6352 10.7033 33.6352C8.99828 33.6352 7.61137 35.0253 7.61137 36.7303C7.61137 38.4352 8.99828 39.8348 10.7033 39.8348C12.2036 39.8348 13.4571 38.7597 13.7366 37.3535L17.0804 37.3535C17.4107 37.3535 17.6661 37.0635 17.6661 36.7333L17.6661 32.8698C18.9844 33.4744 20.3907 33.8441 21.8848 33.9219L21.8848 37.9068C20.4786 38.1863 19.3999 39.4401 19.3999 40.9407C19.3999 42.6453 20.7954 44.0324 22.5 44.0324C24.205 44.0323 25.6006 42.6452 25.6006 40.9406ZM34.2968 34.8375C35.3423 34.8375 36.1927 35.688 36.1927 36.7333C36.1927 37.7786 35.3423 38.629 34.2968 38.629C33.2517 38.629 32.4013 37.7786 32.4013 36.7333C32.4013 35.688 33.2517 34.8375 34.2968 34.8375ZM10.7033 38.629C9.65781 38.629 8.80738 37.7786 8.80738 36.7333C8.80738 35.688 9.65781 34.8375 10.7033 34.8375C11.7487 34.8375 12.5992 35.688 12.5992 36.7333C12.5992 37.7786 11.7487 38.629 10.7033 38.629ZM17.6661 31.5328L17.6661 28.0336C19.0723 28.589 20.4786 28.9128 21.8848 28.9831L21.8848 32.7231C20.3907 32.6352 18.9844 32.2145 17.6661 31.5328ZM21.8848 12.2769L21.8848 16.0168C20.4786 16.0871 19.0723 16.4108 17.6661 16.9664L17.6661 13.4673C18.9844 12.7855 20.3907 12.3648 21.8848 12.2769ZM28.4766 23.1152L31.3446 23.1152L32.088 23.1152C31.0207 24.3457 29.795 25.3394 28.4766 26.105L28.4766 23.1152ZM27.334 26.7309C26.0157 27.3475 24.5215 27.7075 23.1153 27.7857L23.1153 23.1152L27.334 23.1152L27.334 26.7309ZM32.0881 21.8847L31.3447 21.8847L28.4766 21.8847L28.4766 18.895C29.795 19.6607 31.0207 20.6543 32.0881 21.8847ZM27.334 21.8847L23.1153 21.8847L23.1153 17.2143C24.5215 17.2925 26.0157 17.6525 27.334 18.2691L27.334 21.8847ZM23.1153 16.0167L23.1153 12.2768C24.6094 12.3647 26.0157 12.7854 27.334 13.4672L27.334 16.9663C25.9278 16.4107 24.5215 16.087 23.1153 16.0167ZM21.8848 17.2143L21.8848 21.8847L17.6661 21.8847L17.6661 18.2691C18.9844 17.6525 20.4786 17.2925 21.8848 17.2143ZM16.5235 21.8847L12.912 21.8847C13.9794 20.6543 15.2051 19.6607 16.5235 18.895L16.5235 21.8847ZM12.912 23.1152L16.5235 23.1152L16.5235 26.105C15.2051 25.3394 13.9794 24.3457 12.912 23.1152ZM17.6661 23.1152L21.8848 23.1152L21.8848 27.7857C20.4786 27.7075 18.9844 27.3475 17.6661 26.7309L17.6661 23.1152ZM23.1153 28.9832C24.5215 28.9129 25.9278 28.5892 27.334 28.0337L27.334 31.5328C26.0157 32.2146 24.6094 32.6353 23.1153 32.7232L23.1153 28.9832ZM28.4766 30.7813L28.4766 27.4748C29.9707 26.7016 31.3163 25.6479 32.5335 24.3441C32.0527 26.9777 30.586 29.2625 28.4766 30.7813ZM32.5335 20.6559C31.3163 19.3522 29.9707 18.2984 28.4766 17.5251L28.4766 14.2187C30.586 15.7374 32.0526 18.0222 32.5335 20.6559ZM16.5235 14.2187L16.5235 17.5251C15.0293 18.2983 13.6837 19.3521 12.4665 20.6559C12.9475 18.0222 14.4141 15.7374 16.5235 14.2187ZM12.4665 24.344C13.6837 25.6478 15.0293 26.7016 16.5235 27.4748L16.5235 30.7813C14.4141 29.2625 12.9475 26.9777 12.4665 24.344ZM20.6045 40.9406C20.6045 39.895 21.4549 39.0445 22.5 39.0445C23.5455 39.0445 24.3959 39.8951 24.3959 40.9406C24.3959 41.9857 23.5455 42.8359 22.5 42.8359C21.4549 42.8359 20.6045 41.9857 20.6045 40.9406Z" fill="#2180EC"/>
</g>
<defs>
<clipPath id="clip0_236_25052">
<rect width="45" height="45" fill="white" transform="translate(45 1.96701e-06) rotate(90)"/>
</clipPath>
</defs>
</svg>
