<svg width="147" height="110" viewBox="0 0 147 110" fill="none" xmlns="http://www.w3.org/2000/svg">
<g opacity="0.45">
<path d="M1.42651 36.9546C1.42651 28.4085 8.85699 21.4805 18.0229 21.4805H21.4849C19.8656 20.1735 18.8397 18.2445 18.8397 16.091C18.8397 12.1546 22.2624 8.96358 26.4842 8.96358H38.0066C36.8413 8.02828 36.1004 6.64592 36.1004 5.09985C36.1004 2.28322 38.5494 0.00012207 41.5701 0.00012207H70.5025C73.5233 0.00012207 75.9722 2.28339 75.9722 5.09985C75.9722 7.91648 73.5233 10.1997 70.5025 10.1997H59.6693C57.6521 11.4829 56.3275 13.6426 56.3275 16.091C56.3275 18.2445 57.3533 20.1737 58.9726 21.4805H76.789C85.9549 21.4805 93.3854 28.4085 93.3854 36.9546C93.3854 45.5007 85.9549 52.4287 76.789 52.4287H100.392C104.614 52.4287 108.036 55.6199 108.036 59.5563C108.036 63.4927 104.614 66.6837 100.392 66.6837H110.009C120.516 66.6837 129.238 73.7862 130.969 83.1217H134.337C140.889 83.1217 146.199 88.0736 146.199 94.182V95.3025C146.199 101.411 140.888 106.363 134.337 106.363H110.009H30.3896H22.7049C10.9534 106.363 1.42651 97.4805 1.42651 86.5234C1.42651 75.5664 10.9532 66.6839 22.7049 66.6839H59.9565C55.7345 66.6839 52.312 63.4927 52.312 59.5565C52.312 55.62 55.7345 52.4288 59.9565 52.4288H18.0229C8.85699 52.4287 1.42651 45.5007 1.42651 36.9546Z" fill="#ABE9FF"/>
<path d="M86.0045 10.1998C88.7489 10.1998 90.9738 7.91648 90.9738 5.0999C90.9738 2.28331 88.7489 0 86.0045 0C83.26 0 81.0352 2.28331 81.0352 5.0999C81.0352 7.91648 83.26 10.1998 86.0045 10.1998Z" fill="#ABE9FF"/>
</g>
<path opacity="0.15" d="M73.813 110C113.583 110 145.823 108.472 145.823 106.588C145.823 104.703 113.583 103.175 73.813 103.175C34.0432 103.175 1.80341 104.703 1.80341 106.588C1.80341 108.472 34.0432 110 73.813 110Z" fill="#231F20"/>
<path d="M8.00847 101.058C8.23411 100.893 8.69177 101.09 10.1787 100.471C12.3478 99.5674 13.1948 94.8993 13.1948 94.8993C9.89416 94.486 10.103 99.2418 8.82575 100.055C8.24939 100.422 7.97809 100.778 7.85352 101.058H8.00847Z" fill="#66E8C4"/>
<path d="M12.171 96.2897C11.4924 97.6731 10.6914 99.7134 9.33943 100.364C8.96219 100.546 8.68636 100.751 8.48053 100.953C8.8064 100.913 9.3208 100.828 10.1787 100.471C12.3478 99.5674 13.1948 94.8993 13.1948 94.8993C13.1948 94.8993 12.8496 94.9063 12.171 96.2897Z" fill="#3FD2C5"/>
<path d="M6.61638 101.058H6.97398C7.2065 100.563 7.2812 99.6342 6.50389 97.9279C5.06527 94.7707 4.33933 90.6759 5.34178 89.4717C5.34178 89.4717 1.90885 91.9186 2.68935 94.4638C3.42184 96.8528 7.11013 98.444 6.61638 101.058Z" fill="#35BFE6"/>
<path d="M6.7619 101.058H6.97411C7.20663 100.563 7.28117 99.6343 6.50369 97.9279C5.06507 94.7707 4.33913 90.6759 5.34158 89.4717C5.34158 89.4717 3.07563 91.9915 3.93537 94.4045C4.78437 96.7868 7.39986 98.0272 6.7619 101.058Z" fill="#0A88D2"/>
<path d="M3.22641 99.7228C4.5329 100.255 5.0918 100.609 5.45611 101.057H5.91477C5.57194 100.021 5.36747 98.9121 4.56262 98.0737C3.64881 97.1218 0.127406 95.5549 0.00652816 95.3732C-0.11435 95.1916 1.46159 99.0039 3.22641 99.7228Z" fill="#49D3D5"/>
<path d="M5.51167 100.765C5.53887 100.848 5.57883 100.948 5.62617 101.058H5.91477C5.57178 100.021 5.3673 98.9123 4.56262 98.0739C3.64881 97.1219 0.127409 95.5552 0.00653076 95.3734C0.00653076 95.3734 1.7156 97.5172 3.61674 98.4966C4.9778 99.1979 5.33791 100.235 5.51167 100.765Z" fill="#0FA1B8"/>
<path d="M7.60778 99.5606C7.56379 100.186 7.42258 100.685 7.27266 101.057H7.52248C8.38005 99.9503 9.69913 97.8013 9.45217 95.2923C9.09121 91.6254 8.69853 87.0286 8.69853 87.0286C8.69853 87.0286 3.87179 90.6883 6.24688 94.7475C7.43098 96.7712 7.69055 98.3852 7.60778 99.5606Z" fill="#66E8C7"/>
<path d="M7.85235 92.7958C8.34173 95.8346 8.34812 99.237 7.56812 100.677C7.71048 100.576 7.86243 100.47 8.01806 100.363C8.80377 99.1654 9.65445 97.3499 9.45198 95.2921C9.09102 91.6253 8.69834 87.0284 8.69834 87.0284C8.69834 87.0284 7.21555 88.8409 7.85235 92.7958Z" fill="#3FD2C5"/>
<path d="M10.4452 100.835H4.95144C4.46441 100.835 4.09506 101.274 4.17833 101.754L4.88043 105.797C4.98956 106.371 5.49153 106.786 6.07595 106.786H9.32085C9.90527 106.786 10.4072 106.371 10.5162 105.797L11.2183 101.754C11.3016 101.274 10.9321 100.835 10.4452 100.835Z" fill="#CADBF9"/>
<path d="M11.2287 101.646C11.2445 101.21 10.8956 100.835 10.4452 100.835H4.95146C4.50102 100.835 4.15215 101.21 4.16793 101.646H11.2287Z" fill="#A1B7EB"/>
<path d="M10.4452 100.835H8.91761C9.40465 100.835 9.774 101.274 9.69073 101.754L8.98862 105.797C8.8795 106.371 8.37769 106.786 7.79327 106.786H9.32104C9.90545 106.786 10.4073 106.371 10.5164 105.797L11.2185 101.754C11.3016 101.274 10.9321 100.835 10.4452 100.835Z" fill="#A1B7EB"/>
<path d="M139.504 101.058C139.73 100.893 140.188 101.09 141.675 100.471C143.844 99.5674 144.691 94.8993 144.691 94.8993C141.39 94.486 141.599 99.2418 140.322 100.055C139.745 100.422 139.474 100.778 139.349 101.058H139.504Z" fill="#66E8C4"/>
<path d="M143.667 96.2897C142.988 97.6731 142.187 99.7134 140.835 100.364C140.458 100.546 140.182 100.751 139.976 100.953C140.302 100.913 140.817 100.828 141.675 100.471C143.844 99.5674 144.691 94.8993 144.691 94.8993C144.691 94.8993 144.345 94.9063 143.667 96.2897Z" fill="#3FD2C5"/>
<path d="M138.112 101.058H138.47C138.702 100.563 138.777 99.6342 138 97.9279C136.561 94.7707 135.835 90.6759 136.838 89.4717C136.838 89.4717 133.405 91.9186 134.185 94.4638C134.918 96.8528 138.606 98.444 138.112 101.058Z" fill="#35BFE6"/>
<path d="M138.258 101.058H138.47C138.703 100.563 138.777 99.6343 138 97.9279C136.561 94.7707 135.835 90.6759 136.838 89.4717C136.838 89.4717 134.572 91.9915 135.431 94.4045C136.28 96.7868 138.896 98.0272 138.258 101.058Z" fill="#0A88D2"/>
<path d="M134.722 99.7228C136.029 100.255 136.588 100.609 136.952 101.057H137.411C137.068 100.021 136.863 98.9121 136.058 98.0737C135.145 97.1218 131.623 95.5549 131.502 95.3732C131.381 95.1916 132.958 99.0039 134.722 99.7228Z" fill="#49D3D5"/>
<path d="M137.007 100.765C137.035 100.848 137.075 100.948 137.122 101.058H137.41C137.067 100.021 136.863 98.9123 136.058 98.0739C135.145 97.1219 131.623 95.5552 131.502 95.3734C131.502 95.3734 133.211 97.5172 135.112 98.4966C136.473 99.1979 136.834 100.235 137.007 100.765Z" fill="#0FA1B8"/>
<path d="M139.103 99.5606C139.059 100.186 138.918 100.685 138.768 101.057H139.018C139.876 99.9503 141.195 97.8013 140.948 95.2923C140.587 91.6254 140.194 87.0286 140.194 87.0286C140.194 87.0286 135.367 90.6883 137.742 94.7475C138.927 96.7712 139.186 98.3852 139.103 99.5606Z" fill="#66E8C7"/>
<path d="M139.348 92.7958C139.838 95.8346 139.844 99.237 139.064 100.677C139.206 100.576 139.358 100.47 139.514 100.363C140.3 99.1654 141.15 97.3499 140.948 95.2921C140.587 91.6253 140.194 87.0284 140.194 87.0284C140.194 87.0284 138.711 88.8409 139.348 92.7958Z" fill="#3FD2C5"/>
<path d="M141.941 100.835H136.447C135.96 100.835 135.591 101.274 135.674 101.754L136.376 105.797C136.485 106.371 136.987 106.786 137.572 106.786H140.817C141.401 106.786 141.903 106.371 142.012 105.797L142.714 101.754C142.797 101.274 142.428 100.835 141.941 100.835Z" fill="#CADBF9"/>
<path d="M142.724 101.646C142.74 101.21 142.391 100.835 141.941 100.835H136.447C135.997 100.835 135.648 101.21 135.664 101.646H142.724Z" fill="#A1B7EB"/>
<path d="M141.941 100.835H140.413C140.9 100.835 141.27 101.274 141.186 101.754L140.484 105.797C140.375 106.371 139.873 106.786 139.289 106.786H140.817C141.401 106.786 141.903 106.371 142.012 105.797L142.714 101.754C142.797 101.274 142.428 100.835 141.941 100.835Z" fill="#A1B7EB"/>
<path d="M121.804 37.1678L122.433 37.6549L125.58 40.0161L128.866 37.693L129.253 37.212L131.691 39.1044L126.012 42.2617L120.439 38.2019L121.804 37.1678Z" fill="#DA8642"/>
<path d="M136.503 43.8734L114.491 43.7433C114.176 43.7413 113.923 43.4846 113.925 43.1696L113.994 31.445C113.996 31.13 114.253 30.8763 114.568 30.8782L136.579 31.0086C136.894 31.0105 137.148 31.2672 137.146 31.582L137.077 43.3068C137.074 43.6216 136.818 43.8754 136.503 43.8734Z" fill="#EF9B06"/>
<path d="M114.042 31.2209C114.024 31.2611 114.021 31.3071 114.013 31.3514C114.007 31.3836 113.995 31.413 113.994 31.4469L113.925 43.1694C113.924 43.336 113.997 43.483 114.11 43.588L122.016 37.2959L114.042 31.2209Z" fill="#FAC762"/>
<path d="M129.253 37.3737L137.009 43.5595C137.048 43.4838 137.074 43.4014 137.076 43.3107L137.145 31.5885C137.145 31.5038 137.127 31.4235 137.096 31.3505L137.096 31.35L129.253 37.3737Z" fill="#FAC762"/>
<path d="M136.623 31.0155L114.547 30.8812C114.334 30.8879 114.152 31.0117 114.061 31.191L125.414 39.9039C125.61 40.0544 125.88 40.0534 126.075 39.9018L137.085 31.3322C136.999 31.1561 136.828 31.033 136.623 31.0155Z" fill="#FFDB96"/>
<path d="M137.378 32.6762C138.168 31.8863 138.168 30.6056 137.378 29.8157C136.589 29.0258 135.308 29.0258 134.518 29.8157C133.728 30.6056 133.728 31.8863 134.518 32.6762C135.308 33.4661 136.589 33.4661 137.378 32.6762Z" fill="#EF542B"/>
<path d="M135.839 30.3652H135.831L135.341 30.612L135.255 30.2294L135.905 29.9086H136.328V32.5821H135.839V30.3652H135.839Z" fill="white"/>
<path d="M117.166 104.639H49.449C46.7697 104.639 44.5977 102.467 44.5977 99.7878V56.7404C44.5977 54.0611 46.7697 51.8892 49.449 51.8892H117.166C119.845 51.8892 122.017 54.0611 122.017 56.7404V99.7876C122.018 102.467 119.846 104.639 117.166 104.639Z" fill="#65260F"/>
<path d="M92.2952 46.5931H89.5538V48.9351H91.9493V54.3644H71.9348V48.9351H75.0754V46.5931H71.5888C70.4881 46.5931 69.5928 47.4885 69.5928 48.5893V54.7109C69.5928 55.8111 70.4881 56.7064 71.5888 56.7064H92.2952C93.3959 56.7064 94.2914 55.8111 94.2914 54.7109V48.5893C94.2912 47.4886 93.3959 46.5931 92.2952 46.5931Z" fill="#752C15"/>
<path d="M73.6376 53.0871H67.783V52.182C67.783 51.8882 68.0212 51.65 68.315 51.65H73.1055C73.3993 51.65 73.6375 51.8882 73.6375 52.182L73.6376 53.0871Z" fill="#FDE86B"/>
<path d="M95.8875 53.0871H90.0328V52.182C90.0328 51.8882 90.271 51.65 90.5648 51.65H95.3553C95.6491 51.65 95.8875 51.8882 95.8875 52.1822V53.0871Z" fill="#FDE86B"/>
<path d="M115.034 105.837H48.6369C45.9821 105.837 43.83 103.685 43.83 101.03V57.8941C43.83 55.2393 45.9821 53.0872 48.6369 53.0872H115.034C117.689 53.0872 119.841 55.2393 119.841 57.8941V101.03C119.841 103.685 117.689 105.837 115.034 105.837Z" fill="#B15226"/>
<path d="M119.841 59.3777C119.841 56.7998 117.625 54.71 114.891 54.71H48.7801C46.0462 54.71 43.83 56.7998 43.83 59.3777V65.6085L80.8677 77.3374C82.3234 77.7982 83.9002 77.792 85.3518 77.3191L119.841 66.0848V59.3777Z" fill="#65260F"/>
<path d="M119.841 57.7549C119.841 55.177 117.625 53.0872 114.891 53.0872H48.7801C46.0462 53.0872 43.83 55.177 43.83 57.7549V63.9857L80.8677 75.7146C82.3234 76.1756 83.9002 76.1692 85.3518 75.6963L119.841 64.462V57.7549Z" fill="#C96828"/>
<path d="M48.2863 54.5142H115.385C117.257 54.5142 118.886 55.4673 119.751 56.8779C119.315 54.7197 117.306 53.0872 114.891 53.0872H48.7803C46.3647 53.0872 44.356 54.7195 43.9203 56.8777C44.7847 55.4673 46.4144 54.5142 48.2863 54.5142Z" fill="#EB7C44"/>
<path d="M86.5475 80.0143H78.2415C77.7276 80.0143 77.311 79.5978 77.311 79.0839V73.8428C77.311 73.3289 77.7276 72.9124 78.2415 72.9124H86.5475C87.0614 72.9124 87.4779 73.3289 87.4779 73.8428V79.0839C87.4777 79.5976 87.0612 80.0143 86.5475 80.0143Z" fill="#FFAD35"/>
<path d="M86.5196 72.9124H78.2691C77.74 72.9124 77.3109 73.3168 77.3109 73.8157V77.0279H87.4777V73.8157C87.4779 73.3168 87.0489 72.9124 86.5196 72.9124Z" fill="#FDE86B"/>
<path d="M89.95 45.0776C82.1794 41.2498 74.6637 44.9255 74.348 45.0836C73.193 45.6603 72.7225 47.0697 73.2994 48.2253C73.5788 48.7854 74.0598 49.2027 74.6537 49.4005C74.8975 49.4818 75.1482 49.5221 75.3976 49.5219C75.7552 49.5219 76.11 49.4393 76.437 49.276C76.4945 49.2479 82.2392 46.5001 87.8795 49.2798C88.2049 49.4401 88.5529 49.5214 88.9135 49.5214C89.8127 49.5214 90.6182 49.0204 91.0158 48.2141C91.5866 47.0555 91.1085 45.6486 89.95 45.0776Z" fill="#65260F"/>
<path opacity="0.15" d="M115.034 53.0873H113.586C116.642 66.7682 122.199 96.4132 113.975 100.228C104.227 104.748 53.196 101.833 43.8416 101.255C43.9599 103.805 46.0582 105.837 48.6371 105.837H115.034C117.689 105.837 119.841 103.685 119.841 101.03V57.8942C119.841 55.2393 117.689 53.0873 115.034 53.0873Z" fill="#231F20"/>
<path d="M79.416 78.0781C79.416 78.2255 79.2766 78.3449 79.1047 78.3449C78.9328 78.3449 78.7935 78.2253 78.7935 78.0781C78.7935 77.9307 78.9328 77.8112 79.1047 77.8112C79.2766 77.8112 79.416 77.9307 79.416 78.0781Z" fill="white"/>
<path d="M51.084 91.6658C51.7718 91.6658 52.3294 88.7734 52.3294 85.2055C52.3294 81.6376 51.7718 78.7452 51.084 78.7452C50.3962 78.7452 49.8386 81.6376 49.8386 85.2055C49.8386 88.7734 50.3962 91.6658 51.084 91.6658Z" fill="#C96828"/>
<path d="M65.632 96.4255V94.6901H19.8885C17.5376 94.6901 15.632 97.1778 15.632 100.246V100.281C15.632 103.349 17.5376 105.837 19.8885 105.837H65.632V104.102C64.2087 100.185 65.632 96.4255 65.632 96.4255Z" fill="#F85427"/>
<path d="M19.8887 94.6899H38.3591C38.4309 94.9722 38.4719 95.269 38.4719 95.5769V100.65C38.4719 102.442 37.1693 103.895 35.5624 103.895H16.6574C16.019 102.924 15.6321 101.661 15.6321 100.281V100.246C15.632 97.1777 17.5378 94.6899 19.8887 94.6899Z" fill="#FF6C3C"/>
<path d="M65.632 94.6899H43.2001C41.3204 94.6899 39.7967 96.6791 39.7967 99.1327V101.394C39.7967 103.848 41.3204 105.837 43.2001 105.837H65.632V104.102C64.2087 100.185 65.632 96.4256 65.632 96.4256V94.6899Z" fill="#D83A21"/>
<path d="M43.4398 96.4255C42.1454 96.4255 41.0961 97.7953 41.0961 99.4849V101.042C41.0961 102.732 42.1454 104.102 43.4398 104.102H65.632C64.3867 100.264 65.632 96.4255 65.632 96.4255H43.4398Z" fill="#EDF0EF"/>
<path opacity="0.83" d="M65.632 96.4255H43.4398C42.1454 96.4255 41.0961 97.7953 41.0961 99.4849V100.264H65.0794C65.1044 98.0624 65.632 96.4255 65.632 96.4255Z" fill="#DEE1DE"/>
<path d="M16.843 80.2547V79.1564H52.8477C54.698 79.1564 56.198 80.7306 56.198 82.6726V82.6944C56.198 84.6363 54.698 86.2106 52.8477 86.2106H16.843V85.1123C17.9633 82.6338 16.843 80.2547 16.843 80.2547Z" fill="#FAB001"/>
<path d="M52.8477 79.1564H38.3097C38.2532 79.335 38.2209 79.5229 38.2209 79.7176V82.9281C38.2209 84.0622 39.2462 84.9817 40.5111 84.9817H55.3912C55.8938 84.3667 56.1982 83.5681 56.1982 82.6942V82.6724C56.198 80.7306 54.6981 79.1564 52.8477 79.1564Z" fill="#FFC71F"/>
<path opacity="0.15" d="M44.9715 79.1564H42.3693C43.4424 79.8168 44.1766 81.1416 44.1766 82.6712V82.6958C44.1766 84.2254 43.4426 85.5501 42.3693 86.2106H44.9715C46.8218 86.2106 47.9046 84.6187 47.9046 82.6768V82.6402C47.9046 80.6981 46.8218 79.1564 44.9715 79.1564Z" fill="#231F20"/>
<path d="M16.843 79.1564H34.4991C35.9786 79.1564 37.1779 80.4152 37.1779 81.9678V83.399C37.1779 84.9518 35.9785 86.2104 34.4991 86.2104H16.843V85.1121C17.9633 82.6338 16.843 80.2545 16.843 80.2545V79.1564Z" fill="#EA9D03"/>
<path d="M34.3106 80.2548C35.3295 80.2548 36.1553 81.1216 36.1553 82.1908V83.1765C36.1553 84.2457 35.3295 85.1125 34.3106 85.1125H16.8431C17.8233 82.6837 16.8431 80.2549 16.8431 80.2549L34.3106 80.2548Z" fill="#EDF0EF"/>
<path opacity="0.83" d="M16.843 80.2548H34.3104C35.3293 80.2548 36.1552 81.1216 36.1552 82.1908V82.6836H17.278C17.2584 81.2906 16.843 80.2548 16.843 80.2548Z" fill="#DEE1DE"/>
<path d="M13.3337 87.5272V86.2108H56.8611C59.098 86.2108 60.5281 88.1081 60.5281 90.4357V90.4617C60.5281 92.7893 59.098 94.6657 56.8611 94.6657H13.3337V93.3495C14.6879 90.3789 13.3337 87.5272 13.3337 87.5272Z" fill="#4796EB"/>
<path d="M60.528 90.4357V90.4618C60.528 91.4148 60.2849 92.2892 59.848 92.9931H41.3745C40.1642 92.9931 39.1832 91.9002 39.1832 90.5521V86.2107H56.8612C59.0979 86.2109 60.528 88.1081 60.528 90.4357Z" fill="#60ABEF"/>
<path opacity="0.15" d="M47.3391 86.2108H44.1931C45.4905 87.0024 46.378 88.5901 46.378 90.4236V90.453C46.378 92.2863 45.4905 93.8741 44.1931 94.6657H47.3391C49.5761 94.6657 51.3896 92.7789 51.3896 90.4513V90.4253C51.3894 88.0977 49.5761 86.2108 47.3391 86.2108Z" fill="#231F20"/>
<path d="M13.3337 86.2108H34.6788C36.4675 86.2108 37.9173 87.7194 37.9173 89.5806V91.2961C37.9173 93.1571 36.4675 94.6657 34.6788 94.6657H13.3337V93.3495C14.6881 90.3789 13.3337 87.5272 13.3337 87.5272V86.2108Z" fill="#5384CC"/>
<path d="M34.4507 87.5272C35.6825 87.5272 36.6809 88.5661 36.6809 89.8478V91.029C36.6809 92.3105 35.6825 93.3495 34.4507 93.3495H13.3336C14.5186 90.4384 13.3336 87.5272 13.3336 87.5272H34.4507Z" fill="#EDF0EF"/>
<path opacity="0.83" d="M13.3337 87.5272H34.4508C35.6826 87.5272 36.681 88.5661 36.681 89.8478V90.4384H13.8597C13.8357 88.7689 13.3337 87.5272 13.3337 87.5272Z" fill="#DEE1DE"/>
<path d="M33.7662 89.5806C33.7662 89.5806 33.5517 89.8596 33.5248 90.5013C33.4979 91.1429 33.203 91.8964 33.203 91.8964L32.5057 91.171L31.7549 91.8964C31.7549 91.8964 31.9964 91.0036 31.9964 90.5291C31.9964 90.0548 32.3717 89.5806 32.3717 89.5806H33.7662Z" fill="#022FA0"/>
<path d="M22.0382 101.402H24.1457L24.007 102.039H21.4004V97.8878H22.0382V101.402Z" fill="#F9BCAC"/>
<path d="M27.9276 101.065H26.0476L25.6096 102.039H24.9109L26.7798 97.8878H27.1957L29.0646 102.039H28.3658L27.9276 101.065ZM27.6392 100.428L26.9903 98.9836L26.3359 100.428H27.6392Z" fill="#F9BCAC"/>
<path d="M34.155 97.8878L32.641 102.039H32.225L31.626 100.395L31.027 102.039H30.6111L29.0971 97.8878H29.7792L30.8163 100.771L31.626 98.5353L32.4302 100.771L33.4727 97.8878H34.155Z" fill="#F9BCAC"/>
<path d="M67.4454 101.433L68.2494 100.259C68.6568 99.6636 68.5047 98.8508 67.9098 98.4435L60.9482 93.6769C60.3532 93.2695 59.5406 93.4214 59.133 94.0165L58.3291 95.1907C57.9217 95.7856 58.0738 96.5983 58.6688 97.0056L65.6302 101.772C66.2254 102.18 67.0379 102.028 67.4454 101.433Z" fill="#4796EB"/>
<path d="M76.7758 88.1618L77.5799 86.9878C77.9873 86.3926 77.8352 85.5802 77.2402 85.1727L70.2786 80.4061C69.6837 79.9987 68.8711 80.1508 68.4636 80.7458L67.6598 81.9199C67.2523 82.5149 67.4044 83.3275 67.9994 83.7351L74.961 88.5018C75.5558 88.9089 76.3684 88.757 76.7758 88.1618Z" fill="#4796EB"/>
<path d="M68.0031 83.7428L61.1176 93.7982L67.7474 98.3381L74.633 88.2827L68.0031 83.7428Z" fill="#CACADA"/>
<path d="M72.899 92.1406L70.7237 95.3174L83.2376 103.886L85.4129 100.71L72.899 92.1406Z" fill="#5384CC"/>
<path d="M73.4633 91.3107L70.1531 96.145L70.4267 96.3323C70.7904 96.5813 71.2873 96.4884 71.5365 96.1246L73.9446 92.6076C74.1936 92.2439 74.1008 91.7472 73.737 91.4979L73.4633 91.3107Z" fill="#4796EB"/>
<path d="M87.6227 102.366L85.5798 105.349C85.2299 105.86 84.5317 105.991 84.0207 105.641L83.5925 105.348C83.0815 104.998 82.9509 104.299 83.3008 103.788L85.3438 100.805C85.6938 100.294 86.3917 100.163 86.9028 100.513L87.3309 100.806C87.8421 101.156 87.9727 101.855 87.6227 102.366Z" fill="#4796EB"/>
<path d="M66.2183 85.0163L61.6595 91.6738L69.5325 97.065L74.0913 90.4074L66.2183 85.0163Z" fill="#DDDCED"/>
<path d="M72.8483 89.5562L68.2894 96.2137L69.5325 97.065L74.0914 90.4074L72.8483 89.5562Z" fill="#A6A4BE"/>
<path d="M71.9366 88.933L67.3777 95.5906L68.2894 96.2148L72.8482 89.5573L71.9366 88.933Z" fill="#CACADA"/>
<path d="M74.9691 90.0897C75.2041 89.7465 75.1163 89.2776 74.7732 89.0424L67.2315 83.8784C66.8884 83.6433 66.4195 83.7311 66.1843 84.0743C65.9492 84.4175 66.037 84.8864 66.3802 85.1216L73.9218 90.2856C74.265 90.5206 74.7339 90.4328 74.9691 90.0897Z" fill="#5384CC"/>
<path d="M69.5591 97.9904C69.7941 97.6473 69.7063 97.1783 69.3631 96.9431L61.8215 91.7791C61.4784 91.5441 61.0095 91.6319 60.7743 91.9751C60.5392 92.3184 60.627 92.7871 60.9702 93.0223L68.5118 98.1863C68.8551 98.4214 69.3238 98.3336 69.5591 97.9904Z" fill="#5384CC"/>
<path d="M68.815 103.226H52.0037C51.612 103.226 51.2944 103.543 51.2944 103.935V105.837H69.5243V103.935C69.5243 103.543 69.2067 103.226 68.815 103.226Z" fill="#5384CC"/>
<path d="M68.093 102.422H52.7256V103.226H68.093V102.422Z" fill="#A6A4BE"/>
<path d="M57.0914 103.031H42.6265V102.725C42.6265 102.501 42.8081 102.319 43.0321 102.319H56.6856C56.9096 102.319 57.0912 102.501 57.0912 102.725L57.0914 103.031Z" fill="#FFAD35"/>
<path d="M57.3733 103.031H42.3446C41.9591 103.031 41.6467 103.344 41.6467 103.729V105.837H58.0712V103.729C58.0712 103.344 57.7587 103.031 57.3733 103.031Z" fill="#C96828"/>
<path d="M48.7156 97.3633C48.7156 97.3633 48.9355 96.0833 48.5727 94.7626C48.015 92.7328 46.3804 92.4491 46.6267 90.3461C46.8668 88.2973 47.9015 87.3542 48.7814 87.2159C50.0701 87.0131 50.6951 86.9773 51.8302 88.4769C52.9653 89.9763 52.5984 91.4215 51.9474 92.1687C51.4296 92.7629 51.0295 93.7101 50.9975 94.4785C50.9654 95.2469 51.2362 97.3698 51.2362 97.3698L48.7156 97.3633Z" fill="#FF6C3C"/>
<path d="M51.8302 88.477C50.9098 87.2612 50.3247 87.0549 49.4494 87.1282C50.335 87.7061 50.6096 88.8165 50.6096 88.8165C49.5107 88.6242 48.1981 89.3995 48.1981 89.3995C48.1981 89.3995 50.2794 88.7839 51.4929 89.6087C52.7064 90.4335 50.6828 92.8014 50.8234 94.0973C50.9639 95.3933 50.6278 95.8074 50.6278 95.8074C49.909 95.8235 49.035 96.7286 48.7538 97.0417C48.75 97.0859 48.7458 97.1258 48.7419 97.1616L50.5114 97.3679L51.2359 97.3698C51.2359 97.3698 50.9651 95.2469 50.9971 94.4785C51.0292 93.71 51.4293 92.7628 51.947 92.1687C52.5984 91.4216 52.9653 89.9764 51.8302 88.477Z" fill="#EF542B"/>
<path d="M50.7958 96.9327L48.9519 96.928C48.1295 96.9258 47.4609 97.6247 47.4587 98.4887L47.4556 99.7132L52.2777 99.7257L52.2809 98.5011C52.2831 97.637 51.6181 96.9349 50.7958 96.9327Z" fill="#3A1614"/>
<path opacity="0.2" d="M51.6638 97.2306L51.6619 97.9206C51.6611 98.2139 51.4343 98.451 51.1553 98.4503L47.4609 98.4407C47.4604 98.4567 47.4586 98.4725 47.4586 98.4886L47.4554 99.7131L52.2776 99.7255L52.2808 98.501C52.2821 97.9782 52.0382 97.5157 51.6638 97.2306Z" fill="black"/>
<path d="M54.4242 98.9285L45.3125 98.905C44.795 98.9037 44.3745 99.3221 44.3731 99.8397L44.3708 100.768L55.3564 100.797L55.3588 99.868C55.36 99.3504 54.9416 98.9299 54.4242 98.9285Z" fill="#612D2A"/>
<path opacity="0.2" d="M54.7484 98.9707C54.8144 99.1186 54.852 99.2882 54.8515 99.4685C54.8503 99.927 54.5449 100.298 54.1694 100.297L44.372 100.272L44.3707 100.768L55.3563 100.797L55.3585 99.9664C55.3597 99.4943 55.1018 99.0961 54.7484 98.9707Z" fill="black"/>
<path d="M55.5759 100.673L44.148 100.643C43.7943 100.643 43.5067 100.929 43.5057 101.282L43.503 102.299L56.2122 102.332L56.2148 101.315C56.2157 100.961 55.9296 100.674 55.5759 100.673Z" fill="#8B5957"/>
<path opacity="0.2" d="M55.6367 100.673L55.608 100.673C55.6708 100.787 55.7074 100.924 55.707 101.071C55.7057 101.595 55.3565 102.019 54.9272 102.018L43.5037 101.989L43.5029 102.299L56.212 102.332L56.2146 101.383C56.2157 100.992 55.957 100.674 55.6367 100.673Z" fill="black"/>
<path d="M85.9735 42.0698H94.5084H110.553H123.618C127.652 42.0698 130.921 45.3805 130.921 49.4644V90.5761C130.921 94.107 128.094 96.9697 124.607 96.9697H93.9098C91.1869 96.9697 88.9797 94.7346 88.9797 91.9777V51.0207H85.9735V42.0698Z" fill="#F9F7F7"/>
<path d="M118.283 90.311L117.786 89.4234C117.782 89.4153 117.773 89.4106 117.764 89.4111L116.711 89.4664C116.691 89.4674 116.679 89.4452 116.689 89.4257L118.252 86.5233C118.259 86.5092 118.276 86.5033 118.288 86.5102L119.882 87.3681C119.895 87.375 119.899 87.3918 119.891 87.4059L118.33 90.3074C118.319 90.3269 118.293 90.329 118.283 90.311Z" fill="#80D3FB"/>
<path d="M119.882 87.368L118.288 86.5101C118.275 86.5034 118.259 86.5093 118.251 86.5232L117.547 87.8322C117.871 87.9118 118.599 88.1362 118.726 88.5702C118.865 89.0464 118.425 90.0292 118.289 90.3159C118.3 90.327 118.32 90.3241 118.33 90.3072L119.891 87.4056C119.899 87.3917 119.895 87.3747 119.882 87.368Z" fill="#5CBEE5"/>
<path d="M122.221 90.311L122.718 89.4234C122.722 89.4153 122.731 89.4106 122.74 89.4111L123.793 89.4664C123.813 89.4674 123.825 89.4452 123.815 89.4257L122.253 86.5233C122.245 86.5092 122.229 86.5033 122.216 86.5102L120.622 87.3681C120.609 87.375 120.605 87.3918 120.613 87.4059L122.175 90.3074C122.185 90.3269 122.211 90.329 122.221 90.311Z" fill="#80D3FB"/>
<path d="M120.622 87.368L122.216 86.5101C122.229 86.5034 122.245 86.5093 122.253 86.5232L122.957 87.8322C122.634 87.9118 121.906 88.1362 121.779 88.5702C121.64 89.0464 122.079 90.0292 122.216 90.3159C122.204 90.327 122.184 90.3241 122.175 90.3072L120.613 87.4056C120.606 87.3917 120.61 87.3747 120.622 87.368Z" fill="#5CBEE5"/>
<path d="M123.07 84.7475L123.506 83.9917C123.538 83.9352 123.519 83.8632 123.463 83.8307L122.727 83.4051C122.69 83.3841 122.668 83.3451 122.668 83.303V82.4896C122.668 82.4244 122.615 82.3716 122.55 82.3716H121.7C121.658 82.3716 121.619 82.349 121.598 82.3124L121.192 81.608C121.16 81.5516 121.087 81.5321 121.031 81.5648L120.346 81.9606C120.31 81.9817 120.265 81.9817 120.228 81.9606L119.544 81.5648C119.487 81.5323 119.415 81.5516 119.382 81.608L118.977 82.3124C118.955 82.349 118.916 82.3716 118.874 82.3716H118.025C117.96 82.3716 117.907 82.4244 117.907 82.4896V83.3031C117.907 83.3453 117.884 83.3842 117.848 83.4052L117.112 83.8307C117.056 83.8632 117.036 83.9352 117.069 83.9917L117.505 84.7475C117.526 84.7839 117.526 84.8289 117.505 84.8653L117.069 85.621C117.036 85.6774 117.056 85.7494 117.112 85.782L117.848 86.2074C117.884 86.2284 117.907 86.2673 117.907 86.3095V87.1232C117.907 87.1884 117.96 87.2413 118.025 87.2413H118.874C118.916 87.2413 118.955 87.2638 118.977 87.3004L119.382 88.0046C119.415 88.061 119.487 88.0805 119.544 88.0478L120.228 87.6521C120.265 87.6309 120.31 87.6309 120.346 87.6521L121.031 88.048C121.087 88.0805 121.16 88.0612 121.192 88.0048L121.598 87.3005C121.619 87.2639 121.658 87.2414 121.7 87.2414H122.55C122.615 87.2414 122.668 87.1885 122.668 87.1234V86.3097C122.668 86.2675 122.69 86.2286 122.727 86.2076L123.463 85.7822C123.519 85.7496 123.538 85.6774 123.506 85.6212L123.07 84.8655C123.049 84.8289 123.049 84.7839 123.07 84.7475Z" fill="#80D3FB"/>
<path d="M121.357 82.3127C121.378 82.3493 121.417 82.3718 121.46 82.3718H121.7C121.658 82.3718 121.619 82.3493 121.598 82.3127L121.192 81.6083C121.159 81.5518 121.087 81.5324 121.031 81.5651L120.952 81.6104L121.357 82.3127Z" fill="#5CBEE5"/>
<path d="M121.357 87.3005L120.952 88.0028L121.031 88.0481C121.087 88.0807 121.16 88.0614 121.192 88.005L121.598 87.3007C121.619 87.2641 121.658 87.2416 121.7 87.2416H121.46C121.417 87.2414 121.378 87.2639 121.357 87.3005Z" fill="#5CBEE5"/>
<path d="M123.07 84.8654C123.049 84.8289 123.049 84.7839 123.07 84.7475L123.506 83.9917C123.538 83.9353 123.519 83.8633 123.463 83.8307L122.727 83.4051C122.69 83.3841 122.668 83.3452 122.668 83.303V82.4896C122.668 82.4245 122.615 82.3716 122.55 82.3716H122.309C122.374 82.3716 122.427 82.4245 122.427 82.4896V83.303C122.427 83.3452 122.449 83.3841 122.486 83.4051L123.222 83.8307C123.278 83.8633 123.297 83.9353 123.265 83.9917L122.829 84.7475C122.808 84.7839 122.808 84.8289 122.829 84.8654L123.265 85.621C123.297 85.6774 123.278 85.7494 123.222 85.782L122.486 86.2075C122.449 86.2284 122.427 86.2674 122.427 86.3095V87.1233C122.427 87.1884 122.374 87.2413 122.309 87.2413H122.55C122.615 87.2413 122.668 87.1884 122.668 87.1233V86.3095C122.668 86.2674 122.69 86.2284 122.727 86.2075L123.463 85.782C123.519 85.7494 123.538 85.6773 123.506 85.621L123.07 84.8654Z" fill="#5CBEE5"/>
<path d="M122.335 84.8064C122.335 85.939 121.418 86.857 120.287 86.857C119.157 86.857 118.24 85.939 118.24 84.8064C118.24 83.6739 119.157 82.7559 120.287 82.7559C121.418 82.7559 122.335 83.6739 122.335 84.8064Z" fill="#FDEEC3"/>
<path d="M120.385 86.7919C119.254 86.7919 118.338 85.8739 118.338 84.7413C118.338 84.0516 118.678 83.443 119.2 83.0712C118.624 83.4341 118.24 84.0746 118.24 84.8064C118.24 85.939 119.156 86.857 120.287 86.857C120.73 86.857 121.138 86.7151 121.473 86.4766C121.157 86.6752 120.785 86.7919 120.385 86.7919Z" fill="#F9F6ED"/>
<path d="M120.287 82.7559C119.841 82.7559 119.428 82.9007 119.092 83.1442C119.39 82.9739 119.735 82.8754 120.103 82.8754C121.234 82.8754 122.15 83.7936 122.15 84.9261C122.15 85.6111 121.814 86.216 121.298 86.5886C121.917 86.2357 122.335 85.5707 122.335 84.8068C122.335 83.6739 121.418 82.7559 120.287 82.7559Z" fill="#EFD89E"/>
<path d="M99.1939 90.379V88.5303H135.061V90.3262C135.061 93.9951 131.685 96.9696 127.52 96.9696H93.4671C96.7659 96.1857 99.1939 93.5328 99.1939 90.379Z" fill="#A6DEF4"/>
<path d="M85.4456 42.0337C83.4976 42.0337 81.9183 43.6128 81.9183 45.561V51.5352H88.9729V45.561C88.9729 43.613 87.3937 42.0337 85.4456 42.0337Z" fill="#A6DEF4"/>
<path d="M101.189 52.1077H93.624C93.2864 52.1077 93.0128 52.3813 93.0128 52.7189V60.2836C93.0128 60.6212 93.2864 60.8948 93.624 60.8948H101.189C101.526 60.8948 101.8 60.6212 101.8 60.2836V52.7189C101.8 52.3813 101.526 52.1077 101.189 52.1077Z" fill="#80D3FB"/>
<path d="M100.944 56.9167H100.831H100.821L99.8143 54.8569C99.8387 54.8391 99.8548 54.8104 99.8548 54.7779C99.8548 54.7236 99.8108 54.6796 99.7566 54.6796C99.7089 54.6796 99.6691 54.7137 99.6602 54.7589C99.4935 54.7458 99.0798 54.6996 98.6662 54.548C98.1306 54.3518 97.5398 54.7099 97.5398 54.7099L97.4275 54.022C97.4706 54.0116 97.5029 53.9732 97.5029 53.9268C97.5029 53.8726 97.4589 53.8286 97.4047 53.8286C97.3504 53.8286 97.3065 53.8726 97.3065 53.9268C97.3065 53.9708 97.3355 54.0076 97.3753 54.0202L97.2626 54.71C97.2626 54.71 96.6718 54.3519 96.1363 54.5482C95.728 54.6978 95.3198 54.7446 95.1489 54.7585C95.1399 54.7137 95.1002 54.6798 95.0527 54.6798C94.9985 54.6798 94.9545 54.7238 94.9545 54.778C94.9545 54.8128 94.9727 54.843 94.9997 54.8604L93.9373 56.9169H93.8619C93.8426 56.9169 93.8324 56.9401 93.8455 56.9542L93.8453 56.954L93.8456 56.9545C93.966 57.0811 94.0862 57.183 94.2049 57.2636C94.2388 57.2866 94.2726 57.3079 94.3063 57.3275C94.3904 57.3767 94.4739 57.4155 94.556 57.4456C94.6216 57.4696 94.6864 57.4877 94.7504 57.5008C94.7823 57.5073 94.814 57.5127 94.8454 57.5167C94.8612 57.5188 94.8768 57.5206 94.8922 57.5221C94.9235 57.525 94.9542 57.5268 94.9848 57.5276C95.0306 57.5288 95.0757 57.5275 95.1201 57.5241C95.1496 57.5219 95.1788 57.5188 95.2077 57.5147C95.2221 57.5127 95.2364 57.5105 95.2507 57.5082C95.3219 57.4961 95.3905 57.479 95.4565 57.4582C95.4961 57.4457 95.5346 57.4318 95.5722 57.417C95.6346 57.3922 95.6941 57.3645 95.7501 57.3352C95.7614 57.3294 95.7725 57.3235 95.7834 57.3175C95.8052 57.3055 95.8265 57.2933 95.8472 57.281C95.8887 57.2563 95.9278 57.2312 95.9644 57.2062C95.9827 57.1937 96.0003 57.1811 96.0172 57.1689C96.0767 57.1257 96.1282 57.0839 96.1705 57.0473C96.2068 57.0159 96.2365 56.9882 96.2588 56.9666C96.2635 56.9621 96.2662 56.9567 96.2672 56.9511C96.2702 56.9347 96.2582 56.9169 96.2387 56.9169H96.126H96.1156L95.1096 54.8581C95.1159 54.8536 95.1216 54.8484 95.1266 54.8425H97.2492C97.2423 54.8445 97.2368 54.8499 97.2368 54.8574V54.8836C97.2368 54.8929 97.2442 54.9004 97.2534 54.9004H97.3101L97.2556 58.1811C97.2452 58.1811 97.2366 58.1895 97.2366 58.2V58.2348C97.0865 58.2356 96.9651 58.3575 96.9651 58.5078V58.5815H96.4405C96.3278 58.5815 96.2365 58.6728 96.2365 58.7853V58.996H96.1496C96.096 58.996 96.0525 59.0395 96.0525 59.093V59.1746H98.7612V59.093C98.7612 59.0395 98.7177 58.996 98.6641 58.996H98.578V58.7853C98.578 58.6726 98.4867 58.5815 98.374 58.5815H97.8494V58.5078C97.8494 58.357 97.7272 58.2346 97.5762 58.2346H97.5692V58.2C97.5692 58.1896 97.5608 58.1811 97.5502 58.1811L97.4957 54.9004H97.5526C97.5618 54.9004 97.5692 54.8929 97.5692 54.8836V54.8574C97.5692 54.8499 97.5637 54.8445 97.5566 54.8425H99.6827C99.6891 54.8497 99.6963 54.8561 99.7045 54.8613L98.6425 56.917H98.5671C98.5478 56.917 98.5376 56.9402 98.5507 56.9543L98.5505 56.9542L98.5508 56.9547C98.6541 57.0631 98.7572 57.1534 98.8592 57.2278C98.9272 57.2773 98.9949 57.3198 99.062 57.3559C99.0956 57.374 99.129 57.3905 99.1621 57.4053C99.1953 57.4202 99.2284 57.4336 99.2611 57.4456C99.2941 57.4575 99.3266 57.4681 99.359 57.4773C99.4725 57.5095 99.5832 57.525 99.6901 57.5276C99.7054 57.528 99.7205 57.5282 99.7356 57.528C99.7507 57.5278 99.7656 57.5275 99.7807 57.5268C99.8106 57.5255 99.8402 57.5233 99.8694 57.5201C99.9132 57.5154 99.9562 57.5087 99.9983 57.5003C100.054 57.489 100.109 57.4748 100.162 57.4582C100.214 57.4415 100.265 57.4225 100.314 57.4017C100.351 57.3861 100.387 57.3697 100.421 57.3525C100.444 57.3411 100.466 57.3294 100.488 57.3173C100.521 57.2993 100.553 57.2809 100.583 57.2622C100.603 57.2498 100.622 57.2372 100.641 57.2248C100.66 57.2124 100.679 57.1998 100.696 57.1873C100.714 57.1749 100.731 57.1625 100.747 57.1504C100.796 57.1138 100.839 57.0786 100.876 57.0472C100.912 57.0158 100.942 56.9881 100.964 56.9664C100.969 56.9619 100.971 56.9565 100.972 56.951C100.975 56.9343 100.963 56.9167 100.944 56.9167ZM96.0189 56.9167H94.0342L95.0388 54.8745C95.0435 54.8752 95.048 54.8761 95.0529 54.8761C95.0593 54.8761 95.0653 54.8754 95.0714 54.8742L96.0189 56.9167ZM99.7442 54.8747C99.7484 54.8752 99.7524 54.8761 99.7566 54.8761C99.7635 54.8761 99.7702 54.8752 99.7767 54.8739L100.724 56.9167H98.7397L99.7442 54.8747Z" fill="white"/>
<path d="M105.051 46.7863V49.7251H104.757L103.108 47.6992V49.7251H102.657V46.7863H102.951L104.601 48.8081V46.7863H105.051Z" fill="#3EBDE5"/>
<path d="M105.443 48.2556C105.443 47.421 106.042 46.7393 106.791 46.7393C107.535 46.7393 108.139 47.421 108.139 48.2556C108.139 49.0942 107.535 49.7721 106.791 49.7721C106.042 49.7721 105.443 49.0942 105.443 48.2556ZM107.692 48.2556C107.692 47.6678 107.288 47.1899 106.791 47.1899C106.293 47.1899 105.889 47.6678 105.889 48.2556C105.889 48.8472 106.293 49.3215 106.791 49.3215C107.288 49.3215 107.692 48.8474 107.692 48.2556Z" fill="#3EBDE5"/>
<path d="M110.744 46.7863V47.2369H109.745V49.7251H109.294V47.2369H108.295V46.7863H110.744Z" fill="#3EBDE5"/>
<path d="M112.652 49.0354H111.324L111.014 49.7251H110.52L111.841 46.7863H112.135L113.455 49.7251H112.962L112.652 49.0354ZM112.448 48.5848L111.99 47.5621L111.528 48.5848H112.448Z" fill="#3EBDE5"/>
<path d="M115.277 49.725L114.733 48.6514C114.658 48.6632 114.58 48.6672 114.493 48.6672H114.192V49.7252H113.741V46.7864H114.607C115.501 46.7864 115.638 47.2761 115.638 47.6876C115.638 47.9305 115.54 48.3066 115.167 48.5144L115.783 49.7252L115.277 49.725ZM114.521 48.2164C115.026 48.2164 115.187 47.9538 115.187 47.6874C115.187 47.3543 114.964 47.2368 114.607 47.2368H114.192V48.2164H114.521Z" fill="#3EBDE5"/>
<path d="M118.623 46.7863L117.534 48.5613V49.7251H117.083V48.5613L115.99 46.7863H116.519L117.307 48.0597L118.098 46.7863H118.623Z" fill="#3EBDE5"/>
<path d="M100.987 48.0535H97.1312V48.4579H100.987V48.0535Z" fill="#3EBDE5"/>
<path d="M123.437 48.0535H119.58V48.4579H123.437V48.0535Z" fill="#3EBDE5"/>
<path d="M109.109 53.4912H103.929C103.817 53.4912 103.726 53.5821 103.726 53.6942V54.5956C103.726 54.7077 103.817 54.7986 103.929 54.7986H109.108C109.221 54.7986 109.311 54.7077 109.311 54.5956V53.6942C109.312 53.5821 109.221 53.4912 109.109 53.4912Z" fill="#80D3FB"/>
<path d="M110.663 53.4912H117.502C117.614 53.4912 117.705 53.5821 117.705 53.6942V54.5956C117.705 54.7077 117.614 54.7986 117.502 54.7986H110.663C110.551 54.7986 110.46 54.7077 110.46 54.5956V53.6942C110.46 53.5821 110.551 53.4912 110.663 53.4912Z" fill="#80D3FB"/>
<path d="M118.82 53.4912H122.567C122.679 53.4912 122.77 53.5821 122.77 53.6942V54.5956C122.77 54.7077 122.679 54.7986 122.567 54.7986H118.821C118.708 54.7986 118.618 54.7077 118.618 54.5956V53.6942C118.618 53.5821 118.708 53.4912 118.82 53.4912Z" fill="#80D3FB"/>
<path d="M107.43 56.1561H103.929C103.816 56.1561 103.726 56.247 103.726 56.3591V57.2605C103.726 57.3726 103.816 57.4635 103.929 57.4635H107.43C107.542 57.4635 107.633 57.3726 107.633 57.2605V56.3591C107.633 56.2471 107.542 56.1561 107.43 56.1561Z" fill="#80D3FB"/>
<path d="M115.106 56.1561H109.004C108.892 56.1561 108.801 56.247 108.801 56.3591V57.2605C108.801 57.3726 108.892 57.4635 109.004 57.4635H115.106C115.218 57.4635 115.309 57.3726 115.309 57.2605V56.3591C115.309 56.2471 115.218 56.1561 115.106 56.1561Z" fill="#80D3FB"/>
<path d="M120.79 56.1561H116.307C116.195 56.1561 116.104 56.247 116.104 56.3591V57.2605C116.104 57.3726 116.195 57.4635 116.307 57.4635H120.79C120.902 57.4635 120.993 57.3726 120.993 57.2605V56.3591C120.993 56.2471 120.902 56.1561 120.79 56.1561Z" fill="#80D3FB"/>
<path d="M124.512 56.1561H122.603C122.497 56.1561 122.412 56.2419 122.412 56.348V57.2717C122.412 57.3777 122.497 57.4636 122.603 57.4636H124.512C124.618 57.4636 124.704 57.3778 124.704 57.2719V56.3482C124.704 56.2421 124.618 56.1561 124.512 56.1561Z" fill="#80D3FB"/>
<path d="M101.034 72.8811H93.2641C93.1254 72.8811 93.0128 72.9936 93.0128 73.1324V73.9373C93.0128 74.076 93.1253 74.1884 93.2639 74.1884H101.033C101.172 74.1884 101.285 74.076 101.285 73.9373V73.1324C101.285 72.9938 101.172 72.8811 101.034 72.8811Z" fill="#80D3FB"/>
<path d="M107.7 72.8811H102.788C102.649 72.8811 102.537 72.9936 102.537 73.1323V73.9373C102.537 74.0761 102.649 74.1886 102.788 74.1886H107.7C107.838 74.1886 107.951 74.0761 107.951 73.9373V73.1324C107.951 72.9936 107.839 72.8811 107.7 72.8811Z" fill="#80D3FB"/>
<path d="M103.395 75.5963H93.2641C93.1254 75.5963 93.0128 75.7088 93.0128 75.8477V76.6525C93.0128 76.7913 93.1253 76.9038 93.2641 76.9038H103.395C103.533 76.9038 103.646 76.7913 103.646 76.6527V75.8477C103.646 75.7088 103.533 75.5963 103.395 75.5963Z" fill="#80D3FB"/>
<path d="M125.574 75.5963H108.557C108.435 75.5963 108.335 75.6959 108.335 75.8186V76.6814C108.335 76.8041 108.435 76.9037 108.557 76.9037H125.574C125.697 76.9037 125.797 76.8041 125.797 76.6814V75.8188C125.796 75.6959 125.697 75.5963 125.574 75.5963Z" fill="#80D3FB"/>
<path d="M108.11 75.5963H105.093C104.954 75.5963 104.842 75.7088 104.842 75.8477V76.6525C104.842 76.7913 104.954 76.9038 105.093 76.9038H108.11C108.248 76.9038 108.361 76.7913 108.361 76.6527V75.8478C108.361 75.7088 108.248 75.5963 108.11 75.5963Z" fill="#80D3FB"/>
<path d="M101.033 78.3118H93.2639C93.1253 78.3118 93.0128 78.4242 93.0128 78.5629V79.3678C93.0128 79.5065 93.1253 79.6189 93.2641 79.6189H101.033C101.172 79.6189 101.285 79.5064 101.285 79.3676V78.5628C101.285 78.4243 101.172 78.3118 101.033 78.3118Z" fill="#80D3FB"/>
<path d="M121.908 78.3118H115.264C115.135 78.3118 115.031 78.416 115.031 78.5446V79.3861C115.031 79.5147 115.135 79.6189 115.264 79.6189H121.908C122.036 79.6189 122.141 79.5147 122.141 79.3861V78.5446C122.141 78.416 122.036 78.3118 121.908 78.3118Z" fill="#80D3FB"/>
<path d="M114.148 78.3118H102.825C102.686 78.3118 102.574 78.4242 102.574 78.5629V79.3678C102.574 79.5065 102.686 79.6189 102.825 79.6189H114.148C114.287 79.6189 114.4 79.5065 114.4 79.3678V78.5629C114.399 78.4241 114.287 78.3118 114.148 78.3118Z" fill="#80D3FB"/>
<path d="M126.096 78.3118H123.564C123.432 78.3118 123.325 78.4189 123.325 78.5508V79.3799C123.325 79.512 123.432 79.6189 123.564 79.6189H126.096C126.228 79.6189 126.335 79.5118 126.335 79.3799V78.5508C126.335 78.4187 126.228 78.3118 126.096 78.3118Z" fill="#80D3FB"/>
<path d="M106.613 67.293H93.2639C93.1253 67.293 93.0128 67.1805 93.0128 67.0418V66.237C93.0128 66.0983 93.1253 65.9858 93.2639 65.9858H106.613C106.752 65.9858 106.864 66.0983 106.864 66.2372V67.042C106.864 67.1805 106.752 67.293 106.613 67.293Z" fill="#80D3FB"/>
<path d="M112.253 67.2931H108.83C108.691 67.2931 108.579 67.1808 108.579 67.0421V66.2367C108.579 66.098 108.691 65.9857 108.83 65.9857H112.253C112.392 65.9857 112.504 66.098 112.504 66.2367V67.0421C112.504 67.1808 112.392 67.2931 112.253 67.2931Z" fill="#80D3FB"/>
<path d="M100.229 70.0083H93.264C93.1254 70.0083 93.0129 69.8958 93.0129 69.7571V68.9522C93.0129 68.8134 93.1254 68.7009 93.2642 68.7009H100.229C100.368 68.7009 100.48 68.8134 100.48 68.9522V69.7571C100.48 69.8958 100.367 70.0083 100.229 70.0083Z" fill="#80D3FB"/>
<path d="M119.72 70.0083H112.755C112.617 70.0083 112.504 69.8958 112.504 69.757V68.9521C112.504 68.8133 112.617 68.7008 112.755 68.7008H119.72C119.859 68.7008 119.971 68.8133 119.971 68.952V69.7568C119.972 69.8958 119.859 70.0083 119.72 70.0083Z" fill="#80D3FB"/>
<path d="M110.313 70.0083H102.333C102.194 70.0083 102.082 69.8958 102.082 69.7571V68.9522C102.082 68.8134 102.194 68.7009 102.333 68.7009H110.313C110.452 68.7009 110.564 68.8134 110.564 68.9521V69.7569C110.564 69.8958 110.452 70.0083 110.313 70.0083Z" fill="#80D3FB"/>
<path d="M124.571 70.0083H121.554C121.415 70.0083 121.303 69.8958 121.303 69.7571V68.9522C121.303 68.8134 121.415 68.7009 121.554 68.7009H124.571C124.709 68.7009 124.822 68.8134 124.822 68.9522V69.7571C124.822 69.8958 124.709 70.0083 124.571 70.0083Z" fill="#80D3FB"/>
<path d="M101.673 64.5778H93.2641C93.1254 64.5778 93.0129 64.4653 93.0129 64.3266V63.5218C93.0129 63.3831 93.1254 63.2706 93.2641 63.2706H101.673C101.812 63.2706 101.924 63.3831 101.924 63.522V64.3268C101.924 64.4653 101.811 64.5778 101.673 64.5778Z" fill="#80D3FB"/>
<path d="M124.3 64.5778H104.453C104.315 64.5778 104.202 64.4653 104.202 64.3266V63.5218C104.202 63.3831 104.315 63.2706 104.453 63.2706H124.3C124.439 63.2706 124.551 63.3831 124.551 63.522V64.3268C124.551 64.4653 124.439 64.5778 124.3 64.5778Z" fill="#80D3FB"/>
<path d="M108.18 85.8367C107.907 85.8025 107.635 85.7526 107.365 85.6871C107.33 85.6784 107.308 85.6426 107.316 85.607C107.325 85.5715 107.361 85.5498 107.397 85.5583C108.153 85.7422 108.929 85.8008 109.704 85.733C109.885 85.7172 110.081 85.6821 110.169 85.5417C110.219 85.4615 110.225 85.3542 110.231 85.2595C110.299 84.1616 110.351 83.0473 110.387 81.9475C110.388 81.9109 110.418 81.8822 110.455 81.8833C110.491 81.8845 110.52 81.9151 110.519 81.9517C110.483 83.0527 110.431 84.1684 110.363 85.2676C110.357 85.3725 110.349 85.5031 110.281 85.6117C110.162 85.8026 109.916 85.8473 109.716 85.8649C109.203 85.9099 108.689 85.9003 108.18 85.8367Z" fill="#027BB7"/>
<path d="M109.131 85.1413C109.118 85.1397 109.106 85.1344 109.096 85.1255C109.068 85.1015 109.065 85.0595 109.089 85.032C109.499 84.5614 109.939 84.2097 110.397 83.9864C110.939 83.722 111.526 83.6338 112.05 83.7382C112.165 83.7611 112.313 83.7993 112.434 83.8932C112.589 84.0139 112.664 84.1935 112.736 84.3671C112.794 84.5061 112.848 84.6373 112.941 84.7387C113.093 84.9054 113.357 84.9819 113.629 84.9381C113.889 84.8963 114.126 84.7628 114.343 84.625C115.04 84.1828 115.419 83.6963 115.472 83.1788L115.604 83.1877L115.577 83.9595C115.636 83.8616 115.73 83.791 115.834 83.8282C115.922 83.86 115.955 83.9536 115.973 84.004L116.248 84.7857L117.517 84.3413C117.514 84.3069 117.538 84.2753 117.572 84.2696L117.857 84.2232L117.89 84.3512L116.167 84.9546L115.848 84.048C115.833 84.0042 115.815 83.9622 115.789 83.953C115.753 83.9397 115.7 84.0011 115.672 84.0654C115.609 84.2103 115.57 84.3676 115.558 84.526L115.554 84.6425L115.422 84.6406C115.421 84.6002 115.423 84.5595 115.426 84.5191L115.454 83.6979C115.269 84.0671 114.921 84.4152 114.414 84.7368C114.185 84.8822 113.934 85.0232 113.65 85.0689C113.334 85.1198 113.025 85.0274 112.843 84.828C112.735 84.7096 112.673 84.5614 112.614 84.4182C112.545 84.2531 112.48 84.0973 112.352 83.9981C112.253 83.9212 112.125 83.8883 112.025 83.8684C111.529 83.7696 110.971 83.8539 110.455 84.1057C110.013 84.3211 109.587 84.6621 109.189 85.1193C109.174 85.1362 109.152 85.1439 109.131 85.1413Z" fill="#027BB7"/>
<path d="M111.451 85.8571C111.424 85.8537 111.4 85.8331 111.394 85.8043C111.387 85.7684 111.41 85.7335 111.446 85.7263C112.477 85.5189 113.529 85.3635 114.575 85.2637C114.612 85.2602 114.644 85.2871 114.648 85.3235C114.651 85.36 114.624 85.3923 114.588 85.3957C113.546 85.4948 112.498 85.6497 111.472 85.8561C111.465 85.8577 111.458 85.8579 111.451 85.8571Z" fill="#027BB7"/>
<path d="M17.4956 71.033C17.3586 71.2635 17.2518 71.4935 17.166 71.7225C17.165 71.7158 17.1612 71.713 17.1603 71.7059C16.7406 68.2851 20.1133 66.321 21.9476 65.5154C23.7253 64.7348 30.3478 59.9754 30.7553 59.6819C26.3526 64.0063 19.5055 67.6486 17.4956 71.033Z" fill="#E5A969"/>
<path d="M45.0642 41.66C45.0642 41.66 36.8252 51.3472 33.1068 56.9232C32.4934 57.8432 31.7134 58.7298 30.8444 59.5919C37.2812 51.7509 45.145 38.1372 45.145 38.1372C47.9824 38.687 53.4976 41.1206 55.1124 44.8324C56.7273 48.5441 53.5604 49.8807 53.5604 49.8807C53.5604 49.8807 43.815 52.5157 45.0642 41.66Z" fill="#E5A969"/>
<path d="M45.0642 41.66C45.0642 41.66 56.5216 39.5478 52.8229 50.0285C52.8229 50.0285 41.8002 54.9949 45.0642 41.66Z" fill="#FBC587"/>
<path d="M45.0642 41.66C45.0642 41.66 36.8252 51.3472 33.1068 56.9234C29.3885 62.4994 19.9192 66.9521 17.4956 71.0331C15.072 75.1141 20.9604 79.05 24.7739 78.8695C24.7739 78.8695 25.719 77.6968 27.1074 75.6255C28.4957 73.5541 39.6287 60.9728 43.9345 57.8322C48.2403 54.6917 53.5606 49.8809 53.5606 49.8809C53.5606 49.8809 43.815 52.5157 45.0642 41.66Z" fill="#FEDFB1"/>
<path d="M30.465 59.972C31.4933 58.9926 32.4034 57.9782 33.1068 56.9234C33.137 56.878 33.17 56.8302 33.2008 56.7845C33.7814 58.3445 35.3343 61.5619 38.5799 62.7541L38.5804 62.7542C37.4334 63.9197 36.2386 65.1757 35.0687 66.4357C35.0679 66.435 30.534 63.8821 30.465 59.972Z" fill="#DC5559"/>
<path d="M59.0098 30.1195L59.474 30.7678C59.474 30.7678 59.1686 33.4403 61.91 33.3689C61.91 33.3689 61.6879 35.6184 64.1874 35.5113C64.1874 35.5113 64.0089 37.7966 66.6869 37.7966C66.6869 37.7966 66.8306 38.2606 67.2075 38.6834C67.8644 39.4202 69.0312 39.3839 69.6721 38.6328L70.5075 37.6535L72.8643 39.3623C72.8643 39.3623 74.6853 39.5817 75.0782 37.5822C75.0782 37.5822 76.6493 38.0822 77.3992 35.7969C77.3992 35.7969 79.8987 35.8682 80.0416 33.4758C80.0416 33.4758 82.2197 33.583 82.1126 31.3335C82.1126 31.3335 83.6481 31.369 85.5763 29.798C85.5763 29.798 91.6905 29.0574 92.1327 28.6422C92.575 28.2269 93.3963 24.8787 91.8965 21.768C90.3968 18.6572 89.4684 17.943 88.7542 18.0145C88.04 18.0859 81.1842 20.764 80.8271 20.764C80.47 20.764 77.185 18.5859 73.9355 19.4429L72.2574 19.9427C72.2574 19.9427 68.8294 17.6932 63.259 20.9782C63.259 20.9782 55.6176 17.9336 55.1177 18.0098C54.6179 18.0859 52.3543 19.1214 51.29 22.8708C50.2258 26.62 50.9042 28.3698 51.5469 28.834C52.1897 29.2982 59.0098 30.1195 59.0098 30.1195Z" fill="#A07570"/>
<path d="M81.3985 31.2263C81.3985 31.2263 75.8147 26.1011 74.0257 24.1037C74.0257 24.1037 72.7573 25.9416 70.6148 26.4771C68.4722 27.0129 66.794 25.7987 66.794 25.2632C66.794 24.7278 71.5506 20.266 71.5544 20.2623C70.9596 19.8678 70.156 19.626 69.0437 19.6927C65.4731 19.9069 61.9737 22.2279 61.6523 22.1566C61.331 22.0852 62.4023 21.2282 62.4023 21.2282C62.4023 21.2282 55.9036 18.8 54.9752 18.5858C54.9752 18.5858 51.6979 20.9266 51.2924 27.2264C51.263 27.6814 51.5494 28.0946 51.9861 28.2253C52.3016 28.3199 52.7544 28.429 53.4041 28.5482C55.5465 28.941 59.403 29.5123 59.403 29.5123C59.403 29.5123 62.0098 33.5116 66.0446 34.5113C70.0796 35.5113 72.829 38.6534 72.829 38.6534C72.829 38.6534 74.293 39.0819 74.4001 37.2966L71.2578 33.7973L74.8643 37.011C74.8643 37.011 76.7567 37.3323 76.7925 35.297L73.1504 31.3692L77.3281 35.1542C77.3281 35.1542 79.5418 35.547 79.2206 33.2618L75.4356 29.2981L79.792 32.8689C79.7915 32.8689 81.684 33.476 81.3985 31.2263Z" fill="#E0A375"/>
<g opacity="0.89">
<path d="M51.9858 28.2256C51.5491 28.0948 51.2627 27.6816 51.292 27.2267C51.6977 20.9267 54.9748 18.5861 54.9748 18.5861C55.4333 18.6918 57.2505 19.3377 58.9725 19.9642C58.9725 19.9642 56.6431 25.5809 56.6431 27.0111C56.6431 28.4412 59.6425 28.4924 61.3565 29.538C61.3565 29.538 61.3948 31.283 63.6233 33.5034C60.9976 31.9592 59.4025 29.5124 59.4025 29.5124C59.4025 29.5124 55.5461 28.9411 53.4036 28.5483C52.7538 28.4292 52.3012 28.3199 51.9858 28.2256Z" fill="#D39266"/>
<path d="M74.8638 37.0111L74.0942 36.3253C74.8168 35.9363 75.621 35.4761 76.4665 34.9459L76.7922 35.2971C76.7564 37.3324 74.8638 37.0111 74.8638 37.0111Z" fill="#D39266"/>
<path d="M77.3277 35.1542L76.8376 34.7103C77.5744 34.2369 78.3373 33.7117 79.1002 33.1362L79.2201 33.2618C79.5414 35.5471 77.3277 35.1542 77.3277 35.1542Z" fill="#D39266"/>
<path d="M79.7914 32.869L79.6245 32.7323C80.2237 32.2614 80.819 31.7594 81.3982 31.2266C81.684 33.4761 79.7914 32.869 79.7914 32.869Z" fill="#D39266"/>
<path d="M72.8285 38.6537C72.8285 38.6537 72.4088 38.175 71.6595 37.5329C72.1631 37.3056 72.871 36.9701 73.7104 36.5294L74.3996 37.2968C74.2926 39.0821 72.8285 38.6537 72.8285 38.6537Z" fill="#D39266"/>
</g>
<path d="M67.4366 25.1561C67.4366 25.1561 71.0074 21.9069 71.6858 21.1569C72.3643 20.4072 75.4708 18.6574 79.5414 21.1569C79.5414 21.1569 81.0769 21.7282 84.2548 20.4071C87.4328 19.0861 88.7896 18.3005 89.6109 19.1216C90.4322 19.9429 92.5033 24.0135 92.0748 27.1916C92.0748 27.1916 91.8606 28.2627 91.2535 28.3342C90.6464 28.4058 85.0404 29.3698 85.0404 29.3698C85.0404 29.3698 82.6122 31.1551 81.6482 30.6909L77.4705 26.5845C77.4705 26.5845 79.7558 26.3346 80.0058 26.0132C80.0058 26.0132 77.5777 26.1917 76.8636 25.8705C76.1494 25.5492 74.0426 23.3353 74.0426 23.3353C74.0426 23.3353 69.8648 28.1556 67.4366 25.1561Z" fill="#FBBC91"/>
<path d="M78.9748 26.3591C79.6925 27.4131 80.3264 28.3486 80.7812 28.689C82.0667 29.651 84.8518 28.3699 85.6524 28.0128C86.264 27.74 86.2241 25.7171 86.1712 24.777C86.1547 24.4863 86.1371 24.2991 86.1371 24.2991L86.9227 23.2544L87.9379 28.8754C86.4536 29.1264 85.0402 29.3695 85.0402 29.3695C85.0402 29.3695 82.6122 31.1548 81.648 30.6906L77.4703 26.5842C77.4703 26.5842 78.2698 26.4969 78.9748 26.3591Z" fill="#F4B387"/>
<path d="M74.7825 22.2995C76.0084 22.1244 77.5029 24.2044 78.772 26.0615C78.0591 26.0689 77.2326 26.0363 76.8635 25.8703C76.1493 25.549 74.0425 23.335 74.0425 23.335C74.0425 23.335 69.8648 28.1556 67.4366 25.1561C70.4462 26.2274 72.7828 22.5853 74.7825 22.2995Z" fill="#F4B387"/>
<path d="M60.5088 32.4571C60.0803 32.0287 60.0803 31.3341 60.5088 30.9058L61.76 29.6546C62.1885 29.2261 62.883 29.2261 63.3113 29.6546C63.7397 30.083 63.7397 30.7776 63.3113 31.2059L62.06 32.4571C61.6318 32.8856 60.9372 32.8856 60.5088 32.4571Z" fill="#A07570"/>
<path d="M61.2845 33.1334C60.8967 33.1334 60.5322 32.9825 60.258 32.7081C59.9839 32.4338 59.8328 32.0692 59.8328 31.6815C59.8328 31.2937 59.9839 30.9291 60.258 30.6549L61.5093 29.4036C61.7836 29.1293 62.1482 28.9784 62.5359 28.9784C62.9237 28.9784 63.2882 29.1293 63.5624 29.4036C63.8365 29.6778 63.9876 30.0424 63.9876 30.4303C63.9876 30.8181 63.8365 31.1827 63.5624 31.4569L62.3111 32.7081C62.0368 32.9825 61.6721 33.1334 61.2845 33.1334ZM62.5357 29.688C62.3375 29.688 62.1511 29.7653 62.0109 29.9055L60.7597 31.1567C60.6193 31.2969 60.5422 31.4832 60.5422 31.6815C60.5422 31.8798 60.6195 32.0661 60.7597 32.2063C60.8998 32.3465 61.0862 32.4238 61.2843 32.4238C61.4826 32.4238 61.6689 32.3465 61.8091 32.2063L63.0604 30.9551C63.2007 30.8147 63.2778 30.6285 63.2778 30.4303C63.2778 30.232 63.2007 30.0456 63.0604 29.9056C62.9202 29.7653 62.7338 29.688 62.5357 29.688Z" fill="#A07570"/>
<path d="M60.5087 32.4571C60.0803 32.0287 60.0803 31.3341 60.5087 30.9058L61.76 29.6546C62.1884 29.2261 62.883 29.2261 63.3112 29.6546C63.7397 30.083 63.7397 30.7776 63.3112 31.2059L62.06 32.4571C61.6317 32.8856 60.9372 32.8856 60.5087 32.4571Z" fill="#FBBC91"/>
<path d="M62.8991 34.3754C62.3973 33.8736 62.3973 33.06 62.8991 32.5584L64.3436 31.114C64.8454 30.6122 65.6588 30.6122 66.1606 31.114C66.6624 31.6158 66.6624 32.4294 66.1606 32.9311L64.7161 34.3754C64.2145 34.8772 63.4009 34.8772 62.8991 34.3754Z" fill="#A07570"/>
<path d="M63.8077 35.1066C63.3697 35.1066 62.958 34.936 62.6482 34.6262C62.0091 33.9871 62.0091 32.9465 62.6482 32.3072L64.0926 30.8629C64.7319 30.2236 65.7721 30.2236 66.4116 30.8629C66.7213 31.1727 66.8919 31.5845 66.8919 32.0225C66.8919 32.4605 66.7213 32.8723 66.4116 33.1819L64.9673 34.6262C64.6573 34.9362 64.2457 35.1066 63.8077 35.1066ZM65.252 31.0929C65.0137 31.0929 64.7757 31.1836 64.5944 31.3649L63.1501 32.8092C62.7874 33.1718 62.7874 33.762 63.1501 34.1244C63.3258 34.3002 63.5593 34.3971 63.8075 34.3971C64.056 34.3971 64.2895 34.3004 64.4651 34.1246L65.9094 32.6801C66.0852 32.5045 66.1819 32.271 66.1819 32.0225C66.1819 31.774 66.085 31.5405 65.9094 31.3649C65.7284 31.1836 65.49 31.0929 65.252 31.0929Z" fill="#A07570"/>
<path d="M62.8991 34.3754C62.3973 33.8736 62.3973 33.06 62.8991 32.5584L64.3436 31.114C64.8454 30.6122 65.6588 30.6122 66.1606 31.114C66.6624 31.6158 66.6624 32.4294 66.1606 32.9311L64.7161 34.3754C64.2145 34.8772 63.4009 34.8772 62.8991 34.3754Z" fill="#FBBC91"/>
<path d="M65.152 36.6283C64.6126 36.0889 64.6126 35.2144 65.152 34.6749L67.122 32.705C67.6614 32.1656 68.5359 32.1656 69.0753 32.705C69.6148 33.2444 69.6148 34.1189 69.0753 34.6583L67.1055 36.6283C66.5661 37.1677 65.6914 37.1677 65.152 36.6283Z" fill="#A07570"/>
<path d="M66.1286 37.3869C65.6841 37.3869 65.2395 37.2177 64.9011 36.8792C64.2241 36.2023 64.2241 35.1008 64.9011 34.4239L66.8709 32.4539C67.5476 31.777 68.6493 31.7768 69.3264 32.4539C70.0033 33.1308 70.0033 34.2323 69.3264 34.9093L67.3564 36.8792C67.0178 37.2175 66.5732 37.3869 66.1286 37.3869ZM68.0985 32.6556C67.8357 32.6556 67.5728 32.7556 67.3727 32.9557L65.4029 34.9257C65.0026 35.326 65.0026 35.9772 65.4029 36.3773C65.8031 36.7775 66.4542 36.7775 66.8544 36.3773L68.8244 34.4073C69.2246 34.007 69.2246 33.3558 68.8244 32.9557C68.6243 32.7558 68.3614 32.6556 68.0985 32.6556Z" fill="#A07570"/>
<path d="M65.1519 36.6283C64.6125 36.0889 64.6125 35.2144 65.1519 34.6749L67.1219 32.705C67.6613 32.1656 68.5358 32.1656 69.0752 32.705C69.6146 33.2444 69.6146 34.1189 69.0752 34.6583L67.1054 36.6283C66.566 37.1677 65.6913 37.1677 65.1519 36.6283Z" fill="#FBBC91"/>
<path d="M70.7481 35.2102C70.4769 34.9387 70.1162 34.7894 69.7327 34.7894H69.7325C69.3491 34.7894 68.9883 34.9388 68.7172 35.21L67.4033 36.5239C67.132 36.795 66.9825 37.1558 66.9825 37.5394C66.9825 37.923 67.1318 38.2837 67.4033 38.555C67.6833 38.8348 68.051 38.9748 68.4187 38.9748C68.7865 38.9748 69.1542 38.835 69.4342 38.555L70.7481 37.2409C71.3081 36.681 71.308 35.7701 70.7481 35.2102Z" fill="#A07570"/>
<path d="M67.6385 38.3196C67.2075 37.8886 67.2075 37.1899 67.6385 36.7589L68.9523 35.445C69.3833 35.0141 70.082 35.0141 70.513 35.445C70.944 35.876 70.9438 36.5746 70.513 37.0056L69.1991 38.3194C68.768 38.7506 68.0694 38.7506 67.6385 38.3196Z" fill="#FBBC91"/>
<path d="M69.0976 38.421C68.7227 38.7959 68.1148 38.7959 67.7397 38.421L67.5369 38.2182C67.162 37.8433 67.162 37.2354 67.5369 36.8603L67.873 36.524C68.5122 36.8637 69.2124 37.202 69.983 37.5352L69.0976 38.421Z" fill="#F4B387"/>
<path d="M67.0719 36.6619C66.5509 37.1828 65.7064 37.1828 65.1855 36.6619L65.1185 36.5949C64.6135 36.0899 64.5996 35.2813 65.074 34.7577C65.7382 35.2617 66.5205 35.7768 67.443 36.2905L67.0719 36.6619Z" fill="#F4B387"/>
<path d="M64.656 34.43C64.1513 34.8752 63.3815 34.8579 62.899 34.3756C62.4207 33.8973 62.3994 33.1364 62.833 32.6316C63.2868 33.1918 63.8803 33.7997 64.656 34.43Z" fill="#F4B387"/>
<path d="M62.0601 32.4572C61.6317 32.8855 60.9371 32.8855 60.5088 32.4572C60.0804 32.0287 60.0804 31.3342 60.5088 30.9059L61.4277 29.9871C61.5323 30.4313 61.7908 31.1769 62.4266 32.0908L62.0601 32.4572Z" fill="#F4B387"/>
<path d="M56.9274 18.2914L58.2565 18.7861L55.4653 29.987L53.6932 29.5708L56.9274 18.2914Z" fill="white"/>
<path d="M57.4567 18.1972C57.4567 18.1972 51.583 15.8973 50.9662 16.1924C50.3494 16.4876 47.0207 28.6847 47.6679 29.3332C48.3151 29.9818 54.732 30.2543 54.732 30.2543L57.4567 18.1972Z" fill="#23225B"/>
<path d="M50.9662 16.1924C50.7296 16.3057 50.0936 18.1721 49.4365 20.4646C51.5989 20.8689 54.5628 21.4293 56.6375 21.8223L57.4566 18.1972C57.4566 18.1972 51.583 15.8973 50.9662 16.1924Z" fill="#14143A"/>
<path d="M86.9139 17.9656L85.5756 18.4352L88.154 29.6869L89.9338 29.3045L86.9139 17.9656Z" fill="white"/>
<path d="M86.3865 17.8614C86.3865 17.8614 92.3028 15.6732 92.9137 15.9799C93.5247 16.2866 96.622 28.5447 95.9624 29.1808C95.3029 29.8171 88.8819 29.9679 88.8819 29.9679L86.3865 17.8614Z" fill="#2B2E41"/>
<path d="M92.9137 15.9799C93.1481 16.0976 93.7485 17.9757 94.3623 20.2803C92.1925 20.6435 89.2187 21.1476 87.1368 21.5014L86.3865 17.8614C86.3865 17.8614 92.3028 15.6732 92.9137 15.9799Z" fill="#1D202D"/>
</svg>
