<svg width="45" height="45" viewBox="0 0 45 45" fill="none" xmlns="http://www.w3.org/2000/svg">
<g clip-path="url(#clip0_236_25117)">
<path d="M45 3H23.25V0.75C23.25 0.33525 22.9147 0 22.5 0C22.0853 0 21.75 0.33525 21.75 0.75V3H0V34.5H20.6895L11.4698 43.7197C11.1765 44.013 11.1765 44.487 11.4698 44.7803C11.616 44.9265 11.808 45 12 45C12.192 45 12.384 44.9265 12.5303 44.7803L21.75 35.5605V42.75C21.75 43.1647 22.0853 43.5 22.5 43.5C22.9147 43.5 23.25 43.1647 23.25 42.75V35.5605L32.4697 44.7803C32.616 44.9265 32.808 45 33 45C33.192 45 33.384 44.9265 33.5303 44.7803C33.8235 44.487 33.8235 44.013 33.5303 43.7197L24.3105 34.5H45V3ZM43.5 33H1.5V4.5H43.5V33Z" fill="#2180EC"/>
<path d="M27 31.5C27.4147 31.5 27.75 31.1648 27.75 30.75V28.5C27.75 28.0853 27.4147 27.75 27 27.75C26.5853 27.75 26.25 28.0853 26.25 28.5V30.75C26.25 31.1648 26.5853 31.5 27 31.5Z" fill="#2180EC"/>
<path d="M30 24.75C29.5853 24.75 29.25 25.0853 29.25 25.5V30.75C29.25 31.1648 29.5853 31.5 30 31.5C30.4147 31.5 30.75 31.1648 30.75 30.75V25.5C30.75 25.0853 30.4147 24.75 30 24.75Z" fill="#2180EC"/>
<path d="M33 26.25C32.5853 26.25 32.25 26.5853 32.25 27V30.75C32.25 31.1648 32.5853 31.5 33 31.5C33.4147 31.5 33.75 31.1648 33.75 30.75V27C33.75 26.5853 33.4147 26.25 33 26.25Z" fill="#2180EC"/>
<path d="M36 21C35.5853 21 35.25 21.3353 35.25 21.75V30.75C35.25 31.1648 35.5853 31.5 36 31.5C36.4147 31.5 36.75 31.1648 36.75 30.75V21.75C36.75 21.3353 36.4147 21 36 21Z" fill="#2180EC"/>
<path d="M39 24C38.5853 24 38.25 24.3353 38.25 24.75V30.75C38.25 31.1648 38.5853 31.5 39 31.5C39.4147 31.5 39.75 31.1648 39.75 30.75V24.75C39.75 24.3353 39.4147 24 39 24Z" fill="#2180EC"/>
<path d="M6 28.5H13.5C13.9148 28.5 14.25 28.1647 14.25 27.75C14.25 27.3353 13.9148 27 13.5 27H6C5.58525 27 5.25 27.3353 5.25 27.75C5.25 28.1647 5.58525 28.5 6 28.5Z" fill="#2180EC"/>
<path d="M17.25 30H6C5.58525 30 5.25 30.3353 5.25 30.75C5.25 31.1647 5.58525 31.5 6 31.5H17.25C17.6648 31.5 18 31.1647 18 30.75C18 30.3353 17.6648 30 17.25 30Z" fill="#2180EC"/>
<path d="M22.4662 13.9553C22.4527 13.776 22.431 13.5998 22.4062 13.4243C22.3913 13.3177 22.3762 13.2113 22.3575 13.1055C22.3223 12.9083 22.278 12.7147 22.23 12.522C22.2083 12.4357 22.188 12.3487 22.1632 12.2632C22.1063 12.0645 22.0402 11.8695 21.9697 11.6768C21.9397 11.5943 21.9113 11.511 21.879 11.4293C21.807 11.2485 21.7253 11.073 21.6413 10.899C21.5963 10.806 21.5542 10.7115 21.5062 10.62C21.429 10.4738 21.3442 10.3335 21.2587 10.1925C21.1905 10.0785 21.1252 9.963 21.0518 9.852C20.9858 9.75375 20.913 9.66075 20.8433 9.56475C20.7397 9.42225 20.6392 9.27825 20.5267 9.14175L20.5253 9.14025C20.3505 8.928 20.1682 8.72175 19.9725 8.526C19.785 8.3385 19.587 8.16525 19.3845 7.99725C19.374 7.989 19.365 7.97925 19.3552 7.971C19.2255 7.8645 19.089 7.76925 18.954 7.671C18.8512 7.5945 18.75 7.515 18.642 7.44375C18.54 7.37625 18.4335 7.31625 18.3292 7.25325C18.1785 7.16175 18.027 7.071 17.8702 6.9885C17.7885 6.94575 17.7037 6.90825 17.6205 6.86775C17.4367 6.7785 17.25 6.693 17.0588 6.6165C16.9853 6.58725 16.911 6.5625 16.8375 6.5355C16.6373 6.462 16.4347 6.39375 16.2277 6.3345C16.1467 6.31125 16.0642 6.29175 15.9825 6.2715C15.7875 6.222 15.591 6.17775 15.3907 6.14175C15.285 6.12225 15.1777 6.108 15.0712 6.093C14.8972 6.069 14.7233 6.048 14.5463 6.03375C14.4113 6.02325 14.2755 6.01725 14.1398 6.0135C14.0513 6.0105 13.9642 6 13.875 6C13.8075 6 13.7415 6.00825 13.674 6.0105C13.608 6.012 13.5428 6.006 13.476 6.009L13.1797 6.027L13.1722 6.03525C8.745 6.39525 5.25 10.1062 5.25 14.625C5.25 19.3807 9.11925 23.25 13.875 23.25C16.0343 23.25 18.006 22.4468 19.521 21.1298C19.542 21.1132 19.5675 21.1058 19.587 21.0863C19.599 21.0743 19.6028 21.0585 19.614 21.0458C21.2078 19.62 22.2705 17.6175 22.4632 15.3652L22.4775 15.3533L22.4925 15.0233C22.4955 14.9572 22.4895 14.8927 22.491 14.8267C22.491 14.7592 22.5 14.6932 22.5 14.625C22.5 14.5335 22.4888 14.4443 22.4865 14.3535C22.482 14.22 22.4767 14.088 22.4662 13.9553ZM14.25 7.51875C14.3243 7.5225 14.3993 7.524 14.4735 7.53C14.5515 7.536 14.6295 7.5435 14.7067 7.5525C14.877 7.57275 15.045 7.59825 15.2115 7.62975C15.2617 7.6395 15.312 7.64775 15.3622 7.65825C15.5662 7.70175 15.768 7.75275 15.9653 7.8135C15.9773 7.81725 15.99 7.82025 16.002 7.824C18.2235 8.52 19.98 10.2765 20.676 12.498C20.6798 12.51 20.6828 12.5227 20.6865 12.5347C20.7473 12.732 20.7982 12.933 20.8417 13.1378C20.8523 13.188 20.8605 13.2383 20.8702 13.2885C20.9017 13.455 20.9272 13.623 20.9475 13.7933C20.9565 13.8705 20.9632 13.9485 20.97 14.0265C20.976 14.1 20.9775 14.1757 20.9813 14.25H14.25V7.51875ZM6.75 14.625C6.75 11.0798 9.3555 8.13975 12.75 7.5975V14.9722L12.7507 14.9955C12.7507 14.9992 12.7515 15.0022 12.7515 15.006L12.7778 15.75H13.1895L17.922 20.4825C16.7715 21.2797 15.378 21.75 13.875 21.75C9.9465 21.75 6.75 18.5535 6.75 14.625ZM19.0582 19.4977L15.3105 15.75H20.9025C20.673 17.1877 20.0145 18.4823 19.0582 19.4977Z" fill="#2180EC"/>
<path d="M29.25 11.25H35.25C35.6648 11.25 36 10.9147 36 10.5C36 10.0853 35.6648 9.75 35.25 9.75H29.25C28.8353 9.75 28.5 10.0853 28.5 10.5C28.5 10.9147 28.8353 11.25 29.25 11.25Z" fill="#2180EC"/>
<path d="M38.475 9.96753C38.3317 10.1025 38.25 10.2968 38.25 10.5C38.25 10.7025 38.3318 10.8975 38.4675 11.025C38.6093 11.1675 38.7968 11.25 39 11.25C39.195 11.25 39.39 11.1675 39.5325 11.0325C39.6675 10.89 39.75 10.695 39.75 10.5C39.75 10.305 39.6675 10.1093 39.5325 9.96753C39.2475 9.69003 38.7367 9.69753 38.475 9.96753Z" fill="#2180EC"/>
<path d="M36.75 7.5H39C39.4148 7.5 39.75 7.16475 39.75 6.75C39.75 6.33525 39.4148 6 39 6H36.75C36.3353 6 36 6.33525 36 6.75C36 7.16475 36.3353 7.5 36.75 7.5Z" fill="#2180EC"/>
<path d="M29.25 7.5H30.75C31.1648 7.5 31.5 7.16475 31.5 6.75C31.5 6.33525 31.1648 6 30.75 6H29.25C28.8353 6 28.5 6.33525 28.5 6.75C28.5 7.16475 28.8353 7.5 29.25 7.5Z" fill="#2180EC"/>
<path d="M33.75 7.4999C33.9525 7.4999 34.14 7.4174 34.2825 7.2824C34.4175 7.1399 34.5 6.9524 34.5 6.7499C34.5 6.54665 34.4175 6.35915 34.2825 6.2174C34.005 5.9399 33.4868 5.9399 33.2175 6.2174C33.0818 6.35915 33 6.54665 33 6.7499C33 6.9524 33.0818 7.1399 33.2175 7.2824C33.3593 7.4174 33.5468 7.4999 33.75 7.4999Z" fill="#2180EC"/>
</g>
<defs>
<clipPath id="clip0_236_25117">
<rect width="45" height="45" fill="white"/>
</clipPath>
</defs>
</svg>
