<svg width="111" height="87" viewBox="0 0 111 87" fill="none" xmlns="http://www.w3.org/2000/svg">
<path d="M41.7243 9.92541C41.3595 9.92541 41.0353 10.0065 40.738 10.1416C40.4408 9.20931 39.576 8.53374 38.5289 8.53374C38.4208 6.96643 37.1102 5.70312 35.5091 5.70312C33.908 5.70312 33.1514 6.48678 32.719 7.61498C32.2732 7.34475 31.7597 7.19612 31.1923 7.19612C29.5439 7.19612 28.1995 8.52023 28.159 10.1619C27.8482 9.99972 27.5104 9.93216 27.1321 9.93216C26.0107 9.93216 25.0852 10.7293 24.8555 11.7765H43.9807C43.7645 10.7361 42.8323 9.94568 41.7176 9.94568H41.7041L41.7176 9.93216L41.7243 9.92541Z" fill="#E5E5E5"/>
<path d="M88.8782 47.4806C87.0474 47.4806 67.6384 47.4942 65.7266 47.4806C65.9427 46.4403 66.875 45.6363 68.0032 45.6363C69.1314 45.6363 68.7193 45.7309 69.0301 45.866C69.0571 44.2312 70.3947 42.9003 72.0634 42.9003C73.732 42.9003 74.4481 43.711 74.894 44.8527C75.2723 44.3798 75.8263 44.0961 76.4613 44.0961C77.0963 44.0961 77.0963 44.1771 77.3801 44.3122C77.4476 42.7044 78.7717 41.4141 80.3998 41.4141C82.028 41.4141 83.298 42.6571 83.4196 44.2447C84.4465 44.2447 85.3315 44.9202 85.6287 45.8525C85.926 45.7174 86.2637 45.6363 86.615 45.6363C87.723 45.6363 88.662 46.42 88.8782 47.4671V47.4942V47.4806Z" fill="#E5E5E5"/>
<path d="M31.4073 12.8633H61.5173C62.6522 12.8633 63.5913 13.7956 63.5913 14.9373V52.4919C63.5913 53.6269 62.659 54.5659 61.5173 54.5659H31.4073C31.002 54.5659 30.6777 54.2417 30.6777 53.8363V13.5929C30.6777 13.1876 31.002 12.8633 31.4073 12.8633Z" fill="#F8F8F8" stroke="#303030" stroke-width="0.20267" stroke-linecap="round" stroke-linejoin="round"/>
<path d="M66.2677 2.15448V15.2064C66.2677 15.8414 65.7542 16.3414 65.1327 16.3414H46.2912C45.6697 16.3414 45.1562 15.8279 45.1562 15.2064V2.15448C45.1562 1.51945 45.6697 1.01953 46.2912 1.01953H53.2765C53.6008 1.01953 53.8846 1.2222 53.9791 1.53296C54.1953 2.27608 54.8979 2.83005 55.7086 2.83005C56.5193 2.83005 57.2218 2.28959 57.438 1.53296C57.5326 1.2222 57.8163 1.01953 58.1406 1.01953H65.126C65.7475 1.01953 66.2609 1.53296 66.2609 2.15448H66.2677Z" fill="#F8F8F8"/>
<path d="M66.2609 2.15448C66.2609 1.53296 65.7475 1.01953 65.126 1.01953H58.1406C57.8163 1.01953 57.5326 1.2222 57.438 1.53296C57.2218 2.28959 56.5193 2.83005 55.7086 2.83005C54.8979 2.83005 54.1953 2.27608 53.9791 1.53296C53.8846 1.2222 53.6008 1.01953 53.2765 1.01953H46.2912C45.6697 1.01953 45.1562 1.51945 45.1562 2.15448V15.2064C45.1562 15.8279 45.6697 16.3414 46.2912 16.3414H65.1327C65.7542 16.3414 66.2677 15.8414 66.2677 15.2064V2.15448H66.2609ZM66.2609 2.15448H66.2474" stroke="#303030" stroke-width="0.20267" stroke-linecap="round" stroke-linejoin="round"/>
<path d="M65.1338 1H58.1484C57.8242 1 57.5404 1.20267 57.4458 1.51343C57.2297 2.25655 56.5271 2.81052 55.7164 2.81052C54.9057 2.81052 54.2031 2.27006 53.9869 1.51343C53.8924 1.20267 53.6086 1 53.2844 1H46.299C45.664 1 45.1641 1.51343 45.1641 2.13495V4.20894H66.2957V2.13495C66.2957 1.49992 65.7823 1 65.1608 1H65.1473H65.1338Z" fill="#B7BCBB" stroke="#303030" stroke-width="0.20267" stroke-linecap="round" stroke-linejoin="round"/>
<path d="M66.2677 53.4728V17.4787C66.2677 16.8437 65.7542 16.3438 65.1327 16.3438H46.2912C45.6697 16.3438 45.1562 16.8572 45.1562 17.4787V53.4728C45.1562 54.1079 45.6697 54.6078 46.2912 54.6078H53.2765C53.6008 54.6078 53.8846 54.4051 53.9791 54.0943C54.1953 53.3512 54.8979 52.7973 55.7086 52.7973C56.5193 52.7973 57.2218 53.3377 57.438 54.0943C57.5326 54.4051 57.8163 54.6078 58.1406 54.6078H65.126C65.7475 54.6078 66.2609 54.0943 66.2609 53.4728H66.2677Z" fill="#F8F8F8"/>
<path d="M66.2609 53.4728C66.2609 54.0943 65.7475 54.6078 65.126 54.6078H58.1406C57.8163 54.6078 57.5326 54.4051 57.438 54.0943C57.2218 53.3377 56.5193 52.7973 55.7086 52.7973C54.8979 52.7973 54.1953 53.3512 53.9791 54.0943C53.8846 54.4051 53.6008 54.6078 53.2765 54.6078H46.2912C45.6697 54.6078 45.1562 54.1079 45.1562 53.4728V17.4787C45.1562 16.8572 45.6697 16.3438 46.2912 16.3438H65.1327C65.7542 16.3438 66.2677 16.8437 66.2677 17.4787V53.4728H66.2609ZM66.2609 53.4728H66.2474" stroke="#303030" stroke-width="0.20267" stroke-linecap="round" stroke-linejoin="round"/>
<path d="M65.1338 54.6113H58.1484C57.8242 54.6113 57.5404 54.4086 57.4458 54.0978C57.2297 53.3547 56.5271 52.8008 55.7164 52.8008C54.9057 52.8008 54.2031 53.3412 53.9869 54.0978C53.8924 54.4086 53.6086 54.6113 53.2844 54.6113H46.299C45.664 54.6113 45.1641 54.0978 45.1641 53.4763V51.4023H66.2957V53.4763C66.2957 54.1114 65.7823 54.6113 65.1608 54.6113H65.1473H65.1338Z" fill="#F55571" stroke="#303030" stroke-width="0.20267" stroke-linecap="round" stroke-linejoin="round"/>
<path d="M64.0118 14.7812H60.9785V15.1596H64.0118V14.7812Z" fill="#303030"/>
<path d="M64.0118 11.3984H60.9785V11.7768H64.0118V11.3984Z" fill="#303030"/>
<path d="M64.0118 13.9023H60.9785V14.5374H64.0118V13.9023Z" fill="#303030"/>
<path d="M64.0118 12.0312H60.9785V12.6663H64.0118V12.0312Z" fill="#303030"/>
<path d="M64.0118 13.3086H60.9785V13.6869H64.0118V13.3086Z" fill="#303030"/>
<path d="M64.0118 12.9023H60.9785V13.0645H64.0118V12.9023Z" fill="#303030"/>
<path d="M64.0118 8.53906H60.9785V8.91738H64.0118V8.53906Z" fill="#303030"/>
<path d="M64.0118 9.15234H60.9785V9.78737H64.0118V9.15234Z" fill="#303030"/>
<path d="M64.0118 10.0039H60.9785V10.3822H64.0118V10.0039Z" fill="#303030"/>
<path d="M64.0118 10.625H60.9785V10.7871H64.0118V10.625Z" fill="#303030"/>
<path d="M64.0118 11.0469H60.9785V11.209H64.0118V11.0469Z" fill="#303030"/>
<path d="M64.0118 6.58203H60.9785V6.96035H64.0118V6.58203Z" fill="#303030"/>
<path d="M64.0118 7.21484H60.9785V7.84988H64.0118V7.21484Z" fill="#303030"/>
<path d="M64.0255 8.09375H60.9922V8.25589H64.0255V8.09375Z" fill="#303030"/>
<path d="M64.0118 5.19531H60.9785V5.57363H64.0118V5.19531Z" fill="#303030"/>
<path d="M64.0118 5.82422H60.9785V5.98635H64.0118V5.82422Z" fill="#303030"/>
<path d="M64.0118 6.23047H60.9785V6.3926H64.0118V6.23047Z" fill="#303030"/>
<path d="M64.0118 49.1016H60.9785V49.669H64.0118V49.1016Z" fill="#303030"/>
<path d="M64.0118 43.8984H60.9785V44.4659H64.0118V43.8984Z" fill="#303030"/>
<path d="M64.0255 47.7227H60.9922V48.709H64.0255V47.7227Z" fill="#303030"/>
<path d="M64.0118 44.8516H60.9785V45.8379H64.0118V44.8516Z" fill="#303030"/>
<path d="M64.0118 46.8359H60.9785V47.4034H64.0118V46.8359Z" fill="#303030"/>
<path d="M64.0118 46.2148H60.9785V46.4445H64.0118V46.2148Z" fill="#303030"/>
<path d="M64.0255 39.5156H60.9922V40.0831H64.0255V39.5156Z" fill="#303030"/>
<path d="M64.0118 40.4922H60.9785V41.4785H64.0118V40.4922Z" fill="#303030"/>
<path d="M64.0118 41.7773H60.9785V42.3448H64.0118V41.7773Z" fill="#303030"/>
<path d="M64.0255 42.7383H60.9922V42.968H64.0255V42.7383Z" fill="#303030"/>
<path d="M64.0255 43.3711H60.9922V43.6008H64.0255V43.3711Z" fill="#303030"/>
<path d="M64.0118 32.2188H60.9785V32.7862H64.0118V32.2188Z" fill="#303030"/>
<path d="M64.0118 33.8867H60.9785V34.1569H64.0118V33.8867Z" fill="#303030"/>
<path d="M64.0118 27.8477H60.9785V28.4151H64.0118V27.8477Z" fill="#303030"/>
<path d="M64.0118 28.793H60.9785V29.7793H64.0118V28.793Z" fill="#303030"/>
<path d="M64.0118 30.0977H60.9785V30.6651H64.0118V30.0977Z" fill="#303030"/>
<path d="M64.0118 33.043H60.9785V33.6104H64.0118V33.043Z" fill="#303030"/>
<path d="M64.0118 31.0547H60.9785V31.2844H64.0118V31.0547Z" fill="#303030"/>
<path d="M64.0118 31.6758H60.9785V31.9055H64.0118V31.6758Z" fill="#303030"/>
<path d="M64.0118 36.5352H60.9785V37.1026H64.0118V36.5352Z" fill="#303030"/>
<path d="M64.0118 37.4727H60.9785V38.459H64.0118V37.4727Z" fill="#303030"/>
<path d="M64.0118 38.8398H60.9785V39.0695H64.0118V38.8398Z" fill="#303030"/>
<path d="M64.0118 34.4141H60.9785V34.9815H64.0118V34.4141Z" fill="#303030"/>
<path d="M64.0118 35.3594H60.9785V35.5891H64.0118V35.3594Z" fill="#303030"/>
<path d="M64.0118 35.9961H60.9785V36.2258H64.0118V35.9961Z" fill="#303030"/>
<path d="M47.7094 8.89062H47.6823C47.5331 8.89062 47.4121 9.01161 47.4121 9.16085V14.687C47.4121 14.8362 47.5331 14.9572 47.6823 14.9572H47.7094C47.8586 14.9572 47.9796 14.8362 47.9796 14.687V9.16085C47.9796 9.01161 47.8586 8.89062 47.7094 8.89062Z" fill="#303030"/>
<path d="M49.3051 5.6875H49.278C49.1288 5.6875 49.0078 5.80848 49.0078 5.95773V14.7063C49.0078 14.8555 49.1288 14.9765 49.278 14.9765H49.3051C49.4543 14.9765 49.5753 14.8555 49.5753 14.7063V5.95773C49.5753 5.80848 49.4543 5.6875 49.3051 5.6875Z" fill="#303030"/>
<path d="M50.2172 30.5547H50.1901C50.0409 30.5547 49.9199 30.6757 49.9199 30.8249V40.5868C49.9199 40.7361 50.0409 40.8571 50.1901 40.8571H50.2172C50.3664 40.8571 50.4874 40.7361 50.4874 40.5868V30.8249C50.4874 30.6757 50.3664 30.5547 50.2172 30.5547Z" fill="#303030"/>
<path d="M51.8246 27.3477H51.7976C51.6483 27.3477 51.5273 27.4686 51.5273 27.6179V40.5887C51.5273 40.738 51.6483 40.859 51.7976 40.859H51.8246C51.9738 40.859 52.0948 40.738 52.0948 40.5887V27.6179C52.0948 27.4686 51.9738 27.3477 51.8246 27.3477Z" fill="#303030"/>
<path d="M55.1273 43.3438H55.1003C54.9511 43.3438 54.8301 43.4647 54.8301 43.614V49.3968C54.8301 49.5461 54.9511 49.667 55.1003 49.667H55.1273C55.2766 49.667 55.3976 49.5461 55.3976 49.3968V43.614C55.3976 43.4647 55.2766 43.3438 55.1273 43.3438Z" fill="#303030"/>
<path d="M58.4711 43.3438H58.4441C58.2948 43.3438 58.1738 43.4647 58.1738 43.614V49.3968C58.1738 49.5461 58.2948 49.667 58.4441 49.667H58.4711C58.6203 49.667 58.7413 49.5461 58.7413 49.3968V43.614C58.7413 43.4647 58.6203 43.3438 58.4711 43.3438Z" fill="#303030"/>
<path d="M56.7758 43.3594H56.7487C56.5995 43.3594 56.4785 43.4804 56.4785 43.6296V49.3989C56.4785 49.5482 56.5995 49.6692 56.7487 49.6692H56.7758C56.925 49.6692 57.046 49.5482 57.046 49.3989V43.6296C57.046 43.4804 56.925 43.3594 56.7758 43.3594Z" fill="#303030"/>
<path d="M47.6957 20.6445H47.6687C47.5194 20.6445 47.3984 20.7655 47.3984 20.9148V40.5872C47.3984 40.7365 47.5194 40.8574 47.6687 40.8574H47.6957C47.8449 40.8574 47.9659 40.7365 47.9659 40.5872V20.9148C47.9659 20.7655 47.8449 20.6445 47.6957 20.6445Z" fill="#303030"/>
<path d="M52.4047 8.89062H52.3776C52.2284 8.89062 52.1074 9.01161 52.1074 9.16085V14.687C52.1074 14.8362 52.2284 14.9572 52.3776 14.9572H52.4047C52.5539 14.9572 52.6749 14.8362 52.6749 14.687V9.16085C52.6749 9.01161 52.5539 8.89062 52.4047 8.89062Z" fill="#303030"/>
<path d="M54.0199 5.6875H53.9929C53.8436 5.6875 53.7227 5.80848 53.7227 5.95773V14.7063C53.7227 14.8555 53.8436 14.9765 53.9929 14.9765H54.0199C54.1691 14.9765 54.2901 14.8555 54.2901 14.7063V5.95773C54.2901 5.80848 54.1691 5.6875 54.0199 5.6875Z" fill="#303030"/>
<path d="M61.7211 18.2344H61.6941C61.5448 18.2344 61.4238 18.3554 61.4238 18.5046V25.8412C61.4238 25.9905 61.5448 26.1115 61.6941 26.1115H61.7211C61.8703 26.1115 61.9913 25.9905 61.9913 25.8412V18.5046C61.9913 18.3554 61.8703 18.2344 61.7211 18.2344Z" fill="#303030"/>
<path d="M63.3148 18.2344H63.2878C63.1386 18.2344 63.0176 18.3554 63.0176 18.5046V25.8412C63.0176 25.9905 63.1386 26.1115 63.2878 26.1115H63.3148C63.4641 26.1115 63.5851 25.9905 63.5851 25.8412V18.5046C63.5851 18.3554 63.4641 18.2344 63.3148 18.2344Z" fill="#303030"/>
<path d="M58.7149 12.4219H56.8301V15.1579H58.7149V12.4219Z" fill="#D1D1D1"/>
<path d="M54.4258 39.4475V39.2854C54.4258 38.5693 55.0068 37.9883 55.7229 37.9883H57.8779C58.594 37.9883 59.175 38.5693 59.175 39.2854V39.4475C59.175 40.1636 58.594 40.7446 57.8779 40.7446H55.7229C55.0068 40.7446 54.4258 40.1636 54.4258 39.4475Z" fill="#D1D1D1"/>
<path d="M54.4395 35.7092V35.5471C54.4395 34.831 55.0204 34.25 55.7365 34.25H57.8916C58.6077 34.25 59.1887 34.831 59.1887 35.5471V35.7092C59.1887 36.4253 58.6077 37.0063 57.8916 37.0063H55.7365C55.0204 37.0063 54.4395 36.4253 54.4395 35.7092Z" fill="#D1D1D1"/>
<path d="M54.4258 27.2678V27.1057C54.4258 26.3896 55.0068 25.8086 55.7229 25.8086H57.8779C58.594 25.8086 59.175 26.3896 59.175 27.1057V27.2678C59.175 27.9839 58.594 28.5649 57.8779 28.5649H55.7229C55.0068 28.5649 54.4258 27.9839 54.4258 27.2678Z" fill="#D1D1D1"/>
<path d="M54.4395 23.5178V23.3557C54.4395 22.6396 55.0204 22.0586 55.7365 22.0586H57.8916C58.6077 22.0586 59.1887 22.6396 59.1887 23.3557V23.5178C59.1887 24.2339 58.6077 24.8149 57.8916 24.8149H55.7365C55.0204 24.8149 54.4395 24.2339 54.4395 23.5178Z" fill="#D1D1D1"/>
<path d="M58.7149 8.79688H56.8301V11.5329H58.7149V8.79688Z" fill="#D1D1D1"/>
<path d="M58.7149 5.19531H56.8301V7.93135H58.7149V5.19531Z" fill="#D1D1D1"/>
<path d="M49.9192 42.8164C49.5139 42.8164 49.3112 43.8162 49.3112 45.2417L48.8789 45.5254V45.3363C48.8789 45.2687 48.8383 45.2417 48.7708 45.2417C48.7032 45.2417 48.6627 45.2822 48.6627 45.3363V45.674L47.0684 46.7009V46.836L49.3855 46.4442C49.4801 47.6062 49.6828 48.7344 49.6828 48.7344L48.764 49.4505V49.5721L49.7098 49.3424C49.7098 49.3424 49.7233 49.6396 49.926 49.6396C50.1287 49.6396 50.1422 49.3424 50.1422 49.3424L51.088 49.5721V49.4505L50.1692 48.7344C50.1692 48.7344 50.3719 47.6129 50.4665 46.4442L52.7836 46.836V46.7009L51.1893 45.674V45.3363C51.1893 45.2687 51.1488 45.2417 51.0812 45.2417C51.0137 45.2417 50.9731 45.2822 50.9731 45.3363V45.5254L50.5408 45.2417C50.5408 43.823 50.3516 42.8164 49.9328 42.8164H49.9192Z" fill="#00826F"/>
<path d="M56.7891 32.8399V30.543" stroke="#F55571" stroke-width="0.20267" stroke-linecap="round" stroke-linejoin="round"/>
<path d="M55.8848 31.3651L56.79 30.2031L57.702 31.3651" stroke="#F55571" stroke-width="0.20267" stroke-linecap="round" stroke-linejoin="round"/>
<path d="M83.0563 8.08174L80.2121 20.8229C80.077 21.4444 79.469 21.8227 78.8475 21.7011L60.4654 17.6005C59.8438 17.4653 59.4655 16.8573 59.5871 16.2358L62.4313 3.49465C62.5664 2.87313 63.1744 2.49482 63.7959 2.61642L70.6191 4.12969C70.9299 4.19724 71.1596 4.45396 71.1866 4.77823C71.2271 5.56188 71.7946 6.23745 72.5918 6.4131C73.3889 6.58874 74.1861 6.21043 74.5712 5.52135C74.7333 5.23761 75.0576 5.1025 75.3683 5.18357L82.1915 6.69683C82.8131 6.83195 83.1914 7.43996 83.0698 8.06148L83.0563 8.07499V8.08174Z" fill="#F8F8F8" stroke="#303030" stroke-width="0.20267" stroke-linecap="round" stroke-linejoin="round"/>
<path d="M82.1769 6.72879L75.3537 5.21552C75.0429 5.14797 74.7186 5.29659 74.5565 5.55331C74.1782 6.24238 73.3945 6.60719 72.5771 6.44505C71.7799 6.26941 71.2259 5.59384 71.1719 4.81019C71.1584 4.49943 70.9287 4.2292 70.6044 4.16164L63.7812 2.64838C63.1597 2.51326 62.5517 2.89158 62.4166 3.52661L61.9707 5.56006L82.6025 10.1607L83.0483 8.12721C83.1835 7.50569 82.8051 6.89768 82.1701 6.76257L82.1836 6.73555L82.1769 6.72879Z" fill="#B7BCBB" stroke="#303030" stroke-width="0.20267" stroke-linecap="round" stroke-linejoin="round"/>
<path d="M71.875 58.1866L79.7115 23.0707C79.8466 22.4492 79.4683 21.8412 78.8333 21.7061L60.4511 17.6054C59.8296 17.4703 59.2216 17.8486 59.0865 18.4836L51.2499 53.5995C51.1148 54.2211 51.4931 54.8291 52.1282 54.9642L58.9514 56.4774C59.2621 56.545 59.5864 56.3964 59.7486 56.1397C60.1269 55.4506 60.9105 55.0858 61.728 55.2479C62.5251 55.4236 63.0791 56.0991 63.1331 56.8828C63.1466 57.1935 63.3763 57.4638 63.7006 57.5313L70.5238 59.0446C71.1453 59.1797 71.7533 58.8014 71.8885 58.1664L71.875 58.1799V58.1866Z" fill="#F8F8F8" stroke="#303030" stroke-width="0.20267" stroke-linecap="round" stroke-linejoin="round"/>
<path d="M70.5173 59.0527L63.694 57.5395C63.3833 57.4719 63.1536 57.2152 63.1266 56.8909C63.086 56.1073 62.5186 55.4317 61.7214 55.256C60.9242 55.0804 60.1271 55.4587 59.742 56.1478C59.5799 56.4315 59.2556 56.5666 58.9448 56.4856L52.1216 54.9723C51.5001 54.8372 51.1218 54.2292 51.2434 53.6077L51.6892 51.5742L72.321 56.1748L71.8751 58.2083C71.74 58.8298 71.132 59.2081 70.5105 59.0865L70.524 59.0595L70.5173 59.0527Z" fill="#F55571" stroke="#303030" stroke-width="0.20267" stroke-linecap="round" stroke-linejoin="round"/>
<path d="M75.1548 19.2753L75.0723 19.6445L78.0325 20.3062L78.115 19.937L75.1548 19.2753Z" fill="#303030"/>
<path d="M75.895 15.9784L75.8125 16.3477L78.7727 17.0093L78.8553 16.6401L75.895 15.9784Z" fill="#303030"/>
<path d="M75.3417 18.4193L75.2031 19.0391L78.1634 19.7008L78.3019 19.081L75.3417 18.4193Z" fill="#303030"/>
<path d="M75.7616 16.5951L75.623 17.2148L78.5833 17.8765L78.7218 17.2568L75.7616 16.5951Z" fill="#303030"/>
<path d="M75.4732 17.8495L75.3906 18.2188L78.3509 18.8804L78.4334 18.5112L75.4732 17.8495Z" fill="#303030"/>
<path d="M75.5705 17.4511L75.5352 17.6094L78.4954 18.2711L78.5308 18.1128L75.5705 17.4511Z" fill="#303030"/>
<path d="M76.4556 13.1542L76.373 13.5234L79.3333 14.1851L79.4158 13.8159L76.4556 13.1542Z" fill="#303030"/>
<path d="M76.3143 13.767L76.1758 14.3867L79.136 15.0484L79.2745 14.4287L76.3143 13.767Z" fill="#303030"/>
<path d="M76.1353 14.58L76.0527 14.9492L79.013 15.6109L79.0955 15.2417L76.1353 14.58Z" fill="#303030"/>
<path d="M76.01 15.1816L75.9746 15.3398L78.9348 16.0015L78.9702 15.8433L76.01 15.1816Z" fill="#303030"/>
<path d="M75.9709 15.6386L75.9355 15.7969L78.8958 16.4586L78.9312 16.3003L75.9709 15.6386Z" fill="#303030"/>
<path d="M76.938 11.2753L76.8555 11.6445L79.8157 12.3062L79.8982 11.937L76.938 11.2753Z" fill="#303030"/>
<path d="M76.8124 11.8881L76.6738 12.5078L79.6341 13.1695L79.7726 12.5498L76.8124 11.8881Z" fill="#303030"/>
<path d="M76.6194 12.748L76.584 12.9062L79.5442 13.5679L79.5796 13.4097L76.6194 12.748Z" fill="#303030"/>
<path d="M77.1802 9.87688L77.0977 10.2461L80.0579 10.9078L80.1404 10.5386L77.1802 9.87688Z" fill="#303030"/>
<path d="M77.0354 10.4941L77 10.6523L79.9602 11.314L79.9956 11.1558L77.0354 10.4941Z" fill="#303030"/>
<path d="M77.0217 10.9277L76.9863 11.0859L79.9466 11.7476L79.9819 11.5894L77.0217 10.9277Z" fill="#303030"/>
<path d="M67.6668 52.786L67.543 53.3398L70.5032 54.0015L70.627 53.4477L67.6668 52.786Z" fill="#303030"/>
<path d="M68.8269 47.7157L68.7031 48.2695L71.6634 48.9312L71.7872 48.3774L68.8269 47.7157Z" fill="#303030"/>
<path d="M67.9886 51.4515L67.7734 52.4141L70.7337 53.0758L70.9488 52.1132L67.9886 51.4515Z" fill="#303030"/>
<path d="M68.6097 48.6624L68.3945 49.625L71.3548 50.2867L71.5699 49.3241L68.6097 48.6624Z" fill="#303030"/>
<path d="M68.1843 50.5907L68.0605 51.1445L71.0208 51.8062L71.1446 51.2524L68.1843 50.5907Z" fill="#303030"/>
<path d="M68.3079 50.0024L68.2578 50.2266L71.2181 50.8883L71.2682 50.6641L68.3079 50.0024Z" fill="#303030"/>
<path d="M69.7195 43.3798L69.5957 43.9336L72.5559 44.5953L72.6797 44.0415L69.7195 43.3798Z" fill="#303030"/>
<path d="M69.5218 44.3187L69.3066 45.2812L72.2669 45.9429L72.482 44.9804L69.5218 44.3187Z" fill="#303030"/>
<path d="M69.2351 45.5946L69.1113 46.1484L72.0716 46.8101L72.1954 46.2563L69.2351 45.5946Z" fill="#303030"/>
<path d="M69.0208 46.5219L68.9707 46.7461L71.9309 47.4078L71.981 47.1836L69.0208 46.5219Z" fill="#303030"/>
<path d="M68.929 47.2212L68.8789 47.4453L71.8391 48.107L71.8892 47.8828L68.929 47.2212Z" fill="#303030"/>
<path d="M71.3621 36.2938L71.2383 36.8477L74.1985 37.5093L74.3223 36.9555L71.3621 36.2938Z" fill="#303030"/>
<path d="M71.0004 37.9394L70.9414 38.2031L73.9016 38.8648L73.9606 38.6011L71.0004 37.9394Z" fill="#303030"/>
<path d="M72.2722 31.9657L72.1484 32.5195L75.1087 33.1812L75.2325 32.6274L72.2722 31.9657Z" fill="#303030"/>
<path d="M72.0589 32.9202L71.8438 33.8828L74.804 34.5445L75.0191 33.5819L72.0589 32.9202Z" fill="#303030"/>
<path d="M71.7722 34.1962L71.6484 34.75L74.6087 35.4117L74.7325 34.8579L71.7722 34.1962Z" fill="#303030"/>
<path d="M71.1414 37.0712L71.0176 37.625L73.9778 38.2867L74.1016 37.7329L71.1414 37.0712Z" fill="#303030"/>
<path d="M71.5735 35.1118L71.5234 35.3359L74.4837 35.9976L74.5338 35.7735L71.5735 35.1118Z" fill="#303030"/>
<path d="M71.4837 35.7915L71.4336 36.0156L74.3938 36.6773L74.4439 36.4532L71.4837 35.7915Z" fill="#303030"/>
<path d="M70.4129 40.5243L70.2891 41.0781L73.2493 41.7398L73.3731 41.186L70.4129 40.5243Z" fill="#303030"/>
<path d="M70.1976 41.4632L69.9824 42.4258L72.9427 43.0875L73.1578 42.1249L70.1976 41.4632Z" fill="#303030"/>
<path d="M69.929 42.7836L69.8789 43.0078L72.8391 43.6695L72.8893 43.4453L69.929 42.7836Z" fill="#303030"/>
<path d="M70.8308 38.3759L70.707 38.9297L73.6673 39.5914L73.7911 39.0376L70.8308 38.3759Z" fill="#303030"/>
<path d="M70.6321 39.3227L70.582 39.5469L73.5423 40.2086L73.5924 39.9844L70.6321 39.3227Z" fill="#303030"/>
<path d="M70.5345 40.0219L70.4844 40.2461L73.4446 40.9078L73.4947 40.6836L70.5345 40.0219Z" fill="#303030"/>
<path d="M63.1394 10.8628L61.9339 16.2558C61.9014 16.4015 61.9931 16.5459 62.1387 16.5785L62.1651 16.5844C62.3107 16.6169 62.4552 16.5253 62.4878 16.3796L63.6932 10.9866C63.7258 10.8409 63.6341 10.6965 63.4885 10.6639L63.4621 10.658C63.3165 10.6254 63.172 10.7171 63.1394 10.8628Z" fill="#303030"/>
<path d="M65.4147 8.04997L63.5062 16.5878C63.4737 16.7335 63.5653 16.878 63.711 16.9105L63.7374 16.9164C63.883 16.949 64.0275 16.8573 64.06 16.7116L65.9685 8.17376C66.001 8.02811 65.9093 7.88365 65.7637 7.85109L65.7373 7.8452C65.5917 7.81264 65.4472 7.90432 65.4147 8.04997Z" fill="#303030"/>
<path d="M60.8584 32.5454L58.7289 42.0722C58.6963 42.2179 58.788 42.3623 58.9336 42.3949L58.96 42.4008C59.1057 42.4333 59.2501 42.3417 59.2827 42.196L61.4122 32.6692C61.4447 32.5235 61.3531 32.3791 61.2074 32.3465L61.181 32.3406C61.0354 32.3081 60.8909 32.3998 60.8584 32.5454Z" fill="#303030"/>
<path d="M63.1365 29.7653L60.307 42.4238C60.2744 42.5694 60.3661 42.7139 60.5118 42.7464L60.5381 42.7523C60.6838 42.7849 60.8282 42.6932 60.8608 42.5476L63.6903 29.8891C63.7229 29.7435 63.6312 29.599 63.4855 29.5664L63.4592 29.5605C63.3135 29.528 63.1691 29.6197 63.1365 29.7653Z" fill="#303030"/>
<path d="M62.8556 46.1083L61.5941 51.7519C61.5615 51.8976 61.6532 52.042 61.7989 52.0746L61.8252 52.0805C61.9709 52.113 62.1154 52.0213 62.1479 51.8757L63.4094 46.2321C63.442 46.0865 63.3503 45.942 63.2046 45.9095L63.1783 45.9036C63.0326 45.871 62.8881 45.9627 62.8556 46.1083Z" fill="#303030"/>
<path d="M64.862 52.4878L66.1186 46.8401C66.1456 46.705 66.2942 46.6104 66.4294 46.6374H66.4564C66.5915 46.678 66.6861 46.8266 66.659 46.9617L65.4025 52.6094C65.3755 52.7445 65.2268 52.8391 65.0917 52.8121H65.0647C64.9296 52.7716 64.835 52.6229 64.862 52.4878Z" fill="#303030"/>
<path d="M64.4855 46.4692L63.2269 52.0996C63.1944 52.2452 63.286 52.3897 63.4317 52.4222L63.4581 52.4281C63.6037 52.4607 63.7482 52.369 63.7807 52.2234L65.0393 46.593C65.0718 46.4473 64.9801 46.3029 64.8345 46.2703L64.8081 46.2644C64.6625 46.2319 64.518 46.3235 64.4855 46.4692Z" fill="#303030"/>
<path d="M60.5769 22.3306L56.2855 41.5292C56.253 41.6749 56.3446 41.8194 56.4903 41.8519L56.5167 41.8578C56.6623 41.8904 56.8068 41.7987 56.8393 41.653L61.1307 22.4544C61.1633 22.3087 61.0716 22.1642 60.926 22.1317L60.8996 22.1258C60.7539 22.0932 60.6095 22.1849 60.5769 22.3306Z" fill="#303030"/>
<path d="M67.7058 11.8979L66.5004 17.291C66.4678 17.4366 66.5595 17.5811 66.7051 17.6136L66.7315 17.6195C66.8771 17.6521 67.0216 17.5604 67.0542 17.4148L68.2596 12.0217C68.2922 11.8761 68.2005 11.7316 68.0549 11.6991L68.0285 11.6932C67.8829 11.6606 67.7384 11.7523 67.7058 11.8979Z" fill="#303030"/>
<path d="M68.0847 17.6271L69.9966 9.07448C70.0236 8.93937 70.1722 8.84479 70.3073 8.87181H70.3343C70.4694 8.91234 70.564 9.06097 70.537 9.19608L68.6252 17.7487C68.5981 17.8839 68.4495 17.9784 68.3144 17.9514H68.2874C68.1523 17.9109 68.0577 17.7622 68.0847 17.6271Z" fill="#303030"/>
<path d="M74.757 23.0216L73.1566 30.1816C73.124 30.3272 73.2157 30.4717 73.3614 30.5043L73.3877 30.5102C73.5334 30.5427 73.6779 30.451 73.7104 30.3054L75.3109 23.1454C75.3434 22.9998 75.2517 22.8553 75.1061 22.8228L75.0797 22.8169C74.9341 22.7843 74.7896 22.876 74.757 23.0216Z" fill="#303030"/>
<path d="M76.3254 23.381L74.725 30.541C74.6924 30.6866 74.7841 30.8311 74.9297 30.8636L74.9561 30.8695C75.1018 30.9021 75.2462 30.8104 75.2788 30.6648L76.8792 23.5048C76.9118 23.3592 76.8201 23.2147 76.6744 23.1821L76.6481 23.1762C76.5024 23.1437 76.358 23.2354 76.3254 23.381Z" fill="#303030"/>
<path d="M71.6047 16.0877L71.0078 18.7578L72.8472 19.169L73.4441 16.4988L71.6047 16.0877Z" fill="#D1D1D1"/>
<path d="M63.3964 41.9688L63.4369 41.8202C63.5991 41.1176 64.2881 40.6853 64.9772 40.8339L67.0782 41.3068C67.7808 41.4689 68.2132 42.158 68.0645 42.8471L68.024 42.9957C67.8619 43.6983 67.1728 44.1306 66.4837 43.982L64.3827 43.5091C63.6801 43.347 63.2478 42.6579 63.3964 41.9688Z" fill="#D1D1D1"/>
<path d="M64.2011 38.3009L64.2416 38.1522C64.4037 37.4497 65.0928 37.0173 65.7819 37.1659L67.8829 37.6388C68.5855 37.8009 69.0179 38.49 68.8692 39.1791L68.8287 39.3277C68.6666 40.0303 67.9775 40.4627 67.2884 40.3141L65.1874 39.8412C64.4848 39.679 64.0525 38.9899 64.2011 38.3009Z" fill="#D1D1D1"/>
<path d="M66.039 30.0587L66.0795 29.9101C66.2416 29.2075 66.9307 28.7751 67.6198 28.9237L69.7208 29.3966C70.4234 29.5588 70.8557 30.2478 70.7071 30.9369L70.6666 31.0855C70.5045 31.7881 69.8154 32.2205 69.1263 32.0719L67.0253 31.599C66.3227 31.4368 65.8903 30.7478 66.039 30.0587Z" fill="#D1D1D1"/>
<path d="M66.8901 26.248L66.8591 26.3865C66.7029 27.0856 67.1429 27.779 67.842 27.9353L69.9188 28.3995C70.6179 28.5558 71.3113 28.1157 71.4676 27.4166L71.4985 27.2782C71.6548 26.579 71.2148 25.8856 70.5156 25.7294L68.4389 25.2651C67.7398 25.1089 67.0463 25.5489 66.8901 26.248Z" fill="#D1D1D1"/>
<path d="M72.4035 12.5525L71.8066 15.2227L73.6461 15.6338L74.2429 12.9637L72.4035 12.5525Z" fill="#D1D1D1"/>
<path d="M73.1867 9.02517L72.5898 11.6953L74.4293 12.1065L75.0261 9.43633L73.1867 9.02517Z" fill="#D1D1D1"/>
<path d="M58.2289 44.2332C57.8235 44.1386 57.4182 45.0709 57.1074 46.4693L56.621 46.6449L56.6616 46.4558C56.6616 46.4152 56.6345 46.3477 56.567 46.3342C56.4994 46.3342 56.4454 46.3477 56.4319 46.4152L56.3508 46.7395L54.5876 47.388L54.5605 47.5232L56.9048 47.6448C56.7426 48.8067 56.7021 49.9619 56.7021 49.9619L55.6482 50.4619L55.6212 50.5835H56.6075C56.6075 50.5835 56.567 50.8672 56.7696 50.9077C56.9723 50.9483 57.0534 50.6645 57.0534 50.6645L57.9316 51.0969L57.9586 50.9753L57.2155 50.07C57.2155 50.07 57.6479 49.0297 58.0127 47.9015L60.1813 48.7797L60.2083 48.6446L58.8842 47.307L58.9652 46.9827C58.9652 46.9422 58.9382 46.8746 58.8707 46.8611C58.8031 46.8611 58.7491 46.8746 58.7355 46.9422L58.695 47.1313L58.3302 46.753C58.641 45.3613 58.668 44.3412 58.2626 44.2602L58.2356 44.2332H58.2289Z" fill="#00826F"/>
<path d="M67.1328 35.9698L67.6125 33.7539" stroke="#F55571" stroke-width="0.20267" stroke-linecap="round" stroke-linejoin="round"/>
<path d="M66.5508 34.3471L67.6925 33.3945L68.314 34.7389" stroke="#F55571" stroke-width="0.20267" stroke-linecap="round" stroke-linejoin="round"/>
<path d="M32.0304 14.9688H59.7015C60.8365 14.9688 61.7755 15.901 61.7755 17.0427V53.8678C61.7755 55.0028 60.8433 55.9418 59.7015 55.9418H32.0304C31.6251 55.9418 31.3008 55.6175 31.3008 55.2122V15.6984C31.3008 15.293 31.6251 14.9688 32.0304 14.9688Z" fill="#394076"/>
<path d="M32.9688 15.3906V54.6004" stroke="#303030" stroke-width="0.20267" stroke-linecap="round" stroke-linejoin="round"/>
<path d="M41.4134 23.6915C41.3458 23.5834 41.2512 23.5023 41.1296 23.4483C41.0215 23.3807 40.8864 23.3672 40.7378 23.3672H39.7109V25.279C39.7109 25.4547 39.846 25.5898 40.0217 25.5898C40.1973 25.5898 40.3325 25.4547 40.3325 25.279V24.8061H40.7378C40.8729 24.8061 41.0215 24.7791 41.1296 24.7116C41.2377 24.644 41.3323 24.5765 41.4134 24.4684C41.4809 24.3603 41.5079 24.2387 41.5079 24.0765C41.5079 23.9144 41.4809 23.7928 41.4134 23.6847V23.6982V23.6915ZM40.8594 24.2184C40.8324 24.2589 40.7918 24.2995 40.7648 24.313C40.7243 24.3265 40.6838 24.34 40.6297 24.34H40.346V23.7995H40.6297C40.6702 23.7995 40.7243 23.7995 40.7648 23.8266C40.8054 23.8401 40.8459 23.8671 40.8594 23.9212C40.8864 23.9617 40.8864 24.0157 40.8864 24.0833C40.8864 24.1508 40.8864 24.1914 40.8594 24.2454V24.2184Z" fill="#F8F8F8"/>
<path d="M43.406 25.582C43.6087 25.582 43.7438 25.3793 43.6898 25.1902L43.0007 23.3594H42.3657L41.6631 25.1902C41.582 25.3793 41.7306 25.5955 41.9468 25.5955C42.0684 25.5955 42.1765 25.5144 42.2305 25.3928L42.2981 25.2172H43.0818L43.1493 25.3928C43.1898 25.5144 43.3114 25.5955 43.4331 25.5955L43.406 25.582ZM42.4535 24.7173L42.6832 24.0282L42.9129 24.7173H42.44H42.4535Z" fill="#F8F8F8"/>
<path d="M44.7835 25.6112C44.5943 25.6112 44.4187 25.5842 44.2836 25.5301C44.243 25.5166 44.2025 25.5031 44.162 25.4626C43.9998 25.3815 43.9728 25.1653 44.0944 25.0437H44.1079C44.2025 24.9356 44.3241 24.9221 44.4322 24.9762C44.4592 24.9897 44.4998 25.0032 44.5268 25.0167C44.6214 25.0572 44.7159 25.0843 44.8105 25.0843C44.9051 25.0843 44.9727 25.0843 44.9997 25.0573C45.0402 25.0302 45.0672 24.9897 45.0672 24.9492C45.0672 24.9086 45.0537 24.8681 44.9997 24.8411C44.9727 24.814 44.9051 24.7735 44.8375 24.76C44.77 24.733 44.7159 24.7195 44.6349 24.6789C44.5538 24.6384 44.4998 24.6114 44.4187 24.5844C44.3376 24.5573 44.2836 24.5033 44.216 24.4628C44.1485 24.4222 44.1079 24.3547 44.0539 24.2736C44.0269 24.1925 43.9863 24.0979 43.9863 23.9899C43.9863 23.8818 44.0134 23.7196 44.0944 23.6115C44.162 23.5035 44.2701 23.4224 44.3917 23.3818C44.5133 23.3143 44.6619 23.3008 44.824 23.3008C44.9862 23.3008 45.1483 23.3278 45.2969 23.3818C45.3104 23.3818 45.3239 23.3818 45.3375 23.3954C45.5131 23.4764 45.5536 23.6926 45.4185 23.8142C45.3239 23.8953 45.2023 23.9223 45.0943 23.8547C45.0807 23.8547 45.0672 23.8412 45.0537 23.8277C44.9862 23.8007 44.9186 23.7872 44.8375 23.7872C44.7565 23.7872 44.7295 23.7872 44.6754 23.8142C44.6484 23.8277 44.6078 23.8547 44.6078 23.9088C44.6078 23.9628 44.6214 23.9899 44.6754 24.0169C44.7024 24.0439 44.77 24.0574 44.8375 24.0979C44.9051 24.1385 44.9591 24.1385 45.0402 24.179C45.1213 24.2195 45.1753 24.2195 45.2564 24.2736C45.3375 24.3006 45.3915 24.3547 45.4591 24.3952C45.5266 24.4357 45.5672 24.5168 45.6212 24.5979C45.6482 24.6789 45.6888 24.7735 45.6888 24.8816C45.6888 25.1113 45.6077 25.2869 45.4455 25.4085C45.2834 25.5301 45.0537 25.5977 44.7565 25.5977H44.7835V25.6112Z" fill="#F8F8F8"/>
<path d="M46.7229 25.6112C46.5338 25.6112 46.3581 25.5842 46.223 25.5301C46.1825 25.5166 46.142 25.5031 46.1014 25.4626C45.9393 25.3815 45.9123 25.1653 46.0339 25.0437H46.0474C46.142 24.9356 46.2636 24.9221 46.3717 24.9762C46.3987 24.9897 46.4392 25.0032 46.4662 25.0167C46.5608 25.0572 46.6554 25.0843 46.75 25.0843C46.8445 25.0843 46.9121 25.0843 46.9391 25.0573C46.9797 25.0302 47.0067 24.9897 47.0067 24.9492C47.0067 24.9086 46.9932 24.8681 46.9391 24.8411C46.9121 24.814 46.8445 24.7735 46.777 24.76C46.7094 24.733 46.6554 24.7195 46.5743 24.6789C46.4933 24.6384 46.4392 24.6114 46.3581 24.5844C46.2771 24.5573 46.223 24.5033 46.1555 24.4628C46.0879 24.4222 46.0474 24.3547 45.9933 24.2736C45.9663 24.1925 45.9258 24.0979 45.9258 23.9899C45.9258 23.8818 45.9528 23.7196 46.0339 23.6115C46.1014 23.5035 46.2095 23.4224 46.3311 23.3818C46.4527 23.3143 46.6013 23.3008 46.7635 23.3008C46.9256 23.3008 47.0878 23.3278 47.2364 23.3818C47.2499 23.3818 47.2634 23.3818 47.2769 23.3954C47.4526 23.4764 47.4931 23.6926 47.358 23.8142C47.2634 23.8953 47.1418 23.9223 47.0337 23.8547C47.0202 23.8547 47.0067 23.8412 46.9932 23.8277C46.9256 23.8007 46.8581 23.7872 46.777 23.7872C46.6959 23.7872 46.6689 23.7872 46.6149 23.8142C46.5878 23.8277 46.5473 23.8547 46.5473 23.9088C46.5473 23.9628 46.5608 23.9899 46.6149 24.0169C46.6419 24.0439 46.7094 24.0574 46.777 24.0979C46.8445 24.1385 46.8986 24.1385 46.9797 24.179C47.0607 24.2195 47.1148 24.2195 47.1958 24.2736C47.2769 24.3006 47.331 24.3547 47.3985 24.3952C47.4661 24.4357 47.5066 24.5168 47.5606 24.5979C47.5877 24.6789 47.6282 24.7735 47.6282 24.8816C47.6282 25.1113 47.5471 25.2869 47.385 25.4085C47.2229 25.5301 46.9932 25.5977 46.6959 25.5977H46.7229V25.6112Z" fill="#F8F8F8"/>
<path d="M49.6556 23.6915C49.588 23.5834 49.4934 23.5023 49.3718 23.4483C49.2637 23.3807 49.1286 23.3672 48.98 23.3672H47.9531V25.279C47.9531 25.4547 48.0882 25.5898 48.2639 25.5898C48.4395 25.5898 48.5746 25.4547 48.5746 25.279V24.8061H48.98C49.1151 24.8061 49.2637 24.7791 49.3718 24.7116C49.4799 24.644 49.5745 24.5765 49.6556 24.4684C49.7231 24.3603 49.7501 24.2387 49.7501 24.0765C49.7501 23.9144 49.7231 23.7928 49.6556 23.6847V23.6982V23.6915ZM49.1151 24.2184C49.0881 24.2589 49.0475 24.2995 49.0205 24.313C48.98 24.3265 48.9394 24.34 48.8854 24.34H48.6017V23.7995H48.8854C48.9259 23.7995 48.98 23.7995 49.0205 23.8266C49.0611 23.8401 49.1016 23.8671 49.1151 23.9212C49.1421 23.9617 49.1421 24.0157 49.1421 24.0833C49.1421 24.1508 49.1421 24.1914 49.1151 24.2454V24.2184Z" fill="#F8F8F8"/>
<path d="M51.175 25.6229C50.9994 25.6229 50.8372 25.5959 50.6886 25.5284C50.5535 25.4608 50.4049 25.3932 50.2968 25.2851C50.1887 25.1771 50.1076 25.0555 50.0536 24.9068C49.986 24.7717 49.959 24.6096 49.959 24.461C49.959 24.3123 49.986 24.1502 50.0536 24.0151C50.1211 23.88 50.1887 23.7449 50.2968 23.6503C50.4049 23.5557 50.5265 23.4611 50.6886 23.4071C50.8237 23.3395 50.9994 23.3125 51.175 23.3125C51.3507 23.3125 51.5128 23.3395 51.6614 23.4071C51.7965 23.4746 51.9451 23.5422 52.0532 23.6503C52.1613 23.7584 52.2424 23.88 52.2964 24.0286C52.364 24.1637 52.391 24.3258 52.391 24.5015C52.391 24.6771 52.364 24.8123 52.2964 24.9474C52.2289 25.0825 52.1613 25.2176 52.0532 25.3257C51.9451 25.4338 51.8235 25.5148 51.6749 25.5689C51.5398 25.6364 51.3642 25.65 51.1885 25.65H51.175V25.6229ZM51.175 25.0825C51.2831 25.0825 51.3912 25.0555 51.4723 25.0014C51.5533 24.9474 51.6344 24.8798 51.6749 24.7852C51.7155 24.6907 51.7425 24.5826 51.7425 24.461C51.7425 24.3394 51.7425 24.2853 51.7155 24.2178C51.6884 24.1502 51.6479 24.0826 51.6074 24.0286C51.5668 23.9746 51.4993 23.934 51.4182 23.907C51.3506 23.88 51.2561 23.8665 51.1885 23.8665C51.121 23.8665 50.9723 23.8935 50.8913 23.9475C50.8102 24.0016 50.7291 24.0691 50.6886 24.1502C50.6481 24.2448 50.621 24.3529 50.621 24.4745C50.621 24.5961 50.621 24.6501 50.6481 24.7177C50.6751 24.7852 50.7156 24.8528 50.7562 24.9068C50.7967 24.9609 50.8642 25.0014 50.9453 25.0284C51.0129 25.0555 51.1074 25.069 51.175 25.069V25.0825Z" fill="#F8F8F8"/>
<path d="M54.3845 24.3809C54.4521 24.2863 54.4926 24.1647 54.4926 24.0431C54.4926 23.9215 54.4656 23.7999 54.3981 23.7053C54.3305 23.6107 54.2359 23.5296 54.1143 23.4756C54.0062 23.408 53.8711 23.3945 53.709 23.3945H52.7227V25.3334C52.7227 25.4955 52.8443 25.6171 53.0064 25.6171H53.0469C53.2091 25.6171 53.3307 25.4955 53.3307 25.3334V24.7389L53.8171 25.482C53.8576 25.5631 53.9522 25.6036 54.0468 25.6036C54.2765 25.6036 54.4251 25.3334 54.2765 25.1578L53.9522 24.6849C53.9927 24.6849 54.0333 24.6578 54.0738 24.6443C54.1954 24.5768 54.29 24.5092 54.3575 24.4146H54.371L54.3845 24.3876V24.3809ZM53.6009 23.7999C53.682 23.7999 53.763 23.8134 53.8036 23.8674C53.8441 23.908 53.8711 23.962 53.8711 24.0431C53.8711 24.1241 53.8576 24.1647 53.8036 24.2187C53.763 24.2593 53.6955 24.2863 53.6009 24.2863H53.3307V23.8404H53.6009V23.7999Z" fill="#F8F8F8"/>
<path d="M56.6399 23.3672H54.6875V23.8941H55.3631V25.2588C55.3631 25.4344 55.4982 25.5695 55.6738 25.5695C55.8495 25.5695 55.9846 25.4344 55.9846 25.2588V23.8941H56.6602V23.3672H56.6331H56.6399Z" fill="#F8F8F8"/>
<path d="M43.8119 45.2957C46.7445 45.2957 49.1218 42.9183 49.1218 39.9857C49.1218 37.0531 46.7445 34.6758 43.8119 34.6758C40.8793 34.6758 38.502 37.0531 38.502 39.9857C38.502 42.9183 40.8793 45.2957 43.8119 45.2957Z" stroke="#F8F8F8" stroke-width="0.20267" stroke-linecap="round" stroke-linejoin="round"/>
<path d="M48.6152 36.2641C49.5745 35.2643 50.9324 34.6562 52.4187 34.6562C55.3574 34.6562 57.7286 37.0275 57.7286 39.9662C57.7286 42.9049 55.3574 45.2761 52.4187 45.2761C49.48 45.2761 49.5745 44.6681 48.6152 43.6683" stroke="#F8F8F8" stroke-width="0.20267" stroke-linecap="round" stroke-linejoin="round"/>
<path d="M46.2428 40.7486C46.1077 40.7486 45.9456 40.7486 45.8105 40.7216C45.7699 40.7216 45.7159 40.6946 45.6889 40.6541C45.6483 40.6135 45.6483 40.5325 45.6078 40.4649C45.5267 40.2622 45.3105 40.1677 45.1214 40.0866C44.8512 39.992 44.5809 39.8839 44.3107 39.965C44.2161 39.992 44.1216 40.0461 44.027 40.0596C43.9054 40.0866 43.7567 40.0596 43.6216 40.019C43.5406 40.0055 43.4595 39.9785 43.4055 39.9245C43.3379 39.8569 43.3919 39.7623 43.3244 39.7083C43.2568 39.6542 43.1487 39.6407 43.1217 39.5461V39.411C43.1217 39.411 43.1487 39.384 43.1622 39.3705C43.1758 39.3435 43.1758 39.2894 43.1622 39.2759C43.1217 39.2489 43.0542 39.2084 43.0001 39.2489C42.919 39.3164 42.9055 39.4516 42.7704 39.4516C42.6353 39.4516 42.5813 39.3705 42.5272 39.2759C42.4326 39.1138 42.4326 38.9111 42.5542 38.7895C42.6218 38.722 42.7299 38.722 42.7839 38.7895C42.8245 38.8165 42.865 38.8841 42.919 38.8841C42.9731 38.8841 42.9866 38.8706 43.0001 38.8436C43.0136 38.8165 43.0406 38.803 43.0677 38.776C43.2028 38.6814 43.3109 38.8841 43.3784 38.9787C43.419 39.0597 43.5135 39.1138 43.5946 39.0868C43.6757 38.9246 43.5 38.7625 43.5541 38.5868C43.5811 38.4247 43.7838 38.3571 43.8513 38.195C43.8919 38.0734 43.8513 37.8842 43.9729 37.8032C44.081 37.7356 44.2567 37.8167 44.3377 37.7221C44.4053 37.6275 44.4188 37.587 44.5539 37.6275C44.635 37.6546 44.662 37.7626 44.7431 37.7626C44.7431 37.7626 44.7701 37.7626 44.7701 37.7491V37.7221C44.7701 37.6546 44.7701 37.614 44.7566 37.5465C44.7566 37.5059 44.7566 37.4519 44.716 37.4384C44.7025 37.4384 44.6755 37.4249 44.6485 37.4114C44.5674 37.3843 44.4188 37.2898 44.4323 37.1952C44.4323 37.1682 44.4458 37.1546 44.4593 37.1276C44.4999 37.0871 44.635 37.1006 44.689 37.1276C44.8106 37.1546 44.8647 37.1546 44.9593 37.2627C45.0268 37.3438 45.1484 37.4249 45.2025 37.3438C45.27 37.2762 45.216 37.1817 45.1754 37.1411C45.1349 37.1006 45.0538 37.033 45.0133 36.9655C44.9863 36.8709 45.0133 36.7628 44.9457 36.6817C44.9052 36.6142 44.8241 36.6007 44.7701 36.5601C44.7025 36.4791 44.7296 36.371 44.689 36.2764C44.6755 36.1818 44.5269 36.0872 44.4728 36.1818C44.4458 36.2224 44.4728 36.2899 44.4458 36.344C44.4188 36.398 44.3377 36.371 44.3107 36.344C44.2702 36.3169 44.2432 36.2629 44.2161 36.2224C44.108 36.0467 43.8919 35.9386 43.6892 35.9792C43.6487 35.9792 43.5946 35.9927 43.5676 36.0197C43.4865 36.1008 43.5676 36.2359 43.6622 36.3169C43.7432 36.398 43.8378 36.5331 43.7567 36.6142C43.7297 36.6412 43.6757 36.6547 43.6487 36.6953C43.5676 36.7628 43.5676 36.8979 43.5676 37.006C43.5406 37.033 43.473 37.0195 43.446 37.006C43.419 36.979 43.3784 36.9385 43.3784 36.8979C43.3784 36.8574 43.3784 36.8033 43.3514 36.7763V36.7493C43.3514 36.7493 43.3244 36.7358 43.3109 36.7223C43.1758 36.6817 43.0136 36.6412 42.8785 36.6007C42.7839 36.5737 42.6758 36.5196 42.6353 36.425C42.5948 36.3169 42.6353 36.1818 42.7299 36.1008C42.8245 36.0197 42.9326 35.9792 43.0406 35.9251C43.1487 35.8711 43.2568 35.79 43.2839 35.6819C43.3109 35.5738 43.2433 35.4117 43.1082 35.4117C42.9731 35.4117 42.8245 35.5468 42.7704 35.3441C42.7704 35.3036 42.7569 35.2631 42.7299 35.2225C42.7029 35.182 42.6353 35.155 42.5677 35.182C42.5542 35.182 42.5407 35.182 42.5272 35.1955C42.5002 35.2225 42.5137 35.2766 42.5272 35.3036C42.5407 35.3441 42.5678 35.3847 42.5948 35.4252C42.6623 35.6144 42.3921 35.5603 42.3651 35.4252C42.3516 35.3847 42.2705 35.4252 42.2435 35.4522C42.2165 35.4927 42.1759 35.5603 42.1354 35.5603C42.0949 35.5603 42.0543 35.4792 42.0138 35.4522C41.9462 35.4252 41.8787 35.4792 41.8246 35.5333C41.7706 35.5873 41.6895 35.6414 41.6355 35.5738C41.5949 35.5333 41.649 35.4387 41.7165 35.4117C41.7841 35.3847 41.8517 35.4117 41.9192 35.3982C42.0408 35.3711 42.1084 35.209 42.0813 35.0874C42.0813 35.0739 42.0813 35.0604 42.0678 35.0469C41.1761 35.3711 40.4059 35.9251 39.8047 36.6412C39.8993 36.7088 40.0074 36.7628 40.1019 36.8439C40.1425 36.8844 40.21 36.9249 40.237 36.979C40.2776 37.0871 40.237 37.2087 40.3046 37.3168C40.3451 37.4114 40.4667 37.4519 40.5208 37.533C40.6154 37.6681 40.5613 37.8572 40.6154 38.0194C40.6829 38.2491 40.9126 38.3842 41.0612 38.5598C41.1964 38.722 41.3044 38.8706 41.3315 39.0868V39.1138C41.3315 39.1138 41.345 39.1273 41.3585 39.1408C41.426 39.1678 41.4531 39.2219 41.4936 39.2624C41.5071 39.2894 41.5612 39.384 41.6017 39.3975C41.7098 39.411 41.6017 39.2219 41.6017 39.1948C41.5612 39.1138 41.4801 38.9111 41.5206 38.83C41.6152 38.6949 41.8179 39.0597 41.8314 39.1273C41.8719 39.2489 41.926 39.3975 42.007 39.4921C42.1016 39.6002 42.2367 39.6677 42.3853 39.7083C42.4664 39.7353 42.5475 39.7758 42.615 39.7758C42.6826 39.7758 42.7366 39.7353 42.8042 39.7488C42.8718 39.7488 42.9123 39.8299 42.9798 39.8434C43.0609 39.8704 43.1555 39.8434 43.196 39.9109C43.2366 39.9515 43.2095 40.0325 43.223 40.1001C43.2636 40.3163 43.6554 40.2082 43.7905 40.3974C43.8716 40.519 43.7905 40.6135 43.723 40.7216C43.6554 40.8432 43.6014 41.0054 43.6419 41.1405C43.6419 41.181 43.6689 41.2215 43.6824 41.2621V41.3972C43.6824 41.4647 43.75 41.5188 43.7905 41.5728C43.8986 41.6809 44.0337 41.762 44.1688 41.8701C44.2769 41.9782 44.3715 42.1403 44.331 42.2889C44.331 42.3295 44.304 42.37 44.2904 42.4105C44.2769 42.5456 44.385 42.6537 44.3985 42.8024C44.3985 42.9375 44.304 43.0726 44.2634 43.1942C44.1959 43.3563 44.2364 43.5185 44.2364 43.6941C44.2364 43.8698 44.1553 44.167 44.2094 44.3832C44.2364 44.5859 44.4391 44.802 44.6552 44.775H44.6688C44.6688 44.7075 44.6417 44.6669 44.6012 44.6129C44.5066 44.4507 44.6282 44.3697 44.6958 44.2346C44.7363 44.14 44.7228 44.0454 44.7768 43.9508C44.8174 43.8292 44.9525 43.7617 45.0606 43.6806C45.1822 43.5725 45.2633 43.4374 45.2768 43.2617C45.2768 43.2212 45.2768 43.1537 45.3038 43.0996C45.3443 43.0185 45.4659 43.0185 45.547 42.9915C45.6686 42.951 45.7767 42.8294 45.7902 42.7078C45.7902 42.6402 45.7902 42.5862 45.8172 42.5186C45.8578 42.424 45.9929 42.4105 46.0874 42.3835C46.3577 42.3024 46.5739 42.0052 46.4793 41.762C46.4658 41.7215 46.4387 41.6539 46.4387 41.5999C46.4387 41.4783 46.6279 41.4377 46.7225 41.3702C46.8306 41.2756 46.8035 41.0864 46.7225 40.9783C46.6279 40.8702 46.4793 40.8162 46.3306 40.8027L46.2631 40.7081L46.2361 40.7486H46.2428Z" fill="#E5E5E5"/>
<path d="M47.9938 37.6618C47.9533 37.6888 47.8722 37.7294 47.8722 37.7834C47.8722 37.8375 47.8858 37.9185 47.8452 37.9591C47.8317 37.9591 47.8047 37.9591 47.8047 37.9861C47.8047 38.0131 47.8047 38.0131 47.8317 38.0266C47.9668 38.1212 48.0344 38.2968 48.1154 38.4455C48.1154 38.459 48.129 38.486 48.129 38.513C48.129 38.5941 48.0344 38.6481 48.0614 38.7157C48.0884 38.7427 48.129 38.7157 48.156 38.6887C48.2506 38.5941 48.3992 38.6076 48.5478 38.6481C48.5478 38.6211 48.5613 38.5671 48.5478 38.54C48.5073 38.54 48.4667 38.459 48.4803 38.4049C48.4803 38.3644 48.5073 38.2968 48.4803 38.2428C48.4667 38.2023 48.3992 38.1752 48.3587 38.2023C48.3451 38.2023 48.3316 38.2158 48.3181 38.2158H48.2911C48.21 38.1752 48.156 38.0942 48.129 37.9996V37.9591C48.129 37.9591 48.1965 37.932 48.21 37.9185C48.3316 37.851 48.21 37.7834 48.21 37.7023C48.1965 37.6348 48.21 37.5402 48.1154 37.5672C48.1154 37.6348 48.0749 37.6753 48.0209 37.7294V37.7023L47.9938 37.6618Z" fill="#E5E5E5"/>
<path d="M47.5607 38.2861C47.5607 38.2861 47.5337 38.2726 47.5202 38.2726C47.4931 38.2726 47.4796 38.2996 47.4391 38.2996H47.3986C47.3175 38.2996 47.304 38.4617 47.331 38.5023C47.358 38.5428 47.4121 38.5833 47.4526 38.6104C47.4796 38.6239 47.5202 38.6374 47.5472 38.6374C47.6688 38.6509 47.7363 38.5428 47.7228 38.4347C47.7228 38.4077 47.7228 38.3537 47.7363 38.3401L47.7634 38.3131C47.8039 38.2726 47.8039 38.1104 47.6958 38.151C47.6688 38.1645 47.6553 38.1915 47.6283 38.232C47.6147 38.2591 47.5877 38.2996 47.5472 38.2726L47.5607 38.2861Z" fill="#E5E5E5"/>
<path d="M49.1274 39.9736C49.1274 40.4735 49.0463 40.9734 48.9247 41.4328C48.9247 41.4328 48.8977 41.4193 48.8977 41.4058C48.8572 41.3788 48.8031 41.3382 48.7761 41.2977C48.7491 41.2707 48.7085 41.2301 48.6815 41.2031C48.5464 41.0815 48.2897 41.095 48.1816 40.9329C48.1411 40.8653 48.1411 40.7708 48.1411 40.7032C48.1411 40.487 48.1276 40.2573 48.2492 40.0682C48.3167 39.9736 48.4113 39.8925 48.4383 39.7709V39.5953C48.4518 39.5007 48.5464 39.4602 48.6275 39.4061C48.7491 39.3386 48.9382 39.244 49.1139 39.2305C49.1409 39.4602 49.1544 39.7034 49.1544 39.9466H49.1409L49.1274 39.9736Z" fill="#E5E5E5"/>
<path d="M44.0407 39.4188C44.0001 39.4188 43.9461 39.4188 43.9191 39.3918C43.9191 39.3918 43.9056 39.3648 43.892 39.3513C43.8245 39.2702 43.7029 39.2567 43.6083 39.2702C43.5948 39.2702 43.5678 39.2702 43.5408 39.2972C43.5272 39.3107 43.5408 39.3648 43.5543 39.3783C43.5678 39.3918 43.5948 39.4053 43.6353 39.4053C43.6759 39.4053 43.7029 39.4188 43.7164 39.4458C43.7164 39.4593 43.7164 39.4864 43.7434 39.5269C43.7569 39.5539 43.811 39.5539 43.838 39.5539H43.8515C43.8515 39.5539 43.8515 39.5539 43.8515 39.5404H43.8785C43.9461 39.5404 44.0137 39.5404 44.0812 39.5674C44.1082 39.5674 44.1488 39.5809 44.1758 39.5674C44.2028 39.5404 44.1893 39.4864 44.1623 39.4593C44.1353 39.4458 44.0812 39.4458 44.0407 39.4593V39.4188Z" fill="#E5E5E5"/>
<path d="M42.738 34.9133C42.8326 34.9944 42.8326 35.1835 42.9677 35.1565C43.0082 35.1565 43.0623 35.1295 43.0893 35.1295C43.1974 35.1024 43.319 35.1295 43.4541 35.1295C43.5892 35.1295 43.5216 35.1295 43.5352 35.1565C43.5622 35.1835 43.5757 35.2376 43.5757 35.2781V35.4402C43.5757 35.4402 43.6162 35.4672 43.6568 35.4537C43.6973 35.4537 43.7513 35.4402 43.7919 35.4402C43.8324 35.4402 43.8864 35.4673 43.9 35.5213C43.9 35.5889 43.8594 35.6294 43.8594 35.6969C43.8594 35.7645 43.9 35.778 43.9405 35.805C43.981 35.8185 44.0351 35.8321 44.0621 35.8456C44.1026 35.8726 44.1432 35.9131 44.1702 35.9401C44.2107 35.9672 44.2648 35.9807 44.3053 35.9672C44.3458 35.9537 44.3864 35.8861 44.3729 35.8456C44.3729 35.805 44.3323 35.751 44.2918 35.724C44.2783 35.7105 44.2513 35.6834 44.2648 35.6564C44.3458 35.6429 44.4539 35.6834 44.4945 35.6294C44.5215 35.6024 44.508 35.5348 44.4945 35.5078C44.4809 35.4808 44.4134 35.4672 44.3864 35.4402C44.3593 35.4402 44.3188 35.4402 44.2918 35.4132C44.2107 35.3456 44.2918 35.2105 44.2513 35.143C44.2242 35.1024 44.1297 35.1024 44.0621 35.116C43.9945 35.116 43.927 35.143 43.8729 35.0889C43.8459 35.0619 43.8459 35.0079 43.8054 34.9808C43.7378 34.8998 43.6297 34.9538 43.5352 34.9133C43.4676 34.8998 43.4406 34.8322 43.4136 34.7782C43.4136 34.7511 43.4 34.7106 43.3865 34.6836C43.1028 34.6971 42.8191 34.7512 42.5488 34.8052C42.6164 34.8322 42.6704 34.8728 42.7245 34.9133H42.738Z" fill="#E5E5E5"/>
<path d="M45.2842 35.1044C45.2842 35.1044 45.2437 35.1449 45.2167 35.1854C45.1356 35.253 45.0816 35.3611 45.1086 35.4557C45.1356 35.5232 45.2032 35.5502 45.2437 35.5908C45.3248 35.6583 45.3653 35.7259 45.3788 35.8205C45.3788 35.888 45.3788 35.9826 45.4464 36.0231C45.4599 36.0502 45.4869 36.0637 45.5274 36.0907C45.595 36.1583 45.622 36.2528 45.622 36.3339C45.622 36.415 45.6355 36.442 45.6896 36.442H45.7166C45.7842 36.4285 45.8112 36.3474 45.8247 36.3069C45.8247 36.2393 45.8382 36.1853 45.8652 36.1177C45.9328 36.0096 46.0814 35.9826 46.1625 35.888C46.23 35.807 46.2435 35.6854 46.2976 35.5908C46.3381 35.5232 46.4192 35.4827 46.4597 35.4151V35.3746C46.0679 35.1449 45.649 34.9693 45.2032 34.8477C45.2437 34.9287 45.3113 35.0233 45.2842 35.1179V35.1044Z" fill="#E5E5E5"/>
<path d="M56.6125 42.1265C56.5315 42.1265 56.4099 42.0319 56.3423 42.113C56.2748 42.1806 56.3423 42.2211 56.3828 42.2346H56.518C56.5855 42.2346 56.7206 42.3427 56.7341 42.2346C56.7341 42.14 56.6531 42.14 56.599 42.1265H56.6125ZM56.9301 41.2348C56.822 41.2348 56.7004 41.3699 56.6058 41.4239C56.5652 41.4374 56.4842 41.4645 56.4842 41.532C56.4842 41.5996 56.4842 41.5726 56.4842 41.5726H56.4572C56.4166 41.5726 56.3626 41.6401 56.3761 41.6806C56.3761 41.7212 56.4436 41.7752 56.4842 41.7887C56.5247 41.8022 56.5923 41.8158 56.6463 41.8293C56.6869 41.8293 56.7274 41.8698 56.7679 41.8698C56.8085 41.8698 56.8625 41.8698 56.8895 41.8428C56.9165 41.8158 56.903 41.7482 56.9165 41.7077C56.9165 41.6401 56.9841 41.5861 57.0111 41.5185C57.0381 41.4239 57.0787 41.2078 56.9301 41.2213V41.2348ZM55.8559 41.6942C55.8559 41.6942 55.8289 41.6671 55.8289 41.6536C55.7883 41.5726 55.6938 41.5455 55.5992 41.559C55.5992 41.5996 55.6262 41.6536 55.6803 41.6806C55.7208 41.7077 55.7748 41.7212 55.7883 41.7752C55.7883 41.8022 55.7883 41.8428 55.8154 41.8563C55.8424 41.9239 56.0316 42.0184 56.0856 41.9374C56.1532 41.8293 55.9235 41.7347 55.8694 41.6942H55.8559ZM52.5524 42.694C52.5524 42.6264 52.4443 42.6264 52.3903 42.667C52.3632 42.667 52.3632 42.7075 52.3497 42.748C52.3362 42.8156 52.2822 42.8561 52.2281 42.8696C52.2146 42.8696 52.2011 42.8696 52.1876 42.8832C52.1606 42.8967 52.1606 42.9507 52.1741 42.9912C52.1741 43.0183 52.2011 43.0588 52.2146 43.0993V43.302C52.2146 43.3696 52.2146 43.4101 52.2416 43.4641C52.2416 43.4777 52.2687 43.5047 52.2822 43.5047C52.2957 43.5047 52.3092 43.5047 52.3092 43.4912C52.3767 43.4506 52.4038 43.3696 52.4038 43.2885V43.1804C52.4173 43.0993 52.5119 43.0588 52.5119 42.9777V42.9102C52.5119 42.8291 52.5794 42.7886 52.5794 42.7075H52.5524V42.694ZM53.3968 35.2898C53.3563 35.2898 53.3023 35.2898 53.2617 35.3303C53.1807 35.3709 53.1266 35.4519 53.032 35.4654C52.9645 35.479 52.8969 35.4654 52.8294 35.4925C52.7348 35.5195 52.6672 35.587 52.5997 35.6546C52.5591 35.6816 52.4375 35.7222 52.4105 35.7762C52.3835 35.8303 52.4105 35.9789 52.4105 36.0599C52.4105 36.0599 52.4105 36.087 52.424 36.087C52.4916 36.1275 52.6402 36.1815 52.7213 36.168C52.7888 36.1545 52.8429 36.0599 52.8024 36.0059C52.7753 35.9654 52.6807 35.9383 52.6672 35.8978C52.6672 35.8303 52.7078 35.8032 52.7753 35.7897C52.8429 35.7897 52.8969 35.7762 52.9104 35.7222C52.9104 35.7087 52.9104 35.6951 52.924 35.6816C52.9645 35.587 53.1266 35.6006 53.2212 35.5465C53.2347 35.533 53.2617 35.5195 53.2888 35.506C53.3563 35.479 53.4239 35.479 53.4509 35.4114C53.4509 35.3709 53.4239 35.3168 53.3698 35.3033H53.4104L53.3968 35.2898ZM51.7687 38.8095C51.7417 38.8771 51.6471 38.85 51.5661 38.8906C51.5526 38.8906 51.539 38.9041 51.4985 38.9176C51.4174 38.9446 51.3364 38.9041 51.2688 38.9176C51.2418 38.9176 51.2283 38.9446 51.1877 38.9581C51.1472 38.9851 51.0932 38.9851 51.0526 38.9581H51.0256V38.9176C51.0526 38.8095 51.0661 38.7014 51.1067 38.5933C51.1067 38.5798 51.1067 38.5528 51.1337 38.5258C51.1607 38.4987 51.2148 38.5122 51.2418 38.5258C51.2688 38.5393 51.2823 38.5663 51.3229 38.6068C51.3634 38.6474 51.4174 38.6068 51.4445 38.5663C51.458 38.5393 51.4445 38.4717 51.485 38.4582C51.512 38.4582 51.5526 38.4582 51.5526 38.4852V38.5798C51.5526 38.5798 51.5526 38.6474 51.5796 38.6609C51.6066 38.6879 51.6742 38.6744 51.7012 38.7014C51.7282 38.7149 51.7417 38.7825 51.7282 38.8095H51.7687ZM55.0587 35.3574C54.9642 35.4249 54.8696 35.479 54.7885 35.533C54.5588 35.6681 54.3156 35.8167 54.0724 35.8708C54.0319 35.8708 53.9643 35.8978 53.9103 35.9383C53.8697 35.9654 53.8292 36.0329 53.8697 36.0735C53.8968 36.141 53.9778 36.141 54.0454 36.1545C54.1129 36.1545 54.1805 36.2221 54.167 36.2761C54.167 36.3167 54.1265 36.3437 54.0724 36.3572C53.9643 36.3977 53.8022 36.4247 53.7481 36.3302C53.7481 36.3031 53.7346 36.2626 53.7211 36.2356C53.7211 36.141 53.6536 36.0735 53.7211 35.9924C53.7211 35.9789 53.7346 35.9654 53.7481 35.9519C53.7887 35.7897 53.532 35.8708 53.4644 35.8843C53.3968 35.9113 53.3428 35.9924 53.3698 36.0735C53.3968 36.141 53.4644 36.168 53.5049 36.2086C53.5725 36.3031 53.4374 36.4383 53.3428 36.3977C53.2212 36.3572 53.1672 36.114 53.0456 36.1545C52.951 36.168 52.951 36.3167 52.8699 36.3572C52.7753 36.4383 52.6267 36.3437 52.4916 36.3842C52.4105 36.4112 52.3565 36.4923 52.2619 36.5058C52.1943 36.5058 52.1268 36.4653 52.0727 36.5058C52.0457 36.5328 52.0457 36.5869 52.0052 36.6139C51.9646 36.6409 51.9241 36.6544 51.8836 36.6815C51.8025 36.7085 51.7485 36.776 51.6809 36.8436C51.6134 36.9112 51.5458 36.9652 51.4512 36.9517C51.3566 36.9382 51.3161 36.8166 51.3702 36.749C51.4107 36.7085 51.4918 36.749 51.5593 36.722C51.6674 36.7085 51.735 36.5464 51.6674 36.4383C51.5998 36.3437 51.4647 36.3167 51.3566 36.3572C51.3431 36.3572 51.3161 36.3707 51.2891 36.3842C51.2215 36.3842 51.181 36.3167 51.1269 36.2761C51.0053 36.1545 50.8297 36.114 50.6541 36.114C50.4108 36.114 50.1541 36.2086 50.019 36.4112C49.8974 36.5869 49.8569 36.8436 49.6542 36.9382C49.5867 36.9652 49.5191 36.9787 49.4651 37.0328C49.3705 37.1138 49.3705 37.2354 49.357 37.3435C49.357 37.4381 49.3705 37.5462 49.4651 37.5462C49.5596 37.5462 49.5867 37.4381 49.6677 37.4516C49.7488 37.4516 49.7623 37.5732 49.8028 37.6543C49.8434 37.7218 49.938 37.7353 50.019 37.6948C50.1001 37.6543 50.1406 37.6002 50.1947 37.5327C50.2487 37.4651 50.2892 37.3705 50.2352 37.303C50.2217 37.2625 50.1541 37.2084 50.1676 37.1679C50.1812 37.1273 50.2487 37.1273 50.2892 37.1003C50.3703 37.0733 50.3838 36.9652 50.4108 36.8841C50.4379 36.8031 50.5325 36.722 50.6135 36.776C50.627 36.8841 50.6135 36.9922 50.5325 37.0733C50.4919 37.1408 50.4108 37.2084 50.4514 37.276C50.5325 37.3705 50.6946 37.1544 50.7892 37.2489C50.8297 37.2895 50.7892 37.3705 50.7486 37.4111C50.7081 37.4516 50.627 37.4516 50.5595 37.4786C50.4379 37.5462 50.3838 37.6678 50.2757 37.7624C49.9785 38.0056 49.5326 37.8029 49.1948 37.965C49.1813 37.965 49.1678 37.9786 49.1543 37.9921C49.2759 38.2893 49.357 38.6001 49.4245 38.9108C49.4921 38.8838 49.5326 38.8298 49.5867 38.8162C49.6677 38.7892 49.7218 38.8163 49.7893 38.8433C49.9109 38.9243 50.019 39.073 50.0596 39.2216C50.0596 39.2621 50.1271 39.2351 50.1271 39.2216C50.1271 39.2081 50.1271 39.127 50.1406 39.1135H50.1541C50.1947 39.1135 50.1541 39.0459 50.1541 39.0324C50.0866 38.9919 50.046 38.9108 50.019 38.8433L49.9785 38.7487C49.9785 38.7487 49.992 38.7217 50.0055 38.7217C50.1676 38.7217 50.3973 38.8298 50.3838 39.0189V39.0459H50.3973C50.4379 39.0865 50.4919 39.073 50.5325 39.0865C50.5595 39.0865 50.573 39.1135 50.6135 39.1135H50.6946C50.6946 39.1135 50.7216 39.0189 50.7621 39.0054C50.8027 38.9919 50.8432 39.0189 50.8567 39.073C50.8702 39.1811 50.8567 39.3432 51.0324 39.3432C51.208 39.3432 51.3026 39.1811 51.4107 39.2756C51.5458 39.3972 51.3296 39.5864 51.3161 39.708C51.3161 39.7485 51.2891 39.8161 51.235 39.8161C51.181 39.8161 51.154 39.7891 51.1269 39.8026C51.1269 39.8026 51.1134 39.8161 51.0999 39.8296C51.0729 39.8431 51.0189 39.8161 51.0189 39.762V39.6404C51.0053 39.5999 50.9378 39.5729 50.8973 39.5729H50.7621C50.6811 39.5729 50.6 39.5324 50.546 39.5594C50.5189 39.5594 50.5054 39.5999 50.4784 39.6269C50.3973 39.6945 50.2892 39.6945 50.2082 39.6269C50.1947 39.6134 50.1812 39.5864 50.1406 39.5594C50.0596 39.4918 49.9244 39.5324 49.8704 39.4513L49.8299 39.3567C49.8028 39.3162 49.7488 39.2891 49.7083 39.2756C49.6407 39.2621 49.5867 39.2486 49.5056 39.2351C49.5326 39.4513 49.5461 39.681 49.5461 39.9242C49.5461 40.4376 49.4651 40.9375 49.3435 41.4104C49.411 41.451 49.5056 41.478 49.5731 41.4915C49.6677 41.5185 49.7758 41.5996 49.7623 41.6942C49.7623 41.7212 49.7488 41.7347 49.7488 41.7752C49.7353 41.8833 49.8299 41.9914 49.9109 42.086C49.992 42.1806 50.046 42.3022 50.1001 42.4103C50.1406 42.5319 50.0325 42.6129 50.0325 42.7345C50.0325 42.8561 50.1271 42.9102 50.1947 42.9777C50.2757 43.0723 50.2892 43.1669 50.2757 43.2885C50.2757 43.3696 50.2487 43.4641 50.2757 43.5317C50.3028 43.5993 50.3838 43.6533 50.3973 43.7344C50.4244 43.8289 50.3973 43.9505 50.4649 44.0316C50.4919 44.0721 50.546 44.0992 50.5865 44.1127C50.6676 44.1262 50.7486 44.1397 50.8027 44.1127C50.8432 44.0992 50.8837 44.0451 50.9243 44.0181C51.0189 43.9505 51.1405 43.937 51.2215 43.883C51.3296 43.7884 51.3566 43.6533 51.4377 43.5452C51.5188 43.4236 51.6269 43.3696 51.5998 43.2209C51.5998 43.2074 51.5998 43.1939 51.5863 43.1804C51.5863 43.1804 51.5593 43.1804 51.5593 43.1534C51.5188 43.1264 51.5458 43.0588 51.5728 43.0318C51.6134 43.0048 51.6674 43.0048 51.7079 42.9642C51.789 42.9237 51.8295 42.8426 51.8701 42.7616C51.9106 42.6535 51.9647 42.5454 51.9106 42.4373C51.8836 42.3562 51.816 42.3022 51.8025 42.2211C51.8025 42.14 51.8701 42.059 51.8836 41.9779V41.8698C51.8836 41.7482 52.0457 41.6942 52.1538 41.6536C52.397 41.5185 52.5186 41.2483 52.5321 40.9781C52.4916 40.951 52.424 40.9781 52.37 41.0051C52.3159 41.0321 52.2889 41.0861 52.2484 41.0997C52.1403 41.1267 52.0322 41.0321 51.9646 40.924C51.762 40.6403 51.5998 40.343 51.4512 40.0323C51.4377 39.9917 51.4107 39.9242 51.4512 39.8972C51.4918 39.8566 51.5728 39.9107 51.6134 39.9782C51.789 40.2484 51.9376 40.4917 52.1133 40.7619C52.1403 40.7889 52.1808 40.8429 52.2079 40.8429H52.2754C52.5186 40.7349 52.7618 40.5997 52.978 40.4376C53.1942 40.2755 53.1131 40.262 52.978 40.2079C52.951 40.2079 52.9375 40.1944 52.8969 40.1809C52.8159 40.1674 52.7348 40.1809 52.6672 40.1404C52.6267 40.1268 52.5862 40.0998 52.5591 40.0593C52.4646 39.9647 52.37 39.8701 52.2754 39.7756C52.2619 39.762 52.2349 39.708 52.2484 39.6945C52.2484 39.681 52.2754 39.6675 52.3159 39.6675C52.3565 39.6675 52.3565 39.6675 52.3835 39.6945C52.5591 39.7891 52.7618 39.9377 52.951 39.9647C53.0591 39.9647 53.1536 39.9377 53.2617 39.9242C53.3563 39.9242 53.4374 39.9242 53.5049 39.9647C53.586 40.0323 53.5455 40.0728 53.5995 40.1539C53.6265 40.2214 53.7346 40.2214 53.8022 40.262C53.8427 40.289 53.8833 40.3565 53.9103 40.3971C53.9778 40.5592 54.0454 40.7078 54.1129 40.87C54.14 40.951 54.194 41.0321 54.221 41.0997C54.221 41.1132 54.2345 41.1402 54.2616 41.1402C54.2886 41.1402 54.3291 41.1267 54.3562 41.0997C54.4507 40.9781 54.5183 40.8294 54.5588 40.6943C54.5723 40.6538 54.5858 40.5862 54.6399 40.5322C54.6669 40.5052 54.721 40.5052 54.748 40.4646C54.8155 40.4376 54.8561 40.3701 54.8831 40.3025C54.9101 40.262 54.9506 40.1944 54.9912 40.1674C55.0317 40.1404 55.0993 40.0998 55.1668 40.1404C55.2749 40.1809 55.2614 40.343 55.329 40.4376C55.41 40.5457 55.5587 40.5727 55.6127 40.7078C55.6397 40.8024 55.5992 40.897 55.6127 40.9916C55.6127 41.0321 55.6397 41.0726 55.6803 41.0997C55.7748 41.2348 55.8964 41.3429 55.991 41.4915C56.0856 41.6401 56.1126 41.3969 56.0586 41.3158C56.018 41.2483 55.937 41.2078 55.8829 41.1402C55.8154 41.0726 55.7748 41.0051 55.7478 40.9105V40.8294C55.7748 40.7619 55.8559 40.7889 55.91 40.7889C56.0045 40.8024 56.0721 40.8565 56.1532 40.8024C56.2342 40.7754 56.2883 40.6943 56.3153 40.5997C56.3153 40.5727 56.3153 40.5187 56.3018 40.4917C56.2748 40.4241 56.1937 40.3971 56.1802 40.3295C56.1667 40.262 56.2072 40.2079 56.2477 40.1539C56.2748 40.1133 56.3288 40.0593 56.3828 40.0458H56.5044C56.6936 40.0728 56.8828 39.9782 57.0179 39.8566C57.0584 39.8296 57.0989 39.7891 57.1125 39.7485V39.2351C57.1125 39.2351 57.0719 39.1946 57.0314 39.154C56.9638 39.0865 56.9233 38.9919 56.9233 38.9243V38.8838C56.9233 38.8838 57.0044 38.8703 57.0449 38.8703C57.0854 38.8703 57.153 38.8027 57.207 38.8027C57.3151 38.8027 57.3692 38.9379 57.4502 38.9919C57.4908 39.0189 57.5583 39.0189 57.6259 39.0324C57.6394 39.0324 57.6664 39.0324 57.6934 39.0459C57.4502 37.4246 56.4639 36.0667 55.079 35.2695V35.3776L55.052 35.3506L55.0587 35.3574Z" fill="#E5E5E5"/>
<path d="M69.3959 56.5434C67.3084 54.9086 59.5529 51.7537 57.891 51.524C56.4588 51.2808 53.9119 51.3078 53.2363 51.524C53.8038 52.5238 60.7081 56.5434 60.7081 56.5434H69.3959Z" fill="#BB242E"/>
<path d="M43.609 50.1127L46.4666 53.7675C46.899 54.3349 47.6016 54.6457 48.3244 54.5646C50.9929 54.2944 57.7351 53.6459 62.0114 53.4702C67.4429 53.254 74.685 53.0649 77.1441 54.362C79.0154 55.3483 80.5962 56.6791 81.3934 57.6384C81.7582 58.0573 81.6771 58.7194 81.2312 59.0436C79.3599 60.4353 75.5159 61.2933 66.8552 61.3068C56.9717 61.3338 45.4938 58.7599 44.3859 58.4221C43.278 58.0978 42.8321 57.5439 42.447 56.0914C42.0619 54.6389 40.9473 49.4844 40.9473 49.4844H42.3795C42.8659 49.4844 43.3117 49.7006 43.609 50.0789V50.1059V50.1127Z" fill="#F8F8F8" stroke="#303030" stroke-width="0.20267" stroke-linecap="round" stroke-linejoin="round"/>
<path d="M47.5337 56.0166C47.5337 56.0166 44.8112 57.2326 41.7103 57.7933C41.0753 57.9014 40.4268 57.9689 39.785 57.9689H38.8392C38.623 57.9689 38.5554 57.6717 38.7581 57.5906C40.5213 56.888 42.0076 56.1314 43.129 55.2734L47.527 56.003V56.0166H47.5337Z" fill="#BB242E"/>
<path d="M62.6386 62.9612L65.5638 63.326C65.1854 62.1641 65.1584 60.9143 65.5638 59.6172L62.6386 59.982C61.8954 60.0766 61.3145 60.7116 61.3145 61.4817C61.3145 62.2384 61.8819 62.8869 62.6386 62.9815V62.9545V62.9612Z" fill="#00826F" stroke="#303030" stroke-width="0.20267" stroke-linecap="round" stroke-linejoin="round"/>
<path d="M65.5367 63.3143C64.699 62.1523 64.6314 60.9026 65.5367 59.6055C65.942 60.835 65.942 62.0848 65.5367 63.3143Z" fill="#303030" stroke="#303030" stroke-width="0.20267" stroke-linecap="round" stroke-linejoin="round"/>
<path d="M65.5384 59.6044L62.6132 59.9692C61.8701 60.0638 61.2891 60.6988 61.2891 61.469C61.2891 61.9554 61.5188 62.3877 61.8971 62.6715C63.2212 62.0905 64.5385 61.5095 65.8086 60.9083C65.7681 60.4759 65.6735 60.03 65.5249 59.6112L65.5384 59.5977V59.6044Z" fill="#303030" stroke="#303030" stroke-width="0.20267" stroke-linecap="round" stroke-linejoin="round"/>
<path d="M68.1927 58.8086C66.1052 60.4435 58.3497 63.5984 56.6879 63.828C55.2557 64.0712 52.7088 64.0442 52.0332 63.828C52.6007 62.8282 59.505 58.8086 59.505 58.8086H68.1927Z" fill="#BB242E"/>
<path d="M52.7553 57.4481C53.1434 57.4481 53.4579 57.1336 53.4579 56.7456C53.4579 56.3575 53.1434 56.043 52.7553 56.043C52.3673 56.043 52.0527 56.3575 52.0527 56.7456C52.0527 57.1336 52.3673 57.4481 52.7553 57.4481Z" fill="#406F44"/>
<path d="M55.8159 57.4481C56.2039 57.4481 56.5185 57.1336 56.5185 56.7456C56.5185 56.3575 56.2039 56.043 55.8159 56.043C55.4278 56.043 55.1133 56.3575 55.1133 56.7456C55.1133 57.1336 55.4278 57.4481 55.8159 57.4481Z" fill="#406F44"/>
<path d="M58.8764 57.4481C59.2644 57.4481 59.579 57.1336 59.579 56.7456C59.579 56.3575 59.2644 56.043 58.8764 56.043C58.4884 56.043 58.1738 56.3575 58.1738 56.7456C58.1738 57.1336 58.4884 57.4481 58.8764 57.4481Z" fill="#406F44"/>
<path d="M61.937 57.4481C62.325 57.4481 62.6395 57.1336 62.6395 56.7456C62.6395 56.3575 62.325 56.043 61.937 56.043C61.5489 56.043 61.2344 56.3575 61.2344 56.7456C61.2344 57.1336 61.5489 57.4481 61.937 57.4481Z" fill="#406F44"/>
<path d="M64.9975 57.4481C65.3855 57.4481 65.7001 57.1336 65.7001 56.7456C65.7001 56.3575 65.3855 56.043 64.9975 56.043C64.6095 56.043 64.2949 56.3575 64.2949 56.7456C64.2949 57.1336 64.6095 57.4481 64.9975 57.4481Z" fill="#406F44"/>
<path d="M68.0307 57.4481C68.4187 57.4481 68.7333 57.1336 68.7333 56.7456C68.7333 56.3575 68.4187 56.043 68.0307 56.043C67.6427 56.043 67.3281 56.3575 67.3281 56.7456C67.3281 57.1336 67.6427 57.4481 68.0307 57.4481Z" fill="#406F44"/>
<path d="M71.8075 56.7456C71.8075 57.1374 71.4968 57.4481 71.1049 57.4481C70.7131 57.4481 70.4023 57.1374 70.4023 56.7456C70.4023 56.3537 70.7131 56.043 71.1049 56.043C71.4968 56.043 71.8075 56.3537 71.8075 56.7456Z" fill="#406F44"/>
<path d="M79.5356 55.9074C78.9951 55.4886 78.3871 55.0832 77.7318 54.6914C76.4077 55.2724 74.8066 55.421 74.8066 55.421L74.9688 57.2923C74.9688 57.2923 77.921 57.2653 79.5288 55.8872V55.9142L79.5356 55.9074Z" fill="#939393" stroke="#303030" stroke-width="0.20267" stroke-linecap="round" stroke-linejoin="round"/>
<path d="M75.5703 56.207L76.4621 56.5989" stroke="#F8F8F8" stroke-width="0.20267" stroke-linecap="round" stroke-linejoin="round"/>
<path d="M76.0957 55.8281L77.2171 56.3416" stroke="#F8F8F8" stroke-width="0.20267" stroke-linecap="round" stroke-linejoin="round"/>
<path d="M40.6432 54.2293C35.5832 52.9187 30.4354 52.9187 25.7537 50.2637C23.8824 49.0207 22.4772 47.4466 21.3828 45.582" stroke="#303030" stroke-width="0.20267" stroke-linecap="round" stroke-linejoin="round"/>
<path d="M40.1153 51.9039C38.2845 51.5121 36.4605 51.1202 34.6432 50.7419C31.9883 50.1744 29.2252 49.8096 26.9012 48.3166C24.0301 46.4858 22.2196 43.2837 22.125 39.9531" stroke="#303030" stroke-width="0.20267" stroke-linecap="round" stroke-linejoin="round"/>
<path d="M39.603 49.6001C38.387 49.3299 37.1642 49.0867 35.9482 48.8164C33.7256 48.3436 31.3341 48.0868 29.2466 47.1681C25.7945 45.6278 23.6529 41.973 24.4433 38.1898C24.8757 36.1023 26.3011 34.1837 28.3954 33.5352" stroke="#303030" stroke-width="0.20267" stroke-linecap="round" stroke-linejoin="round"/>
<path d="M31.6486 84H30.4486V75.996H33.8206C35.4646 75.996 36.3766 77.124 36.3766 78.456C36.3766 79.788 35.4526 80.916 33.8206 80.916H31.6486V84ZM35.1406 78.456C35.1406 77.616 34.5286 77.052 33.6646 77.052H31.6486V79.86H33.6646C34.5286 79.86 35.1406 79.296 35.1406 78.456ZM42.0064 84H40.9264V83.364C40.4704 83.868 39.8104 84.144 39.0304 84.144C38.0704 84.144 37.0144 83.496 37.0144 82.224C37.0144 80.904 38.0584 80.328 39.0304 80.328C39.8104 80.328 40.4824 80.58 40.9264 81.096V80.136C40.9264 79.416 40.3384 78.984 39.5104 78.984C38.8504 78.984 38.2864 79.236 37.7704 79.752L37.3024 79.008C37.9504 78.372 38.7424 78.06 39.6784 78.06C40.9384 78.06 42.0064 78.612 42.0064 80.088V84ZM40.9264 82.728V81.744C40.6024 81.312 40.0384 81.084 39.4384 81.084C38.6584 81.084 38.1064 81.552 38.1064 82.236C38.1064 82.92 38.6584 83.388 39.4384 83.388C40.0384 83.388 40.6024 83.16 40.9264 82.728ZM43.3771 81.096C43.3771 79.356 44.5771 78.06 46.3291 78.06C47.4211 78.06 48.0811 78.516 48.5011 79.08L47.7811 79.74C47.4331 79.248 46.9651 79.02 46.3771 79.02C45.2371 79.02 44.5051 79.896 44.5051 81.096C44.5051 82.296 45.2371 83.184 46.3771 83.184C46.9651 83.184 47.4331 82.944 47.7811 82.464L48.5011 83.124C48.0811 83.688 47.4211 84.144 46.3291 84.144C44.5771 84.144 43.3771 82.836 43.3771 81.096ZM54.9463 84H53.5783L51.6463 81.504L50.7703 82.392V84H49.6903V75.996H50.7703V81.144L53.5663 78.204H54.9223L52.4263 80.832L54.9463 84ZM60.5806 84H59.5006V83.364C59.0446 83.868 58.3846 84.144 57.6046 84.144C56.6446 84.144 55.5886 83.496 55.5886 82.224C55.5886 80.904 56.6326 80.328 57.6046 80.328C58.3846 80.328 59.0566 80.58 59.5006 81.096V80.136C59.5006 79.416 58.9126 78.984 58.0846 78.984C57.4246 78.984 56.8606 79.236 56.3446 79.752L55.8766 79.008C56.5246 78.372 57.3166 78.06 58.2526 78.06C59.5126 78.06 60.5806 78.612 60.5806 80.088V84ZM59.5006 82.728V81.744C59.1766 81.312 58.6126 81.084 58.0126 81.084C57.2326 81.084 56.6806 81.552 56.6806 82.236C56.6806 82.92 57.2326 83.388 58.0126 83.388C58.6126 83.388 59.1766 83.16 59.5006 82.728ZM62.2633 85.488L62.7793 84.696C63.2593 85.248 63.8473 85.464 64.6393 85.464C65.5393 85.464 66.4393 85.032 66.4393 83.808V83.052C65.9953 83.628 65.3113 84.048 64.5313 84.048C63.0313 84.048 61.9513 82.944 61.9513 81.048C61.9513 79.188 63.0313 78.06 64.5313 78.06C65.2873 78.06 65.9713 78.42 66.4393 79.044V78.204H67.5194V83.772C67.5194 85.764 66.0673 86.352 64.6393 86.352C63.6673 86.352 62.9593 86.148 62.2633 85.488ZM66.4393 82.224V79.872C66.1393 79.404 65.4793 79.02 64.8313 79.02C63.7513 79.02 63.0793 79.86 63.0793 81.048C63.0793 82.248 63.7513 83.088 64.8313 83.088C65.4793 83.088 66.1393 82.692 66.4393 82.224ZM68.8771 81.096C68.8771 79.416 70.0891 78.06 71.7811 78.06C73.5211 78.06 74.6011 79.416 74.6011 81.192V81.456H70.0171C70.1011 82.44 70.8211 83.256 71.9851 83.256C72.5971 83.256 73.2691 83.016 73.7011 82.572L74.2051 83.28C73.6291 83.844 72.8131 84.144 71.8771 84.144C70.1491 84.144 68.8771 82.92 68.8771 81.096ZM71.7811 78.948C70.6171 78.948 70.0651 79.884 70.0051 80.676H73.5451C73.5211 79.908 73.0051 78.948 71.7811 78.948ZM75.448 83.244L75.964 82.452C76.36 82.884 77.128 83.28 77.908 83.28C78.724 83.28 79.156 82.944 79.156 82.452C79.156 81.876 78.496 81.684 77.752 81.516C76.768 81.288 75.616 81.024 75.616 79.776C75.616 78.852 76.408 78.06 77.824 78.06C78.82 78.06 79.54 78.42 80.032 78.888L79.552 79.644C79.216 79.236 78.568 78.936 77.836 78.936C77.104 78.936 76.648 79.224 76.648 79.692C76.648 80.196 77.272 80.364 77.992 80.532C79 80.76 80.2 81.036 80.2 82.368C80.2 83.364 79.384 84.144 77.86 84.144C76.888 84.144 76.036 83.844 75.448 83.244Z" fill="#282828"/>
</svg>
