<svg width="45" height="45" viewBox="0 0 45 45" fill="none" xmlns="http://www.w3.org/2000/svg">
<path d="M31.8554 29.5948L30.3222 30.3949C30.296 30.1529 30.2216 29.9155 30.0955 29.6939C29.5893 28.8461 28.5164 28.5573 27.6687 29.0265L26.9808 29.3799C26.9518 29.1621 26.8812 28.9481 26.7672 28.7481C26.2825 27.9378 25.2559 27.6611 24.444 28.1097L22.8477 28.9294C22.8187 28.7115 22.7481 28.4976 22.6341 28.2976C22.1504 27.4872 21.1227 27.2106 20.311 27.6592L18.0084 28.8415C14.8394 27.5002 12.7907 28.6723 10.4722 30.0071C9.6713 30.4679 8.83985 30.9398 7.89872 31.3633L7.0874 29.9576C6.92946 29.6847 6.5808 29.5912 6.30798 29.7482L2.24313 32.0952C2.11182 32.1708 2.01593 32.2951 1.97726 32.4419C1.93797 32.5876 1.95854 32.7438 2.03377 32.8747L7.73946 42.7568C7.84502 42.9401 8.03671 43.0428 8.23393 43.0428C8.33105 43.0428 8.42879 43.0176 8.51896 42.9663L12.5838 40.6193C12.7146 40.5436 12.8104 40.4183 12.8497 40.2726C12.8889 40.1268 12.8684 39.9706 12.7927 39.8398L12.0412 38.5379C12.9287 38.1332 13.9198 37.9256 15.0667 37.9351C16.4926 37.9453 17.9946 38.2622 19.4466 38.5687C19.7041 38.623 19.9607 38.6771 20.2162 38.7295C20.7444 38.8697 21.2823 38.9389 21.8079 38.9389C22.7973 38.9389 23.7432 38.695 24.4975 38.2266L33.7067 32.8822C34.1455 32.6354 34.4623 32.2308 34.5979 31.7418C34.733 31.253 34.6708 30.7437 34.4157 30.295C33.8828 29.4032 32.7523 29.0994 31.8554 29.5948ZM28.2056 30.0332C28.5271 29.8547 28.9272 29.963 29.1099 30.2677C29.195 30.4183 29.216 30.594 29.1693 30.7622C29.1231 30.9304 29.0141 31.0707 28.8641 31.1548L25.2932 33.0176C25.1675 32.5801 24.8978 32.1847 24.5333 31.9193L28.2056 30.0332ZM24.9811 29.1162C25.2614 28.9611 25.6232 29.0583 25.7816 29.3228C25.8568 29.4555 25.8755 29.6107 25.8339 29.7603C25.7928 29.9089 25.697 30.0323 25.5647 30.107L23.2066 31.3173C23.1861 31.3089 23.1669 31.3005 23.1459 31.2921C22.75 31.1314 22.2827 30.9417 21.813 30.7435L24.9811 29.1162ZM20.8475 28.6658C21.1325 28.5077 21.4872 28.6031 21.6484 28.8732C21.7236 29.005 21.7424 29.1601 21.7008 29.3097C21.6597 29.4583 21.5639 29.5808 21.4316 29.6565L20.4774 30.1463C20.1325 29.9798 19.8286 29.821 19.6203 29.6827C19.4987 29.6079 19.3838 29.5472 19.2661 29.478L20.8475 28.6658ZM8.44223 41.6921L3.30766 32.7979L6.3841 31.022L11.5191 39.9163L8.44223 41.6921ZM33.4982 31.4361C33.4445 31.6296 33.3197 31.7895 33.1407 31.8904L23.9099 37.2478C22.5603 38.0862 20.9559 37.746 20.4961 37.6227C20.4848 37.6199 20.4731 37.6171 20.4619 37.6143C20.2031 37.561 19.9427 37.5067 19.6819 37.4516C18.1744 37.1338 16.6153 36.8048 15.075 36.7936C13.7197 36.7777 12.529 37.0272 11.4625 37.5357L8.47212 32.3558C9.4288 31.9175 10.2802 31.4343 11.0415 30.9958C13.7043 29.4621 15.4635 28.4488 19.0053 30.6435C19.7848 31.1584 21.4793 31.8473 22.7164 32.3493C23.0828 32.4978 23.407 32.6305 23.6515 32.7343C23.6655 32.7408 23.679 32.7465 23.6932 32.7511C24.0698 32.8782 24.3221 33.3876 24.203 33.7784C24.2025 33.7802 24.203 33.782 24.2021 33.7839C24.2021 33.7849 24.2011 33.7857 24.2006 33.7867C24.1399 33.997 23.9605 34.2017 23.7314 34.3223C23.5315 34.4269 23.3168 34.4541 23.1318 34.3933L17.9225 32.7792C17.622 32.6858 17.3018 32.8549 17.2089 33.1558C17.1155 33.4569 17.2841 33.7755 17.5851 33.8699L22.7827 35.4795C22.9622 35.5393 23.1486 35.5692 23.3379 35.5692C23.6477 35.5692 23.9636 35.4889 24.2623 35.3328C24.6843 35.1112 25.0068 34.7618 25.1923 34.3579L32.3952 30.6006C32.7569 30.4006 33.2239 30.5258 33.4295 30.8698C33.5271 31.0417 33.5519 31.2435 33.4982 31.4361Z" fill="#2180EC"/>
<path d="M17.0687 24.8094C18.5693 26.2283 20.5405 26.9377 22.5117 26.9377C24.4834 26.9377 26.4545 26.2283 27.9552 24.8094C30.8087 22.112 30.7259 17.7593 27.7589 14.4608L26.4327 12.9868C27.6931 12.8812 28.3585 11.8671 28.3585 10.852C28.3585 9.78178 27.6258 8.69765 26.2247 8.69765H26.0013C26.2402 8.24062 26.506 7.77603 26.7701 7.32084C27.5038 6.0553 27.9533 5.24776 27.9533 4.62242C27.9533 3.15315 26.7575 1.95679 25.2882 1.95679C24.7835 1.95679 24.296 2.09882 23.8755 2.3624C23.0623 1.83523 21.9379 1.83523 21.1248 2.3624C20.7046 2.09882 20.2168 1.95679 19.712 1.95679C18.2427 1.95679 17.0469 3.15315 17.0469 4.62242C17.0469 5.24776 17.4965 6.0553 18.2302 7.32084C18.4942 7.7769 18.7601 8.24053 18.9989 8.69765H18.7746C18.1319 8.69765 17.5638 8.94251 17.1739 9.38645C16.8305 9.77809 16.6416 10.2987 16.6416 10.852C16.6416 11.8727 17.3145 12.8942 18.5895 12.9886L17.2739 14.4514C14.2764 17.6331 14.1881 22.0859 17.0687 24.8094ZM19.2169 6.74902C18.7585 5.95827 18.1879 4.97319 18.1879 4.62269C18.1879 3.78245 18.8716 3.09919 19.7118 3.09919C20.096 3.09919 20.4629 3.24219 20.7452 3.50296C20.9675 3.70854 21.3125 3.70388 21.5298 3.49268C22.0527 2.9852 22.9477 2.9852 23.4701 3.49268C23.688 3.70388 24.0323 3.70862 24.2548 3.50296C24.5371 3.24219 24.904 3.09919 25.2881 3.09919C26.1284 3.09919 26.8116 3.78245 26.8116 4.62269C26.8116 4.97319 26.2415 5.95739 25.7831 6.74902C25.4283 7.3603 25.0395 8.03882 24.7273 8.69782H20.2731C19.9605 8.03882 19.5717 7.3603 19.2169 6.74902ZM17.7827 10.8522C17.7827 10.3849 18.0425 9.83899 18.7744 9.83899H26.2246C26.9574 9.83899 27.2173 10.3848 27.2173 10.8522C27.2173 11.3195 26.9574 11.8663 26.2246 11.8663H18.7744C18.0425 11.8663 17.7827 11.3195 17.7827 10.8522ZM20.1077 13.0075H24.916L26.9102 15.2245C29.0851 17.6415 29.873 21.426 27.1714 23.9804C24.6024 26.4087 20.4217 26.4096 17.8529 23.9804C15.4438 21.7026 15.5521 17.9425 18.1136 15.2245L20.1077 13.0075Z" fill="#2180EC"/>
<path d="M22.5 21.8803C21.6953 21.8803 21.0153 21.4428 21.0153 20.926C21.0153 20.6101 20.7596 20.3549 20.4442 20.3549C20.1292 20.3549 19.8736 20.6101 19.8736 20.926C19.8736 21.9252 20.7549 22.7617 21.9294 22.9701V23.6917C21.9294 24.0067 22.185 24.2628 22.5 24.2628C22.815 24.2628 23.0706 24.0067 23.0706 23.6917V22.972C24.259 22.7683 25.1259 21.9439 25.1259 20.9261C25.1259 19.283 23.6052 19.0156 22.5986 18.839C21.3718 18.623 21.0153 18.4707 21.0153 17.8762C21.0153 17.3585 21.6952 16.922 22.5 16.922C23.3048 16.922 23.9847 17.3585 23.9847 17.8762C23.9847 18.1912 24.2403 18.4464 24.5553 18.4464C24.8708 18.4464 25.1259 18.1912 25.1259 17.8762C25.1259 16.8584 24.259 16.034 23.0706 15.8312V15.1097C23.0706 14.7947 22.815 14.5386 22.5 14.5386C22.185 14.5386 21.9294 14.7947 21.9294 15.1097V15.8312C20.741 16.034 19.8736 16.8584 19.8736 17.8762C19.8736 19.5185 21.3948 19.7857 22.4014 19.9634C23.6282 20.1783 23.9847 20.3316 23.9847 20.9261C23.9847 21.4429 23.3047 21.8803 22.5 21.8803Z" fill="#2180EC"/>
<path d="M7.82305 13.6889C11.0574 13.6889 13.689 11.0569 13.689 7.82294C13.689 4.589 11.0574 1.95703 7.82305 1.95703C4.58859 1.95703 1.95758 4.589 1.95758 7.82294C1.95758 11.0569 4.58859 13.6889 7.82305 13.6889ZM7.82305 3.0982C10.4284 3.0982 12.5477 5.21804 12.5477 7.82294C12.5477 10.4278 10.4284 12.5467 7.82305 12.5467C5.21806 12.5467 3.09875 10.4278 3.09875 7.82294C3.09875 5.21813 5.21806 3.0982 7.82305 3.0982Z" fill="#2180EC"/>
<path d="M7.82305 10.0278C7.05709 10.0278 6.52341 9.597 6.52341 9.21099C6.52341 8.89607 6.26774 8.63987 5.95283 8.63987C5.6373 8.63987 5.38171 8.89599 5.38171 9.21099C5.38171 10.1494 6.16869 10.9102 7.25238 11.1121V11.728C7.25238 12.0429 7.50805 12.2981 7.82305 12.2981C8.13796 12.2981 8.39364 12.043 8.39364 11.728V11.1121C9.47733 10.9102 10.2643 10.1494 10.2643 9.21099C10.2643 7.67255 8.85436 7.42487 7.92158 7.26131C6.77153 7.05846 6.52341 6.91177 6.52341 6.43505C6.52341 6.04903 7.05709 5.61819 7.82305 5.61819C8.58902 5.61819 9.12269 6.04903 9.12269 6.43505C9.12269 6.75005 9.37828 7.00616 9.69328 7.00616C10.0087 7.00616 10.2643 6.75005 10.2643 6.43505C10.2643 5.49567 9.47733 4.73586 8.39364 4.53397V3.91804C8.39364 3.60304 8.13796 3.34692 7.82305 3.34692C7.50805 3.34692 7.25238 3.60304 7.25238 3.91804V4.53397C6.16869 4.73586 5.38171 5.49576 5.38171 6.43505C5.38171 7.97349 6.79166 8.22116 7.72391 8.38481C8.87449 8.58767 9.12269 8.73339 9.12269 9.21099C9.12269 9.59691 8.58902 10.0278 7.82305 10.0278Z" fill="#2180EC"/>
<path d="M37.1769 1.95703C33.9426 1.95703 31.3116 4.589 31.3116 7.82294C31.3116 11.0569 33.9426 13.6889 37.1769 13.6889C40.4114 13.6889 43.0424 11.0569 43.0424 7.82294C43.0424 4.589 40.4114 1.95703 37.1769 1.95703ZM37.1769 12.5467C34.572 12.5467 32.4527 10.4278 32.4527 7.82294C32.4527 5.21804 34.572 3.0982 37.1769 3.0982C39.7819 3.0982 41.9012 5.21804 41.9012 7.82294C41.9012 10.4278 39.7819 12.5467 37.1769 12.5467Z" fill="#2180EC"/>
<path d="M37.1769 5.61795C37.9429 5.61795 38.4765 6.04879 38.4765 6.4348C38.4765 6.7498 38.7321 7.00592 39.0471 7.00592C39.3621 7.00592 39.6177 6.7498 39.6177 6.4348C39.6177 5.49543 38.8307 4.73561 37.7475 4.53373V3.91779C37.7475 3.60279 37.4919 3.34668 37.1769 3.34668C36.8615 3.34668 36.6063 3.60279 36.6063 3.91779V4.53373C35.5226 4.73561 34.7357 5.49552 34.7357 6.4348C34.7357 7.97324 36.1451 8.22092 37.0779 8.38457C38.2284 8.58742 38.4765 8.73314 38.4765 9.21074C38.4765 9.59676 37.9429 10.0276 37.1769 10.0276C36.4109 10.0276 35.8768 9.59676 35.8768 9.21074C35.8768 8.89583 35.6217 8.63963 35.3062 8.63963C34.9912 8.63963 34.7357 8.89574 34.7357 9.21074C34.7357 10.1492 35.5226 10.9099 36.6063 11.1118V11.7278C36.6063 12.0427 36.8615 12.2979 37.1769 12.2979C37.4919 12.2979 37.7475 12.0428 37.7475 11.7278V11.1118C38.8307 10.9099 39.6177 10.1492 39.6177 9.21074C39.6177 7.6723 38.2083 7.42463 37.2755 7.26106C36.1255 7.05821 35.8768 6.91152 35.8768 6.4348C35.8768 6.04879 36.4109 5.61795 37.1769 5.61795Z" fill="#2180EC"/>
<path d="M5.90836 18.2125V23.613C5.90836 23.9279 6.16394 24.184 6.47894 24.184C6.79394 24.184 7.04953 23.9279 7.04953 23.613V18.2125C7.04953 17.8975 6.79394 17.6423 6.47894 17.6423C6.16394 17.6423 5.90836 17.8975 5.90836 18.2125Z" fill="#2180EC"/>
<path d="M8.5965 15.92V18.6203C8.5965 18.9352 8.85208 19.1914 9.16708 19.1914C9.48208 19.1914 9.73767 18.9353 9.73767 18.6203V15.92C9.73767 15.6051 9.48208 15.3499 9.16708 15.3499C8.85208 15.3499 8.5965 15.605 8.5965 15.92Z" fill="#2180EC"/>
<path d="M38.5211 17.6423C38.2055 17.6423 37.9504 17.8975 37.9504 18.2125V23.613C37.9504 23.9279 38.2055 24.184 38.5211 24.184C38.836 24.184 39.0916 23.9279 39.0916 23.613V18.2125C39.0916 17.8975 38.836 17.6423 38.5211 17.6423Z" fill="#2180EC"/>
<path d="M35.8329 15.3499C35.5175 15.3499 35.2623 15.605 35.2623 15.92V18.6203C35.2623 18.9352 35.5175 19.1914 35.8329 19.1914C36.1479 19.1914 36.4035 18.9353 36.4035 18.6203V15.92C36.4035 15.605 36.1479 15.3499 35.8329 15.3499Z" fill="#2180EC"/>
</svg>
