<svg width="45" height="45" viewBox="0 0 45 45" fill="none" xmlns="http://www.w3.org/2000/svg">
<g clip-path="url(#clip0_236_25078)">
<path d="M38.4375 18.75V20.625C40.0312 20.625 41.25 21.8438 41.25 23.4375V40.3125C41.25 41.9062 40.0312 43.125 38.4375 43.125C36.8438 43.125 35.625 41.9062 35.625 40.3125V4.6875C35.625 2.0625 33.5625 0 30.9375 0H6.5625C3.9375 0 1.875 2.0625 1.875 4.6875V40.3125C1.875 42.9375 3.9375 45 6.5625 45H38.4375C41.0625 45 43.125 42.9375 43.125 40.3125V23.4375C43.125 20.8125 41.0625 18.75 38.4375 18.75ZM3.75 40.3125V4.6875C3.75 3.09375 4.96875 1.875 6.5625 1.875H30.9375C32.5312 1.875 33.75 3.09375 33.75 4.6875V40.3125C33.75 41.3438 34.125 42.375 34.6875 43.125H6.5625C4.96875 43.125 3.75 41.9062 3.75 40.3125Z" fill="#2180EC"/>
<path d="M11.25 28.125H9.375V37.5H11.25V28.125Z" fill="#2180EC"/>
<path d="M16.875 18.75H15V37.5H16.875V18.75Z" fill="#2180EC"/>
<path d="M22.5 28.125H20.625V37.5H22.5V28.125Z" fill="#2180EC"/>
<path d="M28.125 18.75H26.25V37.5H28.125V18.75Z" fill="#2180EC"/>
</g>
<defs>
<clipPath id="clip0_236_25078">
<rect width="45" height="45" fill="white"/>
</clipPath>
</defs>
</svg>
