<svg width="45" height="45" viewBox="0 0 45 45" fill="none" xmlns="http://www.w3.org/2000/svg">
<path d="M36.5694 0C31.5459 0 28.1442 4.24148 28.136 8.42789C28.1304 11.241 29.3241 12.9984 30.4115 14.2863C30.9552 14.9303 31.4668 15.474 31.8137 15.9892C32.0158 16.2895 32.2306 16.5733 32.319 16.8764C31.9717 16.9257 31.6577 17.1226 31.6475 17.5726C31.649 17.9589 31.9561 18.2729 32.3506 18.2744C32.3163 19.1965 32.3479 20.1527 32.3479 21.0869C32.3479 21.6757 32.6208 22.1882 32.9974 22.5618C33.3741 22.9354 33.8813 23.1949 34.4614 23.1949V23.9021C34.4614 25.0588 35.4127 26.0088 36.5694 26.0088C37.726 26.0088 38.6815 25.0588 38.6815 23.9021V23.1949C39.2615 23.1949 39.7633 22.9354 40.1399 22.5618C40.5166 22.1882 40.7895 21.6757 40.7895 21.0869C40.7906 20.1543 40.7975 19.1974 40.7895 18.2744C41.1826 18.2759 41.4938 17.961 41.4954 17.5726C41.4966 17.1029 41.1713 16.9218 40.8224 16.8736C40.9124 16.5711 41.1274 16.289 41.3292 15.9892C41.676 15.474 42.1876 14.9303 42.7313 14.2863C43.8188 12.9984 45 11.3136 45 8.42789C45 4.20291 41.7018 0 36.5694 0ZM1.81686 1.39526C0.821874 1.39526 0 2.21851 0 3.2135V10.8298C0 11.8248 0.821874 12.6453 1.81686 12.6453H9.43176C10.4268 12.6453 11.25 11.8248 11.25 10.8298V8.66409C11.2515 8.27568 10.938 7.95974 10.5496 7.95822C10.1612 7.95977 9.84772 8.27568 9.84924 8.66409V10.8298C9.84924 11.0699 9.67185 11.239 9.43176 11.239H1.81686C1.57676 11.239 1.40625 11.0699 1.40625 10.8298V3.2135C1.40625 2.97341 1.57677 2.80289 1.81686 2.80289H7.26746C7.65694 2.80213 7.97149 2.48512 7.96921 2.09564C7.96769 1.70884 7.65425 1.39602 7.26746 1.39526H1.81686ZM36.5694 1.40625C40.8226 1.40625 43.5937 4.87762 43.5937 8.42789C43.5937 10.747 42.6736 12.1775 41.656 13.3827C41.1472 13.9854 40.6031 14.542 40.1605 15.1996C39.835 15.6832 39.5022 16.2385 39.3832 16.8668L33.7569 16.8682C33.6394 16.2398 33.3065 15.6832 32.981 15.1996C32.5384 14.542 31.9956 13.9854 31.4868 13.3827C30.4692 12.1775 29.5487 10.7132 29.5381 8.42789C29.5222 5.00312 32.3218 1.40625 36.5694 1.40625ZM37.2739 2.79739C35.5649 2.78517 33.9944 3.74757 33.1375 5.26382C32.9433 5.61194 33.0689 6.0514 33.4177 6.24435C33.7658 6.43858 34.2052 6.31302 34.3982 5.9642C34.999 4.88499 36.0947 4.2366 37.2752 4.2366C37.6727 4.235 37.9935 3.91173 37.9921 3.51425C37.9898 3.11946 37.6913 2.79739 37.2739 2.79739ZM9.142 3.50464C8.9548 3.50467 8.77547 3.57927 8.64349 3.71201L5.62775 6.72775L4.01413 5.11826C3.73981 4.84551 3.29556 4.84551 3.02124 5.11826C2.74483 5.3932 2.74483 5.84032 3.02124 6.11526L5.12924 8.22189C5.4042 8.49827 5.85129 8.49827 6.12625 8.22189L9.6405 4.70901C9.91691 4.43407 9.91691 3.98695 9.6405 3.71201C9.50853 3.57927 9.32918 3.50467 9.142 3.50464ZM13.3635 3.50464C12.9724 3.50235 12.6547 3.81941 12.6562 4.21051C12.6578 4.59946 12.9745 4.91317 13.3635 4.91089H19.6916C20.08 4.91241 20.396 4.59892 20.3975 4.21051C20.399 3.81995 20.0822 3.50311 19.6916 3.50464H13.3635ZM13.3635 6.31714C12.9724 6.31485 12.6547 6.63191 12.6562 7.02301C12.6578 7.41196 12.9745 7.72567 13.3635 7.72339H22.5041C22.8904 7.72191 23.2044 7.40927 23.2059 7.02301C23.2074 6.6346 22.8925 6.31865 22.5041 6.31714H13.3635ZM32.3506 7.02164C31.9622 7.02164 31.6475 7.33635 31.6475 7.72476C31.6475 8.11317 31.9622 8.42789 32.3506 8.42789C32.739 8.42789 33.0537 8.11317 33.0537 7.72476C33.0537 7.33635 32.739 7.02164 32.3506 7.02164ZM40.8307 7.72339C40.6445 7.71273 40.4618 7.77642 40.3226 7.90054L36.8344 11.0056L34.9283 9.30679C34.6369 9.05072 34.1933 9.07899 33.9368 9.36996C33.6799 9.65936 33.705 10.1031 33.9931 10.3615L36.3675 12.4695C36.6339 12.706 37.0349 12.706 37.3013 12.4695L41.2564 8.95385C41.5453 8.69532 41.5705 8.25192 41.3127 7.96234C41.19 7.82191 41.0167 7.73599 40.8307 7.72339ZM13.3635 9.13101C12.9724 9.12869 12.6547 9.44716 12.6562 9.83826C12.6578 10.2272 12.9745 10.5409 13.3635 10.5386H26.0197C26.4081 10.5402 26.7241 10.2267 26.7256 9.83826C26.7272 9.4477 26.4103 9.12948 26.0197 9.13101H13.3635ZM21.7982 14.0529C19.0877 14.0529 16.8777 16.2697 16.8777 18.9803C16.8777 20.4358 17.5155 21.7473 18.5257 22.6497C15.9742 23.2446 14.0639 25.4888 14.0639 28.1786V34.4449H7.73437C7.34598 34.4464 7.03252 34.7624 7.034 35.1508V39.3036C7.03402 39.5469 7.15965 39.7727 7.36633 39.901L11.25 42.3221V44.2928C11.2477 44.6838 11.5648 45.0015 11.9559 45H31.6475C32.0364 44.9984 32.3501 44.6817 32.3479 44.2928V42.3482L36.2219 40.0987C36.4378 39.9721 36.57 39.7406 36.5694 39.4904V35.1508C36.5708 34.7624 36.2574 34.4464 35.869 34.4449L27.4219 34.4531L27.4164 32.1075C27.5977 32.342 27.7683 32.3422 27.9437 32.3437H33.0469C34.2232 32.3437 35.1562 31.4096 35.1562 30.2344C35.1562 29.0591 34.2232 28.125 33.0469 28.125L30.4362 28.1305C28.9191 26.6819 27.7187 24.3698 26.1804 23.2114C25.8605 22.9761 25.4887 22.7966 25.0461 22.6758C26.0744 21.7726 26.7256 20.4497 26.7256 18.9803C26.7256 16.2697 24.5088 14.0529 21.7982 14.0529ZM1.81686 15.4591C0.821874 15.4591 0 16.2824 0 17.2774V24.8978C0 25.8928 0.821874 26.7146 1.81686 26.7146H9.43176C10.4268 26.7146 11.25 25.8928 11.25 24.8978V22.728C11.2485 22.3417 10.9359 22.0277 10.5496 22.0262C10.1634 22.0277 9.85075 22.3417 9.84924 22.728V24.8978C9.84924 25.1379 9.67185 25.3084 9.43176 25.3084H1.81686C1.57676 25.3084 1.40625 25.1379 1.40625 24.8978V17.2774C1.40625 17.0373 1.57677 16.8668 1.81686 16.8668H7.26746C7.65426 16.866 7.96769 16.5532 7.96921 16.1664C7.97075 15.7774 7.6564 15.4599 7.26746 15.4591H1.81686ZM21.7982 15.4591C23.7486 15.4591 25.3194 17.0299 25.3194 18.9803C25.3194 20.9306 23.7486 22.4931 21.7982 22.4931C19.8479 22.4931 18.284 20.9306 18.284 18.9803C18.284 17.0299 19.8479 15.4591 21.7982 15.4591ZM9.142 17.5685C8.9548 17.5685 8.77547 17.6431 8.64349 17.7759L5.62775 20.7957L4.01413 19.1821C3.73981 18.9094 3.29556 18.9094 3.02124 19.1821C2.74483 19.4571 2.74483 19.9042 3.02124 20.1791L5.12924 22.2858C5.4042 22.5621 5.85129 22.5621 6.12625 22.2858L9.6405 18.7715C9.91599 18.4967 9.91599 18.0507 9.6405 17.7759C9.50853 17.6431 9.32918 17.5685 9.142 17.5685ZM19.8729 23.9021H23.5231C24.5274 23.9021 24.9733 24.0663 25.3496 24.343C25.7259 24.6196 26.1145 25.0046 26.6666 25.6778L29.534 29.2593C29.6682 29.4211 29.8937 29.5375 30.1039 29.5367L33.0469 29.5312C33.4867 29.5312 33.7486 29.8329 33.7486 30.2344C33.7486 30.6358 33.4867 30.9375 33.0469 30.9375H28.2294L26.2463 28.9998C25.9689 28.7269 25.5228 28.7313 25.2507 29.0094C24.9769 29.287 24.9813 29.7355 25.2603 30.0078L26.0197 30.8166L26.0156 34.4531H18.9844L18.9816 30.2371C18.9832 29.8488 18.6697 29.5328 18.2812 29.5312C17.8907 29.5297 17.5738 29.8466 17.5754 30.2371L17.5781 34.4531L15.4701 34.4449V28.1786C15.4701 25.8062 17.4128 23.9021 19.8729 23.9021Z" fill="#2180EC"/>
</svg>
