<svg xmlns="http://www.w3.org/2000/svg" width="63" height="59" fill="none" viewBox="0 0 63 59"><g clip-path="url(#clip0_353_1907)"><path fill="#E62B35" d="M28.983 2.983c-.215.824-.196.666-.31 1.306-.355 1.99.025 3.798 1.502 5.269a422.29 422.29 0 0 0 3.817 3.734c.735.716 1.47 1.426 1.984 2.333.609 1.078.945 2.213.71 3.468-.076.393-.24.754-.412 1.173.184-.07.267-.178.355-.28.324-.38.615-.779.869-1.204.913-1.547 1.331-3.176.805-4.951-.38-1.294-1.192-2.308-2.174-3.202-1.484-1.35-2.987-2.682-4.432-4.07-1.065-1.02-1.75-2.27-1.909-3.766v-.266c.013-.457.127-.894.248-1.389-.197.114-.267.247-.343.374 0 0-.443.723-.697 1.465l-.013.006Z"/><path fill="#17A24F" d="M32.508 41.143c.964-1.934.615-3.747-.475-5.497-.457-.729-1.046-1.35-1.636-1.978-1.37-1.464-2.72-2.954-4.09-4.419-.665-.71-.994-1.547-1.064-2.498-.076-1.084.088-2.13.602-3.113.24-.456.45-.932.672-1.394.102.012.076.082.076.133-.063 1.452.545 2.669 1.313 3.835.672 1.021 1.585 1.814 2.415 2.682.995 1.034 2.01 2.042 3.005 3.069 2.042 2.105 2.282 4.647.697 7.341-.355.603-.773 1.16-1.248 1.68-.07.077-.12.197-.273.165l.006-.006ZM30.955 19.695c-.323-.66-.31-1.35-.177-2.047.24-1.262.76-2.416 1.4-3.602.02.406.013.748.064 1.085.197 1.293.862 2.295 1.909 3.068.805.59 1.407 1.338 1.61 2.34.108.538.057 1.065-.254 1.56-.532.849-1.033 1.717-1.547 2.573.064-.83-.266-1.54-.678-2.225-.628-1.04-1.471-1.902-2.34-2.745l.013-.007Z"/><path fill="#326B47" d="M30.955 19.695c.868.837 1.705 1.7 2.34 2.745.411.685.735 1.395.678 2.226-.172.222-.229-.032-.292-.089a10.39 10.39 0 0 0-2.866-1.883c-1.312-.57-2.675-.85-4.12-.748.874-1.87 2.358-2.561 4.032-2.282l.234.038-.006-.007Z"/><path fill="#1D1D1B" d="M40.027 42.227c-.868 0-1.509.28-1.927.843-.342.476-.514 1.097-.514 1.864v.406c0 .843-.418 1.262-1.236 1.262h-.19v-.026H22.23v-4.621l-1.198.355v4.983c0 1.059-.615 1.712-1.636 1.712a3.914 3.914 0 0 1-1.915-.476l.565 1.186c.367.228.805.342 1.344.342 1.623 0 2.656-.957 2.821-2.416h14.214c.83 0 1.446-.228 1.852-.665.437.437 1.02.666 1.75.666.855 0 1.495-.292 1.914-.856.342-.463.514-1.084.514-1.839 0-.754-.178-1.382-.514-1.864-.419-.564-1.059-.843-1.915-.843v-.013Zm0 4.381c-.83 0-1.249-.551-1.249-1.674 0-1.122.419-1.686 1.25-1.686.83 0 1.236.564 1.236 1.686 0 1.123-.419 1.674-1.237 1.674ZM45.714 38.075c-.24.215-.45.33-.653.33-.14 0-.355-.064-.64-.19a1.833 1.833 0 0 0-.793-.204c-.342 0-.741.178-1.21.526l.551.394c.228-.216.476-.33.742-.33.114 0 .317.063.59.203.278.127.526.19.754.19.342 0 .742-.178 1.21-.514l-.55-.405ZM43.54 47.63h1.198v-8.122l-1.198.38v7.741ZM23.182 56.987c-.374.317-.729.539-1.077.672a3.05 3.05 0 0 1-1.11.196c-.653 0-1.154-.158-1.503-.475-.348-.317-.526-.723-.526-1.224a1.634 1.634 0 0 1 .716-1.376c.216-.145.457-.253.724-.33.196-.05.494-.1.893-.152.812-.095 1.408-.209 1.795-.348v-.26c0-.412-.096-.697-.286-.869-.26-.228-.64-.342-1.147-.342-.476 0-.824.082-1.046.247-.228.165-.393.457-.501.882l-.983-.134c.089-.418.235-.76.444-1.02.203-.26.5-.457.887-.596.387-.14.837-.21 1.345-.21.507 0 .919.057 1.236.178.317.12.552.266.697.45.146.184.254.406.311.685.032.171.05.482.05.925v1.344c0 .933.02 1.528.064 1.776.044.247.127.488.254.71h-1.053a2.235 2.235 0 0 1-.203-.73h.02Zm-.082-2.245c-.368.153-.913.273-1.642.38-.412.058-.704.127-.875.204a.894.894 0 0 0-.4.33.85.85 0 0 0-.139.475.86.86 0 0 0 .304.672c.203.177.501.266.894.266s.73-.082 1.034-.254c.304-.17.526-.399.666-.697.107-.228.164-.564.164-1.008v-.368H23.1ZM25.674 57.722v-5.934h.9v.83a2.081 2.081 0 0 1 1.8-.97c.438 0 .8.09 1.085.273.279.184.482.438.596.767.469-.69 1.078-1.04 1.832-1.04.59 0 1.04.165 1.357.489.317.323.475.83.475 1.508v4.07h-1.002v-3.74c0-.4-.031-.69-.095-.868a.825.825 0 0 0-.355-.425 1.114 1.114 0 0 0-.602-.165c-.418 0-.76.14-1.04.418-.272.28-.412.723-.412 1.332v3.449h-1.008V53.86c0-.45-.082-.78-.247-1.008-.165-.222-.431-.336-.805-.336-.285 0-.545.076-.786.222-.241.152-.413.368-.52.653-.108.285-.165.697-.165 1.243v3.08h-1.008v.007ZM39.267 55.814l1.04.127c-.166.608-.47 1.077-.914 1.413-.443.336-1.008.501-1.699.501-.868 0-1.553-.266-2.067-.799-.507-.532-.76-1.287-.76-2.25 0-.964.26-1.775.773-2.327.514-.552 1.18-.824 1.997-.824.818 0 1.44.272 1.947.811.5.54.754 1.3.754 2.283v.266h-4.425c.038.653.222 1.154.551 1.496.33.349.742.52 1.243.52.368 0 .685-.095.945-.292.26-.196.469-.5.621-.925h-.006Zm-3.303-1.623h3.315c-.044-.501-.17-.875-.38-1.122a1.55 1.55 0 0 0-1.25-.584c-.462 0-.849.153-1.166.463-.317.31-.488.723-.52 1.243ZM41.562 57.722v-5.934h.906v.9c.228-.418.444-.697.64-.83.197-.133.413-.203.647-.203.336 0 .685.108 1.034.323l-.35.932a1.44 1.44 0 0 0-.735-.215.93.93 0 0 0-.59.196 1.076 1.076 0 0 0-.373.552 3.826 3.826 0 0 0-.165 1.172v3.107h-1.014Z"/></g><defs><clipPath id="clip0_353_1907"><path fill="#fff" d="M17.482 1.145h28.79v56.71h-28.79z"/></clipPath></defs></svg>