<?xml version="1.0" encoding="UTF-8"?>
<svg id="Layer_1" data-name="Layer 1" xmlns="http://www.w3.org/2000/svg" version="1.1" viewBox="0 0 896 287">
  <g>
    <path d="M152.9,4.1c59.3,0,118.7,0,178,0,.1,0,.2.1.3.1,2.3.5,3.8,1.9,4.5,4.2.2.7.2,1.5.2,2.2,0,74.1,0,148.1,0,222.2,0,.2,0,.4,0,.6,0,1.8-.7,3.2-2.1,4.4-1.2,1.1-2.7,1.5-4.4,1.5-4.7,0-9.4,0-14.1,0-.3,0-.6,0-.9,0,0,.4,0,.7,0,.9,0,1.9,0,3.7,0,5.6,0,3,0,6.1,0,9.1,0,3-1.9,5.3-4.8,5.9-.6.1-1.2.1-1.8.1-4.6,0-9.2,0-13.9,0h-1v1c0,4.8,0,9.6,0,14.4,0,1.8-.6,3.4-1.9,4.7-1.3,1.2-2.8,1.7-4.5,1.7-58.5,0-117,0-175.5,0-.1,0-.3,0-.4,0-2.8,0-5.3-2-5.9-4.7-.1-.7-.2-1.4-.2-2.1,0-53.9,0-107.8,0-161.6,0-.2,0-.5,0-.7,0-.4-.1-.7-.4-1-5.9-5.7-11.7-11.4-17.5-17.2-6.9-6.8-13.8-13.5-20.8-20.3-5.4-5.3-10.7-10.5-16.1-15.8-3.6-3.5-7.2-7.1-10.8-10.6-2.6-2.6-4.1-5.8-4.5-9.4,0-.5-.2-.9-.3-1.3,0-.3,0-.5,0-.8,0-.1.1-.3.1-.4.1-.8.2-1.7.4-2.5,1.4-6,5.1-10.1,11-11.8,5.9-1.8,11.3-.5,15.8,3.8,5.1,4.8,10,9.8,15.1,14.7,6.6,6.5,13.2,12.9,19.8,19.4,2.5,2.5,5.1,5,7.6,7.5.2.2.3.4.6.4,0-.3,0-.6,0-.9,0-4.5,0-9,0-13.5,0-1.1.2-2.2.7-3.1,1.2-2.1,3-3.2,5.4-3.2,4.8,0,9.7,0,14.5,0,.3,0,.6,0,.9,0v-1c0-4.8,0-9.5,0-14.3,0-.5,0-1.1.1-1.6.6-3.1,3.4-4.8,5.9-4.8,4.8,0,9.6,0,14.4,0,.3,0,.6,0,1,0v-1c0-4.7,0-9.3,0-14,0-.5,0-1,0-1.5.3-2.4,2-4.5,4.4-5.1.2,0,.5-.1.7-.2ZM116.9,270.7h164V59.9H116.9c0,.3,0,.5,0,.7,0,6.4,0,12.8,0,19.2,0,.5.2.8.5,1.1,5.7,5.5,11.3,11,16.9,16.6,5.9,5.8,11.9,11.6,17.8,17.5.5.5,1,.7,1.6.7,35.7,0,71.4,0,107,0s.5,0,.7,0c3,0,5.6,2.3,6,5.2.4,3.2-1.4,6-4.5,6.8-.8.2-1.6.2-2.4.2-31.7,0-63.4,0-95,0h-1.2c.2.3.4.5.5.7,2.9,4,5.4,8.2,7.4,12.7,1.3,3,2.7,6.1,4,9.1.5,1.1.2,1,1.4,1,27.7,0,55.4,0,83.1,0,.4,0,.7,0,1.1,0,2.6.2,4.8,2,5.5,4.5.6,2.5-.4,5.2-2.6,6.6-1.1.7-2.4,1-3.8,1-41.4,0-82.7,0-124.1,0-.2,0-.5,0-.7,0-4.3-.2-7.1-4.7-5.3-8.5,1.1-2.4,3-3.6,5.6-3.6,2.6,0,5.3,0,7.9,0,.2,0,.5.1.7-.2-.2-.1-.4-.3-.5-.4-1.5-1.1-3.1-2.3-4.6-3.4-3.1-2.5-5.9-5.4-8.7-8.1-4.6-4.5-9.3-9.1-13.9-13.6-.1-.1-.3-.2-.5-.4v145.5ZM159.9,25.9h1.2c48.9,0,97.8,0,146.7,0,.3,0,.6,0,.9,0,1.8,0,3.3.7,4.4,2,1.1,1.2,1.5,2.7,1.5,4.3,0,22.4,0,44.9,0,67.3,0,42.1,0,84.3,0,126.4,0,.4,0,.8,0,1.1,1.1.2,8.8.1,9.3,0V16.2h-164v9.6ZM138.4,47.7h1.2c48.9,0,97.8,0,146.7,0,.3,0,.7,0,1,0,2.6.1,4.8,1.8,5.5,4.3.2.8.3,1.6.3,2.4,0,64.4,0,128.8,0,193.2s0,.5,0,.8c0,.2,0,.4,0,.6h9.2V38.1h-164v9.6ZM70.2,62.5c.2.2.4.5.7.7,4.4,4.4,8.9,8.7,13.3,13.1,9.8,9.6,19.6,19.2,29.4,28.8,10.2,9.9,20.3,19.9,30.5,29.8,4.7,4.6,10,8.2,16,10.8.2,0,.4.1.7.2-.1-.3-.2-.5-.3-.7-2.8-5.9-6.5-11.1-11.1-15.7-4.8-4.7-9.6-9.4-14.4-14.1-6.3-6.1-12.5-12.2-18.8-18.4-7.5-7.4-15.1-14.8-22.6-22.2-5.9-5.8-11.8-11.6-17.8-17.4-.1-.1-.3-.2-.3-.3-1.8,1.8-3.5,3.5-5.3,5.3ZM66.8,48.5c0,0-.2-.2-.3-.3-3.3-3.2-6.6-6.4-9.8-9.6-1.2-1.1-2.3-2.3-3.5-3.4-1.2-1.1-2.6-1.4-4.2-.8-1.4.6-2.2,1.7-2.4,3.3,0,1.2.4,2.2,1.3,3.1,4,3.9,8,7.8,11.9,11.7.5.5,1.1,1,1.6,1.5,1.8-1.8,3.5-3.5,5.3-5.4Z" fill="#385985" stroke-width="0"/>
    <path d="M241,259.1c-3.3,0-6.2-1-8.8-2.9-.6-.4-1.1-.7-1.8-.7-.8,0-1.6.2-2.2.7-1.8,1.3-3.9,2.2-6.1,2.7-8,1.5-16.3-3.8-17.9-12.1-.3-1.4-.4-2.9-.2-4.4.2-1.8-.5-2.9-2.1-3.7-4.4-2.1-7.3-5.4-8.5-10.2-1.8-7.2,1.6-14.5,8.3-17.7,1.1-.5,1.9-1.2,2.2-2.4,0-.4,0-.9,0-1.3-.7-7.8,4.5-14.7,12.1-16.4,4.3-.9,8.3,0,12,2.5.6.4,1.1.7,1.8.8.9,0,1.6-.2,2.3-.7,1.9-1.4,3.9-2.3,6.2-2.7,8-1.4,15.8,3.7,17.6,11.4.4,1.6.6,3.3.4,5-.2,1.9.4,3,2.1,3.8,4.6,2.2,7.5,5.7,8.5,10.7,1.5,7.1-1.9,13.9-8.4,17-.3.1-.5.2-.8.4-1.1.7-1.6,1.8-1.5,3.1,0,1.1.1,2.2,0,3.2-.5,5.1-3,8.9-7.4,11.6-2.4,1.5-5.1,2.2-7.9,2.2ZM216,242c0,.5,0,1,0,1.5,0,1.3.5,2.3,1.6,3,1.2.7,2.3.6,3.4-.1.1-.1.3-.2.4-.3,3.9-2.6,8.1-3.3,12.6-2.2,1.9.5,3.6,1.3,5.1,2.5,1.1.8,2.3.8,3.4.2,1.2-.7,1.7-1.7,1.6-3,0-.4,0-.8,0-1.2,0-6.6,2.9-11.4,8.8-14.5.2-.1.5-.2.7-.3,1.1-.6,1.6-1.5,1.6-2.7,0-1.2-.5-2.1-1.6-2.7-.3-.2-.7-.3-1-.5-4.1-2.1-6.8-5.4-8-9.9-.5-1.8-.5-3.7-.4-5.6.1-1.4-.5-2.4-1.6-3-1.2-.7-2.3-.6-3.4.2-.1.1-.3.2-.4.3-3.9,2.6-8.2,3.3-12.7,2.1-1.8-.5-3.5-1.3-5-2.4-1.1-.8-2.2-.9-3.4-.2-1.2.7-1.8,1.7-1.7,3.1,0,.4,0,.8,0,1.2,0,6.4-2.8,11.1-8.3,14.1-.4.2-.8.4-1.2.6-2.1,1.2-2.1,4.3,0,5.5.4.2.8.4,1.2.6,5.5,3,8.2,7.7,8.3,14Z" fill="#385985" stroke-width="0"/>
    <path d="M198.9,79.9c20.8,0,41.5,0,62.3,0,1.6,0,2.9.4,4.1,1.4,1.9,1.6,2.6,4.3,1.8,6.7-.8,2.4-3,3.9-5.5,4-.3,0-.6,0-.9,0-41.1,0-82.3,0-123.4,0-.7,0-1.4,0-2.1-.1-2.9-.6-4.9-3.2-4.8-6.1,0-2.9,2.2-5.4,5.1-5.8.5,0,.9,0,1.4,0,20.7,0,41.4,0,62.1,0Z" fill="#385985" stroke-width="0"/>
    <path d="M154.5,199.1c-6,0-12,0-18,0-2.6,0-4.5-1.2-5.6-3.6-1.8-3.9,1.1-8.4,5.4-8.5,1.5,0,2.9,0,4.4,0,10.6,0,21.1,0,31.7,0,1.1,0,2.1.2,3,.6,2.5,1.2,3.9,4,3.2,6.7-.6,2.8-3,4.8-5.8,4.8-5.9,0-11.7,0-17.6,0-.2,0-.5,0-.7,0Z" fill="#385985" stroke-width="0"/>
  </g>
  <g>
    <g>
      <polygon points="425 229.5 425 187.4 409.9 187.4 409.9 182.2 445.8 182.2 445.8 187.4 430.8 187.4 430.8 229.5 425 229.5" fill="#385986" stroke-width="0"/>
      <path d="M476.9,207.1c3.8,2.1,5.9,5.6,6.3,10.7l.8,11.7h-5.5l-.8-11.4c-.1-2.3-.9-4.2-2.3-5.7-1.4-1.4-3.4-2.2-5.4-2.2h-12.8v19.2h-5.7v-47.2h17.9c4.6,0,8.3,1.3,11,3.8,2.7,2.5,4,5.9,4,10s-2.5,8.7-7.4,11h0Z" fill="#385986" stroke-width="0"/>
      <path d="M457.2,187.4v17.7h12.1c3.1,0,5.4-.9,6.9-2.6,1.5-1.7,2.2-3.8,2.2-6.4s-.7-4.6-2.2-6.3c-1.5-1.6-3.8-2.4-6.9-2.4h-12.1Z" fill="#fff" stroke-width="0"/>
      <polygon points="528.2 229.5 523.3 216.7 502.3 216.7 497.4 229.5 491.4 229.5 510.2 182.2 515.4 182.2 534.2 229.5 528.2 229.5 528.2 229.5" fill="#385986" stroke-width="0"/>
      <polygon points="504.2 211.6 521.3 211.6 512.8 189.3 504.2 211.6 504.2 211.6" fill="#fff" stroke-width="0"/>
      <polygon points="539.5 229.5 539.5 182.2 545.9 182.2 570.2 220.3 570.2 182.2 575.8 182.2 575.8 229.5 569.4 229.5 545.1 191.4 545.1 229.5 539.5 229.5" fill="#385986" stroke-width="0"/>
      <path d="M599.8,230c-5.3,0-9.5-1.4-12.7-4.3-3.2-2.9-5-6.8-5.3-11.7h5.5c.3,3.3,1.6,6,3.7,7.9,2.2,1.9,5.1,2.9,8.7,2.9s6.1-.7,8.2-2c2.1-1.4,3.1-3.5,3.1-6.2,0-1.8-.7-3.5-2.1-4.7-1.4-1.3-3.2-2.2-5.1-2.7-2-.6-4.2-1.2-6.7-2-2.4-.8-4.6-1.5-6.6-2.4-2-.8-3.8-2.2-5.1-3.9-1.3-1.8-2-4-2-6.7s1.5-6.7,4.5-9c3-2.3,6.8-3.5,11.5-3.5s8.6,1.3,11.6,3.9c3.1,2.5,4.7,5.9,5.1,10.1h-5.4c-.2-2.5-1.5-4.8-3.5-6.3-2-1.6-4.6-2.4-7.8-2.4s-5.7.7-7.5,2c-1.8,1.2-2.8,3.3-2.7,5.4,0,1.5.5,3,1.5,4.1,1,1.1,2.4,1.9,4,2.6,1.7.6,3.5,1.1,5.5,1.6,2,.4,3.9,1,5.9,1.6,2,.6,3.8,1.4,5.4,2.4,1.7.9,3,2.2,4,3.9,1,1.7,1.6,3.8,1.6,6.1,0,4.2-1.6,7.5-4.9,9.8-3.2,2.4-7.3,3.6-12.4,3.6Z" fill="#385986" stroke-width="0"/>
      <g>
        <polygon points="622.8 229.5 622.8 182.2 628.6 182.2 628.6 224.3 652.2 224.3 652.2 229.5 622.8 229.5" fill="#385986" stroke-width="0"/>
        <polygon points="692.4 229.5 687.6 216.7 666.5 216.7 661.6 229.5 655.6 229.5 674.4 182.2 679.6 182.2 698.4 229.5 692.4 229.5" fill="#385986" stroke-width="0"/>
        <polygon points="668.5 211.6 685.5 211.6 677 189.3 668.5 211.6" fill="#fff" stroke-width="0"/>
        <polygon points="711.1 229.5 711.1 187.4 696 187.4 696 182.2 731.9 182.2 731.9 187.4 716.9 187.4 716.9 229.5 711.1 229.5" fill="#385986" stroke-width="0"/>
        <polygon points="737.5 229.5 737.5 182.2 743.2 182.2 743.2 229.5 737.5 229.5 737.5 229.5" fill="#385986" stroke-width="0"/>
        <path d="M790.1,223.1c-4.4,4.6-9.9,6.9-16.6,6.9s-12.2-2.3-16.6-6.9c-4.4-4.6-6.5-10.3-6.5-17.3s2.2-12.7,6.5-17.3c4.4-4.6,9.9-6.9,16.6-6.9s12.2,2.3,16.6,6.9c4.4,4.6,6.6,10.3,6.6,17.3s-2.2,12.7-6.6,17.3Z" fill="#385986" stroke-width="0"/>
        <path d="M761.2,219.4c3.3,3.6,7.4,5.4,12.4,5.4s9.1-1.8,12.3-5.4c3.3-3.6,4.9-8.1,4.9-13.6s-1.6-10-4.9-13.6c-3.1-3.5-7.6-5.5-12.3-5.4-4.9,0-9.1,1.8-12.3,5.4-3.2,3.6-4.9,8.1-4.9,13.6s1.6,10,4.9,13.6h0Z" fill="#fff" stroke-width="0"/>
        <polygon points="802.8 229.5 802.8 182.2 809.2 182.2 833.5 220.3 833.5 182.2 839.1 182.2 839.1 229.5 832.6 229.5 808.4 191.4 808.4 229.5 802.8 229.5" fill="#385986" stroke-width="0"/>
      </g>
    </g>
    <g>
      <path d="M387.3,59h25.6v77.3h48.8v21.2h-74.4V59Z" fill="#385985" stroke-width="0"/>
      <path d="M501.6,80.2v17.5h47.2v21.2h-47.2v17.4h52.5v21.2h-78.1V59h78.1v21.2h-52.5Z" fill="#385985" stroke-width="0"/>
      <path d="M565.7,108.4c-.3-31.2,22-51.4,55.6-51.4s25.6,3.1,37.6,9.7l-7.1,21.6c-9-5.4-19.3-8.4-29.1-8.4-18.1,0-30.5,11.1-30.5,28.5s11.2,28.2,30.5,28.2,8.4-.7,11.9-1.6v-12.3h-19.7v-21.2h45.4v49.2c-12.7,5.8-26.4,8.8-40.3,8.8-33.2,0-54.5-20.1-54.2-51.1Z" fill="#385985" stroke-width="0"/>
      <path d="M708.8,59h25.9l42.9,98.4h-27.6l-7-17.1h-41.3l-6.9,17.1h-27.6l41.7-98.4ZM734.4,119.4l-12.5-30.6-12.1,30.6h24.7Z" fill="#385985" stroke-width="0"/>
      <path d="M787.3,59h25.6v77.3h48.8v21.2h-74.4V59Z" fill="#385985" stroke-width="0"/>
    </g>
  </g>
</svg>