<svg width="155" height="98" viewBox="0 0 155 98" fill="none" xmlns="http://www.w3.org/2000/svg">
<path d="M65.4741 97.6759C101.634 97.6759 130.948 92.0924 130.948 85.2047C130.948 78.317 101.634 72.7334 65.4741 72.7334C29.3138 72.7334 0 78.317 0 85.2047C0 92.0924 29.3138 97.6759 65.4741 97.6759Z" fill="url(#paint0_linear_236_31762)"/>
<path d="M52.8437 80.2559H30.0238C29.7534 80.2559 29.5341 80.0363 29.5341 79.7653V38.1891H53.3335V79.7653C53.3335 80.0363 53.1142 80.2559 52.8437 80.2559Z" fill="url(#paint1_linear_236_31762)"/>
<path d="M34.1772 80.2558H31.7652C30.5329 80.2558 29.5337 79.2549 29.5337 78.0206V38.1877H31.9457V78.0206C31.9456 79.2549 32.9448 80.2558 34.1772 80.2558Z" fill="url(#paint2_linear_236_31762)"/>
<path d="M53.3335 38.1877H31.9457V40.633H53.3335V38.1877Z" fill="url(#paint3_linear_236_31762)"/>
<path d="M88.5943 24.7164L84.822 38.6396C84.6035 39.446 83.8726 40.0059 83.0383 40.0059H68.6311V8.22375H87.5965C88.6353 8.22375 89.4775 9.06727 89.4775 10.1078V18.0786C89.4775 20.3205 89.1805 22.5526 88.5943 24.7164Z" fill="url(#paint4_linear_236_31762)"/>
<path d="M84.822 38.6396L88.5943 24.7164C89.1806 22.5526 89.4775 20.3205 89.4775 18.0786V10.1078C89.4775 9.06727 88.6354 8.22375 87.5966 8.22375C87.0635 8.22375 86.6314 8.65662 86.6314 9.19052V18.0786C86.6314 20.3206 86.3344 22.5526 85.7482 24.7164L81.9809 38.621C81.7919 39.3188 82.3165 40.0059 83.0384 40.0059C83.8726 40.0059 84.6034 39.446 84.822 38.6396Z" fill="url(#paint5_linear_236_31762)"/>
<path d="M45.0007 49.1495H80.8272C80.9895 49.1495 81.121 49.2813 81.121 49.4439V51.5367C81.121 51.6993 80.9895 51.8311 80.8272 51.8311H45.0007C44.8384 51.8311 44.7068 51.6993 44.7068 51.5367V49.4439C44.7068 49.2813 44.8384 49.1495 45.0007 49.1495Z" fill="url(#paint6_linear_236_31762)"/>
<path d="M81.1209 50.4903C81.1209 49.7498 80.5216 49.1495 79.7823 49.1495H58.1063C57.367 49.1495 56.7677 49.7498 56.7677 50.4903C56.7677 51.2309 57.367 51.8311 58.1063 51.8311H79.7823C80.5216 51.8311 81.1209 51.2309 81.1209 50.4903Z" fill="url(#paint7_linear_236_31762)"/>
<path d="M79.3067 49.1496C79.311 43.5341 78.202 40.006 78.202 40.006H74.5095C74.5095 40.006 75.6185 43.5341 75.6141 49.1496H79.3067Z" fill="url(#paint8_linear_236_31762)"/>
<path d="M73.7594 54.4225H55.6814C55.1526 54.4225 54.6666 54.1312 54.4166 53.6644L53.4348 51.8311H76.006L75.0242 53.6644C74.7742 54.1312 74.2882 54.4225 73.7594 54.4225Z" fill="url(#paint9_linear_236_31762)"/>
<path d="M66.0811 54.4225H63.36V71.0782H66.0811V54.4225Z" fill="url(#paint10_linear_236_31762)"/>
<path d="M66.8222 76.1629H62.6189C62.556 76.1629 62.5051 76.1118 62.5051 76.0489V70.0851C62.5051 70.0221 62.5561 69.9711 62.6189 69.9711H66.8222C66.8851 69.9711 66.936 70.0221 66.936 70.0851V76.0489C66.936 76.1118 66.8851 76.1629 66.8222 76.1629Z" fill="url(#paint11_linear_236_31762)"/>
<path d="M82.5056 77.029L81.9875 75.4458C81.9424 75.308 81.814 75.2147 81.6691 75.2147H80.6731H79.6771C79.5323 75.2147 79.4039 75.3079 79.3587 75.4458L78.8406 77.029C78.7766 77.2248 78.9222 77.4261 79.1278 77.4261H80.6731H82.2184C82.424 77.4261 82.5697 77.2248 82.5056 77.029Z" fill="url(#paint12_linear_236_31762)"/>
<path d="M80.6729 80.2557C81.7568 80.2557 82.6354 79.3757 82.6354 78.2901C82.6354 77.2045 81.7568 76.3245 80.6729 76.3245C79.5891 76.3245 78.7105 77.2045 78.7105 78.2901C78.7105 79.3757 79.5891 80.2557 80.6729 80.2557Z" fill="url(#paint13_linear_236_31762)"/>
<path d="M80.6731 79.5412C81.3629 79.5412 81.9221 78.9811 81.9221 78.2901C81.9221 77.5992 81.3629 77.0391 80.6731 77.0391C79.9833 77.0391 79.4241 77.5992 79.4241 78.2901C79.4241 78.9811 79.9833 79.5412 80.6731 79.5412Z" fill="url(#paint14_linear_236_31762)"/>
<path d="M66.5529 77.029L66.0348 75.4458C65.9896 75.308 65.8612 75.2147 65.7163 75.2147H64.7204H63.7244C63.5795 75.2147 63.4511 75.3079 63.406 75.4458L62.8879 77.029C62.8238 77.2248 62.9695 77.4261 63.1751 77.4261H64.7204H66.2656C66.4713 77.4261 66.617 77.2248 66.5529 77.029Z" fill="url(#paint15_linear_236_31762)"/>
<path d="M64.7205 80.2557C65.8043 80.2557 66.6829 79.3757 66.6829 78.2901C66.6829 77.2045 65.8043 76.3245 64.7205 76.3245C63.6367 76.3245 62.7581 77.2045 62.7581 78.2901C62.7581 79.3757 63.6367 80.2557 64.7205 80.2557Z" fill="url(#paint16_linear_236_31762)"/>
<path d="M64.7204 79.5412C65.4102 79.5412 65.9694 78.9811 65.9694 78.2901C65.9694 77.5992 65.4102 77.0391 64.7204 77.0391C64.0306 77.0391 63.4714 77.5992 63.4714 78.2901C63.4714 78.9811 64.0306 79.5412 64.7204 79.5412Z" fill="url(#paint17_linear_236_31762)"/>
<path d="M66.9361 73.3966L79.2668 75.7267L78.8406 77.029L66.9361 75.8168V73.3966Z" fill="url(#paint18_linear_236_31762)"/>
<path d="M46.9353 77.029L47.4534 75.4458C47.4985 75.308 47.627 75.2147 47.7718 75.2147H48.7678H49.7637C49.9086 75.2147 50.037 75.3079 50.0822 75.4458L50.6003 77.029C50.6643 77.2248 50.5187 77.4261 50.313 77.4261H48.7678H47.2225C47.0169 77.4261 46.8713 77.2248 46.9353 77.029Z" fill="url(#paint19_linear_236_31762)"/>
<path d="M48.7679 80.2557C49.8517 80.2557 50.7303 79.3757 50.7303 78.2901C50.7303 77.2045 49.8517 76.3245 48.7679 76.3245C47.684 76.3245 46.8054 77.2045 46.8054 78.2901C46.8054 79.3757 47.684 80.2557 48.7679 80.2557Z" fill="url(#paint20_linear_236_31762)"/>
<path d="M48.7678 79.5412C49.4576 79.5412 50.0168 78.9811 50.0168 78.2901C50.0168 77.5992 49.4576 77.0391 48.7678 77.0391C48.0779 77.0391 47.5187 77.5992 47.5187 78.2901C47.5187 78.9811 48.0779 79.5412 48.7678 79.5412Z" fill="url(#paint21_linear_236_31762)"/>
<path d="M62.5049 73.3966L50.1742 75.7267L50.6004 77.029L62.5049 75.8168V73.3966Z" fill="url(#paint22_linear_236_31762)"/>
<path d="M44.0643 76.0774L44.4001 79.3968C44.4473 79.8555 44.0865 80.2558 43.6257 80.2558H32.7011C32.1599 80.2558 31.8213 79.6554 32.1128 79.2022C32.3765 78.7879 32.851 78.4682 33.606 78.1541C33.667 78.129 33.7337 78.1012 33.8114 78.0707C33.7225 78.1958 33.6504 78.3792 33.7836 78.5795C34.0223 78.938 37.6638 78.9075 40.4144 77.776C43.165 76.6445 44.0643 76.0774 44.0643 76.0774Z" fill="url(#paint23_linear_236_31762)"/>
<path d="M73.6461 49.1496H45.069L44.2503 71.1177C44.2503 71.1177 42.1742 71.6375 39.9788 71.0454L37.8277 46.1749C37.6917 44.5986 38.7908 43.1835 40.3479 42.925L63.3545 39.1357C74.712 38.9523 73.6461 49.1496 73.6461 49.1496Z" fill="url(#paint24_linear_236_31762)"/>
<path d="M39.9791 71.0442L40.3552 75.3923C40.3552 75.3923 35.3936 77.4168 33.8124 78.0691C33.7228 78.1942 33.6494 78.3786 33.7831 78.5794C34.021 78.9369 37.6638 78.907 40.4146 77.7752C43.1654 76.6433 44.0649 76.0774 44.0649 76.0774L44.2498 71.1173C44.2498 71.1173 42.1753 71.6369 39.9791 71.0442Z" fill="url(#paint25_linear_236_31762)"/>
<path d="M43.0168 78.8586C44.6115 78.8697 49.8268 77.9092 52.1761 75.839L52.3506 71.1635C52.3506 71.1635 49.7756 71.605 48.0686 71.0551L48.4588 75.4964C48.4588 75.4964 43.0465 77.5368 41.7975 78.0581C41.7975 78.0581 41.4221 78.8474 43.0168 78.8586Z" fill="url(#paint26_linear_236_31762)"/>
<path d="M52.176 75.839C49.8267 77.9092 44.6114 78.8698 43.0167 78.8586C41.422 78.8474 41.7974 78.0581 41.7974 78.0581C40.9005 78.4324 40.3869 78.8384 40.1687 79.4426C40.026 79.8376 40.3203 80.2557 40.7397 80.2557H52.0493C52.6591 80.2557 53.1079 79.6839 52.9641 79.0903L52.176 75.839Z" fill="url(#paint27_linear_236_31762)"/>
<path d="M71.3909 39.8645H66.9038L48.214 42.9202C46.759 43.1581 45.7335 44.4798 45.8628 45.9508L48.0685 71.0552C49.7755 71.6051 52.3505 71.1636 52.3505 71.1636L53.1722 49.1497H71.3909C73.9507 49.1497 76.0259 47.0711 76.0259 44.5071C76.0259 41.943 73.9507 39.8645 71.3909 39.8645Z" fill="url(#paint28_linear_236_31762)"/>
<path d="M63.3548 39.1361C63.3548 39.1361 65.6473 39.3208 67.1937 40.0952C68.7401 40.8697 69.3245 14.3069 69.3245 14.3069H64.6727C64.6727 14.3069 63.4764 16.2065 63.0006 19.1255C62.5249 22.0447 63.3548 39.1361 63.3548 39.1361Z" fill="url(#paint29_linear_236_31762)"/>
<path d="M36.8441 33.566C36.8441 33.566 36.3324 33.2879 36.3638 33.0109C36.3952 32.7339 36.8385 32.9699 37.3951 33.0915C37.9517 33.2131 40.0464 33.309 40.4074 33.3173C40.7684 33.3257 37.5745 34.0582 36.8441 33.566Z" fill="url(#paint30_linear_236_31762)"/>
<path d="M42.8348 32.6767C42.8348 32.6767 39.431 33.528 38.2163 33.5231C37.0017 33.5181 36.2542 33.2572 36.1626 33.5166C36.071 33.7759 36.8478 34.0757 37.4921 34.1758C37.4921 34.1758 37.43 34.523 37.6988 34.644C37.9676 34.7651 39.318 34.5692 40.1526 34.6538C40.987 34.7385 40.987 34.7385 40.987 34.7385C40.987 34.7385 43.6544 35.1762 44.4593 34.2135C44.4593 34.2135 44.241 32.4441 42.8348 32.6767Z" fill="url(#paint31_linear_236_31762)"/>
<path d="M38.1121 34.3069C37.7358 34.3069 37.5041 34.282 37.4805 34.2795L37.5038 34.0722C37.5174 34.0734 38.9689 34.2285 40.6618 33.7356L40.7199 33.9357C39.6582 34.2451 38.7055 34.3069 38.1121 34.3069Z" fill="#FF9C85"/>
<path d="M70.4389 1.67456C70.4389 1.67456 70.6913 0.914987 71.9869 0.78095C73.2826 0.646912 74.539 1.37297 74.8513 2.907C75.1635 4.44102 74.435 7.04735 71.4612 6.54097C68.4873 6.03459 70.4389 1.67456 70.4389 1.67456Z" fill="url(#paint32_linear_236_31762)"/>
<path d="M62.4654 6.70469C62.4654 6.70469 61.603 5.17066 62.1681 2.95156C62.7331 0.732466 64.9486 -0.190911 67.1938 0.0325087C69.439 0.255928 71.253 1.70798 71.7437 3.56221C72.2344 5.41644 72.0124 6.53721 70.807 7.9185C69.6016 9.29979 69.5134 10.0184 69.3796 10.5546C69.2457 11.0907 62.4654 6.70469 62.4654 6.70469Z" fill="url(#paint33_linear_236_31762)"/>
<path d="M64.6734 14.3077V12.0513C64.6734 12.0513 63.5359 12.4311 63.0155 11.4109C62.4951 10.3907 62.4654 9.70561 62.3761 8.09716C62.2869 6.48871 62.3761 4.98071 62.3761 4.98071C62.3761 4.98071 65.0674 7.44926 68.4576 6.63015L68.7327 7.9519C68.7327 7.9519 69.0338 6.30994 69.9594 6.22056C70.885 6.13118 70.8626 7.77321 69.6471 8.47691L69.3237 14.3076L66.1343 16.1283L64.6734 14.3077Z" fill="url(#paint34_linear_236_31762)"/>
<path d="M67.6251 10.1599C66.0638 11.5897 64.6736 12.0513 64.6736 12.0513V13.7938C67.5061 12.9003 67.6251 10.1599 67.6251 10.1599Z" fill="url(#paint35_linear_236_31762)"/>
<path d="M64.6728 14.3069C63.1934 16.0722 63.0018 24.5737 63.0018 24.5737L61.7057 28.4769L59.9558 33.7538C59.7411 34.4009 59.1368 34.8377 58.4561 34.8377H43.4176C43.4925 33.1085 42.671 32.672 42.671 32.672L56.2046 30.9956C56.2046 30.9956 58.4278 19.6251 58.6526 18.3964C58.8747 17.1676 59.266 15.9944 60.3568 15.3244C60.7925 15.0575 61.5641 14.8406 62.3358 14.6794C63.5042 14.432 64.6728 14.3069 64.6728 14.3069Z" fill="url(#paint36_linear_236_31762)"/>
<path d="M59.7246 24.7278C59.5871 27.756 60.8807 28.7754 60.3198 32.6555L61.7056 28.4769L62.763 25.2925C62.403 22.1 61.5686 18.6799 61.5686 18.6799C61.5686 18.6799 59.8621 21.6995 59.7246 24.7278Z" fill="url(#paint37_linear_236_31762)"/>
<path d="M63.693 27.8237C63.8485 30.6593 63.8928 34.0121 63.693 36.4696C63.5682 37.9709 63.4376 38.7548 63.3544 39.1357L59.5991 39.7529C59.7489 39.4944 61.1117 37.0396 61.6391 33.8203C61.961 31.8492 61.9111 30.0533 61.7057 28.477C61.5586 27.326 61.331 26.2919 61.1062 25.3883C60.5705 23.2449 61.0812 20.0256 61.7529 18.1045C62.222 16.7617 62.3191 15.3884 62.3358 14.6794C63.5043 14.432 64.6728 14.3069 64.6728 14.3069C64.6728 14.3069 63.8263 17.2343 63.5792 20.8095C63.335 24.3819 63.5348 24.9852 63.693 27.8237Z" fill="url(#paint38_linear_236_31762)"/>
<path d="M66.005 15.9666L64.2731 17.6597L64.2371 16.1278V16.1251C64.473 14.9991 64.6728 14.3069 64.6728 14.3069L66.005 15.9666Z" fill="white"/>
<path d="M79.0585 49.5971C79.0585 49.5971 77.1267 52.2188 71.0288 51.3847C71.0288 51.3847 71.2675 46.5585 70.4349 44.1176C69.6022 41.674 66.6573 40.6314 66.6573 40.6314C66.6573 40.6314 66.5519 37.034 66.5852 33.0252C66.5962 31.8353 66.6185 30.6093 66.6573 29.4305C66.7878 25.6997 68.1284 19.4362 68.8583 16.2696C69.1359 15.0658 69.3246 14.3069 69.3246 14.3069C69.3246 14.3069 72.4832 15.2188 74.8785 16.1112C75.1893 16.2252 75.4835 16.3419 75.7583 16.4531C77.9398 17.3427 78.5672 19.2805 78.5977 21.2293C78.6032 21.4323 78.6004 21.6352 78.5921 21.8354C78.5005 23.9816 77.543 29.8475 77.2459 32.3217C76.9489 34.7933 76.6797 36.7281 76.7686 39.5888C76.8574 42.4496 78.198 48.3155 79.0585 49.5971Z" fill="url(#paint39_linear_236_31762)"/>
<path d="M73.5235 26.7607C71.8801 27.8167 69.476 30.0633 68.0616 32.0449C68.0547 32.4681 68.0475 32.8923 68.0436 33.3101C68.0366 34.1534 66.2029 34.395 66.2059 35.1722C68.5895 35.8934 74.049 37.0246 74.869 33.6907C75.7455 30.1272 78.2145 21.6979 78.2145 21.6979C78.2145 21.6979 76.514 24.8391 73.5235 26.7607Z" fill="url(#paint40_linear_236_31762)"/>
<path d="M78.9763 21.0983V21.7165L72.0786 34.4488C71.7146 35.1206 71.0127 35.539 70.2495 35.539H55.2731C55.2731 33.7069 54.5265 33.3288 54.5265 33.3288L61.0934 32.531L68.2322 31.6636L73.9884 17.8179C73.9884 17.8179 74.9392 16.0895 76.2774 16.795C77.6156 17.5004 79.0068 19.3329 78.9763 21.0983Z" fill="url(#paint41_linear_236_31762)"/>
<path d="M48.4417 34.2672C48.4417 34.2672 47.93 33.9891 47.9614 33.7121C47.9928 33.435 48.4361 33.6711 48.9927 33.7927C49.5492 33.9142 51.644 34.0102 52.005 34.0185C52.366 34.0268 49.1721 34.7594 48.4417 34.2672Z" fill="url(#paint42_linear_236_31762)"/>
<path d="M54.4324 33.3779C54.4324 33.3779 51.0286 34.2292 49.8139 34.2242C48.5993 34.2193 47.8519 33.9584 47.7602 34.2177C47.6685 34.4771 48.4454 34.7769 49.0897 34.877C49.0897 34.877 49.0276 35.2242 49.2964 35.3452C49.5652 35.4663 50.9156 35.2704 51.7502 35.355C52.5846 35.4397 52.5846 35.4397 52.5846 35.4397C52.5846 35.4397 55.252 35.8773 56.0569 34.9147C56.0569 34.9147 55.8386 33.1453 54.4324 33.3779Z" fill="url(#paint43_linear_236_31762)"/>
<path d="M49.7097 35.0081C49.3334 35.0081 49.1017 34.9832 49.0781 34.9807L49.1014 34.7734C49.115 34.7746 50.5665 34.9297 52.2594 34.4368L52.3175 34.6368C51.2558 34.9463 50.3031 35.0081 49.7097 35.0081Z" fill="#FF9C85"/>
<path d="M69.3244 14.3069C69.3244 14.3069 68.8637 16.1584 68.3225 18.68L66.3879 15.9833L69.3244 14.3069Z" fill="white"/>
<path d="M44.2238 34.8378C44.4553 33.8319 44.097 32.9772 43.8374 32.5276L42.671 32.6721C42.671 32.6721 43.4925 33.1085 43.4176 34.8378H44.2238Z" fill="url(#paint44_linear_236_31762)"/>
<path d="M44.8348 21.7549V31.1966H43.0124L44.8348 21.7549Z" fill="url(#paint45_linear_236_31762)"/>
<path d="M103.235 79.8779H80.4154C80.1449 79.8779 79.9256 79.6583 79.9256 79.3873V37.811H103.725V79.3873C103.725 79.6583 103.506 79.8779 103.235 79.8779Z" fill="url(#paint46_linear_236_31762)"/>
<path d="M84.5687 79.8777H82.1568C80.9244 79.8777 79.9252 78.8769 79.9252 77.6425V37.8097H82.3372V77.6425C82.3372 78.8769 83.3364 79.8777 84.5687 79.8777Z" fill="url(#paint47_linear_236_31762)"/>
<path d="M103.725 37.8097H82.3372V40.255H103.725V37.8097Z" fill="url(#paint48_linear_236_31762)"/>
<path d="M138.534 24.3383L134.762 38.2615C134.543 39.068 133.812 39.6278 132.978 39.6278H118.571V7.8457H137.536C138.575 7.8457 139.417 8.68922 139.417 9.72971V17.7005C139.417 19.9425 139.12 22.1746 138.534 24.3383Z" fill="url(#paint49_linear_236_31762)"/>
<path d="M134.762 38.2615L138.534 24.3383C139.12 22.1746 139.417 19.9425 139.417 17.7005V9.72971C139.417 8.68922 138.575 7.8457 137.536 7.8457C137.003 7.8457 136.571 8.27857 136.571 8.81247V17.7005C136.571 19.9425 136.274 22.1746 135.688 24.3383L131.921 38.2429C131.731 38.9408 132.256 39.6278 132.978 39.6278C133.812 39.6278 134.543 39.068 134.762 38.2615Z" fill="url(#paint50_linear_236_31762)"/>
<path d="M94.9405 48.7716H130.767C130.929 48.7716 131.061 48.9034 131.061 49.0659V51.1588C131.061 51.3214 130.929 51.4531 130.767 51.4531H94.9405C94.7782 51.4531 94.6467 51.3214 94.6467 51.1588V49.0659C94.6466 48.9034 94.7782 48.7716 94.9405 48.7716Z" fill="url(#paint51_linear_236_31762)"/>
<path d="M131.061 50.1124C131.061 49.3719 130.461 48.7716 129.722 48.7716H108.046C107.307 48.7716 106.708 49.3719 106.708 50.1124C106.708 50.8529 107.307 51.4532 108.046 51.4532H129.722C130.461 51.4532 131.061 50.8529 131.061 50.1124Z" fill="url(#paint52_linear_236_31762)"/>
<path d="M129.246 48.7715C129.251 43.156 128.142 39.6279 128.142 39.6279H124.449C124.449 39.6279 125.558 43.156 125.554 48.7715H129.246Z" fill="url(#paint53_linear_236_31762)"/>
<path d="M123.699 54.0446H105.621C105.092 54.0446 104.606 53.7533 104.356 53.2865L103.375 51.4531H125.946L124.964 53.2865C124.714 53.7533 124.228 54.0446 123.699 54.0446Z" fill="url(#paint54_linear_236_31762)"/>
<path d="M116.021 54.0446H113.3V70.7003H116.021V54.0446Z" fill="url(#paint55_linear_236_31762)"/>
<path d="M116.762 75.785H112.559C112.496 75.785 112.445 75.7339 112.445 75.671V69.7071C112.445 69.6441 112.496 69.5931 112.559 69.5931H116.762C116.825 69.5931 116.876 69.6442 116.876 69.7071V75.671C116.876 75.7339 116.825 75.785 116.762 75.785Z" fill="url(#paint56_linear_236_31762)"/>
<path d="M132.445 76.651L131.927 75.0678C131.882 74.9299 131.754 74.8367 131.609 74.8367H130.613H129.617C129.472 74.8367 129.344 74.9299 129.298 75.0678L128.78 76.651C128.716 76.8467 128.862 77.048 129.068 77.048H130.613H132.158C132.364 77.0481 132.509 76.8467 132.445 76.651Z" fill="url(#paint57_linear_236_31762)"/>
<path d="M130.613 79.8778C131.697 79.8778 132.575 78.9977 132.575 77.9122C132.575 76.8266 131.697 75.9465 130.613 75.9465C129.529 75.9465 128.65 76.8266 128.65 77.9122C128.65 78.9977 129.529 79.8778 130.613 79.8778Z" fill="url(#paint58_linear_236_31762)"/>
<path d="M130.613 79.1631C131.303 79.1631 131.862 78.603 131.862 77.9121C131.862 77.2211 131.303 76.661 130.613 76.661C129.923 76.661 129.364 77.2211 129.364 77.9121C129.364 78.603 129.923 79.1631 130.613 79.1631Z" fill="url(#paint59_linear_236_31762)"/>
<path d="M116.493 76.651L115.974 75.0678C115.929 74.9299 115.801 74.8367 115.656 74.8367H114.66H113.664C113.519 74.8367 113.391 74.9299 113.346 75.0678L112.828 76.651C112.764 76.8467 112.909 77.048 113.115 77.048H114.66H116.205C116.411 77.0481 116.557 76.8467 116.493 76.651Z" fill="url(#paint60_linear_236_31762)"/>
<path d="M114.66 79.8778C115.744 79.8778 116.623 78.9977 116.623 77.9122C116.623 76.8266 115.744 75.9465 114.66 75.9465C113.576 75.9465 112.698 76.8266 112.698 77.9122C112.698 78.9977 113.576 79.8778 114.66 79.8778Z" fill="url(#paint61_linear_236_31762)"/>
<path d="M114.66 79.1631C115.35 79.1631 115.909 78.603 115.909 77.9121C115.909 77.2211 115.35 76.661 114.66 76.661C113.97 76.661 113.411 77.2211 113.411 77.9121C113.411 78.603 113.97 79.1631 114.66 79.1631Z" fill="url(#paint62_linear_236_31762)"/>
<path d="M116.876 73.0186L129.207 75.3486L128.78 76.651L116.876 75.4387V73.0186Z" fill="url(#paint63_linear_236_31762)"/>
<path d="M96.8753 76.651L97.3934 75.0678C97.4386 74.9299 97.567 74.8367 97.7118 74.8367H98.7078H99.7038C99.8487 74.8367 99.9771 74.9299 100.022 75.0678L100.54 76.651C100.604 76.8467 100.459 77.048 100.253 77.048H98.7078H97.1625C96.9569 77.0481 96.8112 76.8467 96.8753 76.651Z" fill="url(#paint64_linear_236_31762)"/>
<path d="M98.7079 79.8778C99.7917 79.8778 100.67 78.9977 100.67 77.9122C100.67 76.8266 99.7917 75.9465 98.7079 75.9465C97.624 75.9465 96.7454 76.8266 96.7454 77.9122C96.7454 78.9977 97.624 79.8778 98.7079 79.8778Z" fill="url(#paint65_linear_236_31762)"/>
<path d="M98.7078 79.1631C99.3976 79.1631 99.9568 78.603 99.9568 77.9121C99.9568 77.2211 99.3976 76.661 98.7078 76.661C98.018 76.661 97.4587 77.2211 97.4587 77.9121C97.4587 78.603 98.018 79.1631 98.7078 79.1631Z" fill="url(#paint66_linear_236_31762)"/>
<path d="M112.445 73.0186L100.114 75.3486L100.54 76.651L112.445 75.4387V73.0186Z" fill="url(#paint67_linear_236_31762)"/>
<path d="M112.891 7.50331C112.891 7.50331 111.746 6.28209 111.508 4.50976C111.27 2.73743 112.073 0.123698 115.33 0.190717C118.586 0.257735 119.824 1.5088 120.247 2.33532C120.247 2.33532 121.396 2.07839 121.53 3.08367C121.664 4.08895 120.772 6.36759 120.749 6.69154C120.727 7.01556 118.192 10.4373 112.891 7.50331Z" fill="url(#paint68_linear_236_31762)"/>
<path d="M95.5225 78.7197L94.6318 75.0886L91.0744 74.761C91.0744 74.761 88.7585 76.0865 87.108 76.8163C85.4576 77.5461 82.9001 78.246 82.5729 78.8716L82.5633 78.8903C82.3302 79.3403 82.6563 79.8778 83.1626 79.8778H91.4229C91.7097 79.8778 91.9895 79.7906 92.2257 79.6277L92.8652 79.1868C92.944 79.1325 93.0525 79.1611 93.0945 79.2471L93.294 79.656C93.3603 79.7917 93.4979 79.8778 93.6487 79.8778H94.6159C95.2216 79.8777 95.6669 79.3089 95.5225 78.7197Z" fill="url(#paint69_linear_236_31762)"/>
<path d="M103.463 78.7197L102.572 75.0886L99.0144 74.761C99.0144 74.761 96.6986 76.0865 95.0481 76.8163C93.3977 77.5461 90.8401 78.246 90.513 78.8716L90.5033 78.8903C90.2703 79.3403 90.5964 79.8778 91.1026 79.8778H99.363C99.6497 79.8778 99.9296 79.7906 100.166 79.6277L100.805 79.1868C100.884 79.1325 100.993 79.1611 101.035 79.2471L101.234 79.656C101.3 79.7917 101.438 79.8778 101.589 79.8778H102.556C103.162 79.8777 103.607 79.3089 103.463 78.7197Z" fill="url(#paint70_linear_236_31762)"/>
<path d="M111.913 39.0355L90.517 42.5687C89.1436 42.7955 88.1706 44.0356 88.2754 45.4259L90.4834 74.7312C90.4834 74.7312 91.896 76.2205 94.84 75.0738L95.4236 48.7715H121.173V39.0774L111.913 39.0355Z" fill="url(#paint71_linear_236_31762)"/>
<path d="M120.325 39.0355L98.6403 42.5528C97.2126 42.7844 96.2009 44.0743 96.3143 45.5186L98.6129 74.7834C98.6129 74.7834 99.9511 76.202 102.895 75.1185L103.553 48.7715H123.193C126.542 48.7715 129.204 45.9549 129.021 42.6053L128.801 38.5704L120.325 39.0355Z" fill="url(#paint72_linear_236_31762)"/>
<path d="M86.4759 33.1881C86.4759 33.1881 85.9642 32.91 85.9956 32.633C86.027 32.3559 86.4702 32.592 87.0268 32.7136C87.5834 32.8351 89.6781 32.9311 90.0391 32.9394C90.4002 32.9477 87.2063 33.6803 86.4759 33.1881Z" fill="url(#paint73_linear_236_31762)"/>
<path d="M92.4665 32.2987C92.4665 32.2987 89.0626 33.1499 87.848 33.145C86.6333 33.1401 85.886 32.8792 85.7943 33.1385C85.7026 33.3978 86.4794 33.6977 87.1237 33.7978C87.1237 33.7978 87.0617 34.1449 87.3305 34.266C87.5992 34.387 88.9497 34.1911 89.7842 34.2758C90.6188 34.3604 90.6187 34.3604 90.6187 34.3604C90.6187 34.3604 93.2861 34.7981 94.091 33.8354C94.091 33.8354 93.8726 32.0661 92.4665 32.2987Z" fill="url(#paint74_linear_236_31762)"/>
<path d="M87.7439 33.929C87.3676 33.929 87.1359 33.9041 87.1123 33.9016L87.1356 33.6943C87.1491 33.6955 88.6007 33.8506 90.2936 33.3577L90.3516 33.5577C89.29 33.8672 88.3372 33.929 87.7439 33.929Z" fill="#FF9C85"/>
<path d="M114.585 14.0123L113.605 22.0829L111.648 27.6986L109.669 33.3783C109.445 34.026 108.834 34.4598 108.148 34.4598H93.1604C93.2714 32.6277 92.3555 32.2941 92.3555 32.2941L106.036 30.5565L108.545 17.1733C108.765 16.0057 109.658 15.0827 110.818 14.8325L111.648 14.6518L114.585 14.0123Z" fill="url(#paint75_linear_236_31762)"/>
<path d="M110.557 25.4123C109.218 28.0038 110.623 28.4505 110.283 31.6176L111.648 27.6987V20.0582C111.589 21.1032 111.355 23.8662 110.557 25.4123Z" fill="url(#paint76_linear_236_31762)"/>
<path d="M111.648 20.0582V21.2144C111.688 20.508 111.648 20.0582 111.648 20.0582Z" fill="url(#paint77_linear_236_31762)"/>
<path d="M129.548 19.6782L129.531 20.6374L129.217 38.3018C129.21 38.7324 128.859 39.0775 128.429 39.0775H112.103C111.852 39.0775 111.648 38.8738 111.648 38.6224V14.6519L114.585 14.0125L120.169 14.1209L123.841 15.1161L126.708 15.8945C128.407 16.3532 129.578 17.9129 129.548 19.6782Z" fill="url(#paint78_linear_236_31762)"/>
<path d="M119.077 36.5599C122.824 37.5876 125.188 36.1578 125.589 32.7621C125.991 29.3665 128.485 22.5692 128.485 22.5692C128.485 22.5692 125.768 25.6134 123.136 29.5006C120.504 33.3877 111.648 34.4598 111.648 34.4598V36.8216C113.151 36.1234 116.055 35.7312 119.077 36.5599Z" fill="#C8E3C5"/>
<path d="M116.2 17.7128L114.585 37.0216L115.701 38.645L117.396 36.9769L116.526 17.7538L116.2 17.7128Z" fill="url(#paint79_linear_236_31762)"/>
<path d="M115.519 16.3758L116.2 17.7126C116.264 17.8376 116.433 17.8589 116.526 17.7537L117.738 16.3758L116.667 15.5811L116.534 15.6721L116.452 15.5764L115.519 16.3758Z" fill="url(#paint80_linear_236_31762)"/>
<path d="M115.062 13.952V11.8595C115.062 11.8595 113.53 12.2989 113.114 10.7053C112.698 9.11176 112.668 5.83524 112.668 5.83524C112.668 5.83524 114.527 6.8703 117.114 5.06079C117.114 5.06079 117.716 6.28949 118.898 6.59108L119.166 7.59636C119.166 7.59636 119.322 6.24477 119.998 5.93951C120.675 5.63419 121.062 6.43101 120.868 7.01929C120.675 7.60757 120.006 8.24799 120.006 8.24799L119.761 13.468L116.534 15.6723L115.062 13.952Z" fill="url(#paint81_linear_236_31762)"/>
<path d="M115.062 13.267L114.586 14.0116L115.43 16.912L116.452 15.5765L115.062 13.952V13.267Z" fill="white"/>
<path d="M116.667 15.5812L117.649 17.3812L120.169 14.1196L119.76 13.468L116.667 15.5812Z" fill="white"/>
<path d="M115.062 13.952L114.811 13.6591L115.062 13.267V13.952Z" fill="#D5D7FC"/>
<path d="M118.608 9.95325C116.98 11.517 115.062 11.8595 115.062 11.8595V13.952C118.296 12.9468 118.608 9.95325 118.608 9.95325Z" fill="url(#paint82_linear_236_31762)"/>
<path d="M129.548 19.6782L129.531 20.6374L122.633 33.3697C122.27 34.0415 121.568 34.4599 120.804 34.4599H105.828C105.828 32.6278 105.081 32.2497 105.081 32.2497L111.648 31.4519L118.787 30.5845L123.841 15.1162L126.709 15.8946C128.407 16.3532 129.578 17.9129 129.548 19.6782Z" fill="url(#paint83_linear_236_31762)"/>
<path d="M94.072 34.4598C94.1827 33.302 93.7855 32.5154 93.532 32.1447L92.3555 32.2941C92.3555 32.2941 93.2714 32.6277 93.1604 34.4598H94.072Z" fill="white"/>
<path d="M121.002 24.0907L118.872 30.6117L118.854 30.6656L118.798 30.6726L112.779 31.4042L112.768 31.3154L112.758 31.2276L118.72 30.5021L120.834 24.035L121.002 24.0907Z" fill="#C8E3C5"/>
<path d="M98.9964 33.1881C98.9964 33.1881 98.4847 32.91 98.5161 32.633C98.5475 32.3559 98.9907 32.592 99.5474 32.7136C100.104 32.8351 102.199 32.9311 102.56 32.9394C102.921 32.9477 99.7268 33.6803 98.9964 33.1881Z" fill="url(#paint84_linear_236_31762)"/>
<path d="M104.987 32.2987C104.987 32.2987 101.583 33.1499 100.369 33.145C99.154 33.1401 98.4066 32.8792 98.3149 33.1385C98.2232 33.3978 99.0001 33.6977 99.6444 33.7978C99.6444 33.7978 99.5823 34.1449 99.8511 34.266C100.12 34.387 101.47 34.1911 102.305 34.2758C103.139 34.3604 103.139 34.3604 103.139 34.3604C103.139 34.3604 105.807 34.7981 106.612 33.8354C106.612 33.8354 106.393 32.0661 104.987 32.2987Z" fill="url(#paint85_linear_236_31762)"/>
<path d="M100.264 33.929C99.8881 33.929 99.6564 33.9041 99.6328 33.9016L99.6561 33.6943C99.6697 33.6955 101.121 33.8506 102.814 33.3577L102.872 33.5577C101.81 33.8672 100.858 33.929 100.264 33.929Z" fill="#FF9C85"/>
<path d="M106.125 32.1229L105.081 32.2497C105.081 32.2497 105.828 32.6278 105.828 34.4598H106.728C106.905 33.3337 106.413 32.4999 106.125 32.1229Z" fill="white"/>
<path d="M151.868 84.3419H129.048C128.777 84.3419 128.558 84.1222 128.558 83.8513V42.275H152.357V83.8513C152.357 84.1222 152.138 84.3419 151.868 84.3419Z" fill="url(#paint86_linear_236_31762)"/>
<path d="M133.201 84.3417H130.789C129.557 84.3417 128.557 83.3409 128.557 82.1065V42.2737H130.969V82.1065C130.969 83.3409 131.969 84.3417 133.201 84.3417Z" fill="url(#paint87_linear_236_31762)"/>
<path d="M152.357 42.2737H130.969V44.7189H152.357V42.2737Z" fill="url(#paint88_linear_236_31762)"/>
<path d="M139.714 42.4462H29.539C29.4603 42.4462 29.3965 42.3403 29.3965 42.2097V39.1194C29.3965 38.9888 29.4603 38.8829 29.539 38.8829H139.714C139.793 38.8829 139.856 38.9888 139.856 39.1194V42.2097C139.856 42.3403 139.793 42.4462 139.714 42.4462Z" fill="url(#paint89_linear_236_31762)"/>
<path d="M31.6306 90.3748H8.8107C8.54024 90.3748 8.32092 90.1552 8.32092 89.8842V48.308H32.1203V89.8842C32.1203 90.1552 31.9011 90.3748 31.6306 90.3748Z" fill="url(#paint90_linear_236_31762)"/>
<path d="M12.964 90.3747H10.5521C9.31977 90.3747 8.32056 89.3738 8.32056 88.1395V48.3066H10.7326V88.1395C10.7325 89.3738 11.7317 90.3747 12.964 90.3747Z" fill="url(#paint91_linear_236_31762)"/>
<path d="M32.1204 48.3066H10.7325V50.7519H32.1204V48.3066Z" fill="url(#paint92_linear_236_31762)"/>
<path d="M67.3811 34.8354L63.6088 48.7586C63.3903 49.5651 62.6595 50.1249 61.8251 50.1249H47.418V18.3428H66.3834C67.4222 18.3428 68.2643 19.1863 68.2643 20.2268V28.1976C68.2643 30.4395 67.9673 32.6717 67.3811 34.8354Z" fill="url(#paint93_linear_236_31762)"/>
<path d="M63.6089 48.7586L67.3812 34.8354C67.9674 32.6717 68.2644 30.4395 68.2644 28.1976V20.2268C68.2644 19.1863 67.4222 18.3428 66.3834 18.3428C65.8503 18.3428 65.4182 18.7756 65.4182 19.3095V28.1976C65.4182 30.4396 65.1212 32.6717 64.535 34.8354L60.7678 48.74C60.5788 49.4379 61.1033 50.1249 61.8253 50.1249C62.6594 50.1249 63.3903 49.5651 63.6089 48.7586Z" fill="url(#paint94_linear_236_31762)"/>
<path d="M23.7876 59.2686H59.6141C59.7763 59.2686 59.9079 59.4003 59.9079 59.5629V61.6558C59.9079 61.8183 59.7763 61.9501 59.6141 61.9501H23.7876C23.6253 61.9501 23.4937 61.8183 23.4937 61.6558V59.5629C23.4937 59.4003 23.6253 59.2686 23.7876 59.2686Z" fill="url(#paint95_linear_236_31762)"/>
<path d="M59.9078 60.6094C59.9078 59.8688 59.3085 59.2686 58.5692 59.2686H36.8932C36.1539 59.2686 35.5546 59.8688 35.5546 60.6094C35.5546 61.3499 36.1539 61.9501 36.8932 61.9501H58.5692C59.3085 61.9501 59.9078 61.3499 59.9078 60.6094Z" fill="url(#paint96_linear_236_31762)"/>
<path d="M58.0935 59.2686C58.0979 53.6531 56.9888 50.125 56.9888 50.125H53.2963C53.2963 50.125 54.4053 53.6531 54.4009 59.2686H58.0935Z" fill="url(#paint97_linear_236_31762)"/>
<path d="M52.5462 64.5415H34.4683C33.9394 64.5415 33.4535 64.2502 33.2035 63.7834L32.2217 61.9501H54.7928L53.811 63.7834C53.5611 64.2502 53.0751 64.5415 52.5462 64.5415Z" fill="url(#paint98_linear_236_31762)"/>
<path d="M44.8679 64.5415H42.1469V81.1972H44.8679V64.5415Z" fill="url(#paint99_linear_236_31762)"/>
<path d="M45.609 86.2819H41.4057C41.3429 86.2819 41.2919 86.2308 41.2919 86.1679V80.2041C41.2919 80.1411 41.3429 80.0901 41.4057 80.0901H45.609C45.6719 80.0901 45.7228 80.1412 45.7228 80.2041V86.1679C45.7228 86.2308 45.6719 86.2819 45.609 86.2819Z" fill="url(#paint100_linear_236_31762)"/>
<path d="M61.2924 87.148L60.7743 85.5648C60.7292 85.427 60.6008 85.3337 60.4559 85.3337H59.4599H58.4639C58.3191 85.3337 58.1907 85.4269 58.1455 85.5648L57.6274 87.148C57.5634 87.3438 57.709 87.5451 57.9147 87.5451H59.4599H61.0052C61.2108 87.5451 61.3565 87.3438 61.2924 87.148Z" fill="url(#paint101_linear_236_31762)"/>
<path d="M59.4598 90.3747C60.5436 90.3747 61.4222 89.4947 61.4222 88.4091C61.4222 87.3235 60.5436 86.4435 59.4598 86.4435C58.376 86.4435 57.4974 87.3235 57.4974 88.4091C57.4974 89.4947 58.376 90.3747 59.4598 90.3747Z" fill="url(#paint102_linear_236_31762)"/>
<path d="M59.46 89.6602C60.1498 89.6602 60.709 89.1001 60.709 88.4091C60.709 87.7182 60.1498 87.1581 59.46 87.1581C58.7701 87.1581 58.2109 87.7182 58.2109 88.4091C58.2109 89.1001 58.7701 89.6602 59.46 89.6602Z" fill="url(#paint103_linear_236_31762)"/>
<path d="M45.3397 87.148L44.8216 85.5648C44.7764 85.427 44.648 85.3337 44.5032 85.3337H43.5072H42.5112C42.3663 85.3337 42.2379 85.4269 42.1928 85.5648L41.6747 87.148C41.6106 87.3438 41.7563 87.5451 41.9619 87.5451H43.5072H45.0524C45.2581 87.5451 45.4038 87.3438 45.3397 87.148Z" fill="url(#paint104_linear_236_31762)"/>
<path d="M43.5072 90.3747C44.5911 90.3747 45.4697 89.4947 45.4697 88.4091C45.4697 87.3235 44.5911 86.4435 43.5072 86.4435C42.4234 86.4435 41.5448 87.3235 41.5448 88.4091C41.5448 89.4947 42.4234 90.3747 43.5072 90.3747Z" fill="url(#paint105_linear_236_31762)"/>
<path d="M43.5072 89.6602C44.197 89.6602 44.7562 89.1001 44.7562 88.4091C44.7562 87.7182 44.197 87.1581 43.5072 87.1581C42.8174 87.1581 42.2582 87.7182 42.2582 88.4091C42.2582 89.1001 42.8174 89.6602 43.5072 89.6602Z" fill="url(#paint106_linear_236_31762)"/>
<path d="M45.7229 83.5155L58.0536 85.8456L57.6274 87.1479L45.7229 85.9357V83.5155Z" fill="url(#paint107_linear_236_31762)"/>
<path d="M25.7224 87.148L26.2405 85.5648C26.2856 85.427 26.4141 85.3337 26.5589 85.3337H27.5549H28.5509C28.6957 85.3337 28.8241 85.4269 28.8693 85.5648L29.3874 87.148C29.4514 87.3438 29.3058 87.5451 29.1002 87.5451H27.5549H26.0096C25.804 87.5451 25.6584 87.3438 25.7224 87.148Z" fill="url(#paint108_linear_236_31762)"/>
<path d="M27.555 90.3747C28.6388 90.3747 29.5174 89.4947 29.5174 88.4091C29.5174 87.3235 28.6388 86.4435 27.555 86.4435C26.4711 86.4435 25.5925 87.3235 25.5925 88.4091C25.5925 89.4947 26.4711 90.3747 27.555 90.3747Z" fill="url(#paint109_linear_236_31762)"/>
<path d="M27.5549 89.6602C28.2447 89.6602 28.8039 89.1001 28.8039 88.4091C28.8039 87.7182 28.2447 87.1581 27.5549 87.1581C26.8651 87.1581 26.3058 87.7182 26.3058 88.4091C26.3058 89.1001 26.8651 89.6602 27.5549 89.6602Z" fill="url(#paint110_linear_236_31762)"/>
<path d="M41.292 83.5155L28.9613 85.8456L29.3876 87.1479L41.292 85.9357V83.5155Z" fill="url(#paint111_linear_236_31762)"/>
<path d="M42.7916 18.7499H40.6795C40.5154 18.7499 40.3824 18.6167 40.3824 18.4524V15.2943C40.3824 15.13 40.5154 14.9967 40.6795 14.9967H42.7916C42.9556 14.9967 43.0886 15.1299 43.0886 15.2943V18.4524C43.0886 18.6166 42.9557 18.7499 42.7916 18.7499Z" fill="url(#paint112_linear_236_31762)"/>
<path d="M22.8511 86.1963L23.187 89.5157C23.2341 89.9744 22.8733 90.3747 22.4126 90.3747H11.488C10.9467 90.3747 10.6082 89.7743 10.8996 89.3211C11.1633 88.9068 11.6379 88.5871 12.3928 88.273C12.4539 88.2479 12.5205 88.2201 12.5982 88.1896C12.5094 88.3146 12.4372 88.4981 12.5705 88.6983C12.8092 89.0569 16.4507 89.0264 19.2012 87.8949C21.9519 86.7634 22.8511 86.1963 22.8511 86.1963Z" fill="url(#paint113_linear_236_31762)"/>
<path d="M52.4329 59.2686H23.8559L23.0371 81.2367C23.0371 81.2367 20.961 81.7565 18.7656 81.1644L16.6145 56.2939C16.4785 54.7176 17.5776 53.3026 19.1347 53.044L42.1413 49.2548C53.4988 49.0713 52.4329 59.2686 52.4329 59.2686Z" fill="url(#paint114_linear_236_31762)"/>
<path d="M18.7659 81.1632L19.142 85.5113C19.142 85.5113 14.1804 87.5358 12.5992 88.1881C12.5097 88.3132 12.4363 88.4976 12.5699 88.6984C12.8079 89.0559 16.4507 89.0261 19.2015 87.8942C21.9522 86.7623 22.8518 86.1964 22.8518 86.1964L23.0367 81.2364C23.0367 81.2364 20.9622 81.7559 18.7659 81.1632Z" fill="url(#paint115_linear_236_31762)"/>
<path d="M21.8036 88.9776C23.3984 88.9887 28.6137 88.0282 30.963 85.958L31.1375 81.2825C31.1375 81.2825 28.5625 81.724 26.8555 81.1741L27.2457 85.6154C27.2457 85.6154 21.8334 87.6558 20.5843 88.1771C20.5843 88.1771 20.2089 88.9664 21.8036 88.9776Z" fill="url(#paint116_linear_236_31762)"/>
<path d="M30.9629 85.958C28.6135 88.0282 23.3982 88.9888 21.8035 88.9776C20.2088 88.9664 20.5843 88.1771 20.5843 88.1771C19.6873 88.5514 19.1738 88.9574 18.9556 89.5616C18.8129 89.9566 19.1072 90.3748 19.5266 90.3748H30.8361C31.4459 90.3748 31.8948 89.8029 31.751 89.2093L30.9629 85.958Z" fill="url(#paint117_linear_236_31762)"/>
<path d="M50.1777 49.9835H45.6906L27.0009 53.0392C25.5459 53.2771 24.5204 54.5989 24.6497 56.0698L26.8553 81.1742C28.5623 81.7241 31.1374 81.2826 31.1374 81.2826L31.9591 59.2687H50.1777C52.7376 59.2687 54.8128 57.1902 54.8128 54.6262C54.8128 52.062 52.7376 49.9835 50.1777 49.9835Z" fill="url(#paint118_linear_236_31762)"/>
<path d="M42.1417 49.2551C42.1417 49.2551 44.4342 49.4398 45.9806 50.2142C47.527 50.9887 48.1114 24.4259 48.1114 24.4259H43.4595C43.4595 24.4259 42.2633 26.3255 41.7875 29.2445C41.3117 32.1637 42.1417 49.2551 42.1417 49.2551Z" fill="url(#paint119_linear_236_31762)"/>
<path d="M15.6309 43.685C15.6309 43.685 15.1192 43.4069 15.1506 43.1299C15.182 42.8529 15.6253 43.0889 16.1819 43.2105C16.7385 43.3322 18.8332 43.428 19.1942 43.4364C19.5552 43.4447 16.3613 44.1772 15.6309 43.685Z" fill="url(#paint120_linear_236_31762)"/>
<path d="M21.6216 42.7957C21.6216 42.7957 18.2178 43.647 17.0031 43.6421C15.7885 43.6371 15.0411 43.3763 14.9494 43.6356C14.8578 43.8949 15.6346 44.1947 16.2789 44.2948C16.2789 44.2948 16.2168 44.642 16.4856 44.7631C16.7544 44.8841 18.1048 44.6882 18.9394 44.7729C19.7738 44.8575 19.7738 44.8575 19.7738 44.8575C19.7738 44.8575 22.4412 45.2952 23.2461 44.3325C23.2461 44.3325 23.0278 42.5631 21.6216 42.7957Z" fill="url(#paint121_linear_236_31762)"/>
<path d="M16.8989 44.426C16.5226 44.426 16.2909 44.401 16.2673 44.3985L16.2906 44.1913C16.3042 44.1925 17.7557 44.3475 19.4487 43.8546L19.5067 44.0547C18.445 44.3641 17.4923 44.426 16.8989 44.426Z" fill="#FF9C85"/>
<path d="M49.2258 11.7935C49.2258 11.7935 49.4781 11.0339 50.7738 10.8998C52.0695 10.7658 53.3259 11.4919 53.6382 13.0259C53.9504 14.5599 53.2218 17.1662 50.248 16.6599C47.2742 16.1535 49.2258 11.7935 49.2258 11.7935Z" fill="url(#paint122_linear_236_31762)"/>
<path d="M41.2523 16.8237C41.2523 16.8237 40.3899 15.2897 40.955 13.0706C41.52 10.8515 43.7354 9.92811 45.9807 10.1515C48.2259 10.3749 50.0399 11.827 50.5306 13.6812C51.0213 15.5355 50.7993 16.6562 49.5939 18.0375C48.3884 19.4188 48.3002 20.1375 48.1664 20.6736C48.0326 21.2098 41.2523 16.8237 41.2523 16.8237Z" fill="url(#paint123_linear_236_31762)"/>
<path d="M43.4603 24.4266V22.1702C43.4603 22.1702 42.3228 22.55 41.8024 21.5298C41.282 20.5096 41.2522 19.8245 41.163 18.2161C41.0738 16.6076 41.163 15.0996 41.163 15.0996C41.163 15.0996 43.8543 17.5682 47.2444 16.749L47.5195 18.0708C47.5195 18.0708 47.8206 16.4288 48.7462 16.3395C49.6718 16.2501 49.6495 17.8921 48.434 18.5958L48.1106 24.4265L44.9212 26.2472L43.4603 24.4266Z" fill="url(#paint124_linear_236_31762)"/>
<path d="M46.4119 20.2788C44.8506 21.7086 43.4604 22.1702 43.4604 22.1702V23.9127C46.2929 23.0192 46.4119 20.2788 46.4119 20.2788Z" fill="url(#paint125_linear_236_31762)"/>
<path d="M43.3915 10.4483C44.0539 10.1601 44.7696 10.0006 45.4915 10.0196C46.1339 10.0365 46.733 10.1492 47.2639 10.3036C48.6379 10.7032 49.5853 12.0347 49.5853 13.5463V15.6321H48.8801V13.6628C48.8801 12.2357 47.9328 10.9786 46.5587 10.6013C45.6584 10.3542 44.5622 10.2202 43.3915 10.4483Z" fill="url(#paint126_linear_236_31762)"/>
<path d="M50.1739 19.0279H48.0619C47.8978 19.0279 47.7648 18.8947 47.7648 18.7304V15.5722C47.7648 15.4079 47.8977 15.2747 48.0619 15.2747H50.1739C50.338 15.2747 50.471 15.4079 50.471 15.5722V18.7304C50.471 18.8947 50.3379 19.0279 50.1739 19.0279Z" fill="url(#paint127_linear_236_31762)"/>
<path d="M48.278 16.6306V17.6731C48.278 18.2263 48.6084 18.7018 49.0829 18.9103C49.2384 18.9798 49.4216 18.9882 49.5853 18.9408C49.441 18.9964 49.2828 19.027 49.1191 19.027C48.3697 19.027 47.7646 18.421 47.7646 17.6731V16.6306C47.7646 15.8827 48.3697 15.2739 49.1191 15.2739C49.2828 15.2739 49.441 15.3045 49.5853 15.3601C49.4216 15.3129 49.2384 15.3212 49.0829 15.3907C48.6083 15.602 48.278 16.0774 48.278 16.6306Z" fill="url(#paint128_linear_236_31762)"/>
<path d="M44.7912 20.8126C44.7397 20.8126 44.6903 20.7838 44.6662 20.7345C44.6328 20.6655 44.6613 20.5823 44.7303 20.5486C46.818 19.5307 49.5905 17.5352 49.6183 17.5152C49.6805 17.4706 49.7674 17.4846 49.8121 17.5466C49.8569 17.6089 49.8428 17.6958 49.7807 17.7408C49.7527 17.7609 46.9613 19.7702 44.8518 20.7987C44.8323 20.8081 44.8115 20.8126 44.7912 20.8126Z" fill="white"/>
<path d="M43.8864 21.1535C43.8311 21.0209 43.8883 20.8683 44.0168 20.8047L44.535 20.5481C44.6758 20.4785 44.8459 20.5424 44.9063 20.6874C44.9615 20.82 44.9044 20.9726 44.7758 21.0363L44.2576 21.2928C44.117 21.3624 43.9468 21.2985 43.8864 21.1535Z" fill="url(#paint129_linear_236_31762)"/>
<path d="M43.4596 24.4259C41.9802 26.1912 41.7886 34.6927 41.7886 34.6927L40.4925 38.5959L38.7426 43.8728C38.528 44.52 37.9237 44.9567 37.2429 44.9567H22.2044C22.2793 43.2276 21.4578 42.791 21.4578 42.791L34.9914 41.1146C34.9914 41.1146 37.2146 29.7442 37.4394 28.5154C37.6615 27.2866 38.0528 26.1134 39.1436 25.4434C39.5794 25.1765 40.3509 24.9596 41.1226 24.7984C42.291 24.551 43.4596 24.4259 43.4596 24.4259Z" fill="url(#paint130_linear_236_31762)"/>
<path d="M38.5115 34.8468C38.374 37.8751 39.6675 38.8945 39.1067 42.7746L40.4924 38.5959L41.5499 35.4115C41.1898 32.219 40.3555 28.799 40.3555 28.799C40.3555 28.799 38.6489 31.8185 38.5115 34.8468Z" fill="url(#paint131_linear_236_31762)"/>
<path d="M42.4799 37.9427C42.6353 40.7783 42.6797 44.1311 42.4799 46.5887C42.355 48.0899 42.2245 48.8739 42.1413 49.2547L38.3859 49.872C38.5358 49.6134 39.8986 47.1586 40.426 43.9393C40.7479 41.9683 40.698 40.1723 40.4926 38.596C40.3455 37.445 40.1179 36.4109 39.8931 35.5074C39.3574 33.364 39.8681 30.1446 40.5398 28.2235C41.0089 26.8808 41.106 25.5074 41.1227 24.7985C42.2911 24.5511 43.4597 24.4259 43.4597 24.4259C43.4597 24.4259 42.6131 27.3533 42.3661 30.9285C42.1218 34.5009 42.3217 35.1043 42.4799 37.9427Z" fill="url(#paint132_linear_236_31762)"/>
<path d="M44.7919 26.0856L43.06 27.7787L43.0239 26.2468V26.2441C43.2599 25.1182 43.4597 24.4259 43.4597 24.4259L44.7919 26.0856Z" fill="white"/>
<path d="M57.8454 59.7162C57.8454 59.7162 55.9136 62.3378 49.8157 61.5037C49.8157 61.5037 50.0544 56.6775 49.2217 54.2366C48.3891 51.793 45.4442 50.7505 45.4442 50.7505C45.4442 50.7505 45.3388 47.153 45.372 43.1442C45.3831 41.9543 45.4053 40.7283 45.4442 39.5495C45.5747 35.8187 46.9152 29.5552 47.6452 26.3886C47.9228 25.1848 48.1115 24.4259 48.1115 24.4259C48.1115 24.4259 51.27 25.3378 53.6653 26.2302C53.9762 26.3442 54.2704 26.461 54.5452 26.5721C56.7267 27.4617 57.354 29.3995 57.3845 31.3483C57.3901 31.5513 57.3873 31.7542 57.379 31.9544C57.2874 34.1006 56.3298 39.9665 56.0328 42.4408C55.7358 44.9123 55.4666 46.8471 55.5554 49.7079C55.6443 52.5686 56.9849 58.4345 57.8454 59.7162Z" fill="url(#paint133_linear_236_31762)"/>
<path d="M52.4643 37.2016C50.8209 38.2576 48.4168 40.5042 47.0024 42.4859C46.9955 42.909 46.9883 43.3332 46.9844 43.751C46.9774 44.5943 46.9766 45.4187 46.9796 46.1959C49.3632 46.9171 52.9898 47.4656 53.8098 44.1316C54.6863 40.5681 57.1553 32.1388 57.1553 32.1388C57.1553 32.1388 55.4549 35.28 52.4643 37.2016Z" fill="url(#paint134_linear_236_31762)"/>
<path d="M57.7765 31.1157V31.7339L50.8787 44.4662C50.5147 45.138 49.8128 45.5564 49.0496 45.5564H34.0732C34.0732 43.7244 33.3266 43.3463 33.3266 43.3463L39.8936 42.5484L47.0323 41.6811L52.7885 27.8353C52.7885 27.8353 53.7393 26.1069 55.0775 26.8124C56.4157 27.5179 57.807 29.3504 57.7765 31.1157Z" fill="url(#paint135_linear_236_31762)"/>
<path d="M27.2419 44.2847C27.2419 44.2847 26.7302 44.0066 26.7616 43.7295C26.793 43.4525 27.2362 43.6885 27.7928 43.8102C28.3494 43.9317 30.4442 44.0277 30.8051 44.036C31.1662 44.0443 27.9722 44.7769 27.2419 44.2847Z" fill="url(#paint136_linear_236_31762)"/>
<path d="M33.2325 43.3953C33.2325 43.3953 29.8287 44.2466 28.614 44.2417C27.3994 44.2368 26.652 43.9759 26.5603 44.2352C26.4686 44.4945 27.2455 44.7943 27.8898 44.8944C27.8898 44.8944 27.8277 45.2416 28.0965 45.3627C28.3653 45.4837 29.7157 45.2878 30.5503 45.3725C31.3847 45.4571 31.3847 45.4571 31.3847 45.4571C31.3847 45.4571 34.0521 45.8948 34.857 44.9321C34.857 44.9321 34.6387 43.1628 33.2325 43.3953Z" fill="url(#paint137_linear_236_31762)"/>
<path d="M28.5099 45.0257C28.1336 45.0257 27.9019 45.0007 27.8783 44.9983L27.9016 44.791C27.9152 44.7922 29.3667 44.9473 31.0596 44.4543L31.1177 44.6544C30.056 44.9638 29.1032 45.0257 28.5099 45.0257Z" fill="#FF9C85"/>
<path d="M34.3699 43.2196L33.3266 43.3464C33.3266 43.3464 34.0732 43.7245 34.0732 45.5565H34.9733C35.1504 44.4304 34.6585 43.5965 34.3699 43.2196Z" fill="white"/>
<path d="M48.1113 24.4259C48.1113 24.4259 47.6505 26.2774 47.1093 28.799L45.1748 26.1023L48.1113 24.4259Z" fill="white"/>
<path d="M23.0106 44.9568C23.2421 43.9509 22.8838 43.0963 22.6242 42.6466L21.4578 42.7911C21.4578 42.7911 22.2793 43.2276 22.2044 44.9568H23.0106Z" fill="url(#paint138_linear_236_31762)"/>
<path d="M77.6013 90.3747H54.7814C54.511 90.3747 54.2916 90.1551 54.2916 89.8841V48.3079H78.091V89.8841C78.091 90.1551 77.8718 90.3747 77.6013 90.3747Z" fill="url(#paint139_linear_236_31762)"/>
<path d="M58.9347 90.3746H56.5228C55.2905 90.3746 54.2913 89.3737 54.2913 88.1394V48.3065H56.7032V88.1394C56.7032 89.3737 57.7024 90.3746 58.9347 90.3746Z" fill="url(#paint140_linear_236_31762)"/>
<path d="M78.091 48.3065H56.7031V50.7518H78.091V48.3065Z" fill="url(#paint141_linear_236_31762)"/>
<path d="M112.9 34.8353L109.128 48.7585C108.909 49.5649 108.178 50.1248 107.344 50.1248H92.9368V18.3427H111.902C112.941 18.3427 113.783 19.1862 113.783 20.2267V28.1974C113.783 30.4394 113.486 32.6715 112.9 34.8353Z" fill="url(#paint142_linear_236_31762)"/>
<path d="M109.128 48.7585L112.9 34.8353C113.486 32.6715 113.783 30.4394 113.783 28.1974V20.2267C113.783 19.1862 112.941 18.3427 111.902 18.3427C111.369 18.3427 110.937 18.7755 110.937 19.3094V28.1974C110.937 30.4395 110.64 32.6715 110.054 34.8353L106.287 48.7399C106.097 49.4377 106.622 50.1248 107.344 50.1248C108.178 50.1248 108.909 49.5649 109.128 48.7585Z" fill="url(#paint143_linear_236_31762)"/>
<path d="M69.3065 59.2684H105.133C105.295 59.2684 105.427 59.4002 105.427 59.5628V61.6556C105.427 61.8182 105.295 61.95 105.133 61.95H69.3065C69.1443 61.95 69.0127 61.8182 69.0127 61.6556V59.5628C69.0126 59.4002 69.1442 59.2684 69.3065 59.2684Z" fill="url(#paint144_linear_236_31762)"/>
<path d="M105.427 60.6092C105.427 59.8687 104.827 59.2684 104.088 59.2684H82.4122C81.6728 59.2684 81.0735 59.8687 81.0735 60.6092C81.0735 61.3498 81.6728 61.95 82.4122 61.95H104.088C104.827 61.95 105.427 61.3498 105.427 60.6092Z" fill="url(#paint145_linear_236_31762)"/>
<path d="M103.612 59.2685C103.617 53.653 102.508 50.1249 102.508 50.1249H98.8152C98.8152 50.1249 99.9243 53.653 99.9199 59.2685H103.612Z" fill="url(#paint146_linear_236_31762)"/>
<path d="M98.0653 64.5414H79.9873C79.4585 64.5414 78.9724 64.2501 78.7225 63.7833L77.7407 61.95H100.312L99.33 63.7833C99.0801 64.2501 98.5941 64.5414 98.0653 64.5414Z" fill="url(#paint147_linear_236_31762)"/>
<path d="M90.3869 64.5414H87.6659V81.1971H90.3869V64.5414Z" fill="url(#paint148_linear_236_31762)"/>
<path d="M91.128 86.2818H86.9247C86.8618 86.2818 86.8109 86.2307 86.8109 86.1678V80.204C86.8109 80.141 86.8619 80.09 86.9247 80.09H91.128C91.1909 80.09 91.2418 80.141 91.2418 80.204V86.1678C91.2419 86.2307 91.1909 86.2818 91.128 86.2818Z" fill="url(#paint149_linear_236_31762)"/>
<path d="M106.811 87.1479L106.293 85.5647C106.248 85.4269 106.12 85.3336 105.975 85.3336H104.979H103.983C103.838 85.3336 103.71 85.4268 103.665 85.5647L103.146 87.1479C103.082 87.3437 103.228 87.545 103.434 87.545H104.979H106.524C106.73 87.545 106.875 87.3437 106.811 87.1479Z" fill="url(#paint150_linear_236_31762)"/>
<path d="M104.979 90.3746C106.063 90.3746 106.941 89.4946 106.941 88.409C106.941 87.3234 106.063 86.4434 104.979 86.4434C103.895 86.4434 103.016 87.3234 103.016 88.409C103.016 89.4946 103.895 90.3746 104.979 90.3746Z" fill="url(#paint151_linear_236_31762)"/>
<path d="M104.979 89.6601C105.669 89.6601 106.228 89.1 106.228 88.409C106.228 87.7181 105.669 87.158 104.979 87.158C104.289 87.158 103.73 87.7181 103.73 88.409C103.73 89.1 104.289 89.6601 104.979 89.6601Z" fill="url(#paint152_linear_236_31762)"/>
<path d="M90.8587 87.1479L90.3406 85.5647C90.2955 85.4269 90.1671 85.3336 90.0222 85.3336H89.0263H88.0303C87.8854 85.3336 87.7569 85.4268 87.7119 85.5647L87.1938 87.1479C87.1298 87.3437 87.2753 87.545 87.481 87.545H89.0263H90.5715C90.7772 87.545 90.9228 87.3437 90.8587 87.1479Z" fill="url(#paint153_linear_236_31762)"/>
<path d="M89.0264 90.3746C90.1102 90.3746 90.9888 89.4946 90.9888 88.409C90.9888 87.3234 90.1102 86.4434 89.0264 86.4434C87.9426 86.4434 87.064 87.3234 87.064 88.409C87.064 89.4946 87.9426 90.3746 89.0264 90.3746Z" fill="url(#paint154_linear_236_31762)"/>
<path d="M89.0263 89.6601C89.7161 89.6601 90.2753 89.1 90.2753 88.409C90.2753 87.7181 89.7161 87.158 89.0263 87.158C88.3365 87.158 87.7773 87.7181 87.7773 88.409C87.7773 89.1 88.3365 89.6601 89.0263 89.6601Z" fill="url(#paint155_linear_236_31762)"/>
<path d="M91.2419 83.5154L103.573 85.8455L103.146 87.1478L91.2419 85.9355V83.5154Z" fill="url(#paint156_linear_236_31762)"/>
<path d="M71.2412 87.1479L71.7593 85.5647C71.8045 85.4269 71.9329 85.3336 72.0777 85.3336H73.0737H74.0697C74.2146 85.3336 74.343 85.4268 74.3881 85.5647L74.9062 87.1479C74.9703 87.3437 74.8246 87.545 74.619 87.545H73.0737H71.5284C71.3228 87.545 71.1771 87.3437 71.2412 87.1479Z" fill="url(#paint157_linear_236_31762)"/>
<path d="M73.0738 90.3746C74.1576 90.3746 75.0362 89.4946 75.0362 88.409C75.0362 87.3234 74.1576 86.4434 73.0738 86.4434C71.9899 86.4434 71.1113 87.3234 71.1113 88.409C71.1113 89.4946 71.9899 90.3746 73.0738 90.3746Z" fill="url(#paint158_linear_236_31762)"/>
<path d="M73.0737 89.6601C73.7635 89.6601 74.3227 89.1 74.3227 88.409C74.3227 87.7181 73.7635 87.158 73.0737 87.158C72.3839 87.158 71.8246 87.7181 71.8246 88.409C71.8246 89.1 72.3839 89.6601 73.0737 89.6601Z" fill="url(#paint159_linear_236_31762)"/>
<path d="M86.8108 83.5154L74.4801 85.8455L74.9063 87.1478L86.8108 85.9355V83.5154Z" fill="url(#paint160_linear_236_31762)"/>
<path d="M87.257 18.0001C87.257 18.0001 86.112 16.7789 85.8741 15.0066C85.6362 13.2343 86.4391 10.6205 89.6954 10.6875C92.9518 10.7546 94.1896 12.0056 94.6134 12.8321C94.6134 12.8321 95.762 12.5752 95.8958 13.5805C96.0296 14.5858 95.1375 16.8644 95.1152 17.1884C95.0929 17.5124 92.5578 20.9341 87.257 18.0001Z" fill="url(#paint161_linear_236_31762)"/>
<path d="M69.8884 89.2167L68.9977 85.5855L65.4403 85.2579C65.4403 85.2579 63.1245 86.5834 61.474 87.3132C59.8236 88.043 57.266 88.743 56.9389 89.3685L56.9292 89.3872C56.6962 89.8373 57.0223 90.3747 57.5286 90.3747H65.7889C66.0756 90.3747 66.3555 90.2875 66.5917 90.1247L67.2312 89.6838C67.3099 89.6295 67.4185 89.658 67.4604 89.744L67.66 90.1529C67.7262 90.2886 67.8639 90.3747 68.0147 90.3747H68.9819C69.5876 90.3746 70.0329 89.8058 69.8884 89.2167Z" fill="url(#paint162_linear_236_31762)"/>
<path d="M77.8284 89.2167L76.9377 85.5855L73.3803 85.2579C73.3803 85.2579 71.0645 86.5834 69.414 87.3132C67.7636 88.043 65.2061 88.743 64.8789 89.3685L64.8693 89.3872C64.6362 89.8373 64.9623 90.3747 65.4686 90.3747H73.7289C74.0156 90.3747 74.2955 90.2875 74.5317 90.1247L75.1712 89.6838C75.2499 89.6295 75.3585 89.658 75.4004 89.744L75.6 90.1529C75.6662 90.2886 75.8039 90.3747 75.9547 90.3747H76.9219C77.5277 90.3746 77.9729 89.8058 77.8284 89.2167Z" fill="url(#paint163_linear_236_31762)"/>
<path d="M86.2794 49.5325L64.883 53.0656C63.5095 53.2924 62.5365 54.5326 62.6413 55.9228L64.8493 85.2282C64.8493 85.2282 66.2619 86.7175 69.2059 85.5707L69.7895 59.2685H95.5389V49.5744L86.2794 49.5325Z" fill="url(#paint164_linear_236_31762)"/>
<path d="M94.6914 49.5324L73.0062 53.0497C71.5785 53.2813 70.5668 54.5712 70.6802 56.0155L72.9788 85.2803C72.9788 85.2803 74.317 86.6989 77.2611 85.6154L77.9191 59.2685H97.5589C100.908 59.2685 103.57 56.4519 103.387 53.1023L103.167 49.0674L94.6914 49.5324Z" fill="url(#paint165_linear_236_31762)"/>
<path d="M60.8417 43.6849C60.8417 43.6849 60.33 43.4068 60.3614 43.1298C60.3928 42.8528 60.836 43.0888 61.3926 43.2104C61.9492 43.332 64.0439 43.4279 64.4048 43.4362C64.7659 43.4446 61.5721 44.1771 60.8417 43.6849Z" fill="url(#paint166_linear_236_31762)"/>
<path d="M66.8324 42.7956C66.8324 42.7956 63.4286 43.6469 62.2139 43.642C60.9992 43.637 60.2519 43.3761 60.1602 43.6355C60.0685 43.8948 60.8453 44.1946 61.4896 44.2947C61.4896 44.2947 61.4276 44.6419 61.6964 44.7629C61.9651 44.884 63.3156 44.6881 64.1501 44.7727C64.9847 44.8574 64.9846 44.8574 64.9846 44.8574C64.9846 44.8574 67.652 45.2951 68.4569 44.3324C68.4569 44.3324 68.2385 42.563 66.8324 42.7956Z" fill="url(#paint167_linear_236_31762)"/>
<path d="M62.1096 44.4258C61.7334 44.4258 61.5017 44.4009 61.4781 44.3984L61.5014 44.1911C61.5149 44.1923 62.9664 44.3474 64.6594 43.8545L64.7174 44.0546C63.6558 44.364 62.703 44.4258 62.1096 44.4258Z" fill="#FF9C85"/>
<path d="M88.9507 24.5092L87.971 32.5797L86.0142 38.1954L84.0352 43.8751C83.8104 44.5229 83.1998 44.9566 82.5143 44.9566H67.5263C67.6373 43.1245 66.7214 42.7909 66.7214 42.7909L80.402 41.0533L82.9112 27.6701C83.1304 26.5025 84.0242 25.5795 85.1843 25.3293L86.0142 25.1486L88.9507 24.5092Z" fill="url(#paint168_linear_236_31762)"/>
<path d="M84.9225 35.9092C83.5843 38.5006 84.9894 38.9474 84.6488 42.1145L86.0143 38.1955V30.5551C85.9551 31.6 85.7209 34.363 84.9225 35.9092Z" fill="url(#paint169_linear_236_31762)"/>
<path d="M86.014 30.5551V31.7112C86.054 31.0049 86.014 30.5551 86.014 30.5551Z" fill="url(#paint170_linear_236_31762)"/>
<path d="M103.914 30.175L103.897 31.1342L103.583 48.7986C103.576 49.2293 103.225 49.5744 102.795 49.5744H86.4685C86.2176 49.5744 86.0142 49.3706 86.0142 49.1193V25.1487L88.9507 24.5093L94.5351 24.6177L98.2071 25.613L101.074 26.3914C102.773 26.8501 103.944 28.4097 103.914 30.175Z" fill="url(#paint171_linear_236_31762)"/>
<path d="M93.4424 47.0569C97.1894 48.0845 99.5536 46.6548 99.955 43.2591C100.356 39.8634 102.85 33.0662 102.85 33.0662C102.85 33.0662 100.133 36.1104 97.5016 39.9975C94.8698 43.8847 86.0142 44.9568 86.0142 44.9568V47.3186C87.5172 46.6203 90.4206 46.2282 93.4424 47.0569Z" fill="url(#paint172_linear_236_31762)"/>
<path d="M90.5662 28.2096L88.9506 47.5184L90.067 49.1418L91.7621 47.4738L90.8919 28.2506L90.5662 28.2096Z" fill="url(#paint173_linear_236_31762)"/>
<path d="M89.8849 26.8727L90.5663 28.2096C90.63 28.3345 90.7994 28.3559 90.892 28.2506L92.1042 26.8727L91.033 26.078L90.8998 26.169L90.818 26.0734L89.8849 26.8727Z" fill="url(#paint174_linear_236_31762)"/>
<path d="M89.4278 24.4488V22.3564C89.4278 22.3564 87.8963 22.7957 87.48 21.2021C87.0637 19.6086 87.0339 16.3321 87.0339 16.3321C87.0339 16.3321 88.8925 17.3671 91.4798 15.5576C91.4798 15.5576 92.082 16.7863 93.2641 17.0879L93.5317 18.0932C93.5317 18.0932 93.6879 16.7416 94.3644 16.4363C95.0409 16.131 95.4275 16.9278 95.2342 17.5161C95.0409 18.1044 94.3718 18.7448 94.3718 18.7448L94.1264 23.9649L90.8998 26.1691L89.4278 24.4488Z" fill="url(#paint175_linear_236_31762)"/>
<path d="M89.4277 23.7638L88.9519 24.5084L89.7957 27.4088L90.8179 26.0733L89.4277 24.4489V23.7638Z" fill="white"/>
<path d="M91.033 26.078L92.015 27.878L94.5352 24.6164L94.1264 23.9648L91.033 26.078Z" fill="white"/>
<path d="M89.4277 24.4489L89.177 24.156L89.4277 23.7638V24.4489Z" fill="#D5D7FC"/>
<path d="M92.9741 20.45C91.3459 22.0137 89.4278 22.3562 89.4278 22.3562V24.4487C92.6618 23.4435 92.9741 20.45 92.9741 20.45Z" fill="url(#paint176_linear_236_31762)"/>
<path d="M103.913 30.1398L103.897 31.0989L96.9987 43.8312C96.6347 44.503 95.9328 44.9214 95.1697 44.9214H80.1933C80.1933 43.0893 79.4467 42.7113 79.4467 42.7113L86.0136 41.9134L93.1523 41.046L98.2066 25.5778L101.074 26.3562C102.772 26.8148 103.944 28.3744 103.913 30.1398Z" fill="url(#paint177_linear_236_31762)"/>
<path d="M68.4379 44.9566C68.5486 43.7989 68.1514 43.0123 67.8979 42.6415L66.7214 42.7909C66.7214 42.7909 67.6373 43.1245 67.5263 44.9566H68.4379Z" fill="white"/>
<path d="M95.3683 34.5875L93.2379 41.1085L93.2196 41.1624L93.1639 41.1694L87.1449 41.901L87.1345 41.8123L87.124 41.7244L93.0856 40.9989L95.1995 34.5319L95.3683 34.5875Z" fill="#D5D7FC"/>
<path d="M73.3625 43.6849C73.3625 43.6849 72.8508 43.4068 72.8822 43.1298C72.9136 42.8528 73.3568 43.0888 73.9135 43.2104C74.47 43.332 76.5648 43.4279 76.9257 43.4362C77.2868 43.4446 74.0928 44.1771 73.3625 43.6849Z" fill="url(#paint178_linear_236_31762)"/>
<path d="M79.3531 42.7956C79.3531 42.7956 75.9492 43.6469 74.7346 43.642C73.5199 43.637 72.7726 43.3761 72.6809 43.6355C72.5892 43.8948 73.366 44.1946 74.0103 44.2947C74.0103 44.2947 73.9483 44.6419 74.2171 44.7629C74.4858 44.884 75.8363 44.6881 76.6708 44.7727C77.5053 44.8574 77.5053 44.8574 77.5053 44.8574C77.5053 44.8574 80.1727 45.2951 80.9776 44.3324C80.9776 44.3324 80.7593 42.563 79.3531 42.7956Z" fill="url(#paint179_linear_236_31762)"/>
<path d="M74.6305 44.4258C74.2542 44.4258 74.0225 44.4009 73.9989 44.3984L74.0222 44.1911C74.0358 44.1923 75.4873 44.3474 77.1802 43.8545L77.2383 44.0546C76.1766 44.364 75.2238 44.4258 74.6305 44.4258Z" fill="#FF9C85"/>
<path d="M80.4906 42.6198L79.4473 42.7465C79.4473 42.7465 80.194 43.1246 80.194 44.9567H81.094C81.2711 43.8305 80.7793 42.9967 80.4906 42.6198Z" fill="white"/>
<path d="M123.675 90.3748H100.856C100.585 90.3748 100.366 90.1552 100.366 89.8842V48.308H124.165V89.8842C124.165 90.1552 123.946 90.3748 123.675 90.3748Z" fill="url(#paint180_linear_236_31762)"/>
<path d="M105.009 90.3747H102.597C101.365 90.3747 100.365 89.3738 100.365 88.1395V48.3066H102.777V88.1395C102.777 89.3738 103.776 90.3747 105.009 90.3747Z" fill="url(#paint181_linear_236_31762)"/>
<path d="M124.165 48.3066H102.777V50.7519H124.165V48.3066Z" fill="url(#paint182_linear_236_31762)"/>
<path d="M121.884 48.6817H1.04699C0.960689 48.6817 0.890747 48.5759 0.890747 48.4453V45.355C0.890747 45.2244 0.960689 45.1185 1.04699 45.1185H121.884C121.97 45.1185 122.04 45.2244 122.04 45.355V48.4453C122.04 48.5759 121.97 48.6817 121.884 48.6817Z" fill="url(#paint183_linear_236_31762)"/>
<path d="M128.463 45.1185H101.552C101.94 45.1185 102.255 45.6007 102.255 46.1955V47.6048C102.255 48.1996 101.94 48.6817 101.552 48.6817H128.463C128.852 48.6817 129.167 48.1996 129.167 47.6048V46.1955C129.167 45.6007 128.852 45.1185 128.463 45.1185Z" fill="url(#paint184_linear_236_31762)"/>
<path d="M154.297 38.8829H127.385C127.773 38.8829 128.088 39.3651 128.088 39.9599V41.3692C128.088 41.964 127.773 42.4462 127.385 42.4462H154.297C154.685 42.4462 155 41.964 155 41.3692V39.9599C155 39.3651 154.685 38.8829 154.297 38.8829Z" fill="url(#paint185_linear_236_31762)"/>
<defs>
<linearGradient id="paint0_linear_236_31762" x1="65.4741" y1="62.0068" x2="65.4741" y2="103.104" gradientUnits="userSpaceOnUse">
<stop stop-color="#C7D7FB"/>
<stop offset="1" stop-color="white"/>
</linearGradient>
<linearGradient id="paint1_linear_236_31762" x1="40.0043" y1="55.9515" x2="61.5509" y2="102.228" gradientUnits="userSpaceOnUse">
<stop stop-color="#B2B6BB"/>
<stop offset="1" stop-color="#E0E0E0"/>
</linearGradient>
<linearGradient id="paint2_linear_236_31762" x1="31.8554" y1="116.557" x2="31.8554" y2="57.7103" gradientUnits="userSpaceOnUse">
<stop stop-color="#B2B6BB"/>
<stop offset="1" stop-color="#E0E0E0"/>
</linearGradient>
<linearGradient id="paint3_linear_236_31762" x1="42.6396" y1="37.5343" x2="42.6396" y2="45.3847" gradientUnits="userSpaceOnUse">
<stop stop-color="#939498"/>
<stop offset="1" stop-color="#939498"/>
</linearGradient>
<linearGradient id="paint4_linear_236_31762" x1="84.497" y1="24.1148" x2="66.0672" y2="24.1148" gradientUnits="userSpaceOnUse">
<stop stop-color="#575965"/>
<stop offset="1" stop-color="#939498"/>
</linearGradient>
<linearGradient id="paint5_linear_236_31762" x1="118.516" y1="15.5083" x2="96.0295" y2="21.3287" gradientUnits="userSpaceOnUse">
<stop stop-color="#575965"/>
<stop offset="1" stop-color="#939498"/>
</linearGradient>
<linearGradient id="paint6_linear_236_31762" x1="63.2041" y1="52.1229" x2="61.6236" y2="43.2586" gradientUnits="userSpaceOnUse">
<stop stop-color="#575965"/>
<stop offset="1" stop-color="#939498"/>
</linearGradient>
<linearGradient id="paint7_linear_236_31762" x1="77.3323" y1="69.6822" x2="68.2076" y2="48.8724" gradientUnits="userSpaceOnUse">
<stop stop-color="#575965"/>
<stop offset="1" stop-color="#939498"/>
</linearGradient>
<linearGradient id="paint8_linear_236_31762" x1="76.899" y1="43.9324" x2="77.078" y2="51.2598" gradientUnits="userSpaceOnUse">
<stop stop-color="#575965"/>
<stop offset="1" stop-color="#939498"/>
</linearGradient>
<linearGradient id="paint9_linear_236_31762" x1="70.776" y1="73.8969" x2="63.8559" y2="48.7629" gradientUnits="userSpaceOnUse">
<stop stop-color="#B2B6BB"/>
<stop offset="1" stop-color="#E0E0E0"/>
</linearGradient>
<linearGradient id="paint10_linear_236_31762" x1="64.7206" y1="60.1117" x2="64.7206" y2="73.4693" gradientUnits="userSpaceOnUse">
<stop stop-color="#B2B6BB"/>
<stop offset="1" stop-color="#E0E0E0"/>
</linearGradient>
<linearGradient id="paint11_linear_236_31762" x1="66.981" y1="77.7693" x2="60.544" y2="64.422" gradientUnits="userSpaceOnUse">
<stop stop-color="#575965"/>
<stop offset="1" stop-color="#939498"/>
</linearGradient>
<linearGradient id="paint12_linear_236_31762" x1="80.6731" y1="77.2986" x2="80.6731" y2="73.3352" gradientUnits="userSpaceOnUse">
<stop stop-color="#B2B6BB"/>
<stop offset="1" stop-color="#E0E0E0"/>
</linearGradient>
<linearGradient id="paint13_linear_236_31762" x1="80.1536" y1="81.8639" x2="81.1828" y2="74.805" gradientUnits="userSpaceOnUse">
<stop stop-color="#575965"/>
<stop offset="1" stop-color="#939498"/>
</linearGradient>
<linearGradient id="paint14_linear_236_31762" x1="80.2875" y1="88.9102" x2="80.6456" y2="79.0807" gradientUnits="userSpaceOnUse">
<stop stop-color="#575965"/>
<stop offset="1" stop-color="#939498"/>
</linearGradient>
<linearGradient id="paint15_linear_236_31762" x1="64.7204" y1="77.2986" x2="64.7204" y2="73.3352" gradientUnits="userSpaceOnUse">
<stop stop-color="#B2B6BB"/>
<stop offset="1" stop-color="#E0E0E0"/>
</linearGradient>
<linearGradient id="paint16_linear_236_31762" x1="64.2011" y1="81.8639" x2="65.2303" y2="74.805" gradientUnits="userSpaceOnUse">
<stop stop-color="#575965"/>
<stop offset="1" stop-color="#939498"/>
</linearGradient>
<linearGradient id="paint17_linear_236_31762" x1="64.3559" y1="88.3299" x2="64.7139" y2="78.5004" gradientUnits="userSpaceOnUse">
<stop stop-color="#575965"/>
<stop offset="1" stop-color="#939498"/>
</linearGradient>
<linearGradient id="paint18_linear_236_31762" x1="70.1624" y1="75.0988" x2="79.5314" y2="77.2368" gradientUnits="userSpaceOnUse">
<stop stop-color="#B2B6BB"/>
<stop offset="1" stop-color="#E0E0E0"/>
</linearGradient>
<linearGradient id="paint19_linear_236_31762" x1="48.7678" y1="77.2986" x2="48.7678" y2="73.3352" gradientUnits="userSpaceOnUse">
<stop stop-color="#B2B6BB"/>
<stop offset="1" stop-color="#E0E0E0"/>
</linearGradient>
<linearGradient id="paint20_linear_236_31762" x1="49.2873" y1="81.8639" x2="48.258" y2="74.805" gradientUnits="userSpaceOnUse">
<stop stop-color="#575965"/>
<stop offset="1" stop-color="#939498"/>
</linearGradient>
<linearGradient id="paint21_linear_236_31762" x1="48.4244" y1="87.7497" x2="48.7824" y2="77.9201" gradientUnits="userSpaceOnUse">
<stop stop-color="#575965"/>
<stop offset="1" stop-color="#939498"/>
</linearGradient>
<linearGradient id="paint22_linear_236_31762" x1="59.2787" y1="75.0988" x2="49.9097" y2="77.2368" gradientUnits="userSpaceOnUse">
<stop stop-color="#B2B6BB"/>
<stop offset="1" stop-color="#E0E0E0"/>
</linearGradient>
<linearGradient id="paint23_linear_236_31762" x1="42.3231" y1="82.4398" x2="34.1015" y2="73.8747" gradientUnits="userSpaceOnUse">
<stop stop-color="#E3325D"/>
<stop offset="1" stop-color="#FF866F"/>
</linearGradient>
<linearGradient id="paint24_linear_236_31762" x1="55.0125" y1="54.1719" x2="47.6168" y2="35.8318" gradientUnits="userSpaceOnUse">
<stop stop-color="#1D164D"/>
<stop offset="1" stop-color="#4A4975"/>
</linearGradient>
<linearGradient id="paint25_linear_236_31762" x1="41.3961" y1="77.2743" x2="37.9408" y2="73.7651" gradientUnits="userSpaceOnUse">
<stop stop-color="#FFC0AC"/>
<stop offset="1" stop-color="#FFD6C7"/>
</linearGradient>
<linearGradient id="paint26_linear_236_31762" x1="52.6302" y1="80.8265" x2="47.4467" y2="75.2351" gradientUnits="userSpaceOnUse">
<stop stop-color="#FFC0AC"/>
<stop offset="1" stop-color="#FFD6C7"/>
</linearGradient>
<linearGradient id="paint27_linear_236_31762" x1="50.6279" y1="84.1874" x2="46.3363" y2="78.1176" gradientUnits="userSpaceOnUse">
<stop stop-color="#E3325D"/>
<stop offset="1" stop-color="#FF866F"/>
</linearGradient>
<linearGradient id="paint28_linear_236_31762" x1="72.8104" y1="69.4733" x2="47.4263" y2="39.966" gradientUnits="userSpaceOnUse">
<stop stop-color="#1D164D"/>
<stop offset="1" stop-color="#4A4975"/>
</linearGradient>
<linearGradient id="paint29_linear_236_31762" x1="71.726" y1="27.0736" x2="56.5596" y2="27.4299" gradientUnits="userSpaceOnUse">
<stop stop-color="#D5D7FC"/>
<stop offset="1" stop-color="#FAF1FC"/>
</linearGradient>
<linearGradient id="paint30_linear_236_31762" x1="38.9351" y1="33.783" x2="37.7871" y2="32.6368" gradientUnits="userSpaceOnUse">
<stop stop-color="#FF9C85"/>
<stop offset="1" stop-color="#FFC0AC"/>
</linearGradient>
<linearGradient id="paint31_linear_236_31762" x1="43.6047" y1="35.8855" x2="40.3671" y2="33.5671" gradientUnits="userSpaceOnUse">
<stop stop-color="#FFC0AC"/>
<stop offset="1" stop-color="#FFD6C7"/>
</linearGradient>
<linearGradient id="paint32_linear_236_31762" x1="73.5273" y1="3.5923" x2="77.6312" y2="3.2954" gradientUnits="userSpaceOnUse">
<stop stop-color="#1D164D"/>
<stop offset="1" stop-color="#4A4975"/>
</linearGradient>
<linearGradient id="paint33_linear_236_31762" x1="68.5938" y1="10.3689" x2="65.969" y2="1.37571" gradientUnits="userSpaceOnUse">
<stop stop-color="#1D164D"/>
<stop offset="1" stop-color="#4A4975"/>
</linearGradient>
<linearGradient id="paint34_linear_236_31762" x1="68.0904" y1="14.2827" x2="66.2708" y2="7.28432" gradientUnits="userSpaceOnUse">
<stop stop-color="#FFC0AC"/>
<stop offset="1" stop-color="#FFD6C7"/>
</linearGradient>
<linearGradient id="paint35_linear_236_31762" x1="65.6739" y1="11.5333" x2="67.848" y2="13.5552" gradientUnits="userSpaceOnUse">
<stop stop-color="#FF9C85"/>
<stop offset="1" stop-color="#FF9C85"/>
</linearGradient>
<linearGradient id="paint36_linear_236_31762" x1="70.6727" y1="27.5175" x2="57.8909" y2="7.94391" gradientUnits="userSpaceOnUse">
<stop stop-color="#B732E3"/>
<stop offset="1" stop-color="#FF6F98"/>
</linearGradient>
<linearGradient id="paint37_linear_236_31762" x1="64.1208" y1="29.4682" x2="56.6818" y2="20.5971" gradientUnits="userSpaceOnUse">
<stop stop-color="#E3325D"/>
<stop offset="1" stop-color="#E3325D"/>
</linearGradient>
<linearGradient id="paint38_linear_236_31762" x1="66.0564" y1="30.6802" x2="56.937" y2="28.0818" gradientUnits="userSpaceOnUse">
<stop stop-color="#B732E3"/>
<stop offset="1" stop-color="#FF6F98"/>
</linearGradient>
<linearGradient id="paint39_linear_236_31762" x1="82.4618" y1="38.2702" x2="62.7335" y2="28.8231" gradientUnits="userSpaceOnUse">
<stop stop-color="#B732E3"/>
<stop offset="1" stop-color="#FF6F98"/>
</linearGradient>
<linearGradient id="paint40_linear_236_31762" x1="73.1523" y1="28.0667" x2="71.4454" y2="37.6718" gradientUnits="userSpaceOnUse">
<stop stop-color="#E3325D"/>
<stop offset="1" stop-color="#E3325D"/>
</linearGradient>
<linearGradient id="paint41_linear_236_31762" x1="85.6445" y1="28.7955" x2="74.8768" y2="8.90383" gradientUnits="userSpaceOnUse">
<stop stop-color="#B732E3"/>
<stop offset="1" stop-color="#FF6F98"/>
</linearGradient>
<linearGradient id="paint42_linear_236_31762" x1="50.5327" y1="34.4841" x2="49.3847" y2="33.338" gradientUnits="userSpaceOnUse">
<stop stop-color="#FF9C85"/>
<stop offset="1" stop-color="#FFC0AC"/>
</linearGradient>
<linearGradient id="paint43_linear_236_31762" x1="55.2023" y1="36.5867" x2="51.9647" y2="34.2683" gradientUnits="userSpaceOnUse">
<stop stop-color="#FFC0AC"/>
<stop offset="1" stop-color="#FFD6C7"/>
</linearGradient>
<linearGradient id="paint44_linear_236_31762" x1="47.9789" y1="39.7735" x2="43.3298" y2="33.2872" gradientUnits="userSpaceOnUse">
<stop stop-color="#D5D7FC"/>
<stop offset="1" stop-color="#FAF1FC"/>
</linearGradient>
<linearGradient id="paint45_linear_236_31762" x1="44.4786" y1="26.626" x2="47.7802" y2="27.5168" gradientUnits="userSpaceOnUse">
<stop stop-color="#1D164D"/>
<stop offset="1" stop-color="#1D164D"/>
</linearGradient>
<linearGradient id="paint46_linear_236_31762" x1="87.4643" y1="52.2608" x2="116.124" y2="94.2752" gradientUnits="userSpaceOnUse">
<stop stop-color="#B2B6BB"/>
<stop offset="1" stop-color="#E0E0E0"/>
</linearGradient>
<linearGradient id="paint47_linear_236_31762" x1="82.247" y1="116.179" x2="82.247" y2="57.3323" gradientUnits="userSpaceOnUse">
<stop stop-color="#B2B6BB"/>
<stop offset="1" stop-color="#E0E0E0"/>
</linearGradient>
<linearGradient id="paint48_linear_236_31762" x1="93.0311" y1="37.1563" x2="93.0311" y2="45.0066" gradientUnits="userSpaceOnUse">
<stop stop-color="#939498"/>
<stop offset="1" stop-color="#939498"/>
</linearGradient>
<linearGradient id="paint49_linear_236_31762" x1="138.701" y1="26.9744" x2="112.405" y2="18.8965" gradientUnits="userSpaceOnUse">
<stop stop-color="#575965"/>
<stop offset="1" stop-color="#939498"/>
</linearGradient>
<linearGradient id="paint50_linear_236_31762" x1="168.456" y1="15.1303" x2="145.969" y2="20.9507" gradientUnits="userSpaceOnUse">
<stop stop-color="#575965"/>
<stop offset="1" stop-color="#939498"/>
</linearGradient>
<linearGradient id="paint51_linear_236_31762" x1="113.144" y1="51.745" x2="111.563" y2="42.8807" gradientUnits="userSpaceOnUse">
<stop stop-color="#575965"/>
<stop offset="1" stop-color="#939498"/>
</linearGradient>
<linearGradient id="paint52_linear_236_31762" x1="127.272" y1="69.3043" x2="118.147" y2="48.4945" gradientUnits="userSpaceOnUse">
<stop stop-color="#575965"/>
<stop offset="1" stop-color="#939498"/>
</linearGradient>
<linearGradient id="paint53_linear_236_31762" x1="126.839" y1="43.5543" x2="127.018" y2="50.8818" gradientUnits="userSpaceOnUse">
<stop stop-color="#575965"/>
<stop offset="1" stop-color="#939498"/>
</linearGradient>
<linearGradient id="paint54_linear_236_31762" x1="120.716" y1="73.519" x2="113.796" y2="48.385" gradientUnits="userSpaceOnUse">
<stop stop-color="#B2B6BB"/>
<stop offset="1" stop-color="#E0E0E0"/>
</linearGradient>
<linearGradient id="paint55_linear_236_31762" x1="114.66" y1="59.7338" x2="114.66" y2="73.0914" gradientUnits="userSpaceOnUse">
<stop stop-color="#B2B6BB"/>
<stop offset="1" stop-color="#E0E0E0"/>
</linearGradient>
<linearGradient id="paint56_linear_236_31762" x1="116.921" y1="77.3914" x2="110.484" y2="64.0441" gradientUnits="userSpaceOnUse">
<stop stop-color="#575965"/>
<stop offset="1" stop-color="#939498"/>
</linearGradient>
<linearGradient id="paint57_linear_236_31762" x1="130.613" y1="76.9206" x2="130.613" y2="72.9572" gradientUnits="userSpaceOnUse">
<stop stop-color="#B2B6BB"/>
<stop offset="1" stop-color="#E0E0E0"/>
</linearGradient>
<linearGradient id="paint58_linear_236_31762" x1="130.093" y1="81.486" x2="131.123" y2="74.4271" gradientUnits="userSpaceOnUse">
<stop stop-color="#575965"/>
<stop offset="1" stop-color="#939498"/>
</linearGradient>
<linearGradient id="paint59_linear_236_31762" x1="130.227" y1="88.5322" x2="130.585" y2="78.7026" gradientUnits="userSpaceOnUse">
<stop stop-color="#575965"/>
<stop offset="1" stop-color="#939498"/>
</linearGradient>
<linearGradient id="paint60_linear_236_31762" x1="114.66" y1="76.9206" x2="114.66" y2="72.9572" gradientUnits="userSpaceOnUse">
<stop stop-color="#B2B6BB"/>
<stop offset="1" stop-color="#E0E0E0"/>
</linearGradient>
<linearGradient id="paint61_linear_236_31762" x1="114.141" y1="81.486" x2="115.17" y2="74.4271" gradientUnits="userSpaceOnUse">
<stop stop-color="#575965"/>
<stop offset="1" stop-color="#939498"/>
</linearGradient>
<linearGradient id="paint62_linear_236_31762" x1="114.296" y1="87.9519" x2="114.654" y2="78.1224" gradientUnits="userSpaceOnUse">
<stop stop-color="#575965"/>
<stop offset="1" stop-color="#939498"/>
</linearGradient>
<linearGradient id="paint63_linear_236_31762" x1="120.102" y1="74.7208" x2="129.471" y2="76.8588" gradientUnits="userSpaceOnUse">
<stop stop-color="#B2B6BB"/>
<stop offset="1" stop-color="#E0E0E0"/>
</linearGradient>
<linearGradient id="paint64_linear_236_31762" x1="98.7078" y1="76.9206" x2="98.7078" y2="72.9572" gradientUnits="userSpaceOnUse">
<stop stop-color="#B2B6BB"/>
<stop offset="1" stop-color="#E0E0E0"/>
</linearGradient>
<linearGradient id="paint65_linear_236_31762" x1="99.2273" y1="81.486" x2="98.198" y2="74.4271" gradientUnits="userSpaceOnUse">
<stop stop-color="#575965"/>
<stop offset="1" stop-color="#939498"/>
</linearGradient>
<linearGradient id="paint66_linear_236_31762" x1="98.3643" y1="87.3716" x2="98.7224" y2="77.5421" gradientUnits="userSpaceOnUse">
<stop stop-color="#575965"/>
<stop offset="1" stop-color="#939498"/>
</linearGradient>
<linearGradient id="paint67_linear_236_31762" x1="109.219" y1="74.7208" x2="99.8496" y2="76.8588" gradientUnits="userSpaceOnUse">
<stop stop-color="#B2B6BB"/>
<stop offset="1" stop-color="#E0E0E0"/>
</linearGradient>
<linearGradient id="paint68_linear_236_31762" x1="117.271" y1="5.34486" x2="115.005" y2="1.86321" gradientUnits="userSpaceOnUse">
<stop stop-color="#1D164D"/>
<stop offset="1" stop-color="#4A4975"/>
</linearGradient>
<linearGradient id="paint69_linear_236_31762" x1="89.9755" y1="79.9133" x2="88.3059" y2="76.7581" gradientUnits="userSpaceOnUse">
<stop stop-color="#1D164D"/>
<stop offset="1" stop-color="#4A4975"/>
</linearGradient>
<linearGradient id="paint70_linear_236_31762" x1="97.8761" y1="81.4187" x2="96.3997" y2="76.9074" gradientUnits="userSpaceOnUse">
<stop stop-color="#1D164D"/>
<stop offset="1" stop-color="#4A4975"/>
</linearGradient>
<linearGradient id="paint71_linear_236_31762" x1="103.518" y1="54.2871" x2="88.9795" y2="37.8685" gradientUnits="userSpaceOnUse">
<stop stop-color="#1D164D"/>
<stop offset="1" stop-color="#4A4975"/>
</linearGradient>
<linearGradient id="paint72_linear_236_31762" x1="117.031" y1="64.0894" x2="107.012" y2="41.8214" gradientUnits="userSpaceOnUse">
<stop stop-color="#1D164D"/>
<stop offset="1" stop-color="#4A4975"/>
</linearGradient>
<linearGradient id="paint73_linear_236_31762" x1="88.5669" y1="33.405" x2="87.4189" y2="32.2589" gradientUnits="userSpaceOnUse">
<stop stop-color="#FF9C85"/>
<stop offset="1" stop-color="#FFC0AC"/>
</linearGradient>
<linearGradient id="paint74_linear_236_31762" x1="93.2364" y1="35.5075" x2="89.9988" y2="33.1891" gradientUnits="userSpaceOnUse">
<stop stop-color="#FFC0AC"/>
<stop offset="1" stop-color="#FFD6C7"/>
</linearGradient>
<linearGradient id="paint75_linear_236_31762" x1="120.404" y1="36.0346" x2="105.669" y2="15.3189" gradientUnits="userSpaceOnUse">
<stop stop-color="#DAFCD5"/>
<stop offset="1" stop-color="#F2FCF1"/>
</linearGradient>
<linearGradient id="paint76_linear_236_31762" x1="111.384" y1="25.9592" x2="105.677" y2="24.3115" gradientUnits="userSpaceOnUse">
<stop stop-color="#D5D7FC"/>
<stop offset="1" stop-color="#D5D7FC"/>
</linearGradient>
<linearGradient id="paint77_linear_236_31762" x1="111.825" y1="21.6843" x2="111.622" y2="20.485" gradientUnits="userSpaceOnUse">
<stop stop-color="#D5D7FC"/>
<stop offset="1" stop-color="#FAF1FC"/>
</linearGradient>
<linearGradient id="paint78_linear_236_31762" x1="134.234" y1="41.0081" x2="115.174" y2="23.4054" gradientUnits="userSpaceOnUse">
<stop stop-color="#DAFCD5"/>
<stop offset="1" stop-color="#F2FCF1"/>
</linearGradient>
<linearGradient id="paint79_linear_236_31762" x1="124.304" y1="32.613" x2="109.037" y2="24.4126" gradientUnits="userSpaceOnUse">
<stop stop-color="#E3325D"/>
<stop offset="1" stop-color="#FF866F"/>
</linearGradient>
<linearGradient id="paint80_linear_236_31762" x1="116.727" y1="15.5964" x2="116.25" y2="19.3493" gradientUnits="userSpaceOnUse">
<stop stop-color="#E3325D"/>
<stop offset="1" stop-color="#FF866F"/>
</linearGradient>
<linearGradient id="paint81_linear_236_31762" x1="122.735" y1="14.9935" x2="114.997" y2="7.26796" gradientUnits="userSpaceOnUse">
<stop stop-color="#FFC0AC"/>
<stop offset="1" stop-color="#FFD6C7"/>
</linearGradient>
<linearGradient id="paint82_linear_236_31762" x1="115.95" y1="11.0665" x2="119.248" y2="14.3592" gradientUnits="userSpaceOnUse">
<stop stop-color="#FF9C85"/>
<stop offset="1" stop-color="#FF9C85"/>
</linearGradient>
<linearGradient id="paint83_linear_236_31762" x1="135.954" y1="35.9497" x2="122.819" y2="14.4665" gradientUnits="userSpaceOnUse">
<stop stop-color="#DAFCD5"/>
<stop offset="1" stop-color="#F2FCF1"/>
</linearGradient>
<linearGradient id="paint84_linear_236_31762" x1="101.087" y1="33.405" x2="99.9394" y2="32.2589" gradientUnits="userSpaceOnUse">
<stop stop-color="#FF9C85"/>
<stop offset="1" stop-color="#FFC0AC"/>
</linearGradient>
<linearGradient id="paint85_linear_236_31762" x1="105.757" y1="35.5075" x2="102.519" y2="33.1891" gradientUnits="userSpaceOnUse">
<stop stop-color="#FFC0AC"/>
<stop offset="1" stop-color="#FFD6C7"/>
</linearGradient>
<linearGradient id="paint86_linear_236_31762" x1="120.085" y1="39.4288" x2="173.631" y2="101.586" gradientUnits="userSpaceOnUse">
<stop stop-color="#B2B6BB"/>
<stop offset="1" stop-color="#E0E0E0"/>
</linearGradient>
<linearGradient id="paint87_linear_236_31762" x1="130.879" y1="120.643" x2="130.879" y2="61.7963" gradientUnits="userSpaceOnUse">
<stop stop-color="#B2B6BB"/>
<stop offset="1" stop-color="#E0E0E0"/>
</linearGradient>
<linearGradient id="paint88_linear_236_31762" x1="141.663" y1="41.6202" x2="141.663" y2="49.4706" gradientUnits="userSpaceOnUse">
<stop stop-color="#939498"/>
<stop offset="1" stop-color="#939498"/>
</linearGradient>
<linearGradient id="paint89_linear_236_31762" x1="74.2332" y1="119.955" x2="101.615" y2="44.1168" gradientUnits="userSpaceOnUse">
<stop stop-color="#B2B6BB"/>
<stop offset="1" stop-color="#E0E0E0"/>
</linearGradient>
<linearGradient id="paint90_linear_236_31762" x1="18.7912" y1="66.0704" x2="40.3378" y2="112.347" gradientUnits="userSpaceOnUse">
<stop stop-color="#B2B6BB"/>
<stop offset="1" stop-color="#E0E0E0"/>
</linearGradient>
<linearGradient id="paint91_linear_236_31762" x1="10.6423" y1="126.676" x2="10.6423" y2="67.8292" gradientUnits="userSpaceOnUse">
<stop stop-color="#B2B6BB"/>
<stop offset="1" stop-color="#E0E0E0"/>
</linearGradient>
<linearGradient id="paint92_linear_236_31762" x1="21.4265" y1="47.6532" x2="21.4265" y2="55.5036" gradientUnits="userSpaceOnUse">
<stop stop-color="#939498"/>
<stop offset="1" stop-color="#939498"/>
</linearGradient>
<linearGradient id="paint93_linear_236_31762" x1="63.2839" y1="34.2339" x2="44.8541" y2="34.2339" gradientUnits="userSpaceOnUse">
<stop stop-color="#575965"/>
<stop offset="1" stop-color="#939498"/>
</linearGradient>
<linearGradient id="paint94_linear_236_31762" x1="97.303" y1="25.6273" x2="74.8164" y2="31.4478" gradientUnits="userSpaceOnUse">
<stop stop-color="#575965"/>
<stop offset="1" stop-color="#939498"/>
</linearGradient>
<linearGradient id="paint95_linear_236_31762" x1="41.9909" y1="62.2419" x2="40.4104" y2="53.3776" gradientUnits="userSpaceOnUse">
<stop stop-color="#575965"/>
<stop offset="1" stop-color="#939498"/>
</linearGradient>
<linearGradient id="paint96_linear_236_31762" x1="56.1192" y1="79.8013" x2="46.9945" y2="58.9915" gradientUnits="userSpaceOnUse">
<stop stop-color="#575965"/>
<stop offset="1" stop-color="#939498"/>
</linearGradient>
<linearGradient id="paint97_linear_236_31762" x1="55.6858" y1="54.0514" x2="55.8648" y2="61.3789" gradientUnits="userSpaceOnUse">
<stop stop-color="#575965"/>
<stop offset="1" stop-color="#939498"/>
</linearGradient>
<linearGradient id="paint98_linear_236_31762" x1="49.5629" y1="84.0159" x2="42.6428" y2="58.8819" gradientUnits="userSpaceOnUse">
<stop stop-color="#B2B6BB"/>
<stop offset="1" stop-color="#E0E0E0"/>
</linearGradient>
<linearGradient id="paint99_linear_236_31762" x1="43.5074" y1="70.2307" x2="43.5074" y2="83.5884" gradientUnits="userSpaceOnUse">
<stop stop-color="#B2B6BB"/>
<stop offset="1" stop-color="#E0E0E0"/>
</linearGradient>
<linearGradient id="paint100_linear_236_31762" x1="45.7678" y1="87.8883" x2="39.3308" y2="74.541" gradientUnits="userSpaceOnUse">
<stop stop-color="#575965"/>
<stop offset="1" stop-color="#939498"/>
</linearGradient>
<linearGradient id="paint101_linear_236_31762" x1="59.4599" y1="87.4176" x2="59.4599" y2="83.4542" gradientUnits="userSpaceOnUse">
<stop stop-color="#B2B6BB"/>
<stop offset="1" stop-color="#E0E0E0"/>
</linearGradient>
<linearGradient id="paint102_linear_236_31762" x1="58.9404" y1="91.983" x2="59.9697" y2="84.924" gradientUnits="userSpaceOnUse">
<stop stop-color="#575965"/>
<stop offset="1" stop-color="#939498"/>
</linearGradient>
<linearGradient id="paint103_linear_236_31762" x1="59.0744" y1="99.0292" x2="59.4324" y2="89.1997" gradientUnits="userSpaceOnUse">
<stop stop-color="#575965"/>
<stop offset="1" stop-color="#939498"/>
</linearGradient>
<linearGradient id="paint104_linear_236_31762" x1="43.5072" y1="87.4176" x2="43.5072" y2="83.4542" gradientUnits="userSpaceOnUse">
<stop stop-color="#B2B6BB"/>
<stop offset="1" stop-color="#E0E0E0"/>
</linearGradient>
<linearGradient id="paint105_linear_236_31762" x1="42.9879" y1="91.983" x2="44.0171" y2="84.924" gradientUnits="userSpaceOnUse">
<stop stop-color="#575965"/>
<stop offset="1" stop-color="#939498"/>
</linearGradient>
<linearGradient id="paint106_linear_236_31762" x1="43.1427" y1="98.449" x2="43.5008" y2="88.6194" gradientUnits="userSpaceOnUse">
<stop stop-color="#575965"/>
<stop offset="1" stop-color="#939498"/>
</linearGradient>
<linearGradient id="paint107_linear_236_31762" x1="48.9492" y1="85.2177" x2="58.3182" y2="87.3557" gradientUnits="userSpaceOnUse">
<stop stop-color="#B2B6BB"/>
<stop offset="1" stop-color="#E0E0E0"/>
</linearGradient>
<linearGradient id="paint108_linear_236_31762" x1="27.5549" y1="87.4176" x2="27.5549" y2="83.4542" gradientUnits="userSpaceOnUse">
<stop stop-color="#B2B6BB"/>
<stop offset="1" stop-color="#E0E0E0"/>
</linearGradient>
<linearGradient id="paint109_linear_236_31762" x1="28.0744" y1="91.983" x2="27.0451" y2="84.924" gradientUnits="userSpaceOnUse">
<stop stop-color="#575965"/>
<stop offset="1" stop-color="#939498"/>
</linearGradient>
<linearGradient id="paint110_linear_236_31762" x1="27.2115" y1="97.8687" x2="27.5695" y2="88.0392" gradientUnits="userSpaceOnUse">
<stop stop-color="#575965"/>
<stop offset="1" stop-color="#939498"/>
</linearGradient>
<linearGradient id="paint111_linear_236_31762" x1="38.0658" y1="85.2177" x2="28.6968" y2="87.3557" gradientUnits="userSpaceOnUse">
<stop stop-color="#B2B6BB"/>
<stop offset="1" stop-color="#E0E0E0"/>
</linearGradient>
<linearGradient id="paint112_linear_236_31762" x1="45.7582" y1="18.2626" x2="40.4274" y2="16.4274" gradientUnits="userSpaceOnUse">
<stop stop-color="#D5D7FC"/>
<stop offset="1" stop-color="#FAF1FC"/>
</linearGradient>
<linearGradient id="paint113_linear_236_31762" x1="21.1099" y1="92.5587" x2="12.8883" y2="83.9936" gradientUnits="userSpaceOnUse">
<stop stop-color="#E3325D"/>
<stop offset="1" stop-color="#FF866F"/>
</linearGradient>
<linearGradient id="paint114_linear_236_31762" x1="33.7993" y1="64.2909" x2="26.4036" y2="45.9508" gradientUnits="userSpaceOnUse">
<stop stop-color="#1D164D"/>
<stop offset="1" stop-color="#4A4975"/>
</linearGradient>
<linearGradient id="paint115_linear_236_31762" x1="20.183" y1="87.3933" x2="16.7277" y2="83.8841" gradientUnits="userSpaceOnUse">
<stop stop-color="#FFC0AC"/>
<stop offset="1" stop-color="#FFD6C7"/>
</linearGradient>
<linearGradient id="paint116_linear_236_31762" x1="31.417" y1="90.9455" x2="26.2336" y2="85.3541" gradientUnits="userSpaceOnUse">
<stop stop-color="#FFC0AC"/>
<stop offset="1" stop-color="#FFD6C7"/>
</linearGradient>
<linearGradient id="paint117_linear_236_31762" x1="29.4147" y1="94.3065" x2="25.1232" y2="88.2366" gradientUnits="userSpaceOnUse">
<stop stop-color="#E3325D"/>
<stop offset="1" stop-color="#FF866F"/>
</linearGradient>
<linearGradient id="paint118_linear_236_31762" x1="51.5973" y1="79.5923" x2="26.2131" y2="50.085" gradientUnits="userSpaceOnUse">
<stop stop-color="#1D164D"/>
<stop offset="1" stop-color="#4A4975"/>
</linearGradient>
<linearGradient id="paint119_linear_236_31762" x1="50.5129" y1="37.1927" x2="35.3465" y2="37.5489" gradientUnits="userSpaceOnUse">
<stop stop-color="#D5D7FC"/>
<stop offset="1" stop-color="#FAF1FC"/>
</linearGradient>
<linearGradient id="paint120_linear_236_31762" x1="17.7219" y1="43.902" x2="16.5739" y2="42.7559" gradientUnits="userSpaceOnUse">
<stop stop-color="#FF9C85"/>
<stop offset="1" stop-color="#FFC0AC"/>
</linearGradient>
<linearGradient id="paint121_linear_236_31762" x1="22.3915" y1="46.0045" x2="19.1539" y2="43.6862" gradientUnits="userSpaceOnUse">
<stop stop-color="#FFC0AC"/>
<stop offset="1" stop-color="#FFD6C7"/>
</linearGradient>
<linearGradient id="paint122_linear_236_31762" x1="52.3142" y1="13.7112" x2="56.4181" y2="13.4143" gradientUnits="userSpaceOnUse">
<stop stop-color="#1D164D"/>
<stop offset="1" stop-color="#4A4975"/>
</linearGradient>
<linearGradient id="paint123_linear_236_31762" x1="47.3806" y1="20.4879" x2="44.7558" y2="11.4947" gradientUnits="userSpaceOnUse">
<stop stop-color="#1D164D"/>
<stop offset="1" stop-color="#4A4975"/>
</linearGradient>
<linearGradient id="paint124_linear_236_31762" x1="46.8773" y1="24.4016" x2="45.0577" y2="17.4032" gradientUnits="userSpaceOnUse">
<stop stop-color="#FFC0AC"/>
<stop offset="1" stop-color="#FFD6C7"/>
</linearGradient>
<linearGradient id="paint125_linear_236_31762" x1="44.4607" y1="21.6522" x2="46.6348" y2="23.6741" gradientUnits="userSpaceOnUse">
<stop stop-color="#FF9C85"/>
<stop offset="1" stop-color="#FF9C85"/>
</linearGradient>
<linearGradient id="paint126_linear_236_31762" x1="46.4884" y1="12.1557" x2="46.4884" y2="3.66327" gradientUnits="userSpaceOnUse">
<stop stop-color="#D5D7FC"/>
<stop offset="1" stop-color="#FAF1FC"/>
</linearGradient>
<linearGradient id="paint127_linear_236_31762" x1="51.5627" y1="21.2643" x2="49.6937" y2="18.1303" gradientUnits="userSpaceOnUse">
<stop stop-color="#D5D7FC"/>
<stop offset="1" stop-color="#FAF1FC"/>
</linearGradient>
<linearGradient id="paint128_linear_236_31762" x1="49.1626" y1="17.1505" x2="46.6342" y2="17.1505" gradientUnits="userSpaceOnUse">
<stop stop-color="#D5D7FC"/>
<stop offset="1" stop-color="#FAF1FC"/>
</linearGradient>
<linearGradient id="paint129_linear_236_31762" x1="45.1047" y1="21.1722" x2="43.7214" y2="20.6822" gradientUnits="userSpaceOnUse">
<stop stop-color="#D5D7FC"/>
<stop offset="1" stop-color="#FAF1FC"/>
</linearGradient>
<linearGradient id="paint130_linear_236_31762" x1="35.1165" y1="52.1411" x2="32.0138" y2="30.577" gradientUnits="userSpaceOnUse">
<stop stop-color="#E3325D"/>
<stop offset="1" stop-color="#FF866F"/>
</linearGradient>
<linearGradient id="paint131_linear_236_31762" x1="42.9077" y1="39.5872" x2="35.4687" y2="30.7161" gradientUnits="userSpaceOnUse">
<stop stop-color="#E3325D"/>
<stop offset="1" stop-color="#E3325D"/>
</linearGradient>
<linearGradient id="paint132_linear_236_31762" x1="42.912" y1="51.0195" x2="39.8094" y2="29.4555" gradientUnits="userSpaceOnUse">
<stop stop-color="#E3325D"/>
<stop offset="1" stop-color="#FF866F"/>
</linearGradient>
<linearGradient id="paint133_linear_236_31762" x1="61.2486" y1="48.3892" x2="41.5204" y2="38.9422" gradientUnits="userSpaceOnUse">
<stop stop-color="#E3325D"/>
<stop offset="1" stop-color="#FF866F"/>
</linearGradient>
<linearGradient id="paint134_linear_236_31762" x1="52.0931" y1="38.5077" x2="50.3862" y2="48.1127" gradientUnits="userSpaceOnUse">
<stop stop-color="#E3325D"/>
<stop offset="1" stop-color="#E3325D"/>
</linearGradient>
<linearGradient id="paint135_linear_236_31762" x1="72.8215" y1="46.287" x2="49.4812" y2="37.8652" gradientUnits="userSpaceOnUse">
<stop stop-color="#F04940"/>
<stop offset="1" stop-color="#FB796D"/>
</linearGradient>
<linearGradient id="paint136_linear_236_31762" x1="29.3329" y1="44.5016" x2="28.1849" y2="43.3555" gradientUnits="userSpaceOnUse">
<stop stop-color="#FF9C85"/>
<stop offset="1" stop-color="#FFC0AC"/>
</linearGradient>
<linearGradient id="paint137_linear_236_31762" x1="34.0024" y1="46.6041" x2="30.7648" y2="44.2858" gradientUnits="userSpaceOnUse">
<stop stop-color="#FFC0AC"/>
<stop offset="1" stop-color="#FFD6C7"/>
</linearGradient>
<linearGradient id="paint138_linear_236_31762" x1="26.7657" y1="49.8925" x2="22.1166" y2="43.4062" gradientUnits="userSpaceOnUse">
<stop stop-color="#D5D7FC"/>
<stop offset="1" stop-color="#FAF1FC"/>
</linearGradient>
<linearGradient id="paint139_linear_236_31762" x1="61.8303" y1="62.7576" x2="90.4901" y2="104.772" gradientUnits="userSpaceOnUse">
<stop stop-color="#B2B6BB"/>
<stop offset="1" stop-color="#E0E0E0"/>
</linearGradient>
<linearGradient id="paint140_linear_236_31762" x1="56.613" y1="126.676" x2="56.613" y2="67.8291" gradientUnits="userSpaceOnUse">
<stop stop-color="#B2B6BB"/>
<stop offset="1" stop-color="#E0E0E0"/>
</linearGradient>
<linearGradient id="paint141_linear_236_31762" x1="67.3971" y1="47.6531" x2="67.3971" y2="55.5034" gradientUnits="userSpaceOnUse">
<stop stop-color="#939498"/>
<stop offset="1" stop-color="#939498"/>
</linearGradient>
<linearGradient id="paint142_linear_236_31762" x1="113.067" y1="37.4713" x2="86.771" y2="29.3935" gradientUnits="userSpaceOnUse">
<stop stop-color="#575965"/>
<stop offset="1" stop-color="#939498"/>
</linearGradient>
<linearGradient id="paint143_linear_236_31762" x1="142.822" y1="25.6272" x2="120.335" y2="31.4476" gradientUnits="userSpaceOnUse">
<stop stop-color="#575965"/>
<stop offset="1" stop-color="#939498"/>
</linearGradient>
<linearGradient id="paint144_linear_236_31762" x1="87.5099" y1="62.2418" x2="85.9294" y2="53.3775" gradientUnits="userSpaceOnUse">
<stop stop-color="#575965"/>
<stop offset="1" stop-color="#939498"/>
</linearGradient>
<linearGradient id="paint145_linear_236_31762" x1="101.638" y1="79.8011" x2="92.5134" y2="58.9913" gradientUnits="userSpaceOnUse">
<stop stop-color="#575965"/>
<stop offset="1" stop-color="#939498"/>
</linearGradient>
<linearGradient id="paint146_linear_236_31762" x1="101.205" y1="54.0513" x2="101.384" y2="61.3787" gradientUnits="userSpaceOnUse">
<stop stop-color="#575965"/>
<stop offset="1" stop-color="#939498"/>
</linearGradient>
<linearGradient id="paint147_linear_236_31762" x1="95.0819" y1="84.0158" x2="88.1618" y2="58.8818" gradientUnits="userSpaceOnUse">
<stop stop-color="#B2B6BB"/>
<stop offset="1" stop-color="#E0E0E0"/>
</linearGradient>
<linearGradient id="paint148_linear_236_31762" x1="89.0264" y1="70.2306" x2="89.0264" y2="83.5882" gradientUnits="userSpaceOnUse">
<stop stop-color="#B2B6BB"/>
<stop offset="1" stop-color="#E0E0E0"/>
</linearGradient>
<linearGradient id="paint149_linear_236_31762" x1="91.2868" y1="87.8882" x2="84.8499" y2="74.5409" gradientUnits="userSpaceOnUse">
<stop stop-color="#575965"/>
<stop offset="1" stop-color="#939498"/>
</linearGradient>
<linearGradient id="paint150_linear_236_31762" x1="104.979" y1="87.4175" x2="104.979" y2="83.4541" gradientUnits="userSpaceOnUse">
<stop stop-color="#B2B6BB"/>
<stop offset="1" stop-color="#E0E0E0"/>
</linearGradient>
<linearGradient id="paint151_linear_236_31762" x1="104.459" y1="91.9828" x2="105.489" y2="84.9239" gradientUnits="userSpaceOnUse">
<stop stop-color="#575965"/>
<stop offset="1" stop-color="#939498"/>
</linearGradient>
<linearGradient id="paint152_linear_236_31762" x1="104.593" y1="99.0291" x2="104.951" y2="89.1996" gradientUnits="userSpaceOnUse">
<stop stop-color="#575965"/>
<stop offset="1" stop-color="#939498"/>
</linearGradient>
<linearGradient id="paint153_linear_236_31762" x1="89.0262" y1="87.4175" x2="89.0262" y2="83.4541" gradientUnits="userSpaceOnUse">
<stop stop-color="#B2B6BB"/>
<stop offset="1" stop-color="#E0E0E0"/>
</linearGradient>
<linearGradient id="paint154_linear_236_31762" x1="88.507" y1="91.9828" x2="89.5362" y2="84.9239" gradientUnits="userSpaceOnUse">
<stop stop-color="#575965"/>
<stop offset="1" stop-color="#939498"/>
</linearGradient>
<linearGradient id="paint155_linear_236_31762" x1="88.6618" y1="98.4488" x2="89.0198" y2="88.6193" gradientUnits="userSpaceOnUse">
<stop stop-color="#575965"/>
<stop offset="1" stop-color="#939498"/>
</linearGradient>
<linearGradient id="paint156_linear_236_31762" x1="94.4682" y1="85.2176" x2="103.837" y2="87.3556" gradientUnits="userSpaceOnUse">
<stop stop-color="#B2B6BB"/>
<stop offset="1" stop-color="#E0E0E0"/>
</linearGradient>
<linearGradient id="paint157_linear_236_31762" x1="73.0737" y1="87.4175" x2="73.0737" y2="83.4541" gradientUnits="userSpaceOnUse">
<stop stop-color="#B2B6BB"/>
<stop offset="1" stop-color="#E0E0E0"/>
</linearGradient>
<linearGradient id="paint158_linear_236_31762" x1="73.5932" y1="91.9828" x2="72.5639" y2="84.9239" gradientUnits="userSpaceOnUse">
<stop stop-color="#575965"/>
<stop offset="1" stop-color="#939498"/>
</linearGradient>
<linearGradient id="paint159_linear_236_31762" x1="72.7302" y1="97.8686" x2="73.0883" y2="88.039" gradientUnits="userSpaceOnUse">
<stop stop-color="#575965"/>
<stop offset="1" stop-color="#939498"/>
</linearGradient>
<linearGradient id="paint160_linear_236_31762" x1="83.5845" y1="85.2176" x2="74.2155" y2="87.3556" gradientUnits="userSpaceOnUse">
<stop stop-color="#B2B6BB"/>
<stop offset="1" stop-color="#E0E0E0"/>
</linearGradient>
<linearGradient id="paint161_linear_236_31762" x1="91.6366" y1="15.8417" x2="89.3713" y2="12.36" gradientUnits="userSpaceOnUse">
<stop stop-color="#1D164D"/>
<stop offset="1" stop-color="#4A4975"/>
</linearGradient>
<linearGradient id="paint162_linear_236_31762" x1="64.3415" y1="90.4102" x2="62.6719" y2="87.2551" gradientUnits="userSpaceOnUse">
<stop stop-color="#1D164D"/>
<stop offset="1" stop-color="#4A4975"/>
</linearGradient>
<linearGradient id="paint163_linear_236_31762" x1="72.242" y1="91.9156" x2="70.7656" y2="87.4044" gradientUnits="userSpaceOnUse">
<stop stop-color="#1D164D"/>
<stop offset="1" stop-color="#4A4975"/>
</linearGradient>
<linearGradient id="paint164_linear_236_31762" x1="77.8841" y1="64.7841" x2="63.3454" y2="48.3654" gradientUnits="userSpaceOnUse">
<stop stop-color="#1D164D"/>
<stop offset="1" stop-color="#4A4975"/>
</linearGradient>
<linearGradient id="paint165_linear_236_31762" x1="91.3971" y1="74.5864" x2="81.378" y2="52.3183" gradientUnits="userSpaceOnUse">
<stop stop-color="#1D164D"/>
<stop offset="1" stop-color="#4A4975"/>
</linearGradient>
<linearGradient id="paint166_linear_236_31762" x1="62.9327" y1="43.9019" x2="61.7847" y2="42.7557" gradientUnits="userSpaceOnUse">
<stop stop-color="#FF9C85"/>
<stop offset="1" stop-color="#FFC0AC"/>
</linearGradient>
<linearGradient id="paint167_linear_236_31762" x1="67.6023" y1="46.0044" x2="64.3647" y2="43.686" gradientUnits="userSpaceOnUse">
<stop stop-color="#FFC0AC"/>
<stop offset="1" stop-color="#FFD6C7"/>
</linearGradient>
<linearGradient id="paint168_linear_236_31762" x1="79.9944" y1="49.3233" x2="78.615" y2="39.3392" gradientUnits="userSpaceOnUse">
<stop stop-color="#D5D7FC"/>
<stop offset="1" stop-color="#FAF1FC"/>
</linearGradient>
<linearGradient id="paint169_linear_236_31762" x1="85.7501" y1="36.456" x2="80.0425" y2="34.8083" gradientUnits="userSpaceOnUse">
<stop stop-color="#D5D7FC"/>
<stop offset="1" stop-color="#D5D7FC"/>
</linearGradient>
<linearGradient id="paint170_linear_236_31762" x1="86.1907" y1="32.1811" x2="85.9879" y2="30.9818" gradientUnits="userSpaceOnUse">
<stop stop-color="#D5D7FC"/>
<stop offset="1" stop-color="#FAF1FC"/>
</linearGradient>
<linearGradient id="paint171_linear_236_31762" x1="108.6" y1="51.5049" x2="89.5394" y2="33.9022" gradientUnits="userSpaceOnUse">
<stop stop-color="#D5D7FC"/>
<stop offset="1" stop-color="#FAF1FC"/>
</linearGradient>
<linearGradient id="paint172_linear_236_31762" x1="93.815" y1="43.0922" x2="91.4284" y2="58.8183" gradientUnits="userSpaceOnUse">
<stop stop-color="#D5D7FC"/>
<stop offset="1" stop-color="#D5D7FC"/>
</linearGradient>
<linearGradient id="paint173_linear_236_31762" x1="98.6697" y1="43.1098" x2="83.403" y2="34.9094" gradientUnits="userSpaceOnUse">
<stop stop-color="#E3325D"/>
<stop offset="1" stop-color="#FF866F"/>
</linearGradient>
<linearGradient id="paint174_linear_236_31762" x1="91.0934" y1="26.0933" x2="90.6161" y2="29.8462" gradientUnits="userSpaceOnUse">
<stop stop-color="#E3325D"/>
<stop offset="1" stop-color="#FF866F"/>
</linearGradient>
<linearGradient id="paint175_linear_236_31762" x1="97.1012" y1="25.4904" x2="89.363" y2="17.7648" gradientUnits="userSpaceOnUse">
<stop stop-color="#FFC0AC"/>
<stop offset="1" stop-color="#FFD6C7"/>
</linearGradient>
<linearGradient id="paint176_linear_236_31762" x1="90.3162" y1="21.5632" x2="93.6143" y2="24.8559" gradientUnits="userSpaceOnUse">
<stop stop-color="#FF9C85"/>
<stop offset="1" stop-color="#FF9C85"/>
</linearGradient>
<linearGradient id="paint177_linear_236_31762" x1="118.969" y1="45.6686" x2="95.4968" y2="37.3822" gradientUnits="userSpaceOnUse">
<stop stop-color="#D5D7FC"/>
<stop offset="1" stop-color="#FAF1FC"/>
</linearGradient>
<linearGradient id="paint178_linear_236_31762" x1="75.4535" y1="43.9019" x2="74.3055" y2="42.7557" gradientUnits="userSpaceOnUse">
<stop stop-color="#FF9C85"/>
<stop offset="1" stop-color="#FFC0AC"/>
</linearGradient>
<linearGradient id="paint179_linear_236_31762" x1="80.123" y1="46.0044" x2="76.8854" y2="43.686" gradientUnits="userSpaceOnUse">
<stop stop-color="#FFC0AC"/>
<stop offset="1" stop-color="#FFD6C7"/>
</linearGradient>
<linearGradient id="paint180_linear_236_31762" x1="91.8934" y1="45.4618" x2="145.439" y2="107.619" gradientUnits="userSpaceOnUse">
<stop stop-color="#B2B6BB"/>
<stop offset="1" stop-color="#E0E0E0"/>
</linearGradient>
<linearGradient id="paint181_linear_236_31762" x1="102.687" y1="126.676" x2="102.687" y2="67.8292" gradientUnits="userSpaceOnUse">
<stop stop-color="#B2B6BB"/>
<stop offset="1" stop-color="#E0E0E0"/>
</linearGradient>
<linearGradient id="paint182_linear_236_31762" x1="113.471" y1="47.6532" x2="113.471" y2="55.5036" gradientUnits="userSpaceOnUse">
<stop stop-color="#939498"/>
<stop offset="1" stop-color="#939498"/>
</linearGradient>
<linearGradient id="paint183_linear_236_31762" x1="50.0665" y1="126.191" x2="75.5272" y2="48.8478" gradientUnits="userSpaceOnUse">
<stop stop-color="#B2B6BB"/>
<stop offset="1" stop-color="#E0E0E0"/>
</linearGradient>
<linearGradient id="paint184_linear_236_31762" x1="109.873" y1="46.9002" x2="151.95" y2="46.9002" gradientUnits="userSpaceOnUse">
<stop stop-color="#B2B6BB"/>
<stop offset="1" stop-color="#E0E0E0"/>
</linearGradient>
<linearGradient id="paint185_linear_236_31762" x1="135.706" y1="40.6646" x2="177.783" y2="40.6646" gradientUnits="userSpaceOnUse">
<stop stop-color="#B2B6BB"/>
<stop offset="1" stop-color="#E0E0E0"/>
</linearGradient>
</defs>
</svg>
