<?xml version="1.0" encoding="UTF-8"?>
<svg xmlns="http://www.w3.org/2000/svg" version="1.1" viewBox="0 0 500 500">
  <!-- Generator: Adobe Illustrator 29.1.0, SVG Export Plug-In . SVG Version: 2.1.0 Build 142)  -->
  <defs>
    <style>
      .st0 {
        fill: #d25c2c;
      }

      .st1 {
        fill: #6da1a4;
      }

      .st2 {
        fill: #dc8865;
      }

      .st3 {
        fill: #82435c;
      }

      .st4, .st5, .st6 {
        fill: #fff;
      }

      .st7 {
        stroke: #fff;
      }

      .st7, .st8 {
        fill: none;
      }

      .st7, .st5 {
        stroke-miterlimit: 10;
      }

      .st9 {
        fill: #d9aa44;
      }

      .st10 {
        fill: #ad6a31;
      }

      .st10, .st11, .st12 {
        mix-blend-mode: multiply;
        opacity: .3;
      }

      .st13 {
        fill: #d6dd40;
      }

      .st14 {
        fill: #392a23;
      }

      .st15, .st11 {
        fill: #db9431;
      }

      .st16 {
        isolation: isolate;
      }

      .st12, .st17 {
        fill: #4a6c8f;
      }

      .st18 {
        fill: #18203d;
      }

      .st19 {
        opacity: .4;
      }

      .st19, .st20 {
        fill: #acd5d4;
      }

      .st21 {
        fill: #e9b469;
      }

      .st8 {
        stroke: #d25c2c;
        stroke-linecap: round;
        stroke-linejoin: round;
      }

      .st22 {
        fill: #52908a;
      }

      .st5 {
        stroke: #272525;
      }

      .st23 {
        fill: #528e8d;
      }

      .st6 {
        opacity: .7;
      }

      .st24 {
        fill: #4b1c4a;
      }

      .st25 {
        fill: #ca404e;
      }
    </style>
  </defs>
  <g class="st16">
    <g id="BACKGROUND">
      <rect class="st5" width="500" height="500"/>
    </g>
    <g id="OBJECTS">
      <g>
        <g>
          <path class="st19" d="M245.7,65.4c-121.3,9.3-191.2,34.5-207.8,106.2-16.6,71.6,49.9,81.9,62.7,104.9,12.8,23-48,14.1-71,52.4-23,38.4-23,133,98.5,101.7,121.5-31.3,166.3-35.2,231.5-12.8,65.2,22.4,108.7.6,115.1-30.1,6.4-30.7-17.9-60.8-45.4-63.3-27.5-2.6-24.3-39,21.7-42.8,46-3.8,28.1-43.5-17.9-62-46-18.5-6.4-35.8,22.4-51.8,29-16.1,32-120.9-209.8-102.3Z"/>
          <path class="st19" d="M246.2,109.4c-92.4,7.1-145.7,26.3-158.3,80.9-12.7,54.6,38,62.4,47.7,79.9,9.7,17.5-36.5,10.7-54.1,40-17.5,29.2-17.5,101.3,75,77.5,92.6-23.9,126.7-26.8,176.4-9.7,49.7,17.1,82.8.5,87.7-22.9,4.9-23.4-13.6-46.3-34.6-48.2-20.9-1.9-18.5-29.7,16.6-32.6,35.1-2.9,21.4-33.1-13.6-47.3-35.1-14.1-4.9-27.3,17.1-39.5,22.1-12.3,24.4-92.1-159.8-78Z"/>
        </g>
        <g>
          <g>
            <g>
              <path class="st18" d="M343.6,317.6s-13.4-6.7-19.4-18.9c-5.9-12.2-3.2-24.5-3.2-24.5,0,0,.7,7.7,7.2,11.7,6.5,4.1,7.6-3.8,1.4-10.5-6.3-6.7-9.3-12.6-7.7-17.7,1.6-5,8.4-14.2,8.4-14.2,0,0,.7,11.7,5.1,15.5,4.5,3.8,12.6-.3,8.5-3.9-4.1-3.7-8.3-13-8.3-17.6,0-4.6,12.2-17.1,12.2-17.1,0,0-1.2,9.1,1.8,13.5s10.1,4.4,8.5.1-5.8-17-3.4-21.8c2.3-4.8,6.2-9.1,6.2-9.1,0,0,1.6,11.8,4.5,12.5s2-9.3,1.2-13.8c-.9-4.4,13.2-14,13.9-14.8s7.7,9,8,14.6c.4,5.7-10.6,12.7-9.6,15.8s12.4-10.1,12.4-10.1c0,0,7.3,11.4,5.8,17.6-1.5,6.2-17.3,10.3-18.3,14.3-1,4,11.5,0,17.4-4.1,0,0,6.7,12.4,2.5,18.7s-19.9,4.1-23.2,8.3c-3.3,4.2.6,10.2,9.4,8.2,8.8-1.9,13.7-8.1,13.7-8.1,0,0,.1,15.5-6.8,20.9-6.9,5.5-18.3-4-21.9.7-3.6,4.7,8.3,8.9,18.5,5.4,0,0-.4,4.9-10.7,12.5-10.3,7.6-34.2,15.7-34.2,15.7Z"/>
              <path class="st18" d="M370.6,221.2s-20.7,60.2-34.8,114.1l4.5,1.1s27.7-93.7,30.3-115.1Z"/>
            </g>
            <g>
              <path class="st1" d="M358.7,323.6s-7.3-11.6-6.1-24c1.2-12.4,9.2-20.6,9.2-20.6,0,0-3.2,6.3,0,12.6,3.2,6.3,7.8.7,6.1-7.5s-1.2-14.3,2.4-17.4,13.3-7,13.3-7c0,0-5.1,9.5-3.4,14.5,1.7,5.1,9.9,5.8,8.5,1-1.5-4.8-.2-14.1,1.9-17.7,2.2-3.6,17.7-7.5,17.7-7.5,0,0-5.3,6.5-5.1,11.4.2,4.8,5.8,8.2,6.5,4.1.7-4.1,3.6-16,7.8-18.7s9.2-4.1,9.2-4.1c0,0-4.4,9.9-2.4,11.9,1.9,1.9,6.1-6.3,7.5-10.2,1.5-3.9,17-4.6,17.9-4.8,1-.2,1.7,10.7-.7,15.3s-14.3,4.8-15,7.8c-.7,2.9,14.5-1.9,14.5-1.9,0,0,.2,12.4-3.9,16.5-4.1,4.1-18.4-.2-21.1,2.4-2.7,2.7,9,5.6,15.5,5.1,0,0-.7,12.8-7,15.8s-17.4-6.3-22.1-4.6-4.4,8.2,3.4,10.9c7.8,2.7,14.5.2,14.5.2,0,0-7.3,12.1-15.3,13.1-8,1-12.4-11.9-17.4-9.9s2.2,10.9,11.9,13.1c0,0-2.7,3.6-14.3,4.6-11.6,1-34.2-4.1-34.2-4.1Z"/>
              <path class="st23" d="M425.8,261.3s-44.9,37-81.6,72.3l3,3s66.4-59.8,78.7-75.3Z"/>
            </g>
            <g>
              <path class="st18" d="M364,345.5s-2.7-13.4,2.7-24.6c5.5-11.1,15.9-16.1,15.9-16.1,0,0-5.2,4.8-4.4,11.8s7,3.4,8.3-4.9c1.3-8.3,3.9-13.8,8.4-15.5,4.5-1.7,14.9-1.9,14.9-1.9,0,0-8.1,7.1-8.3,12.4-.2,5.4,7.3,8.9,7.6,3.9.3-5,4.7-13.2,8-15.9,3.3-2.6,19.2-.8,19.2-.8,0,0-7.3,4.3-8.8,8.9-1.5,4.6,2.6,9.8,4.7,6.2,2.1-3.6,9-13.7,13.8-14.8,4.8-1,10.1-.6,10.1-.6,0,0-7.6,7.8-6.4,10.3,1.1,2.5,7.9-3.8,10.6-6.9s17.5,1.6,18.5,1.8c1,.1-2.2,10.6-6,14-3.9,3.5-15.1-.5-16.8,2-1.7,2.5,14.3,3.3,14.3,3.3,0,0-4.1,11.7-9.4,14.1-5.3,2.4-17.2-6.7-20.6-5.1-3.4,1.6,6.4,8.4,12.7,10.2,0,0-5.2,11.8-12.1,12.3-6.9.5-14.1-12-19-12.1s-7,6.2-.7,11.4c6.3,5.2,13.5,5.3,13.5,5.3,0,0-11.1,8.8-18.9,6.9-7.8-1.9-7.4-15.5-12.9-15.4-5.4,0-1.8,11,6.5,16.4,0,0-3.8,2.5-15-.7-11.2-3.2-30.5-15.9-30.5-15.9Z"/>
              <path class="st18" d="M448.7,310.7s-55.1,18.9-101.8,39l1.8,3.8s83.2-32.7,100.1-42.9Z"/>
            </g>
            <g>
              <path class="st1" d="M365.1,383.7s-2-13.6,4-24.4c6-10.9,16.6-15.2,16.6-15.2,0,0-5.4,4.5-5,11.6.4,7,6.8,3.8,8.5-4.5,1.7-8.2,4.6-13.6,9.2-15,4.6-1.4,15-1.1,15-1.1,0,0-8.4,6.6-8.9,12-.5,5.3,6.8,9.3,7.4,4.3.6-5,5.4-13,8.8-15.5,3.4-2.5,19.2.2,19.2.2,0,0-7.5,3.9-9.2,8.4-1.7,4.5,2.1,9.9,4.4,6.4,2.3-3.5,9.7-13.2,14.5-14s10.1-.1,10.1-.1c0,0-8,7.4-7,9.9s8.1-3.4,10.9-6.3c2.9-3,17.4,2.5,18.4,2.7,1,.2-2.7,10.5-6.7,13.7-4.1,3.3-15-1.2-16.9,1.1-1.8,2.4,14.1,4,14.1,4,0,0-4.7,11.4-10.1,13.6-5.4,2.1-16.8-7.6-20.3-6.2-3.5,1.4,6,8.7,12.2,10.8,0,0-5.8,11.5-12.7,11.7-6.9.2-13.5-12.7-18.4-13-4.9-.3-7.3,5.8-1.2,11.4,6.1,5.5,13.2,6,13.2,6,0,0-11.5,8.2-19.2,5.9-7.7-2.3-6.6-15.8-12.1-16.1-5.4-.2-2.3,10.9,5.7,16.7,0,0-3.9,2.3-14.9-1.5-11.1-3.7-29.7-17.4-29.7-17.4Z"/>
              <path class="st23" d="M451.5,353.3s-55.9,16.1-103.7,33.8l1.6,3.9s84.7-28.5,102.1-37.8Z"/>
            </g>
          </g>
          <g>
            <g>
              <path class="st18" d="M151.9,393.7s0,0,0,0c-.5.3-1.2.2-1.5-.3-42.2-66.4-57.5-133.1-57.7-133.8-.1-.6.2-1.2.8-1.3.6-.1,1.2.2,1.3.8.1.7,15.4,67,57.4,133.1.3.5.2,1.2-.3,1.5Z"/>
              <path class="st18" d="M94.3,261.5s-20.8-18.8-10.5-42.9c0,0,20.3,15.9,10.5,42.9Z"/>
              <g>
                <path class="st18" d="M96.2,268.9s1.1-28,26.3-35.5c0,0,.7,25.8-26.3,35.5Z"/>
                <path class="st18" d="M102.8,290.1s1.1-28,26.3-35.5c0,0,.7,25.8-26.3,35.5Z"/>
                <path class="st18" d="M110.6,311s1.1-28,26.3-35.5c0,0,.7,25.8-26.3,35.5Z"/>
                <path class="st18" d="M119.3,332.4s1.1-28,26.3-35.5c0,0,.7,25.8-26.3,35.5Z"/>
                <path class="st18" d="M132.3,360.2s1.1-28,26.3-35.5c0,0,.7,25.8-26.3,35.5Z"/>
              </g>
              <g>
                <path class="st18" d="M96.1,269s-17.8-21.6-42.4-12.4c0,0,15,21,42.4,12.4Z"/>
                <path class="st18" d="M102.8,289.6s-19.8-19.8-43.4-8.2c0,0,17,19.5,43.4,8.2Z"/>
                <path class="st18" d="M110.6,311.3s-19.2-20.4-43.2-9.5c0,0,16.4,20,43.2,9.5Z"/>
                <path class="st18" d="M119.4,332.4s-21.1-18.4-43.9-5.2c0,0,18.3,18.2,43.9,5.2Z"/>
                <path class="st18" d="M133,360.1s-22.5-16.8-44.2-1.9c0,0,19.6,16.8,44.2,1.9Z"/>
              </g>
            </g>
            <g>
              <path class="st1" d="M135.5,389.1s0,0,0,0c-.6,0-1.1-.5-1.1-1.1,3.1-78.7,28.5-142.2,28.8-142.8.2-.6.9-.8,1.4-.6.6.2.8.9.6,1.4-.3.6-25.5,63.8-28.6,142.1,0,.6-.5,1.1-1.1,1.1Z"/>
              <path class="st1" d="M163.4,247.6s-6.4-27.3,15.9-41.3c0,0,7.6,24.7-15.9,41.3Z"/>
              <g>
                <path class="st1" d="M160.8,254.8s16.9-22.4,41.9-14.2c0,0-14.1,21.6-41.9,14.2Z"/>
                <path class="st1" d="M154.1,275.9s16.9-22.4,41.9-14.2c0,0-14.1,21.6-41.9,14.2Z"/>
                <path class="st1" d="M148.7,297.6s16.9-22.4,41.9-14.2c0,0-14.1,21.6-41.9,14.2Z"/>
                <path class="st1" d="M143.7,320.1s16.9-22.4,41.9-14.2c0,0-14.1,21.6-41.9,14.2Z"/>
                <path class="st1" d="M138.5,350.3s16.9-22.4,41.9-14.2c0,0-14.1,21.6-41.9,14.2Z"/>
              </g>
              <g>
                <path class="st1" d="M160.7,254.8s-2.3-27.9-27.8-34.4c0,0,.4,25.8,27.8,34.4Z"/>
                <path class="st1" d="M154.4,275.5s-5-27.6-31-31.5c0,0,2.9,25.7,31,31.5Z"/>
                <path class="st1" d="M148.5,297.8s-4.2-27.7-30.1-32.4c0,0,2.1,25.7,30.1,32.4Z"/>
                <path class="st1" d="M143.7,320.1s-6.9-27.2-33.1-29.3c0,0,4.6,25.4,33.1,29.3Z"/>
                <path class="st1" d="M139.1,350.7s-8.9-26.6-35.2-26.7c0,0,6.5,25,35.2,26.7Z"/>
              </g>
            </g>
            <g>
              <path class="st1" d="M161.8,391.2s0,0,0,0c-.4.4-1.1.5-1.6,0-57.1-54.2-88.1-115.2-88.4-115.8-.3-.5,0-1.2.5-1.5.5-.3,1.2,0,1.5.5.3.6,31.1,61.3,87.9,115.2.4.4.5,1.1,0,1.5Z"/>
              <path class="st1" d="M73.8,276.9s-24.7-13.2-20.6-39.1c0,0,23.6,10.6,20.6,39.1Z"/>
              <g>
                <path class="st1" d="M77.5,283.6s-5.7-27.4,17-40.8c0,0,7,24.9-17,40.8Z"/>
                <path class="st1" d="M89,302.5s-5.7-27.4,17-40.8c0,0,7,24.9-17,40.8Z"/>
                <path class="st1" d="M101.7,320.9s-5.7-27.4,17-40.8c0,0,7,24.9-17,40.8Z"/>
                <path class="st1" d="M115.3,339.6s-5.7-27.4,17-40.8c0,0,7,24.9-17,40.8Z"/>
                <path class="st1" d="M134.6,363.4s-5.7-27.4,17-40.8c0,0,7,24.9-17,40.8Z"/>
              </g>
              <g>
                <path class="st1" d="M77.5,283.6s-22.5-16.7-44.2-1.8c0,0,19.6,16.8,44.2,1.8Z"/>
                <path class="st1" d="M88.9,302.1s-24-14.4-44.1,2.5c0,0,21.2,14.8,44.1-2.5Z"/>
                <path class="st1" d="M101.7,321.3s-23.6-15.1-44.2,1.2c0,0,20.7,15.4,44.2-1.2Z"/>
                <path class="st1" d="M115.4,339.6s-25-12.7-43.8,5.6c0,0,22.2,13.3,43.8-5.6Z"/>
                <path class="st1" d="M135.3,363.2s-25.9-10.8-43.3,8.8c0,0,23.1,11.6,43.3-8.8Z"/>
              </g>
            </g>
          </g>
        </g>
        <g>
          <g>
            <path class="st22" d="M131,117.3c1.5,4.6,3.3,8.3,7.7,9.9,1.1.4,2.2.2,3.3-.1l1.8-.6c1.9-.6,3.9.4,4.5,2.3l4.3,13.4c.6,1.9-.4,3.9-2.3,4.5l-5.8,1.9c-1,.3-2,.2-2.9-.3-4.4-2.5-17.8-11.1-22.9-27-5.1-15.9.6-30.8,2.7-35.3.4-.9,1.2-1.6,2.2-1.9l5.8-1.9c1.9-.6,3.9.4,4.5,2.3l4.3,13.4c.6,1.9-.4,3.9-2.3,4.5l-1.8.6c-1.1.4-2.1.9-2.8,1.8-2.6,3.8-1.9,7.9-.4,12.5Z"/>
            <path class="st25" d="M117.3,146.8l-9.5,13.2s-21.1-13.6-21.9-39.7c-.6-20.2,10.1-31,15-34.8l-3.4-5.5h18.9l-8.2,17.4-3.3-5.3c-3.1,5.1-7.9,15.2-5.9,27.1,2.9,17.1,18.2,27.6,18.2,27.6Z"/>
            <path class="st15" d="M151.3,93.2l9.5-13.2s21.1,13.6,21.9,39.7c.6,20.2-10.1,31-15,34.8l3.4,5.5h-18.9l8.2-17.4,3.3,5.3c3.1-5.1,7.9-15.2,5.9-27.1-2.9-17.1-18.2-27.6-18.2-27.6Z"/>
          </g>
          <g>
            <g>
              <path class="st15" d="M279.6,48.1h-54.7c-3.5,0-6.3,2.8-6.3,6.3v27.7c0,3.5,2.8,6.3,6.3,6.3h32.3l12.6,27.4v-27.4h9.8c3.5,0,6.3-2.8,6.3-6.3v-27.7c0-3.5-2.8-6.3-6.3-6.3Z"/>
              <g>
                <circle class="st4" cx="236.5" cy="67.2" r="4.5"/>
                <circle class="st4" cx="252.3" cy="67.2" r="4.5"/>
                <circle class="st4" cx="268" cy="67.2" r="4.5"/>
              </g>
            </g>
            <path class="st4" d="M357.2,100.7h55.9c3.6,0,6.4,2.9,6.4,6.4v28.3c0,3.6-2.9,6.4-6.4,6.4h-33l-31.4,28,18.5-28h-10c-3.6,0-6.4-2.9-6.4-6.4v-28.3c0-3.5,2.9-6.4,6.4-6.4Z"/>
            <g>
              <rect class="st15" x="365.8" y="109.8" width="40.2" height="24.2" rx="2.3" ry="2.3"/>
              <polyline class="st7" points="403.5 113.7 385.9 121.9 368.3 113.7"/>
            </g>
          </g>
        </g>
        <g>
          <g>
            <g>
              <path class="st20" d="M347.8,392.9h-124.4v-146.1s7.4-3,16.7-6.7c9-3.6,19.7-7.9,27.3-11,4.8-1.9,8.4-3.3,9.4-3.7l19.2-.5,50.7,28.3v7.5c0,0,1.1,132.1,1.1,132.1Z"/>
              <path class="st12" d="M347.8,392.9h-124.4v-104.3c.7-.1,1.2,0,1.7.1,7.9,3.5,32.7,59.6,44.1,49.9,11.4-9.6,29.4-52.7,57.5-81.4,0,0,10.8,1.8,20,3.5l1,132.1Z"/>
              <path class="st12" d="M261.4,333.1c3.2,18.8,2.6,44.2,1.7,59.8h-24.8c-2.3-34-3.3-112.8,1.8-152.8,9-3.6,19.7-7.9,27.3-11v.2c-3.7,8.6-10.9,75-6.1,103.7Z"/>
            </g>
            <g>
              <g>
                <path class="st13" d="M263.6,227.6c0,.1-.6,1.4-1.4,3.6-2.6,6.9-8,23.6-10.1,47.5-2.8,32,0,115,0,115h-60.5s-.3-34.2,1.3-75.2c1.2-31.5,10-54.5,16.1-65.5,1.9-3.3,3.5-5.5,4.6-6.6,4.6-4.3,49.1-18.5,50.1-18.8Z"/>
                <path class="st6" d="M263.6,227.6c0,.1-.6,1.4-1.4,3.6-11.4,4.1-43.3,17.8-53.2,21.8,1.9-3.3,3.5-5.5,4.6-6.6,4.6-4.3,49.1-18.5,50.1-18.8Z"/>
              </g>
              <g>
                <path class="st13" d="M365.4,393.8h-79.9s.3-17.8.8-38.7c.5-19.6,1.3-41.8,2.3-54.6,1.6-20.6,10.1-54.8,13.7-68.6,1-3.9,1.6-6.2,1.6-6.2,2.7.4,37.1,18.9,52.2,30.6,3.3,2.6,5.7,4.9,6.6,6.6.4.8.8,2.6,1.2,5h0c3.4,25.1,1.5,125.8,1.5,125.8Z"/>
                <path class="st12" d="M365.4,393.8h-79.9s.3-17.1.8-37.4c8.3-.7,30.8,5.4,35.8-29.6,4.7-32.9,20.9-60,41.7-59.5,0,.2,0,.5.1.7h0c3.4,25.1,1.5,125.8,1.5,125.8Z"/>
              </g>
              <path class="st6" d="M363.9,268c-7.9-6.4-42.4-27.5-61.6-36.1,1-3.9,1.6-6.2,1.6-6.2,3.3.5,53.9,27.9,58.8,37.2.4.8.8,2.6,1.2,5Z"/>
              <g>
                <path class="st15" d="M296,292.3c-7.3,29.5-3.9,102.7-3.9,102.7h-11.7s-2.6-53.2,5.2-99.3c3.5-20.5,7.8-35.7,10.7-46.6,0,0,0,0,0,0,3.1-11.5,4.6-18.2,2.2-21.6,0,0-.1-.1-.2-.2-.3-.4-.7-.8-1.2-1.1-.1,0-.3-.2-.4-.3-8.6-4.7-23.8,0-23.8,0,0,0-3.2,1.3-6.6,8-2.3,4.5-4.8,11.5-6.5,22.2-4.4,27.5-2.3,139.4-2.3,139.4h-12.9s1.6-121.7,6.1-144c3-14.7,7.1-22.4,13.4-27.3,2.3-1.8,5-3.2,8-4.4,1.1-.5,2.2-.9,3.4-1.3,6.7-2.8,24.6-5.2,30.8,5.6.2.4.5.8.7,1.3,5.5,12.3-3.7,37.5-10.9,67Z"/>
                <path class="st6" d="M272.1,219.7c-16.2,13.2-21.5,30.5-22.7,70.2-1.2,39.1-.7,85.2-4.2,105.5h-.6s1.6-121.7,6.1-144c3-14.7,7.1-22.4,13.4-27.3,2.3-1.8,5-3.2,8-4.4Z"/>
                <path class="st6" d="M285.6,295.7c3.5-20.5,7.8-35.7,10.7-46.6-2.5,14.2-6.4,31.6-7.7,44.4-2.5,23.1-7.8,77.4-6.1,98.5,0,1,.2,2,.2,2.9h-2.3s-2.6-53.2,5.2-99.3Z"/>
                <path class="st17" d="M298.4,227.3c-.3-.4-.7-.8-1.2-1.1.4-.5.6-.8.6-.8.3.5.5,1.1.6,1.9Z"/>
                <path class="st10" d="M306.3,224c-2.7.7-5.3,2-7.8,3.5-.5-.6-1.1-1.2-1.8-1.6-8.6-4.7-23.8,0-23.8,0,0,0-3.2,1.3-6.6,8-1.1-2.1-2.2-5.5-2.1-9.7,3.2-2.4,6.9-4.2,11.4-5.7,6.7-2.8,24.6-5.2,30.8,5.6Z"/>
              </g>
            </g>
            <g>
              <path class="st2" d="M298.5,182.8v45.2s-6.4,10.7-16.8,12.9c-10.5,2.2-14.8-5.2-14.8-5.2,0,0,.7-7.3,1.3-14.7.7-7.5,1.4-15.1,1.5-15.4l28.5-22.6.3-.2Z"/>
              <path class="st18" d="M284.5,216.3c-6.5,3.9-12.1,4.9-16.3,4.8.7-7.5,1.4-15.1,1.5-15.4l28.5-22.6c.5,10-1.9,26-13.7,33.2Z"/>
            </g>
            <g>
              <g>
                <path class="st2" d="M277.1,393.5c0,1.3-54.5.3-68.6,0-1.3,0-2.2,0-2.7,0-.4,0-.5,0-.5,0,0,0,1.5-7,3.9-9.4,2.5-2.5,18.4-14.3,21.3-14.7,2.8-.4,30.5,3.4,30.5,3.4,0,0,2.6-.6,5.6-1.2.2,0,.4,0,.5,0,3.8-.8,8-1.6,8.3-1.4,0,0,1.7,21.8,1.7,23.3Z"/>
                <path class="st0" d="M277.1,393.5c0,1.3-54.5.3-68.6,0,3.7-2.9,20.4-9.2,26.8-10.4,7-1.3,32.4.6,32.4.6,0,0-.2-6.8-.6-12.2,3.8-.8,8-1.6,8.3-1.4,0,0,1.7,21.8,1.7,23.3Z"/>
                <path class="st6" d="M260.9,372.8s2.6-.6,5.6-1.2c-.9,1.1-2.6,3.1-3,3.3-.6.2-28.2-3.2-31-2.4-2.8.8-17.1,9-20.3,12.8-1.7,2.1-4.4,5.4-6.4,8.3-.4,0-.5,0-.5,0,0,0,1.5-7,3.9-9.4,2.5-2.5,18.4-14.3,21.3-14.7,2.8-.4,30.5,3.4,30.5,3.4Z"/>
              </g>
              <path class="st13" d="M378.5,376.4c-2.7,15.8-8.3,17.8-8.3,17.8h-98.4l-1.1-15-.9-12.2v-2c-.1,0,8.3-1.7,8.3-1.7l57-11.6s-4.5-32.9,2.7-61.7c4.4-17.8,12.4-24.2,18.1-26.3,3.5-1.3,6.2-1,6.6-.6,8.3,6.4,12.3,26.6,14.9,57.5.6,7.6,1.2,15.8,1.8,24.6.9,14,.3,24.1-.9,31.3Z"/>
              <polygon class="st15" points="281.1 394.2 271.8 394.2 269.7 365 278.2 363.3 281.1 394.2"/>
              <path class="st12" d="M370.2,394.2h-98.4l-1.1-15c20.2-1,69.8-2.2,71.4-2,1.9.2-5.7-13.9-5.5-16.3.2-2.3,18.9,12.3,20,13.1-1-1-16.1-16.3-13.1-17.6,3.1-1.4,19.2,10.2,24.5,7.8,3.3-1.5,7.9-22.7,9.5-43.6.6,7.6,1.2,15.8,1.8,24.6,2.7,44.9-9.3,49-9.3,49Z"/>
              <path class="st6" d="M335.2,351.6l8.4,4.7s-2.7-.3-6.9-.9c-3.7-.5-53.8,9.3-66.8,11.5v-2c-.1,0,8.3-1.7,8.3-1.7l57-11.6Z"/>
              <path class="st6" d="M378.5,376.4c.4-33.3-7.5-102.4-16.4-110.2-1.6-1.4-3.7-2.2-6.1-2.6,3.5-1.3,6.2-1,6.6-.6,8.3,6.4,12.3,26.6,14.9,57.5.6,7.6,1.2,15.8,1.8,24.6.9,14,.3,24.1-.9,31.3Z"/>
            </g>
            <g>
              <path class="st2" d="M243.2,218.9c-.6,1.5-4.1,9.9-6.3,15.4-1,2.4-1.7,4.3-1.8,4.8-.3,1.6-12.5,10.3-12.5,10.3l-.5,17.4-10.5-.3-12.7-.4,7.9-20s-.7-4.8-1.2-9.1c-.2-2-.4-3.9-.4-5.1,0-1.9,1.3-6.1,2.6-9.9,0,0,0,0,0,0,1.3-3.7,2.6-7.1,2.6-7.1,0,0,1.4-15.7,2.5-17.7,1.1-2,3.2-1.5,3.9-.2,0,0,0,0,0-.1,0-.6.7-3.5,2.3-3.9,1.8-.5,3,1.9,3,1.9,0,0,0,0,0,0,.1-.6,1.2-5.3,3.4-5,2.1.2,2.7,3.8,2.8,4.5,0,0,0,.1,0,.1,0,0,1-2.4,2.9-1.9,1.9.5,2.5,2.5,2.5,6.3s.5,15.6.5,17.3-.4,7.4-.5,9.4c0,.4,0,.7,0,.7,0,0,.1-.5.4-1.3.6-1.8,1.9-5.1,3.8-6.8,2.7-2.4,5.2-2.5,5.9-1.7.2.3,0,1.2-.6,2.5Z"/>
              <path class="st0" d="M236.9,234.3c-1,2.4-1.7,4.3-1.8,4.8-.3,1.6-12.5,10.3-12.5,10.3l-.5,17.4-10.5-.3c.8-6.7,1.5-17.3,1.5-17.3,0,0-4,.1-6.4-3.2,0,0-.7-4.8-1.2-9.1,1.6,2,3.4,2.7,5,3.6,2.8,1.5,6.6-.3,6.6-.3,0,0,3,2,3.7,2s10.8-3.9,14-6.4c.6-.4,1.2-.9,1.9-1.5Z"/>
              <path class="st6" d="M216.8,196.9s-1.8-1.2-2.6.5c-.8,1.7-2.6,17.9-2.6,17.9,0,0-2,3.4-3.7,6.6,1.3-3.7,2.6-7.1,2.6-7.1,0,0,1.4-15.7,2.5-17.7,1.1-2,3.2-1.5,3.9-.2Z"/>
              <path class="st6" d="M222.2,194.8s-.7-1.1-2.7-.7c-1.7.3-2.5,2.2-2.6,2.7,0-.6.7-3.5,2.3-3.9,1.8-.5,3,1.9,3,1.9Z"/>
              <path class="st6" d="M228.3,194.1c-.2-.5-.9-2.4-2.6-2.6-1.8-.2-3.3,2.8-3.5,3.2.1-.6,1.2-5.3,3.4-5,2.1.2,2.7,3.8,2.8,4.5Z"/>
              <path class="st6" d="M234.2,216c0,1.4-.4,7.4-.5,9.4-.1.2-.2.3-.2.3,0,0,.1-28.8-1.4-31-1.5-2.3-3.8-.4-3.8-.4,0,0,1-2.4,2.9-1.9,1.9.5,2.5,2.5,2.5,6.3s.5,15.6.5,17.3Z"/>
              <path class="st6" d="M243.2,218.9c-.7-.3-1.6-.4-2.6-.3-2.7.5-5.4,4.4-6.6,6.2.6-1.8,1.9-5.1,3.8-6.8,2.7-2.4,5.2-2.5,5.9-1.7.2.3,0,1.2-.6,2.5Z"/>
              <g>
                <path class="st8" d="M216.7,233.7s6.9-5.5,13.6-6"/>
                <path class="st8" d="M221.3,238.8s2.9-7.9,10.2-9.5l1.7-2"/>
                <path class="st8" d="M212.3,217.8s9.4-.5,18.3-.8"/>
                <line class="st8" x1="228.1" y1="195.9" x2="227" y2="215.1"/>
                <line class="st8" x1="222.2" y1="197.3" x2="221.2" y2="215.1"/>
                <line class="st8" x1="216.9" y1="198.9" x2="215.8" y2="214.8"/>
              </g>
            </g>
            <g>
              <path class="st13" d="M225.7,259.5s0,2.6-.2,6.9c-.5,17.1-1.8,61.4-1.8,82s-4.7,39.7-23.4,41.4c-13.9,1.3-18.9-6.7-20.9-18.9-.3-1.5-.4-3-.6-4.6-.3-2.9-.5-6.1-.6-9.3-.6-16.3,13.3-73,18.1-91.9,1-3.9,1.6-6.2,1.6-6.2h5c0,.1,12.8.4,12.8.4l10.1.2Z"/>
              <path class="st15" d="M225.7,259.5s0,2.6-.2,6.9l-11.3-.5-13.1-.6-4.8-.2c1-3.9,1.6-6.2,1.6-6.2h5c0,.1,12.8.4,12.8.4l10.1.2Z"/>
              <path class="st12" d="M225.7,259.5s0,2.6-.2,6.9c-.5,17.1-1.8,61.4-1.8,82s-4.7,39.7-23.4,41.4c-13.9,1.3-18.9-6.7-20.9-18.9-.3-1.5-.4-3-.6-4.6.3.2.5.4.8.6,28.9,22.4,31.2-28,30.9-31-.3-3.1-7.1,1.4-9.2-2-1.5-2.5,7.8-43.7,13-67.9.5-2.4,1-4.6,1.4-6.6l10.1.2Z"/>
              <path class="st6" d="M202.8,258.9c-.4,1.6-1,3.7-1.7,6.3-5.8,21.1-19.6,73.5-21.5,101.6-.1,1.4-.2,2.7-.2,4-.3-1.5-.4-3-.6-4.6-.3-2.9-.5-6.1-.6-9.3-.6-16.3,13.3-73,18.1-91.9,1-3.9,1.6-6.2,1.6-6.2h5Z"/>
            </g>
            <g>
              <g>
                <g>
                  <path class="st18" d="M255.5,164.8h4.6v1.2c4.1,2.2,7,7.4,7,13.4s-2.9,11.1-7,13.4v1.2h-4.6c-6.4,0-11.5-6.5-11.5-14.6s5.2-14.6,11.5-14.6Z"/>
                  <ellipse class="st15" cx="260.1" cy="179.3" rx="11.5" ry="14.6"/>
                  <ellipse class="st18" cx="260.1" cy="179.3" rx="7.7" ry="9.7"/>
                </g>
                <path class="st18" d="M254.3,146.5c-2.7,4.2-1,10.5-1,10.5l1.7,2,13.4-16-14.1,3.5Z"/>
                <g>
                  <path class="st2" d="M301.3,163.6c-.4,14.8-1.9,43.7-26.1,47-.7.1-1.4.2-2.1.2-5.7.4-9.7-1-12.7-3.6-8.5-7.5-7.3-25.1-6.9-37.5.3-9.6,2.5-17.4,7.9-22.5,3.7-3.4,8.8-5.6,15.8-6.2,1.3-.1,2.7-.2,4.2-.2,6.4,0,20.2,8,19.8,22.8Z"/>
                  <path class="st0" d="M301.3,163.6c-.4,14.8-1.9,43.7-26.1,47-.7.1-1.4.2-2.1.2,4.5-3.7,8.6-9,9.3-16.2,1.5-16.3,2.8-44.8-5.1-53.5,1.3-.1,2.7-.2,4.2-.2,6.4,0,20.2,8,19.8,22.8Z"/>
                  <path class="st6" d="M258.2,196.3c.9,4.6,1.7,8.2,2.4,10.9-8.5-7.5-7.3-25.1-6.9-37.5.3-9.6,2.5-17.4,7.9-22.5-5.5,16-5.5,37.8-3.4,49Z"/>
                </g>
                <g>
                  <path class="st3" d="M318.8,156c-1.9,11.6-12.6,25.7-12.6,25.7l-11.5.5-.9-9.6s-5.1-3.6-4.9-11c.2-7.2,4.5-11.4,4.8-11.7-.4.2-10.7,5.3-20.8-.4-10.4-5.8-15.2-3.2-17.7.6-2.3,3.4-.1,9-.1,9,0,0-4.8-.7-5.4-7.1,0,0,0,0,0,0-.1-1.4,0-3,.2-4.9.6-3.8,2.4-6,4.5-7.2h0c3.8-2.2,8.4-1.1,8.4-1.1,0,0,2.7-8.8,19.5-5.4,0,0,9-4.1,15.7-1.2,6.8,2.9,7,8.2,7,8.2,0,0,9.6-3.5,13.5,8.3.2.7.4,1.5.5,2.3,0,0,0,0,0,0,.2,1.6.1,3.3-.2,5Z"/>
                  <path class="st24" d="M318.8,156c-1.9,11.6-12.6,25.7-12.6,25.7l-11.5.5-.9-9.6s-5.1-3.6-4.9-11c.2-7.2,4.5-11.4,4.8-11.7-.4.2-10.7,5.3-20.8-.4-10.4-5.8-15.2-3.2-17.7.6-2.3,3.4-.1,9-.1,9,0,0-4.8-.7-5.4-7.1,1,1.5,2.2.8,3.3-2.1,2.1-5.8,3.8-8.5,9.4-7.8,5.4.7,11.1,5.2,11.4,5.4-.1-.3-2.5-4.9-5.8-7.1,0,0,9.1,1,13,6,4,5,2.6-4.1-1.6-6.9,0,0,7.5-2.3,13.6,3.5,6,5.6,12.7.1,13.1-.2-.3.3-5.6,5.5-4.4,14.1,1,7.1,12.3,6.3,17.1-.7Z"/>
                  <path class="st6" d="M319,151c-.6-1.6-2.3-5.5-6.5-7.9-5.2-2.9-10.3.1-10.8.4l2-1.6c-.2-3.7-3.6-8.6-9.6-9.2-6-.6-10.7,3.2-10.7,3.2,0,0-3.3-1.5-9.5-1.6-6.3,0-9.9,5.1-9.9,5.1l2.5,2.4c-.4-.1-7.2-2.8-12.3-1.9,3.8-2.2,8.4-1.1,8.4-1.1,0,0,2.7-8.8,19.5-5.4,0,0,9-4.1,15.7-1.2,6.8,2.9,7,8.2,7,8.2,0,0,9.6-3.5,13.5,8.3.2.7.4,1.5.5,2.3Z"/>
                </g>
              </g>
              <g>
                <path class="st15" d="M308.4,165.2h-8.3s-6.2-28.8-25-33.1h6.5c6.2,0,12.5,3.3,16.7,9,3.7,5,7.6,12.7,10.2,24.2Z"/>
                <g>
                  <rect class="st18" x="273.9" y="195.3" width="7.6" height="4.7" rx="1.9" ry="1.9" transform="translate(555.5 395.2) rotate(-180)"/>
                  <path class="st18" d="M298.7,193l-3.3,3.6c-1.3,1.4-3.1,2.2-5.1,2.2h-10.4c-.6,0-1-.5-1-1s.5-1,1-1h10.4c1.3,0,2.6-.6,3.5-1.5l3.3-3.6c.4-.4,1.1-.4,1.5,0,.4.4.4,1.1,0,1.5h0Z"/>
                </g>
                <g>
                  <path class="st18" d="M301.7,164.8h4.6v1.2c4.1,2.2,7,7.4,7,13.4s-2.9,11.1-7,13.4v1.2h-4.6c-6.4,0-11.5-6.5-11.5-14.6s5.2-14.6,11.5-14.6Z"/>
                  <ellipse class="st15" cx="306.3" cy="179.3" rx="11.5" ry="14.6"/>
                  <ellipse class="st18" cx="306.3" cy="179.3" rx="7.7" ry="9.7"/>
                </g>
              </g>
            </g>
          </g>
          <g>
            <g>
              <g>
                <rect class="st25" x="124.1" y="385" width="128.4" height="10.3" rx="4.1" ry="4.1"/>
                <rect class="st18" x="209.7" y="385" width="42.9" height="10.3" rx="4.1" ry="4.1"/>
              </g>
              <g>
                <g>
                  <rect class="st18" x="126.8" y="275.7" width="117.8" height="100.6" rx="5.1" ry="5.1"/>
                  <path class="st25" d="M239,282.1v87.8c0,.6,0,1.2-.2,1.7-.8,2.7-3.2,4.7-6.2,4.7h-105c-3.5,0-6.4-2.9-6.4-6.4v-87.8c0-2.3,1.2-4.2,2.9-5.4,1-.6,2.2-1,3.5-1h105c3.5,0,6.4,2.9,6.4,6.4Z"/>
                  <path class="st12" d="M239,355.5v14.4c0,.6,0,1.2-.2,1.7-.8,2.7-3.2,4.7-6.2,4.7h-105c-3.5,0-6.4-2.9-6.4-6.4v-80.7c11.3,24.1,41.4,64,116.5,66.3.4,0,.8,0,1.2,0Z"/>
                  <path class="st6" d="M239,282.1v87.8c0,.6,0,1.2-.2,1.7-.3-2.8-.6-8.7-1-16.2-1.2-22.7-2.9-60.1-3.4-71.2,0-1.8-1.6-3.3-3.4-3.4l-106.9-4.2c1-.6,2.2-1,3.5-1h105c3.5,0,6.4,2.9,6.4,6.4Z"/>
                </g>
                <g>
                  <path class="st18" d="M199.8,391.7v3.6h-41.1v-6.1c0-1.1.4-2.2,1.2-3,9.4-9.4,10.5-30.1,10.5-39.1,0-2.4,1.9-4.3,4.3-4.3h10.1c2.4,0,4.3,1.9,4.3,4.3,0,9.4-1.2,31.4-11.7,40.2h18.1c2.4,0,4.3,1.9,4.3,4.3Z"/>
                  <path class="st25" d="M171.2,391v-1.7c0-1.1.4-2.2,1.2-3,9.4-9.4,10.5-30.1,10.5-39.1,0-2.4-1.9-4.3-4.3-4.3h-10.1c-2.4,0-4.3,1.9-4.3,4.3,0,9-1.1,29.7-10.5,39.1-.8.8-1.2,1.9-1.2,3v1.7c0,2.4,1.9,4.3,4.3,4.3h10.1c2.4,0,4.3-1.9,4.3-4.3Z"/>
                </g>
              </g>
            </g>
            <g>
              <rect class="st15" x="74" y="394.1" width="361.2" height="9.8" rx="3.9" ry="3.9"/>
              <rect class="st18" x="272.8" y="394.1" width="162.4" height="9.8" rx="3.9" ry="3.9"/>
            </g>
            <g>
              <path class="st15" d="M375,367.4h-8.1l-2.2,16.7h10.4c3.5,0,6.4-2.9,6.4-6.4v-3.9c0-3.5-2.9-6.4-6.4-6.4ZM377.5,377c0,2.1-1.7,3.8-3.8,3.8h-6.2l1.3-10.1h4.9c2.1,0,3.8,1.7,3.8,3.8v2.4Z"/>
              <path class="st15" d="M372.4,364.2c-.2,6.1-1.5,20.7-8,29.8h-30.9c-2.5-3.5-4.2-7.8-5.3-12.1-2.8-10.3-2.7-20.6-2.7-20.6h46.9s0,1.1,0,2.9Z"/>
              <path class="st11" d="M372.4,364.2c-.2,6.1-1.5,20.7-8,29.8h-30.9c-2.5-3.5-4.2-7.8-5.3-12.1,20.5,7.8,38.9-7.2,44.2-17.7Z"/>
            </g>
            <g>
              <g>
                <rect class="st25" x="422" y="304.7" width="4.4" height="14" rx="1.2" ry="1.2" transform="translate(48.1 -56.7) rotate(8.1)"/>
                <rect class="st13" x="414.6" y="314.4" width="8.2" height="73" rx="1.7" ry="1.7" transform="translate(53.6 -55.5) rotate(8.1)"/>
                <path class="st25" d="M429.6,317.8c.9.1,1.5.9,1.4,1.8l-2.7,18.9-1.8-.3,2.4-16.9-1.8-.3.5-3.5,2,.3Z"/>
              </g>
              <g>
                <rect class="st1" x="374.4" y="343.9" width="65.1" height="8.5" transform="translate(11 708.9) rotate(-82.9)"/>
                <path class="st25" d="M409.3,307.3h4.5c1.1,0,2,.9,2,2v6.6h-8.5v-6.6c0-1.1.9-2,2-2Z" transform="translate(41.8 -48.6) rotate(7.1)"/>
                <rect class="st15" x="406.5" y="313.2" width="8.6" height="8.5" transform="translate(44.9 685.7) rotate(-82.9)"/>
                <rect class="st21" x="410.4" y="309.8" width="1.7" height="8.5" transform="translate(48.7 683.2) rotate(-82.9)"/>
                <rect class="st12" x="376.2" y="346" width="67.9" height="2.4" transform="translate(14.8 711.2) rotate(-82.9)"/>
                <rect class="st6" x="370" y="345.4" width="67.9" height="2.1" transform="translate(10.1 704.3) rotate(-82.9)"/>
              </g>
              <g>
                <rect class="st13" x="399.3" y="303.4" width="4.4" height="14" rx="1.2" ry="1.2" transform="translate(-24.8 35.1) rotate(-4.9)"/>
                <rect class="st25" x="400.7" y="313.5" width="8.2" height="73" rx="1.7" ry="1.7" transform="translate(-28.1 35.5) rotate(-4.9)"/>
                <path class="st13" d="M408,315.2c.9,0,1.6.6,1.7,1.5l1.6,19-1.8.2-1.4-17-1.8.2-.3-3.6,2-.2Z"/>
              </g>
              <g>
                <rect class="st1" x="388.6" y="317.4" width="8.5" height="65.1" transform="translate(-33.5 41.7) rotate(-5.8)"/>
                <path class="st25" d="M386.8,308.9h4.5c1.1,0,2,.9,2,2v6.6h-8.5v-6.6c0-1.1.9-2,2-2Z" transform="translate(-29.8 41.1) rotate(-5.8)"/>
                <rect class="st15" x="385.4" y="314.7" width="8.5" height="8.6" transform="translate(-30.4 41.2) rotate(-5.8)"/>
                <rect class="st21" x="385.1" y="314.8" width="8.5" height="1.7" transform="translate(-30 41.2) rotate(-5.8)"/>
                <rect class="st12" x="394.5" y="314.3" width="2.4" height="67.9" transform="translate(-33.3 42) rotate(-5.8)"/>
                <rect class="st6" x="388.4" y="314.9" width="2.1" height="67.9" transform="translate(-33.4 41.3) rotate(-5.8)"/>
              </g>
              <g>
                <polygon class="st25" points="424.8 344.1 424.1 353.3 421 394.2 390.2 394.2 389.2 381.4 387 353.3 386.3 344.1 424.8 344.1"/>
                <polygon class="st15" points="424.8 344.1 424.1 353.3 387 353.3 386.3 344.1 424.8 344.1"/>
                <path class="st12" d="M424.8,344.1l-.7,9.2-3.2,40.8h-30.8l-1-12.8c22.3,0,30.2-27,32.4-37.2h3.2Z"/>
              </g>
            </g>
          </g>
        </g>
      </g>
      <g>
        <path class="st9" d="M153.2,183.1h-39c-4.5,0-8.1,3.6-8.1,8v21c0,4.4,3.6,8,8.1,8h39c4.5,0,8.1-3.6,8.1-8v-21c0-4.4-3.6-8-8.1-8Z"/>
        <polygon class="st9" points="123.1 218.3 112.5 232.3 112 217.8 123.1 218.3"/>
        <rect class="st4" x="134.5" y="215.5" width="56.8" height="38.2" rx="5.5" ry="5.5" transform="translate(325.9 469.1) rotate(180)"/>
        <polygon class="st4" points="173.9 251.7 184.8 266.3 185.3 251.3 173.9 251.7"/>
        <path class="st14" d="M147.2,194.1h-4.7c.7.2.9.3,1,.4,0,.2-.3.3-.7.3-1.5,4.3-3.6,7.7-6.3,10.4,3,2.4,6.6,4.2,11,5.2-.4.4-1,1.2-1.3,1.7-4.5-1.1-8.1-3-11.2-5.7-3,2.5-6.6,4.3-11,5.7-.2-.4-.7-1.2-1-1.6,4.3-1.2,7.9-2.9,10.7-5.3-2.8-2.9-5-6.5-6.5-10.7l1.1-.3h-5v-1.7h11v-4.6l2.3.2c0,.2-.2.3-.5.4v4h11.2v1.7ZM129,194.1c1.4,3.8,3.4,7.1,6.2,9.8,2.6-2.6,4.6-5.8,5.9-9.8h-12.1Z"/>
        <path class="st14" d="M165.4,236.6h-8.4l-2.5,6.9h-2.4l7.9-21h2.5l7.9,21h-2.4l-2.5-6.9ZM157.4,234.9h7.4l-2.8-7.5c-.3-.9-.7-2-.9-2.8h0c-.3,1.1-.5,1.9-.9,2.8l-2.8,7.5Z"/>
      </g>
    </g>
  </g>
</svg>