<svg width="25" height="25" viewBox="0 0 25 25" fill="none" xmlns="http://www.w3.org/2000/svg">
<rect x="2.5" y="3.33301" width="20" height="20" fill="#072C46"/>
<path d="M12.6604 11.1763L8.4257 5.25098H6.16708L11.4128 12.5905L12.0731 13.5137L16.5632 19.8014H18.8218L13.3179 12.0996L12.6604 11.1763Z" fill="#D6E5F6"/>
<path d="M22.0414 1.0415H2.95854C1.89984 1.0415 1.04166 1.89968 1.04166 2.95839V22.0413C1.04166 23.1 1.89984 23.9582 2.95854 23.9582H22.0414C23.1001 23.9582 23.9583 23.1 23.9583 22.0413V2.95839C23.9583 1.89968 23.1001 1.0415 22.0414 1.0415ZM15.8701 20.8332L11.3258 14.3613L5.6369 20.8332H4.16666L10.6738 13.4325L4.16666 4.1665H9.12983L13.432 10.2935L18.8225 4.1665H20.2927L14.0875 11.2245L20.8333 20.8332H15.8701Z" fill="#D6E5F6"/>
</svg>
